<?xml version="1.0" encoding="UTF-8"?>
<svg xmlns="http://www.w3.org/2000/svg" xmlns:xlink="http://www.w3.org/1999/xlink" version="1.1" id="Capa_1" x="0px" y="0px" viewBox="0 0 512 512" style="enable-background:new 0 0 512 512;" xml:space="preserve" width="512" height="512">
<g>
	
		<polyline style="fill:none;stroke:#000000;stroke-width:15;stroke-linecap:round;stroke-linejoin:round;stroke-miterlimit:10;" points="&#10;&#9;&#9;66.84,380.274 7.5,380.274 7.5,69.644 162,69.644 &#9;"/>
	
		<polyline style="fill:none;stroke:#000000;stroke-width:15;stroke-linecap:round;stroke-linejoin:round;stroke-miterlimit:10;" points="&#10;&#9;&#9;194.69,69.644 504.5,69.644 504.5,380.274 99.53,380.274 &#9;"/>
	<g>
		
			<rect x="54.095" y="131.706" style="fill:none;stroke:#000000;stroke-width:15;stroke-linecap:round;stroke-linejoin:round;stroke-miterlimit:10;" width="62.135" height="62.135"/>
		
			<rect x="147.277" y="131.706" style="fill:none;stroke:#000000;stroke-width:15;stroke-linecap:round;stroke-linejoin:round;stroke-miterlimit:10;" width="62.135" height="62.135"/>
		
			<rect x="240.458" y="131.706" style="fill:none;stroke:#000000;stroke-width:15;stroke-linecap:round;stroke-linejoin:round;stroke-miterlimit:10;" width="62.135" height="62.135"/>
		
			<rect x="54.095" y="224.896" style="fill:none;stroke:#000000;stroke-width:15;stroke-linecap:round;stroke-linejoin:round;stroke-miterlimit:10;" width="62.135" height="62.135"/>
		
			<rect x="147.277" y="224.896" style="fill:none;stroke:#000000;stroke-width:15;stroke-linecap:round;stroke-linejoin:round;stroke-miterlimit:10;" width="62.135" height="62.135"/>
		
			<rect x="240.458" y="224.896" style="fill:none;stroke:#000000;stroke-width:15;stroke-linecap:round;stroke-linejoin:round;stroke-miterlimit:10;" width="62.135" height="62.135"/>
	</g>
	
		<line style="fill:none;stroke:#000000;stroke-width:15;stroke-linecap:round;stroke-linejoin:round;stroke-miterlimit:10;" x1="504.5" y1="349.214" x2="427.65" y2="349.214"/>
	
		<line style="fill:none;stroke:#000000;stroke-width:15;stroke-linecap:round;stroke-linejoin:round;stroke-miterlimit:10;" x1="394.97" y1="349.214" x2="7.5" y2="349.214"/>
	<path style="fill:none;stroke:#000000;stroke-width:15;stroke-linecap:round;stroke-linejoin:round;stroke-miterlimit:10;" d="&#10;&#9;&#9;M394.412,442.356H117.588c-6.236,0-9.359-7.54-4.95-11.95l0,0c12.238-12.238,28.835-19.112,46.142-19.112h194.44&#10;&#9;&#9;c17.306,0,33.904,6.875,46.142,19.112l0,0C403.771,434.816,400.648,442.356,394.412,442.356z"/>
	
		<rect x="193.875" y="380.243" style="fill:none;stroke:#000000;stroke-width:15;stroke-linecap:round;stroke-linejoin:round;stroke-miterlimit:10;" width="124.249" height="31.062"/>
	<path style="fill:none;stroke:#000000;stroke-width:15;stroke-linecap:round;stroke-linejoin:round;stroke-miterlimit:10;" d="&#10;&#9;&#9;M353.581,188.445c14.2-15.8,34.81-25.73,57.73-25.73c22.92,0,43.53,9.93,57.73,25.73"/>
	<path style="fill:none;stroke:#000000;stroke-width:15;stroke-linecap:round;stroke-linejoin:round;stroke-miterlimit:10;" d="&#10;&#9;&#9;M376.921,209.455c8.35-9.61,20.66-15.68,34.39-15.68c13.73,0,26.04,6.07,34.39,15.68"/>
	
		<circle style="fill:none;stroke:#000000;stroke-width:15;stroke-linecap:round;stroke-linejoin:round;stroke-miterlimit:10;" cx="411.311" cy="240.43" r="15.591"/>
</g>















</svg>
