<svg width="32" height="32" viewBox="0 0 32 32" fill="none" xmlns="http://www.w3.org/2000/svg">
<g clip-path="url(#clip0_1740_6772)">
<path d="M29.1774 14.2907C29.4279 14.1802 29.6404 13.9985 29.7887 13.7683C29.9369 13.538 30.0145 13.2693 30.0116 12.9954C30.0088 12.7215 29.9258 12.4545 29.7727 12.2274C29.6197 12.0003 29.4035 11.823 29.1508 11.7177L17.1606 6.25248C16.796 6.0861 16.4001 6 15.9994 6C15.5988 6 15.2028 6.0861 14.8383 6.25248L2.84943 11.7121C2.60038 11.8212 2.38851 12.0007 2.23973 12.2284C2.09095 12.4561 2.01172 12.7223 2.01172 12.9944C2.01172 13.2665 2.09095 13.5327 2.23973 13.7604C2.38851 13.9881 2.60038 14.1676 2.84943 14.2767L14.8383 19.7475C15.2028 19.9139 15.5988 20 15.9994 20C16.4001 20 16.796 19.9139 17.1606 19.7475L29.1774 14.2907Z" stroke="#A650FF" stroke-width="2.66667" stroke-linecap="round" stroke-linejoin="round"/>
<path d="M30.0117 13V22" stroke="#A650FF" stroke-width="2.66667" stroke-linecap="round" stroke-linejoin="round"/>
<path d="M7.01172 17V21.8462C7.01172 22.9478 7.90725 24.0044 9.50131 24.7834C11.0954 25.5624 13.2574 26 15.5117 26C17.7661 26 19.9281 25.5624 21.5221 24.7834C23.1162 24.0044 24.0117 22.9478 24.0117 21.8462V17" stroke="#A650FF" stroke-width="2.66667" stroke-linecap="round" stroke-linejoin="round"/>
</g>
<defs>
<clipPath id="clip0_1740_6772">
<rect width="32" height="32" fill="white"/>
</clipPath>
</defs>
</svg>
