<svg id="Layer_1" height="512" viewBox="0 0 24 24" width="512" xmlns="http://www.w3.org/2000/svg" data-name="Layer 1"><path d="m13 21.25h-4a.75.75 0 0 0 0 1.5h4a.75.75 0 0 0 0-1.5z"/><path d="m17 4.25a5.75 5.75 0 1 0 5.75 5.75 5.7564 5.7564 0 0 0 -5.75-5.75zm0 10a4.25 4.25 0 1 1 4.25-4.25 4.2547 4.2547 0 0 1 -4.25 4.25z"/><path d="m17 7.25a.75.75 0 0 0 -.75.75v2a.75.75 0 0 0 1.5 0v-2a.75.75 0 0 0 -.75-.75z"/><circle cx="17" cy="12" r=".75"/><path d="m3.5 19.75h15a2.2528 2.2528 0 0 0 2.25-2.25 1.448 1.448 0 0 0 -.0469-.3237.75.75 0 0 0 -1.4541.352.75.75 0 0 1 -.749.7217h-15a.75.75 0 0 1 0-1.5h.5a.75.75 0 0 0 .75-.75v-5a6.257 6.257 0 0 1 6.25-6.25 4.23 4.23 0 0 1 .5771.0332.75.75 0 1 0 .2051-1.4863c-.01-.0014-.0218-.0006-.0322-.002v-1.2949a.75.75 0 0 0 -1.5 0v1.288a7.7594 7.7594 0 0 0 -7 7.712v4.2637a2.25 2.25 0 0 0 .25 4.4863z"/></svg>