<svg width="321" height="464" viewBox="0 0 321 464" fill="none" xmlns="http://www.w3.org/2000/svg">
<g clip-path="url(#clip0_1745_99)">
<path d="M27.3333 557.612C12.8874 520.732 4.03346 482.587 1.10433 444.242C-1.62508 408.56 0.704908 372.745 8.09429 337.662C15.0177 304.842 26.2682 273.021 41.4464 243.131C55.9588 214.638 73.7999 188.542 94.3703 165.575C99.9623 159.318 105.687 153.393 111.612 147.734C69.1399 78.6337 60.0197 22.2478 84.4512 -19.8916C129.054 -96.7812 268.254 -93.1196 274.179 -92.9198L273.247 -64.96C272.914 -64.96 239.828 -65.8919 202.615 -58.5691C169.928 -52.1117 127.057 -37.666 108.617 -5.84508C90.1764 25.9759 98.3646 71.3108 132.915 129.028C152.021 113.783 172.258 101.601 192.829 93.0129C229.842 77.5018 267.122 74.1735 300.474 83.2271C339.485 93.8119 361.919 117.445 362.186 148.134C362.452 185.347 328.767 223.159 283.765 236.074C255.339 244.262 225.515 241.999 197.489 229.483C171.726 218.033 148.293 198.461 127.589 171.167C123.395 175.361 119.201 179.688 115.207 184.215C96.2343 205.385 79.7913 229.484 66.3439 255.846C52.2309 283.539 41.8458 313.03 35.3884 343.453C28.5316 375.94 26.3347 409.092 28.8644 442.111C31.5938 477.66 39.7821 513.076 53.2295 547.36L27.3333 557.612ZM148.559 152.461C166.733 176.959 187.037 194.201 208.939 203.987C236.633 216.303 260.798 213.64 276.109 209.246C292.752 204.453 307.864 195.2 318.848 183.084C328.9 171.966 334.425 159.651 334.359 148.4C334.159 124.834 308.529 114.382 293.285 110.255C265.924 102.865 234.968 105.795 203.747 118.843C184.907 126.765 166.267 138.148 148.559 152.461Z" fill="white"/>
</g>
<defs>
<clipPath id="clip0_1745_99">
<rect width="321" height="464" fill="white"/>
</clipPath>
</defs>
</svg>
