<svg width="275" height="42" viewBox="0 0 275 42" fill="none" xmlns="http://www.w3.org/2000/svg">
<path d="M0 8.49413H4.22846V11.318C4.25072 11.318 4.29523 11.3404 4.33974 11.3404C4.45101 11.3404 4.62906 11.2732 4.85161 11.1387C5.09641 11.0043 5.36347 10.825 5.67505 10.5784C6.00887 10.3319 6.36495 10.0854 6.72103 9.86126C7.07711 9.63714 7.41094 9.50267 7.72251 9.43543C9.25811 8.8079 10.816 8.49413 12.3738 8.49413C13.5756 8.49413 15.2002 8.8079 17.2254 9.41302C19.2506 10.0406 21.0756 11.587 22.7224 14.0523C24.3693 11.699 26.5503 10.063 29.2654 9.14408C30.5562 8.71825 31.847 8.49413 33.1156 8.49413C34.5399 8.49413 35.942 8.76307 37.3663 9.27855C39.5695 10.1526 41.4167 11.5422 42.8855 13.4248C44.3321 15.3074 45.1778 17.4589 45.4004 19.857C45.4449 21.762 45.4671 23.667 45.4671 25.5496L45.4449 33.5059H41.2387V21.0672C41.2387 19.0053 40.5488 17.1676 39.1912 15.5539C37.8114 13.9402 36.031 13.0213 33.8722 12.7972C33.5607 12.7524 33.2491 12.7524 32.9375 12.7524C31.8025 12.7524 30.6452 13.0213 29.4657 13.5816C28.2862 14.1419 27.2402 14.9936 26.3723 16.1814C25.5043 17.3693 24.9925 18.6916 24.8812 20.1708C24.8589 22.2551 24.8367 24.3394 24.8367 26.4013V33.5059H20.6082V21.0224C20.6082 18.9829 19.9405 17.1676 18.583 15.5539C17.2254 13.9402 15.445 13.0213 13.264 12.7972C12.9525 12.7524 12.6409 12.7524 12.3516 12.7524C11.2166 12.7524 10.037 13.0213 8.85752 13.5816C7.678 14.1419 6.63201 14.9936 5.76406 16.159C4.89612 17.3244 4.38425 18.6467 4.27297 20.1483C4.25072 22.2102 4.22846 24.2946 4.22846 26.3565V33.5059H0V8.49413Z" fill="white"/>
<path d="M59.0084 8.49413C61.2784 8.49413 63.3704 9.07684 65.2398 10.1974C67.1315 11.318 68.6226 12.842 69.7353 14.7247C70.8703 16.6297 71.4267 18.714 71.4267 21C71.4267 23.3084 70.8703 25.3927 69.7353 27.2753C68.6226 29.1804 67.1315 30.682 65.2398 31.825C63.3704 32.9456 61.2784 33.5059 59.0084 33.5059C56.7384 33.5059 54.6464 32.9456 52.777 31.825C50.8853 30.682 49.3942 29.1804 48.2814 27.2753C47.1464 25.3927 46.59 23.3084 46.59 21C46.59 18.714 47.1464 16.6297 48.2814 14.7247C49.3942 12.842 50.8853 11.318 52.777 10.1974C54.6464 9.07684 56.7384 8.49413 59.0084 8.49413ZM59.0084 12.7524C57.495 12.7524 56.1152 13.111 54.8689 13.8506C53.6227 14.5902 52.6434 15.5987 51.909 16.8314C51.1746 18.0864 50.8185 19.476 50.8185 21C50.8185 22.524 51.1746 23.9136 51.909 25.1686C52.6434 26.4237 53.6227 27.4098 54.8689 28.1494C56.1152 28.889 57.495 29.27 59.0084 29.27C60.5217 29.27 61.9015 28.889 63.1478 28.1494C64.3719 27.4098 65.3733 26.4237 66.1077 25.1686C66.8422 23.9136 67.1982 22.524 67.1982 21C67.1982 19.476 66.8422 18.0864 66.1077 16.8314C65.3733 15.5987 64.3719 14.5902 63.1478 13.8506C61.9015 13.111 60.5217 12.7524 59.0084 12.7524Z" fill="white"/>
<path d="M84.9451 33.5059C82.6751 33.5059 80.5831 32.9456 78.7137 31.825C76.822 30.682 75.3309 29.1804 74.2182 27.2753C73.0832 25.3927 72.5268 23.3084 72.5268 21C72.5268 18.714 73.0832 16.6297 74.2182 14.7247C75.3309 12.842 76.822 11.318 78.7137 10.1974C80.5831 9.07684 82.6751 8.49413 84.9451 8.49413C86.503 8.49413 87.9941 8.78549 89.3961 9.32337C90.7759 9.88367 92.0445 10.6457 93.135 11.6318V0H97.3634V21.0224C97.3189 23.3533 96.7626 25.4376 95.6498 27.3202C94.537 29.2028 93.046 30.7044 91.1765 31.825C89.2849 32.9456 87.2151 33.5059 84.9451 33.5059ZM84.9451 29.27C86.4585 29.27 87.8383 28.889 89.0846 28.1494C90.3086 27.4098 91.3101 26.4237 92.0445 25.1686C92.7789 23.9136 93.135 22.524 93.135 21C93.135 19.476 92.7789 18.0864 92.0445 16.8314C91.3101 15.5987 90.3086 14.5902 89.0846 13.8506C87.8383 13.111 86.4585 12.7524 84.9451 12.7524C83.4318 12.7524 82.0519 13.111 80.8057 13.8506C79.5594 14.5902 78.5802 15.5987 77.8457 16.8314C77.1113 18.0864 76.7552 19.476 76.7552 21C76.7552 22.524 77.1113 23.9136 77.8457 25.1686C78.5802 26.4237 79.5594 27.4098 80.8057 28.1494C82.0519 28.889 83.4318 29.27 84.9451 29.27Z" fill="white"/>
<path d="M110.882 8.49413C112.907 8.49413 114.799 8.96478 116.535 9.88367C118.271 10.7802 119.695 12.0128 120.852 13.5816C122.009 15.1281 122.766 16.8986 123.122 18.8709C123.211 19.5208 123.278 20.238 123.3 21C123.3 21.7396 123.233 22.4344 123.122 23.1291H102.959C103.449 24.9445 104.406 26.4013 105.852 27.5443C107.299 28.6873 108.968 29.27 110.882 29.27C112.017 29.27 113.107 29.0459 114.109 28.6201C115.088 28.1718 115.978 27.5891 116.713 26.8271L119.317 30.1665C118.204 31.1974 116.913 32.0267 115.489 32.6094C114.042 33.2145 112.506 33.5059 110.882 33.5059C108.834 33.5059 106.965 33.0576 105.229 32.1387C103.493 31.2199 102.069 29.9872 100.912 28.4408C99.7543 26.8943 98.9976 25.1238 98.6415 23.1291C98.5525 22.4792 98.4858 21.7844 98.4635 21C98.4635 20.3501 98.5303 19.6329 98.6415 18.8709C98.9976 16.8986 99.7543 15.1281 100.889 13.5816C102.047 12.0128 103.493 10.7802 105.229 9.88367C106.965 8.96478 108.834 8.49413 110.882 8.49413ZM110.882 12.7524C108.968 12.7524 107.299 13.3127 105.852 14.4557C104.406 15.5987 103.449 17.0779 102.959 18.8709H118.805C118.315 17.0779 117.336 15.5987 115.911 14.4557C114.465 13.3127 112.796 12.7524 110.882 12.7524Z" fill="white"/>
<path d="M124.4 8.49413H128.629V11.6318C129.719 10.6457 130.965 9.88367 132.368 9.32337C133.77 8.78549 135.238 8.49413 136.819 8.49413V12.7524C135.305 12.7524 133.925 13.111 132.679 13.8506C131.433 14.5902 130.454 15.5987 129.719 16.8314C128.985 18.0864 128.629 19.476 128.629 21V33.5059H124.4V8.49413Z" fill="white"/>
<path d="M137.923 8.49413H142.151V11.6318C143.242 10.6457 144.488 9.88367 145.89 9.32337C147.292 8.78549 148.761 8.49413 150.341 8.49413C152.611 8.49413 154.703 9.07684 156.573 10.1974C158.442 11.318 159.955 12.842 161.068 14.7247C162.203 16.6073 162.759 18.714 162.759 21V33.5059H158.531V20.9552C158.509 19.4312 158.13 18.0416 157.418 16.809C156.684 15.5763 155.705 14.5902 154.458 13.8506C153.234 13.111 151.854 12.7524 150.341 12.7524C148.828 12.7524 147.448 13.111 146.202 13.8506C144.955 14.5902 143.976 15.5987 143.242 16.8314C142.507 18.0864 142.151 19.476 142.151 21V33.5059H137.923V8.49413Z" fill="white"/>
<path d="M175.833 8.51654L176.233 8.49413L176.656 8.51654C178.904 8.60619 180.951 9.21131 182.754 10.3319C184.557 11.4749 185.981 12.9765 187.072 14.8367C188.162 16.6969 188.696 18.7588 188.696 21V29.5165C188.696 31.8026 188.14 33.8869 187.027 35.7695C185.892 37.6745 184.401 39.1761 182.532 40.2967C180.64 41.4397 178.57 42 176.278 42V37.7641C177.702 37.7641 178.993 37.428 180.172 36.778C181.352 36.1281 182.309 35.254 183.066 34.1558C183.8 33.0576 184.267 31.825 184.423 30.413C183.333 31.3767 182.086 32.1387 180.707 32.6766C179.305 33.2369 177.836 33.5059 176.278 33.5059C174.008 33.5059 171.938 32.9456 170.046 31.8026C168.155 30.682 166.664 29.1804 165.551 27.2753C164.416 25.3927 163.86 23.3084 163.86 21C163.86 18.7588 164.394 16.6969 165.484 14.8367C166.552 12.9765 167.999 11.4973 169.802 10.3543C171.604 9.23372 173.607 8.6286 175.833 8.51654ZM176.278 12.7524C174.765 12.7524 173.385 13.111 172.161 13.8506C170.914 14.5902 169.913 15.5987 169.178 16.8314C168.466 18.0864 168.088 19.476 168.088 21C168.088 22.524 168.466 23.9136 169.178 25.1686C169.913 26.4237 170.914 27.4098 172.161 28.1494C173.385 28.889 174.765 29.27 176.278 29.27C177.813 29.27 179.171 28.889 180.417 28.1494C181.664 27.4098 182.643 26.4237 183.377 25.1686C184.112 23.9136 184.49 22.524 184.49 21C184.49 19.476 184.112 18.0864 183.377 16.8314C182.643 15.5987 181.664 14.5902 180.417 13.8506C179.171 13.111 177.813 12.7524 176.278 12.7524Z" fill="white"/>
<path d="M214.633 33.5059H210.404V30.3682C209.314 31.3543 208.045 32.1163 206.666 32.6766C205.264 33.2369 203.772 33.5059 202.215 33.5059C199.945 33.5059 197.853 32.9456 195.983 31.825C194.091 30.682 192.6 29.1804 191.488 27.2978C190.397 25.4376 189.819 23.3308 189.796 21V8.49413H194.025V21.0448C194.047 22.5912 194.425 23.9808 195.137 25.2134C195.872 26.4461 196.851 27.4322 198.097 28.1494C199.321 28.889 200.701 29.27 202.215 29.27C203.728 29.27 205.108 28.889 206.354 28.1494C207.578 27.4098 208.557 26.4237 209.292 25.191C210.026 23.936 210.382 22.5464 210.404 21V8.49413H214.633V33.5059Z" fill="white"/>
<path d="M228.151 8.49413C230.177 8.49413 232.068 8.96478 233.804 9.88367C235.54 10.7802 236.964 12.0128 238.122 13.5816C239.279 15.1281 240.036 16.8986 240.392 18.8709C240.481 19.5208 240.547 20.238 240.57 21C240.57 21.7396 240.503 22.4344 240.392 23.1291H220.229C220.718 24.9445 221.675 26.4013 223.122 27.5443C224.568 28.6873 226.237 29.27 228.151 29.27C229.286 29.27 230.377 29.0459 231.378 28.6201C232.358 28.1718 233.248 27.5891 233.982 26.8271L236.586 30.1665C235.473 31.1974 234.182 32.0267 232.758 32.6094C231.312 33.2145 229.776 33.5059 228.151 33.5059C226.104 33.5059 224.234 33.0576 222.499 32.1387C220.763 31.2199 219.338 29.9872 218.181 28.4408C217.024 26.8943 216.267 25.1238 215.911 23.1291C215.822 22.4792 215.755 21.7844 215.733 21C215.733 20.3501 215.8 19.6329 215.911 18.8709C216.267 16.8986 217.024 15.1281 218.159 13.5816C219.316 12.0128 220.763 10.7802 222.499 9.88367C224.234 8.96478 226.104 8.49413 228.151 8.49413ZM228.151 12.7524C226.237 12.7524 224.568 13.3127 223.122 14.4557C221.675 15.5987 220.718 17.0779 220.229 18.8709H236.074C235.585 17.0779 234.605 15.5987 233.181 14.4557C231.734 13.3127 230.065 12.7524 228.151 12.7524Z" fill="white"/>
<path d="M251.128 8.51654L251.729 8.49413C252.352 8.49413 252.998 8.53895 253.71 8.60619C254.422 8.67342 255.179 8.87513 255.98 9.1889C257.449 9.79402 258.517 10.5784 259.162 11.5422C259.518 12.0576 259.808 12.6179 260.03 13.2679C260.23 13.9178 260.408 14.5678 260.564 15.2401L256.514 15.8004C256.314 14.7695 255.802 13.8282 254.978 12.9765C254.6 12.5955 254.088 12.349 253.487 12.1921C252.886 12.0352 252.174 11.968 251.395 11.968C249.57 11.968 248.279 12.2593 247.501 12.8645C246.788 13.4696 246.432 14.1419 246.432 14.8591C246.432 14.9936 246.477 15.3074 246.566 15.8228C246.655 16.3159 247.233 16.8314 248.324 17.3917C249.548 17.8623 250.883 18.2657 252.374 18.6019C253.999 18.9829 255.535 19.4312 257.003 19.9915C258.472 20.5518 259.63 21.381 260.475 22.4568C261.121 23.3981 261.454 24.5635 261.454 25.953C261.432 26.4237 261.321 27.0288 261.098 27.7684C260.876 28.5304 260.587 29.2028 260.253 29.7855C259.963 30.301 259.518 30.794 258.94 31.3095C258.339 31.825 257.649 32.2284 256.87 32.5646C256.225 32.8559 255.446 33.08 254.578 33.2593C253.687 33.461 252.775 33.5507 251.863 33.5507H251.684C250.728 33.5507 249.615 33.4386 248.302 33.1921C246.989 32.9456 245.809 32.4301 244.763 31.6009C243.161 30.2786 242.137 28.3735 241.67 25.841L245.765 25.191C245.854 25.7962 246.054 26.4013 246.343 27.0512C246.633 27.7012 247.033 28.2839 247.59 28.8442C248.057 29.2924 248.658 29.6062 249.392 29.8079C250.104 30.0096 250.928 30.0993 251.84 30.0993C253.665 30.0993 255.023 29.7183 255.891 28.9787C256.759 28.2391 257.204 27.365 257.204 26.3789C257.204 25.4824 256.825 24.7876 256.046 24.2721C255.512 23.9136 254.155 23.4653 251.974 22.905C251.818 22.8826 251.685 22.8378 251.529 22.793C250.616 22.5688 249.682 22.2999 248.702 22.0085C247.723 21.7172 246.766 21.381 245.831 20.9776C244.785 20.4845 243.94 19.7449 243.339 18.7812C242.716 17.8175 242.382 16.6969 242.337 15.4418C242.36 14.3885 242.604 13.3799 243.072 12.4162C243.539 11.4525 244.207 10.6457 245.075 9.99573C245.943 9.39061 246.877 8.96478 247.901 8.76307C248.747 8.58378 249.615 8.49413 250.527 8.49413C250.728 8.49413 250.928 8.51654 251.128 8.51654Z" fill="white"/>
<path d="M262.582 0H266.81V14.635H275V18.8709H266.81V21.0224C266.832 22.5688 267.188 23.9584 267.923 25.191C268.657 26.4237 269.637 27.4098 270.861 28.1494C272.107 28.889 273.487 29.27 275 29.27V33.5059C272.73 33.5059 270.66 32.9456 268.769 31.825C266.899 30.7044 265.408 29.2028 264.295 27.3426C263.183 25.46 262.626 23.3757 262.582 21.0672V0Z" fill="white"/>
</svg>
