<svg width="262" height="40" viewBox="0 0 262 40" fill="none" xmlns="http://www.w3.org/2000/svg">
<path d="M0 8.02275H4.02196V10.6899C4.04313 10.6899 4.08546 10.7111 4.1278 10.7111C4.23364 10.7111 4.40298 10.6476 4.61467 10.5206C4.84752 10.3936 5.10154 10.2242 5.39789 9.99139C5.71541 9.75854 6.0541 9.52569 6.39279 9.314C6.73149 9.10232 7.04901 8.97531 7.34536 8.91181C8.80597 8.3191 10.2877 8.02275 11.7695 8.02275C12.9126 8.02275 14.4579 8.3191 16.3842 8.89064C18.3105 9.48335 20.0463 10.944 21.6127 13.2725C23.1792 11.0498 25.2537 9.50452 27.8362 8.63662C29.0639 8.23443 30.2917 8.02275 31.4983 8.02275C32.853 8.02275 34.1866 8.27676 35.5414 8.76363C37.6371 9.58919 39.394 10.9016 40.7911 12.6797C42.167 14.4579 42.9714 16.49 43.1831 18.755C43.2255 20.5543 43.2466 22.3536 43.2466 24.1317L43.2255 31.6465H39.2247V19.8981C39.2247 17.9506 38.5685 16.2148 37.2772 14.6907C35.9648 13.1666 34.2713 12.2987 32.218 12.087C31.9216 12.0447 31.6253 12.0447 31.3289 12.0447C30.2493 12.0447 29.1486 12.2987 28.0267 12.8279C26.9048 13.3571 25.9099 14.1615 25.0843 15.2834C24.2588 16.4053 23.7719 17.6543 23.666 19.0514C23.6449 21.02 23.6237 22.9887 23.6237 24.9361V31.6465H19.6017V19.8558C19.6017 17.9295 18.9667 16.2148 17.6754 14.6907C16.3842 13.1666 14.6907 12.2987 12.6162 12.087C12.3199 12.0447 12.0235 12.0447 11.7483 12.0447C10.6688 12.0447 9.54686 12.2987 8.42494 12.8279C7.30303 13.3571 6.30812 14.1615 5.48256 15.2623C4.657 16.363 4.17013 17.6119 4.06429 19.0302C4.04313 20.9777 4.02196 22.9463 4.02196 24.8938V31.6465H0V8.02275Z" fill="black"/>
<path d="M56.1266 8.02275C58.2857 8.02275 60.2755 8.57312 62.0537 9.63153C63.8529 10.6899 65.2712 12.1294 66.3296 13.9075C67.4092 15.7068 67.9384 17.6754 67.9384 19.8346C67.9384 22.0149 67.4092 23.9836 66.3296 25.7617C65.2712 27.561 63.8529 28.9793 62.0537 30.0588C60.2755 31.1172 58.2857 31.6465 56.1266 31.6465C53.9674 31.6465 51.9776 31.1172 50.1995 30.0588C48.4002 28.9793 46.9819 27.561 45.9235 25.7617C44.8439 23.9836 44.3147 22.0149 44.3147 19.8346C44.3147 17.6754 44.8439 15.7068 45.9235 13.9075C46.9819 12.1294 48.4002 10.6899 50.1995 9.63153C51.9776 8.57312 53.9674 8.02275 56.1266 8.02275ZM56.1266 12.0447C54.6871 12.0447 53.3747 12.3834 52.1893 13.0819C51.0039 13.7805 50.0725 14.7331 49.3739 15.8973C48.6754 17.0827 48.3367 18.3952 48.3367 19.8346C48.3367 21.274 48.6754 22.5865 49.3739 23.7719C50.0725 24.9573 51.0039 25.8887 52.1893 26.5873C53.3747 27.2858 54.6871 27.6457 56.1266 27.6457C57.566 27.6457 58.8784 27.2858 60.0638 26.5873C61.2281 25.8887 62.1807 24.9573 62.8792 23.7719C63.5778 22.5865 63.9165 21.274 63.9165 19.8346C63.9165 18.3952 63.5778 17.0827 62.8792 15.8973C62.1807 14.7331 61.2281 13.7805 60.0638 13.0819C58.8784 12.3834 57.566 12.0447 56.1266 12.0447Z" fill="black"/>
<path d="M80.7966 31.6465C78.6374 31.6465 76.6476 31.1172 74.8695 30.0588C73.0702 28.9793 71.6519 27.561 70.5935 25.7617C69.514 23.9836 68.9847 22.0149 68.9847 19.8346C68.9847 17.6754 69.514 15.7068 70.5935 13.9075C71.6519 12.1294 73.0702 10.6899 74.8695 9.63153C76.6476 8.57312 78.6374 8.02275 80.7966 8.02275C82.2784 8.02275 83.6966 8.29793 85.0302 8.80597C86.3427 9.33517 87.5493 10.0549 88.5865 10.9863V0H92.6085V19.8558C92.5661 22.0573 92.0369 24.0259 90.9785 25.804C89.9201 27.5822 88.5018 29.0004 86.7237 30.0588C84.9244 31.1172 82.9558 31.6465 80.7966 31.6465ZM80.7966 27.6457C82.236 27.6457 83.5485 27.2858 84.7339 26.5873C85.8981 25.8887 86.8507 24.9573 87.5493 23.7719C88.2478 22.5865 88.5865 21.274 88.5865 19.8346C88.5865 18.3952 88.2478 17.0827 87.5493 15.8973C86.8507 14.7331 85.8981 13.7805 84.7339 13.0819C83.5485 12.3834 82.236 12.0447 80.7966 12.0447C79.3572 12.0447 78.0447 12.3834 76.8593 13.0819C75.6739 13.7805 74.7425 14.7331 74.0439 15.8973C73.3454 17.0827 73.0067 18.3952 73.0067 19.8346C73.0067 21.274 73.3454 22.5865 74.0439 23.7719C74.7425 24.9573 75.6739 25.8887 76.8593 26.5873C78.0447 27.2858 79.3572 27.6457 80.7966 27.6457Z" fill="black"/>
<path d="M105.467 8.02275C107.393 8.02275 109.192 8.46728 110.843 9.33517C112.494 10.1819 113.849 11.3462 114.95 12.8279C116.051 14.2885 116.77 15.9608 117.109 17.8236C117.194 18.4375 117.257 19.1149 117.278 19.8346C117.278 20.5331 117.215 21.1894 117.109 21.8456H97.9308C98.3965 23.5602 99.3067 24.9361 100.683 26.0157C102.059 27.0953 103.646 27.6457 105.467 27.6457C106.546 27.6457 107.583 27.434 108.536 27.0318C109.467 26.6084 110.314 26.058 111.013 25.3383L113.489 28.4924C112.431 29.4661 111.203 30.2493 109.848 30.7997C108.473 31.3713 107.012 31.6465 105.467 31.6465C103.519 31.6465 101.741 31.2231 100.09 30.3552C98.4388 29.4873 97.084 28.323 95.9833 26.8624C94.8825 25.4018 94.1628 23.7295 93.8241 21.8456C93.7395 21.2317 93.676 20.5755 93.6548 19.8346C93.6548 19.2207 93.7183 18.5433 93.8241 17.8236C94.1628 15.9608 94.8825 14.2885 95.9621 12.8279C97.0629 11.3462 98.4388 10.1819 100.09 9.33517C101.741 8.46728 103.519 8.02275 105.467 8.02275ZM105.467 12.0447C103.646 12.0447 102.059 12.5739 100.683 13.6535C99.3067 14.7331 98.3965 16.1302 97.9308 17.8236H113.003C112.537 16.1302 111.605 14.7331 110.251 13.6535C108.875 12.5739 107.287 12.0447 105.467 12.0447Z" fill="black"/>
<path d="M118.325 8.02275H122.347V10.9863C123.384 10.0549 124.569 9.33517 125.903 8.80597C127.237 8.29793 128.634 8.02275 130.137 8.02275V12.0447C128.697 12.0447 127.385 12.3834 126.199 13.0819C125.014 13.7805 124.083 14.7331 123.384 15.8973C122.685 17.0827 122.347 18.3952 122.347 19.8346V31.6465H118.325V8.02275Z" fill="black"/>
<path d="M131.187 8.02275H135.209V10.9863C136.246 10.0549 137.432 9.33517 138.765 8.80597C140.099 8.29793 141.496 8.02275 142.999 8.02275C145.158 8.02275 147.148 8.57312 148.926 9.63153C150.704 10.6899 152.144 12.1294 153.202 13.9075C154.281 15.6856 154.811 17.6754 154.811 19.8346V31.6465H150.789V19.7923C150.768 18.3528 150.408 17.0404 149.73 15.8761C149.032 14.7119 148.1 13.7805 146.915 13.0819C145.751 12.3834 144.438 12.0447 142.999 12.0447C141.559 12.0447 140.247 12.3834 139.062 13.0819C137.876 13.7805 136.945 14.7331 136.246 15.8973C135.548 17.0827 135.209 18.3952 135.209 19.8346V31.6465H131.187V8.02275Z" fill="black"/>
<path d="M167.246 8.04391L167.627 8.02275L168.029 8.04391C170.167 8.12858 172.114 8.70013 173.829 9.75854C175.543 10.8381 176.898 12.2564 177.935 14.0133C178.973 15.7703 179.481 17.7178 179.481 19.8346V27.8785C179.481 30.0377 178.952 32.0063 177.893 33.7844C176.814 35.5837 175.395 37.002 173.617 38.0604C171.818 39.14 169.849 39.6692 167.669 39.6692V35.6684C169.024 35.6684 170.251 35.3509 171.373 34.737C172.495 34.1231 173.405 33.2976 174.125 32.2603C174.824 31.2231 175.268 30.0588 175.416 28.7252C174.379 29.6355 173.194 30.3552 171.881 30.8632C170.548 31.3924 169.151 31.6465 167.669 31.6465C165.51 31.6465 163.541 31.1172 161.742 30.0377C159.942 28.9793 158.524 27.561 157.466 25.7617C156.386 23.9836 155.857 22.0149 155.857 19.8346C155.857 17.7178 156.365 15.7703 157.402 14.0133C158.418 12.2564 159.794 10.8593 161.509 9.77971C163.224 8.7213 165.129 8.14975 167.246 8.04391ZM167.669 12.0447C166.229 12.0447 164.917 12.3834 163.753 13.0819C162.567 13.7805 161.615 14.7331 160.916 15.8973C160.239 17.0827 159.879 18.3952 159.879 19.8346C159.879 21.274 160.239 22.5865 160.916 23.7719C161.615 24.9573 162.567 25.8887 163.753 26.5873C164.917 27.2858 166.229 27.6457 167.669 27.6457C169.129 27.6457 170.421 27.2858 171.606 26.5873C172.792 25.8887 173.723 24.9573 174.422 23.7719C175.12 22.5865 175.48 21.274 175.48 19.8346C175.48 18.3952 175.12 17.0827 174.422 15.8973C173.723 14.7331 172.792 13.7805 171.606 13.0819C170.421 12.3834 169.129 12.0447 167.669 12.0447Z" fill="black"/>
<path d="M204.151 31.6465H200.129V28.6829C199.092 29.6143 197.885 30.334 196.573 30.8632C195.239 31.3924 193.821 31.6465 192.339 31.6465C190.18 31.6465 188.19 31.1172 186.412 30.0588C184.613 28.9793 183.194 27.561 182.136 25.7829C181.099 24.0259 180.548 22.0361 180.527 19.8346V8.02275H184.549V19.8769C184.57 21.3375 184.93 22.65 185.607 23.8142C186.306 24.9785 187.237 25.9099 188.423 26.5873C189.587 27.2858 190.899 27.6457 192.339 27.6457C193.778 27.6457 195.091 27.2858 196.276 26.5873C197.44 25.8887 198.372 24.9573 199.07 23.793C199.769 22.6076 200.108 21.2952 200.129 19.8346V8.02275H204.151V31.6465Z" fill="black"/>
<path d="M217.009 8.02275C218.935 8.02275 220.735 8.46728 222.386 9.33517C224.037 10.1819 225.392 11.3462 226.492 12.8279C227.593 14.2885 228.313 15.9608 228.651 17.8236C228.736 18.4375 228.8 19.1149 228.821 19.8346C228.821 20.5331 228.757 21.1894 228.651 21.8456H209.473C209.939 23.5602 210.849 24.9361 212.225 26.0157C213.601 27.0953 215.189 27.6457 217.009 27.6457C218.089 27.6457 219.126 27.434 220.078 27.0318C221.01 26.6084 221.856 26.058 222.555 25.3383L225.032 28.4924C223.973 29.4661 222.746 30.2493 221.391 30.7997C220.015 31.3713 218.554 31.6465 217.009 31.6465C215.061 31.6465 213.283 31.2231 211.632 30.3552C209.981 29.4873 208.626 28.323 207.526 26.8624C206.425 25.4018 205.705 23.7295 205.366 21.8456C205.282 21.2317 205.218 20.5755 205.197 19.8346C205.197 19.2207 205.261 18.5433 205.366 17.8236C205.705 15.9608 206.425 14.2885 207.504 12.8279C208.605 11.3462 209.981 10.1819 211.632 9.33517C213.283 8.46728 215.061 8.02275 217.009 8.02275ZM217.009 12.0447C215.189 12.0447 213.601 12.5739 212.225 13.6535C210.849 14.7331 209.939 16.1302 209.473 17.8236H224.545C224.079 16.1302 223.148 14.7331 221.793 13.6535C220.417 12.5739 218.829 12.0447 217.009 12.0447Z" fill="black"/>
<path d="M238.864 8.04391L239.435 8.02275C240.028 8.02275 240.642 8.06508 241.319 8.12858C241.997 8.19209 242.716 8.3826 243.478 8.67896C244.875 9.2505 245.891 9.99139 246.505 10.9016C246.844 11.3885 247.119 11.9177 247.331 12.5316C247.521 13.1454 247.691 13.7593 247.839 14.3944L243.986 14.9236C243.796 13.9498 243.309 13.0608 242.526 12.2564C242.166 11.8965 241.679 11.6637 241.107 11.5155C240.536 11.3673 239.859 11.3038 239.118 11.3038C237.382 11.3038 236.154 11.579 235.413 12.1505C234.736 12.7221 234.397 13.3571 234.397 14.0345C234.397 14.1615 234.439 14.4579 234.524 14.9447C234.609 15.4104 235.159 15.8973 236.196 16.4265C237.361 16.871 238.631 17.2521 240.049 17.5696C241.594 17.9295 243.055 18.3528 244.452 18.882C245.849 19.4112 246.95 20.1945 247.754 21.2105C248.368 22.0996 248.686 23.2003 248.686 24.5128C248.665 24.9573 248.559 25.5288 248.347 26.2274C248.135 26.9471 247.86 27.5822 247.543 28.1325C247.267 28.6194 246.844 29.0851 246.294 29.572C245.722 30.0588 245.066 30.4399 244.325 30.7574C243.711 31.0326 242.97 31.2443 242.145 31.4136C241.298 31.6041 240.43 31.6888 239.562 31.6888H239.393C238.483 31.6888 237.424 31.5829 236.175 31.3501C234.926 31.1172 233.804 30.6304 232.81 29.8472C231.285 28.5982 230.312 26.7989 229.867 24.4069L233.762 23.793C233.847 24.3646 234.037 24.9361 234.312 25.55C234.588 26.1639 234.969 26.7143 235.498 27.2435C235.942 27.6668 236.514 27.9632 237.213 28.1537C237.89 28.3442 238.673 28.4289 239.541 28.4289C241.277 28.4289 242.568 28.069 243.394 27.3705C244.219 26.6719 244.643 25.8464 244.643 24.915C244.643 24.0682 244.283 23.412 243.542 22.9252C243.034 22.5865 241.743 22.1631 239.668 21.6339C239.52 21.6127 239.393 21.5704 239.245 21.5281C238.377 21.3164 237.488 21.0624 236.556 20.7872C235.625 20.512 234.715 20.1945 233.826 19.8134C232.831 19.3477 232.026 18.6492 231.455 17.7389C230.862 16.8287 230.545 15.7703 230.502 14.5849C230.523 13.59 230.756 12.6374 231.201 11.7272C231.645 10.8169 232.28 10.0549 233.106 9.44101C233.931 8.86947 234.821 8.46728 235.794 8.27676C236.599 8.10742 237.424 8.02275 238.292 8.02275C238.483 8.02275 238.673 8.04391 238.864 8.04391Z" fill="black"/>
<path d="M249.758 0H253.78V13.8228H261.57V17.8236H253.78V19.8558C253.801 21.3164 254.14 22.6288 254.838 23.793C255.537 24.9573 256.468 25.8887 257.632 26.5873C258.818 27.2858 260.13 27.6457 261.57 27.6457V31.6465C259.411 31.6465 257.442 31.1172 255.643 30.0588C253.864 29.0004 252.446 27.5822 251.388 25.8252C250.329 24.0471 249.8 22.0784 249.758 19.8981V0Z" fill="black"/>
</svg>
