<svg enable-background="new 0 0 48 48" viewBox="0 0 48 48" xmlns="http://www.w3.org/2000/svg"><g id="Layer_1"/><g id="_x31_8_x5F_Online_x5F_Meeting"><path d="m42 6h-36c-1.654 0-3 1.346-3 3v24c0 1.654 1.346 3 3 3h36c1.654 0 3-1.346 3-3v-24c0-1.654-1.346-3-3-3zm1 27c0 .552-.448 1-1 1h-36c-.551 0-1-.448-1-1v-24c0-.551.449-1 1-1h36c.552 0 1 .449 1 1zm-2-23h-34c-.552 0-1 .448-1 1v20c0 .553.448 1 1 1h34c.553 0 1-.447 1-1v-20c0-.552-.447-1-1-1zm-1 10h-3.564c-.69-1.191-1.96-2-3.436-2s-2.746.809-3.436 2h-4.564v-8h15zm-17-8v8h-4.564c-.69-1.191-1.96-2-3.436-2s-2.746.809-3.436 2h-3.564v-8zm-15 10h15v8h-4.564c-.69-1.191-1.96-2-3.436-2s-2.746.809-3.436 2h-3.564zm28.436 8c-.69-1.191-1.96-2-3.436-2s-2.746.809-3.436 2h-4.564v-8h15v8zm8.564 8c0 1.654-1.346 3-3 3h-36c-1.654 0-3-1.346-3-3 0-.553.448-1 1-1s1 .447 1 1c0 .552.449 1 1 1h36c.552 0 1-.448 1-1 0-.553.447-1 1-1s1 .447 1 1zm-32-23c0-1.105.895-2 2-2s2 .895 2 2-.895 2-2 2-2-.895-2-2zm0 10c0-1.105.895-2 2-2s2 .895 2 2-.895 2-2 2-2-.895-2-2zm18-10c0-1.105.895-2 2-2s2 .895 2 2-.895 2-2 2-2-.895-2-2zm4 10c0 1.105-.895 2-2 2s-2-.895-2-2 .895-2 2-2 2 .895 2 2zm-15-11c0-.552.448-1 1-1s1 .448 1 1-.448 1-1 1-1-.448-1-1zm17 0c0-.552.448-1 1-1s1 .448 1 1-.448 1-1 1-1-.448-1-1zm-17 10c0-.552.448-1 1-1s1 .448 1 1-.448 1-1 1-1-.448-1-1zm19 0c0 .552-.448 1-1 1s-1-.448-1-1 .448-1 1-1 1 .448 1 1z"/></g></svg>