<?xml version="1.0" encoding="UTF-8" standalone="no"?>
<!-- Created with Inkscape (http://www.inkscape.org/) -->

<svg
   version="1.1"
   id="svg891"
   xml:space="preserve"
   width="682.66669"
   height="682.66669"
   viewBox="0 0 682.66669 682.66669"
   xmlns="http://www.w3.org/2000/svg"
   xmlns:svg="http://www.w3.org/2000/svg"><defs
     id="defs895"><clipPath
       clipPathUnits="userSpaceOnUse"
       id="clipPath905"><path
         d="M 0,512 H 512 V 0 H 0 Z"
         id="path903" /></clipPath></defs><g
     id="g897"
     transform="matrix(1.3333333,0,0,-1.3333333,0,682.66667)"><g
       id="g899"><g
         id="g901"
         clip-path="url(#clipPath905)"><g
           id="g907"
           transform="translate(173.1665,186.9893)"><path
             d="m 0,0 c 0,-8.284 -6.715,-14.5 -15,-14.5 -8.284,0 -15,6.216 -15,14.5"
             style="fill:none;stroke:#000000;stroke-width:15;stroke-linecap:round;stroke-linejoin:round;stroke-miterlimit:10;stroke-dasharray:none;stroke-opacity:1"
             id="path909" /></g><g
           id="g911"
           transform="translate(37.5,187.4893)"><path
             d="m 0,0 c 0,-8.284 -6.716,-15 -15,-15 -8.284,0 -15,6.716 -15,15 v 122.011 c 0,16.5 13.5,30 30,30 h 105.667 c 16.5,0 30,-13.5 30,-30"
             style="fill:none;stroke:#000000;stroke-width:15;stroke-linecap:round;stroke-linejoin:round;stroke-miterlimit:10;stroke-dasharray:none;stroke-opacity:1"
             id="path913" /></g><g
           id="g915"
           transform="translate(37.5,294.5)"><path
             d="M 0,0 V 15"
             style="fill:none;stroke:#000000;stroke-width:15;stroke-linecap:round;stroke-linejoin:round;stroke-miterlimit:10;stroke-dasharray:none;stroke-opacity:1"
             id="path917" /></g><g
           id="g919"
           transform="translate(143.166,309.5)"><path
             d="M 0,0 V -268.083 C 0,-278.531 -8.469,-287 -18.917,-287 c -10.447,0 -18.916,8.469 -18.916,18.917 v 146.072 h -30 v -146.072 c 0,-10.448 -8.469,-18.917 -18.917,-18.917 -10.447,0 -18.916,8.469 -18.916,18.917 V -45"
             style="fill:none;stroke:#000000;stroke-width:15;stroke-linecap:round;stroke-linejoin:round;stroke-miterlimit:10;stroke-dasharray:none;stroke-opacity:1"
             id="path921" /></g><g
           id="g923"
           transform="translate(338.8335,186.9893)"><path
             d="m 0,0 c 0,-8.284 -6.716,-14.5 -15,-14.5 -8.284,0 -15,6.216 -15,14.5"
             style="fill:none;stroke:#000000;stroke-width:15;stroke-linecap:round;stroke-linejoin:round;stroke-miterlimit:10;stroke-dasharray:none;stroke-opacity:1"
             id="path925" /></g><g
           id="g927"
           transform="translate(203.1665,187.4893)"><path
             d="m 0,0 c 0,-8.284 -6.716,-15 -15,-15 -8.284,0 -15,6.716 -15,15 v 122.011 c 0,16.5 13.5,30 30,30 h 105.667 c 16.5,0 30,-13.5 30,-30"
             style="fill:none;stroke:#000000;stroke-width:15;stroke-linecap:round;stroke-linejoin:round;stroke-miterlimit:10;stroke-dasharray:none;stroke-opacity:1"
             id="path929" /></g><g
           id="g931"
           transform="translate(308.8325,309.5)"><path
             d="M 0,0 V -268.083 C 0,-278.531 -8.469,-287 -18.917,-287 c -10.447,0 -18.916,8.469 -18.916,18.917 v 146.072 h -30 v -146.072 c 0,-10.448 -8.469,-18.917 -18.917,-18.917 -10.447,0 -18.916,8.469 -18.916,18.917 V 0"
             style="fill:none;stroke:#000000;stroke-width:15;stroke-linecap:round;stroke-linejoin:round;stroke-miterlimit:10;stroke-dasharray:none;stroke-opacity:1"
             id="path933" /></g><g
           id="g935"
           transform="translate(368.8335,187.4893)"><path
             d="m 0,0 c 0,-8.284 -6.716,-15 -15,-15 -8.285,0 -15,6.716 -15,15 v 122.011 c 0,16.5 13.5,30 30,30 h 105.667 c 16.5,0 30,-13.5 30,-30 V -0.5 c 0,-8.284 -6.716,-14.5 -15,-14.5 -8.285,0 -15,6.216 -15,14.5"
             style="fill:none;stroke:#000000;stroke-width:15;stroke-linecap:round;stroke-linejoin:round;stroke-miterlimit:10;stroke-dasharray:none;stroke-opacity:1"
             id="path937" /></g><g
           id="g939"
           transform="translate(474.4995,309.5)"><path
             d="M 0,0 V -268.083 C 0,-278.531 -8.469,-287 -18.917,-287 c -10.447,0 -18.916,8.469 -18.916,18.917 v 146.072 h -30 v -146.072 c 0,-10.448 -8.469,-18.917 -18.917,-18.917 -10.447,0 -18.916,8.469 -18.916,18.917 V 0"
             style="fill:none;stroke:#000000;stroke-width:15;stroke-linecap:round;stroke-linejoin:round;stroke-miterlimit:10;stroke-dasharray:none;stroke-opacity:1"
             id="path941" /></g><g
           id="g943"
           transform="translate(150.0044,429.5)"><path
             d="m 0,0 c 0,-33.137 -26.863,-60 -60,-60 -33.137,0 -60,26.863 -60,60 0,33.137 26.863,60 60,60 C -26.863,60 0,33.137 0,0 Z"
             style="fill:none;stroke:#000000;stroke-width:15;stroke-linecap:round;stroke-linejoin:round;stroke-miterlimit:10;stroke-dasharray:none;stroke-opacity:1"
             id="path945" /></g><g
           id="g947"
           transform="translate(120.0044,429.5)"><path
             d="M 0,0 H -30 V 30"
             style="fill:none;stroke:#000000;stroke-width:15;stroke-linecap:round;stroke-linejoin:round;stroke-miterlimit:10;stroke-dasharray:none;stroke-opacity:1"
             id="path949" /></g><g
           id="g951"
           transform="translate(316,429.5)"><path
             d="m 0,0 c 0,-33.137 -26.863,-60 -60,-60 -33.137,0 -60,26.863 -60,60 0,33.137 26.863,60 60,60 C -26.863,60 0,33.137 0,0 Z"
             style="fill:none;stroke:#000000;stroke-width:15;stroke-linecap:round;stroke-linejoin:round;stroke-miterlimit:10;stroke-dasharray:none;stroke-opacity:1"
             id="path953" /></g><g
           id="g955"
           transform="translate(286,429.5)"><path
             d="M 0,0 H -30 V 30"
             style="fill:none;stroke:#000000;stroke-width:15;stroke-linecap:round;stroke-linejoin:round;stroke-miterlimit:10;stroke-dasharray:none;stroke-opacity:1"
             id="path957" /></g><g
           id="g959"
           transform="translate(481.3379,429.5)"><path
             d="m 0,0 c 0,-33.137 -26.863,-60 -60,-60 -33.137,0 -60,26.863 -60,60 0,33.137 26.863,60 60,60 C -26.863,60 0,33.137 0,0 Z"
             style="fill:none;stroke:#000000;stroke-width:15;stroke-linecap:round;stroke-linejoin:round;stroke-miterlimit:10;stroke-dasharray:none;stroke-opacity:1"
             id="path961" /></g><g
           id="g963"
           transform="translate(451.3379,429.5)"><path
             d="M 0,0 H -30 V 30"
             style="fill:none;stroke:#000000;stroke-width:15;stroke-linecap:round;stroke-linejoin:round;stroke-miterlimit:10;stroke-dasharray:none;stroke-opacity:1"
             id="path965" /></g></g></g></g></svg>
