<svg xmlns="http://www.w3.org/2000/svg" fill="none" viewBox="0 0 344 114"><path fill="#fff" d="M16 67h-1.5l-2.6-8.6a27.9 27.9 0 0 1-.6-2.5 20 20 0 0 1-.7 2.5L8.1 67H6.7L3.2 54.2h1.6l2 7.9.7 3c.1-1 .4-2.1.7-3.1l2.3-7.8H12l2.4 7.8.7 3.1c0-.8.3-1.8.6-3l2-8h1.6L16 67Zm9.3.2c-1.4 0-2.6-.5-3.4-1.3a5 5 0 0 1-1.2-3.6c0-1.6.4-2.8 1.1-3.7.8-1 1.8-1.4 3.1-1.4 1.2 0 2.2.4 2.9 1.2.7.8 1 1.8 1 3.1v1h-6.6c0 1 .3 2 .8 2.5a3 3 0 0 0 2.3.9c1 0 2.1-.2 3.1-.6v1.3a7.5 7.5 0 0 1-3.1.6Zm-.4-8.8c-.8 0-1.4.3-1.9.8a4 4 0 0 0-.8 2h5c0-.9-.1-1.6-.6-2-.4-.5-1-.8-1.7-.8Zm15.6 8.8a3 3 0 0 1-1.7-.4c-.6-.2-1-.6-1.3-1h-.2l.2 1.6v4H36v-14h1.2l.2 1.3a3.4 3.4 0 0 1 3-1.5c1.4 0 2.3.4 3 1.3.7.9 1 2.1 1 3.7s-.3 2.8-1 3.7c-.7.8-1.7 1.3-3 1.3Zm-.2-8.8a3 3 0 0 0-2.2.8c-.4.6-.6 1.5-.6 2.6v.4c0 1.3.2 2.3.6 2.9.5.6 1.2.9 2.2.9.8 0 1.5-.4 2-1 .4-.7.7-1.7.7-2.8 0-1.2-.3-2.2-.7-2.8-.5-.6-1.2-1-2-1ZM53 67l-.3-1.4h-.1L51.2 67c-.5.2-1.1.3-1.8.3-1 0-1.7-.3-2.3-.8-.5-.5-.8-1.2-.8-2 0-2 1.6-3 4.7-3.1h1.6v-.7c0-.7-.1-1.3-.5-1.6-.3-.4-.8-.6-1.5-.6a7 7 0 0 0-2.8.8l-.4-1.2a6.9 6.9 0 0 1 3.3-.8c1.1 0 2 .3 2.5.8.6.5.8 1.3.8 2.4V67h-1Zm-3.3-1a3 3 0 0 0 2.1-.8c.5-.5.8-1.2.8-2v-1l-1.5.1c-1.1 0-2 .2-2.5.6-.5.3-.8.8-.8 1.5 0 .5.2.9.5 1.2.3.2.8.4 1.4.4Zm11.7-8.8 1.2.1-.2 1.4a5 5 0 0 0-1-.2c-.8 0-1.5.3-2 1-.6.6-.9 1.4-.9 2.3V67h-1.4v-9.6h1.2l.1 1.8c.5-.7.9-1.2 1.4-1.5a3 3 0 0 1 1.6-.5Zm6.1 8.8a5.1 5.1 0 0 0 1.3-.2v1.1l-.7.2h-.8c-1.9 0-2.8-1-2.8-2.9v-5.7h-1.4v-.7l1.4-.6.6-2h.9v2.2h2.8v1.1H66v5.7c0 .5.1 1 .4 1.3.3.3.6.5 1.1.5Zm9.9 1v-6.2c0-.8-.2-1.4-.6-1.8-.3-.4-.9-.6-1.7-.6a3 3 0 0 0-2.2.8c-.4.6-.7 1.5-.7 2.7V67h-1.4v-9.6H72l.2 1.3a3 3 0 0 1 1.3-1.1 4 4 0 0 1 1.8-.4c1.2 0 2 .3 2.6.8.6.6 1 1.5 1 2.7V67h-1.5Zm8.5.2c-1.4 0-2.6-.5-3.4-1.3a5 5 0 0 1-1.2-3.6c0-1.6.4-2.8 1.1-3.7.8-1 1.8-1.4 3.1-1.4 1.2 0 2.2.4 2.9 1.2.7.8 1 1.8 1 3.1v1h-6.6c0 1 .3 2 .8 2.5a3 3 0 0 0 2.3.9c1 0 2.1-.2 3.1-.6v1.3a7.5 7.5 0 0 1-3.1.6Zm-.4-8.8c-.8 0-1.4.3-1.9.8a4 4 0 0 0-.8 2h5c0-.9-.1-1.6-.5-2-.5-.5-1-.8-1.8-.8Zm10.8-1.2 1.2.1-.2 1.4a5 5 0 0 0-1-.2c-.9 0-1.5.3-2 1-.6.6-1 1.4-1 2.3V67H92v-9.6h1.2l.2 1.8a4 4 0 0 1 1.4-1.5 3 3 0 0 1 1.6-.5Zm4.5 7.7.1.2a21.8 21.8 0 0 1-1.5 4.2h-1.1a49.7 49.7 0 0 0 1-4.4h1.5Zm11.4 2.3c-1.4 0-2.5-.5-3.2-1.3-.8-.9-1.2-2-1.2-3.7 0-1.6.4-2.8 1.2-3.7.8-.9 1.9-1.3 3.3-1.3a6.6 6.6 0 0 1 2.5.5l-.5 1.2a6.6 6.6 0 0 0-2-.4c-2 0-3 1.2-3 3.7 0 1.2.3 2.1.8 2.8.4.6 1.1.9 2 .9a7 7 0 0 0 2.5-.5v1.3c-.6.3-1.4.5-2.4.5Zm13-5c0 1.5-.3 2.8-1.1 3.7-.8.8-2 1.3-3.3 1.3a4 4 0 0 1-3.8-2.3 6 6 0 0 1-.6-2.7c0-1.6.4-2.8 1.2-3.7.8-.9 1.9-1.3 3.3-1.3a4 4 0 0 1 3.2 1.3c.8 1 1.2 2.1 1.2 3.7Zm-7.3 0c0 1.2.3 2.1.8 2.8.4.6 1.2 1 2.1 1 1 0 1.7-.4 2.2-1 .5-.6.7-1.6.7-2.8 0-1.2-.2-2.2-.7-2.8-.5-.6-1.2-1-2.2-1-1 0-1.7.3-2.2 1a5 5 0 0 0-.7 2.8Zm11.4 4.8h-1.5V53.3h1.5V67Zm4.5 0h-1.4V53.3h1.4V67Zm9 0-.2-1.4h-.1L141 67c-.5.2-1.1.3-1.8.3-1 0-1.7-.3-2.3-.8-.5-.5-.8-1.2-.8-2 0-2 1.6-3 4.7-3.1h1.6v-.7c0-.7-.2-1.3-.5-1.6-.3-.4-.8-.6-1.5-.6-.8 0-1.8.3-2.8.8l-.4-1.2a6.9 6.9 0 0 1 3.2-.8c1.2 0 2 .3 2.6.8.6.5.8 1.3.8 2.4V67h-1Zm-3.2-1a3 3 0 0 0 2-.8c.6-.5.9-1.2.9-2v-1l-1.5.1c-1.1 0-2 .2-2.5.6-.5.3-.8.8-.8 1.5 0 .5.2.9.5 1.2.3.2.8.4 1.4.4Zm11.8-8.8c1.3 0 2.3.4 3 1.3.7.9 1 2 1 3.7 0 1.6-.3 2.8-1 3.7-.7.8-1.7 1.3-3 1.3-.6 0-1.2-.1-1.7-.4-.5-.2-1-.6-1.3-1h-.1L148 67h-1V53.3h1.4v5.3c.7-1 1.7-1.4 3-1.4Zm-.2 1.2c-1 0-1.7.3-2.1.9-.5.6-.7 1.5-.7 2.9 0 1.3.2 2.3.7 2.9.4.6 1.2.9 2.2.9.8 0 1.5-.4 2-1a5 5 0 0 0 .6-2.8 5 5 0 0 0-.6-2.8c-.5-.7-1.2-1-2-1Zm15.1 3.8c0 1.5-.4 2.8-1.2 3.7-.8.8-1.9 1.3-3.3 1.3a4 4 0 0 1-3.8-2.3 6 6 0 0 1-.6-2.7c0-1.6.4-2.8 1.2-3.7.8-.9 1.9-1.3 3.3-1.3a4 4 0 0 1 3.2 1.3c.8 1 1.2 2.1 1.2 3.7Zm-7.3 0c0 1.2.2 2.1.7 2.8.5.6 1.2 1 2.2 1 1 0 1.7-.4 2.1-1 .5-.6.8-1.6.8-2.8 0-1.2-.3-2.2-.8-2.8-.4-.6-1.2-1-2.1-1-1 0-1.7.3-2.2 1-.5.6-.7 1.5-.7 2.8Zm14.3-5 1.1.1-.2 1.4a5 5 0 0 0-1-.2c-.8 0-1.5.3-2 1-.6.6-.9 1.4-.9 2.3V67H169v-9.6h1.2l.1 1.8h.1a4 4 0 0 1 1.3-1.5c.5-.3 1-.5 1.7-.5ZM182 67l-.3-1.4c-.5.6-1 1-1.5 1.3a4 4 0 0 1-1.7.3c-1 0-1.8-.3-2.3-.8-.5-.5-.8-1.2-.8-2 0-2 1.6-3 4.7-3.1h1.6v-.7c0-.7-.2-1.3-.5-1.6-.3-.4-.8-.6-1.6-.6s-1.7.3-2.7.8l-.4-1.2a6.9 6.9 0 0 1 3.2-.8c1.2 0 2 .3 2.6.8.5.5.8 1.3.8 2.4V67h-1Zm-3.3-1a3 3 0 0 0 2.2-.8c.5-.5.8-1.2.8-2v-1l-1.5.1c-1.2 0-2 .2-2.5.6-.5.3-.8.8-.8 1.5 0 .5.2.9.5 1.2.3.2.8.4 1.3.4Zm10.5 0a5.1 5.1 0 0 0 1.4-.2v1.1l-.7.2h-.9c-1.8 0-2.8-1-2.8-2.9v-5.7H185v-.7l1.3-.6.7-2h.8v2.2h2.8v1.1h-2.8v5.7c0 .5.1 1 .4 1.3.3.3.7.5 1.1.5Zm7.4 1.2c-1.5 0-2.6-.5-3.4-1.3a5 5 0 0 1-1.2-3.6c0-1.6.3-2.8 1.1-3.7.8-1 1.8-1.4 3-1.4 1.3 0 2.3.4 3 1.2.7.8 1 1.8 1 3.1v1h-6.6c0 1 .3 2 .8 2.5a3 3 0 0 0 2.3.9c1 0 2-.2 3.1-.6v1.3a7.5 7.5 0 0 1-3.1.6Zm-.4-8.8c-.8 0-1.4.3-1.9.8a4 4 0 0 0-.8 2h5c0-.9-.2-1.6-.6-2-.4-.5-1-.8-1.7-.8Zm8 6.5v.2a21.5 21.5 0 0 1-1.5 4.2h-1a49.4 49.4 0 0 0 .8-4.4h1.6Zm13.4 2.1-.3-1.4c-.5.6-1 1-1.5 1.3-.5.2-1 .3-1.8.3a3 3 0 0 1-2.2-.8c-.6-.5-.8-1.2-.8-2 0-2 1.5-3 4.6-3.1h1.7v-.7c0-.7-.2-1.3-.5-1.6-.3-.4-.9-.6-1.6-.6-.8 0-1.7.3-2.7.8l-.4-1.2a6.9 6.9 0 0 1 3.2-.8c1.2 0 2 .3 2.6.8.5.5.8 1.3.8 2.4V67h-1Zm-3.3-1a3 3 0 0 0 2.2-.8c.5-.5.7-1.2.7-2v-1l-1.4.1c-1.2 0-2 .2-2.5.6-.5.3-.8.8-.8 1.5 0 .5.2.9.5 1.2.3.2.7.4 1.3.4Zm14 1v-6.2a3 3 0 0 0-.5-1.8c-.4-.4-1-.6-1.7-.6-1 0-1.8.3-2.2.8-.5.6-.7 1.5-.7 2.7V67h-1.5v-9.6h1.2l.2 1.3h.1a3 3 0 0 1 1.3-1.1 4 4 0 0 1 1.8-.4 4 4 0 0 1 2.6.8c.6.6.9 1.5.9 2.7V67h-1.5Zm11-1.3c-.7 1-1.7 1.5-3 1.5s-2.3-.5-3-1.3c-.7-.9-1-2.1-1-3.7s.3-2.8 1-3.7c.7-.9 1.7-1.3 3-1.3 1.2 0 2.2.5 3 1.4v-5.3h1.4V67h-1.2l-.2-1.3Zm-2.9.3c1 0 1.7-.3 2.2-.9.4-.5.6-1.4.6-2.6v-.3c0-1.4-.2-2.3-.6-3a3 3 0 0 0-2.2-.8c-.9 0-1.5.3-2 1a5 5 0 0 0-.7 2.8 5 5 0 0 0 .7 2.8c.5.6 1.1 1 2 1Zm18 1-.3-1.4c-.5.6-1 1-1.5 1.3-.5.2-1 .3-1.8.3a3 3 0 0 1-2.2-.8c-.6-.5-.8-1.2-.8-2 0-2 1.5-3 4.6-3.1h1.7v-.7c0-.7-.2-1.3-.5-1.6-.3-.4-.9-.6-1.6-.6-.8 0-1.7.3-2.7.8l-.5-1.2a6.9 6.9 0 0 1 3.3-.8c1.2 0 2 .3 2.6.8.5.5.8 1.3.8 2.4V67h-1Zm-3.3-1a3 3 0 0 0 2.1-.8c.6-.5.8-1.2.8-2v-1l-1.4.1c-1.2 0-2 .2-2.5.6-.6.3-.8.8-.8 1.5 0 .5.2.9.5 1.2.3.2.7.4 1.3.4Zm11.8-8.8 1.1.1-.2 1.4a5 5 0 0 0-1-.2c-.8 0-1.5.3-2 1-.6.6-.8 1.4-.8 2.3V67h-1.5v-9.6h1.2l.2 1.8a4 4 0 0 1 1.3-1.5 3 3 0 0 1 1.7-.5Zm7 10a5 5 0 0 1-3.4-1.3 5 5 0 0 1-1.2-3.6c0-1.6.4-2.8 1.2-3.7.7-1 1.8-1.4 3-1.4a4 4 0 0 1 3 1.2 5 5 0 0 1 1 3.1v1h-6.7c0 1 .3 2 .9 2.5a3 3 0 0 0 2.3.9c1 0 2-.2 3-.6v1.3a7.4 7.4 0 0 1-3 .6Zm-.4-8.8c-.7 0-1.4.3-1.8.8-.5.5-.8 1.2-.8 2h5c0-.9-.2-1.6-.6-2-.4-.5-1-.8-1.8-.8ZM16.8 103v-6.3c0-.7-.1-1.3-.5-1.7-.3-.4-.8-.6-1.5-.6-.9 0-1.6.3-2 .8-.4.5-.7 1.3-.7 2.4v5.4h-1.4v-6.3c0-.7-.2-1.3-.5-1.7-.3-.4-.9-.6-1.5-.6-1 0-1.6.3-2 .9-.5.5-.7 1.4-.7 2.6v5.1H4.5v-9.6h1.2l.3 1.3c.3-.5.7-.8 1.2-1.1a3 3 0 0 1 1.7-.4c1.5 0 2.5.5 3 1.6a3 3 0 0 1 1.3-1.2c.5-.3 1.1-.4 1.8-.4 1.1 0 2 .3 2.5.8.5.6.8 1.5.8 2.7v6.3h-1.5Zm8.6.2c-1.5 0-2.6-.5-3.4-1.3a5 5 0 0 1-1.2-3.6c0-1.6.3-2.8 1.1-3.7.8-1 1.8-1.4 3-1.4 1.3 0 2.3.4 3 1.2.7.8 1 1.8 1 3.1v1h-6.6c0 1 .3 2 .8 2.5a3 3 0 0 0 2.3.9c1 0 2-.2 3.1-.6v1.3a7.4 7.4 0 0 1-3.1.6Zm-.4-8.8c-.8 0-1.4.3-1.9.8a4 4 0 0 0-.8 2h5c0-.9-.2-1.6-.6-2-.4-.5-1-.8-1.7-.8Zm18.7 8.6v-6.3c0-.7-.2-1.3-.5-1.7-.3-.4-.8-.6-1.5-.6-1 0-1.6.3-2 .8-.5.5-.7 1.3-.7 2.4v5.4h-1.5v-6.3c0-.7-.1-1.3-.5-1.7-.3-.4-.8-.6-1.5-.6-.9 0-1.6.3-2 .9-.4.5-.6 1.4-.6 2.6v5.1h-1.5v-9.6h1.2l.2 1.3h.1c.3-.5.7-.8 1.2-1.1a3 3 0 0 1 1.6-.4c1.6 0 2.5.5 3 1.6a3 3 0 0 1 1.3-1.2 4 4 0 0 1 1.9-.4c1 0 1.9.3 2.4.8.6.6.8 1.5.8 2.7v6.3h-1.4Zm9-9.8c1.2 0 2.2.4 2.9 1.3.7.9 1 2 1 3.7 0 1.6-.3 2.8-1 3.7-.7.8-1.7 1.3-3 1.3-.6 0-1.2-.1-1.7-.4-.5-.2-1-.6-1.3-1l-.4 1.2h-1V89.3h1.4v5.3c.7-1 1.7-1.4 3-1.4Zm-.3 1.2c-1 0-1.7.3-2.1.9-.5.6-.7 1.5-.7 2.9 0 1.3.2 2.3.7 2.9.4.6 1.2.9 2.2.9.9 0 1.5-.4 2-1a5 5 0 0 0 .6-2.8 5 5 0 0 0-.6-2.8c-.5-.7-1.2-1-2-1Zm10.9 8.8c-1.5 0-2.6-.5-3.4-1.3a5 5 0 0 1-1.2-3.6c0-1.6.3-2.8 1.1-3.7.8-1 1.8-1.4 3-1.4 1.3 0 2.3.4 3 1.2.7.8 1 1.8 1 3.1v1h-6.6c0 1 .3 2 .8 2.5a3 3 0 0 0 2.3.9c1 0 2-.2 3.1-.6v1.3a7.4 7.4 0 0 1-3.1.6Zm-.4-8.8c-.8 0-1.4.3-1.9.8a4 4 0 0 0-.8 2h5c0-.9-.2-1.6-.6-2-.4-.5-1-.8-1.7-.8Zm10.8-1.2 1.2.1-.3 1.4a5 5 0 0 0-1-.2c-.8 0-1.5.3-2 1-.6.6-.8 1.4-.8 2.3v5.2h-1.5v-9.6h1.2l.2 1.8a4 4 0 0 1 1.3-1.5 3 3 0 0 1 1.7-.5Zm9.2 7.2c0 .9-.4 1.6-1 2-.7.5-1.6.8-2.8.8-1.3 0-2.3-.2-3-.6v-1.4a7.3 7.3 0 0 0 3 .8c.7 0 1.3-.1 1.7-.4.5-.2.7-.6.7-1.1 0-.4-.2-.7-.5-1l-2-1c-.8-.2-1.5-.5-1.8-.8-.4-.2-.7-.5-.9-.8-.2-.4-.3-.7-.3-1.2 0-.8.4-1.4 1-1.8.6-.5 1.5-.7 2.6-.7 1 0 2 .2 3 .6l-.5 1.2a7 7 0 0 0-2.6-.6 3 3 0 0 0-1.5.3 1 1 0 0 0-.6 1c0 .2 0 .4.2.6l.7.5 1.6.7c1.2.4 2 .9 2.4 1.3.4.4.6 1 .6 1.6Zm15.3-2.2a6 6 0 0 1-1.1 3.7c-.8.8-2 1.3-3.3 1.3a4 4 0 0 1-3.8-2.3 6 6 0 0 1-.6-2.7c0-1.6.4-2.8 1.2-3.7.8-.9 1.8-1.3 3.2-1.3a4 4 0 0 1 3.2 1.3c.8 1 1.2 2.1 1.2 3.7Zm-7.3 0c0 1.2.2 2.1.7 2.8.5.6 1.3 1 2.2 1 1 0 1.7-.4 2.2-1 .5-.6.7-1.6.7-2.8 0-1.2-.2-2.2-.7-2.8-.5-.7-1.2-1-2.2-1-1 0-1.7.3-2.2 1-.5.6-.7 1.5-.7 2.8Zm14.2-3.7h-2.4v8.5h-1.5v-8.5h-1.7v-.7l1.7-.5v-.5c0-2.4 1-3.6 3.1-3.6l1.8.3-.3 1.2-1.5-.3c-.5 0-1 .2-1.2.6-.3.3-.4 1-.4 1.7v.7h2.4v1.1Zm12.7 5.9c0 .9-.3 1.6-1 2-.7.5-1.6.8-2.8.8-1.3 0-2.3-.2-3-.6v-1.4a7.3 7.3 0 0 0 3 .8c.8 0 1.4-.1 1.8-.4.4-.2.6-.6.6-1.1 0-.4-.2-.7-.5-1l-1.9-1c-.9-.2-1.5-.5-2-.8l-.8-.8-.2-1.2c0-.8.3-1.4 1-1.8.6-.5 1.4-.7 2.6-.7 1 0 2 .2 3 .6L117 95a7 7 0 0 0-2.7-.6 3 3 0 0 0-1.5.3 1 1 0 0 0-.5 1l.1.6.7.5 1.7.7c1.1.4 1.9.9 2.3 1.3.4.4.6 1 .6 1.6Zm10.7-2.2c0 1.5-.4 2.8-1.2 3.7-.8.8-1.9 1.3-3.3 1.3a4 4 0 0 1-3.8-2.3 6 6 0 0 1-.6-2.7c0-1.6.4-2.8 1.2-3.7.8-.9 1.9-1.3 3.3-1.3a4 4 0 0 1 3.2 1.3c.8 1 1.2 2.1 1.2 3.7Zm-7.3 0c0 1.2.2 2.1.7 2.8.5.6 1.2 1 2.2 1 1 0 1.6-.4 2.1-1s.8-1.6.8-2.8c0-1.2-.3-2.2-.8-2.8-.5-.7-1.2-1-2.2-1-1 0-1.6.3-2.1 1-.5.6-.7 1.5-.7 2.8Zm22.1 4.8v-6.3c0-.7-.1-1.3-.5-1.7-.3-.4-.8-.6-1.5-.6-.9 0-1.6.3-2 .8-.4.5-.7 1.3-.7 2.4v5.4h-1.4v-6.3c0-.7-.2-1.3-.5-1.7-.3-.4-.8-.6-1.5-.6-1 0-1.6.3-2 .9-.5.5-.7 1.4-.7 2.6v5.1h-1.4v-9.6h1.1l.3 1.3c.3-.5.7-.8 1.2-1.1a3 3 0 0 1 1.7-.4c1.5 0 2.5.5 3 1.6a3 3 0 0 1 1.3-1.2c.5-.3 1.1-.4 1.8-.4 1.1 0 2 .3 2.5.8.5.6.8 1.5.8 2.7v6.3h-1.5Zm8.6.2c-1.4 0-2.6-.5-3.4-1.3a5 5 0 0 1-1.2-3.6c0-1.6.4-2.8 1.1-3.7.8-1 1.8-1.4 3.1-1.4 1.2 0 2.2.4 2.9 1.2.7.8 1 1.8 1 3.1v1h-6.6c0 1 .3 2 .8 2.5a3 3 0 0 0 2.3.9c1 0 2-.2 3.1-.6v1.3a7.5 7.5 0 0 1-3.1.6Zm-.4-8.8c-.8 0-1.4.3-1.9.8a4 4 0 0 0-.8 2h5c0-.9-.2-1.6-.6-2-.4-.5-1-.8-1.7-.8Zm19-1v.9l-1.8.2a3 3 0 0 1 .6 2c0 .9-.3 1.6-1 2.2a4 4 0 0 1-2.6.8h-.8c-.6.3-1 .7-1 1.2 0 .3.2.5.4.6l1.1.2h1.7c1 0 1.9.2 2.4.6.6.5.9 1.1.9 2a3 3 0 0 1-1.3 2.4c-.9.5-2.1.8-3.8.8a5 5 0 0 1-2.9-.7c-.7-.4-1-1.1-1-2 0-.6.2-1 .5-1.5.4-.4 1-.7 1.6-.9-.2 0-.4-.2-.6-.5-.2-.2-.2-.5-.2-.8 0-.3 0-.7.2-1l1-.7c-.6-.2-1-.5-1.3-1-.3-.5-.5-1-.5-1.7 0-1 .4-1.9 1-2.4.6-.6 1.5-1 2.7-1 .5 0 1 .2 1.3.3h3.4Zm-7.7 11.2c0 .5.2 1 .7 1.2.4.3 1 .4 1.8.4 1.3 0 2.2-.2 2.8-.5.6-.4.8-.9.8-1.5s-.1-1-.4-1.1c-.4-.2-1-.3-1.9-.3H165c-.7 0-1.2.1-1.6.5-.3.3-.5.7-.5 1.3Zm.8-8.1c0 .6.2 1.1.6 1.5.3.3.9.5 1.5.5 1.5 0 2.2-.7 2.2-2 0-1.5-.7-2.2-2.2-2.2-.7 0-1.2.1-1.6.5-.3.4-.5 1-.5 1.7Zm13.2-3.3 1.2.1-.2 1.4a5 5 0 0 0-1-.2c-.8 0-1.5.3-2 1-.6.6-.9 1.4-.9 2.3v5.2h-1.4v-9.6h1.2l.1 1.8c.5-.7.9-1.2 1.4-1.5a3 3 0 0 1 1.6-.5Zm7 10c-1.4 0-2.5-.5-3.3-1.3a5 5 0 0 1-1.2-3.6c0-1.6.3-2.8 1.1-3.7.8-1 1.8-1.4 3-1.4 1.3 0 2.3.4 3 1.2.7.8 1 1.8 1 3.1v1h-6.6c0 1 .3 2 .8 2.5a3 3 0 0 0 2.3.9c1 0 2-.2 3.1-.6v1.3a7.5 7.5 0 0 1-3.1.6Zm-.3-8.8c-.8 0-1.4.3-1.9.8a4 4 0 0 0-.8 2h5c0-.9-.2-1.6-.6-2-.4-.5-1-.8-1.7-.8Zm12.3 8.6-.3-1.4c-.5.6-1 1-1.5 1.3-.4.2-1 .3-1.8.3a3 3 0 0 1-2.2-.8c-.5-.5-.8-1.2-.8-2 0-2 1.5-3 4.7-3.1h1.6v-.7c0-.7-.2-1.3-.5-1.6-.3-.4-.8-.6-1.6-.6s-1.7.3-2.7.8l-.4-1.2a6.9 6.9 0 0 1 3.2-.8c1.2 0 2 .3 2.6.8.5.5.8 1.3.8 2.4v6.6h-1Zm-3.3-1a3 3 0 0 0 2.2-.8c.5-.5.8-1.2.8-2v-1l-1.5.1c-1.2 0-2 .2-2.5.6-.5.3-.8.8-.8 1.5 0 .5.2.9.5 1.2.3.2.8.4 1.3.4Zm10.5 0a5.2 5.2 0 0 0 1.4-.2v1.1l-.7.2a5 5 0 0 1-.9 0c-1.8 0-2.8-1-2.8-2.9v-5.7h-1.3v-.7l1.3-.6.6-2h.9v2.2h2.8v1.1h-2.8v5.7c0 .5.1 1 .4 1.3.3.3.7.5 1.1.5Zm16.3-3.8c0 1.5-.4 2.8-1.2 3.7-.8.8-1.9 1.3-3.3 1.3a4 4 0 0 1-3.8-2.3 6 6 0 0 1-.6-2.7c0-1.6.4-2.8 1.2-3.7.8-.9 1.9-1.3 3.3-1.3a4 4 0 0 1 3.2 1.3c.8 1 1.2 2.1 1.2 3.7Zm-7.4 0c0 1.2.3 2.1.8 2.8.5.6 1.2 1 2.2 1 1 0 1.6-.4 2.1-1s.8-1.6.8-2.8c0-1.2-.3-2.2-.8-2.8-.5-.7-1.2-1-2.2-1-1 0-1.6.3-2.1 1-.5.6-.8 1.5-.8 2.8Zm14.3-5 1.2.1-.2 1.4a5 5 0 0 0-1-.2c-.8 0-1.5.3-2 1-.6.6-.9 1.4-.9 2.3v5.2h-1.5v-9.6h1.3l.1 1.8a4 4 0 0 1 1.4-1.5 3 3 0 0 1 1.6-.5Zm10.9.2v.9l-1.8.2a3 3 0 0 1 .6 2c0 .9-.3 1.6-1 2.2a4 4 0 0 1-2.6.8h-.8c-.6.3-1 .7-1 1.2 0 .3.2.5.4.6l1.1.2h1.7c1 0 1.9.2 2.4.6.6.5.9 1.1.9 2a3 3 0 0 1-1.3 2.4c-.9.5-2.1.8-3.8.8a5 5 0 0 1-2.9-.7c-.7-.4-1-1.1-1-2 0-.6.2-1 .6-1.5.3-.4.9-.7 1.5-.9-.2 0-.4-.2-.6-.5-.2-.2-.2-.5-.2-.8 0-.3 0-.7.2-1l1-.7c-.6-.2-1-.5-1.3-1a3 3 0 0 1-.5-1.7c0-1 .4-1.9 1-2.4.6-.6 1.5-1 2.7-1 .5 0 1 .2 1.3.3h3.4Zm-7.7 11.2c0 .5.2 1 .7 1.2.4.3 1 .4 1.8.4 1.3 0 2.2-.2 2.8-.5.6-.4.9-.9.9-1.5s-.2-1-.5-1.1c-.4-.2-1-.3-1.9-.3h-1.7c-.7 0-1.2.1-1.5.5-.4.3-.6.7-.6 1.3Zm.8-8.1c0 .6.2 1.1.6 1.5.3.3.9.5 1.6.5 1.4 0 2-.7 2-2 0-1.5-.6-2.2-2-2.2-.8 0-1.3.1-1.7.5-.3.4-.5 1-.5 1.7ZM245 103l-.3-1.4c-.6.6-1 1-1.5 1.3-.5.2-1 .3-1.8.3-1 0-1.7-.3-2.3-.8-.5-.5-.8-1.2-.8-2 0-2 1.6-3 4.7-3.1h1.6v-.7c0-.7-.1-1.3-.5-1.6-.3-.4-.8-.6-1.5-.6-.8 0-1.7.3-2.7.8l-.5-1.2a6.9 6.9 0 0 1 3.3-.8c1.1 0 2 .3 2.5.8.6.5.9 1.3.9 2.4v6.6H245Zm-3.3-1a3 3 0 0 0 2.1-.8c.5-.5.8-1.2.8-2v-1l-1.5.1c-1.1 0-2 .2-2.5.6-.5.3-.7.8-.7 1.5 0 .5.1.9.4 1.2.4.2.8.4 1.4.4Zm14 1v-6.2c0-.8-.2-1.4-.6-1.8-.3-.4-.9-.6-1.6-.6-1 0-1.8.3-2.3.8-.4.6-.7 1.5-.7 2.7v5.1h-1.4v-9.6h1.2l.2 1.3a3 3 0 0 1 1.3-1.1 4 4 0 0 1 1.8-.4c1.2 0 2 .3 2.6.8.6.6 1 1.5 1 2.7v6.3h-1.5Zm5.9 0H260v-9.6h1.5v9.6ZM260 90.8c0-.4 0-.6.3-.8l.6-.2c.2 0 .4 0 .6.2l.2.8c0 .3 0 .5-.2.7-.2.2-.4.2-.6.2-.3 0-.5 0-.6-.2a1 1 0 0 1-.3-.7Zm10.8 12.2h-7v-1l5.3-7.5h-5v-1.1h6.6v1.1l-5.2 7.4h5.3v1.1Zm8.2 0-.3-1.4c-.5.6-1 1-1.5 1.3-.4.2-1 .3-1.8.3a3 3 0 0 1-2.2-.8c-.5-.5-.8-1.2-.8-2 0-2 1.5-3 4.7-3.1h1.6v-.7c0-.7-.2-1.3-.5-1.6-.3-.4-.8-.6-1.6-.6s-1.7.3-2.7.8l-.4-1.2a6.9 6.9 0 0 1 3.2-.8c1.2 0 2 .3 2.6.8.5.5.8 1.3.8 2.4v6.6h-1Zm-3.3-1a3 3 0 0 0 2.2-.8c.5-.5.8-1.2.8-2v-1l-1.5.1c-1.2 0-2 .2-2.5.6-.5.3-.8.8-.8 1.5 0 .5.2.9.5 1.2.3.2.8.4 1.3.4Zm10.5 0a5.2 5.2 0 0 0 1.4-.2v1.1l-.7.2a5 5 0 0 1-.9 0c-1.8 0-2.8-1-2.8-2.9v-5.7H282v-.7l1.3-.6.6-2h.9v2.2h2.8v1.1h-2.8v5.7c0 .5.1 1 .4 1.3.3.3.7.5 1.1.5Zm4.7 1h-1.4v-9.6h1.4v9.6Zm-1.5-12.2c0-.4 0-.6.2-.8l.6-.2c.3 0 .5 0 .6.2.2.2.3.4.3.8 0 .3-.1.5-.3.7-.1.2-.3.2-.6.2-.2 0-.4 0-.6-.2-.2-.2-.2-.4-.2-.7Zm13 7.4c0 1.5-.4 2.8-1.2 3.7-.8.8-2 1.3-3.3 1.3a4 4 0 0 1-3.8-2.3 6 6 0 0 1-.6-2.7c0-1.6.4-2.8 1.2-3.7.8-.9 1.9-1.3 3.3-1.3a4 4 0 0 1 3.2 1.3c.8 1 1.2 2.1 1.2 3.7Zm-7.4 0c0 1.2.3 2.1.8 2.8.4.6 1.2 1 2.1 1 1 0 1.7-.4 2.2-1 .5-.6.7-1.6.7-2.8 0-1.2-.2-2.2-.7-2.8-.5-.7-1.2-1-2.2-1-1 0-1.7.3-2.2 1a5 5 0 0 0-.7 2.8Zm16.5 4.8v-6.2a3 3 0 0 0-.5-1.8c-.4-.4-1-.6-1.7-.6a3 3 0 0 0-2.2.8c-.5.6-.7 1.5-.7 2.7v5.1h-1.5v-9.6h1.2l.2 1.3h.1a3 3 0 0 1 1.3-1.1 4 4 0 0 1 1.8-.4 4 4 0 0 1 2.6.8c.6.6.9 1.5.9 2.7v6.3h-1.5Zm10.7-2.6c0 .9-.3 1.6-1 2-.7.5-1.6.8-2.8.8-1.3 0-2.3-.2-3-.6v-1.4a7.3 7.3 0 0 0 3 .8c.8 0 1.4-.1 1.8-.4.4-.2.6-.6.6-1.1 0-.4-.2-.7-.5-1l-1.9-1c-.9-.2-1.5-.5-2-.8l-.8-.8-.2-1.2c0-.8.3-1.4 1-1.8.6-.5 1.4-.7 2.5-.7 1 0 2.1.2 3 .6l-.4 1.2a7 7 0 0 0-2.7-.6 3 3 0 0 0-1.5.3 1 1 0 0 0-.5 1l.1.6.7.5 1.7.7c1.1.4 1.9.9 2.3 1.3.4.4.6 1 .6 1.6Zm2.2 1.7c0-.4 0-.7.2-1l.8-.2c.3 0 .6 0 .8.3.2.2.3.5.3.9 0 .3-.1.6-.3.8a1 1 0 0 1-.8.4 1 1 0 0 1-.7-.3c-.2-.2-.3-.5-.3-1ZM0 3.3V28h3.1v-9H7a9 9 0 0 0 6-2.1 10 10 0 0 0 2-2.5c.4-1 .7-2 .7-3.2A7.7 7.7 0 0 0 13 5.5a9 9 0 0 0-6-2.2H0Zm3.1 3.5H7a6.4 6.4 0 0 1 4 1.5c1 .8 1.6 1.8 1.6 2.9 0 1-.5 2-1.5 3-1 .8-2.4 1.3-4.1 1.3H3V6.8Zm21.6 2.8a9 9 0 0 0-4.6 1.2 9.3 9.3 0 0 0-4.6 8c0 1.7.4 3.2 1.3 4.6a8.7 8.7 0 0 0 3.3 3.3 8.9 8.9 0 0 0 10.7-1V28h3v-9.2a9.4 9.4 0 0 0-4.6-8 8.4 8.4 0 0 0-4.5-1.2Zm0 3.1a6 6 0 0 1 5.2 3c.6 1 .9 2 .9 3a6 6 0 0 1-3 5.3 6 6 0 0 1-3.1.8 6 6 0 1 1 0-12.1Zm10-3.1V28h3.1v-9.2a6 6 0 0 1 3-5.3c1-.5 2-.8 3-.8V9.6a9.1 9.1 0 0 0-6 2.3V9.6h-3.1Zm10-6.3v15.5A9.2 9.2 0 0 0 54 28v-3.2a6 6 0 0 1-3-.8c-1-.5-1.7-1.3-2.2-2.2a6 6 0 0 1-.9-3v-1.6H54v-3.1h-6V3.3h-3.2Zm10 6.3V28h3.1v-9.2a6 6 0 0 1 3-5.3 6.1 6.1 0 0 1 6.1 0 6.2 6.2 0 0 1 3 5.2V28h3.2v-9.2a9.5 9.5 0 0 0-4.6-8 9.1 9.1 0 0 0-10.7 1V9.7h-3Zm28.4 0A9.1 9.1 0 0 0 78.9 27c1.3.6 2.7 1 4.2 1a9.4 9.4 0 0 0 6.2-2.5L87.4 23a6.1 6.1 0 0 1-10.2-2.7h15a9.7 9.7 0 0 0 0-3.1 9 9 0 0 0-5-6.6 8 8 0 0 0-4.1-1Zm0 3.1c1.4 0 2.7.4 3.7 1.3 1 .8 1.8 1.9 2.2 3.2H77.2a6 6 0 0 1 5.9-4.5Zm10-3.1V28h3.1v-9.2a6 6 0 0 1 3-5.3c1-.5 2-.8 3.1-.8V9.6a9.1 9.1 0 0 0-6 2.3V9.6H93Zm16.4 0h-.5c-.7 0-1.3 0-2 .2a4 4 0 0 0-2 .9c-.7.5-1.2 1-1.5 1.8a4.7 4.7 0 0 0 .2 4.7c.4.6 1 1.2 1.8 1.5a19.1 19.1 0 0 0 4.3 1.4h.3l3 1c.6.4.9 1 .9 1.6 0 .7-.4 1.4-1 2-.7.5-1.7.7-3 .7-.7 0-1.3 0-1.8-.2a3 3 0 0 1-1.4-.7 5.2 5.2 0 0 1-1.3-2.7l-3 .5a6.8 6.8 0 0 0 2.2 4.3 6 6 0 0 0 2.7 1.1l2.5.3h.1a9.2 9.2 0 0 0 5.2-1.7c.5-.3.8-.7 1-1a6.8 6.8 0 0 0 .9-2.9c0-1-.2-1.9-.7-2.6a5.8 5.8 0 0 0-2.6-1.8c-1-.4-2.2-.7-3.4-1-1.1-.2-2.1-.5-3-.9-.8-.4-1.3-.8-1.3-1.1l-.1-.8c0-.5.2-1 .8-1.4.5-.5 1.5-.7 2.9-.7.5 0 1 0 1.5.2.4.1.8.3 1.1.6a4 4 0 0 1 1.1 2l3-.4c0-.5-.2-1-.4-1.4a5 5 0 0 0-.6-1.3 5 5 0 0 0-2.4-1.7c-.5-.3-1.1-.4-1.6-.4l-1.5-.1h-.4Z"/></svg>