<svg width="21" height="17" viewBox="0 0 21 17" fill="none" xmlns="http://www.w3.org/2000/svg">
<path d="M19.4445 0.833313H1.55561C1.21672 0.833313 0.891714 0.967936 0.652084 1.20757C0.412455 1.4472 0.277832 1.7722 0.277832 2.11109V14.8889C0.277832 15.2278 0.412455 15.5528 0.652084 15.7924C0.891714 16.032 1.21672 16.1666 1.55561 16.1666H19.4445C19.7834 16.1666 20.1084 16.032 20.348 15.7924C20.5877 15.5528 20.7223 15.2278 20.7223 14.8889V2.11109C20.7223 1.7722 20.5877 1.4472 20.348 1.20757C20.1084 0.967936 19.7834 0.833313 19.4445 0.833313ZM18.4606 14.8889H2.61617L7.08839 10.2633L6.16839 9.37526L1.55561 14.1478V3.0822L9.497 10.9853C9.73641 11.2232 10.0603 11.3568 10.3978 11.3568C10.7354 11.3568 11.0593 11.2232 11.2987 10.9853L19.4445 2.88415V14.0647L14.7423 9.36248L13.8414 10.2633L18.4606 14.8889ZM2.39255 2.11109H18.4095L10.3978 10.078L2.39255 2.11109Z" fill="#F8F8F8"/>
</svg>
