<svg width="361" height="177" viewBox="0 0 361 177" fill="none" xmlns="http://www.w3.org/2000/svg">
<path d="M1.92 56.008V52.264H46.08V56.008H1.92ZM81.5678 35.4047C78.6878 35.4047 76.0337 36.1388 73.6619 37.5506C71.2619 38.9624 69.3701 40.8824 67.9584 43.2541C66.5184 45.6541 65.8125 48.28 65.8125 51.16C65.8125 54.0682 66.5184 56.6941 67.9584 59.0659C69.3701 61.4659 71.2619 63.3576 73.6619 64.7976C76.0337 66.2094 78.6878 66.9153 81.5678 66.9153C83.5443 66.9153 85.436 66.5765 87.2149 65.8706C88.9654 65.1929 90.5749 64.2047 91.9584 62.9624V66.9153H97.3231V51.16C97.2949 48.2235 96.5607 45.5976 95.149 43.2259C93.7372 40.8541 91.8454 38.9624 89.4737 37.5506C87.1019 36.1388 84.4478 35.4047 81.5678 35.4047ZM81.5678 40.7694C83.4878 40.7694 85.2384 41.2212 86.8196 42.1529C88.3725 43.0847 89.6431 44.3553 90.5749 45.9082C91.5066 47.4894 91.9584 49.24 91.9584 51.16C91.9584 53.08 91.5066 54.8306 90.5749 56.4118C89.6431 57.9929 88.3725 59.2353 86.8196 60.1671C85.2384 61.0988 83.4878 61.5788 81.5678 61.5788C79.6478 61.5788 77.8972 61.0988 76.316 60.1671C74.7349 59.2353 73.4925 57.9929 72.5607 56.4118C71.629 54.8306 71.1772 53.08 71.1772 51.16C71.1772 49.24 71.629 47.4894 72.5607 45.9082C73.4925 44.3553 74.7349 43.0847 76.316 42.1529C77.8972 41.2212 79.6478 40.7694 81.5678 40.7694ZM132.287 66.9153C135.167 66.9153 137.821 66.2094 140.192 64.7976C142.592 63.3576 144.484 61.4659 145.896 59.0659C147.336 56.6941 148.042 54.0682 148.042 51.16C148.042 48.28 147.336 45.6541 145.896 43.2541C144.484 40.8824 142.592 38.9624 140.192 37.5506C137.821 36.1388 135.167 35.4047 132.287 35.4047C130.282 35.4047 128.418 35.7718 126.639 36.4494C124.861 37.1553 123.279 38.1153 121.896 39.3576V24.7035H116.531V51.1882C116.559 54.0965 117.294 56.7506 118.705 59.1224C120.089 61.4659 121.981 63.3576 124.381 64.7976C126.752 66.2094 129.407 66.9153 132.287 66.9153ZM132.287 61.5788C130.367 61.5788 128.616 61.0988 127.035 60.1671C125.454 59.2353 124.211 57.9929 123.279 56.4118C122.348 54.8306 121.896 53.08 121.896 51.16C121.896 49.24 122.348 47.4894 123.279 45.9082C124.211 44.3553 125.454 43.0847 127.035 42.1529C128.616 41.2212 130.367 40.7694 132.287 40.7694C134.207 40.7694 135.957 41.2212 137.538 42.1529C139.091 43.0847 140.362 44.3553 141.294 45.9082C142.225 47.4894 142.677 49.24 142.677 51.16C142.677 53.08 142.225 54.8306 141.294 56.4118C140.362 57.9929 139.091 59.2353 137.538 60.1671C135.957 61.0988 134.207 61.5788 132.287 61.5788ZM165.193 35.4047C162.595 35.4047 160.223 35.9976 158.021 37.1553C155.819 38.2847 153.983 39.8376 152.515 41.8141C151.075 43.7624 150.115 45.9929 149.663 48.4776C149.522 49.4376 149.438 50.3412 149.438 51.16C149.466 52.1482 149.55 53.0235 149.663 53.8424C150.115 56.3553 151.075 58.5859 152.543 60.5341C154.012 62.4824 155.819 64.0353 158.021 65.1929C160.223 66.3506 162.595 66.9153 165.193 66.9153C167.254 66.9153 169.202 66.5482 171.037 65.7859C172.845 65.0518 174.482 64.0071 175.894 62.7082L172.59 58.5012C171.659 59.4612 170.529 60.1953 169.287 60.76C168.016 61.2965 166.633 61.5788 165.193 61.5788C162.765 61.5788 160.647 60.8447 158.812 59.4047C156.976 57.9647 155.762 56.1294 155.141 53.8424H180.722C180.863 52.9671 180.948 52.0918 180.948 51.16C180.92 50.2 180.835 49.2965 180.722 48.4776C180.27 45.9929 179.31 43.7624 177.842 41.8141C176.374 39.8376 174.567 38.2847 172.365 37.1553C170.162 35.9976 167.762 35.4047 165.193 35.4047ZM165.193 40.7694C167.621 40.7694 169.739 41.4753 171.574 42.9153C173.381 44.3553 174.623 46.2188 175.245 48.4776H155.141C155.762 46.2188 156.976 44.3553 158.812 42.9153C160.647 41.4753 162.765 40.7694 165.193 40.7694ZM182.344 24.7035V51.2447C182.4 54.1529 183.106 56.7788 184.518 59.1506C185.93 61.4941 187.821 63.3859 190.193 64.7976C192.593 66.2094 195.219 66.9153 198.099 66.9153V61.5788C196.179 61.5788 194.428 61.0988 192.847 60.1671C191.294 59.2353 190.052 57.9929 189.12 56.44C188.188 54.8871 187.737 53.1365 187.708 51.1882V48.4776H198.099V43.1412H187.708V24.7035H182.344ZM199.5 24.7035V51.2447C199.556 54.1529 200.262 56.7788 201.674 59.1506C203.086 61.4941 204.978 63.3859 207.349 64.7976C209.749 66.2094 212.375 66.9153 215.255 66.9153V61.5788C213.335 61.5788 211.585 61.0988 210.004 60.1671C208.451 59.2353 207.208 57.9929 206.276 56.44C205.345 54.8871 204.893 53.1365 204.865 51.1882V48.4776H215.255V43.1412H204.865V24.7035H199.5ZM232.412 35.4047C229.814 35.4047 227.442 35.9976 225.24 37.1553C223.037 38.2847 221.202 39.8376 219.734 41.8141C218.294 43.7624 217.334 45.9929 216.882 48.4776C216.741 49.4376 216.656 50.3412 216.656 51.16C216.684 52.1482 216.769 53.0235 216.882 53.8424C217.334 56.3553 218.294 58.5859 219.762 60.5341C221.23 62.4824 223.037 64.0353 225.24 65.1929C227.442 66.3506 229.814 66.9153 232.412 66.9153C234.473 66.9153 236.421 66.5482 238.256 65.7859C240.063 65.0518 241.701 64.0071 243.113 62.7082L239.809 58.5012C238.877 59.4612 237.748 60.1953 236.506 60.76C235.235 61.2965 233.852 61.5788 232.412 61.5788C229.983 61.5788 227.866 60.8447 226.03 59.4047C224.195 57.9647 222.981 56.1294 222.36 53.8424H247.941C248.082 52.9671 248.167 52.0918 248.167 51.16C248.139 50.2 248.054 49.2965 247.941 48.4776C247.489 45.9929 246.529 43.7624 245.061 41.8141C243.593 39.8376 241.786 38.2847 239.583 37.1553C237.381 35.9976 234.981 35.4047 232.412 35.4047ZM232.412 40.7694C234.84 40.7694 236.957 41.4753 238.793 42.9153C240.6 44.3553 241.842 46.2188 242.463 48.4776H222.36C222.981 46.2188 224.195 44.3553 226.03 42.9153C227.866 41.4753 229.983 40.7694 232.412 40.7694ZM249.562 35.4047V66.9153H254.927V51.16C254.927 49.24 255.379 47.4894 256.311 45.9082C257.242 44.3553 258.485 43.0847 260.066 42.1529C261.647 41.2212 263.398 40.7694 265.318 40.7694V35.4047C263.313 35.4047 261.45 35.7718 259.671 36.4494C257.892 37.1553 256.311 38.1153 254.927 39.3576V35.4047H249.562ZM284.531 24.7035V30.0682H298.169V66.9153H303.505V30.0682H317.143V24.7035H284.531ZM318 24.6188L332.428 66.8871H338.188L352.616 24.6188H346.885L335.308 59.5176L323.76 24.6188H318ZM354.047 61.0141V66.3506H359.412V61.0141H354.047Z" fill="white"/>
<path d="M9.03613 92.5811C9.03613 93.7119 8.62598 94.5938 7.80566 95.2266C6.98535 95.8594 5.87207 96.1758 4.46582 96.1758C2.94238 96.1758 1.77051 95.9795 0.950195 95.5869V94.1455C1.47754 94.3682 2.05176 94.5439 2.67285 94.6729C3.29395 94.8018 3.90918 94.8662 4.51855 94.8662C5.51465 94.8662 6.26465 94.6787 6.76855 94.3037C7.27246 93.9229 7.52441 93.3955 7.52441 92.7217C7.52441 92.2764 7.43359 91.9131 7.25195 91.6318C7.07617 91.3447 6.77734 91.0811 6.35547 90.8408C5.93945 90.6006 5.30371 90.3281 4.44824 90.0234C3.25293 89.5957 2.39746 89.0889 1.88184 88.5029C1.37207 87.917 1.11719 87.1523 1.11719 86.209C1.11719 85.2188 1.48926 84.4307 2.2334 83.8447C2.97754 83.2588 3.96191 82.9658 5.18652 82.9658C6.46387 82.9658 7.63867 83.2002 8.71094 83.6689L8.24512 84.9697C7.18457 84.5244 6.15332 84.3018 5.15137 84.3018C4.36035 84.3018 3.74219 84.4717 3.29688 84.8115C2.85156 85.1514 2.62891 85.623 2.62891 86.2266C2.62891 86.6719 2.71094 87.0381 2.875 87.3252C3.03906 87.6064 3.31445 87.8672 3.70117 88.1074C4.09375 88.3418 4.69141 88.6025 5.49414 88.8896C6.8418 89.3701 7.76758 89.8857 8.27148 90.4365C8.78125 90.9873 9.03613 91.7021 9.03613 92.5811ZM12.8154 86.3672V92.6162C12.8154 93.4014 12.9941 93.9873 13.3516 94.374C13.709 94.7607 14.2686 94.9541 15.0303 94.9541C16.0381 94.9541 16.7734 94.6787 17.2363 94.1279C17.7051 93.5771 17.9395 92.6777 17.9395 91.4297V86.3672H19.3984V96H18.1943L17.9834 94.708H17.9043C17.6055 95.1826 17.1895 95.5459 16.6562 95.7979C16.1289 96.0498 15.5254 96.1758 14.8457 96.1758C13.6738 96.1758 12.7949 95.8975 12.209 95.3408C11.6289 94.7842 11.3389 93.8936 11.3389 92.6689V86.3672H12.8154ZM26.9834 96.1758C26.3564 96.1758 25.7822 96.0615 25.2607 95.833C24.7451 95.5986 24.3115 95.2412 23.96 94.7607H23.8545C23.9248 95.3232 23.96 95.8564 23.96 96.3604V100.324H22.501V86.3672H23.6875L23.8896 87.6855H23.96C24.335 87.1582 24.7715 86.7773 25.2695 86.543C25.7676 86.3086 26.3389 86.1914 26.9834 86.1914C28.2607 86.1914 29.2451 86.6279 29.9365 87.501C30.6338 88.374 30.9824 89.5986 30.9824 91.1748C30.9824 92.7568 30.6279 93.9873 29.9189 94.8662C29.2158 95.7393 28.2373 96.1758 26.9834 96.1758ZM26.7725 87.4307C25.7881 87.4307 25.0762 87.7031 24.6367 88.248C24.1973 88.793 23.9717 89.6602 23.96 90.8496V91.1748C23.96 92.5283 24.1855 93.498 24.6367 94.084C25.0879 94.6641 25.8115 94.9541 26.8076 94.9541C27.6396 94.9541 28.29 94.6172 28.7588 93.9434C29.2334 93.2695 29.4707 92.3408 29.4707 91.1572C29.4707 89.9561 29.2334 89.0361 28.7588 88.3975C28.29 87.7529 27.6279 87.4307 26.7725 87.4307ZM38.0225 96.1758C37.3955 96.1758 36.8213 96.0615 36.2998 95.833C35.7842 95.5986 35.3506 95.2412 34.999 94.7607H34.8936C34.9639 95.3232 34.999 95.8564 34.999 96.3604V100.324H33.54V86.3672H34.7266L34.9287 87.6855H34.999C35.374 87.1582 35.8105 86.7773 36.3086 86.543C36.8066 86.3086 37.3779 86.1914 38.0225 86.1914C39.2998 86.1914 40.2842 86.6279 40.9756 87.501C41.6729 88.374 42.0215 89.5986 42.0215 91.1748C42.0215 92.7568 41.667 93.9873 40.958 94.8662C40.2549 95.7393 39.2764 96.1758 38.0225 96.1758ZM37.8115 87.4307C36.8271 87.4307 36.1152 87.7031 35.6758 88.248C35.2363 88.793 35.0107 89.6602 34.999 90.8496V91.1748C34.999 92.5283 35.2246 93.498 35.6758 94.084C36.127 94.6641 36.8506 94.9541 37.8467 94.9541C38.6787 94.9541 39.3291 94.6172 39.7979 93.9434C40.2725 93.2695 40.5098 92.3408 40.5098 91.1572C40.5098 89.9561 40.2725 89.0361 39.7979 88.3975C39.3291 87.7529 38.667 87.4307 37.8115 87.4307ZM52.8936 91.1748C52.8936 92.7451 52.498 93.9727 51.707 94.8574C50.916 95.7363 49.8232 96.1758 48.4287 96.1758C47.5674 96.1758 46.8027 95.9736 46.1348 95.5693C45.4668 95.165 44.9512 94.585 44.5879 93.8291C44.2246 93.0732 44.043 92.1885 44.043 91.1748C44.043 89.6045 44.4355 88.3828 45.2207 87.5098C46.0059 86.6309 47.0957 86.1914 48.4902 86.1914C49.8379 86.1914 50.9072 86.6396 51.6982 87.5361C52.4951 88.4326 52.8936 89.6455 52.8936 91.1748ZM45.5547 91.1748C45.5547 92.4053 45.8008 93.3428 46.293 93.9873C46.7852 94.6318 47.5088 94.9541 48.4639 94.9541C49.4189 94.9541 50.1426 94.6348 50.6348 93.9961C51.1328 93.3516 51.3818 92.4111 51.3818 91.1748C51.3818 89.9502 51.1328 89.0215 50.6348 88.3887C50.1426 87.75 49.4131 87.4307 48.4463 87.4307C47.4912 87.4307 46.7705 87.7441 46.2842 88.3711C45.7979 88.998 45.5547 89.9326 45.5547 91.1748ZM59.8545 86.1914C60.2822 86.1914 60.666 86.2266 61.0059 86.2969L60.8037 87.6504C60.4053 87.5625 60.0537 87.5186 59.749 87.5186C58.9697 87.5186 58.3018 87.835 57.7451 88.4678C57.1943 89.1006 56.9189 89.8887 56.9189 90.832V96H55.46V86.3672H56.6641L56.8311 88.1514H56.9014C57.2588 87.5244 57.6895 87.041 58.1934 86.7012C58.6973 86.3613 59.251 86.1914 59.8545 86.1914ZM65.9189 94.9717C66.1768 94.9717 66.4258 94.9541 66.666 94.9189C66.9062 94.8779 67.0967 94.8369 67.2373 94.7959V95.9121C67.0791 95.9883 66.8447 96.0498 66.5342 96.0967C66.2295 96.1494 65.9541 96.1758 65.708 96.1758C63.8447 96.1758 62.9131 95.1943 62.9131 93.2314V87.501H61.5332V86.7979L62.9131 86.1914L63.5283 84.1348H64.3721V86.3672H67.167V87.501H64.3721V93.1699C64.3721 93.75 64.5098 94.1953 64.7852 94.5059C65.0605 94.8164 65.4385 94.9717 65.9189 94.9717ZM75.3848 93.3721C75.3848 94.2686 75.0508 94.96 74.3828 95.4463C73.7148 95.9326 72.7773 96.1758 71.5703 96.1758C70.293 96.1758 69.2969 95.9736 68.582 95.5693V94.2158C69.0449 94.4502 69.54 94.6348 70.0674 94.7695C70.6006 94.9043 71.1133 94.9717 71.6055 94.9717C72.3672 94.9717 72.9531 94.8516 73.3633 94.6113C73.7734 94.3652 73.9785 93.9932 73.9785 93.4951C73.9785 93.1201 73.8145 92.8008 73.4863 92.5371C73.1641 92.2676 72.5312 91.9512 71.5879 91.5879C70.6914 91.2539 70.0527 90.9639 69.6719 90.7178C69.2969 90.4658 69.0156 90.1816 68.8281 89.8652C68.6465 89.5488 68.5557 89.1709 68.5557 88.7314C68.5557 87.9463 68.875 87.3281 69.5137 86.877C70.1523 86.4199 71.0283 86.1914 72.1416 86.1914C73.1787 86.1914 74.1924 86.4023 75.1826 86.8242L74.6641 88.0107C73.6973 87.6123 72.8213 87.4131 72.0361 87.4131C71.3447 87.4131 70.8232 87.5215 70.4717 87.7383C70.1201 87.9551 69.9443 88.2539 69.9443 88.6348C69.9443 88.8926 70.0088 89.1123 70.1377 89.2939C70.2725 89.4756 70.4863 89.6484 70.7793 89.8125C71.0723 89.9766 71.6348 90.2139 72.4668 90.5244C73.6094 90.9404 74.3799 91.3594 74.7783 91.7812C75.1826 92.2031 75.3848 92.7334 75.3848 93.3721ZM86.292 96.1758C84.8975 96.1758 83.8164 95.748 83.0488 94.8926C82.2871 94.0312 81.9062 92.8154 81.9062 91.2451C81.9062 89.6338 82.293 88.3887 83.0664 87.5098C83.8457 86.6309 84.9531 86.1914 86.3887 86.1914C86.8516 86.1914 87.3145 86.2412 87.7773 86.3408C88.2402 86.4404 88.6035 86.5576 88.8672 86.6924L88.4189 87.9316C88.0967 87.8027 87.7451 87.6973 87.3643 87.6152C86.9834 87.5273 86.6465 87.4834 86.3535 87.4834C84.3965 87.4834 83.418 88.7314 83.418 91.2275C83.418 92.4111 83.6553 93.3193 84.1299 93.9521C84.6104 94.585 85.3193 94.9014 86.2568 94.9014C87.0596 94.9014 87.8828 94.7285 88.7266 94.3828V95.6748C88.082 96.0088 87.2705 96.1758 86.292 96.1758ZM96.9443 96L96.6543 94.6289H96.584C96.1035 95.2324 95.623 95.6426 95.1426 95.8594C94.668 96.0703 94.0732 96.1758 93.3584 96.1758C92.4033 96.1758 91.6533 95.9297 91.1084 95.4375C90.5693 94.9453 90.2998 94.2451 90.2998 93.3369C90.2998 91.3916 91.8555 90.3721 94.9668 90.2783L96.6016 90.2256V89.6279C96.6016 88.8721 96.4375 88.3154 96.1094 87.958C95.7871 87.5947 95.2686 87.4131 94.5537 87.4131C93.751 87.4131 92.8428 87.6592 91.8291 88.1514L91.3809 87.0352C91.8555 86.7773 92.374 86.5752 92.9365 86.4287C93.5049 86.2822 94.0732 86.209 94.6416 86.209C95.79 86.209 96.6396 86.4639 97.1904 86.9736C97.7471 87.4834 98.0254 88.3008 98.0254 89.4258V96H96.9443ZM93.6484 94.9717C94.5566 94.9717 95.2686 94.7227 95.7842 94.2246C96.3057 93.7266 96.5664 93.0293 96.5664 92.1328V91.2627L95.1074 91.3242C93.9473 91.3652 93.1094 91.5469 92.5938 91.8691C92.084 92.1855 91.8291 92.6807 91.8291 93.3545C91.8291 93.8818 91.9873 94.2832 92.3037 94.5586C92.626 94.834 93.0742 94.9717 93.6484 94.9717ZM107.254 93.3721C107.254 94.2686 106.92 94.96 106.252 95.4463C105.584 95.9326 104.646 96.1758 103.439 96.1758C102.162 96.1758 101.166 95.9736 100.451 95.5693V94.2158C100.914 94.4502 101.409 94.6348 101.937 94.7695C102.47 94.9043 102.982 94.9717 103.475 94.9717C104.236 94.9717 104.822 94.8516 105.232 94.6113C105.643 94.3652 105.848 93.9932 105.848 93.4951C105.848 93.1201 105.684 92.8008 105.355 92.5371C105.033 92.2676 104.4 91.9512 103.457 91.5879C102.561 91.2539 101.922 90.9639 101.541 90.7178C101.166 90.4658 100.885 90.1816 100.697 89.8652C100.516 89.5488 100.425 89.1709 100.425 88.7314C100.425 87.9463 100.744 87.3281 101.383 86.877C102.021 86.4199 102.897 86.1914 104.011 86.1914C105.048 86.1914 106.062 86.4023 107.052 86.8242L106.533 88.0107C105.566 87.6123 104.69 87.4131 103.905 87.4131C103.214 87.4131 102.692 87.5215 102.341 87.7383C101.989 87.9551 101.813 88.2539 101.813 88.6348C101.813 88.8926 101.878 89.1123 102.007 89.2939C102.142 89.4756 102.355 89.6484 102.648 89.8125C102.941 89.9766 103.504 90.2139 104.336 90.5244C105.479 90.9404 106.249 91.3594 106.647 91.7812C107.052 92.2031 107.254 92.7334 107.254 93.3721ZM112.747 94.9717C113.005 94.9717 113.254 94.9541 113.494 94.9189C113.734 94.8779 113.925 94.8369 114.065 94.7959V95.9121C113.907 95.9883 113.673 96.0498 113.362 96.0967C113.058 96.1494 112.782 96.1758 112.536 96.1758C110.673 96.1758 109.741 95.1943 109.741 93.2314V87.501H108.361V86.7979L109.741 86.1914L110.356 84.1348H111.2V86.3672H113.995V87.501H111.2V93.1699C111.2 93.75 111.338 94.1953 111.613 94.5059C111.889 94.8164 112.267 94.9717 112.747 94.9717ZM117.458 96H115.999V86.3672H117.458V96ZM115.876 83.7568C115.876 83.4229 115.958 83.1797 116.122 83.0273C116.286 82.8691 116.491 82.79 116.737 82.79C116.972 82.79 117.174 82.8691 117.344 83.0273C117.514 83.1855 117.599 83.4287 117.599 83.7568C117.599 84.085 117.514 84.3311 117.344 84.4951C117.174 84.6533 116.972 84.7324 116.737 84.7324C116.491 84.7324 116.286 84.6533 116.122 84.4951C115.958 84.3311 115.876 84.085 115.876 83.7568ZM127.144 96V89.7686C127.144 88.9834 126.965 88.3975 126.607 88.0107C126.25 87.624 125.69 87.4307 124.929 87.4307C123.921 87.4307 123.183 87.7031 122.714 88.248C122.245 88.793 122.011 89.6924 122.011 90.9463V96H120.552V86.3672H121.738L121.976 87.6855H122.046C122.345 87.2109 122.764 86.8447 123.303 86.5869C123.842 86.3232 124.442 86.1914 125.104 86.1914C126.265 86.1914 127.138 86.4727 127.724 87.0352C128.31 87.5918 128.603 88.4854 128.603 89.7158V96H127.144ZM139.492 86.3672V87.29L137.708 87.501C137.872 87.7061 138.019 87.9756 138.147 88.3096C138.276 88.6377 138.341 89.0098 138.341 89.4258C138.341 90.3691 138.019 91.1221 137.374 91.6846C136.729 92.2471 135.845 92.5283 134.72 92.5283C134.433 92.5283 134.163 92.5049 133.911 92.458C133.29 92.7861 132.979 93.1992 132.979 93.6973C132.979 93.9609 133.088 94.1572 133.305 94.2861C133.521 94.4092 133.894 94.4707 134.421 94.4707H136.126C137.169 94.4707 137.969 94.6904 138.525 95.1299C139.088 95.5693 139.369 96.208 139.369 97.0459C139.369 98.1123 138.941 98.9238 138.086 99.4805C137.23 100.043 135.982 100.324 134.342 100.324C133.082 100.324 132.109 100.09 131.424 99.6211C130.744 99.1523 130.404 98.4902 130.404 97.6348C130.404 97.0488 130.592 96.542 130.967 96.1143C131.342 95.6865 131.869 95.3965 132.549 95.2441C132.303 95.1328 132.095 94.96 131.925 94.7256C131.761 94.4912 131.679 94.2188 131.679 93.9082C131.679 93.5566 131.772 93.249 131.96 92.9854C132.147 92.7217 132.443 92.4668 132.848 92.2207C132.35 92.0156 131.942 91.667 131.626 91.1748C131.315 90.6826 131.16 90.1201 131.16 89.4873C131.16 88.4326 131.477 87.6211 132.109 87.0527C132.742 86.4785 133.639 86.1914 134.799 86.1914C135.303 86.1914 135.757 86.25 136.161 86.3672H139.492ZM131.811 97.6172C131.811 98.1387 132.03 98.5342 132.47 98.8037C132.909 99.0732 133.539 99.208 134.359 99.208C135.584 99.208 136.489 99.0234 137.075 98.6543C137.667 98.291 137.963 97.7959 137.963 97.1689C137.963 96.6475 137.802 96.2842 137.479 96.0791C137.157 95.8799 136.551 95.7803 135.66 95.7803H133.911C133.249 95.7803 132.733 95.9385 132.364 96.2549C131.995 96.5713 131.811 97.0254 131.811 97.6172ZM132.602 89.4521C132.602 90.126 132.792 90.6357 133.173 90.9814C133.554 91.3271 134.084 91.5 134.764 91.5C136.188 91.5 136.899 90.8086 136.899 89.4258C136.899 87.9785 136.179 87.2549 134.737 87.2549C134.052 87.2549 133.524 87.4395 133.155 87.8086C132.786 88.1777 132.602 88.7256 132.602 89.4521ZM150.487 87.501H148.035V96H146.576V87.501H144.854V86.8418L146.576 86.3145V85.7783C146.576 83.4111 147.61 82.2275 149.679 82.2275C150.188 82.2275 150.786 82.3301 151.472 82.5352L151.094 83.7041C150.531 83.5225 150.051 83.4316 149.652 83.4316C149.102 83.4316 148.694 83.6162 148.431 83.9854C148.167 84.3486 148.035 84.9346 148.035 85.7432V86.3672H150.487V87.501ZM156.64 86.1914C157.067 86.1914 157.451 86.2266 157.791 86.2969L157.589 87.6504C157.19 87.5625 156.839 87.5186 156.534 87.5186C155.755 87.5186 155.087 87.835 154.53 88.4678C153.979 89.1006 153.704 89.8887 153.704 90.832V96H152.245V86.3672H153.449L153.616 88.1514H153.687C154.044 87.5244 154.475 87.041 154.979 86.7012C155.482 86.3613 156.036 86.1914 156.64 86.1914ZM167.907 91.1748C167.907 92.7451 167.512 93.9727 166.721 94.8574C165.93 95.7363 164.837 96.1758 163.442 96.1758C162.581 96.1758 161.816 95.9736 161.148 95.5693C160.48 95.165 159.965 94.585 159.602 93.8291C159.238 93.0732 159.057 92.1885 159.057 91.1748C159.057 89.6045 159.449 88.3828 160.234 87.5098C161.02 86.6309 162.109 86.1914 163.504 86.1914C164.852 86.1914 165.921 86.6396 166.712 87.5361C167.509 88.4326 167.907 89.6455 167.907 91.1748ZM160.568 91.1748C160.568 92.4053 160.814 93.3428 161.307 93.9873C161.799 94.6318 162.522 94.9541 163.478 94.9541C164.433 94.9541 165.156 94.6348 165.648 93.9961C166.146 93.3516 166.396 92.4111 166.396 91.1748C166.396 89.9502 166.146 89.0215 165.648 88.3887C165.156 87.75 164.427 87.4307 163.46 87.4307C162.505 87.4307 161.784 87.7441 161.298 88.3711C160.812 88.998 160.568 89.9326 160.568 91.1748ZM182.752 96V89.7334C182.752 88.9658 182.588 88.3916 182.26 88.0107C181.932 87.624 181.422 87.4307 180.73 87.4307C179.822 87.4307 179.151 87.6914 178.718 88.2129C178.284 88.7344 178.067 89.5371 178.067 90.6211V96H176.608V89.7334C176.608 88.9658 176.444 88.3916 176.116 88.0107C175.788 87.624 175.275 87.4307 174.578 87.4307C173.664 87.4307 172.993 87.7061 172.565 88.2568C172.144 88.8018 171.933 89.6982 171.933 90.9463V96H170.474V86.3672H171.66L171.897 87.6855H171.968C172.243 87.2168 172.63 86.8506 173.128 86.5869C173.632 86.3232 174.194 86.1914 174.815 86.1914C176.321 86.1914 177.306 86.7363 177.769 87.8262H177.839C178.126 87.3223 178.542 86.9238 179.087 86.6309C179.632 86.3379 180.253 86.1914 180.95 86.1914C182.04 86.1914 182.854 86.4727 183.394 87.0352C183.938 87.5918 184.211 88.4854 184.211 89.7158V96H182.752ZM197.825 96L197.535 94.6289H197.465C196.984 95.2324 196.504 95.6426 196.023 95.8594C195.549 96.0703 194.954 96.1758 194.239 96.1758C193.284 96.1758 192.534 95.9297 191.989 95.4375C191.45 94.9453 191.181 94.2451 191.181 93.3369C191.181 91.3916 192.736 90.3721 195.848 90.2783L197.482 90.2256V89.6279C197.482 88.8721 197.318 88.3154 196.99 87.958C196.668 87.5947 196.149 87.4131 195.435 87.4131C194.632 87.4131 193.724 87.6592 192.71 88.1514L192.262 87.0352C192.736 86.7773 193.255 86.5752 193.817 86.4287C194.386 86.2822 194.954 86.209 195.522 86.209C196.671 86.209 197.521 86.4639 198.071 86.9736C198.628 87.4834 198.906 88.3008 198.906 89.4258V96H197.825ZM194.529 94.9717C195.438 94.9717 196.149 94.7227 196.665 94.2246C197.187 93.7266 197.447 93.0293 197.447 92.1328V91.2627L195.988 91.3242C194.828 91.3652 193.99 91.5469 193.475 91.8691C192.965 92.1855 192.71 92.6807 192.71 93.3545C192.71 93.8818 192.868 94.2832 193.185 94.5586C193.507 94.834 193.955 94.9717 194.529 94.9717ZM203.38 96H201.921V82.3242H203.38V96ZM207.933 96H206.474V82.3242H207.933V96ZM222.259 94.708H222.18C221.506 95.6865 220.498 96.1758 219.156 96.1758C217.896 96.1758 216.915 95.7451 216.212 94.8838C215.515 94.0225 215.166 92.7979 215.166 91.21C215.166 89.6221 215.518 88.3887 216.221 87.5098C216.924 86.6309 217.902 86.1914 219.156 86.1914C220.463 86.1914 221.465 86.666 222.162 87.6152H222.276L222.215 86.9209L222.18 86.2441V82.3242H223.639V96H222.452L222.259 94.708ZM219.341 94.9541C220.337 94.9541 221.058 94.6846 221.503 94.1455C221.954 93.6006 222.18 92.7246 222.18 91.5176V91.21C222.18 89.8447 221.951 88.8721 221.494 88.292C221.043 87.7061 220.319 87.4131 219.323 87.4131C218.468 87.4131 217.812 87.7471 217.354 88.415C216.903 89.0771 216.678 90.0146 216.678 91.2275C216.678 92.458 216.903 93.3867 217.354 94.0137C217.806 94.6406 218.468 94.9541 219.341 94.9541ZM230.811 96.1758C229.387 96.1758 228.262 95.7422 227.436 94.875C226.615 94.0078 226.205 92.8037 226.205 91.2627C226.205 89.71 226.586 88.4766 227.348 87.5625C228.115 86.6484 229.144 86.1914 230.433 86.1914C231.64 86.1914 232.595 86.5898 233.298 87.3867C234.001 88.1777 234.353 89.2236 234.353 90.5244V91.4473H227.717C227.746 92.5781 228.03 93.4365 228.569 94.0225C229.114 94.6084 229.879 94.9014 230.863 94.9014C231.9 94.9014 232.926 94.6846 233.939 94.251V95.5518C233.424 95.7744 232.935 95.9326 232.472 96.0264C232.015 96.126 231.461 96.1758 230.811 96.1758ZM230.415 87.4131C229.642 87.4131 229.023 87.665 228.561 88.1689C228.104 88.6729 227.834 89.3701 227.752 90.2607H232.788C232.788 89.3408 232.583 88.6377 232.173 88.1514C231.763 87.6592 231.177 87.4131 230.415 87.4131ZM238.958 96L235.302 86.3672H236.866L238.94 92.0801C239.409 93.416 239.685 94.2832 239.767 94.6816H239.837C239.901 94.3711 240.104 93.7295 240.443 92.7568C240.789 91.7783 241.56 89.6484 242.755 86.3672H244.319L240.663 96H238.958ZM247.325 96H245.866V86.3672H247.325V96ZM245.743 83.7568C245.743 83.4229 245.825 83.1797 245.989 83.0273C246.153 82.8691 246.358 82.79 246.604 82.79C246.839 82.79 247.041 82.8691 247.211 83.0273C247.381 83.1855 247.466 83.4287 247.466 83.7568C247.466 84.085 247.381 84.3311 247.211 84.4951C247.041 84.6533 246.839 84.7324 246.604 84.7324C246.358 84.7324 246.153 84.6533 245.989 84.4951C245.825 84.3311 245.743 84.085 245.743 83.7568ZM254.269 96.1758C252.874 96.1758 251.793 95.748 251.025 94.8926C250.264 94.0312 249.883 92.8154 249.883 91.2451C249.883 89.6338 250.27 88.3887 251.043 87.5098C251.822 86.6309 252.93 86.1914 254.365 86.1914C254.828 86.1914 255.291 86.2412 255.754 86.3408C256.217 86.4404 256.58 86.5576 256.844 86.6924L256.396 87.9316C256.073 87.8027 255.722 87.6973 255.341 87.6152C254.96 87.5273 254.623 87.4834 254.33 87.4834C252.373 87.4834 251.395 88.7314 251.395 91.2275C251.395 92.4111 251.632 93.3193 252.106 93.9521C252.587 94.585 253.296 94.9014 254.233 94.9014C255.036 94.9014 255.859 94.7285 256.703 94.3828V95.6748C256.059 96.0088 255.247 96.1758 254.269 96.1758ZM263.066 96.1758C261.643 96.1758 260.518 95.7422 259.691 94.875C258.871 94.0078 258.461 92.8037 258.461 91.2627C258.461 89.71 258.842 88.4766 259.604 87.5625C260.371 86.6484 261.399 86.1914 262.688 86.1914C263.896 86.1914 264.851 86.5898 265.554 87.3867C266.257 88.1777 266.608 89.2236 266.608 90.5244V91.4473H259.973C260.002 92.5781 260.286 93.4365 260.825 94.0225C261.37 94.6084 262.135 94.9014 263.119 94.9014C264.156 94.9014 265.182 94.6846 266.195 94.251V95.5518C265.68 95.7744 265.19 95.9326 264.728 96.0264C264.271 96.126 263.717 96.1758 263.066 96.1758ZM262.671 87.4131C261.897 87.4131 261.279 87.665 260.816 88.1689C260.359 88.6729 260.09 89.3701 260.008 90.2607H265.044C265.044 89.3408 264.839 88.6377 264.429 88.1514C264.019 87.6592 263.433 87.4131 262.671 87.4131ZM275.318 93.3721C275.318 94.2686 274.984 94.96 274.316 95.4463C273.648 95.9326 272.711 96.1758 271.504 96.1758C270.227 96.1758 269.23 95.9736 268.516 95.5693V94.2158C268.979 94.4502 269.474 94.6348 270.001 94.7695C270.534 94.9043 271.047 94.9717 271.539 94.9717C272.301 94.9717 272.887 94.8516 273.297 94.6113C273.707 94.3652 273.912 93.9932 273.912 93.4951C273.912 93.1201 273.748 92.8008 273.42 92.5371C273.098 92.2676 272.465 91.9512 271.521 91.5879C270.625 91.2539 269.986 90.9639 269.605 90.7178C269.23 90.4658 268.949 90.1816 268.762 89.8652C268.58 89.5488 268.489 89.1709 268.489 88.7314C268.489 87.9463 268.809 87.3281 269.447 86.877C270.086 86.4199 270.962 86.1914 272.075 86.1914C273.112 86.1914 274.126 86.4023 275.116 86.8242L274.598 88.0107C273.631 87.6123 272.755 87.4131 271.97 87.4131C271.278 87.4131 270.757 87.5215 270.405 87.7383C270.054 87.9551 269.878 88.2539 269.878 88.6348C269.878 88.8926 269.942 89.1123 270.071 89.2939C270.206 89.4756 270.42 89.6484 270.713 89.8125C271.006 89.9766 271.568 90.2139 272.4 90.5244C273.543 90.9404 274.313 91.3594 274.712 91.7812C275.116 92.2031 275.318 92.7334 275.318 93.3721ZM279.229 93.9082L279.361 94.1104C279.209 94.6963 278.989 95.376 278.702 96.1494C278.415 96.9287 278.116 97.6523 277.806 98.3203H276.707C276.865 97.7109 277.038 96.958 277.226 96.0615C277.419 95.165 277.554 94.4473 277.63 93.9082H279.229ZM293.38 96V89.7686C293.38 88.9834 293.201 88.3975 292.844 88.0107C292.486 87.624 291.927 87.4307 291.165 87.4307C290.157 87.4307 289.419 87.7031 288.95 88.248C288.481 88.793 288.247 89.6924 288.247 90.9463V96H286.788V86.3672H287.975L288.212 87.6855H288.282C288.581 87.2109 289 86.8447 289.539 86.5869C290.078 86.3232 290.679 86.1914 291.341 86.1914C292.501 86.1914 293.374 86.4727 293.96 87.0352C294.546 87.5918 294.839 88.4854 294.839 89.7158V96H293.38ZM303.769 96L303.479 94.6289H303.408C302.928 95.2324 302.447 95.6426 301.967 95.8594C301.492 96.0703 300.897 96.1758 300.183 96.1758C299.228 96.1758 298.478 95.9297 297.933 95.4375C297.394 94.9453 297.124 94.2451 297.124 93.3369C297.124 91.3916 298.68 90.3721 301.791 90.2783L303.426 90.2256V89.6279C303.426 88.8721 303.262 88.3154 302.934 87.958C302.611 87.5947 302.093 87.4131 301.378 87.4131C300.575 87.4131 299.667 87.6592 298.653 88.1514L298.205 87.0352C298.68 86.7773 299.198 86.5752 299.761 86.4287C300.329 86.2822 300.897 86.209 301.466 86.209C302.614 86.209 303.464 86.4639 304.015 86.9736C304.571 87.4834 304.85 88.3008 304.85 89.4258V96H303.769ZM300.473 94.9717C301.381 94.9717 302.093 94.7227 302.608 94.2246C303.13 93.7266 303.391 93.0293 303.391 92.1328V91.2627L301.932 91.3242C300.771 91.3652 299.934 91.5469 299.418 91.8691C298.908 92.1855 298.653 92.6807 298.653 93.3545C298.653 93.8818 298.812 94.2832 299.128 94.5586C299.45 94.834 299.898 94.9717 300.473 94.9717ZM310.976 94.9717C311.233 94.9717 311.482 94.9541 311.723 94.9189C311.963 94.8779 312.153 94.8369 312.294 94.7959V95.9121C312.136 95.9883 311.901 96.0498 311.591 96.0967C311.286 96.1494 311.011 96.1758 310.765 96.1758C308.901 96.1758 307.97 95.1943 307.97 93.2314V87.501H306.59V86.7979L307.97 86.1914L308.585 84.1348H309.429V86.3672H312.224V87.501H309.429V93.1699C309.429 93.75 309.566 94.1953 309.842 94.5059C310.117 94.8164 310.495 94.9717 310.976 94.9717ZM315.687 96H314.228V86.3672H315.687V96ZM314.104 83.7568C314.104 83.4229 314.187 83.1797 314.351 83.0273C314.515 82.8691 314.72 82.79 314.966 82.79C315.2 82.79 315.402 82.8691 315.572 83.0273C315.742 83.1855 315.827 83.4287 315.827 83.7568C315.827 84.085 315.742 84.3311 315.572 84.4951C315.402 84.6533 315.2 84.7324 314.966 84.7324C314.72 84.7324 314.515 84.6533 314.351 84.4951C314.187 84.3311 314.104 84.085 314.104 83.7568ZM320.89 96L317.233 86.3672H318.798L320.872 92.0801C321.341 93.416 321.616 94.2832 321.698 94.6816H321.769C321.833 94.3711 322.035 93.7295 322.375 92.7568C322.721 91.7783 323.491 89.6484 324.687 86.3672H326.251L322.595 96H320.89ZM331.867 96.1758C330.443 96.1758 329.318 95.7422 328.492 94.875C327.672 94.0078 327.262 92.8037 327.262 91.2627C327.262 89.71 327.643 88.4766 328.404 87.5625C329.172 86.6484 330.2 86.1914 331.489 86.1914C332.696 86.1914 333.651 86.5898 334.354 87.3867C335.058 88.1777 335.409 89.2236 335.409 90.5244V91.4473H328.773C328.803 92.5781 329.087 93.4365 329.626 94.0225C330.171 94.6084 330.936 94.9014 331.92 94.9014C332.957 94.9014 333.982 94.6846 334.996 94.251V95.5518C334.48 95.7744 333.991 95.9326 333.528 96.0264C333.071 96.126 332.518 96.1758 331.867 96.1758ZM331.472 87.4131C330.698 87.4131 330.08 87.665 329.617 88.1689C329.16 88.6729 328.891 89.3701 328.809 90.2607H333.845C333.845 89.3408 333.64 88.6377 333.229 88.1514C332.819 87.6592 332.233 87.4131 331.472 87.4131ZM339.364 96H337.905V82.3242H339.364V96ZM340.929 86.3672H342.493L344.603 91.8604C345.065 93.1143 345.353 94.0195 345.464 94.5762H345.534C345.61 94.2773 345.769 93.7676 346.009 93.0469C346.255 92.3203 347.052 90.0938 348.399 86.3672H349.964L345.824 97.3359C345.414 98.4199 344.934 99.1875 344.383 99.6387C343.838 100.096 343.167 100.324 342.37 100.324C341.925 100.324 341.485 100.274 341.052 100.175V99.0059C341.374 99.0762 341.734 99.1113 342.133 99.1113C343.135 99.1113 343.85 98.5488 344.277 97.4238L344.813 96.0527L340.929 86.3672Z" fill="white"/>
<g clip-path="url(#clip0_360:25)">
<path d="M74.7161 148.685C74.7161 147.123 73.4549 145.852 71.8871 145.852C70.3193 145.852 69.0504 147.117 69.0504 148.689V160.553C69.0504 162.106 70.3212 163.39 71.8928 163.39C73.453 163.39 74.7218 162.106 74.7218 160.553V148.67H74.7027L74.7161 148.685ZM42.6062 146.395L42.6138 164.795C42.6138 166.491 43.9632 167.842 45.6288 167.842H47.6662V174.129C47.6662 175.701 48.9312 176.969 50.4837 176.969C52.0362 176.969 53.2954 175.704 53.3203 174.156V167.869H57.1403V174.156C57.1403 175.733 58.4053 176.998 59.9578 176.998C61.5352 176.998 62.7983 175.733 62.7983 174.142V167.856H64.8644C66.5319 167.856 67.8793 166.495 67.8793 164.831V146.374L42.5238 146.391L42.6004 146.395H42.6062ZM61.0982 140.779C60.504 140.779 60.0248 140.3 60.0248 139.706C60.0248 139.121 60.504 138.636 61.0982 138.632C61.6923 138.632 62.1715 139.121 62.1715 139.706C62.1715 140.3 61.6923 140.779 61.0982 140.779ZM49.4832 140.779C48.889 140.779 48.4098 140.3 48.4098 139.706C48.4098 139.117 48.889 138.636 49.4832 138.636C50.0773 138.636 50.5565 139.125 50.5565 139.729C50.5565 140.332 50.1291 140.779 49.5196 140.779H49.4832ZM63.4921 131.633C63.6071 131.431 63.5189 131.199 63.3464 131.086C63.1471 131 62.9171 131.058 62.8021 131.259L60.7896 134.9C59.1259 134.124 57.2323 133.693 55.2504 133.693C53.2686 133.693 51.3826 134.105 49.7074 134.849L47.7256 131.201C47.624 131.013 47.3806 130.943 47.1928 131.048C47.0011 131.134 46.9321 131.393 47.0394 131.565L49.0136 135.159C45.1228 137.166 42.4969 140.986 42.4969 145.375H68.0423C68.0423 140.986 65.4068 137.264 61.5198 135.257L63.4921 131.633ZM38.6521 145.839C37.0862 145.839 35.8154 147.113 35.8154 148.681V160.549C35.8154 162.121 37.0881 163.386 38.6598 163.386C40.2199 163.386 41.4907 162.121 41.4907 160.549V148.685C41.4907 147.123 40.2257 145.852 38.6732 145.852L38.6521 145.839Z" fill="white"/>
</g>
<g clip-path="url(#clip1_360:25)">
<path d="M197.287 166.848C196.592 168.455 195.768 169.934 194.814 171.294C193.514 173.149 192.449 174.432 191.628 175.145C190.356 176.315 188.993 176.914 187.534 176.948C186.486 176.948 185.223 176.65 183.752 176.045C182.276 175.443 180.92 175.145 179.68 175.145C178.38 175.145 176.985 175.443 175.493 176.045C173.999 176.65 172.795 176.965 171.875 176.996C170.476 177.056 169.081 176.44 167.688 175.145C166.799 174.37 165.688 173.041 164.356 171.158C162.927 169.148 161.753 166.817 160.832 164.159C159.847 161.288 159.353 158.509 159.353 155.817C159.353 152.735 160.019 150.076 161.353 147.848C162.402 146.058 163.797 144.646 165.543 143.61C167.289 142.573 169.175 142.045 171.207 142.012C172.318 142.012 173.776 142.355 175.588 143.031C177.394 143.709 178.554 144.053 179.063 144.053C179.443 144.053 180.731 143.651 182.916 142.849C184.981 142.106 186.725 141.798 188.153 141.92C192.023 142.232 194.931 143.758 196.864 146.506C193.403 148.603 191.691 151.541 191.725 155.309C191.756 158.244 192.821 160.686 194.914 162.626C195.862 163.526 196.921 164.222 198.099 164.716C197.844 165.457 197.574 166.167 197.287 166.848ZM188.411 131.92C188.411 134.221 187.571 136.369 185.896 138.357C183.874 140.72 181.429 142.086 178.777 141.871C178.743 141.595 178.724 141.304 178.724 140.999C178.724 138.791 179.685 136.427 181.392 134.494C182.245 133.516 183.329 132.702 184.643 132.053C185.955 131.414 187.196 131.061 188.363 131C188.397 131.308 188.411 131.615 188.411 131.92V131.92Z" fill="white"/>
</g>
<g clip-path="url(#clip2_360:25)">
<path d="M299.828 135.071L281.099 137.534V153.106H299.828V135.071ZM281.099 170.557L299.828 173.223V154.894H281.099V170.557ZM301.894 155.129L301.968 173.351L326.814 176.857V155.129H301.894ZM326.814 131.143L302.042 134.697V153.023H326.814V131.143Z" fill="white"/>
</g>
<defs>
<clipPath id="clip0_360:25">
<rect width="42.1667" height="46" fill="white" transform="translate(34.186 131)"/>
</clipPath>
<clipPath id="clip1_360:25">
<rect width="38.7467" height="46" fill="white" transform="translate(159.353 131)"/>
</clipPath>
<clipPath id="clip2_360:25">
<rect width="45.7143" height="45.7143" fill="white" transform="translate(281.099 131.143)"/>
</clipPath>
</defs>
</svg>
