<svg width="1239" height="857" viewBox="0 0 1239 857" fill="none" style="background-color: #131313;" xmlns="http://www.w3.org/2000/svg">
<path d="M154.078 69.8891C151.239 71.1505 149.899 69.8891 148.638 67.6028C142.961 56.9598 137.049 46.3956 131.294 35.8314C130.704 34.667 129.838 33.6653 128.771 32.9144V70.0468L124.908 70.441V22.5079C127.667 21.483 129.086 22.6656 130.426 25.1095C136.497 36.3832 142.804 47.5781 149.741 58.773V22.429H154.078V69.8891Z" fill="white"/>
<path d="M159.833 22.5871C163.301 21.5623 165.115 22.5083 166.534 25.3464C169.372 30.8651 172.604 36.226 175.915 41.9811L185.455 25.2676C187.268 22.1141 187.268 22.1141 191.841 22.4295L189.475 26.7655C186.322 32.1265 183.247 37.5662 179.936 42.8483C178.675 44.9769 178.754 46.4748 180.015 48.5246C184.272 55.4623 188.372 62.5577 192.629 69.7318C189.475 71.1509 187.899 70.2049 186.48 67.6032C183.247 61.6904 179.7 55.9353 175.915 49.3918L170.712 58.3004C168.978 61.2963 167.007 64.2921 165.509 67.4456C164.011 70.5991 162.355 70.9932 159.044 69.9684C162.592 63.9767 165.745 57.9063 169.608 52.3088C173.471 46.7114 173.156 43.952 169.766 39.2218C166.376 34.4916 163.223 28.3423 159.833 22.5871Z" fill="white"/>
<path d="M235.438 26.5288L234.097 28.3421C229.998 27.2383 226.529 25.7404 222.902 25.3462C219.276 24.9521 216.359 27.0807 215.176 30.7072C213.994 34.3337 215.098 37.7237 218.409 39.8523C221.72 41.9809 226.214 44.1095 229.919 46.4746C234.886 49.6281 237.33 54.1219 236.462 60.0347C235.201 69.0221 226.371 73.5947 216.595 70.1258C213.994 69.2586 211.708 67.4454 208.869 65.7898C209.894 64.2919 210.604 63.3458 210.919 62.7151C214.309 64.3707 217.226 66.184 220.38 67.13C224.873 68.4702 229.682 66.2628 231.417 62.6363C232.445 60.5704 232.676 58.1981 232.065 55.9729C231.454 53.7477 230.044 51.8256 228.106 50.5742C224.243 47.9726 219.828 46.1593 215.965 43.5577C208.239 38.2756 208.554 27.5537 216.438 23.1388C222.351 19.7488 230.471 21.1679 235.438 26.5288Z" fill="white"/>
<path d="M55.1367 65.632L57.6595 62.4785L58.7632 62.8727C62.1532 64.3706 65.3856 66.578 68.8544 67.2876C70.7549 67.6041 72.7065 67.2604 74.3847 66.3138C76.0628 65.3672 77.3663 63.8746 78.0784 62.0843C78.816 60.1843 78.9309 58.0991 78.4066 56.1295C77.8824 54.1599 76.746 52.4078 75.1614 51.1259C73.1649 49.6729 71.0559 48.3811 68.8544 47.2629C66.7258 46.0015 64.5184 44.8978 62.3898 43.5575C57.896 40.6406 56.1616 36.3834 57.1077 31.1013C58.0537 25.8192 61.286 23.0598 66.0951 21.8773C70.9042 20.6947 77.3688 21.7984 82.0202 26.2922L80.4435 28.3419C76.5016 27.2382 73.1905 25.7403 69.7216 25.3461C66.2528 24.9519 62.8628 27.0017 61.6014 30.7859C60.34 34.5701 61.6802 37.7236 64.9125 39.8522C68.1449 41.9808 71.7714 43.6364 75.0826 45.6862C81.7049 49.7069 84.3065 55.3831 82.6509 61.6901C80.5223 69.5739 71.8502 73.358 62.8628 70.1257C60.2611 69.1008 57.9749 67.2876 55.1367 65.632Z" fill="white"/>
<path d="M85.9622 22.5872C89.1157 21.5623 90.8501 22.3507 92.1903 25.11C95.4226 31.7323 98.9703 38.197 102.755 45.3712C106.618 38.1182 110.244 31.5747 113.555 24.9523C114.895 22.2719 116.472 21.6412 119.468 22.6661C115.999 29.0519 112.846 35.4377 109.14 41.5082C105.435 47.5786 104.174 52.23 104.804 58.4582C105.08 61.6846 105.08 64.9287 104.804 68.1552C104.725 68.9436 103.543 69.6531 102.912 70.3626C102.124 69.6531 100.705 68.8647 100.705 68.0763C100.402 63.9306 100.376 59.7693 100.626 55.62C100.941 51.284 99.6798 47.5786 97.5512 43.8733C93.5305 36.9356 89.904 29.7614 85.9622 22.5872Z" fill="white"/>
<path d="M199.409 22.3506H202.957V70.126H199.409V22.3506Z" fill="white"/>
<g clip-path="url(#clip0_322:146)">
<path d="M373.949 45.5654C373.928 50.7835 372.879 55.9465 370.861 60.7595C368.844 65.5726 365.897 69.9415 362.189 73.6167C358.481 77.292 354.085 80.2017 349.251 82.1796C344.417 84.1576 339.241 85.165 334.018 85.1445C323.331 85.1446 313.079 80.914 305.507 73.379C297.935 65.8441 293.661 55.6188 293.619 44.9421C293.781 34.51 298.012 24.5528 305.412 17.1898C312.811 9.82677 322.795 5.6394 333.238 5.51887C343.94 5.47703 354.225 9.66304 361.851 17.1645C369.477 24.6659 373.825 34.8746 373.949 45.5654ZM357.727 45.4096C357.707 42.2451 357.06 39.1158 355.824 36.2019C354.588 33.288 352.788 30.6471 350.526 28.4312C348.264 26.2153 345.586 24.4682 342.646 23.2904C339.706 22.1126 336.562 21.5275 333.394 21.5687C330.236 21.5237 327.101 22.1225 324.182 23.3285C321.263 24.5344 318.62 26.3222 316.416 28.5826C314.212 30.843 312.492 33.5286 311.361 36.4753C310.231 39.4221 309.714 42.5681 309.841 45.7213C310.005 52.0726 312.667 58.1038 317.251 62.5079C321.834 66.9122 327.971 69.3347 334.33 69.2506C340.591 69.1684 346.565 66.6154 350.948 62.1488C355.332 57.6821 357.769 51.6646 357.727 45.4096Z" fill="white"/>
<path d="M349.148 44.9423C338.854 57.0965 331.99 59.5896 325.439 53.8242C324.208 52.7822 323.217 51.4875 322.532 50.0282C321.847 48.5689 321.484 46.9792 321.469 45.3675C321.455 43.7557 321.788 42.1597 322.446 40.6881C323.104 39.2165 324.072 37.9038 325.283 36.8394C331.678 30.9182 338.074 32.9439 349.148 44.9423Z" fill="white"/>
<path d="M386.271 36.0601H390.326L395.786 53.3564L398.593 44.6303L401.245 36.0601H405.456L408.108 44.6303L410.916 53.3564L416.375 36.0601H420.43L417.155 45.5653L412.943 58.187H408.732C407.952 55.3821 407.016 52.7331 406.08 49.9283L403.273 41.9813L397.813 58.187H393.758L390.014 47.1235L386.271 36.0601Z" fill="white"/>
<path d="M432.597 36.0599C434.323 36.0298 436.032 36.4034 437.588 37.1506C439.094 38.035 440.418 39.1985 441.488 40.5788C442.529 41.9522 443.224 43.5554 443.515 45.2535C443.515 45.7209 443.671 46.3442 443.671 47.1233C443.671 47.9025 443.515 48.3699 443.515 48.9932H425.422C425.852 50.548 426.784 51.9174 428.073 52.8888C429.37 53.8885 430.959 54.4359 432.597 54.447C434.523 54.3804 436.357 53.6032 437.744 52.2655L440.084 55.2261C439.038 56.097 437.885 56.8302 436.652 57.4077C435.357 57.9056 433.984 58.1694 432.597 58.1868C430.807 58.1812 429.043 57.7541 427.449 56.9402C425.916 56.1621 424.582 55.0426 423.55 53.6679C422.563 52.2636 421.873 50.6729 421.522 48.9932C421.522 48.3699 421.366 47.7466 421.366 47.1233C421.366 46.5 421.522 45.8768 421.522 45.2535C421.813 43.5554 422.509 41.9522 423.55 40.5788C424.619 39.1985 425.943 38.035 427.449 37.1506C429.055 36.385 430.819 36.0111 432.597 36.0599ZM432.597 39.7996C430.948 39.7458 429.338 40.3006 428.073 41.3579C426.725 42.2716 425.777 43.6649 425.422 45.2535H439.616C439.261 43.6649 438.312 42.2716 436.964 41.3579C435.747 40.3238 434.194 39.7697 432.597 39.7996Z" fill="white"/>
<path d="M455.682 58.187C453.698 58.2278 451.746 57.686 450.067 56.6288C448.475 55.6593 447.138 54.3236 446.167 52.7332C445.109 51.0561 444.567 49.1057 444.608 47.1236V28.4248H448.351V38.7091C449.402 37.8872 450.555 37.2062 451.783 36.6834C453.033 36.2372 454.355 36.0259 455.682 36.0601C457.643 36.0436 459.575 36.5262 461.297 37.4626C462.942 38.4846 464.33 39.8708 465.353 41.514C466.29 43.2344 466.773 45.165 466.757 47.1236C466.79 49.0347 466.305 50.9192 465.353 52.5774C464.375 54.2558 462.977 55.6517 461.297 56.6288C459.619 57.686 457.666 58.2278 455.682 58.187ZM455.682 54.4473C456.978 54.4169 458.245 54.0577 459.364 53.4035C460.482 52.7492 461.416 51.8215 462.077 50.7075C462.698 49.6154 463.021 48.3795 463.013 47.1236C463.034 45.8167 462.711 44.5273 462.077 43.3838C461.444 42.2816 460.529 41.3674 459.426 40.7348C458.281 40.1018 456.99 39.7794 455.682 39.7999C454.376 39.7934 453.088 40.1149 451.939 40.7348C450.883 41.3772 450.021 42.2925 449.443 43.3838C448.688 44.4819 448.306 45.7925 448.351 47.1236C448.328 48.4033 448.71 49.6576 449.443 50.7075C449.976 51.8303 450.849 52.757 451.939 53.3565C453.047 54.0913 454.352 54.4717 455.682 54.4473Z" fill="white"/>
<path d="M467.848 36.06H471.592V38.709C472.573 37.7987 473.728 37.0951 474.988 36.64C476.247 36.1849 477.586 35.9877 478.923 36.06V39.7997C477.615 39.7793 476.324 40.1016 475.179 40.7347C474.076 41.3672 473.161 42.2815 472.528 43.3837C471.894 44.5272 471.571 45.8166 471.592 47.1234V58.1869H467.848V36.06Z" fill="white"/>
<path d="M490.933 36.0599C492.711 36.0111 494.475 36.385 496.08 37.1506C497.54 38.0385 498.812 39.2031 499.824 40.5788C500.927 41.915 501.63 43.5355 501.852 45.2535C501.995 45.8657 502.048 46.4958 502.007 47.1233C502.033 47.7507 501.98 48.3787 501.852 48.9932H483.914C484.341 50.5102 485.209 51.8662 486.41 52.8888C487.722 53.8596 489.301 54.4037 490.933 54.447C491.957 54.4793 492.973 54.2656 493.897 53.8237C494.745 53.4154 495.533 52.891 496.236 52.2655L498.576 55.2261C497.53 56.097 496.377 56.8302 495.144 57.4077C493.791 57.891 492.369 58.1541 490.933 58.1868C489.205 58.157 487.506 57.7347 485.966 56.9518C484.425 56.1688 483.084 55.0458 482.042 53.6679C480.99 52.3009 480.294 50.6948 480.014 48.9932C480.014 48.3699 479.858 47.7466 479.858 47.1233C479.833 46.496 479.886 45.868 480.014 45.2535C480.236 43.5355 480.939 41.915 482.042 40.5788C483.112 39.1985 484.435 38.035 485.942 37.1506C487.498 36.4034 489.207 36.0298 490.933 36.0599ZM490.933 39.7996C489.289 39.7738 487.688 40.3252 486.41 41.3579C485.151 42.3284 484.269 43.7054 483.914 45.2535H498.108C497.7 43.6883 496.763 42.3121 495.456 41.3579C494.192 40.3006 492.581 39.7458 490.933 39.7996Z" fill="white"/>
<path d="M503.099 36.0601H525.248V39.7998L508.403 54.4472H525.248V58.187H503.099V54.4472L519.789 39.7998H503.099V36.0601Z" fill="white"/>
<path d="M537.259 36.0601C539.22 36.0435 541.152 36.5261 542.874 37.4625C544.554 38.4395 545.952 39.8355 546.93 41.5139C547.915 43.2224 548.452 45.1521 548.49 47.1235C548.475 49.0493 547.936 50.9348 546.93 52.5773C545.937 54.2644 544.525 55.6671 542.831 56.6498C541.137 57.6325 539.218 58.162 537.259 58.187C535.923 58.1679 534.601 57.9038 533.36 57.4078C532.133 56.9799 531.015 56.2884 530.084 55.3821V65.6665H526.185V47.1235C526.178 45.1459 526.718 43.2049 527.744 41.5139C528.767 39.8707 530.155 38.4845 531.8 37.4625C533.465 36.5257 535.348 36.0421 537.259 36.0601ZM537.259 39.7998C535.995 39.7953 534.753 40.1244 533.657 40.7538C532.562 41.3831 531.652 42.2904 531.02 43.3837C530.386 44.5272 530.064 45.8166 530.084 47.1235C530.076 48.3794 530.399 49.6153 531.02 50.7074C531.611 51.8412 532.537 52.766 533.672 53.3564C534.723 54.0884 535.978 54.4701 537.259 54.4472C538.555 54.4168 539.822 54.0576 540.941 53.4034C542.059 52.7492 542.993 51.8214 543.654 50.7074C544.275 49.6153 544.598 48.3794 544.59 47.1235C544.611 45.8166 544.288 44.5272 543.654 43.3837C543.021 42.2815 542.106 41.3673 541.003 40.7348C539.858 40.1017 538.567 39.7793 537.259 39.7998Z" fill="white"/>
<path d="M549.425 36.0602H553.169V38.7092C554.197 37.8547 555.355 37.1707 556.6 36.6835C557.851 36.2373 559.173 36.0259 560.5 36.0602V39.8C559.192 39.7795 557.901 40.1019 556.756 40.7349C555.688 41.4118 554.782 42.3164 554.105 43.3839C553.471 44.5274 553.148 45.8168 553.169 47.1237V58.1871H549.425V36.0602Z" fill="white"/>
<path d="M572.667 36.0597C574.578 36.0418 576.46 36.5253 578.126 37.4621C579.806 38.4392 581.203 39.8352 582.181 41.5135C583.167 43.222 583.703 45.1518 583.741 47.1232C583.727 49.0489 583.188 50.9344 582.181 52.577C581.248 54.2892 579.84 55.696 578.126 56.6284C576.503 57.6818 574.601 58.2246 572.667 58.1866C570.68 58.2464 568.722 57.7031 567.051 56.6284C565.337 55.696 563.929 54.2892 562.996 52.577C561.989 50.9344 561.45 49.0489 561.436 47.1232C561.474 45.1518 562.011 43.222 562.996 41.5135C563.974 39.8352 565.371 38.4392 567.051 37.4621C568.766 36.5056 570.703 36.0216 572.667 36.0597ZM572.667 39.7995C571.358 39.779 570.068 40.1014 568.923 40.7344C567.82 41.367 566.905 42.2812 566.271 43.3834C565.638 44.5269 565.315 45.8163 565.336 47.1232C565.328 48.3791 565.651 49.615 566.271 50.7071C566.932 51.8211 567.866 52.7488 568.985 53.403C570.104 54.0572 571.371 54.4164 572.667 54.4468C573.948 54.4697 575.203 54.088 576.254 53.3561C577.389 52.7656 578.315 51.8408 578.906 50.7071C579.527 49.615 579.849 48.3791 579.842 47.1232C579.862 45.8163 579.539 44.5269 578.906 43.3834C578.274 42.29 577.364 41.3827 576.268 40.7534C575.173 40.1241 573.93 39.795 572.667 39.7995Z" fill="white"/>
</g>
<path d="M661.001 45.4635C663.13 40.1025 664.47 34.3474 667.624 29.6172C670.41 25.2991 674.026 21.5765 678.261 18.6649C682.496 15.7533 687.266 13.7105 692.296 12.6547C697.325 11.5989 702.514 11.5511 707.563 12.514C712.611 13.477 717.418 15.4315 721.706 18.2646C725.096 20.472 725.49 20.3932 729.511 15.5053L735.581 22.2853L731.639 26.4637C733.532 30.169 735.818 33.7167 737.237 37.5009C745.199 59.5753 733.374 81.8863 710.038 88.9817C709.418 89.2658 708.813 89.5816 708.225 89.9277H693.246C693.009 89.6912 692.773 89.2182 692.536 89.1393C679.055 86.3012 669.831 78.3386 664.234 66.04C662.814 62.9654 662.026 59.5753 661.001 56.343V45.4635ZM717.922 26.9367C707.358 17.9493 687.569 18.58 676.69 32.5342C667.072 44.9116 668.097 62.177 679.607 72.6623C693.403 85.2763 710.905 83.3054 722.81 71.0068C734.714 58.7081 731.797 39.866 724.386 33.8744L700.814 57.6833L681.184 37.5009L687.648 31.5881C691.905 36.1607 696.005 40.4179 699.947 44.5174L717.922 26.9367Z" fill="white"/>
<path d="M1068.43 59.2069L1071.03 56.5264C1071.9 55.5804 1073.64 54.5555 1073.56 53.6883C1072.93 47.1448 1072.06 40.6801 1071.11 33.3483L1060.86 57.236C1060.27 58.2885 1059.56 59.2676 1058.74 60.153C1057.87 59.2069 1056.61 58.3397 1056.13 57.236C1052.9 50.2983 1049.83 43.3606 1046.75 36.3441C1046.44 35.7134 1046.04 35.0827 1045.02 33.4271C1044.15 40.9166 1043.28 47.2236 1042.81 53.6095C1042.73 54.5555 1044.39 55.6592 1045.33 56.6053L1048.01 59.0492L1047.38 59.9953H1032.48L1035.32 56.6053C1036.19 55.5804 1037.77 54.7132 1037.92 53.6883C1039.18 44.7797 1040.13 35.7922 1041.23 26.8836C1041.25 26.3273 1041.2 25.7708 1041.08 25.228C1038.79 24.9127 1035.87 25.228 1037.29 21.6015L1037.84 21.2862C1046.83 21.2073 1046.75 21.2862 1050.38 29.7218C1053.14 36.2652 1056.06 42.7299 1059.37 50.2983C1062.05 43.8336 1064.33 38.1573 1066.62 32.5599C1067.96 29.3276 1069.14 26.0952 1070.48 22.9417C1070.7 22.5605 1070.99 22.2297 1071.35 21.9713C1071.7 21.713 1072.1 21.5332 1072.53 21.4438C1073.68 21.2206 1074.85 21.1939 1076 21.365C1077.66 21.6015 1079.31 22.1534 1080.97 22.5476C1079.73 23.3056 1078.57 24.1765 1077.5 25.1492C1076.73 26.0477 1076.34 27.2031 1076.4 28.3815C1077.34 36.5806 1078.37 44.7008 1079.71 52.8211C1079.94 54.2402 1081.6 55.4227 1082.54 56.6053L1085.38 60.0741H1069.22L1068.43 59.2069Z" fill="white"/>
<path d="M957.508 58.2873C957.508 62.308 957.43 65.1461 957.508 67.9843C957.587 70.8224 958.297 71.9261 960.977 72.3203C961.923 72.478 962.712 73.8182 963.579 74.6066C963.343 74.8762 963.132 75.1665 962.948 75.4738H946.235L945.604 74.4489C946.757 73.7323 947.863 72.9423 948.915 72.0838C949.861 71.2166 951.438 70.1129 951.438 69.088C951.674 57.0259 951.596 44.8849 951.596 32.6652L946.787 31.1673C947.811 28.2503 953.015 25.7275 957.43 26.0428V55.8433L958.376 56.3952L970.753 45.0426C969.413 42.5987 964.604 44.4908 966.181 39.997H982.342C981.002 41.6526 980.371 42.8352 979.425 43.5447C978.479 44.2542 975.72 45.5156 974.222 46.8559C970.753 49.8517 967.521 53.084 964.131 56.3164L985.338 74.7643C978.085 77.6024 974.853 73.1087 971.068 69.9552C967.284 66.8017 962.633 62.781 957.508 58.2873Z" fill="white"/>
<path d="M1013.56 44.1488C1013.56 46.2775 1013.72 48.0119 1013.56 49.6675C1013.17 53.767 1013.64 56.9205 1019 56.7628C1019.71 56.7628 1020.42 58.4184 1021.68 59.9951H1002.05L1001.11 59.2856C1001.89 58.4184 1002.68 56.9205 1003.55 56.7628C1006.55 56.3686 1007.33 54.9496 1007.25 52.0326C1007.1 44.3854 1007.18 36.7381 1007.25 29.0909C1007.33 26.4105 1006.78 24.8337 1003.71 24.8337C1002.92 24.8337 1002.21 23.5723 1001.42 22.9416C1002.29 22.3898 1003.16 21.4437 1004.02 21.4437C1010.41 21.286 1016.87 21.2072 1023.26 21.4437C1029.64 21.6802 1035.01 26.8046 1034.77 32.4021C1034.53 37.9995 1029.41 44.07 1023.1 44.1488H1013.56ZM1013.4 24.7549V39.8916C1016.4 39.8916 1019.08 39.9705 1021.76 39.8916C1026.33 39.734 1027.99 38.1572 1028.38 33.9788C1028.78 29.8005 1027.04 26.647 1023.1 25.8586C1019.16 25.0702 1016.72 25.0702 1013.4 24.7549Z" fill="white"/>
<path d="M843.164 51.5603C842.77 38.5521 852.467 32.4028 861.691 32.324C870.915 32.2451 879.035 38.4733 879.271 50.0624C879.508 61.6515 871.072 69.4563 860.35 69.3775C849.628 69.2987 842.454 61.9668 843.164 51.5603ZM861.533 64.9626C863.267 64.5684 865.081 64.4108 866.657 63.7012C872.334 61.0208 873.122 55.9752 872.964 50.6142C872.807 45.2533 870.836 40.6019 865.711 38.3156C857.749 34.6891 850.811 38.7098 849.392 47.3031C847.658 58.3403 854.753 65.4356 861.533 64.9626Z" fill="white"/>
<path d="M1087.12 46.672C1087.83 47.6969 1088.85 48.6429 1089.32 49.8255C1091.69 55.7383 1097.68 58.4188 1102.88 55.4229C1103.81 54.8359 1104.6 54.0505 1105.18 53.1235C1105.77 52.1964 1106.14 51.1508 1106.27 50.062C1106.35 48.4064 1104.7 45.9625 1103.12 45.0952C1099.34 42.9666 1095.08 41.6264 1091.06 39.7343C1087.04 37.8422 1085.62 34.058 1086.17 30.0373C1086.72 26.0166 1089.64 22.2324 1094.37 21.2075C1099.25 20.0003 1104.4 20.7652 1108.72 23.3361C1110.53 24.4399 1111.87 31.8506 1110.22 33.1908C1108.56 34.531 1107.46 33.112 1106.83 31.3776C1104.78 26.0166 1102.49 24.2822 1097.21 25.1494C1096.07 25.417 1094.99 25.9198 1094.06 26.6257C1093.12 27.3316 1092.34 28.225 1091.77 29.2489C1090.51 32.0083 1092.24 34.4522 1095.24 35.6348C1098.23 36.8173 1102.49 38.3152 1106.04 39.9708C1109.59 41.6264 1112.82 46.5143 1112.03 51.4811C1111.24 56.4478 1107.22 59.759 1102.88 60.0743C1098.85 60.2579 1094.81 60.0467 1090.82 59.4436C1087.27 58.9706 1085.22 56.9997 1085.78 53.0578C1085.96 51.1185 1085.99 49.1674 1085.86 47.2239L1087.12 46.672Z" fill="white"/>
<path d="M922.183 46.2488C921.394 39.1534 919.029 36.7883 913.747 36.7883C908.465 36.7883 903.183 41.6762 902.789 46.643C902.552 49.3234 902.394 52.2404 903.104 54.7632C905.706 64.8544 916.822 67.5349 924.548 60.2818C925.415 59.4146 926.913 59.2569 928.174 58.8628C927.859 60.0453 927.938 61.4644 927.307 62.4893C923.286 68.7963 916.191 71.0037 908.071 68.7963C901.921 67.1407 897.27 60.3607 896.797 53.5018C896.009 42.8588 901.685 34.3444 913.905 32.4523C918.793 31.6639 925.888 34.5809 927.386 38.6804C927.938 40.336 927.859 42.7011 926.992 44.0413C926.124 45.3816 924.075 45.4604 922.183 46.2488Z" fill="white"/>
<path d="M783.304 45.5633C782.043 39.1774 779.993 37.0488 775.105 36.8123C770.217 36.5758 765.408 39.887 763.989 44.3807C762.505 48.8614 762.787 53.7397 764.777 58.0196C768.325 65.3514 779.283 66.4552 785.512 60.3058C786.484 59.4767 787.65 58.9071 788.902 58.6503C787.167 65.8245 782.437 69.3721 775.105 69.6875C771.658 69.8843 768.234 69.0033 765.31 67.1669C762.386 65.3304 760.106 62.6295 758.786 59.4386C754.213 48.7168 759.338 33.9742 775.263 32.3974C781.254 31.7667 787.325 35.2356 788.429 39.8081C789.532 44.3807 787.246 45.6421 783.304 45.5633Z" fill="white"/>
<path d="M813.63 33.2691L806.85 31.4559C810.386 28.57 814.635 26.6908 819.149 26.0161V30.5887C819.149 43.2026 819.228 55.8166 819.149 68.4306C819.07 70.9534 819.622 72.5301 822.46 72.9243C823.485 73.082 824.273 74.3434 825.219 75.0529L824.668 76.3143H809.452C808.821 76.3143 808.112 75.4471 807.481 75.0529C806.85 74.6587 808.506 73.2397 809.058 73.1608C813.788 72.6878 813.63 69.3766 813.63 66.0655V33.2691Z" fill="white"/>
<path d="M1134.81 22.1533L1139.54 22.3898V38.2361H1155.15C1155.23 39.8917 1155.31 41.1531 1155.39 42.7299H1139.86V58.7338H1134.89V42.8087H1118.65V38.3938H1134.81V22.1533Z" fill="white"/>
<g clip-path="url(#clip1_322:146)">
<path d="M145.714 298.005C148.041 279.123 152.145 278.849 129.021 278.028C118.622 277.618 108.223 278.713 97.8242 278.986C87.4251 279.26 87.0146 281.039 88.5198 290.069C90.0249 299.1 86.8778 302.658 78.1207 303.068C76.6423 302.913 75.2521 302.29 74.1527 301.289C66.9007 294.585 68.4058 283.365 77.5734 277.755C80.5837 275.839 81.8151 274.06 81.9519 270.366C82.0233 265.014 83.7621 259.819 86.9259 255.502C90.0898 251.185 94.5213 247.963 99.603 246.284C111.507 242.316 122.18 245.6 129.979 254.904C130.667 255.687 131.507 256.321 132.448 256.768C133.389 257.215 134.411 257.465 135.452 257.504C150.093 257.778 155.566 262.703 157.892 277.207C158.397 279.212 159.676 280.935 161.45 281.996C166.923 285.28 168.155 290.343 167.197 296.09C166.239 301.837 161.997 304.3 155.977 301.974L145.714 298.005Z" fill="white"/>
<path d="M472.189 310.184C467.537 309.226 463.843 308.268 460.011 307.721C458.742 307.627 457.469 307.863 456.317 308.405C447.56 311.689 440.445 309.773 435.519 302.795C432.722 298.934 431.263 294.266 431.361 289.499C431.46 284.733 433.112 280.129 436.066 276.387C441.813 269.546 448.381 268.177 457.275 272.008L460.285 272.966V257.915H472.189V310.184ZM444.002 289.659C444.139 295.954 447.423 299.922 452.075 299.922C456.728 299.922 460.285 295.406 460.285 289.933C460.285 284.46 457.275 280.766 451.802 280.766C446.328 280.766 443.729 284.597 444.002 289.659Z" fill="white"/>
<path d="M351.506 309.363V257.915H362.452V272.966C376.272 268.04 384.208 270.367 389.271 280.492C392.965 287.881 391.871 298.28 386.124 304.574C380.377 310.868 373.535 310.594 366.147 308.131C364.915 307.721 363.273 308.816 361.905 308.816L351.506 309.363ZM379.145 289.796C379.145 284.323 376.956 280.902 370.799 280.766C364.641 280.629 362.589 283.913 362.452 289.933C362.315 295.954 366.283 300.469 371.072 299.785C375.862 299.101 379.282 295.543 379.145 289.796Z" fill="white"/>
<path d="M431.004 286.923L419.236 291.712L408.016 296.638C413.079 301.563 414.447 301.427 422.931 295.406C423.889 296.364 425.12 297.322 426.078 298.416C427.198 299.537 428.249 300.725 429.225 301.974C426.668 305.59 422.988 308.261 418.757 309.573C414.527 310.884 409.981 310.762 405.827 309.226C396.66 305.668 391.597 296.638 392.828 286.239C393.786 278.029 401.585 270.366 410.069 269.409C418.552 268.451 426.488 274.608 431.004 286.923ZM416.363 283.912C416.34 282.904 416.248 281.898 416.089 280.902C413.216 280.902 409.795 280.081 407.332 281.176C404.869 282.27 404.322 285.554 402.817 287.881L404.596 289.249L416.363 283.912Z" fill="white"/>
<path d="M339.054 275.429V258.325C342.886 257.367 345.896 256.409 345.896 261.609V310.183L337.139 306.626C325.508 313.604 318.94 310.32 313.194 304.436C307.447 298.553 306.489 285.964 311.825 278.576C317.162 271.187 325.371 269.682 339.054 275.429ZM339.191 291.027C339.191 283.912 333.307 276.934 327.15 276.934C320.993 276.934 314.699 283.228 314.699 290.48C314.699 297.732 320.309 304.026 327.15 303.889C330.429 303.713 333.513 302.276 335.757 299.879C338.001 297.482 339.231 294.31 339.191 291.027Z" fill="white"/>
<path d="M473.558 305.121L479.031 296.5C484.504 298.142 489.02 303.068 496.135 298.005L486.146 294.174C478.621 291.164 475.2 286.375 476.431 280.491C477.309 277.074 479.447 274.116 482.418 272.212C485.388 270.308 488.969 269.599 492.44 270.229C496.545 270.776 500.513 272.555 504.481 273.65C502.155 282.954 502.155 282.817 494.219 280.491C492.234 280.074 490.222 279.8 488.199 279.67C488.062 280.354 487.788 280.902 487.651 281.586C488.621 282.424 489.676 283.157 490.798 283.775L497.093 286.375C504.618 289.796 507.902 294.585 506.26 300.058C504.071 307.583 497.64 311.278 489.293 309.636C484.367 308.678 479.578 306.899 473.558 305.121Z" fill="white"/>
<path d="M65.5322 318.256C86.7408 292.122 157.892 295.953 171.165 318.12C120.264 305.942 115.065 305.942 65.5322 318.256Z" fill="white"/>
<path d="M213.445 297.184L217.823 300.879C213.034 307.173 206.74 309.772 199.625 310.457C194.048 310.837 188.506 309.329 183.889 306.177C179.273 303.025 175.851 298.412 174.175 293.079C170.48 280.765 174.859 267.903 184.711 262.156C196.615 255.314 207.835 256.956 217.413 266.945C217.177 267.537 216.854 268.09 216.455 268.587L213.582 271.187C199.625 262.566 191.278 262.84 183.89 271.871C176.501 280.901 178.69 291.574 185.121 298.005C191.552 304.436 201.951 306.078 213.445 297.184Z" fill="white"/>
<path d="M269.818 290.617C269.872 294.504 268.768 298.319 266.645 301.575C264.522 304.832 261.477 307.382 257.899 308.901C254.321 310.42 250.371 310.839 246.554 310.104C242.737 309.369 239.225 307.513 236.467 304.774C233.708 302.035 231.828 298.537 231.066 294.725C230.304 290.913 230.695 286.961 232.189 283.372C233.682 279.783 236.211 276.72 239.453 274.574C242.694 272.429 246.501 271.297 250.388 271.324C261.608 271.461 269.818 279.67 269.818 290.617ZM250.115 304.3C256.409 304.3 262.977 297.595 263.113 291.027C263.25 284.459 256.272 276.934 249.978 276.934C243.684 276.934 236.979 284.049 237.39 291.027C237.8 298.005 243.82 304.436 250.115 304.3Z" fill="white"/>
<path d="M273.376 272.966C278.165 271.324 280.218 272.966 279.944 278.029C279.67 283.091 279.944 288.428 279.944 293.627C279.944 298.827 281.997 303.342 288.291 303.889C294.585 304.437 298.69 300.195 299.1 294.038C299.511 287.88 299.1 280.081 299.1 273.103L301.426 271.734C302.931 273.239 305.668 274.745 305.668 276.25C306.079 285.144 305.942 293.901 305.942 302.795C305.942 304.573 305.668 306.352 305.531 309.773L298.69 307.447C293.627 308.131 289.249 309.362 285.007 309.362C278.439 309.362 274.06 305.531 273.513 299.1C272.966 292.669 273.376 281.997 273.376 272.966Z" fill="white"/>
<path d="M221.928 258.188C226.717 256.683 228.359 258.188 228.222 262.567C228.085 276.523 228.085 290.48 228.222 304.573C228.359 308.952 226.58 310.183 221.928 308.815V258.188Z" fill="white"/>
<path d="M518.985 305.669C516.796 307.721 515.291 310.047 513.785 310.184C512.28 310.321 509.133 307.584 509.407 306.763C509.653 305.679 510.137 304.662 510.823 303.787C511.509 302.911 512.381 302.199 513.375 301.701C514.47 301.29 516.522 303.89 518.985 305.669Z" fill="white"/>
</g>
<g clip-path="url(#clip2_322:146)">
<path d="M826.28 220.492C823.407 232.943 820.26 244.711 817.934 256.615C817.109 260.765 817.392 265.06 818.755 269.066C822.586 279.328 827.238 289.454 831.753 300.263C803.019 306.147 781.127 322.703 760.055 341.175L777.569 318.599C770.864 313.536 764.57 308.747 758.276 304.231C751.982 299.716 752.392 296.843 756.908 292.601C761.423 288.359 768.401 280.834 774.969 276.318C777.979 274.129 783.59 273.855 787.284 275.087C796.725 278.234 805.893 282.749 815.06 286.854C816.976 287.675 818.618 289.18 820.944 290.001C815.197 272.761 808.903 255.931 792.757 244.437L815.471 225.691C798.504 225.554 785.916 235.68 772.096 242.658C758.276 249.636 752.94 266.603 744.319 282.612C734.741 244.984 705.186 234.175 675.357 223.502L674.126 225.144L697.524 244.163C682.746 254.836 676.042 269.887 669.747 287.265L688.903 279.055L695.745 275.908C705.323 272.077 714.217 270.571 721.469 280.97C724.616 285.486 729.268 289.043 733.373 292.875C737.478 296.706 737.067 300.263 732.689 303.547C726.121 308.336 719.69 313.262 712.849 318.462L729.816 340.765C708.881 322.703 687.262 306.147 658.527 300.537C662.632 290.548 667.011 281.107 670.295 271.392C671.954 266.37 672.468 261.04 671.8 255.794C669.884 244.026 666.874 232.396 663.864 218.576C672.484 220.355 680.146 221.176 687.262 223.502C697.934 226.786 708.06 228.154 719.416 224.597C738.709 218.85 758.276 220.629 777.706 225.965C782.413 227.175 787.344 227.222 792.073 226.102C803.293 223.913 813.692 217.892 826.28 220.492Z" fill="white"/>
<path d="M753.624 335.565C753.572 336.794 753.274 338 752.747 339.111C752.22 340.222 751.474 341.216 750.555 342.033C749.636 342.85 748.561 343.474 747.396 343.867C746.231 344.261 744.998 344.415 743.772 344.323C738.709 343.912 734.605 339.807 734.878 335.155C735.562 327.219 741.72 330.503 745.825 330.092C749.929 329.682 754.034 329.408 753.624 335.565Z" fill="white"/>
</g>
<g clip-path="url(#clip3_322:146)">
<path d="M971.295 281.108C971.377 261.163 977.371 241.69 988.519 225.152C999.667 208.614 1015.47 195.753 1033.93 188.196C1052.38 180.638 1072.67 178.724 1092.21 182.694C1111.76 186.665 1129.69 196.343 1143.73 210.503C1157.78 224.663 1167.31 242.671 1171.12 262.248C1174.93 281.825 1172.85 302.093 1165.15 320.489C1157.44 338.884 1144.45 354.581 1127.82 365.594C1111.19 376.608 1091.67 382.443 1071.73 382.362C1058.48 382.326 1045.37 379.676 1033.15 374.565C1020.92 369.454 1009.83 361.981 1000.5 352.575C991.171 343.169 983.789 332.015 978.778 319.751C973.766 307.488 971.223 294.356 971.295 281.108ZM1160.12 281.655C1160.12 232.67 1120.71 192.853 1072.14 192.716C1048.68 192.752 1026.2 202.095 1009.63 218.694C993.055 235.292 983.747 257.789 983.747 281.245C983.747 330.503 1022.74 369.773 1071.73 369.773C1083.34 369.864 1094.85 367.649 1105.6 363.256C1116.35 358.863 1126.11 352.38 1134.34 344.183C1142.56 335.986 1149.07 326.238 1153.5 315.505C1157.92 304.771 1160.17 293.265 1160.12 281.655Z" fill="white"/>
<path d="M1081.72 263.593H1061.33C1062.67 266.413 1063.77 269.343 1064.61 272.35C1065.02 275.086 1065.16 278.507 1063.93 280.696C1062.7 282.886 1057.77 281.928 1057.09 280.97C1056.4 280.012 1055.04 274.813 1056.13 272.76C1059.96 265.098 1059.69 258.12 1056.27 250.457C1055.17 248.268 1055.72 244.437 1056.95 242.247C1058.18 240.058 1063.24 241.153 1063.93 242.247C1064.61 243.342 1065.02 247.857 1064.61 250.594C1064.2 253.331 1062.56 255.52 1061.06 259.077H1081.44C1080.21 255.793 1078.71 253.194 1078.43 250.457C1078.16 247.721 1078.16 244.3 1079.53 242.247C1080.9 240.195 1085.68 241.29 1086.37 242.384C1087.05 243.479 1088.15 248.405 1087.05 250.457C1083.91 256.341 1083.91 266.877 1087.05 272.624C1088.15 274.676 1087.6 278.507 1086.37 280.696C1085.14 282.886 1080.21 281.928 1079.53 280.833C1078.84 279.739 1078.02 275.36 1078.43 272.624C1078.84 269.887 1080.35 267.287 1081.72 263.593Z" fill="white"/>
<path d="M1021.79 302.452C1022.56 302.749 1023.23 303.274 1023.7 303.958C1024.04 304.45 1024.28 305.01 1024.39 305.6C1024.52 306.551 1024.57 307.513 1024.52 308.473V317.23H1020.55V308.199C1020.6 307.535 1020.46 306.871 1020.14 306.284C1019.87 305.463 1019.19 305.189 1018.09 305.189C1017.67 305.15 1017.26 305.217 1016.87 305.385C1016.49 305.552 1016.16 305.815 1015.9 306.147C1015.31 307.035 1015.02 308.091 1015.08 309.157V317.23H1011.11V297.253H1015.08V304.231C1015.58 303.502 1016.23 302.894 1017 302.452C1017.73 302.126 1018.52 301.941 1019.32 301.905C1020.17 301.927 1021.01 302.113 1021.79 302.452Z" fill="white"/>
<path d="M1040.53 315.315C1039.83 316.136 1038.94 316.777 1037.94 317.182C1036.94 317.587 1035.86 317.744 1034.78 317.641C1033.73 317.733 1032.67 317.57 1031.69 317.165C1030.72 316.76 1029.85 316.125 1029.17 315.315C1027.92 313.766 1027.25 311.832 1027.26 309.841C1027.23 307.806 1027.9 305.822 1029.17 304.231C1029.87 303.446 1030.74 302.829 1031.71 302.426C1032.68 302.023 1033.73 301.845 1034.78 301.905C1035.86 301.824 1036.93 301.992 1037.93 302.395C1038.93 302.799 1039.82 303.427 1040.53 304.231C1041.8 305.822 1042.48 307.806 1042.45 309.841C1042.46 311.832 1041.78 313.766 1040.53 315.315ZM1037.38 313.262C1038.08 312.265 1038.42 311.058 1038.34 309.841C1038.46 308.622 1038.12 307.402 1037.38 306.421C1037.1 306.005 1036.71 305.672 1036.25 305.456C1035.79 305.24 1035.29 305.148 1034.78 305.189C1034.28 305.173 1033.79 305.276 1033.34 305.49C1032.88 305.705 1032.49 306.023 1032.18 306.421C1031.5 307.427 1031.17 308.627 1031.23 309.841C1031.21 311.05 1031.54 312.237 1032.18 313.262C1032.49 313.659 1032.88 313.978 1033.34 314.192C1033.79 314.406 1034.28 314.51 1034.78 314.494C1035.29 314.535 1035.79 314.443 1036.25 314.227C1036.71 314.01 1037.1 313.678 1037.38 313.262Z" fill="white"/>
<path d="M1043.68 305.189V302.453H1045.73V298.348H1049.56V302.453H1052.02V305.189H1049.56V313.125C1049.53 313.51 1049.63 313.894 1049.84 314.22C1050.25 314.458 1050.73 314.554 1051.2 314.494H1052.02V317.367H1050.11C1049.46 317.478 1048.8 317.449 1048.16 317.284C1047.52 317.119 1046.93 316.821 1046.41 316.409C1045.93 315.84 1045.68 315.104 1045.73 314.357V305.189H1043.68Z" fill="white"/>
<path d="M1064.07 302.589C1065.11 303.084 1066 303.838 1066.67 304.779C1067.35 305.696 1067.78 306.784 1067.9 307.926C1068.02 308.878 1068.07 309.839 1068.03 310.799H1057.22C1057.17 311.41 1057.28 312.025 1057.55 312.579C1057.81 313.133 1058.22 313.605 1058.73 313.946C1059.39 314.337 1060.15 314.527 1060.92 314.493C1061.71 314.563 1062.5 314.317 1063.11 313.809C1063.44 313.577 1063.68 313.239 1063.79 312.852H1067.76C1067.63 313.892 1067.14 314.856 1066.39 315.588C1065.64 316.288 1064.76 316.831 1063.79 317.184C1062.83 317.536 1061.81 317.692 1060.78 317.641C1058.89 317.686 1057.05 317.055 1055.58 315.862C1054.77 315.127 1054.13 314.213 1053.73 313.193C1053.33 312.172 1053.16 311.072 1053.26 309.978C1053.18 308.888 1053.32 307.795 1053.68 306.761C1054.03 305.727 1054.58 304.774 1055.31 303.958C1056.01 303.272 1056.85 302.736 1057.77 302.383C1058.68 302.03 1059.66 301.868 1060.64 301.905C1061.82 301.909 1062.98 302.141 1064.07 302.589ZM1058.32 306.01C1057.76 306.661 1057.42 307.477 1057.36 308.336H1063.93C1063.96 307.901 1063.88 307.466 1063.72 307.063C1063.55 306.66 1063.3 306.3 1062.97 306.01C1062.32 305.457 1061.5 305.164 1060.64 305.189C1059.79 305.15 1058.96 305.444 1058.32 306.01Z" fill="white"/>
<path d="M1073.92 317.231H1070.09V297.117H1073.92V317.231Z" fill="white"/>
<path d="M1076.24 305.189V302.453H1078.3V298.348H1082.13V302.453H1084.45V305.189H1082.13V313.125C1082.13 313.673 1082.13 314.083 1082.26 314.22C1082.74 314.434 1083.25 314.528 1083.77 314.494H1084.45V317.367H1082.67C1082 317.489 1081.32 317.467 1080.66 317.301C1080 317.136 1079.38 316.832 1078.84 316.409C1078.41 315.82 1078.21 315.086 1078.3 314.357V305.189H1076.24Z" fill="white"/>
<path d="M1091.02 300.537H1087.05V296.979H1091.02V300.537ZM1087.05 302.316H1091.02V317.23H1087.05V302.316Z" fill="white"/>
<path d="M1113.19 302.452C1113.86 302.734 1114.47 303.153 1114.97 303.684C1115.38 304.254 1115.66 304.908 1115.79 305.599C1115.92 306.322 1115.96 307.056 1115.92 307.789V317.23H1111.96V307.789C1111.94 307.276 1111.85 306.768 1111.68 306.284C1111.5 305.951 1111.21 305.683 1110.87 305.512C1110.53 305.341 1110.15 305.276 1109.77 305.326C1109.3 305.269 1108.83 305.374 1108.43 305.623C1108.03 305.872 1107.73 306.25 1107.58 306.694C1107.28 307.188 1107.14 307.76 1107.17 308.336V317.23H1103.34V308.336C1103.34 307.687 1103.25 307.041 1103.06 306.42C1102.89 306.063 1102.62 305.766 1102.28 305.57C1101.94 305.374 1101.54 305.288 1101.15 305.326C1100.71 305.269 1100.27 305.344 1099.88 305.539C1099.49 305.734 1099.17 306.041 1098.96 306.42C1098.66 306.965 1098.52 307.58 1098.55 308.199V317.23H1094.72V302.316H1098.41V304.505L1099.78 302.863C1100.63 302.306 1101.63 302.02 1102.65 302.042C1103.65 302.022 1104.64 302.257 1105.53 302.726C1106.06 303.226 1106.48 303.832 1106.76 304.505C1107.21 303.708 1107.88 303.047 1108.67 302.589C1109.48 302.201 1110.37 302.014 1111.27 302.042C1111.93 302.032 1112.59 302.173 1113.19 302.452Z" fill="white"/>
<path d="M1129.2 302.589C1130.21 303.122 1131.1 303.869 1131.8 304.778C1132.38 305.736 1132.76 306.81 1132.89 307.925C1133.02 308.877 1133.07 309.839 1133.03 310.799H1122.22C1122.19 311.407 1122.31 312.012 1122.58 312.561C1122.84 313.11 1123.23 313.586 1123.72 313.946C1124.39 314.336 1125.15 314.526 1125.91 314.493C1126.31 314.536 1126.7 314.497 1127.08 314.379C1127.46 314.261 1127.8 314.067 1128.1 313.809C1128.44 313.551 1128.72 313.225 1128.92 312.851H1132.89C1132.63 313.878 1132.11 314.82 1131.39 315.588C1130.65 316.302 1129.76 316.853 1128.8 317.206C1127.83 317.56 1126.8 317.707 1125.78 317.64C1123.89 317.685 1122.04 317.055 1120.58 315.861C1119.07 314.63 1118.39 312.714 1118.39 309.978C1118.31 308.888 1118.45 307.794 1118.81 306.761C1119.16 305.727 1119.71 304.774 1120.44 303.957C1121.11 303.268 1121.92 302.729 1122.82 302.376C1123.72 302.022 1124.68 301.862 1125.64 301.905C1126.86 301.908 1128.06 302.14 1129.2 302.589ZM1123.31 306.01C1122.75 306.661 1122.41 307.477 1122.36 308.336H1129.06C1129.07 307.89 1128.98 307.447 1128.79 307.044C1128.6 306.64 1128.32 306.286 1127.97 306.01C1127.31 305.476 1126.49 305.185 1125.64 305.185C1124.79 305.185 1123.97 305.476 1123.31 306.01Z" fill="white"/>
</g>
<g clip-path="url(#clip4_322:146)">
<path d="M177.866 520.365C177.393 512.797 171.244 508.54 161.311 508.421H134.23C134.23 520.365 133.994 531.245 134.467 542.006C134.585 543.898 137.423 545.554 139.079 547.209L141.68 545.554V515.517C149.367 515.517 156.107 514.925 162.611 515.753C165.568 516.226 168.051 519.656 170.771 521.784C167.933 523.913 165.331 526.988 162.257 527.697C159.182 528.407 152.914 528.052 147.356 528.052C158.354 542.597 165.804 547.209 175.738 544.489L163.203 534.911C173.373 533.61 178.339 529.116 177.866 520.365Z" fill="white"/>
<path d="M199.744 512.442C192.885 523.44 186.026 534.437 179.286 545.435L181.296 547.091C194.777 542.479 195.487 526.396 205.657 517.763C208.377 522.73 211.215 527.697 214.762 533.964H197.734L196.906 536.093C199.507 537.512 201.991 539.759 204.711 539.995C211.688 540.823 219.256 538.458 224.223 546.145C224.814 547.091 228.125 546.263 231.082 546.263C223.868 534.437 217.246 523.321 210.269 512.442C207.076 507.475 203.292 506.647 199.744 512.442Z" fill="white"/>
<path d="M117.201 510.077C107.376 508.559 97.3881 508.4 87.5192 509.604C77.8222 510.905 71.5546 520.365 72.5006 529.234C73.4467 538.104 81.0151 546.263 92.1311 546.618H101.237C105.258 546.618 109.16 546.855 113.062 546.618C122.405 546.027 129.264 539.759 130.446 531.008C131.629 522.257 126.662 511.614 117.201 510.077ZM112.708 539.877C108.923 540.705 104.785 540.35 100.527 540.469C96.2701 540.587 92.9589 540.705 89.1747 539.759C82.5524 538.222 78.4134 533.728 79.0047 526.751C79.596 519.774 83.8532 515.753 90.8303 515.398C97.8074 515.044 104.193 515.162 110.816 515.28C117.438 515.398 122.168 519.064 122.878 526.16C123.587 533.255 119.685 538.222 112.708 539.877Z" fill="white"/>
<path d="M282.287 540.705V508.894L279.685 507.83C278.384 509.84 276.019 511.733 275.901 513.743C275.428 522.494 275.782 531.245 275.664 539.996C275.546 545.199 278.148 546.855 282.996 546.618C290.919 546.382 298.842 546.855 306.765 546.382C309.367 546.263 311.851 544.371 314.452 543.307L313.743 540.705H282.287Z" fill="white"/>
<path d="M337.63 540.587C331.244 540.587 325.45 539.641 322.494 532.782C333.255 528.17 345.908 536.566 354.304 527.106L353.95 524.031H322.73L322.02 521.193C325.686 519.301 329.234 516.463 333.137 515.753C337.039 515.044 343.543 515.99 348.628 515.28C351.703 514.925 354.541 512.56 357.497 511.141L356.433 508.54C348.273 508.54 339.995 507.83 331.954 508.776C323.913 509.722 316.699 514.452 314.925 523.913C313.151 533.373 316.581 542.361 324.504 544.253C332.427 546.145 344.253 545.672 354.186 545.908C355.132 545.908 356.078 543.307 357.852 540.587H337.63Z" fill="white"/>
<path d="M248.584 515.517C253.432 515.517 258.399 515.99 263.129 515.281C265.968 514.926 268.451 512.561 271.053 511.142L269.87 508.54C262.065 508.54 254.26 507.949 246.455 508.658C232.738 509.841 224.814 522.258 229.426 534.675C234.038 547.091 261.119 552.295 269.633 544.135C270.225 543.662 270.225 542.48 270.816 540.587C262.42 540.587 255.206 540.824 247.874 540.469C240.543 540.114 234.038 534.083 234.866 527.106C235.694 520.129 240.661 515.399 248.584 515.517Z" fill="white"/>
</g>
<g clip-path="url(#clip5_322:146)">
<path d="M542.923 499.434C552.62 497.779 552.62 497.779 556.877 505.583C561.135 513.388 567.047 524.386 572.842 534.911C578.282 524.741 583.603 515.754 588.097 506.411C591.172 500.025 595.074 496.951 602.642 499.434V554.423H590.344V529.471L589.161 529.116C585.259 536.212 581.593 543.307 577.572 550.284C576.508 552.176 574.497 554.423 572.842 554.541C571.186 554.66 569.176 552.295 568.112 550.521C564.091 543.544 560.307 536.448 555.103 529.589V554.541H542.923V499.434Z" fill="white"/>
<path d="M694.172 528.406C690.98 537.276 688.614 544.608 685.54 551.821C684.948 553.24 682.229 554.659 680.455 554.659C678.681 554.659 674.778 553.713 674.305 552.294C667.801 534.911 661.77 517.527 655.148 498.842C659.642 498.842 663.308 498.488 666.737 499.079C668.156 499.197 669.575 501.444 670.166 502.981C673.596 511.851 676.671 520.956 680.336 531.008C683.884 521.075 686.841 512.205 690.27 503.573C690.98 501.681 692.99 500.38 694.409 498.842C695.71 500.38 697.484 501.681 698.193 503.336C701.386 511.969 704.342 520.602 708.718 529.353C711.083 522.494 713.566 515.753 716.05 508.894C720.07 497.896 720.07 497.896 732.96 499.315C730.595 506.174 728.23 512.915 725.865 519.537C722.199 530.062 718.297 540.469 714.867 551.112C713.803 554.423 711.911 555.014 708.836 554.896C705.762 554.778 703.278 555.014 702.096 551.112C700.085 544.016 697.247 537.157 694.172 528.406Z" fill="white"/>
<path d="M492.664 499.079H533.817V554.186C529.56 552.413 525.066 551.821 525.421 546.027C525.421 545.199 524.357 544.253 523.884 543.425L519.863 546.855C514.542 540.942 509.575 544.844 504.372 548.155C499.168 551.466 496.922 552.294 492.664 554.659V499.079Z" fill="white"/>
<path d="M624.638 544.135H652.428V554.541H611.748V499.197H652.547V509.84H624.638V520.365H646.634V531.245H624.638V544.135Z" fill="white"/>
<path d="M775.178 512.916C770.211 514.571 765.363 519.301 760.987 511.733C760.159 510.314 757.676 509.486 755.784 509.131C753.892 508.777 747.624 508.067 746.323 512.443C745.023 516.818 749.516 518.001 752.828 519.183C756.139 520.366 762.998 522.021 767.846 524.15C770.147 525.136 772.174 526.665 773.754 528.606C775.335 530.547 776.421 532.842 776.921 535.295C777.421 537.747 777.319 540.284 776.624 542.689C775.929 545.094 774.662 547.294 772.931 549.102C765.717 556.67 756.375 557.262 746.678 554.897C736.981 552.531 732.606 547.092 730.004 537.986L741.002 534.202C743.485 540.942 747.743 545.081 754.956 545.081C758.74 545.081 762.761 544.727 763.825 540.115C764.89 535.503 760.987 534.083 757.676 532.901C754.365 531.718 747.979 529.945 743.249 528.052C738.519 526.16 733.079 520.721 733.197 513.625C733.315 506.53 737.454 502.273 743.84 499.553C756.612 494.349 770.921 500.144 775.178 512.916Z" fill="white"/>
</g>
<g clip-path="url(#clip6_322:146)">
<path d="M920.277 568.614V576.183C920.277 583.987 919.923 584.342 911.408 582.568V535.621L921.223 538.577C924.889 535.621 930.447 533.61 936.242 536.922C942.036 540.233 943.101 545.909 943.219 552.058C943.301 554.551 943.143 557.046 942.746 559.508C940.499 570.506 931.985 574.054 920.277 568.614ZM920.396 553.477H920.277V555.843C920.159 560.336 922.879 562.701 926.9 563.293C930.92 563.884 932.576 560.336 933.049 557.025C933.644 554.202 933.522 551.275 932.694 548.511C931.866 546.5 928.792 543.426 927.373 543.78C925.954 544.135 922.524 546.855 920.514 548.984C918.504 551.112 920.396 551.94 920.396 553.477Z" fill="white"/>
<path d="M986.737 571.571C975.858 571.334 969.827 564.594 970.182 553.241C970.536 541.888 977.395 535.266 988.275 535.384C999.154 535.503 1005.3 542.243 1005.07 553.359C1004.83 564.475 997.853 571.807 986.737 571.571ZM995.134 554.305C995.015 552.413 995.015 551.467 994.897 550.403C994.661 546.264 992.768 543.308 988.393 542.953C984.018 542.598 980.943 545.2 980.47 549.693C979.997 554.187 979.76 556.197 980.943 558.799C982.125 561.401 984.964 563.411 987.21 563.529C989.457 563.648 992.295 561.401 994.069 559.509C995.843 557.616 995.015 555.488 995.134 554.305Z" fill="white"/>
<path d="M1039.6 556.079C1040.78 564.83 1043.03 565.539 1058.99 562.465C1060.77 566.722 1060.06 569.56 1054.97 570.506C1053.43 570.743 1051.9 571.216 1050.36 571.334C1043.5 571.925 1036.52 571.689 1032.62 565.185C1028.72 558.681 1028.6 550.166 1032.38 542.834C1036.17 535.502 1043.5 533.847 1051.31 536.094C1059.11 538.341 1061.48 543.307 1061.59 550.639C1061.59 554.187 1060.29 556.197 1056.51 556.079H1039.6ZM1052.13 549.338C1052.01 544.608 1050.12 541.888 1045.51 542.243C1040.9 542.598 1039.72 545.318 1039.72 549.338H1052.13Z" fill="white"/>
<path d="M1010.15 528.762C1017.72 526.397 1018.31 526.751 1019.61 535.621C1021.86 537.749 1028.01 533.965 1027.06 540.114C1026.71 542.125 1022.92 543.544 1020.68 545.318L1019.26 544.372C1019.26 549.457 1018.67 554.778 1019.49 559.863C1019.85 561.637 1023.51 563.056 1026.12 564.12C1028.72 565.185 1028.13 569.56 1024.11 570.979C1020.09 572.398 1012.28 570.506 1010.62 565.894C1010.09 564.254 1009.85 562.533 1009.92 560.809C1009.8 550.876 1009.92 540.942 1009.92 531.009C1009.93 530.254 1010.01 529.503 1010.15 528.762Z" fill="white"/>
<path d="M1075.67 569.915C1067.51 571.925 1066.68 571.334 1066.68 563.647C1066.68 551.349 1066.8 539.05 1066.68 526.751C1066.68 523.204 1066.91 520.839 1071.53 520.957C1076.14 521.075 1076.26 523.085 1076.14 526.397C1076.02 540.233 1076.14 554.187 1076.14 568.023C1076.07 568.672 1075.91 569.308 1075.67 569.915Z" fill="white"/>
<path d="M957.174 537.867C961.076 537.158 964.624 535.857 967.817 536.33C968.881 536.448 969.472 540.942 970.3 543.662C958.829 545.554 958.12 546.264 958.12 556.907V570.388H948.777C948.777 559.745 948.659 549.575 948.896 539.287C949.047 538.629 949.366 538.022 949.822 537.524C950.278 537.027 950.855 536.656 951.497 536.448C953.626 536.448 955.636 537.513 957.174 537.867Z" fill="white"/>
<path d="M1110.91 496.597L1094.59 518.592C1092.93 508.422 1088.91 501.327 1080.87 496.597H1110.91Z" fill="white"/>
<path d="M1112.92 494.113C1111.14 483.824 1107.48 476.729 1099.44 472.235H1129.12L1112.92 494.113Z" fill="white"/>
<path d="M1131.96 517.41C1131.01 508.304 1126.87 501.445 1118.95 496.715H1148.63C1143.19 504.165 1138.22 510.669 1133.37 517.173L1131.96 517.41Z" fill="white"/>
<path d="M1101.56 521.312H1131.01L1114.81 543.071C1113.03 533.137 1109.49 525.924 1101.56 521.312Z" fill="white"/>
<path d="M1150.29 494.113C1148.39 483.943 1144.85 476.847 1136.69 472.235H1166.13L1150.29 494.113Z" fill="white"/>
</g>
<path fill-rule="evenodd" clip-rule="evenodd" d="M175.783 810.968C175.783 811.182 175.794 811.329 175.833 811.389C175.869 811.446 175.935 811.467 176.069 811.473L176.338 811.49V811.659C175.791 811.638 175.243 811.638 174.696 811.659V811.49L174.965 811.473C175.101 811.467 175.167 811.446 175.2 811.389C175.239 811.329 175.251 811.181 175.251 810.968V808.452C175.251 808.238 175.239 808.091 175.2 808.031C175.167 807.975 175.101 807.958 174.965 807.947L174.735 807.93V807.761C175.033 807.766 175.358 807.778 175.689 807.778C176.02 807.778 176.344 807.766 176.671 807.761C177.567 807.744 177.803 808.199 177.803 808.602C177.803 809.213 177.253 809.578 176.71 809.684L177.983 811.346C178.067 811.457 178.189 811.48 178.324 811.49V811.659C178.18 811.654 178.05 811.642 177.919 811.642C177.791 811.642 177.669 811.654 177.539 811.659C177.467 811.554 177.382 811.457 177.309 811.357L176.277 809.97C176.188 809.848 176.08 809.742 175.985 809.624L176.019 809.557C176.171 809.568 176.344 809.563 176.513 809.535C176.906 809.469 177.243 809.164 177.243 808.75C177.243 808.143 176.793 807.976 176.357 807.976C176.104 807.976 175.941 808.004 175.783 808.043V810.968Z" fill="white"/>
<path fill-rule="evenodd" clip-rule="evenodd" d="M176.424 813.837C177.513 813.837 178.54 813.412 179.31 812.641C180.08 811.87 180.506 810.846 180.506 809.754C180.507 809.218 180.402 808.688 180.197 808.192C179.992 807.697 179.69 807.248 179.31 806.87C178.932 806.49 178.482 806.188 177.987 805.983C177.491 805.778 176.96 805.673 176.424 805.674C175.342 805.676 174.305 806.106 173.54 806.871C172.775 807.636 172.345 808.673 172.343 809.754C172.343 810.846 172.768 811.871 173.539 812.641C174.31 813.411 175.333 813.837 176.424 813.837ZM173.144 809.754C173.144 808.878 173.485 808.054 174.105 807.436C174.723 806.817 175.548 806.475 176.424 806.475C177.299 806.475 178.124 806.816 178.743 807.436C179.049 807.74 179.291 808.101 179.456 808.499C179.621 808.897 179.705 809.324 179.703 809.754C179.703 810.624 179.357 811.458 178.742 812.073C178.127 812.688 177.293 813.034 176.424 813.034C175.993 813.036 175.566 812.951 175.168 812.787C174.77 812.622 174.409 812.38 174.105 812.074C173.799 811.771 173.557 811.409 173.392 811.011C173.227 810.613 173.142 810.186 173.144 809.754ZM14.4177 820.608C14.4177 821.256 14.4519 821.697 14.5707 821.886C14.6724 822.057 14.8768 822.123 15.2854 822.14L16.1018 822.193V822.703C15.2798 822.67 14.4572 822.653 13.6346 822.651C12.801 822.651 12.0008 822.67 11.116 822.703V822.193L11.9324 822.14C12.341 822.123 12.5454 822.057 12.6471 821.886C12.7659 821.698 12.8001 821.256 12.8001 820.608V816.814C12.3299 816.787 11.8588 816.776 11.3878 816.781H7.40839C6.65947 816.781 6.20042 816.798 5.99608 816.814V820.608C5.99608 821.256 6.03029 821.697 6.15004 821.886C6.25174 822.057 6.45608 822.123 6.86381 822.14L7.68021 822.193V822.703C6.85819 822.67 6.03562 822.653 5.21294 822.651C4.37942 822.651 3.57917 822.67 2.69434 822.703V822.193L3.51074 822.14C3.91942 822.123 4.12376 822.057 4.22545 821.886C4.34426 821.698 4.37847 821.256 4.37847 820.608V812.97C4.37847 812.323 4.34426 811.881 4.22545 811.692C4.12376 811.523 3.91942 811.455 3.51074 811.438L2.69434 811.385V810.877C3.57917 810.91 4.37847 810.927 5.21294 810.927C5.99513 810.927 6.79538 810.91 7.68021 810.877V811.385L6.86381 811.438C6.45513 811.455 6.25174 811.523 6.15004 811.692C6.03029 811.88 5.99608 812.323 5.99608 812.97V816C6.20042 816.017 6.65947 816.033 7.40839 816.033H11.3897C12.1386 816.033 12.5977 816.016 12.802 816V812.97C12.802 812.323 12.7678 811.881 12.649 811.692C12.5473 811.523 12.3429 811.455 11.9343 811.438L11.1179 811.385V810.877C12.0027 810.91 12.802 810.927 13.6365 810.927C14.4187 810.927 15.2189 810.91 16.1037 810.877V811.385L15.2873 811.438C14.8787 811.455 14.6743 811.523 14.5726 811.692C14.4538 811.88 14.4196 812.323 14.4196 812.97V820.608H14.4177ZM24.6765 816.798C24.6765 813.293 27.1267 810.589 31.0737 810.589C34.7148 810.589 37.3008 812.63 37.3008 816.406C37.3008 820.066 34.4429 822.993 30.7164 822.993C27.2635 822.992 24.6765 820.608 24.6765 816.798ZM26.4975 816.169C26.4975 819.146 27.8927 822.278 31.261 822.278C34.1027 822.278 35.4808 820.066 35.4808 816.936C35.4808 813.567 33.9668 811.304 30.8019 811.304C27.8414 811.303 26.4975 813.378 26.4975 816.169ZM61.6163 820.608C61.6163 821.256 61.6505 821.697 61.7702 821.886C61.8719 822.057 62.0763 822.123 62.484 822.14L63.3004 822.193V822.703C62.4784 822.67 61.6558 822.653 60.8331 822.651C59.9996 822.651 59.2003 822.67 58.554 822.703V822.193L59.1319 822.14C59.5406 822.107 59.7449 822.057 59.8466 821.886C59.9654 821.698 59.9996 821.256 59.9996 820.608V812.884H59.9654C59.7107 813.344 59.4721 813.819 59.2516 814.28L56.2227 820.711C55.8995 821.408 55.6096 822.158 55.3036 822.873H54.9643L50.2512 812.884H50.217V820.608C50.217 821.256 50.2512 821.697 50.37 821.886C50.4717 822.057 50.676 822.106 51.0847 822.14L51.8336 822.193V822.703C51.0847 822.686 50.4717 822.651 49.7921 822.651C49.1791 822.651 48.4986 822.686 47.8181 822.703V822.193L48.5671 822.14C48.9757 822.107 49.1801 822.057 49.2818 821.886C49.4006 821.698 49.4348 821.256 49.4348 820.608V812.97C49.4348 812.323 49.4006 811.881 49.2818 811.692C49.1801 811.523 48.9757 811.472 48.5671 811.438L47.8181 811.385V810.877C48.3456 810.894 48.8902 810.927 49.4348 810.927C49.9794 810.927 50.524 810.894 51.0514 810.877L55.5441 820.336L60.0015 810.877C60.5461 810.894 61.0736 810.927 61.6182 810.927C62.1627 810.927 62.7073 810.894 63.2006 810.877V811.385L62.4859 811.438C62.0772 811.471 61.8729 811.523 61.7721 811.692C61.6524 811.88 61.6182 812.323 61.6182 812.97V820.608H61.6163ZM74.5467 812.97C74.5467 812.323 74.5124 811.881 74.3936 811.692C74.2919 811.523 74.0876 811.455 73.6789 811.438L72.8625 811.385V810.877C73.7977 810.894 74.7681 810.927 75.7375 810.927C77.2183 810.927 78.7836 810.877 79.753 810.877C80.5191 810.877 81.2841 810.894 81.9485 810.927C81.7613 811.675 81.6757 812.647 81.6757 813.513H81.0807V812.409C81.0807 812.187 81.0637 811.998 80.9277 811.949C80.0258 811.61 78.6819 811.591 77.5927 811.591C77.1327 811.591 76.6404 811.61 76.1633 811.729V816.271C76.7079 816.304 77.32 816.323 78.1373 816.323C79.1752 816.323 79.754 816.254 79.9412 816.136C80.0258 816.067 80.06 815.915 80.0771 815.692L80.1617 814.808H80.6721C80.655 815.505 80.6208 816.152 80.6208 816.781C80.6208 817.41 80.655 818.058 80.6721 818.67H80.1617L80.0771 817.666C80.06 817.445 80.0258 817.29 79.9412 817.241C79.754 817.103 79.1752 817.037 78.1373 817.037C77.3209 817.037 76.6908 817.037 76.1633 817.087V821.852C76.6395 821.971 77.1327 821.988 77.5927 821.988C78.9879 821.988 80.7234 821.936 81.0294 821.768C81.2851 821.63 81.5056 820.882 81.6244 819.861H82.2194C82.0397 820.78 81.9487 821.715 81.9475 822.652C81.1986 822.671 79.8547 822.72 78.5954 822.704C77.2858 822.687 75.9409 822.652 74.8859 822.652C74.2397 822.652 73.678 822.687 73.065 822.704V822.194L73.678 822.141C74.0867 822.108 74.291 822.058 74.3927 821.887C74.5115 821.699 74.5457 821.257 74.5457 820.609V812.97H74.5467ZM97.1589 813.412C97.1589 812.765 97.1418 812.222 97.0905 811.711H94.455C93.9446 811.711 93.8068 811.863 93.7735 812.272L93.7051 813.616H93.1776C93.1776 812.697 93.1444 811.762 93.0588 810.878C94.2839 810.878 95.509 810.928 96.7341 810.928H99.2014C100.426 810.928 101.652 810.878 102.877 810.878C102.791 811.762 102.758 812.697 102.758 813.616H102.228L102.162 812.272C102.127 811.863 101.991 811.711 101.48 811.711H98.8431C98.7927 812.222 98.7765 812.765 98.7765 813.412V820.608C98.7765 821.256 98.8098 821.697 98.9286 821.886C99.0303 822.057 99.2346 822.123 99.6433 822.14L100.46 822.193V822.703C99.6377 822.67 98.8151 822.652 97.9924 822.651C97.1589 822.651 96.3587 822.67 95.4738 822.703V822.193L96.2921 822.14C96.6989 822.123 96.9033 822.057 97.005 821.886C97.1257 821.698 97.1589 821.256 97.1589 820.608V813.412ZM116.723 820.608C116.723 821.256 116.756 821.697 116.877 821.886C116.979 822.057 117.181 822.123 117.592 822.14L118.408 822.193V822.703C117.586 822.67 116.762 822.653 115.939 822.651C115.106 822.651 114.305 822.67 113.422 822.703V822.193L114.239 822.14C114.648 822.123 114.852 822.057 114.954 821.886C115.072 821.698 115.106 821.256 115.106 820.608V812.97C115.106 812.323 115.072 811.881 114.954 811.692C114.852 811.523 114.648 811.455 114.239 811.438L113.422 811.385V810.877C114.261 810.91 115.1 810.927 115.939 810.927C116.722 810.927 117.523 810.91 118.408 810.877V811.385L117.592 811.438C117.181 811.455 116.979 811.523 116.877 811.692C116.756 811.88 116.723 812.323 116.723 812.97V820.608ZM144.084 820.608C144.084 821.256 144.119 821.697 144.238 821.886C144.339 822.057 144.544 822.123 144.952 822.14L145.769 822.193V822.703C144.947 822.67 144.124 822.653 143.302 822.651C142.466 822.651 141.668 822.67 141.021 822.703V822.193L141.599 822.14C142.008 822.107 142.212 822.057 142.314 821.886C142.433 821.698 142.466 821.256 142.466 820.608V812.884H142.433C142.178 813.344 141.939 813.819 141.718 814.28L138.69 820.711C138.367 821.408 138.077 822.158 137.771 822.873H137.431L132.718 812.884H132.684V820.608C132.684 821.256 132.718 821.697 132.838 821.886C132.938 822.057 133.144 822.106 133.551 822.14L134.301 822.193V822.703C133.551 822.686 132.938 822.651 132.26 822.651C131.647 822.651 130.966 822.686 130.287 822.703V822.193L131.035 822.14C131.443 822.107 131.648 822.057 131.749 821.886C131.868 821.698 131.901 821.256 131.901 820.608V812.97C131.901 812.323 131.868 811.881 131.749 811.692C131.648 811.523 131.443 811.472 131.035 811.438L130.287 811.385V810.877C130.814 810.894 131.358 810.927 131.901 810.927C132.447 810.927 132.991 810.894 133.518 810.877L138.011 820.336L142.467 810.877C143.013 810.894 143.54 810.927 144.084 810.927C144.629 810.927 145.173 810.894 145.667 810.877V811.385L144.952 811.438C144.544 811.471 144.339 811.523 144.238 811.692C144.119 811.88 144.084 812.323 144.084 812.97V820.608ZM158.035 812.97C158.035 812.323 158.002 811.881 157.881 811.692C157.781 811.523 157.577 811.455 157.168 811.438L156.35 811.385V810.877C157.287 810.894 158.256 810.927 159.227 810.927C160.707 810.927 162.271 810.877 163.242 810.877C164.007 810.877 164.773 810.894 165.437 810.927C165.251 811.675 165.166 812.647 165.166 813.513H164.57V812.409C164.57 812.187 164.553 811.998 164.416 811.949C163.514 811.61 162.17 811.591 161.082 811.591C160.622 811.591 160.128 811.61 159.653 811.729V816.271C160.196 816.304 160.809 816.323 161.626 816.323C162.663 816.323 163.242 816.254 163.429 816.136C163.513 816.067 163.548 815.915 163.565 815.692L163.651 814.808H164.161C164.144 815.505 164.109 816.152 164.109 816.781C164.109 817.41 164.144 818.058 164.161 818.67H163.651L163.565 817.666C163.548 817.445 163.513 817.29 163.429 817.241C163.242 817.103 162.662 817.037 161.626 817.037C160.809 817.037 160.18 817.037 159.653 817.087V821.852C160.128 821.971 160.622 821.988 161.082 821.988C162.476 821.988 164.212 821.936 164.518 821.768C164.774 821.63 164.995 820.882 165.114 819.861H165.71C165.538 820.678 165.437 821.733 165.437 822.652C164.689 822.671 163.345 822.72 162.087 822.704C160.776 822.687 159.432 822.724 158.376 822.724C157.73 822.724 157.169 822.687 156.557 822.704V822.194L157.17 822.141C157.579 822.108 157.783 822.058 157.883 821.887C158.004 821.699 158.037 821.257 158.037 820.609V812.97H158.035ZM56.1656 758.451L56.2559 758.397C63.1759 751.419 72.5185 746.913 82.8428 746.513L82.8571 746.476L82.8438 706.75C61.3958 707.018 41.9484 715.896 27.6902 730.048L27.7862 730.071L56.1656 758.451ZM80.9021 708.669L80.9125 744.662L80.9059 744.682C71.4388 745.487 62.8442 749.577 56.1713 755.774L56.1134 755.687L30.2288 729.837C44.0916 716.803 61.9033 709.366 80.9021 708.669ZM110.826 758.968C103.754 752.206 94.5329 748.455 84.7313 748.358L84.7418 785.137L110.826 758.968ZM86.6758 750.354V750.374C94.5107 750.853 101.976 753.874 107.939 758.979L86.6863 780.32L86.6758 750.375L86.6625 750.374L86.6758 750.354ZM54.8731 759.806L26.3758 731.309L26.3853 731.37C12.3135 745.986 3.6343 765.875 3.6343 787.595H44.0554L44.1258 787.632C44.1258 777.066 48.2202 767.229 54.9054 759.824L54.8731 759.806ZM42.2202 785.762L42.2402 785.766H5.51707L5.52752 785.762C5.96376 766.567 13.2487 748.003 26.2152 733.891L52.2442 759.929L52.248 759.924L52.2775 759.963L52.2442 759.93C46.3469 767.042 42.6441 776.061 42.2202 785.762ZM84.7313 748.352L84.7199 748.357L84.7313 748.358V748.352Z" fill="white"/>
<path fill-rule="evenodd" clip-rule="evenodd" d="M112.087 757.582L112.137 757.627L140.025 729.706C125.148 715.096 105.565 706.969 84.7199 706.747L84.7313 746.475L84.7199 746.485C94.9977 746.578 104.665 750.503 112.087 757.582ZM86.6606 708.665C105.66 709.332 123.481 716.74 137.361 729.744L112.076 755.002L112.021 754.89C104.927 748.698 96.0802 745.106 86.6597 744.599L86.673 744.598L86.6606 708.665ZM55.9555 760.933C49.5203 768.102 45.998 778.005 45.998 787.632L82.6156 787.621L55.9365 760.87L55.9555 760.933ZM56.1333 763.747L78.0869 785.766L78.0261 785.765L47.934 785.766L47.9911 785.763C48.3798 777.89 51.2063 769.938 56.1048 763.771L56.1333 763.747ZM141.338 731.024L113.42 758.914C120.612 766.434 124.565 776.291 124.565 787.638H164.117C164.055 766.828 155.995 746.11 141.338 731.024ZM116.16 759.028L116.065 759.115L141.383 733.797C154.408 747.941 161.727 766.725 162.218 785.763L126.449 785.765L126.474 785.763C126.087 775.403 122.476 766.275 116.16 759.028ZM82.8409 748.385C73.1619 748.756 64.1168 752.558 57.2301 759.445L82.8513 785.13L82.8694 785.076L82.857 748.351L82.8409 748.385ZM80.9039 780.447L60.0366 759.606L60.0167 759.623L60.0252 759.596L60.0366 759.606C65.8731 754.358 73.1314 751.185 80.9077 750.461L80.9135 750.418L80.922 780.384L80.9039 780.447ZM113.377 758.956L113.42 758.914L113.402 758.896L113.377 758.956Z" fill="white"/>
<path fill-rule="evenodd" clip-rule="evenodd" d="M84.6565 787.638H122.691C122.691 776.782 118.928 767.387 112.077 760.22L84.6565 787.638ZM89.3487 785.765L112.067 763.108L112.066 763.109C117.313 769.262 120.329 777.03 120.705 785.831L89.3487 785.765Z" fill="white"/>
<g clip-path="url(#clip7_322:146)">
<path d="M347.968 763.608C352.383 751.625 357.902 746.974 370.043 745.082C369.649 748.472 369.57 751.231 365.391 752.729C355.852 756.04 351.989 764.318 355.852 771.965C358.059 776.222 361.844 778.745 366.337 780.164C380.134 784.737 392.038 780.716 402.839 771.965L405.835 769.285C406.492 770.003 407.098 770.767 407.648 771.571C408.2 772.438 408.673 773.305 409.146 774.173C398.03 787.181 377.453 791.911 362.08 785.21C354.748 782.056 350.176 776.538 347.968 769.048V763.608Z" fill="white"/>
<path d="M482.701 749.733L479.627 752.492C475.212 751.073 471.27 749.181 467.17 748.708C460.469 747.998 454.714 750.679 451.403 756.828C448.092 762.978 448.565 768.417 452.27 773.778C455.975 779.139 462.361 781.504 469.22 780.637C476.079 779.77 476.237 778.903 476.237 772.517V764.554H482.307C482.307 769.679 482.386 774.724 482.228 779.77C482.153 780.266 481.974 780.74 481.702 781.161C481.43 781.582 481.072 781.941 480.651 782.214C473.162 788.127 458.577 787.732 450.851 781.504C443.125 775.276 440.76 763.608 445.569 754.227C452.191 741.376 472.61 738.617 482.701 749.733Z" fill="white"/>
<path d="M421.839 757.143C417.66 754.069 416.005 751.782 416.951 747.525C418.212 741.691 416.399 736.33 411.117 732.861C405.835 729.393 400.001 730.26 394.955 733.729C383.682 741.612 379.897 752.886 380.686 766.052C380.843 768.969 381.474 771.886 381.868 774.803C375.955 776.222 375.561 775.907 374.773 770.309C372.565 755.724 376.034 742.953 386.599 732.388C391.25 727.816 396.69 724.584 403.549 724.505C414.192 724.347 423.179 732.546 423.416 743.031C423.494 747.446 422.469 751.94 421.839 757.143Z" fill="white"/>
<path d="M384.628 794.906C389.279 792.699 392.117 792.384 395.428 795.301C400.08 799.4 405.914 800.583 411.748 797.35C417.582 794.118 419.553 788.678 418.449 781.898C416.163 767.55 407.254 758.641 394.167 753.359L391.565 752.492L389.358 751.704C390.462 745.948 391.171 745.475 396.374 747.604C411.196 753.438 421.445 763.45 424.283 779.533C426.175 790.019 422.627 798.375 414.901 802.79C407.175 807.205 397.872 805.707 389.91 798.927C388.412 797.666 386.835 796.562 384.628 794.906Z" fill="white"/>
<path d="M705.811 777.247L708.649 780.558C705.732 786.865 693.118 787.653 686.969 784.342C679.558 780.322 676.404 771.334 679.794 763.135C683.184 754.936 691.462 751.546 699.898 753.99C708.334 756.434 712.039 763.529 710.541 771.807H685.313C686.101 780.952 696.193 783.633 705.811 777.247ZM684.919 767.156H704.865C703.603 761.558 700.135 758.563 695.168 758.405C690.201 758.247 686.338 761.322 684.919 767.156Z" fill="white"/>
<path d="M544.037 753.833C536.074 751.625 527.56 755.567 524.485 762.82C521.41 770.073 523.933 779.691 530.713 783.87C537.493 788.048 549.713 787.181 553.34 780.716L550.501 777.484C540.331 783.397 530.398 780.795 530.004 771.965H555.232C556.414 762.978 551.92 756.04 544.037 753.833ZM530.083 767.235C529.767 762.583 533.394 758.957 538.834 758.563C544.273 758.169 548.846 761.716 549.161 767.235H530.083Z" fill="white"/>
<path d="M512.423 781.977C508.323 785.84 504.145 786.55 499.493 786.235C494.842 785.919 488.614 781.899 488.22 776.222C487.668 768.89 488.062 761.48 488.062 753.833H493.975C493.975 759.982 493.817 766.052 493.975 772.123C494.211 779.612 500.991 783.318 507.614 779.691C511.24 777.641 512.344 774.251 512.344 770.388C512.502 764.949 512.423 759.509 512.423 753.833H518.257V785.919C515.813 785.604 512.186 788.284 512.423 781.977Z" fill="white"/>
<path d="M642.977 753.596H648.417C648.732 754.7 649.048 755.724 649.363 756.986L650.782 756.276C655.828 752.807 661.189 752.334 666.786 754.542C670.728 756.119 673.33 759.272 673.487 763.45C673.882 770.782 673.566 778.193 673.566 785.84H667.89V775.67C667.983 772.54 667.878 769.406 667.575 766.289C667.101 761.558 664.658 759.193 660.558 758.878C655.039 758.405 650.861 760.612 649.915 765.264C648.969 769.915 649.363 772.99 649.205 776.853C649.048 780.716 649.205 782.529 649.205 785.761H642.977V753.596Z" fill="white"/>
<path d="M559.016 782.608C559.962 780.795 560.75 779.455 561.144 778.745C565.874 779.455 570.132 780.322 574.468 780.874C575.767 781.033 577.08 780.726 578.173 780.007C579.198 779.297 580.302 777.957 580.381 776.774C580.459 775.592 579.198 774.33 578.252 774.015C575.493 773.148 572.654 772.754 569.895 772.123C565.559 771.098 561.223 770.073 560.356 764.791C559.489 759.509 561.933 755.961 567.057 754.384C573.364 752.413 579.434 753.044 585.741 756.198L583.692 760.061C579.198 759.588 575.098 758.799 571.078 759.036C569.422 759.115 567.924 761.401 566.426 762.741C567.767 764.081 568.949 765.974 570.605 766.525C573.522 767.629 576.754 767.708 579.829 768.575C584.401 769.837 586.688 772.517 586.845 776.38C587.003 780.243 584.559 783.791 580.223 785.131C576.719 786.292 573.003 786.669 569.338 786.233C565.673 785.797 562.149 784.559 559.016 782.608Z" fill="white"/>
<path d="M596.779 758.957L591.418 758.484V753.832L596.464 753.359C596.621 751.152 596.858 749.023 597.015 746.658H602.692C602.771 748.866 602.928 750.915 603.007 753.438H612.073V758.484L602.928 758.878C602.928 764.948 602.771 770.782 603.007 776.538C603.086 779.849 605.372 781.347 608.605 780.952C609.881 780.765 611.144 780.502 612.389 780.164C614.833 784.185 614.202 785.525 609.551 786.156C601.351 787.338 596.858 783.475 596.779 775.197C596.7 769.915 596.779 764.633 596.779 758.957Z" fill="white"/>
<path d="M624.687 785.919H618.932V741.061H624.687V785.919Z" fill="white"/>
<path d="M631.388 753.596H636.749V785.919H631.388V753.596Z" fill="white"/>
<path d="M634.699 739.326C635.882 740.666 637.695 742.007 638.01 743.505C638.128 744.057 638.105 744.63 637.945 745.172C637.784 745.714 637.491 746.207 637.092 746.606C636.692 747.006 636.199 747.299 635.657 747.46C635.116 747.62 634.542 747.643 633.99 747.525C632.492 747.289 630.363 745.318 630.127 743.82C629.89 742.322 631.94 740.824 632.886 739.326H634.699Z" fill="white"/>
</g>
<g clip-path="url(#clip8_322:146)">
<path d="M1019.03 784.5H1012.33V737.119C1016.04 735.858 1018.4 736.961 1020.61 739.878C1028.25 750.048 1036.14 760.14 1044.02 770.388V736.961H1050.72V784.264C1047.33 785.289 1045.28 784.658 1043.08 781.347C1035.82 769.994 1027.94 759.036 1020.29 747.92L1019.03 748.472V784.5Z" fill="white"/>
<path d="M875.626 782.45L877.203 778.114C882.879 778.745 888.004 779.928 893.049 779.77C899.356 779.533 902.589 775.592 900.696 770.704C899.908 768.417 897.464 766.368 895.257 765.027C891.788 763.056 887.767 761.953 884.141 760.218C878.386 757.459 875.942 752.729 876.809 746.895C877.676 741.061 881.46 736.961 887.846 735.936C894.232 734.912 900.066 735.306 906.136 738.302L904.481 742.795C899.672 742.322 895.099 741.376 890.684 741.613C884.614 741.928 881.697 747.526 884.929 752.019C885.902 753.214 887.145 754.16 888.556 754.779C892.34 756.592 896.282 758.169 900.066 759.903C906.373 762.978 908.974 768.023 908.028 775.276C907.398 780.085 903.456 784.027 897.149 785.131C890.842 786.235 882.879 785.998 875.626 782.45Z" fill="white"/>
<path d="M1215.41 748.787C1218.49 748.393 1220.93 747.92 1223.46 747.841C1232.21 747.683 1237.25 751.625 1238.12 760.218C1238.75 766.604 1238.36 773.227 1238.44 779.691V784.5H1232.05C1232.05 780.558 1232.05 776.617 1231.97 772.596C1232.08 768.833 1231.95 765.068 1231.58 761.322C1230.79 755.33 1227.95 753.281 1221.96 753.596C1215.97 753.911 1215.57 753.99 1215.57 760.376V784.421H1209.27C1209.19 782.924 1209.03 781.583 1209.03 780.164V736.725C1209.03 730.97 1209.11 730.97 1215.41 731.679V748.787Z" fill="white"/>
<path d="M1129.17 765.895C1129.01 780.638 1117.81 789.31 1105.83 784.343C1102.44 782.924 1098.81 779.692 1097.4 776.38C1095.61 771.933 1094.99 767.103 1095.58 762.347C1096.61 753.36 1103.15 747.841 1111.66 747.684C1120.18 747.526 1126.72 752.729 1128.69 761.874C1129.01 763.53 1129.09 765.264 1129.17 765.895ZM1122.39 766.289C1122.18 764.433 1121.86 762.59 1121.44 760.771C1120.02 755.962 1116.71 753.36 1112.06 753.439C1107.41 753.518 1103.39 756.119 1102.76 760.849C1102.07 765.179 1102.26 769.602 1103.31 773.858C1104.73 779.376 1110.8 781.426 1116.08 779.061C1121.36 776.696 1121.91 771.887 1122.39 766.289Z" fill="white"/>
<path d="M961.795 762.268C962.505 756.356 959.903 753.202 953.438 753.281C950.6 753.36 947.762 753.833 945.003 754.069C943.584 749.181 943.663 749.103 948.078 748.235C948.727 748.086 949.385 747.981 950.048 747.92C962.505 746.737 968.891 750.127 968.496 763.766C968.26 769.521 968.339 775.277 968.496 781.032C968.575 783.397 967.866 784.658 965.264 784.658C959.509 784.658 953.754 785.289 948.156 784.579C942.559 783.87 940.588 780.164 940.194 775.277C939.8 770.389 941.928 765.974 946.816 764.476C951.704 762.978 956.434 763.057 961.795 762.268ZM962.662 773.621C962.111 772.202 961.48 768.812 960.534 768.733C956.86 768.269 953.13 768.564 949.575 769.6C946.58 770.468 946.185 773.621 947.289 776.459C948.393 779.297 953.99 781.032 959.903 780.007C963.845 779.218 961.401 776.223 962.662 773.621Z" fill="white"/>
<path d="M972.281 749.023C979.691 748.077 979.613 748.156 981.347 753.28C984.028 761.243 986.866 769.127 989.625 777.089H991.123C993.251 769.363 995.459 761.637 997.509 753.832C999.007 748.314 998.849 748.235 1005.39 749.023C1003.82 754.778 1002.48 760.612 1000.58 766.21C998.139 773.305 995.301 780.322 992.542 787.338C991.609 790.153 989.928 792.66 987.678 794.59C985.427 796.521 982.694 797.802 979.77 798.296C977.563 798.769 975.119 797.666 972.281 797.272C972.675 795.301 972.99 793.803 973.306 792.068C974.736 792.354 976.185 792.538 977.642 792.62C984.579 792.936 988.206 787.575 985.525 781.346C981.111 770.782 976.853 760.139 972.281 749.023Z" fill="white"/>
<path d="M1137.76 748.708H1143.83V756.907C1143.91 761.795 1143.75 766.762 1144.07 771.729C1144.54 778.509 1153.61 782.845 1159.2 778.982C1159.91 778.43 1160.15 776.695 1160.15 775.513C1160.23 768.023 1160.15 760.612 1160.15 753.202V748.787H1166.14C1166.38 749.639 1166.53 750.509 1166.61 751.388C1166.61 761.164 1166.54 770.94 1166.61 780.716C1166.69 783.002 1165.98 784.264 1163.7 784.421C1159.05 784.815 1154.32 785.525 1149.66 785.367C1143.2 785.131 1138.31 781.031 1137.92 774.882C1137.37 766.289 1137.76 757.695 1137.76 748.708Z" fill="white"/>
<path d="M1079.66 784.5H1072.88V770.704C1072.88 762.977 1072.88 755.251 1072.8 747.604C1072.8 742.401 1072.8 742.401 1067.44 742.401L1058.77 742.243C1058.43 742.176 1058.11 742.042 1057.82 741.849V736.882H1094.56V742.322H1079.66V784.5Z" fill="white"/>
<path d="M921.352 737.277V748.393H934.912V753.99H921.746C921.746 761.322 921.51 768.339 921.904 775.276C922.061 778.666 925.057 779.928 928.211 779.849C930.519 779.635 932.811 779.266 935.07 778.745C937.198 783.554 937.04 783.87 932.153 785.052C921.667 787.575 915.281 783.16 914.966 772.596C914.651 762.032 914.887 751.704 914.808 741.298C914.808 736.725 918.356 738.381 921.352 737.277Z" fill="white"/>
<path d="M1201.62 778.824C1202.88 784.185 1202.88 784.185 1198.23 785.131C1188.85 787.023 1181.12 784.027 1177.42 777.168C1173.71 770.309 1174.58 758.168 1180.73 752.019C1185.38 747.368 1195 746.264 1201.93 749.811L1200.67 754.542C1194.44 753.438 1188.14 751.546 1184.12 758.011C1180.1 764.475 1180.65 769.678 1184.04 775.118C1188.37 781.977 1195.15 779.927 1201.62 778.824Z" fill="white"/>
</g>
<defs>
<clipPath id="clip0_322:146">
<rect width="290.121" height="79.6257" fill="white" transform="translate(293.619 5.51855)"/>
</clipPath>
<clipPath id="clip1_322:146">
<rect width="453.453" height="73.6143" fill="white" transform="translate(65.5322 244.642)"/>
</clipPath>
<clipPath id="clip2_322:146">
<rect width="173.226" height="125.746" fill="white" transform="translate(658.527 218.576)"/>
</clipPath>
<clipPath id="clip3_322:146">
<rect width="201.687" height="201.824" fill="white" transform="translate(971.295 180.538)"/>
</clipPath>
<clipPath id="clip4_322:146">
<rect width="285.47" height="39.9705" fill="white" transform="translate(72.3823 507.831)"/>
</clipPath>
<clipPath id="clip5_322:146">
<rect width="283.933" height="60.3105" fill="white" transform="translate(492.664 497.66)"/>
</clipPath>
<clipPath id="clip6_322:146">
<rect width="254.723" height="111.161" fill="white" transform="translate(911.408 472.235)"/>
</clipPath>
<clipPath id="clip7_322:146">
<rect width="362.888" height="80.7294" fill="white" transform="translate(347.968 724.505)"/>
</clipPath>
<clipPath id="clip8_322:146">
<rect width="362.888" height="67.0117" fill="white" transform="translate(875.626 731.364)"/>
</clipPath>
</defs>
</svg>
