<svg width="1303" height="706" viewBox="0 0 1303 706" fill="none" xmlns="http://www.w3.org/2000/svg">
<path d="M54.9705 683.543H56.118L59.741 689.354V683.543H60.6639V690.716H59.575L55.8983 684.91V690.716H54.9705V683.543ZM64.2576 685.369C64.6287 685.369 64.9884 685.457 65.3368 685.633C65.6851 685.805 65.9504 686.03 66.1326 686.307C66.3084 686.57 66.4256 686.878 66.4842 687.229C66.5363 687.47 66.5623 687.854 66.5623 688.382H62.7293C62.7456 688.912 62.8709 689.339 63.1053 689.661C63.3397 689.98 63.7026 690.14 64.1942 690.14C64.6532 690.14 65.0194 689.988 65.2928 689.686C65.4491 689.51 65.5597 689.306 65.6248 689.075H66.4891C66.4663 689.267 66.3898 689.482 66.2596 689.72C66.1326 689.954 65.9894 690.146 65.8299 690.296C65.563 690.556 65.2326 690.732 64.8387 690.823C64.6271 690.875 64.3879 690.901 64.1209 690.901C63.4699 690.901 62.9181 690.665 62.4657 690.193C62.0132 689.718 61.7869 689.054 61.7869 688.201C61.7869 687.361 62.0148 686.679 62.4705 686.155C62.9263 685.631 63.522 685.369 64.2576 685.369ZM65.659 687.684C65.6232 687.303 65.5402 686.998 65.41 686.771C65.1691 686.347 64.7671 686.136 64.2039 686.136C63.8003 686.136 63.4618 686.282 63.1883 686.575C62.9149 686.865 62.77 687.234 62.7537 687.684H65.659ZM67.8221 684.026H68.7108V685.486H69.5457V686.204H68.7108V689.617C68.7108 689.799 68.7726 689.922 68.8963 689.983C68.9647 690.019 69.0786 690.037 69.2381 690.037C69.2804 690.037 69.326 690.037 69.3748 690.037C69.4237 690.034 69.4806 690.029 69.5457 690.022V690.716C69.4448 690.745 69.339 690.766 69.2284 690.779C69.1209 690.792 69.0037 690.799 68.8768 690.799C68.4666 690.799 68.1883 690.695 68.0418 690.486C67.8953 690.275 67.8221 690.001 67.8221 689.666V686.204H67.1141V685.486H67.8221V684.026ZM74.1014 690.716H73.2225V683.543H74.1014V690.716ZM71.5184 690.716H70.6493V686.204H69.9217V685.511H70.6493V684.583C70.6493 684.196 70.7681 683.909 71.0057 683.724C71.2466 683.535 71.5672 683.44 71.9676 683.44C72.0457 683.44 72.1157 683.444 72.1776 683.45C72.2427 683.453 72.3159 683.462 72.3973 683.475V684.261C72.3062 684.254 72.2394 684.251 72.1971 684.251C72.158 684.248 72.1206 684.246 72.0848 684.246C71.8374 684.246 71.673 684.318 71.5916 684.461C71.5428 684.542 71.5184 684.676 71.5184 684.861V685.511H72.3973V686.204H71.5184V690.716ZM75.4295 685.511H76.3231V690.716H75.4295V685.511ZM75.4295 683.543H76.3231V684.539H75.4295V683.543ZM77.158 685.486H78.2957L79.4969 687.327L80.7127 685.486L81.7821 685.511L80.0194 688.035L81.8602 690.716H80.7371L79.4383 688.753L78.1785 690.716H77.0653L78.9061 688.035L77.158 685.486Z" fill="#A3A3A3"/>
<path d="M348.623 687.776L347.534 684.607L346.377 687.776H348.623ZM347.027 683.543H348.125L350.728 690.716H349.663L348.936 688.567H346.099L345.322 690.716H344.326L347.027 683.543ZM351.494 685.486H352.364V686.229C352.572 685.971 352.761 685.784 352.93 685.667C353.22 685.468 353.548 685.369 353.916 685.369C354.333 685.369 354.668 685.472 354.922 685.677C355.065 685.794 355.196 685.966 355.313 686.194C355.508 685.914 355.738 685.708 356.001 685.574C356.265 685.438 356.561 685.369 356.89 685.369C357.593 685.369 358.072 685.623 358.325 686.131C358.462 686.404 358.531 686.772 358.531 687.234V690.716H357.617V687.083C357.617 686.735 357.53 686.495 357.354 686.365C357.181 686.235 356.97 686.17 356.719 686.17C356.374 686.17 356.076 686.285 355.825 686.517C355.578 686.748 355.454 687.133 355.454 687.674V690.716H354.561V687.303C354.561 686.948 354.518 686.689 354.434 686.526C354.3 686.282 354.051 686.16 353.687 686.16C353.355 686.16 353.052 686.289 352.779 686.546C352.508 686.803 352.373 687.269 352.373 687.942V690.716H351.494V685.486ZM360.498 689.324C360.498 689.578 360.591 689.778 360.777 689.925C360.962 690.071 361.182 690.145 361.436 690.145C361.745 690.145 362.045 690.073 362.334 689.93C362.822 689.692 363.067 689.303 363.067 688.763V688.055C362.959 688.123 362.821 688.18 362.652 688.226C362.482 688.271 362.316 688.304 362.154 688.323L361.621 688.392C361.302 688.434 361.063 688.501 360.904 688.592C360.633 688.745 360.498 688.989 360.498 689.324ZM362.627 687.547C362.829 687.521 362.964 687.436 363.032 687.293C363.072 687.215 363.091 687.103 363.091 686.956C363.091 686.657 362.984 686.44 362.769 686.307C362.557 686.17 362.253 686.102 361.856 686.102C361.397 686.102 361.071 686.225 360.879 686.473C360.772 686.609 360.702 686.813 360.669 687.083H359.849C359.865 686.438 360.073 685.991 360.474 685.74C360.878 685.486 361.345 685.359 361.875 685.359C362.49 685.359 362.99 685.477 363.374 685.711C363.755 685.945 363.946 686.31 363.946 686.805V689.817C363.946 689.909 363.963 689.982 363.999 690.037C364.038 690.092 364.118 690.12 364.239 690.12C364.278 690.12 364.322 690.118 364.37 690.115C364.419 690.109 364.471 690.101 364.527 690.091V690.74C364.39 690.779 364.286 690.804 364.214 690.813C364.142 690.823 364.045 690.828 363.921 690.828C363.618 690.828 363.399 690.721 363.262 690.506C363.19 690.392 363.14 690.231 363.111 690.022C362.932 690.257 362.674 690.46 362.339 690.633C362.004 690.805 361.634 690.892 361.231 690.892C360.746 690.892 360.349 690.745 360.039 690.452C359.733 690.156 359.58 689.786 359.58 689.344C359.58 688.859 359.732 688.483 360.034 688.216C360.337 687.949 360.734 687.785 361.226 687.723L362.627 687.547ZM365 690.022L368.101 686.272H365.23V685.486H369.282V686.204L366.201 689.93H369.375V690.716H365V690.022ZM372.466 690.149C373.049 690.149 373.447 689.93 373.662 689.49C373.88 689.048 373.989 688.556 373.989 688.016C373.989 687.527 373.911 687.13 373.755 686.824C373.508 686.342 373.081 686.102 372.476 686.102C371.939 686.102 371.548 686.307 371.304 686.717C371.06 687.127 370.938 687.622 370.938 688.201C370.938 688.758 371.06 689.222 371.304 689.593C371.548 689.964 371.935 690.149 372.466 690.149ZM372.5 685.335C373.174 685.335 373.744 685.56 374.209 686.009C374.675 686.458 374.907 687.119 374.907 687.991C374.907 688.834 374.702 689.531 374.292 690.081C373.882 690.631 373.246 690.906 372.383 690.906C371.664 690.906 371.092 690.664 370.669 690.179C370.246 689.69 370.034 689.036 370.034 688.216C370.034 687.337 370.257 686.637 370.703 686.116C371.149 685.595 371.748 685.335 372.5 685.335ZM375.957 685.486H376.792V686.229C377.04 685.923 377.302 685.703 377.578 685.569C377.855 685.436 378.163 685.369 378.501 685.369C379.243 685.369 379.745 685.628 380.005 686.146C380.148 686.429 380.22 686.834 380.22 687.361V690.716H379.326V687.42C379.326 687.101 379.279 686.844 379.185 686.648C379.029 686.323 378.745 686.16 378.335 686.16C378.127 686.16 377.956 686.181 377.822 686.224C377.582 686.295 377.37 686.438 377.188 686.653C377.041 686.826 376.945 687.005 376.9 687.19C376.857 687.373 376.836 687.635 376.836 687.977V690.716H375.957V685.486Z" fill="#A3A3A3"/>
<path d="M642.759 685.511H643.653V690.716H642.759V685.511ZM642.759 683.543H643.653V684.539H642.759V683.543ZM650.323 683.543V684.397H647.906V690.716H646.919V684.397H644.502V683.543H650.323ZM651.607 685.486V688.958C651.607 689.225 651.649 689.443 651.734 689.612C651.89 689.925 652.181 690.081 652.608 690.081C653.22 690.081 653.636 689.808 653.858 689.261C653.978 688.968 654.038 688.566 654.038 688.055V685.486H654.917V690.716H654.087L654.097 689.944C653.983 690.143 653.841 690.311 653.672 690.447C653.337 690.721 652.93 690.857 652.452 690.857C651.706 690.857 651.198 690.608 650.928 690.11C650.782 689.843 650.708 689.487 650.708 689.041V685.486H651.607ZM656.294 685.486H657.129V686.229C657.377 685.923 657.639 685.703 657.915 685.569C658.192 685.436 658.5 685.369 658.838 685.369C659.58 685.369 660.082 685.628 660.342 686.146C660.485 686.429 660.557 686.834 660.557 687.361V690.716H659.663V687.42C659.663 687.101 659.616 686.844 659.522 686.648C659.366 686.323 659.082 686.16 658.672 686.16C658.464 686.16 658.293 686.181 658.16 686.224C657.919 686.295 657.707 686.438 657.525 686.653C657.378 686.826 657.282 687.005 657.237 687.19C657.194 687.373 657.173 687.635 657.173 687.977V690.716H656.294V685.486ZM664.038 685.369C664.41 685.369 664.769 685.457 665.118 685.633C665.466 685.805 665.731 686.03 665.913 686.307C666.089 686.57 666.206 686.878 666.265 687.229C666.317 687.47 666.343 687.854 666.343 688.382H662.51C662.526 688.912 662.652 689.339 662.886 689.661C663.12 689.98 663.483 690.14 663.975 690.14C664.434 690.14 664.8 689.988 665.074 689.686C665.23 689.51 665.341 689.306 665.406 689.075H666.27C666.247 689.267 666.171 689.482 666.04 689.72C665.913 689.954 665.77 690.146 665.611 690.296C665.344 690.556 665.013 690.732 664.619 690.823C664.408 690.875 664.169 690.901 663.902 690.901C663.251 690.901 662.699 690.665 662.246 690.193C661.794 689.718 661.568 689.054 661.568 688.201C661.568 687.361 661.796 686.679 662.251 686.155C662.707 685.631 663.303 685.369 664.038 685.369ZM665.44 687.684C665.404 687.303 665.321 686.998 665.191 686.771C664.95 686.347 664.548 686.136 663.985 686.136C663.581 686.136 663.243 686.282 662.969 686.575C662.696 686.865 662.551 687.234 662.535 687.684H665.44ZM667.95 689.075C667.976 689.368 668.049 689.593 668.169 689.749C668.391 690.032 668.775 690.174 669.322 690.174C669.647 690.174 669.934 690.104 670.181 689.964C670.428 689.821 670.552 689.601 670.552 689.305C670.552 689.08 670.453 688.909 670.254 688.792C670.127 688.72 669.877 688.637 669.502 688.543L668.804 688.367C668.358 688.257 668.029 688.133 667.818 687.996C667.44 687.758 667.251 687.43 667.251 687.01C667.251 686.515 667.429 686.115 667.784 685.809C668.142 685.503 668.622 685.35 669.224 685.35C670.012 685.35 670.58 685.581 670.928 686.043C671.146 686.336 671.252 686.652 671.245 686.99H670.415C670.399 686.792 670.329 686.611 670.205 686.448C670.004 686.217 669.654 686.102 669.156 686.102C668.824 686.102 668.571 686.165 668.399 686.292C668.229 686.419 668.145 686.587 668.145 686.795C668.145 687.023 668.257 687.205 668.482 687.342C668.612 687.423 668.804 687.495 669.058 687.557L669.639 687.698C670.271 687.851 670.694 687.999 670.909 688.143C671.25 688.367 671.421 688.72 671.421 689.202C671.421 689.668 671.244 690.07 670.889 690.408C670.537 690.747 670 690.916 669.278 690.916C668.5 690.916 667.948 690.74 667.622 690.389C667.3 690.034 667.128 689.596 667.105 689.075H667.95Z" fill="#A3A3A3"/>
<path d="M930.612 683.543H931.745L933.805 686.99L935.866 683.543H937.004L934.294 687.825V690.716H933.322V687.825L930.612 683.543ZM938.879 690.149C939.461 690.149 939.86 689.93 940.075 689.49C940.293 689.048 940.402 688.556 940.402 688.016C940.402 687.527 940.324 687.13 940.168 686.824C939.92 686.342 939.494 686.102 938.888 686.102C938.351 686.102 937.961 686.307 937.716 686.717C937.472 687.127 937.35 687.622 937.35 688.201C937.35 688.758 937.472 689.222 937.716 689.593C937.961 689.964 938.348 690.149 938.879 690.149ZM938.913 685.335C939.587 685.335 940.156 685.56 940.622 686.009C941.087 686.458 941.32 687.119 941.32 687.991C941.32 688.834 941.115 689.531 940.705 690.081C940.295 690.631 939.658 690.906 938.796 690.906C938.076 690.906 937.505 690.664 937.082 690.179C936.658 689.69 936.447 689.036 936.447 688.216C936.447 687.337 936.67 686.637 937.116 686.116C937.562 685.595 938.161 685.335 938.913 685.335ZM943.249 685.486V688.958C943.249 689.225 943.291 689.443 943.376 689.612C943.532 689.925 943.823 690.081 944.25 690.081C944.862 690.081 945.278 689.808 945.5 689.261C945.62 688.968 945.68 688.566 945.68 688.055V685.486H946.559V690.716H945.729L945.739 689.944C945.625 690.143 945.483 690.311 945.314 690.447C944.979 690.721 944.572 690.857 944.093 690.857C943.348 690.857 942.84 690.608 942.57 690.11C942.423 689.843 942.35 689.487 942.35 689.041V685.486H943.249ZM953.273 683.543V684.397H950.856V690.716H949.87V684.397H947.453V683.543H953.273ZM954.557 685.486V688.958C954.557 689.225 954.6 689.443 954.684 689.612C954.84 689.925 955.132 690.081 955.558 690.081C956.17 690.081 956.587 689.808 956.808 689.261C956.929 688.968 956.989 688.566 956.989 688.055V685.486H957.868V690.716H957.038L957.047 689.944C956.934 690.143 956.792 690.311 956.623 690.447C956.287 690.721 955.88 690.857 955.402 690.857C954.657 690.857 954.149 690.608 953.879 690.11C953.732 689.843 953.659 689.487 953.659 689.041V685.486H954.557ZM959.176 683.519H960.031V686.121C960.223 685.87 960.452 685.68 960.719 685.55C960.986 685.416 961.276 685.35 961.588 685.35C962.24 685.35 962.767 685.574 963.171 686.023C963.577 686.469 963.781 687.129 963.781 688.001C963.781 688.828 963.581 689.515 963.18 690.062C962.78 690.608 962.225 690.882 961.515 690.882C961.118 690.882 960.783 690.786 960.509 690.594C960.347 690.48 960.172 690.298 959.987 690.047V690.716H959.176V683.519ZM961.462 690.105C961.937 690.105 962.292 689.917 962.526 689.539C962.764 689.161 962.882 688.663 962.882 688.045C962.882 687.495 962.764 687.039 962.526 686.678C962.292 686.316 961.945 686.136 961.486 686.136C961.086 686.136 960.734 686.284 960.431 686.58C960.132 686.876 959.982 687.365 959.982 688.045C959.982 688.536 960.044 688.935 960.168 689.241C960.399 689.817 960.83 690.105 961.462 690.105ZM966.989 685.369C967.36 685.369 967.72 685.457 968.068 685.633C968.416 685.805 968.682 686.03 968.864 686.307C969.04 686.57 969.157 686.878 969.215 687.229C969.268 687.47 969.294 687.854 969.294 688.382H965.461C965.477 688.912 965.602 689.339 965.837 689.661C966.071 689.98 966.434 690.14 966.925 690.14C967.384 690.14 967.751 689.988 968.024 689.686C968.18 689.51 968.291 689.306 968.356 689.075H969.22C969.198 689.267 969.121 689.482 968.991 689.72C968.864 689.954 968.721 690.146 968.561 690.296C968.294 690.556 967.964 690.732 967.57 690.823C967.358 690.875 967.119 690.901 966.852 690.901C966.201 690.901 965.649 690.665 965.197 690.193C964.744 689.718 964.518 689.054 964.518 688.201C964.518 687.361 964.746 686.679 965.202 686.155C965.658 685.631 966.253 685.369 966.989 685.369ZM968.39 687.684C968.354 687.303 968.271 686.998 968.141 686.771C967.9 686.347 967.498 686.136 966.935 686.136C966.532 686.136 966.193 686.282 965.92 686.575C965.646 686.865 965.501 687.234 965.485 687.684H968.39Z" fill="#A3A3A3"/>
<path d="M1205.46 683.543H1210.44V684.422H1206.43V686.6H1209.95V687.454H1206.43V690.716H1205.46V683.543ZM1212.04 689.324C1212.04 689.578 1212.13 689.778 1212.32 689.925C1212.5 690.071 1212.72 690.145 1212.98 690.145C1213.29 690.145 1213.59 690.073 1213.87 689.93C1214.36 689.692 1214.61 689.303 1214.61 688.763V688.055C1214.5 688.123 1214.36 688.18 1214.19 688.226C1214.02 688.271 1213.86 688.304 1213.69 688.323L1213.16 688.392C1212.84 688.434 1212.6 688.501 1212.44 688.592C1212.17 688.745 1212.04 688.989 1212.04 689.324ZM1214.17 687.547C1214.37 687.521 1214.5 687.436 1214.57 687.293C1214.61 687.215 1214.63 687.103 1214.63 686.956C1214.63 686.657 1214.52 686.44 1214.31 686.307C1214.1 686.17 1213.79 686.102 1213.4 686.102C1212.94 686.102 1212.61 686.225 1212.42 686.473C1212.31 686.609 1212.24 686.813 1212.21 687.083H1211.39C1211.41 686.438 1211.61 685.991 1212.01 685.74C1212.42 685.486 1212.89 685.359 1213.42 685.359C1214.03 685.359 1214.53 685.477 1214.91 685.711C1215.3 685.945 1215.49 686.31 1215.49 686.805V689.817C1215.49 689.909 1215.5 689.982 1215.54 690.037C1215.58 690.092 1215.66 690.12 1215.78 690.12C1215.82 690.12 1215.86 690.118 1215.91 690.115C1215.96 690.109 1216.01 690.101 1216.07 690.091V690.74C1215.93 690.779 1215.83 690.804 1215.75 690.813C1215.68 690.823 1215.59 690.828 1215.46 690.828C1215.16 690.828 1214.94 690.721 1214.8 690.506C1214.73 690.392 1214.68 690.231 1214.65 690.022C1214.47 690.257 1214.22 690.46 1213.88 690.633C1213.54 690.805 1213.18 690.892 1212.77 690.892C1212.29 690.892 1211.89 690.745 1211.58 690.452C1211.27 690.156 1211.12 689.786 1211.12 689.344C1211.12 688.859 1211.27 688.483 1211.58 688.216C1211.88 687.949 1212.27 687.785 1212.77 687.723L1214.17 687.547ZM1218.95 685.335C1219.54 685.335 1220.02 685.478 1220.38 685.765C1220.75 686.051 1220.98 686.544 1221.05 687.244H1220.2C1220.15 686.922 1220.03 686.655 1219.84 686.443C1219.66 686.229 1219.36 686.121 1218.95 686.121C1218.39 686.121 1217.99 686.395 1217.75 686.941C1217.59 687.296 1217.51 687.734 1217.51 688.255C1217.51 688.779 1217.62 689.22 1217.84 689.578C1218.07 689.936 1218.41 690.115 1218.89 690.115C1219.25 690.115 1219.54 690.005 1219.75 689.783C1219.97 689.559 1220.12 689.253 1220.2 688.865H1221.05C1220.95 689.559 1220.71 690.066 1220.32 690.389C1219.93 690.708 1219.43 690.867 1218.82 690.867C1218.14 690.867 1217.59 690.618 1217.19 690.12C1216.78 689.619 1216.58 688.994 1216.58 688.245C1216.58 687.327 1216.8 686.613 1217.24 686.102C1217.69 685.59 1218.26 685.335 1218.95 685.335ZM1224.11 685.369C1224.48 685.369 1224.84 685.457 1225.19 685.633C1225.54 685.805 1225.8 686.03 1225.98 686.307C1226.16 686.57 1226.28 686.878 1226.34 687.229C1226.39 687.47 1226.41 687.854 1226.41 688.382H1222.58C1222.6 688.912 1222.72 689.339 1222.96 689.661C1223.19 689.98 1223.55 690.14 1224.05 690.14C1224.5 690.14 1224.87 689.988 1225.14 689.686C1225.3 689.51 1225.41 689.306 1225.48 689.075H1226.34C1226.32 689.267 1226.24 689.482 1226.11 689.72C1225.98 689.954 1225.84 690.146 1225.68 690.296C1225.41 690.556 1225.08 690.732 1224.69 690.823C1224.48 690.875 1224.24 690.901 1223.97 690.901C1223.32 690.901 1222.77 690.665 1222.32 690.193C1221.86 689.718 1221.64 689.054 1221.64 688.201C1221.64 687.361 1221.87 686.679 1222.32 686.155C1222.78 685.631 1223.37 685.369 1224.11 685.369ZM1225.51 687.684C1225.47 687.303 1225.39 686.998 1225.26 686.771C1225.02 686.347 1224.62 686.136 1224.06 686.136C1223.65 686.136 1223.31 686.282 1223.04 686.575C1222.77 686.865 1222.62 687.234 1222.61 687.684H1225.51ZM1227.43 683.519H1228.28V686.121C1228.48 685.87 1228.71 685.68 1228.97 685.55C1229.24 685.416 1229.53 685.35 1229.84 685.35C1230.49 685.35 1231.02 685.574 1231.42 686.023C1231.83 686.469 1232.03 687.129 1232.03 688.001C1232.03 688.828 1231.83 689.515 1231.43 690.062C1231.03 690.608 1230.48 690.882 1229.77 690.882C1229.37 690.882 1229.04 690.786 1228.76 690.594C1228.6 690.48 1228.43 690.298 1228.24 690.047V690.716H1227.43V683.519ZM1229.71 690.105C1230.19 690.105 1230.54 689.917 1230.78 689.539C1231.02 689.161 1231.14 688.663 1231.14 688.045C1231.14 687.495 1231.02 687.039 1230.78 686.678C1230.54 686.316 1230.2 686.136 1229.74 686.136C1229.34 686.136 1228.99 686.284 1228.68 686.58C1228.38 686.876 1228.24 687.365 1228.24 688.045C1228.24 688.536 1228.3 688.935 1228.42 689.241C1228.65 689.817 1229.08 690.105 1229.71 690.105ZM1235.14 690.149C1235.72 690.149 1236.12 689.93 1236.34 689.49C1236.55 689.048 1236.66 688.556 1236.66 688.016C1236.66 687.527 1236.58 687.13 1236.43 686.824C1236.18 686.342 1235.75 686.102 1235.15 686.102C1234.61 686.102 1234.22 686.307 1233.98 686.717C1233.73 687.127 1233.61 687.622 1233.61 688.201C1233.61 688.758 1233.73 689.222 1233.98 689.593C1234.22 689.964 1234.61 690.149 1235.14 690.149ZM1235.17 685.335C1235.85 685.335 1236.42 685.56 1236.88 686.009C1237.35 686.458 1237.58 687.119 1237.58 687.991C1237.58 688.834 1237.38 689.531 1236.97 690.081C1236.56 690.631 1235.92 690.906 1235.06 690.906C1234.34 690.906 1233.77 690.664 1233.34 690.179C1232.92 689.69 1232.71 689.036 1232.71 688.216C1232.71 687.337 1232.93 686.637 1233.38 686.116C1233.82 685.595 1234.42 685.335 1235.17 685.335ZM1240.71 690.149C1241.29 690.149 1241.69 689.93 1241.9 689.49C1242.12 689.048 1242.23 688.556 1242.23 688.016C1242.23 687.527 1242.15 687.13 1242 686.824C1241.75 686.342 1241.32 686.102 1240.72 686.102C1240.18 686.102 1239.79 686.307 1239.54 686.717C1239.3 687.127 1239.18 687.622 1239.18 688.201C1239.18 688.758 1239.3 689.222 1239.54 689.593C1239.79 689.964 1240.18 690.149 1240.71 690.149ZM1240.74 685.335C1241.41 685.335 1241.98 685.56 1242.45 686.009C1242.91 686.458 1243.15 687.119 1243.15 687.991C1243.15 688.834 1242.94 689.531 1242.53 690.081C1242.12 690.631 1241.49 690.906 1240.62 690.906C1239.9 690.906 1239.33 690.664 1238.91 690.179C1238.49 689.69 1238.27 689.036 1238.27 688.216C1238.27 687.337 1238.5 686.637 1238.94 686.116C1239.39 685.595 1239.99 685.335 1240.74 685.335ZM1244.18 683.543H1245.02V687.708L1247.28 685.486H1248.4L1246.4 687.444L1248.51 690.716H1247.39L1245.76 688.079L1245.02 688.753V690.716H1244.18V683.543Z" fill="#A3A3A3"/>
<path d="M29.357 10.0488V9.375C29.9918 9.31315 30.4345 9.21061 30.6851 9.06738C30.9358 8.9209 31.123 8.57747 31.2467 8.03711H31.94V15H31.0025V10.0488H29.357ZM34.8209 13.9355H35.8414V15H34.8209V13.9355ZM37.0621 15C37.0946 14.3978 37.2183 13.8737 37.4332 13.4277C37.6513 12.9818 38.0745 12.5765 38.7027 12.2119L39.6402 11.6699C40.0601 11.4258 40.3547 11.2174 40.524 11.0449C40.7909 10.7747 40.9244 10.4655 40.9244 10.1172C40.9244 9.71029 40.8023 9.38802 40.5582 9.15039C40.314 8.90951 39.9885 8.78906 39.5816 8.78906C38.9794 8.78906 38.5627 9.01693 38.3316 9.47266C38.2079 9.7168 38.1396 10.0553 38.1265 10.4883H37.233C37.2428 9.87956 37.3551 9.38314 37.5699 8.99902C37.9508 8.32194 38.623 7.9834 39.5865 7.9834C40.3873 7.9834 40.9716 8.19987 41.3394 8.63281C41.7105 9.06576 41.8961 9.54753 41.8961 10.0781C41.8961 10.638 41.6991 11.1165 41.3053 11.5137C41.0774 11.7448 40.6689 12.0247 40.0797 12.3535L39.4107 12.7246C39.0917 12.9004 38.8411 13.068 38.6588 13.2275C38.3333 13.5107 38.1282 13.8249 38.0435 14.1699H41.8619V15H37.0621Z" fill="#A3A3A3"/>
<path d="M37.7066 117.154V116.48C38.3414 116.419 38.7841 116.316 39.0347 116.173C39.2854 116.026 39.4726 115.683 39.5963 115.143H40.2896V122.105H39.3521V117.154H37.7066Z" fill="#A3A3A3"/>
<path d="M31.1051 219.891C32.01 219.891 32.6643 220.263 33.068 221.009C33.3805 221.585 33.5367 222.374 33.5367 223.377C33.5367 224.327 33.3951 225.114 33.1119 225.735C32.7017 226.627 32.0312 227.073 31.1002 227.073C30.2603 227.073 29.6353 226.709 29.2252 225.979C28.8834 225.371 28.7125 224.554 28.7125 223.528C28.7125 222.734 28.815 222.052 29.0201 221.482C29.4042 220.421 30.0992 219.891 31.1051 219.891ZM31.0953 226.272C31.551 226.272 31.914 226.071 32.1842 225.667C32.4543 225.263 32.5894 224.511 32.5894 223.411C32.5894 222.617 32.4918 221.964 32.2965 221.453C32.1012 220.939 31.7219 220.682 31.1588 220.682C30.6412 220.682 30.262 220.926 30.0211 221.414C29.7834 221.899 29.6646 222.615 29.6646 223.562C29.6646 224.275 29.7411 224.848 29.8941 225.281C30.1285 225.942 30.5289 226.272 31.0953 226.272ZM34.8209 225.818H35.8414V226.883H34.8209V225.818ZM39.4693 222.82C39.8567 222.82 40.1594 222.713 40.3775 222.498C40.5956 222.28 40.7047 222.021 40.7047 221.722C40.7047 221.461 40.6005 221.222 40.3922 221.004C40.1838 220.786 39.8665 220.677 39.44 220.677C39.0168 220.677 38.7109 220.786 38.5221 221.004C38.3333 221.222 38.2388 221.478 38.2388 221.771C38.2388 222.099 38.3609 222.356 38.6051 222.542C38.8492 222.728 39.1373 222.82 39.4693 222.82ZM39.523 226.282C39.9299 226.282 40.2668 226.173 40.5338 225.955C40.804 225.734 40.939 225.405 40.939 224.969C40.939 224.516 40.8007 224.173 40.524 223.938C40.2473 223.704 39.8925 223.587 39.4596 223.587C39.0396 223.587 38.6962 223.707 38.4293 223.948C38.1656 224.186 38.0338 224.516 38.0338 224.939C38.0338 225.304 38.1542 225.62 38.3951 225.887C38.6392 226.15 39.0152 226.282 39.523 226.282ZM38.273 223.157C38.0289 223.053 37.8385 222.931 37.7017 222.791C37.4446 222.531 37.316 222.192 37.316 221.775C37.316 221.255 37.5048 220.807 37.8824 220.433C38.26 220.058 38.7955 219.871 39.4888 219.871C40.1594 219.871 40.6851 220.049 41.066 220.403C41.4469 220.755 41.6373 221.167 41.6373 221.639C41.6373 222.075 41.5266 222.428 41.3053 222.698C41.1816 222.851 40.9895 223.001 40.7291 223.147C41.0188 223.281 41.2467 223.434 41.4127 223.606C41.7219 223.932 41.8765 224.355 41.8765 224.876C41.8765 225.491 41.6698 226.014 41.2564 226.443C40.843 226.87 40.2587 227.083 39.5035 227.083C38.8232 227.083 38.247 226.899 37.775 226.531C37.3062 226.16 37.0719 225.623 37.0719 224.92C37.0719 224.507 37.1728 224.15 37.3746 223.851C37.5764 223.548 37.8759 223.317 38.273 223.157Z" fill="#A3A3A3"/>
<path d="M31.1051 326.996C32.01 326.996 32.6643 327.369 33.068 328.114C33.3805 328.69 33.5367 329.48 33.5367 330.482C33.5367 331.433 33.3951 332.219 33.1119 332.841C32.7017 333.733 32.0312 334.179 31.1002 334.179C30.2603 334.179 29.6353 333.814 29.2252 333.085C28.8834 332.476 28.7125 331.659 28.7125 330.634C28.7125 329.84 28.815 329.158 29.0201 328.588C29.4042 327.527 30.0992 326.996 31.1051 326.996ZM31.0953 333.378C31.551 333.378 31.914 333.176 32.1842 332.772C32.4543 332.369 32.5894 331.617 32.5894 330.517C32.5894 329.722 32.4918 329.07 32.2965 328.559C32.1012 328.044 31.7219 327.787 31.1588 327.787C30.6412 327.787 30.262 328.031 30.0211 328.52C29.7834 329.005 29.6646 329.721 29.6646 330.668C29.6646 331.381 29.7411 331.954 29.8941 332.387C30.1285 333.048 30.5289 333.378 31.0953 333.378ZM34.8209 332.924H35.8414V333.988H34.8209V332.924ZM39.6744 326.967C40.4556 326.967 40.9993 327.17 41.3053 327.577C41.6145 327.981 41.7691 328.397 41.7691 328.827H40.9C40.8479 328.55 40.7649 328.334 40.651 328.178C40.4394 327.885 40.1187 327.738 39.689 327.738C39.1975 327.738 38.8069 327.966 38.5172 328.422C38.2275 328.874 38.0663 329.524 38.0338 330.37C38.2356 330.074 38.4895 329.853 38.7955 329.706C39.0754 329.576 39.3879 329.511 39.733 329.511C40.3189 329.511 40.83 329.698 41.2662 330.072C41.7024 330.447 41.9205 331.005 41.9205 331.747C41.9205 332.382 41.7138 332.945 41.3004 333.437C40.887 333.925 40.2978 334.169 39.5328 334.169C38.8785 334.169 38.3137 333.922 37.8385 333.427C37.3632 332.929 37.1256 332.092 37.1256 330.917C37.1256 330.048 37.2314 329.311 37.443 328.705C37.8499 327.546 38.5937 326.967 39.6744 326.967ZM39.6109 333.388C40.0732 333.388 40.4182 333.233 40.6461 332.924C40.8772 332.611 40.9928 332.243 40.9928 331.82C40.9928 331.462 40.8902 331.122 40.6851 330.8C40.4801 330.474 40.1073 330.312 39.567 330.312C39.1894 330.312 38.8573 330.437 38.5709 330.688C38.2877 330.938 38.1461 331.316 38.1461 331.82C38.1461 332.263 38.2747 332.636 38.5318 332.938C38.7922 333.238 39.1519 333.388 39.6109 333.388Z" fill="#A3A3A3"/>
<path d="M31.1051 434.102C32.01 434.102 32.6643 434.474 33.068 435.22C33.3805 435.796 33.5367 436.585 33.5367 437.588C33.5367 438.538 33.3951 439.325 33.1119 439.946C32.7017 440.838 32.0312 441.284 31.1002 441.284C30.2603 441.284 29.6353 440.92 29.2252 440.19C28.8834 439.582 28.7125 438.765 28.7125 437.739C28.7125 436.945 28.815 436.263 29.0201 435.693C29.4042 434.632 30.0992 434.102 31.1051 434.102ZM31.0953 440.483C31.551 440.483 31.914 440.282 32.1842 439.878C32.4543 439.474 32.5894 438.722 32.5894 437.622C32.5894 436.828 32.4918 436.175 32.2965 435.664C32.1012 435.15 31.7219 434.893 31.1588 434.893C30.6412 434.893 30.262 435.137 30.0211 435.625C29.7834 436.11 29.6646 436.826 29.6646 437.773C29.6646 438.486 29.7411 439.059 29.8941 439.492C30.1285 440.153 30.5289 440.483 31.0953 440.483ZM34.8209 440.029H35.8414V441.094H34.8209V440.029ZM40.0553 438.618V435.449L37.814 438.618H40.0553ZM40.0699 441.094V439.385H37.0035V438.525L40.2066 434.082H40.9488V438.618H41.9791V439.385H40.9488V441.094H40.0699Z" fill="#A3A3A3"/>
<path d="M31.1051 541.208C32.01 541.208 32.6643 541.58 33.068 542.326C33.3805 542.902 33.5367 543.691 33.5367 544.694C33.5367 545.644 33.3951 546.431 33.1119 547.052C32.7017 547.944 32.0312 548.39 31.1002 548.39C30.2603 548.39 29.6353 548.026 29.2252 547.296C28.8834 546.688 28.7125 545.871 28.7125 544.845C28.7125 544.051 28.815 543.369 29.0201 542.799C29.4042 541.738 30.0992 541.208 31.1051 541.208ZM31.0953 547.589C31.551 547.589 31.914 547.388 32.1842 546.984C32.4543 546.58 32.5894 545.828 32.5894 544.728C32.5894 543.934 32.4918 543.281 32.2965 542.77C32.1012 542.256 31.7219 541.999 31.1588 541.999C30.6412 541.999 30.262 542.243 30.0211 542.731C29.7834 543.216 29.6646 543.932 29.6646 544.879C29.6646 545.592 29.7411 546.165 29.8941 546.598C30.1285 547.259 30.5289 547.589 31.0953 547.589ZM34.8209 547.135H35.8414V548.2H34.8209V547.135ZM37.0621 548.2C37.0946 547.597 37.2183 547.073 37.4332 546.627C37.6513 546.181 38.0745 545.776 38.7027 545.412L39.6402 544.87C40.0601 544.625 40.3547 544.417 40.524 544.245C40.7909 543.974 40.9244 543.665 40.9244 543.317C40.9244 542.91 40.8023 542.588 40.5582 542.35C40.314 542.109 39.9885 541.989 39.5816 541.989C38.9794 541.989 38.5627 542.217 38.3316 542.672C38.2079 542.917 38.1396 543.255 38.1265 543.688H37.233C37.2428 543.079 37.3551 542.583 37.5699 542.199C37.9508 541.522 38.623 541.183 39.5865 541.183C40.3873 541.183 40.9716 541.4 41.3394 541.833C41.7105 542.265 41.8961 542.747 41.8961 543.278C41.8961 543.838 41.6991 544.316 41.3053 544.713C41.0774 544.944 40.6689 545.224 40.0797 545.553L39.4107 545.924C39.0917 546.1 38.8411 546.268 38.6588 546.427C38.3333 546.71 38.1282 547.025 38.0435 547.37H41.8619V548.2H37.0621Z" fill="#A3A3A3"/>
<path d="M39.4547 648.313C40.3596 648.313 41.0139 648.686 41.4176 649.431C41.7301 650.007 41.8863 650.797 41.8863 651.799C41.8863 652.75 41.7447 653.536 41.4615 654.158C41.0513 655.05 40.3808 655.496 39.4498 655.496C38.6099 655.496 37.9849 655.131 37.5748 654.402C37.233 653.793 37.0621 652.976 37.0621 651.951C37.0621 651.156 37.1646 650.474 37.3697 649.905C37.7538 648.844 38.4488 648.313 39.4547 648.313ZM39.4449 654.695C39.9006 654.695 40.2636 654.493 40.5338 654.089C40.804 653.686 40.939 652.934 40.939 651.833C40.939 651.039 40.8414 650.387 40.6461 649.875C40.4508 649.361 40.0715 649.104 39.5084 649.104C38.9908 649.104 38.6116 649.348 38.3707 649.836C38.1331 650.321 38.0142 651.038 38.0142 651.985C38.0142 652.698 38.0907 653.271 38.2437 653.704C38.4781 654.364 38.8785 654.695 39.4449 654.695Z" fill="#A3A3A3"/>
<path d="M68.1106 88.4932C68.1106 88.4932 213.375 619.364 361.233 619.364C509.091 619.364 509.091 407.482 656.949 407.482C802.213 407.482 802.213 619.364 950.071 619.364C1097.93 619.364 1245.79 635.663 1245.79 635.663V658.947H68.1106V88.4932Z" fill="#A650FF"/>
<path d="M188.376 65.8813C188.399 66.2882 188.495 66.6187 188.665 66.8726C188.987 67.3478 189.555 67.5854 190.369 67.5854C190.733 67.5854 191.065 67.5334 191.365 67.4292C191.944 67.2274 192.234 66.866 192.234 66.3452C192.234 65.9546 192.112 65.6763 191.868 65.5103C191.62 65.3475 191.233 65.2059 190.706 65.0854L189.734 64.8657C189.099 64.7225 188.65 64.5646 188.386 64.3921C187.931 64.0926 187.703 63.645 187.703 63.0493C187.703 62.4048 187.926 61.8758 188.372 61.4624C188.818 61.049 189.449 60.8423 190.266 60.8423C191.018 60.8423 191.656 61.0246 192.18 61.3892C192.708 61.7505 192.971 62.3299 192.971 63.1274H192.058C192.009 62.7433 191.905 62.4487 191.746 62.2437C191.449 61.8693 190.946 61.6821 190.237 61.6821C189.664 61.6821 189.252 61.8026 189.001 62.0435C188.751 62.2843 188.626 62.5643 188.626 62.8833C188.626 63.2349 188.772 63.492 189.065 63.6548C189.257 63.759 189.692 63.8892 190.369 64.0454L191.375 64.2749C191.86 64.3856 192.234 64.5369 192.498 64.729C192.953 65.0643 193.181 65.5509 193.181 66.189C193.181 66.9832 192.891 67.5513 192.312 67.8931C191.736 68.2349 191.065 68.4058 190.3 68.4058C189.408 68.4058 188.71 68.1779 188.206 67.7222C187.701 67.2697 187.454 66.6561 187.463 65.8813H188.376ZM194.47 61.5063H195.359V62.9663H196.194V63.6841H195.359V67.0972C195.359 67.2795 195.421 67.4015 195.544 67.4634C195.613 67.4992 195.727 67.5171 195.886 67.5171C195.929 67.5171 195.974 67.5171 196.023 67.5171C196.072 67.5138 196.129 67.509 196.194 67.5024V68.1958C196.093 68.2251 195.987 68.2463 195.876 68.2593C195.769 68.2723 195.652 68.2788 195.525 68.2788C195.115 68.2788 194.836 68.1746 194.69 67.9663C194.543 67.7547 194.47 67.4813 194.47 67.146V63.6841H193.762V62.9663H194.47V61.5063ZM197.102 62.9663H197.937V63.8696C198.005 63.6938 198.173 63.4806 198.44 63.23C198.707 62.9761 199.015 62.8491 199.363 62.8491C199.379 62.8491 199.407 62.8507 199.446 62.854C199.485 62.8573 199.552 62.8638 199.646 62.8735V63.8013C199.594 63.7915 199.545 63.785 199.5 63.7817C199.457 63.7785 199.41 63.7769 199.358 63.7769C198.915 63.7769 198.575 63.9201 198.337 64.2065C198.1 64.4897 197.981 64.8169 197.981 65.188V68.1958H197.102V62.9663ZM202.585 62.8491C202.957 62.8491 203.316 62.937 203.665 63.1128C204.013 63.2853 204.278 63.5099 204.46 63.7866C204.636 64.0503 204.753 64.3579 204.812 64.7095C204.864 64.9504 204.89 65.3345 204.89 65.8618H201.057C201.073 66.3924 201.199 66.8188 201.433 67.1411C201.668 67.4601 202.03 67.6196 202.522 67.6196C202.981 67.6196 203.347 67.4683 203.621 67.1655C203.777 66.9897 203.888 66.7863 203.953 66.5552H204.817C204.794 66.7472 204.718 66.9621 204.587 67.1997C204.46 67.4341 204.317 67.6261 204.158 67.7759C203.891 68.0363 203.56 68.2121 203.167 68.3032C202.955 68.3553 202.716 68.3813 202.449 68.3813C201.798 68.3813 201.246 68.1453 200.793 67.6733C200.341 67.1981 200.115 66.534 200.115 65.6812C200.115 64.8413 200.343 64.1593 200.798 63.6353C201.254 63.1112 201.85 62.8491 202.585 62.8491ZM203.987 65.1636C203.951 64.7827 203.868 64.4784 203.738 64.2505C203.497 63.8273 203.095 63.6157 202.532 63.6157C202.128 63.6157 201.79 63.7622 201.516 64.0552C201.243 64.3449 201.098 64.7144 201.082 65.1636H203.987ZM206.648 66.8042C206.648 67.0581 206.741 67.2583 206.926 67.4048C207.112 67.5513 207.332 67.6245 207.585 67.6245C207.895 67.6245 208.194 67.5529 208.484 67.4097C208.972 67.172 209.216 66.783 209.216 66.2427V65.5347C209.109 65.603 208.971 65.66 208.801 65.7056C208.632 65.7511 208.466 65.7837 208.303 65.8032L207.771 65.8716C207.452 65.9139 207.213 65.9806 207.053 66.0718C206.783 66.2248 206.648 66.4689 206.648 66.8042ZM208.777 65.0269C208.979 65.0008 209.114 64.9162 209.182 64.7729C209.221 64.6948 209.241 64.5825 209.241 64.436C209.241 64.1366 209.133 63.9201 208.918 63.7866C208.707 63.6499 208.403 63.5815 208.005 63.5815C207.546 63.5815 207.221 63.7052 207.029 63.9526C206.921 64.0894 206.851 64.2928 206.819 64.563H205.999C206.015 63.9185 206.223 63.4709 206.624 63.2202C207.027 62.9663 207.494 62.8394 208.025 62.8394C208.64 62.8394 209.14 62.9565 209.524 63.1909C209.905 63.4253 210.095 63.7899 210.095 64.2847V67.2974C210.095 67.3885 210.113 67.4618 210.149 67.5171C210.188 67.5724 210.268 67.6001 210.388 67.6001C210.427 67.6001 210.471 67.5985 210.52 67.5952C210.569 67.5887 210.621 67.5806 210.676 67.5708V68.2202C210.54 68.2593 210.435 68.2837 210.364 68.2935C210.292 68.3032 210.195 68.3081 210.071 68.3081C209.768 68.3081 209.548 68.2007 209.412 67.9858C209.34 67.8719 209.29 67.7108 209.26 67.5024C209.081 67.7368 208.824 67.9403 208.489 68.1128C208.154 68.2853 207.784 68.3716 207.38 68.3716C206.895 68.3716 206.498 68.2251 206.189 67.9321C205.883 67.6359 205.73 67.2664 205.73 66.8237C205.73 66.3387 205.881 65.9627 206.184 65.6958C206.487 65.4289 206.884 65.2645 207.376 65.2026L208.777 65.0269ZM211.541 62.9663H212.41V63.7085C212.618 63.4513 212.807 63.2642 212.976 63.147C213.266 62.9484 213.595 62.8491 213.962 62.8491C214.379 62.8491 214.714 62.9517 214.968 63.1567C215.112 63.2739 215.242 63.4465 215.359 63.6743C215.554 63.3944 215.784 63.1877 216.047 63.0542C216.311 62.9175 216.607 62.8491 216.936 62.8491C217.639 62.8491 218.118 63.103 218.372 63.6108C218.508 63.8843 218.577 64.2521 218.577 64.7144V68.1958H217.664V64.563C217.664 64.2147 217.576 63.9754 217.4 63.8452C217.227 63.715 217.016 63.6499 216.765 63.6499C216.42 63.6499 216.122 63.7655 215.872 63.9966C215.624 64.2277 215.501 64.6134 215.501 65.1538V68.1958H214.607V64.7827C214.607 64.4279 214.565 64.1691 214.48 64.0063C214.347 63.7622 214.098 63.6401 213.733 63.6401C213.401 63.6401 213.098 63.7687 212.825 64.0259C212.555 64.283 212.419 64.7485 212.419 65.4224V68.1958H211.541V62.9663ZM219.871 62.9907H220.764V68.1958H219.871V62.9907ZM219.871 61.0229H220.764V62.019H219.871V61.0229ZM222.097 62.9663H222.932V63.7085C223.18 63.4025 223.442 63.1828 223.718 63.0493C223.995 62.9159 224.303 62.8491 224.641 62.8491C225.383 62.8491 225.885 63.1079 226.145 63.6255C226.288 63.9087 226.36 64.314 226.36 64.8413V68.1958H225.466V64.8999C225.466 64.5809 225.419 64.3237 225.325 64.1284C225.168 63.8029 224.885 63.6401 224.475 63.6401C224.267 63.6401 224.096 63.6613 223.962 63.7036C223.722 63.7752 223.51 63.9185 223.328 64.1333C223.181 64.3058 223.085 64.4849 223.04 64.6704C222.997 64.8527 222.976 65.1147 222.976 65.4565V68.1958H222.097V62.9663ZM229.509 62.8735C229.919 62.8735 230.278 62.9744 230.584 63.1763C230.75 63.2902 230.919 63.4562 231.091 63.6743V63.0151H231.902V67.771C231.902 68.4351 231.804 68.9591 231.609 69.3433C231.244 70.0529 230.556 70.4077 229.543 70.4077C228.98 70.4077 228.507 70.2808 228.123 70.0269C227.738 69.7762 227.524 69.3823 227.478 68.8452H228.372C228.414 69.0796 228.499 69.2603 228.626 69.3872C228.824 69.5825 229.137 69.6802 229.563 69.6802C230.237 69.6802 230.678 69.4425 230.886 68.9673C231.01 68.6873 231.067 68.1877 231.057 67.4683C230.881 67.7352 230.67 67.9338 230.422 68.064C230.175 68.1942 229.848 68.2593 229.441 68.2593C228.875 68.2593 228.378 68.0591 227.952 67.6587C227.529 67.255 227.317 66.5894 227.317 65.6616C227.317 64.786 227.53 64.1024 227.957 63.6108C228.386 63.1193 228.904 62.8735 229.509 62.8735ZM231.091 65.5591C231.091 64.9113 230.958 64.4312 230.691 64.1187C230.424 63.8062 230.084 63.6499 229.67 63.6499C229.052 63.6499 228.629 63.9396 228.401 64.519C228.28 64.8283 228.22 65.2336 228.22 65.7349C228.22 66.3241 228.339 66.7733 228.577 67.0825C228.818 67.3885 229.14 67.5415 229.543 67.5415C230.175 67.5415 230.619 67.2567 230.876 66.687C231.02 66.3647 231.091 65.9888 231.091 65.5591ZM236.106 61.0229H237.498L239.558 67.0874L241.604 61.0229H242.981V68.1958H242.058V63.9624C242.058 63.8159 242.061 63.5734 242.068 63.2349C242.074 62.8963 242.078 62.5334 242.078 62.146L240.032 68.1958H239.07L237.009 62.146V62.3657C237.009 62.5415 237.013 62.8101 237.019 63.1714C237.029 63.5295 237.034 63.7931 237.034 63.9624V68.1958H236.106V61.0229ZM246.521 62.8491C246.892 62.8491 247.252 62.937 247.6 63.1128C247.948 63.2853 248.214 63.5099 248.396 63.7866C248.572 64.0503 248.689 64.3579 248.748 64.7095C248.8 64.9504 248.826 65.3345 248.826 65.8618H244.993C245.009 66.3924 245.134 66.8188 245.369 67.1411C245.603 67.4601 245.966 67.6196 246.458 67.6196C246.917 67.6196 247.283 67.4683 247.556 67.1655C247.712 66.9897 247.823 66.7863 247.888 66.5552H248.752C248.73 66.7472 248.653 66.9621 248.523 67.1997C248.396 67.4341 248.253 67.6261 248.093 67.7759C247.826 68.0363 247.496 68.2121 247.102 68.3032C246.89 68.3553 246.651 68.3813 246.384 68.3813C245.733 68.3813 245.182 68.1453 244.729 67.6733C244.277 67.1981 244.05 66.534 244.05 65.6812C244.05 64.8413 244.278 64.1593 244.734 63.6353C245.19 63.1112 245.785 62.8491 246.521 62.8491ZM247.922 65.1636C247.887 64.7827 247.804 64.4784 247.673 64.2505C247.432 63.8273 247.03 63.6157 246.467 63.6157C246.064 63.6157 245.725 63.7622 245.452 64.0552C245.178 64.3449 245.033 64.7144 245.017 65.1636H247.922ZM250.466 65.6421C250.466 66.202 250.585 66.6707 250.823 67.0483C251.06 67.4259 251.441 67.6147 251.965 67.6147C252.372 67.6147 252.706 67.4406 252.966 67.0923C253.23 66.7407 253.362 66.2378 253.362 65.5835C253.362 64.9227 253.227 64.4344 252.957 64.1187C252.686 63.7996 252.353 63.6401 251.956 63.6401C251.513 63.6401 251.153 63.8094 250.876 64.1479C250.603 64.4865 250.466 64.9845 250.466 65.6421ZM251.79 62.8735C252.19 62.8735 252.525 62.9582 252.795 63.1274C252.952 63.2251 253.129 63.396 253.328 63.6401V60.9985H254.172V68.1958H253.381V67.4683C253.176 67.7905 252.934 68.0233 252.654 68.1665C252.374 68.3097 252.053 68.3813 251.692 68.3813C251.109 68.3813 250.605 68.1372 250.178 67.6489C249.752 67.1574 249.539 66.5047 249.539 65.6909C249.539 64.9292 249.732 64.27 250.12 63.7134C250.51 63.1535 251.067 62.8735 251.79 62.8735ZM255.476 62.9907H256.37V68.1958H255.476V62.9907ZM255.476 61.0229H256.37V62.019H255.476V61.0229ZM258.376 66.8042C258.376 67.0581 258.469 67.2583 258.655 67.4048C258.84 67.5513 259.06 67.6245 259.314 67.6245C259.623 67.6245 259.923 67.5529 260.212 67.4097C260.701 67.172 260.945 66.783 260.945 66.2427V65.5347C260.837 65.603 260.699 65.66 260.53 65.7056C260.361 65.7511 260.195 65.7837 260.032 65.8032L259.5 65.8716C259.181 65.9139 258.941 65.9806 258.782 66.0718C258.512 66.2248 258.376 66.4689 258.376 66.8042ZM260.505 65.0269C260.707 65.0008 260.842 64.9162 260.911 64.7729C260.95 64.6948 260.969 64.5825 260.969 64.436C260.969 64.1366 260.862 63.9201 260.647 63.7866C260.435 63.6499 260.131 63.5815 259.734 63.5815C259.275 63.5815 258.949 63.7052 258.757 63.9526C258.65 64.0894 258.58 64.2928 258.547 64.563H257.727C257.743 63.9185 257.952 63.4709 258.352 63.2202C258.756 62.9663 259.223 62.8394 259.753 62.8394C260.369 62.8394 260.868 62.9565 261.252 63.1909C261.633 63.4253 261.824 63.7899 261.824 64.2847V67.2974C261.824 67.3885 261.842 67.4618 261.877 67.5171C261.917 67.5724 261.996 67.6001 262.117 67.6001C262.156 67.6001 262.2 67.5985 262.249 67.5952C262.297 67.5887 262.349 67.5806 262.405 67.5708V68.2202C262.268 68.2593 262.164 68.2837 262.092 68.2935C262.021 68.3032 261.923 68.3081 261.799 68.3081C261.497 68.3081 261.277 68.2007 261.14 67.9858C261.069 67.8719 261.018 67.7108 260.989 67.5024C260.81 67.7368 260.553 67.9403 260.217 68.1128C259.882 68.2853 259.513 68.3716 259.109 68.3716C258.624 68.3716 258.227 68.2251 257.918 67.9321C257.612 67.6359 257.459 67.2664 257.459 66.8237C257.459 66.3387 257.61 65.9627 257.913 65.6958C258.215 65.4289 258.612 65.2645 259.104 65.2026L260.505 65.0269Z" fill="#A3A3A3"/>
<path d="M536.802 257.663H537.949L541.572 263.474V257.663H542.495V264.836H541.406L537.729 259.03V264.836H536.802V257.663ZM546.089 259.489C546.46 259.489 546.819 259.577 547.168 259.753C547.516 259.925 547.781 260.15 547.964 260.427C548.139 260.69 548.257 260.998 548.315 261.35C548.367 261.59 548.393 261.975 548.393 262.502H544.56C544.577 263.033 544.702 263.459 544.936 263.781C545.171 264.1 545.534 264.26 546.025 264.26C546.484 264.26 546.85 264.108 547.124 263.806C547.28 263.63 547.391 263.426 547.456 263.195H548.32C548.297 263.387 548.221 263.602 548.091 263.84C547.964 264.074 547.82 264.266 547.661 264.416C547.394 264.676 547.064 264.852 546.67 264.943C546.458 264.995 546.219 265.021 545.952 265.021C545.301 265.021 544.749 264.785 544.297 264.313C543.844 263.838 543.618 263.174 543.618 262.321C543.618 261.481 543.846 260.799 544.302 260.275C544.757 259.751 545.353 259.489 546.089 259.489ZM547.49 261.804C547.454 261.423 547.371 261.118 547.241 260.891C547 260.467 546.598 260.256 546.035 260.256C545.631 260.256 545.293 260.402 545.019 260.695C544.746 260.985 544.601 261.354 544.585 261.804H547.49ZM549.653 258.146H550.542V259.606H551.377V260.324H550.542V263.737C550.542 263.92 550.604 264.042 550.727 264.104C550.796 264.139 550.91 264.157 551.069 264.157C551.111 264.157 551.157 264.157 551.206 264.157C551.255 264.154 551.312 264.149 551.377 264.143V264.836C551.276 264.865 551.17 264.886 551.059 264.899C550.952 264.912 550.835 264.919 550.708 264.919C550.298 264.919 550.019 264.815 549.873 264.606C549.726 264.395 549.653 264.121 549.653 263.786V260.324H548.945V259.606H549.653V258.146ZM552.666 259.606L553.672 263.728L554.692 259.606H555.678L556.704 263.703L557.773 259.606H558.652L557.134 264.836H556.22L555.156 260.788L554.126 264.836H553.213L551.704 259.606H552.666ZM561.562 264.27C562.145 264.27 562.544 264.05 562.759 263.61C562.977 263.168 563.086 262.676 563.086 262.136C563.086 261.647 563.008 261.25 562.851 260.944C562.604 260.463 562.177 260.222 561.572 260.222C561.035 260.222 560.644 260.427 560.4 260.837C560.156 261.247 560.034 261.742 560.034 262.321C560.034 262.878 560.156 263.342 560.4 263.713C560.644 264.084 561.032 264.27 561.562 264.27ZM561.596 259.455C562.27 259.455 562.84 259.68 563.305 260.129C563.771 260.578 564.004 261.239 564.004 262.111C564.004 262.954 563.799 263.651 563.388 264.201C562.978 264.751 562.342 265.026 561.479 265.026C560.76 265.026 560.189 264.784 559.765 264.299C559.342 263.811 559.131 263.156 559.131 262.336C559.131 261.457 559.354 260.757 559.8 260.236C560.246 259.715 560.844 259.455 561.596 259.455ZM565.078 259.606H565.913V260.51C565.981 260.334 566.149 260.121 566.416 259.87C566.683 259.616 566.99 259.489 567.339 259.489C567.355 259.489 567.383 259.491 567.422 259.494C567.461 259.497 567.527 259.504 567.622 259.514V260.441C567.57 260.432 567.521 260.425 567.475 260.422C567.433 260.419 567.386 260.417 567.334 260.417C566.891 260.417 566.551 260.56 566.313 260.847C566.076 261.13 565.957 261.457 565.957 261.828V264.836H565.078V259.606ZM568.364 257.663H569.209V261.828L571.465 259.606H572.588L570.586 261.564L572.7 264.836H571.577L569.946 262.199L569.209 262.873V264.836H568.364V257.663ZM576.377 257.663H579.604C580.242 257.663 580.757 257.844 581.147 258.205C581.538 258.563 581.733 259.068 581.733 259.719C581.733 260.279 581.559 260.767 581.211 261.184C580.862 261.597 580.327 261.804 579.604 261.804H577.348V264.836H576.377V257.663ZM580.752 259.724C580.752 259.196 580.556 258.838 580.166 258.649C579.951 258.549 579.656 258.498 579.282 258.498H577.348V260.983H579.282C579.718 260.983 580.071 260.891 580.342 260.705C580.615 260.52 580.752 260.192 580.752 259.724ZM582.861 259.606H583.696V260.51C583.764 260.334 583.932 260.121 584.199 259.87C584.466 259.616 584.774 259.489 585.122 259.489C585.138 259.489 585.166 259.491 585.205 259.494C585.244 259.497 585.311 259.504 585.405 259.514V260.441C585.353 260.432 585.304 260.425 585.259 260.422C585.216 260.419 585.169 260.417 585.117 260.417C584.674 260.417 584.334 260.56 584.096 260.847C583.859 261.13 583.74 261.457 583.74 261.828V264.836H582.861V259.606ZM588.242 264.27C588.825 264.27 589.223 264.05 589.438 263.61C589.656 263.168 589.765 262.676 589.765 262.136C589.765 261.647 589.687 261.25 589.531 260.944C589.284 260.463 588.857 260.222 588.252 260.222C587.715 260.222 587.324 260.427 587.08 260.837C586.836 261.247 586.714 261.742 586.714 262.321C586.714 262.878 586.836 263.342 587.08 263.713C587.324 264.084 587.711 264.27 588.242 264.27ZM588.276 259.455C588.95 259.455 589.52 259.68 589.985 260.129C590.451 260.578 590.683 261.239 590.683 262.111C590.683 262.954 590.478 263.651 590.068 264.201C589.658 264.751 589.022 265.026 588.159 265.026C587.44 265.026 586.868 264.784 586.445 264.299C586.022 263.811 585.81 263.156 585.81 262.336C585.81 261.457 586.033 260.757 586.479 260.236C586.925 259.715 587.524 259.455 588.276 259.455ZM591.909 258.146H592.798V259.606H593.633V260.324H592.798V263.737C592.798 263.92 592.859 264.042 592.983 264.104C593.052 264.139 593.165 264.157 593.325 264.157C593.367 264.157 593.413 264.157 593.462 264.157C593.51 264.154 593.567 264.149 593.633 264.143V264.836C593.532 264.865 593.426 264.886 593.315 264.899C593.208 264.912 593.091 264.919 592.964 264.919C592.553 264.919 592.275 264.815 592.129 264.606C591.982 264.395 591.909 264.121 591.909 263.786V260.324H591.201V259.606H591.909V258.146ZM596.592 264.27C597.174 264.27 597.573 264.05 597.788 263.61C598.006 263.168 598.115 262.676 598.115 262.136C598.115 261.647 598.037 261.25 597.881 260.944C597.633 260.463 597.207 260.222 596.601 260.222C596.064 260.222 595.674 260.427 595.429 260.837C595.185 261.247 595.063 261.742 595.063 262.321C595.063 262.878 595.185 263.342 595.429 263.713C595.674 264.084 596.061 264.27 596.592 264.27ZM596.626 259.455C597.3 259.455 597.869 259.68 598.335 260.129C598.8 260.578 599.033 261.239 599.033 262.111C599.033 262.954 598.828 263.651 598.418 264.201C598.008 264.751 597.371 265.026 596.509 265.026C595.789 265.026 595.218 264.784 594.795 264.299C594.371 263.811 594.16 263.156 594.16 262.336C594.16 261.457 594.383 260.757 594.829 260.236C595.275 259.715 595.874 259.455 596.626 259.455ZM602.099 259.455C602.689 259.455 603.167 259.598 603.535 259.885C603.906 260.171 604.129 260.664 604.204 261.364H603.349C603.297 261.042 603.178 260.775 602.993 260.563C602.807 260.349 602.51 260.241 602.099 260.241C601.539 260.241 601.139 260.515 600.898 261.062C600.742 261.416 600.664 261.854 600.664 262.375C600.664 262.899 600.774 263.34 600.996 263.698C601.217 264.056 601.566 264.235 602.041 264.235C602.405 264.235 602.693 264.125 602.905 263.903C603.12 263.679 603.268 263.373 603.349 262.985H604.204C604.106 263.679 603.862 264.187 603.471 264.509C603.081 264.828 602.581 264.987 601.972 264.987C601.289 264.987 600.744 264.738 600.337 264.24C599.93 263.739 599.726 263.114 599.726 262.365C599.726 261.447 599.949 260.733 600.395 260.222C600.841 259.711 601.409 259.455 602.099 259.455ZM607.158 264.27C607.741 264.27 608.139 264.05 608.354 263.61C608.572 263.168 608.681 262.676 608.681 262.136C608.681 261.647 608.603 261.25 608.447 260.944C608.2 260.463 607.773 260.222 607.168 260.222C606.631 260.222 606.24 260.427 605.996 260.837C605.752 261.247 605.63 261.742 605.63 262.321C605.63 262.878 605.752 263.342 605.996 263.713C606.24 264.084 606.627 264.27 607.158 264.27ZM607.192 259.455C607.866 259.455 608.436 259.68 608.901 260.129C609.367 260.578 609.599 261.239 609.599 262.111C609.599 262.954 609.394 263.651 608.984 264.201C608.574 264.751 607.938 265.026 607.075 265.026C606.356 265.026 605.784 264.784 605.361 264.299C604.938 263.811 604.726 263.156 604.726 262.336C604.726 261.457 604.949 260.757 605.395 260.236C605.841 259.715 606.44 259.455 607.192 259.455ZM610.674 257.663H611.552V264.836H610.674V257.663ZM613.398 263.195C613.424 263.488 613.497 263.713 613.618 263.869C613.839 264.152 614.223 264.294 614.77 264.294C615.096 264.294 615.382 264.224 615.63 264.084C615.877 263.941 616.001 263.721 616.001 263.425C616.001 263.2 615.901 263.029 615.703 262.912C615.576 262.84 615.325 262.757 614.951 262.663L614.253 262.487C613.807 262.377 613.478 262.253 613.266 262.116C612.889 261.879 612.7 261.55 612.7 261.13C612.7 260.635 612.877 260.235 613.232 259.929C613.59 259.623 614.07 259.47 614.673 259.47C615.46 259.47 616.028 259.701 616.377 260.163C616.595 260.456 616.701 260.772 616.694 261.11H615.864C615.848 260.912 615.778 260.731 615.654 260.568C615.452 260.337 615.102 260.222 614.604 260.222C614.272 260.222 614.02 260.285 613.847 260.412C613.678 260.539 613.594 260.707 613.594 260.915C613.594 261.143 613.706 261.325 613.93 261.462C614.061 261.543 614.253 261.615 614.507 261.677L615.088 261.818C615.719 261.971 616.142 262.119 616.357 262.263C616.699 262.487 616.87 262.84 616.87 263.322C616.87 263.788 616.692 264.19 616.338 264.528C615.986 264.867 615.449 265.036 614.726 265.036C613.948 265.036 613.397 264.86 613.071 264.509C612.749 264.154 612.576 263.716 612.553 263.195H613.398Z" fill="#A3A3A3"/>
<path d="M865.228 343.944L866.58 349.779L868.201 343.944H869.256L870.877 349.779L872.23 343.944H873.294L871.409 351.117H870.389L868.734 345.17L867.069 351.117H866.048L864.173 343.944H865.228ZM876.082 345.771C876.453 345.771 876.813 345.858 877.161 346.034C877.51 346.207 877.775 346.431 877.957 346.708C878.133 346.972 878.25 347.279 878.309 347.631C878.361 347.872 878.387 348.256 878.387 348.783H874.554C874.57 349.314 874.695 349.74 874.93 350.062C875.164 350.382 875.527 350.541 876.019 350.541C876.478 350.541 876.844 350.39 877.117 350.087C877.274 349.911 877.384 349.708 877.449 349.477H878.314C878.291 349.669 878.214 349.883 878.084 350.121C877.957 350.355 877.814 350.548 877.654 350.697C877.388 350.958 877.057 351.133 876.663 351.225C876.452 351.277 876.212 351.303 875.945 351.303C875.294 351.303 874.743 351.067 874.29 350.595C873.838 350.119 873.611 349.455 873.611 348.603C873.611 347.763 873.839 347.081 874.295 346.557C874.751 346.033 875.347 345.771 876.082 345.771ZM877.484 348.085C877.448 347.704 877.365 347.4 877.235 347.172C876.994 346.749 876.592 346.537 876.028 346.537C875.625 346.537 875.286 346.684 875.013 346.977C874.739 347.266 874.595 347.636 874.578 348.085H877.484ZM879.403 343.92H880.257V346.522C880.449 346.272 880.679 346.081 880.945 345.951C881.212 345.818 881.502 345.751 881.815 345.751C882.466 345.751 882.993 345.976 883.397 346.425C883.804 346.871 884.007 347.53 884.007 348.402C884.007 349.229 883.807 349.916 883.406 350.463C883.006 351.01 882.451 351.283 881.741 351.283C881.344 351.283 881.009 351.187 880.736 350.995C880.573 350.881 880.399 350.699 880.213 350.448V351.117H879.403V343.92ZM881.688 350.507C882.163 350.507 882.518 350.318 882.752 349.94C882.99 349.563 883.109 349.065 883.109 348.446C883.109 347.896 882.99 347.44 882.752 347.079C882.518 346.718 882.171 346.537 881.712 346.537C881.312 346.537 880.96 346.685 880.657 346.981C880.358 347.278 880.208 347.766 880.208 348.446C880.208 348.938 880.27 349.337 880.394 349.643C880.625 350.219 881.056 350.507 881.688 350.507Z" fill="#A3A3A3"/>
<path d="M1053.08 594.76H1058.05V595.639H1054.05V597.817H1057.57V598.671H1054.05V601.933H1053.08V594.76ZM1058.98 596.728H1059.87V601.933H1058.98V596.728ZM1058.98 594.76H1059.87V595.756H1058.98V594.76ZM1061.23 594.76H1062.11V601.933H1061.23V594.76ZM1065.61 596.586C1065.98 596.586 1066.34 596.674 1066.69 596.85C1067.04 597.023 1067.3 597.247 1067.49 597.524C1067.66 597.788 1067.78 598.095 1067.84 598.447C1067.89 598.688 1067.92 599.072 1067.92 599.599H1064.08C1064.1 600.13 1064.22 600.556 1064.46 600.878C1064.69 601.197 1065.06 601.357 1065.55 601.357C1066.01 601.357 1066.37 601.206 1066.65 600.903C1066.8 600.727 1066.91 600.524 1066.98 600.292H1067.84C1067.82 600.485 1067.74 600.699 1067.61 600.937C1067.49 601.171 1067.34 601.363 1067.18 601.513C1066.92 601.774 1066.59 601.949 1066.19 602.041C1065.98 602.093 1065.74 602.119 1065.47 602.119C1064.82 602.119 1064.27 601.883 1063.82 601.411C1063.37 600.935 1063.14 600.271 1063.14 599.418C1063.14 598.579 1063.37 597.897 1063.82 597.373C1064.28 596.848 1064.87 596.586 1065.61 596.586ZM1067.01 598.901C1066.98 598.52 1066.89 598.216 1066.76 597.988C1066.52 597.565 1066.12 597.353 1065.56 597.353C1065.15 597.353 1064.81 597.5 1064.54 597.792C1064.27 598.082 1064.12 598.452 1064.11 598.901H1067.01ZM1076.94 594.76V595.615H1074.53V601.933H1073.54V595.615H1071.12V594.76H1076.94ZM1077.37 596.704H1078.21V597.607C1078.28 597.431 1078.44 597.218 1078.71 596.967C1078.98 596.713 1079.29 596.586 1079.63 596.586C1079.65 596.586 1079.68 596.588 1079.72 596.591C1079.76 596.595 1079.82 596.601 1079.92 596.611V597.539C1079.87 597.529 1079.82 597.522 1079.77 597.519C1079.73 597.516 1079.68 597.514 1079.63 597.514C1079.19 597.514 1078.85 597.657 1078.61 597.944C1078.37 598.227 1078.25 598.554 1078.25 598.925V601.933H1077.37V596.704ZM1081.35 600.542C1081.35 600.795 1081.45 600.996 1081.63 601.142C1081.82 601.289 1082.04 601.362 1082.29 601.362C1082.6 601.362 1082.9 601.29 1083.19 601.147C1083.68 600.909 1083.92 600.52 1083.92 599.98V599.272C1083.81 599.34 1083.68 599.397 1083.51 599.443C1083.34 599.488 1083.17 599.521 1083.01 599.541L1082.48 599.609C1082.16 599.651 1081.92 599.718 1081.76 599.809C1081.49 599.962 1081.35 600.206 1081.35 600.542ZM1083.48 598.764C1083.68 598.738 1083.82 598.653 1083.89 598.51C1083.93 598.432 1083.95 598.32 1083.95 598.173C1083.95 597.874 1083.84 597.657 1083.62 597.524C1083.41 597.387 1083.11 597.319 1082.71 597.319C1082.25 597.319 1081.93 597.443 1081.73 597.69C1081.63 597.827 1081.56 598.03 1081.52 598.3H1080.7C1080.72 597.656 1080.93 597.208 1081.33 596.958C1081.73 596.704 1082.2 596.577 1082.73 596.577C1083.34 596.577 1083.84 596.694 1084.23 596.928C1084.61 597.163 1084.8 597.527 1084.8 598.022V601.035C1084.8 601.126 1084.82 601.199 1084.85 601.254C1084.89 601.31 1084.97 601.337 1085.09 601.337C1085.13 601.337 1085.18 601.336 1085.22 601.333C1085.27 601.326 1085.33 601.318 1085.38 601.308V601.958C1085.24 601.997 1085.14 602.021 1085.07 602.031C1085 602.041 1084.9 602.045 1084.78 602.045C1084.47 602.045 1084.25 601.938 1084.12 601.723C1084.04 601.609 1083.99 601.448 1083.97 601.24C1083.79 601.474 1083.53 601.678 1083.19 601.85C1082.86 602.023 1082.49 602.109 1082.09 602.109C1081.6 602.109 1081.2 601.962 1080.89 601.669C1080.59 601.373 1080.43 601.004 1080.43 600.561C1080.43 600.076 1080.59 599.7 1080.89 599.433C1081.19 599.166 1081.59 599.002 1082.08 598.94L1083.48 598.764ZM1086.25 596.704H1087.08V597.446C1087.33 597.14 1087.59 596.92 1087.87 596.787C1088.14 596.653 1088.45 596.586 1088.79 596.586C1089.53 596.586 1090.03 596.845 1090.29 597.363C1090.44 597.646 1090.51 598.051 1090.51 598.579V601.933H1089.61V598.637C1089.61 598.318 1089.57 598.061 1089.47 597.866C1089.32 597.54 1089.03 597.377 1088.62 597.377C1088.41 597.377 1088.24 597.399 1088.11 597.441C1087.87 597.513 1087.66 597.656 1087.48 597.871C1087.33 598.043 1087.23 598.222 1087.19 598.408C1087.15 598.59 1087.12 598.852 1087.12 599.194V601.933H1086.25V596.704ZM1092.33 600.292C1092.36 600.585 1092.43 600.81 1092.55 600.966C1092.78 601.25 1093.16 601.391 1093.71 601.391C1094.03 601.391 1094.32 601.321 1094.57 601.181C1094.81 601.038 1094.94 600.818 1094.94 600.522C1094.94 600.297 1094.84 600.126 1094.64 600.009C1094.51 599.938 1094.26 599.855 1093.89 599.76L1093.19 599.584C1092.74 599.474 1092.41 599.35 1092.2 599.213C1091.82 598.976 1091.64 598.647 1091.64 598.227C1091.64 597.732 1091.81 597.332 1092.17 597.026C1092.53 596.72 1093.01 596.567 1093.61 596.567C1094.4 596.567 1094.96 596.798 1095.31 597.26C1095.53 597.553 1095.64 597.869 1095.63 598.208H1094.8C1094.78 598.009 1094.71 597.828 1094.59 597.666C1094.39 597.434 1094.04 597.319 1093.54 597.319C1093.21 597.319 1092.96 597.382 1092.78 597.509C1092.61 597.636 1092.53 597.804 1092.53 598.012C1092.53 598.24 1092.64 598.422 1092.87 598.559C1093 598.64 1093.19 598.712 1093.44 598.774L1094.02 598.916C1094.66 599.069 1095.08 599.217 1095.29 599.36C1095.63 599.584 1095.81 599.938 1095.81 600.419C1095.81 600.885 1095.63 601.287 1095.27 601.625C1094.92 601.964 1094.38 602.133 1093.66 602.133C1092.88 602.133 1092.33 601.958 1092.01 601.606C1091.68 601.251 1091.51 600.813 1091.49 600.292H1092.33ZM1097.03 595.908C1097.04 595.543 1097.11 595.276 1097.22 595.107C1097.43 594.807 1097.82 594.658 1098.41 594.658C1098.46 594.658 1098.52 594.659 1098.58 594.663C1098.64 594.666 1098.7 594.671 1098.78 594.677V595.478C1098.69 595.472 1098.62 595.468 1098.58 595.468C1098.54 595.465 1098.5 595.463 1098.47 595.463C1098.2 595.463 1098.04 595.533 1097.99 595.673C1097.94 595.81 1097.91 596.162 1097.91 596.728H1098.78V597.421H1097.9V601.933H1097.03V597.421H1096.3V596.728H1097.03V595.908ZM1101.77 596.586C1102.14 596.586 1102.5 596.674 1102.85 596.85C1103.2 597.023 1103.47 597.247 1103.65 597.524C1103.82 597.788 1103.94 598.095 1104 598.447C1104.05 598.688 1104.08 599.072 1104.08 599.599H1100.24C1100.26 600.13 1100.39 600.556 1100.62 600.878C1100.85 601.197 1101.22 601.357 1101.71 601.357C1102.17 601.357 1102.53 601.206 1102.81 600.903C1102.96 600.727 1103.07 600.524 1103.14 600.292H1104C1103.98 600.485 1103.9 600.699 1103.77 600.937C1103.65 601.171 1103.5 601.363 1103.34 601.513C1103.08 601.774 1102.75 601.949 1102.35 602.041C1102.14 602.093 1101.9 602.119 1101.64 602.119C1100.98 602.119 1100.43 601.883 1099.98 601.411C1099.53 600.935 1099.3 600.271 1099.3 599.418C1099.3 598.579 1099.53 597.897 1099.99 597.373C1100.44 596.848 1101.04 596.586 1101.77 596.586ZM1103.17 598.901C1103.14 598.52 1103.06 598.216 1102.92 597.988C1102.68 597.565 1102.28 597.353 1101.72 597.353C1101.32 597.353 1100.98 597.5 1100.7 597.792C1100.43 598.082 1100.29 598.452 1100.27 598.901H1103.17ZM1105.19 596.704H1106.02V597.607C1106.09 597.431 1106.26 597.218 1106.52 596.967C1106.79 596.713 1107.1 596.586 1107.45 596.586C1107.46 596.586 1107.49 596.588 1107.53 596.591C1107.57 596.595 1107.64 596.601 1107.73 596.611V597.539C1107.68 597.529 1107.63 597.522 1107.58 597.519C1107.54 597.516 1107.49 597.514 1107.44 597.514C1107 597.514 1106.66 597.657 1106.42 597.944C1106.18 598.227 1106.06 598.554 1106.06 598.925V601.933H1105.19V596.704Z" fill="#A3A3A3"/>
<path d="M1229.96 3.04883V2.375C1230.6 2.31315 1231.04 2.21061 1231.29 2.06738C1231.54 1.9209 1231.73 1.57747 1231.85 1.03711H1232.55V8H1231.61V3.04883H1229.96ZM1237.88 5.52441V2.35547L1235.64 5.52441H1237.88ZM1237.89 8V6.29102H1234.83V5.43164L1238.03 0.988281H1238.77V5.52441H1239.8V6.29102H1238.77V8H1237.89ZM1242.85 1.00781C1243.75 1.00781 1244.4 1.38053 1244.81 2.12598C1245.12 2.70215 1245.28 3.49154 1245.28 4.49414C1245.28 5.44466 1245.14 6.23079 1244.85 6.85254C1244.44 7.74447 1243.77 8.19043 1242.84 8.19043C1242 8.19043 1241.38 7.82585 1240.97 7.09668C1240.62 6.48796 1240.45 5.6709 1240.45 4.64551C1240.45 3.85124 1240.56 3.16927 1240.76 2.59961C1241.14 1.53841 1241.84 1.00781 1242.85 1.00781ZM1242.84 7.38965C1243.29 7.38965 1243.65 7.18783 1243.92 6.78418C1244.19 6.38053 1244.33 5.62858 1244.33 4.52832C1244.33 3.73405 1244.23 3.08138 1244.04 2.57031C1243.84 2.05599 1243.46 1.79883 1242.9 1.79883C1242.38 1.79883 1242 2.04297 1241.76 2.53125C1241.52 3.01628 1241.41 3.73242 1241.41 4.67969C1241.41 5.39258 1241.48 5.96549 1241.63 6.39844C1241.87 7.05924 1242.27 7.38965 1242.84 7.38965Z" fill="#A3A3A3"/>
<path d="M1229.96 89.7241V89.0503C1230.6 88.9884 1231.04 88.8859 1231.29 88.7427C1231.54 88.5962 1231.73 88.2528 1231.85 87.7124H1232.55V94.6753H1231.61V89.7241H1229.96ZM1234.89 94.6753C1234.92 94.0731 1235.04 93.549 1235.26 93.103C1235.48 92.6571 1235.9 92.2518 1236.53 91.8872L1237.46 91.3452C1237.88 91.1011 1238.18 90.8927 1238.35 90.7202C1238.62 90.45 1238.75 90.1408 1238.75 89.7925C1238.75 89.3856 1238.63 89.0633 1238.38 88.8257C1238.14 88.5848 1237.81 88.4644 1237.41 88.4644C1236.8 88.4644 1236.39 88.6922 1236.16 89.1479C1236.03 89.3921 1235.96 89.7306 1235.95 90.1636H1235.06C1235.07 89.5549 1235.18 89.0584 1235.39 88.6743C1235.78 87.9972 1236.45 87.6587 1237.41 87.6587C1238.21 87.6587 1238.8 87.8752 1239.16 88.3081C1239.54 88.741 1239.72 89.2228 1239.72 89.7534C1239.72 90.3133 1239.52 90.7918 1239.13 91.189C1238.9 91.4201 1238.49 91.7 1237.9 92.0288L1237.24 92.3999C1236.92 92.5757 1236.67 92.7433 1236.48 92.9028C1236.16 93.186 1235.95 93.5002 1235.87 93.8452H1239.69V94.6753H1234.89ZM1242.85 87.6831C1243.75 87.6831 1244.4 88.0558 1244.81 88.8013C1245.12 89.3774 1245.28 90.1668 1245.28 91.1694C1245.28 92.12 1245.14 92.9061 1244.85 93.5278C1244.44 94.4198 1243.77 94.8657 1242.84 94.8657C1242 94.8657 1241.38 94.5011 1240.97 93.772C1240.62 93.1632 1240.45 92.3462 1240.45 91.3208C1240.45 90.5265 1240.56 89.8446 1240.76 89.2749C1241.14 88.2137 1241.84 87.6831 1242.85 87.6831ZM1242.84 94.0649C1243.29 94.0649 1243.65 93.8631 1243.92 93.4595C1244.19 93.0558 1244.33 92.3039 1244.33 91.2036C1244.33 90.4093 1244.23 89.7567 1244.04 89.2456C1243.84 88.7313 1243.46 88.4741 1242.9 88.4741C1242.38 88.4741 1242 88.7183 1241.76 89.2065C1241.52 89.6916 1241.41 90.4077 1241.41 91.355C1241.41 92.0679 1241.48 92.6408 1241.63 93.0737C1241.87 93.7345 1242.27 94.0649 1242.84 94.0649Z" fill="#A3A3A3"/>
<path d="M1229.96 174.232V173.559C1230.6 173.497 1231.04 173.394 1231.29 173.251C1231.54 173.104 1231.73 172.761 1231.85 172.221H1232.55V179.184H1231.61V174.232H1229.96ZM1237.28 172.191C1238.18 172.191 1238.84 172.564 1239.24 173.31C1239.55 173.886 1239.71 174.675 1239.71 175.678C1239.71 176.628 1239.57 177.414 1239.29 178.036C1238.88 178.928 1238.21 179.374 1237.27 179.374C1236.43 179.374 1235.81 179.009 1235.4 178.28C1235.06 177.672 1234.89 176.854 1234.89 175.829C1234.89 175.035 1234.99 174.353 1235.19 173.783C1235.58 172.722 1236.27 172.191 1237.28 172.191ZM1237.27 178.573C1237.73 178.573 1238.09 178.371 1238.36 177.968C1238.63 177.564 1238.76 176.812 1238.76 175.712C1238.76 174.918 1238.67 174.265 1238.47 173.754C1238.28 173.24 1237.9 172.982 1237.33 172.982C1236.82 172.982 1236.44 173.227 1236.2 173.715C1235.96 174.2 1235.84 174.916 1235.84 175.863C1235.84 176.576 1235.92 177.149 1236.07 177.582C1236.3 178.243 1236.7 178.573 1237.27 178.573ZM1242.85 172.191C1243.75 172.191 1244.4 172.564 1244.81 173.31C1245.12 173.886 1245.28 174.675 1245.28 175.678C1245.28 176.628 1245.14 177.414 1244.85 178.036C1244.44 178.928 1243.77 179.374 1242.84 179.374C1242 179.374 1241.38 179.009 1240.97 178.28C1240.62 177.672 1240.45 176.854 1240.45 175.829C1240.45 175.035 1240.56 174.353 1240.76 173.783C1241.14 172.722 1241.84 172.191 1242.85 172.191ZM1242.84 178.573C1243.29 178.573 1243.65 178.371 1243.92 177.968C1244.19 177.564 1244.33 176.812 1244.33 175.712C1244.33 174.918 1244.23 174.265 1244.04 173.754C1243.84 173.24 1243.46 172.982 1242.9 172.982C1242.38 172.982 1242 173.227 1241.76 173.715C1241.52 174.2 1241.41 174.916 1241.41 175.863C1241.41 176.576 1241.48 177.149 1241.63 177.582C1241.87 178.243 1242.27 178.573 1242.84 178.573Z" fill="#A3A3A3"/>
<path d="M1231.73 259.63C1232.11 259.63 1232.42 259.522 1232.64 259.308C1232.85 259.09 1232.96 258.831 1232.96 258.531C1232.96 258.271 1232.86 258.032 1232.65 257.813C1232.44 257.595 1232.12 257.486 1231.7 257.486C1231.28 257.486 1230.97 257.595 1230.78 257.813C1230.59 258.032 1230.5 258.287 1230.5 258.58C1230.5 258.909 1230.62 259.166 1230.86 259.352C1231.11 259.537 1231.4 259.63 1231.73 259.63ZM1231.78 263.092C1232.19 263.092 1232.53 262.983 1232.79 262.765C1233.06 262.543 1233.2 262.215 1233.2 261.778C1233.2 261.326 1233.06 260.982 1232.78 260.748C1232.51 260.514 1232.15 260.396 1231.72 260.396C1231.3 260.396 1230.95 260.517 1230.69 260.758C1230.42 260.995 1230.29 261.326 1230.29 261.749C1230.29 262.114 1230.41 262.429 1230.65 262.696C1230.9 262.96 1231.27 263.092 1231.78 263.092ZM1230.53 259.967C1230.29 259.863 1230.1 259.741 1229.96 259.601C1229.7 259.34 1229.57 259.002 1229.57 258.585C1229.57 258.064 1229.76 257.617 1230.14 257.242C1230.52 256.868 1231.05 256.681 1231.75 256.681C1232.42 256.681 1232.94 256.858 1233.32 257.213C1233.71 257.564 1233.9 257.976 1233.9 258.448C1233.9 258.884 1233.78 259.238 1233.56 259.508C1233.44 259.661 1233.25 259.811 1232.99 259.957C1233.28 260.09 1233.5 260.243 1233.67 260.416C1233.98 260.742 1234.13 261.165 1234.13 261.686C1234.13 262.301 1233.93 262.823 1233.51 263.253C1233.1 263.679 1232.52 263.893 1231.76 263.893C1231.08 263.893 1230.51 263.709 1230.03 263.341C1229.56 262.97 1229.33 262.433 1229.33 261.729C1229.33 261.316 1229.43 260.96 1229.63 260.66C1229.83 260.357 1230.13 260.126 1230.53 259.967ZM1237.28 256.7C1238.18 256.7 1238.84 257.073 1239.24 257.818C1239.55 258.395 1239.71 259.184 1239.71 260.187C1239.71 261.137 1239.57 261.923 1239.29 262.545C1238.88 263.437 1238.21 263.883 1237.27 263.883C1236.43 263.883 1235.81 263.518 1235.4 262.789C1235.06 262.18 1234.89 261.363 1234.89 260.338C1234.89 259.544 1234.99 258.862 1235.19 258.292C1235.58 257.231 1236.27 256.7 1237.28 256.7ZM1237.27 263.082C1237.73 263.082 1238.09 262.88 1238.36 262.477C1238.63 262.073 1238.76 261.321 1238.76 260.221C1238.76 259.426 1238.67 258.774 1238.47 258.263C1238.28 257.748 1237.9 257.491 1237.33 257.491C1236.82 257.491 1236.44 257.735 1236.2 258.224C1235.96 258.709 1235.84 259.425 1235.84 260.372C1235.84 261.085 1235.92 261.658 1236.07 262.091C1236.3 262.752 1236.7 263.082 1237.27 263.082Z" fill="#A3A3A3"/>
<path d="M1231.93 343.346C1232.71 343.346 1233.26 343.55 1233.56 343.957C1233.87 344.36 1234.03 344.777 1234.03 345.207H1233.16C1233.11 344.93 1233.02 344.713 1232.91 344.557C1232.7 344.264 1232.38 344.118 1231.95 344.118C1231.46 344.118 1231.07 344.346 1230.78 344.801C1230.49 345.254 1230.32 345.903 1230.29 346.75C1230.49 346.453 1230.75 346.232 1231.05 346.085C1231.33 345.955 1231.65 345.89 1231.99 345.89C1232.58 345.89 1233.09 346.077 1233.52 346.452C1233.96 346.826 1234.18 347.384 1234.18 348.126C1234.18 348.761 1233.97 349.324 1233.56 349.816C1233.15 350.304 1232.56 350.548 1231.79 350.548C1231.14 350.548 1230.57 350.301 1230.1 349.806C1229.62 349.308 1229.38 348.472 1229.38 347.296C1229.38 346.427 1229.49 345.69 1229.7 345.084C1230.11 343.926 1230.85 343.346 1231.93 343.346ZM1231.87 349.767C1232.33 349.767 1232.68 349.612 1232.9 349.303C1233.14 348.991 1233.25 348.623 1233.25 348.2C1233.25 347.842 1233.15 347.501 1232.94 347.179C1232.74 346.854 1232.37 346.691 1231.83 346.691C1231.45 346.691 1231.12 346.816 1230.83 347.067C1230.55 347.318 1230.4 347.695 1230.4 348.2C1230.4 348.642 1230.53 349.015 1230.79 349.318C1231.05 349.617 1231.41 349.767 1231.87 349.767ZM1237.28 343.375C1238.18 343.375 1238.84 343.748 1239.24 344.494C1239.55 345.07 1239.71 345.859 1239.71 346.862C1239.71 347.812 1239.57 348.598 1239.29 349.22C1238.88 350.112 1238.21 350.558 1237.27 350.558C1236.43 350.558 1235.81 350.194 1235.4 349.464C1235.06 348.856 1234.89 348.039 1234.89 347.013C1234.89 346.219 1234.99 345.537 1235.19 344.967C1235.58 343.906 1236.27 343.375 1237.28 343.375ZM1237.27 349.757C1237.73 349.757 1238.09 349.556 1238.36 349.152C1238.63 348.748 1238.76 347.996 1238.76 346.896C1238.76 346.102 1238.67 345.449 1238.47 344.938C1238.28 344.424 1237.9 344.167 1237.33 344.167C1236.82 344.167 1236.44 344.411 1236.2 344.899C1235.96 345.384 1235.84 346.1 1235.84 347.047C1235.84 347.76 1235.92 348.333 1236.07 348.766C1236.3 349.427 1236.7 349.757 1237.27 349.757Z" fill="#A3A3A3"/>
<path d="M1232.31 432.401V429.232L1230.07 432.401H1232.31ZM1232.33 434.876V433.167H1229.26V432.308L1232.46 427.865H1233.21V432.401H1234.24V433.167H1233.21V434.876H1232.33ZM1237.28 427.884C1238.18 427.884 1238.84 428.257 1239.24 429.002C1239.55 429.579 1239.71 430.368 1239.71 431.371C1239.71 432.321 1239.57 433.107 1239.29 433.729C1238.88 434.621 1238.21 435.067 1237.27 435.067C1236.43 435.067 1235.81 434.702 1235.4 433.973C1235.06 433.364 1234.89 432.547 1234.89 431.522C1234.89 430.728 1234.99 430.046 1235.19 429.476C1235.58 428.415 1236.27 427.884 1237.28 427.884ZM1237.27 434.266C1237.73 434.266 1238.09 434.064 1238.36 433.661C1238.63 433.257 1238.76 432.505 1238.76 431.405C1238.76 430.611 1238.67 429.958 1238.47 429.447C1238.28 428.932 1237.9 428.675 1237.33 428.675C1236.82 428.675 1236.44 428.919 1236.2 429.408C1235.96 429.893 1235.84 430.609 1235.84 431.556C1235.84 432.269 1235.92 432.842 1236.07 433.275C1236.3 433.936 1236.7 434.266 1237.27 434.266Z" fill="#A3A3A3"/>
<path d="M1229.32 519.385C1229.35 518.783 1229.48 518.259 1229.69 517.813C1229.91 517.367 1230.33 516.962 1230.96 516.597L1231.9 516.055C1232.32 515.811 1232.61 515.603 1232.78 515.43C1233.05 515.16 1233.18 514.851 1233.18 514.502C1233.18 514.096 1233.06 513.773 1232.82 513.536C1232.57 513.295 1232.25 513.174 1231.84 513.174C1231.24 513.174 1230.82 513.402 1230.59 513.858C1230.47 514.102 1230.4 514.441 1230.38 514.874H1229.49C1229.5 514.265 1229.61 513.768 1229.83 513.384C1230.21 512.707 1230.88 512.369 1231.84 512.369C1232.65 512.369 1233.23 512.585 1233.6 513.018C1233.97 513.451 1234.15 513.933 1234.15 514.463C1234.15 515.023 1233.96 515.502 1233.56 515.899C1233.34 516.13 1232.93 516.41 1232.34 516.739L1231.67 517.11C1231.35 517.286 1231.1 517.453 1230.92 517.613C1230.59 517.896 1230.39 518.21 1230.3 518.555H1234.12V519.385H1229.32ZM1237.28 512.393C1238.18 512.393 1238.84 512.766 1239.24 513.511C1239.55 514.087 1239.71 514.877 1239.71 515.879C1239.71 516.83 1239.57 517.616 1239.29 518.238C1238.88 519.13 1238.21 519.576 1237.27 519.576C1236.43 519.576 1235.81 519.211 1235.4 518.482C1235.06 517.873 1234.89 517.056 1234.89 516.031C1234.89 515.236 1234.99 514.555 1235.19 513.985C1235.58 512.924 1236.27 512.393 1237.28 512.393ZM1237.27 518.775C1237.73 518.775 1238.09 518.573 1238.36 518.169C1238.63 517.766 1238.76 517.014 1238.76 515.914C1238.76 515.119 1238.67 514.467 1238.47 513.956C1238.28 513.441 1237.9 513.184 1237.33 513.184C1236.82 513.184 1236.44 513.428 1236.2 513.917C1235.96 514.402 1235.84 515.118 1235.84 516.065C1235.84 516.778 1235.92 517.351 1236.07 517.784C1236.3 518.444 1236.7 518.775 1237.27 518.775Z" fill="#A3A3A3"/>
<path d="M1231.71 596.901C1232.62 596.901 1233.27 597.274 1233.68 598.02C1233.99 598.596 1234.14 599.385 1234.14 600.388C1234.14 601.338 1234 602.124 1233.72 602.746C1233.31 603.638 1232.64 604.084 1231.71 604.084C1230.87 604.084 1230.24 603.719 1229.83 602.99C1229.49 602.382 1229.32 601.564 1229.32 600.539C1229.32 599.745 1229.42 599.063 1229.63 598.493C1230.01 597.432 1230.71 596.901 1231.71 596.901ZM1231.7 603.283C1232.16 603.283 1232.52 603.081 1232.79 602.678C1233.06 602.274 1233.2 601.522 1233.2 600.422C1233.2 599.628 1233.1 598.975 1232.9 598.464C1232.71 597.95 1232.33 597.692 1231.77 597.692C1231.25 597.692 1230.87 597.937 1230.63 598.425C1230.39 598.91 1230.27 599.626 1230.27 600.573C1230.27 601.286 1230.35 601.859 1230.5 602.292C1230.74 602.953 1231.14 603.283 1231.7 603.283Z" fill="#A3A3A3"/>
<path d="M96.002 75.8408C96.002 75.8408 278.087 292.529 460.173 292.529C644.787 292.529 644.787 379.205 826.872 379.205C1008.96 379.205 1193.57 600.227 1193.57 600.227" stroke="#A6CEE3" stroke-width="2"/>
<path d="M85.9846 76.6163C85.9846 78.915 87.0505 81.119 88.9476 82.7445C90.8447 84.37 93.4176 85.2838 96.1005 85.2838C98.7834 85.2838 101.356 84.37 103.253 82.7445C105.15 81.119 106.216 78.915 106.216 76.6163C106.216 74.3175 105.15 72.1125 103.253 70.487C101.356 68.8615 98.7834 67.9487 96.1005 67.9487C93.4176 67.9487 90.8447 68.8615 88.9476 70.487C87.0505 72.1125 85.9846 74.3175 85.9846 76.6163Z" fill="#A6CEE3"/>
<path d="M451.842 294.116C451.842 296.415 452.907 298.619 454.804 300.244C456.701 301.87 459.275 302.784 461.958 302.784C464.641 302.784 467.213 301.87 469.11 300.244C471.008 298.619 472.074 296.415 472.074 294.116C472.074 291.817 471.008 289.612 469.11 287.987C467.213 286.362 464.641 285.449 461.958 285.449C459.275 285.449 456.701 286.362 454.804 287.987C452.907 289.612 451.842 291.817 451.842 294.116Z" fill="#A6CEE3"/>
<path d="M817.698 379.669C817.698 381.968 818.764 384.173 820.661 385.799C822.558 387.424 825.131 388.337 827.814 388.337C830.497 388.337 833.07 387.424 834.967 385.799C836.864 384.173 837.93 381.968 837.93 379.669C837.93 377.371 836.864 375.167 834.967 373.541C833.07 371.916 830.497 371.002 827.814 371.002C825.131 371.002 822.558 371.916 820.661 373.541C818.764 375.167 817.698 377.371 817.698 379.669Z" fill="#A6CEE3"/>
<path d="M1183.55 601.938C1183.55 604.237 1184.62 606.442 1186.52 608.067C1188.41 609.693 1190.99 610.606 1193.67 610.606C1196.35 610.606 1198.93 609.693 1200.82 608.067C1202.72 606.442 1203.79 604.237 1203.79 601.938C1203.79 599.639 1202.72 597.434 1200.82 595.809C1198.93 594.183 1196.35 593.271 1193.67 593.271C1190.99 593.271 1188.41 594.183 1186.52 595.809C1184.62 597.434 1183.55 599.639 1183.55 601.938Z" fill="#A6CEE3"/>
</svg>
