<svg width="951" height="325" viewBox="0 0 951 325" fill="none" xmlns="http://www.w3.org/2000/svg">
<path d="M48.1218 111.157C44.7944 110.977 41.6632 109.526 39.3747 107.103C36.6367 104.469 34.1935 101.545 32.0881 98.3827C28.7992 93.6732 26.1994 88.5183 24.3675 83.074C22.2943 77.2168 21.2036 71.0571 21.1396 64.8442C20.9785 58.7479 22.4882 52.7238 25.5052 47.424C27.7149 43.6039 30.8667 40.4139 34.6598 38.1583C38.411 35.9123 42.6916 34.7034 47.0635 34.6552C50.3592 34.8502 53.5979 35.6035 56.6414 36.883C59.0703 37.9519 61.6208 38.7033 64.2402 39.1161C67.1296 38.5108 69.9529 37.6247 72.6698 36.4703C75.8854 35.2147 79.29 34.5116 82.7399 34.3906C83.2003 34.3906 83.6553 34.3906 84.0946 34.4435C91.6616 34.6605 98.6996 38.3753 103.145 44.4977C99.6755 46.3531 96.7889 49.1342 94.8056 52.5318C92.8224 55.9294 91.8201 59.8105 91.9103 63.7435C91.8757 66.7509 92.479 69.7316 93.6802 72.4889C94.8815 75.2462 96.6535 77.7176 98.8795 79.7402C100.906 81.6717 103.266 83.2168 105.843 84.3069C105.314 85.8944 104.706 87.429 104.06 88.9742C102.594 92.3887 100.786 95.6456 98.6625 98.695C96.6548 101.75 94.3178 104.575 91.6934 107.119C89.2996 109.495 86.1086 110.896 82.7399 111.051C79.8843 110.924 77.079 110.255 74.4743 109.077C71.6655 107.854 68.647 107.183 65.5843 107.103C62.4352 107.165 59.3274 107.832 56.4297 109.067C53.927 110.196 51.2531 110.899 48.5187 111.146L48.1218 111.157V111.157ZM64.7906 34.3906C64.3937 34.3906 63.9968 34.3906 63.5999 34.343C63.5165 33.7131 63.4723 33.0787 63.4676 32.4433C63.6407 27.1576 65.7064 22.1099 69.2885 18.2193C71.292 15.9833 73.7204 14.1683 76.4322 12.88C78.9593 11.5791 81.721 10.7964 84.5549 10.5781C84.6343 11.2713 84.6343 11.9487 84.6343 12.5943C84.5599 17.7968 82.6051 22.7967 79.131 26.6701C77.4489 28.9255 75.2935 30.7854 72.8161 32.1191C70.3388 33.4529 67.5995 34.2282 64.7906 34.3906V34.3906Z" fill="white"/>
<g clip-path="url(#clip0_396:23)">
<path d="M456.524 15V85.4325C465.215 85.8367 473.882 86.3252 482.526 86.9016V101.835C468.817 100.921 455.094 100.227 441.363 99.7548V15H456.524V15ZM577 15.0084L557.258 60.7629L576.995 111.679L576.973 111.689C571.218 110.87 565.458 110.092 559.693 109.353L548.61 80.7758L537.421 106.7C532.118 106.115 526.809 105.561 521.487 105.041L540.732 60.4564L523.107 15.0091H539.507L549.375 40.4428L560.348 15.0084H577ZM389.331 99.0146V15.0077H431.652V30.0751H404.492V49.6016H425.042V64.5347H404.492V99.0118L389.331 99.0146V99.0146ZM332.72 30.0758V15.007H379.611V30.0751H363.745V99.423C358.685 99.5566 353.63 99.7126 348.586 99.9031V30.0758H332.72ZM280.891 104.244V15.0098H323.001V30.0765H296.05V50.4858C302.242 50.4064 311.046 50.3171 316.523 50.3298V65.2643C309.667 65.1799 301.927 65.3585 296.05 65.4168V88.0248C305.027 87.3176 314.011 86.7037 323.001 86.1832V101.118C308.948 101.928 294.91 102.971 280.891 104.246V104.244ZM251.151 69.7235L251.151 15.007H266.311V105.653C260.769 106.222 255.237 106.829 249.715 107.469L232.159 57.0502V109.628C227.096 110.288 222.043 110.974 216.999 111.692V15.0084H231.407L251.151 69.7235H251.151ZM495.033 102.735V15.0084H510.194V103.987C505.147 103.537 500.095 103.122 495.033 102.736V102.735Z" fill="#DB202C"/>
</g>
<path d="M688.288 68.2541C687.463 67.1221 686.59 66.1905 686.59 64.0798V57.0756C686.59 54.0923 686.802 51.3684 684.609 49.3167C682.888 47.6658 680.022 47.0763 677.829 47.0763C673.549 47.0763 668.761 48.6799 667.759 53.9744C667.653 54.5286 668.066 54.8234 668.431 54.9177L672.794 55.3894C673.207 55.3658 673.501 54.9649 673.584 54.564C673.961 52.7362 675.482 51.8519 677.204 51.8519C678.136 51.8519 679.185 52.2056 679.727 53.0193C680.364 53.9508 680.282 55.2125 680.282 56.2855V56.8751C677.664 57.1581 674.256 57.3586 671.803 58.4316C670.345 59.0168 669.102 60.037 668.243 61.3534C667.384 62.6699 666.952 64.2188 667.004 65.7896C667.004 70.4709 669.952 72.8057 673.749 72.8057C676.956 72.8057 678.702 72.051 681.178 69.5394C681.991 70.7186 682.251 71.3081 683.748 72.5463C683.917 72.6361 684.108 72.673 684.297 72.6519C684.487 72.6309 684.665 72.5529 684.81 72.4283L688.276 69.4568C688.654 69.1503 688.583 68.6668 688.288 68.2541V68.2541ZM680.27 61.4503C680.27 63.2191 680.317 64.6694 679.444 66.2377C678.725 67.4994 677.581 68.2777 676.32 68.2777C674.586 68.2777 673.584 66.957 673.584 65.0114C673.584 61.1791 677.015 60.4834 680.282 60.4834L680.27 61.4503ZM747.329 68.2541C746.504 67.1221 745.631 66.1905 745.631 64.0798V57.0756C745.631 54.0923 745.843 51.3684 743.65 49.3167C741.917 47.6658 739.051 47.0763 736.87 47.0763C732.578 47.0763 727.79 48.6799 726.8 53.9744C726.682 54.5286 727.106 54.8352 727.472 54.9177L731.835 55.3894C732.236 55.3658 732.542 54.9649 732.613 54.564C732.99 52.7362 734.523 51.8519 736.233 51.8519C737.165 51.8519 738.214 52.2056 738.757 53.0193C739.393 53.9508 739.311 55.2125 739.311 56.2855V56.8751C736.705 57.1699 733.285 57.3586 730.844 58.4316C729.382 59.0135 728.136 60.0325 727.275 61.3495C726.414 62.6664 725.98 64.2171 726.033 65.7896C726.033 70.4709 728.981 72.8057 732.778 72.8057C735.986 72.8057 737.731 72.051 740.207 69.5394C741.021 70.7186 741.292 71.3081 742.789 72.5463C742.957 72.6378 743.149 72.6755 743.339 72.6544C743.528 72.6333 743.707 72.5544 743.851 72.4283V72.4401C744.759 71.6383 746.398 70.2233 747.317 69.4568C747.671 69.1503 747.624 68.6668 747.317 68.2541H747.329ZM738.474 66.2377C737.754 67.4994 736.61 68.2777 735.349 68.2777C733.615 68.2777 732.613 66.957 732.613 65.0114C732.613 61.1791 736.056 60.4834 739.311 60.4834V61.4621C739.311 63.219 739.358 64.6694 738.474 66.2377ZM799.319 72.4873H794.826C794.613 72.4755 794.412 72.3841 794.264 72.2312C794.115 72.0782 794.03 71.875 794.024 71.6619L794.012 48.5502C794.033 48.3376 794.133 48.1406 794.293 47.9985C794.452 47.8565 794.66 47.7798 794.873 47.7838H799.047C799.234 47.7889 799.413 47.8551 799.558 47.9723C799.703 48.0895 799.805 48.2512 799.849 48.4323V51.9698H799.944C801.205 48.8096 802.962 47.3003 806.075 47.3003C807.113 47.2488 808.146 47.4725 809.07 47.9488C809.993 48.4251 810.774 49.137 811.334 50.0124C812.513 51.8755 812.513 54.9767 812.513 57.2171V71.768C812.479 71.9731 812.372 72.1588 812.212 72.291C812.051 72.4232 811.849 72.493 811.641 72.4873H807.125C806.928 72.4787 806.741 72.4023 806.595 72.2711C806.449 72.1399 806.353 71.9622 806.323 71.768V59.2099C806.323 56.6865 806.618 52.9957 803.516 52.9957C802.42 52.9957 801.406 53.715 800.91 54.8352C800.355 56.2237 800.11 57.7167 800.191 59.2099V71.6619C800.182 71.8861 800.086 72.0978 799.923 72.2519C799.76 72.4061 799.543 72.4906 799.319 72.4873V72.4873ZM780.346 47.3003C787.032 47.3003 790.64 53.0428 790.64 60.3301C790.64 67.3815 786.654 72.9825 780.346 72.9825C773.79 72.9825 770.205 67.24 770.205 60.0943C770.205 52.9013 773.825 47.3003 780.346 47.3003ZM780.393 52.017C777.068 52.017 776.855 56.545 776.855 59.3632C776.855 62.1814 776.808 68.2069 780.346 68.2069C783.836 68.2069 784.001 63.3488 784.001 60.389C784.001 58.4434 783.919 56.0969 783.329 54.2574C782.822 52.6537 781.82 52.017 780.381 52.017H780.393ZM697.12 72.4873H692.616C692.412 72.4801 692.218 72.3998 692.069 72.2613C691.919 72.1228 691.825 71.9351 691.802 71.7326V48.621C691.802 48.1493 692.203 47.7955 692.675 47.7955H696.873C697.309 47.8073 697.663 48.1493 697.698 48.562V51.5807H697.781C698.865 48.6563 700.929 47.3003 703.7 47.3003C706.518 47.3003 708.287 48.6563 709.549 51.5807C709.996 50.3001 710.839 49.195 711.957 48.4255C713.074 47.656 714.407 47.2619 715.763 47.3003C717.649 47.3003 719.713 48.0785 720.975 49.8237C722.413 51.7693 722.119 54.5993 722.119 57.0756V71.6619C722.119 72.1218 721.718 72.4873 721.246 72.4873H716.742C716.528 72.4783 716.325 72.3877 716.176 72.2342C716.027 72.0807 715.943 71.8759 715.94 71.6619V59.3986C715.94 58.4316 716.022 56.0025 715.81 55.0828C715.468 53.5263 714.466 53.0782 713.157 53.0782C712.572 53.0976 712.006 53.2877 711.528 53.6251C711.051 53.9624 710.682 54.4323 710.468 54.9767C709.997 56.1558 710.056 58.0897 710.056 59.4103V71.6619C710.056 72.1336 709.667 72.4873 709.183 72.4873H704.679C704.466 72.4755 704.265 72.3841 704.117 72.2312C703.968 72.0782 703.882 71.875 703.877 71.6619V59.3986C703.877 56.828 704.29 53.0311 701.094 53.0311C697.863 53.0311 697.981 56.7336 697.981 59.3986V71.6619C697.981 72.1336 697.592 72.4873 697.12 72.4873V72.4873ZM751.114 51.8637V48.562C751.114 48.3431 751.201 48.1331 751.356 47.9783C751.511 47.8235 751.721 47.7366 751.94 47.7366H766.762C767.233 47.7366 767.611 48.0668 767.611 48.562V51.392C767.611 51.8637 767.21 52.4886 766.502 53.4673L758.838 64.4218C761.668 64.351 764.686 64.7755 767.281 66.2259C767.858 66.5561 768.012 67.0513 768.059 67.523V71.0487C768.059 71.5204 767.528 72.0864 766.974 71.8034C764.553 70.5579 761.87 69.9101 759.147 69.9142C756.425 69.9183 753.743 70.5742 751.326 71.827C750.819 72.0982 750.277 71.544 750.277 71.0605V67.7117C750.277 67.1811 750.277 66.2613 750.831 65.4477L759.71 52.7009H751.975C751.865 52.704 751.755 52.685 751.652 52.645C751.549 52.6049 751.455 52.5446 751.376 52.4676C751.297 52.3907 751.234 52.2986 751.191 52.1969C751.148 52.0952 751.126 51.9859 751.126 51.8755L751.114 51.8637ZM760.76 77.3455C759.675 75.9658 753.614 76.6969 750.878 77.0153C750.053 77.1214 749.935 76.4021 750.678 75.8715C755.513 72.4755 763.448 73.4542 764.356 74.598C765.3 75.7418 764.12 83.6894 759.581 87.4863C758.885 88.0759 758.225 87.7575 758.531 86.991C759.557 84.444 761.833 78.7369 760.76 77.3455V77.3455ZM757.234 81.3664C748.779 87.6042 736.528 90.9177 725.974 90.9177C711.874 90.9916 698.253 85.7983 687.781 76.355C686.991 75.6475 687.699 74.6688 688.654 75.2112C700.287 81.8634 713.458 85.3592 726.859 85.352C736.233 85.352 746.527 83.4064 756.008 79.3854C757.435 78.7958 758.637 80.3288 757.234 81.3664V81.3664ZM940.359 73.1948C936.326 73.1948 933.237 72.0864 931.067 69.8813C928.909 67.6645 927.824 64.4926 927.824 60.3655C927.824 56.144 928.933 52.8188 931.138 50.4133C933.354 48.0078 936.42 46.805 940.359 46.805C943.377 46.805 945.747 47.5361 947.457 48.9983C949.167 50.4723 950.016 52.4179 950.016 54.8588C950.076 55.9425 949.853 57.0231 949.369 57.9947C948.886 58.9663 948.158 59.7954 947.257 60.4008C945.417 61.639 942.717 62.2639 939.144 62.2639C937.293 62.2639 935.677 62.0871 934.31 61.7333C934.51 63.9148 935.17 65.4713 936.291 66.4146C937.411 67.3579 939.109 67.8296 941.385 67.8296C942.293 67.8296 943.177 67.7706 944.038 67.6527C944.898 67.5348 946.101 67.299 947.622 66.8981C947.798 66.8407 947.98 66.809 948.165 66.8037C948.719 66.8037 948.99 67.181 948.99 67.9239V70.1643C948.99 70.695 948.919 71.0605 948.778 71.261C948.553 71.5298 948.253 71.7266 947.917 71.827C945.507 72.7439 942.949 73.2076 940.37 73.1948H940.359ZM938.755 57.8774C940.406 57.8774 941.609 57.6298 942.363 57.1227C943.106 56.6157 943.483 55.8492 943.483 54.8116C943.483 52.7598 942.257 51.7458 939.828 51.7458C936.703 51.7458 934.899 53.656 934.404 57.4883C935.701 57.7477 937.151 57.8774 938.755 57.8774ZM886.659 72.4637C886.247 72.4637 885.928 72.3694 885.74 72.1689C885.539 71.9803 885.445 71.6619 885.445 71.2492V48.7625C885.445 48.3026 885.539 47.9842 885.74 47.8191C885.928 47.6305 886.247 47.5479 886.671 47.5479H890.173C890.928 47.5479 891.376 47.9017 891.541 48.6092L891.93 49.9298C893.652 48.7978 895.208 47.9842 896.588 47.5125C897.968 47.0409 899.394 46.805 900.857 46.805C903.781 46.805 905.844 47.8545 907.047 49.9298C908.698 48.8214 910.266 48.0314 911.729 47.5479C913.191 47.0527 914.712 46.8168 916.268 46.8168C918.544 46.8168 920.301 47.4418 921.563 48.7035C922.813 49.977 923.438 51.7575 923.438 54.0333V71.2492C923.438 71.6619 923.343 71.9803 923.166 72.1689C922.99 72.3694 922.671 72.4637 922.223 72.4637H917.53C917.117 72.4637 916.799 72.3694 916.61 72.1689C916.41 71.9803 916.315 71.6619 916.315 71.2492V55.5898C916.315 53.373 915.325 52.2764 913.344 52.2764C911.575 52.2764 909.806 52.7009 908.026 53.5381V71.2492C908.026 71.6737 907.932 71.9803 907.755 72.1689C907.578 72.3694 907.259 72.4637 906.811 72.4637H902.13C901.706 72.4637 901.399 72.3694 901.187 72.1689C900.998 71.9803 900.904 71.6737 900.904 71.2492V55.5898C900.904 53.373 899.913 52.2764 897.932 52.2764C896.105 52.2764 894.324 52.7127 892.567 53.5853V71.2492C892.567 71.6737 892.473 71.9803 892.296 72.1689C892.119 72.3694 891.801 72.4637 891.353 72.4637H886.659ZM875.846 43.692C874.761 43.743 873.698 43.3758 872.875 42.6662C872.498 42.3112 872.202 41.8785 872.009 41.398C871.815 40.9175 871.729 40.4007 871.755 39.8833C871.755 38.7042 872.12 37.7844 872.875 37.1123C873.697 36.4016 874.761 36.0343 875.846 36.0864C876.932 36.0355 877.995 36.4027 878.818 37.1123C879.573 37.7844 879.95 38.716 879.95 39.8833C879.95 41.0507 879.573 41.9822 878.818 42.6662C877.995 43.3758 876.932 43.743 875.846 43.692V43.692ZM873.512 72.4637C873.087 72.4637 872.781 72.3694 872.58 72.1689C872.38 71.9803 872.285 71.6737 872.285 71.2492V48.7625C872.285 48.3026 872.38 47.9842 872.58 47.8191C872.781 47.6305 873.087 47.5479 873.512 47.5479H878.193C878.641 47.5479 878.959 47.6305 879.136 47.8073C879.313 47.9842 879.408 48.3026 879.408 48.7625V71.2492C879.408 71.6737 879.313 71.9803 879.136 72.1689C878.959 72.3694 878.641 72.4637 878.193 72.4637H873.512ZM854.02 72.4637C853.596 72.4637 853.289 72.3694 853.089 72.1689C852.9 71.9803 852.806 71.6737 852.806 71.2492V48.7625C852.806 48.3026 852.9 47.9842 853.089 47.8191C853.289 47.6305 853.596 47.5479 854.02 47.5479H857.534C858.277 47.5479 858.737 47.9017 858.89 48.6092L859.527 51.2505C860.568 50.0278 861.812 48.9946 863.206 48.1965C864.344 47.6003 865.612 47.2925 866.897 47.3003H867.581C868.029 47.3003 868.359 47.3946 868.547 47.5715C868.748 47.7484 868.842 48.0668 868.842 48.5148V52.6183C868.842 53.0428 868.748 53.3494 868.571 53.5381C868.394 53.7385 868.076 53.8329 867.628 53.8329C867.332 53.8305 867.037 53.8148 866.743 53.7857C866.288 53.7506 865.832 53.7349 865.375 53.7385C864.633 53.7385 863.725 53.8447 862.652 54.0569C861.714 54.2265 860.797 54.4953 859.916 54.8588V71.2492C859.916 71.6737 859.833 71.9803 859.657 72.1689C859.468 72.3694 859.149 72.4637 858.701 72.4637H854.02ZM824.812 82.5102C824.388 82.5102 824.081 82.4159 823.881 82.239C823.692 82.0621 823.598 81.7438 823.598 81.2957V48.7625C823.598 48.3026 823.692 47.9842 823.881 47.8191C824.081 47.6305 824.388 47.5479 824.812 47.5479H828.326C829.069 47.5479 829.529 47.9017 829.682 48.6092L830.036 49.8827C831.058 48.9125 832.259 48.1514 833.573 47.6423C834.911 47.1002 836.34 46.82 837.783 46.8168C840.931 46.8168 843.443 47.9606 845.271 50.2718C847.11 52.583 848.03 55.696 848.03 59.6344C848.03 62.3465 847.57 64.693 846.662 66.7094C845.877 68.571 844.596 70.1819 842.96 71.3671C841.386 72.4583 839.509 73.0275 837.594 72.9943C836.298 73.0044 835.01 72.7931 833.786 72.3694C832.658 71.9858 831.616 71.3849 830.72 70.6006V81.2957C830.72 81.7438 830.625 82.0621 830.449 82.239C830.26 82.4159 829.953 82.5102 829.493 82.5102H824.812ZM835.495 67.6409C837.311 67.6409 838.656 67.016 839.505 65.7896C840.377 64.5515 840.802 62.6059 840.802 59.9292C840.802 57.2289 840.389 55.2715 839.54 54.0333C838.691 52.7952 837.347 52.182 835.495 52.182C833.81 52.1762 832.156 52.6286 830.708 53.4909V66.3203C832.148 67.2027 833.807 67.6605 835.495 67.6409V67.6409Z" fill="white"/>
<path fill-rule="evenodd" clip-rule="evenodd" d="M105.91 209.084H92.006C87.1275 209.084 84.6743 210.403 84.6743 210.403V181H63V271H84.6743V234.685C84.6743 231.472 87.2798 228.871 90.4854 228.871H103.103C106.313 228.871 108.91 231.472 108.91 234.685V271H130.593V231.872C130.593 215.416 119.635 209.084 105.91 209.084ZM314.316 209.084V245.395C314.316 248.613 311.72 251.213 308.51 251.213H295.897C292.687 251.213 290.09 248.613 290.09 245.395V209.084H268.402V247.208C268.402 262.792 278.365 271 293.09 271H314.321V270.887C327.884 270.887 336 261.23 336 247.208V209.084H314.316ZM192.012 245.395C192.012 248.613 189.412 251.213 186.201 251.213H173.584C170.373 251.213 167.777 248.613 167.777 245.395V209.084H146.093V247.208C146.093 262.792 156.057 271 170.781 271H192.012V270.887C205.576 270.887 213.696 261.23 213.696 247.208V209.084H192.012V245.395ZM230.219 271H251.906V181H230.219V271Z" fill="#1CE783"/>
<path d="M627.9 224.5C627.7 231.71 620.9 236.18 620.9 243.41C621.2 243.66 621.4 243.98 621.7 243.82C627.1 237.93 632.5 229.55 640.3 227.03C642.3 226.91 644.3 228.71 645 230.03C647.7 235.52 647.1 243.24 643.3 248.22C639.3 253.11 632.5 258.01 624.7 257.18C621.4 265.1 619.3 273.5 617.9 282.2C617.3 284 615.8 282.4 614.8 282.1C608.1 276.7 613.6 262.7 614 260.91C614.5 259.12 616.3 254.9 617.6 251.36C614.5 245.73 616.4 238.92 619 233.7C620.9 230.27 623.7 226.79 627 224.02C627.3 224.02 627.7 224.14 627.9 224.5ZM641.3 233.46C640.3 233.29 639.9 234.61 639.1 234.86C635.2 239.18 631.4 243.49 629.5 248.64C632.1 248.96 634.3 247.3 636.4 246.39C640.3 243.98 642.7 240.01 642.5 235.44C642.3 234.69 641.6 234.12 641.3 233.46ZM497.13 209.84C504.78 216.09 514.71 226.79 513.47 239.01C511.98 248.72 501.69 256.02 492.98 258.34C484.52 260.82 473.91 260.58 465.28 258.59C464.7 260.16 464.11 262.07 462.28 262.73C461.13 263.14 459.64 262.9 458.73 262.16C456.15 259.75 458.22 255.1 454.5 253.61C447.19 250.54 439.32 244.49 435.58 237.01C435.09 235.52 435.7 234.03 436.58 232.87C442.3 228.35 449.51 226.43 456.73 225.1C457.14 225.22 456.98 224.62 457.31 224.5C457.73 219.57 457.9 214.41 459.47 209.96C459.83 209.36 460.71 209.12 461.3 209.6C465.85 213.08 463.7 219.57 465.69 224.38C474.4 224.74 483.11 225.1 490 230.03C492.32 231.95 492.88 235.6 492.15 237.69C491.42 239.77 489 241.24 486.75 241.41C485.26 241.41 482.45 241.56 482.61 240.42C482.78 239.27 487.68 237.41 486.18 235.86C484.01 233.62 473.17 232.29 466.45 231.47C465.63 231.35 464.86 231.59 464.86 232.46C464.7 238.76 464.2 245.73 465.28 251.78C465.4 252.19 465.85 252.7 466.27 252.78C478.14 254.68 490.66 253.61 499.95 246.81C504.27 243.32 505.67 238.43 504.93 233.04C501.19 218.01 485.52 209 472.66 203.23C460.13 197.7 446.28 194.94 431.43 195.66C429.07 195.78 425.32 196.62 425.293 197.46C425.273 198.3 429.54 198.06 429.02 199.62C428.514 201.19 424.173 200.22 422.887 199.86C421.601 199.5 421.727 197.58 422.057 196.5C425.293 190.73 434.32 190.25 438.4 190.01C460.96 189.52 482.78 198.06 497.13 209.84ZM456.48 232.07C450.76 232.07 444.7 232.71 439.39 234.69C438.32 235.11 436.98 236.27 437.81 237.69C439.98 240.58 443.05 242.98 445.95 244.65C448.84 246.33 452.67 248.47 456.15 248.96C456.98 243.58 456.98 238.26 456.9 232.71C456.56 232.54 456.9 232.21 456.48 232.07ZM615.5 228.71C616 229.43 616.4 230.39 615.5 230.87C611.8 232.54 606.8 231.83 602.4 232.29C601.4 233.29 600.4 234.95 600.9 236.44C601.2 236.69 601.6 237.06 602.1 237.01C604.7 237.18 608.7 235.78 610.5 238.26C610.8 239 610.4 241.76 609.2 241.83C605.9 242.24 600.6 241.42 599.1 242.24C597 243.58 597.3 246.15 596.5 248.22C597.9 249.13 599.4 248.22 601.1 247.96C604.1 247.47 607.5 246.56 610.6 247.22C611.2 248.3 612 249.47 611.4 250.79C606.2 254.93 599.4 259.19 592.2 256.18C589.6 254.97 588.4 250.87 589.3 247.39C589.8 244.9 592.5 242.49 590.9 239.84C590.7 238.67 591.3 237.69 592.2 237.43C595 237.43 594.4 234.03 595.8 232.46C594.3 230.75 590.3 230.75 590.7 227.27C592.6 226.31 595 226.67 597 226.31C602 225.34 607.5 224.74 612.4 225.34C613.4 225.46 614.8 227.51 615.5 228.71ZM523.4 229.91C524.2 237.84 524.6 245.23 524.4 253.61C524.3 254.68 523 254.93 522.2 255.35C520.9 255.59 519.1 255.35 518.62 254.61C516.7 251.53 517.37 247.39 517.2 243.66C517.45 237.76 517.37 231.35 519 225.94C519.3 225.1 520.3 224.38 521 224.86C523 225.94 523.3 227.87 523.4 229.91ZM559.6 226.79C559.6 227.99 558.7 229.55 557.8 229.67C549.9 230.99 541 230.27 533.5 232.71C533.3 233.61 534.4 233.78 534.9 234.03C541.4 235.03 548.1 235.27 554.2 236.86C557.6 237.69 558.8 241.58 559 244.81C559.2 247.36 558.2 250.45 555.7 252.19C549.6 256.1 540.2 255.93 534 252.36C531.6 251.03 529.3 248.88 529.1 246.22C529.1 244.12 530.1 242.46 531.5 241.67C537.5 239.26 544.9 240.58 550 243.66C550.4 245.32 548.6 245.22 547.7 245.81C542 249.13 537.7 242.07 532.4 244.65C531.6 245.15 531.1 246.53 532 246.98C538.5 249.87 545.8 247.81 552.3 245.98C553 245.73 554 244.98 554 244.24C553.8 241.58 550.8 241 548.8 240.26C543.3 238.84 537 238.84 531 238.26C529.8 238.01 528.3 237.21 528 236.27C527.3 234.29 527.3 231.59 528.8 229.91C536.5 223.06 548.2 223.66 558 225.46C558.7 225.7 559.4 225.94 559.6 226.79ZM584.8 228.71C587.4 235.2 589.6 245.39 584.8 251.62C583.4 253.11 581 254.49 579.6 253.36C574.1 248.96 571.8 242.66 568.4 237.01C567.9 236.77 567.9 237.43 567.6 237.69C566.4 243.41 568.7 250.87 564.8 255.35C563.4 255.59 561.9 254.84 561.5 253.36C559.5 247.47 561.5 241.33 562.1 235.44C563.1 232.46 563.6 228.95 566.3 226.79C570.3 228.35 572.4 233.04 574.8 236.44C576.5 239.01 577.9 241.92 580 244.24C581.6 243.49 580.8 241.21 580.8 239.84C580.1 234.44 578.6 229.43 577.2 224.38C577.1 222.94 576.4 220.78 577.8 219.94C581.5 221.62 583.1 225.46 584.8 228.71ZM534.9 200.22C536.5 200.22 537.9 200.83 539.1 201.79C540.7 203.35 541.1 205.87 540.3 207.8C537.4 213.81 530.5 217.77 525.8 219.09C523 219.82 519.4 219.82 516.87 218.73C515.62 219.57 514.58 221.98 513.05 220.9C510.85 219.21 512.76 216.57 511.49 214.65C511.22 214.17 510.56 214.17 510.24 213.57C508.5 209.72 510.65 206.11 513.05 203.23C517.07 198.66 528.6 193.73 534.9 200.22ZM521.6 203.23C519.4 203.59 516.83 204.55 515.47 206.11C514.1 207.8 513.22 209.36 514.05 210.92C516.96 208.76 518.36 205.87 521.6 203.95C521.6 203.71 522.1 203.47 521.6 203.23ZM535.1 203.95C529.4 203.47 525.1 207.8 521 212C520.8 212.6 519.3 213.33 520.4 214.17C525.9 214.65 531.1 213.08 535.1 209.36C536.3 208.28 537.1 206.96 536.5 205.39C536.3 204.79 535.7 204.31 535.1 203.95Z" fill="white"/>
<path d="M851.182 244.674C858.873 244.674 865.105 238.378 865.105 230.63C865.105 222.865 858.873 216.579 851.182 216.579C843.491 216.579 837.262 222.865 837.262 230.63C837.262 238.378 843.491 244.674 851.182 244.674Z" fill="white"/>
<path d="M747.844 239.599V265.299H766.735V196.288H747.844V222.272H735.821V196.288H716.931V265.299H735.821V239.599H747.844Z" fill="white"/>
<path d="M816.366 230.652C816.366 211.916 830.899 196.601 849.22 195.579H853.129C871.45 196.602 885.99 211.916 885.99 230.652C885.99 250.039 870.407 265.768 851.178 265.768C831.949 265.768 816.366 250.039 816.366 230.652H816.366ZM851.178 248.211C860.793 248.211 868.585 240.342 868.585 230.652C868.585 220.954 860.793 213.092 851.178 213.092C841.565 213.092 833.773 220.954 833.773 230.652C833.773 240.342 841.565 248.211 851.178 248.211Z" fill="white"/>
<path d="M799.657 196.288C804.812 196.288 819.403 199.18 819.403 213.898C819.403 225.737 813.758 229.269 809.391 230.072C806.236 230.653 818.826 230.072 818.826 244.79C818.826 265.881 800.513 265.299 800.513 265.299H770.738V196.288H799.657L799.657 196.288ZM787.626 213.094V223.487H797.648C797.648 223.487 801.667 222.999 801.667 218.03C801.667 213.036 797.511 213.094 797.511 213.094H787.626V213.094ZM787.626 238.505V248.904H797.648C797.648 248.904 801.667 248.409 801.667 243.439C801.667 238.445 797.511 238.505 797.511 238.505H787.626Z" fill="white"/>
<path d="M886.587 204.926H884.804V196.504H887.928C890.079 196.504 891.333 197.117 891.333 199.04C891.333 200.591 890.467 201.143 889.342 201.248L891.487 204.926H889.36L887.429 201.378H886.587V204.926V204.926ZM888.167 199.958C888.973 199.958 889.428 199.784 889.428 198.866C889.428 197.992 888.518 197.924 887.841 197.924H886.587V199.958H888.167V199.958ZM887.884 208.536C883.746 208.536 880.075 205.646 880.075 200.727C880.075 195.778 883.746 192.894 887.884 192.894C892.01 192.894 895.65 195.778 895.65 200.727C895.65 205.646 892.01 208.536 887.884 208.536ZM887.884 194.711C884.804 194.711 882.314 197.117 882.314 200.727C882.314 204.312 884.804 206.743 887.884 206.719V206.743C890.878 206.743 893.442 204.312 893.442 200.727C893.442 197.117 890.878 194.711 887.884 194.711V194.711Z" fill="white"/>
<defs>
<clipPath id="clip0_396:23">
<rect width="360" height="97" fill="white" transform="translate(217 15)"/>
</clipPath>
</defs>
</svg>
