<svg width="887" height="100" viewBox="0 0 887 100" fill="none" xmlns="http://www.w3.org/2000/svg">
<path d="M217.2 42.9999L208.8 42.4999L208.4 41.2999C210.3 40.3999 212.5 39.7999 214.2 38.8999C218.1 36.6999 218.4 36.3999 218.9 33.8999C220.2 27.4999 221.4 21.1999 225.2 15.3999C230.5 6.99988 238 5.09988 247.6 6.39988C247.6 7.79988 247.7 9.29988 247.8 11.6999L239.3 10.2999C235.7 9.69988 232.2 9.29988 230.9 13.8999C228.9 21.1999 227 28.6999 225.1 35.9999C227.444 35.9393 229.771 36.4183 231.9 37.3999C233.2 37.7999 234.8 38.0999 235.5 39.0999C233.957 39.4311 232.377 39.5655 230.8 39.4999C224.3 39.1999 224.3 40.9999 223.2 46.9999C221.2 57.3999 220.1 68.4999 216.2 78.3999C214.7 81.9999 215.2 80.9999 211.2 90.7999C210.7 91.9999 207.3 97.7999 206.1 98.5999C209.9 79.7999 213.5 61.5999 217.2 42.9999Z" fill="white"/>
<path d="M21.5999 48.3002V50.2002C23.216 48.6686 25.3741 47.8414 27.5999 47.9002C28.6031 47.8726 29.5984 48.0851 30.5029 48.5199C31.4074 48.9548 32.1949 49.5994 32.7999 50.4002C34.1632 52.3965 34.831 54.7863 34.6999 57.2002C34.7161 59.7381 33.8699 62.2062 32.2999 64.2002C31.661 65.1525 30.798 65.9332 29.7866 66.4737C28.7753 67.0143 27.6466 67.2981 26.4999 67.3002C24.3882 67.2573 22.3496 66.5192 20.6999 65.2002C19.9986 66.1626 19.1153 66.978 18.0999 67.6002C17.8529 67.562 17.6206 67.4584 17.4272 67.3002C17.2338 67.1419 17.0862 66.9347 16.9999 66.7002C17.8185 65.3393 18.2667 63.7879 18.2999 62.2002V40.2002L15.1999 39.6002C15.0471 39.1155 14.9794 38.608 14.9999 38.1002C17.0454 37.2968 19.2058 36.8242 21.3999 36.7002L21.7999 37.0002C21.6999 40.5002 21.5999 44.3002 21.5999 48.3002ZM26.4999 50.6002C24.7415 50.7066 23.0463 51.2947 21.5999 52.3002V62.3002C22.2906 63.0451 23.1253 63.6419 24.0536 64.0544C24.9818 64.467 25.9842 64.6867 26.9999 64.7002L28.3999 64.5002L29.3999 64.0002C30.7182 62.3957 31.4267 60.3767 31.3999 58.3002C31.4692 56.4151 31.0195 54.5472 30.0999 52.9002C29.7692 52.223 29.2582 51.65 28.6231 51.2443C27.988 50.8385 27.2534 50.6157 26.4999 50.6002Z" fill="white"/>
<path d="M40 60.8998V50.8998C39.0283 50.5365 38.0236 50.2686 37 50.0998C37.006 49.4946 37.073 48.8916 37.2 48.2998H43.1L43.4 48.5998V59.3998C43.4 62.7998 44.4 64.3998 46.4 64.3998C47.3616 64.3329 48.2906 64.0233 49.1 63.4998C50.0246 62.8747 50.8944 62.1722 51.7 61.3998V50.8998L48.7 50.0998C48.6565 49.4926 48.7243 48.8826 48.9 48.2998H54.8L55.1 48.5998C55.1 51.1998 55 54.9998 55 59.8998V61.2998C54.9961 62.3365 55.0629 63.3722 55.2 64.3998L57.7 63.7998C58.0768 64.1691 58.2925 64.6723 58.3 65.1998C57.6678 65.8341 56.9214 66.343 56.1 66.6998C55.3805 67.0368 54.5945 67.2076 53.8 67.1998C53.3 67.1998 52.9 66.8998 52.6 66.0998C52.2002 65.2798 51.9303 64.4027 51.8 63.4998C50.8721 64.5437 49.8326 65.4826 48.7 66.2998C47.7041 66.8984 46.562 67.2099 45.4 67.1998C41.8 67.2998 40 65.1998 40 60.8998Z" fill="white"/>
<path d="M63 61.7002V50.7002L60.1 50.2002C59.917 49.6869 59.8824 49.1324 60 48.6002C60.982 48.3557 61.9883 48.2215 63 48.2002L64.3 42.8002C64.9732 42.752 65.6497 42.8197 66.3 43.0002V48.2002H72.5C72.4916 49.004 72.4247 49.8061 72.3 50.6002H66.3V60.1002C66.3 63.0002 66.9 64.5002 68.2 64.5002C69.5421 64.4265 70.8614 64.122 72.1 63.6002C72.5034 64.1121 72.7156 64.7487 72.7 65.4002C70.8677 66.5425 68.759 67.1648 66.6 67.2002C66.0829 67.2718 65.556 67.1974 65.0789 66.9854C64.6018 66.7733 64.1935 66.4321 63.9 66.0002C63.2193 64.6738 62.9084 63.1884 63 61.7002Z" fill="white"/>
<path d="M76.7 61.7002V50.7002L73.8 50.2002C73.6643 49.6783 73.6303 49.135 73.7 48.6002C74.682 48.3557 75.6883 48.2215 76.7 48.2002L78 42.8002C78.6732 42.752 79.3497 42.8197 80 43.0002V48.2002H86.2C86.1915 49.004 86.1247 49.8061 86 50.6002H80V60.1002C80 63.0002 80.7 64.5002 81.9 64.5002C83.2447 64.4458 84.5675 64.1406 85.8 63.6002C86.2322 64.1026 86.4792 64.7379 86.5 65.4002C84.6616 66.529 82.5567 67.1501 80.4 67.2002C79.8687 67.2684 79.3288 67.1931 78.8364 66.9821C78.344 66.7711 77.9171 66.432 77.6 66.0002C76.9193 64.6738 76.6084 63.1884 76.7 61.7002Z" fill="white"/>
<path d="M88.1999 57.7998C88.1762 55.2739 89.0638 52.8242 90.6999 50.8998C91.3703 49.9319 92.2679 49.1431 93.3139 48.6027C94.3599 48.0622 95.5226 47.7865 96.6999 47.7998C99.1999 47.7998 101 48.3998 102.1 49.7998C103.218 51.2193 103.786 52.9948 103.7 54.7998C103.711 55.6043 103.644 56.4081 103.5 57.1998L103.2 57.5998H91.4999C91.5848 58.6848 91.7859 59.7577 92.0999 60.7998C92.4719 61.8086 93.051 62.7283 93.7999 63.4998C94.6756 64.2127 95.7707 64.6013 96.8999 64.5998C99.0319 64.4943 101.129 64.0206 103.1 63.1998C103.505 63.5588 103.756 64.0603 103.8 64.5998C102.646 65.4042 101.405 66.0751 100.1 66.5998C98.8659 67.1226 97.5401 67.3945 96.1999 67.3998C93.4999 67.3998 91.4999 66.5998 90.1999 64.7998C88.7653 62.7576 88.0607 60.2916 88.1999 57.7998ZM93.4999 51.0998C92.4394 52.3036 91.776 53.8052 91.5999 55.3998H100.3C100.288 54.7619 100.221 54.1262 100.1 53.4998C99.988 52.9689 99.785 52.4614 99.4999 51.9998C99.2078 51.5048 98.7949 51.0919 98.2999 50.7998C97.6268 50.5515 96.9172 50.4163 96.1999 50.3998C95.2437 50.2824 94.2786 50.5326 93.4999 51.0998Z" fill="white"/>
<path d="M112.4 47.9L112.7 48.2C112.97 49.3198 113.171 50.4553 113.3 51.6C114.9 49.1 116.8 47.9 118.8 47.9C119.886 47.8952 120.967 48.064 122 48.4C122.03 50.6861 121.795 52.968 121.3 55.2C120.614 55.3973 119.886 55.3973 119.2 55.2C119.164 53.7261 119.03 52.2562 118.8 50.8H117.8C116.993 50.7852 116.197 50.9928 115.5 51.4C114.624 52.0958 113.879 52.9424 113.3 53.9V61.5C113.3 62.5 113.4 63.5 113.5 64.5C115.059 64.5065 116.609 64.7424 118.1 65.2C118.116 65.7734 118.049 66.3461 117.9 66.9H107C106.755 66.3686 106.652 65.783 106.7 65.2C107.782 65.0461 108.852 64.8122 109.9 64.5C109.981 63.7696 110.014 63.0347 110 62.3V51.5L106.9 50.8C106.77 50.3112 106.736 49.8018 106.8 49.3C108.585 48.5538 110.473 48.0818 112.4 47.9Z" fill="white"/>
<path d="M138.1 62.1998V55.5998C138.189 54.2621 137.949 52.923 137.4 51.6998C137 50.8998 136.1 50.4998 134.7 50.4998C133.103 50.5635 131.565 51.1227 130.3 52.0998V61.3998C130.3 62.3998 130.3 63.3998 130.4 64.3998C131.435 64.4439 132.452 64.6813 133.4 65.0998C133.448 65.6828 133.344 66.2684 133.1 66.7998H124C123.755 66.2684 123.652 65.6828 123.7 65.0998L126.8 64.3998C126.912 63.6713 126.978 62.9365 127 62.1998V51.4998L123.9 50.7998C123.741 50.3165 123.673 49.8079 123.7 49.2998C125.489 48.5648 127.375 48.0932 129.3 47.8998L129.6 48.1998C129.809 48.9567 129.976 49.7245 130.1 50.4998C130.863 49.6646 131.789 48.9942 132.821 48.5299C133.853 48.0656 134.969 47.8171 136.1 47.7998C138.633 47.7998 140.233 48.7998 140.9 50.7998C141.693 49.8749 142.674 49.1291 143.777 48.6119C144.881 48.0947 146.081 47.8179 147.3 47.7998C150.8 47.7998 152.6 49.8998 152.6 54.0998V61.3998C152.6 62.3998 152.6 63.3998 152.7 64.3998C153.704 64.431 154.692 64.6693 155.6 65.0998C155.648 65.6828 155.544 66.2684 155.3 66.7998H146.2C145.955 66.2684 145.852 65.6828 145.9 65.0998C146.982 64.946 148.052 64.712 149.1 64.3998C149.181 63.6694 149.214 62.9345 149.2 62.1998V55.5998C149.264 54.2727 149.06 52.9464 148.6 51.6998C148.2 50.8998 147.2 50.4998 145.8 50.4998C144.17 50.6323 142.61 51.2215 141.3 52.1998C141.3 52.7998 141.4 53.3998 141.4 54.0998V61.3998C141.4 62.0998 141.4 63.0998 141.5 64.3998C142.365 64.4989 143.209 64.7352 144 65.0998C144.06 65.6743 143.992 66.2549 143.8 66.7998H135.4C135.177 66.2617 135.075 65.6816 135.1 65.0998L137.9 64.3998C138.012 63.6713 138.078 62.9365 138.1 62.1998Z" fill="white"/>
<path d="M164 59.3998V61.3998C164 62.3998 164.1 63.3998 164.2 64.3998C165.203 64.4419 166.188 64.6796 167.1 65.0998C167.116 65.6732 167.049 66.2459 166.9 66.7998H157.7C157.456 66.2684 157.352 65.6828 157.4 65.0998C158.487 64.9732 159.559 64.7387 160.6 64.3998C160.686 63.6698 160.719 62.9346 160.7 62.1998V51.2998L157.6 50.6998C157.425 50.2194 157.391 49.6992 157.5 49.1998C159.556 48.4328 161.711 47.9614 163.9 47.7998L164.2 48.0998C164.1 51.5998 164 55.3998 164 59.3998ZM161.9 44.6998C161.316 44.6783 160.754 44.4677 160.3 44.0998C160.072 43.924 159.889 43.6961 159.767 43.435C159.646 43.174 159.588 42.8876 159.6 42.5998C159.595 41.8244 159.88 41.0751 160.4 40.4998C160.581 40.2114 160.827 39.969 161.117 39.7916C161.408 39.6143 161.736 39.5068 162.075 39.4778C162.415 39.4487 162.756 39.4988 163.073 39.6241C163.389 39.7493 163.673 39.9464 163.9 40.1998C164.128 40.3756 164.311 40.6035 164.433 40.8646C164.555 41.1256 164.612 41.412 164.6 41.6998C164.605 42.4752 164.32 43.2245 163.8 43.7998C163.568 44.0788 163.277 44.3038 162.949 44.4592C162.621 44.6147 162.263 44.6968 161.9 44.6998Z" fill="white"/>
<path d="M175.5 48.3002V61.4002C175.5 62.4002 175.6 63.4002 175.6 64.4002C176.635 64.4443 177.653 64.6817 178.6 65.1002C178.648 65.6832 178.545 66.2688 178.3 66.8002H169.2C168.956 66.2688 168.852 65.6832 168.9 65.1002L172.1 64.4002C172.181 63.6698 172.214 62.9349 172.2 62.2002V40.2002L169.1 39.6002C168.925 39.1197 168.891 38.5996 169 38.1002C171.039 37.2759 173.203 36.8026 175.4 36.7002L175.7 37.0002C175.6 40.5002 175.5 44.3002 175.5 48.3002Z" fill="white"/>
<path d="M186.8 48.2998V56.3998C187.903 56.0224 188.974 55.5541 190 54.9998L193.6 50.5998L191.2 49.9998C191.194 49.4195 191.296 48.8431 191.5 48.2998H199.6C199.749 48.8537 199.816 49.4264 199.8 49.9998C198.976 50.3885 198.1 50.6579 197.2 50.7998L192.2 56.0998C193.289 58.6279 194.737 60.9856 196.5 63.0998C196.944 63.6234 197.447 64.0932 198 64.4998C198.575 64.714 199.186 64.8158 199.8 64.7998H201C201.206 64.9851 201.36 65.2208 201.448 65.4837C201.536 65.7467 201.554 66.0279 201.5 66.2998C200.823 66.6834 200.074 66.9218 199.3 66.9998L196.6 67.2998C195.3 67.2998 194 66.3998 192.8 64.4998C191.494 62.4031 190.453 60.1526 189.7 57.7998L186.8 58.5998V61.4998C186.8 62.4998 186.9 63.4998 187 64.4998C188.003 64.5419 188.988 64.7796 189.9 65.1998C189.916 65.7732 189.849 66.3459 189.7 66.8998H180.5C180.255 66.3684 180.152 65.7828 180.2 65.1998C181.282 65.0459 182.352 64.812 183.4 64.4998C183.481 63.7694 183.514 63.0345 183.5 62.2998V40.2998L180.4 39.6998C180.225 39.2194 180.191 38.6992 180.3 38.1998C182.342 37.3863 184.504 36.9133 186.7 36.7998L187 37.0998C186.9 40.4998 186.8 44.2998 186.8 48.2998Z" fill="white"/>
<path d="M229.1 62.6998C229.114 61.9895 229.282 61.2906 229.593 60.6517C229.904 60.0128 230.35 59.4492 230.9 58.9998C231.992 57.903 233.329 57.0806 234.8 56.5998C236.461 56.025 238.167 55.5901 239.9 55.2998C239.938 53.9979 239.7 52.7026 239.2 51.4998C238.919 51.0735 238.531 50.7288 238.075 50.5005C237.618 50.2723 237.109 50.1685 236.6 50.1998C235.552 50.1647 234.505 50.2998 233.5 50.5998C233.27 51.6164 233.169 52.658 233.2 53.6998C232.498 54.0839 231.677 54.191 230.9 53.9998C230.296 52.6825 229.989 51.2488 230 49.7998C232.106 48.5047 234.528 47.8129 237 47.7998L238.9 47.9998C239.602 48.2152 240.273 48.5176 240.9 48.8998C241.659 49.3308 242.256 49.998 242.6 50.7998C243.02 51.8132 243.224 52.903 243.2 53.9998V61.3998C243.145 62.4374 243.212 63.4778 243.4 64.4998L245.9 63.8998C246.277 64.2691 246.492 64.7723 246.5 65.2998C245.297 66.4973 243.695 67.2093 242 67.2998C241.757 67.2934 241.522 67.2135 241.326 67.0707C241.129 66.9279 240.981 66.7288 240.9 66.4998C240.484 65.7936 240.212 65.0118 240.1 64.1998C237.7 66.2998 235.5 67.2998 233.6 67.2998C233.014 67.3233 232.428 67.2293 231.879 67.0232C231.329 66.8171 230.826 66.5031 230.4 66.0998C229.537 65.1811 229.07 63.9599 229.1 62.6998ZM235.6 64.3998C236.337 64.3638 237.055 64.1585 237.7 63.7998C238.507 63.4171 239.249 62.911 239.9 62.2998V57.6998C238.483 57.8192 237.079 58.0533 235.7 58.3998L233.4 59.2998C232.843 59.9721 232.558 60.828 232.6 61.6998C232.597 62.0543 232.666 62.4057 232.804 62.7325C232.941 63.0592 233.144 63.3544 233.4 63.5998C233.691 63.8787 234.037 64.0939 234.416 64.2317C234.794 64.3694 235.198 64.4267 235.6 64.3998Z" fill="white"/>
<path d="M254.2 48.3002V61.4002C254.2 62.4002 254.3 63.4002 254.4 64.4002C255.403 64.4422 256.388 64.68 257.3 65.1002C257.316 65.6736 257.249 66.2463 257.1 66.8002H247.9C247.655 66.2688 247.552 65.6832 247.6 65.1002C248.683 64.9463 249.752 64.7124 250.8 64.4002C250.881 63.6698 250.914 62.9349 250.9 62.2002V40.2002L247.8 39.6002C247.625 39.1197 247.591 38.5996 247.7 38.1002C249.742 37.2867 251.905 36.8137 254.1 36.7002L254.4 37.0002C254.3 40.5002 254.2 44.3002 254.2 48.3002Z" fill="white"/>
<path d="M265.6 48.3002V61.4002C265.6 62.4002 265.6 63.4002 265.7 64.4002C266.704 64.4314 267.692 64.6697 268.6 65.1002C268.616 65.6736 268.549 66.2463 268.4 66.8002H259.2C259.001 66.257 258.933 65.6747 259 65.1002L262.1 64.4002C262.212 63.6716 262.278 62.9369 262.3 62.2002V40.2002L259.1 39.6002C258.972 39.111 258.938 38.602 259 38.1002C261.045 37.2968 263.206 36.8242 265.4 36.7002L265.7 37.0002C265.6 40.5002 265.6 44.3002 265.6 48.3002Z" fill="white"/>
<path d="M277.4 67.2C275.319 67.3059 273.239 66.9649 271.3 66.2C271.292 64.2451 271.527 62.2969 272 60.4C272.584 60.2019 273.216 60.2019 273.8 60.4C273.858 61.7398 273.992 63.0752 274.2 64.4C275.358 64.7897 276.579 64.9593 277.8 64.9C278.741 64.9884 279.685 64.7785 280.5 64.3C280.774 63.989 280.979 63.6227 281.1 63.226C281.22 62.8292 281.255 62.4111 281.2 62C281.2 60.9 280.6 60 279.2 59.2L277.3 58.4L275.3 57.6C274.695 57.3797 274.123 57.0768 273.6 56.7C273.011 56.3302 272.528 55.8132 272.2 55.2C271.869 54.5496 271.698 53.8297 271.7 53.1C271.656 52.3057 271.828 51.5143 272.197 50.8099C272.567 50.1055 273.121 49.5146 273.8 49.1C275.256 48.2594 276.919 47.8437 278.6 47.9C280.491 47.8547 282.378 48.0907 284.2 48.6C284.221 50.2596 283.985 51.9125 283.5 53.5C282.845 53.7243 282.129 53.6885 281.5 53.4C281.4 52.5 281.2 51.5 281 50.4C280.194 50.1296 279.35 49.9945 278.5 50C277.538 49.9032 276.569 50.0764 275.7 50.5C275.448 50.7221 275.253 51.0015 275.131 51.3148C275.009 51.628 274.964 51.9658 275 52.3C275.023 52.6554 275.124 53.0014 275.297 53.3127C275.47 53.624 275.71 53.893 276 54.1C276.731 54.6503 277.54 55.0884 278.4 55.4L281.2 56.5C282.14 56.9332 282.963 57.5846 283.6 58.4C284.279 59.2108 284.635 60.2433 284.6 61.3C284.631 62.1384 284.467 62.9725 284.12 63.7362C283.773 64.5 283.252 65.1724 282.6 65.7C281.073 66.7466 279.25 67.2726 277.4 67.2Z" fill="white"/>
<path d="M315.897 63.4502H312.826V40.167H315.897V63.4502Z" fill="white"/>
<path d="M323.86 46.1477L323.956 48.3225C325.278 46.6594 327.005 45.8279 329.137 45.8279C332.794 45.8279 334.638 47.8907 334.67 52.0165V63.4502H331.712V52.0005C331.701 50.7532 331.414 49.831 330.849 49.234C330.294 48.637 329.425 48.3385 328.242 48.3385C327.282 48.3385 326.44 48.5944 325.715 49.1061C324.99 49.6178 324.425 50.2894 324.02 51.121V63.4502H321.062V46.1477H323.86Z" fill="white"/>
<path d="M341.93 46.1477L342.026 48.3225C343.348 46.6594 345.075 45.8279 347.208 45.8279C350.864 45.8279 352.708 47.8907 352.74 52.0165V63.4502H349.782V52.0005C349.771 50.7532 349.484 49.831 348.919 49.234C348.364 48.637 347.495 48.3385 346.312 48.3385C345.353 48.3385 344.51 48.5944 343.785 49.1061C343.06 49.6178 342.495 50.2894 342.09 51.121V63.4502H339.132V46.1477H341.93Z" fill="white"/>
<path d="M373.801 50.9611H380.293V53.7595H373.801V61.1155H370.827V53.7595H364.334V50.9611H370.827V44.1648H373.801V50.9611Z" fill="white"/>
<path d="M399.355 53.0719C396.722 52.315 394.803 51.3875 393.598 50.2894C392.404 49.1807 391.807 47.8161 391.807 46.1957C391.807 44.362 392.537 42.8482 393.998 41.6542C395.469 40.4495 397.377 39.8472 399.723 39.8472C401.322 39.8472 402.745 40.1563 403.992 40.7747C405.25 41.393 406.22 42.2458 406.903 43.3333C407.596 44.4207 407.942 45.6093 407.942 46.8993H404.856C404.856 45.4921 404.408 44.3887 403.513 43.5891C402.617 42.7789 401.354 42.3738 399.723 42.3738C398.209 42.3738 397.025 42.7096 396.173 43.3812C395.33 44.0422 394.909 44.9644 394.909 46.1477C394.909 47.0965 395.309 47.9014 396.109 48.5624C396.919 49.2127 398.289 49.8097 400.218 50.3534C402.159 50.8971 403.672 51.4994 404.76 52.1604C405.858 52.8107 406.668 53.573 407.191 54.4471C407.724 55.3213 407.99 56.3501 407.99 57.5334C407.99 59.4204 407.255 60.9342 405.783 62.075C404.312 63.205 402.345 63.77 399.883 63.77C398.283 63.77 396.791 63.4662 395.405 62.8585C394.019 62.2402 392.948 61.398 392.191 60.3319C391.445 59.2658 391.071 58.0558 391.071 56.7019H394.158C394.158 58.1091 394.675 59.2232 395.709 60.0441C396.754 60.8543 398.145 61.2594 399.883 61.2594C401.503 61.2594 402.745 60.9289 403.609 60.2679C404.472 59.607 404.904 58.7061 404.904 57.5654C404.904 56.4247 404.504 55.5452 403.704 54.9269C402.905 54.2979 401.455 53.6796 399.355 53.0719Z" fill="white"/>
<path d="M426.092 54.9908C426.092 57.6241 425.49 59.7456 424.285 61.3553C423.08 62.9651 421.449 63.77 419.392 63.77C417.292 63.77 415.639 63.1037 414.435 61.7711V70.1025H411.476V46.1477H414.179L414.323 48.0667C415.527 46.5741 417.201 45.8279 419.344 45.8279C421.423 45.8279 423.064 46.6115 424.269 48.1786C425.484 49.7457 426.092 51.9259 426.092 54.719V54.9908ZM423.134 54.655C423.134 52.7041 422.718 51.1636 421.886 50.0336C421.055 48.9035 419.914 48.3385 418.464 48.3385C416.673 48.3385 415.33 49.1327 414.435 50.7212V58.9886C415.319 60.5664 416.673 61.3553 418.496 61.3553C419.914 61.3553 421.039 60.7957 421.87 59.6763C422.713 58.5462 423.134 56.8725 423.134 54.655Z" fill="white"/>
<path d="M440.548 63.4502C440.378 63.109 440.239 62.5014 440.132 61.6272C438.757 63.0557 437.115 63.77 435.207 63.77C433.501 63.77 432.1 63.2903 431.001 62.3308C429.914 61.3607 429.37 60.1347 429.37 58.6528C429.37 56.8512 430.053 55.4546 431.417 54.4631C432.792 53.461 434.722 52.96 437.206 52.96H440.084V51.6007C440.084 50.5666 439.775 49.7457 439.157 49.1381C438.539 48.5197 437.627 48.2106 436.422 48.2106C435.367 48.2106 434.482 48.4771 433.768 49.0101C433.054 49.5432 432.697 50.1882 432.697 50.9451H429.722C429.722 50.0815 430.026 49.25 430.634 48.4504C431.252 47.6402 432.084 47.0006 433.128 46.5315C434.184 46.0624 435.34 45.8279 436.598 45.8279C438.592 45.8279 440.154 46.3289 441.284 47.3311C442.414 48.3225 443 49.6924 443.043 51.4408V59.4044C443.043 60.9929 443.245 62.2562 443.651 63.1943V63.4502H440.548ZM435.639 61.1954C436.566 61.1954 437.446 60.9556 438.277 60.4758C439.109 59.9961 439.711 59.3724 440.084 58.6049V55.0548H437.766C434.141 55.0548 432.329 56.1156 432.329 58.2371C432.329 59.1646 432.638 59.8895 433.256 60.4119C433.875 60.9342 434.669 61.1954 435.639 61.1954Z" fill="white"/>
<path d="M643.32 11.312V11.276H648.08V16.0554H649.95V5.35693H648.08V9.62812H643.32V5.35693H641.45V16.0554H643.32V11.312Z" fill="white"/>
<path d="M680.634 10.7912C680.671 10.0707 680.562 9.34998 680.315 8.67266C680.067 7.99534 679.685 7.37544 679.192 6.85035C678.699 6.32526 678.105 5.90587 677.445 5.61749C676.786 5.32911 676.076 5.17772 675.357 5.17245C674.63 5.15011 673.907 5.27602 673.23 5.54256C672.553 5.8091 671.938 6.21072 671.42 6.72309C670.903 7.23546 670.494 7.84791 670.219 8.52336C669.945 9.1988 669.809 9.92318 669.822 10.6526C669.791 11.3765 669.906 12.0991 670.16 12.7771C670.415 13.4552 670.803 14.0745 671.303 14.598C671.802 15.1214 672.401 15.5381 673.065 15.8231C673.729 16.108 674.443 16.2553 675.165 16.256C675.891 16.2917 676.616 16.175 677.294 15.9134C677.972 15.6517 678.588 15.2508 679.103 14.7364C679.618 14.222 680.02 13.6054 680.283 12.926C680.547 12.2466 680.666 11.5195 680.634 10.7912ZM678.641 10.9581C678.68 11.4075 678.624 11.8601 678.479 12.2869C678.333 12.7138 678.101 13.1055 677.796 13.4373C677.492 13.769 677.121 14.0335 676.709 14.2139C676.297 14.3942 675.852 14.4865 675.403 14.4849C674.899 14.4695 674.403 14.3507 673.947 14.1357C673.49 13.9207 673.082 13.6141 672.749 13.2348C672.415 12.8555 672.162 12.4115 672.005 11.9303C671.849 11.4491 671.793 10.9409 671.84 10.437C671.803 9.98345 671.861 9.52721 672.01 9.09739C672.159 8.66756 672.395 8.27357 672.704 7.94055C673.013 7.60752 673.388 7.34276 673.805 7.16315C674.221 6.98354 674.671 6.89301 675.124 6.89735C675.622 6.9292 676.108 7.05989 676.555 7.28184C677.002 7.50379 677.401 7.81259 677.728 8.19032C678.055 8.56806 678.304 9.00721 678.461 9.48232C678.618 9.95743 678.679 10.459 678.641 10.9581Z" fill="white"/>
<path d="M701.991 7.04829V16.0553H703.861V7.04829H707.337V5.40039H698.531V7.04829H701.991Z" fill="white"/>
<path d="M728.541 14.3766V11.2758H732.245V9.62794H728.541V7.04829H732.598V5.40039H726.672V16.0245H733.084L733.406 14.3766H728.546H728.541Z" fill="white"/>
<path d="M759.11 14.3767H754.585V5.35693H752.715V16.0246H758.805L759.11 14.3767Z" fill="white"/>
<path d="M545.661 35.4756H543.95L518.016 65.9771V35.4756H515.123V92.5232H518.016V68.8058L523.587 62.322L550.515 92.4154L550.61 92.5232H554.444L525.607 60.212L545.661 35.4756Z" fill="white"/>
<path d="M571.96 36.7693H580.378V91.2295H571.96V92.5232H591.688V91.2295H583.271V36.7693H591.688V35.4756H571.96V36.7693Z" fill="white"/>
<path d="M650.592 89.0682L616.908 35.627L616.814 35.4756H614.064V92.5232H615.353V38.4403L650.643 93.9837L650.74 94.1326H651.881V35.4756H650.592V89.0682Z" fill="white"/>
<path d="M768.607 91.2295H741.387V35.4756H738.494V92.5232H769.896V78.7625H768.607V91.2295Z" fill="white"/>
<path d="M824.697 91.2295H795.333V62.997H813.691V61.7059H795.333V36.7693H821.812V49.2389H823.101V35.4756H792.44V92.5232H825.986V76.9118H824.697V91.2295Z" fill="white"/>
<path d="M883.327 35.4756L865.003 67.2503L847.088 35.6399L846.993 35.4756H843.604L862.992 69.5168L862.913 92.1998V92.5232H865.885V68.3925L884.877 35.4756H883.327Z" fill="white"/>
<path d="M712.079 67.2016C708.014 63.6627 703.161 61.1548 697.929 59.8887L696.65 59.4678C692.92 58.3998 689.381 56.7479 686.163 54.5728C684.921 53.6959 683.903 52.5356 683.194 51.1872C682.559 49.8522 682.243 48.3872 682.27 46.9083C682.269 45.3675 682.677 43.8541 683.452 42.5242C684.288 41.0975 685.407 39.8579 686.739 38.8819C688.775 37.2734 691.178 36.197 693.731 35.749C696.284 35.301 698.907 35.4955 701.367 36.315C702.991 36.827 704.549 37.531 706.007 38.4121C707.068 39.0465 708.037 39.8238 708.887 40.7223C709.585 41.5077 710.046 42.0442 710.294 42.3573L710.47 42.5832L712.875 41.1124L712.637 40.8249C712.091 40.2081 711.502 39.6308 710.874 39.0975C709.805 38.1939 708.623 37.4345 707.357 36.8387C705.655 36.0219 703.875 35.3795 702.045 34.9213C698.825 34.0608 695.441 34.0332 692.208 34.8412C688.975 35.6491 685.998 37.2663 683.557 39.5415C682.242 40.7089 681.239 42.1868 680.637 43.8415C680.035 45.4962 679.853 47.2755 680.109 49.0182C680.68 51.4627 681.805 53.7421 683.398 55.6787C684.99 57.6154 687.006 59.1571 689.289 60.1839C691.779 61.3311 694.343 62.3112 696.962 63.1178C701.556 64.2918 705.861 66.3989 709.611 69.309C710.92 70.4392 711.953 71.8567 712.629 73.4518C713.237 74.9915 713.543 76.6342 713.532 78.2903C713.54 80.2791 713.132 82.2475 712.335 84.0682C711.531 85.8761 710.343 87.4855 708.854 88.7834C707.208 90.1898 705.305 91.2621 703.252 91.9406C701.524 92.5377 699.721 92.8877 697.896 92.9802C697.026 93.025 696.153 93.0121 695.285 92.9417C691.752 92.5984 688.325 91.5391 685.212 89.8281C683.716 89.0385 682.282 88.134 680.925 87.1227C680.303 86.6749 679.718 86.1779 679.175 85.6365L679.099 85.5544C677.999 84.389 677.963 84.3505 677.705 84.5456L677.308 84.8434C676.838 85.1925 676.367 85.5415 675.891 85.8855L675.566 86.1191L675.866 86.3758C677.081 87.4677 678.379 88.4648 679.746 89.3584C684.659 92.5642 690.386 94.2848 696.246 94.3149C698.864 94.332 701.468 93.9228 703.956 93.1034C706.311 92.3445 708.513 91.1692 710.457 89.6331C712.22 88.2236 713.67 86.4612 714.716 84.4583C715.731 82.4997 716.258 80.3233 716.251 78.1157C716.255 76.1323 715.933 74.1619 715.297 72.2839C714.624 70.366 713.523 68.6276 712.079 67.2016Z" fill="white"/>
</svg>
