<svg width="256" height="108" viewBox="0 0 256 108" fill="none" xmlns="http://www.w3.org/2000/svg">
<path d="M0 0.703532V42.9153H5.36471V13.2118L18.1271 42.9153H23.9718L36.7341 13.1835V42.9153H42.0988V0.703532H36.2824L21.0353 36.1953L5.81647 0.703532H0ZM59.2553 11.4047C56.3753 11.4047 53.7212 12.1388 51.3494 13.5506C48.9494 14.9624 47.0576 16.8824 45.6459 19.2541C44.2059 21.6541 43.5 24.28 43.5 27.16C43.5 30.0682 44.2059 32.6941 45.6459 35.0659C47.0576 37.4659 48.9494 39.3576 51.3494 40.7976C53.7212 42.2094 56.3753 42.9153 59.2553 42.9153C62.1353 42.9153 64.7894 42.2094 67.1612 40.7976C69.5612 39.3576 71.4529 37.4659 72.8647 35.0659C74.3047 32.6941 75.0106 30.0682 75.0106 27.16C75.0106 24.28 74.3047 21.6541 72.8647 19.2541C71.4529 16.8824 69.5612 14.9624 67.1612 13.5506C64.7894 12.1388 62.1353 11.4047 59.2553 11.4047ZM59.2553 16.7694C61.1753 16.7694 62.9259 17.2212 64.5071 18.1529C66.06 19.0847 67.3306 20.3553 68.2624 21.9082C69.1941 23.4894 69.6459 25.24 69.6459 27.16C69.6459 29.08 69.1941 30.8306 68.2624 32.4118C67.3306 33.9929 66.06 35.2353 64.5071 36.1671C62.9259 37.0988 61.1753 37.5788 59.2553 37.5788C57.3353 37.5788 55.5847 37.0988 54.0035 36.1671C52.4224 35.2353 51.18 33.9929 50.2482 32.4118C49.3165 30.8306 48.8647 29.08 48.8647 27.16C48.8647 25.24 49.3165 23.4894 50.2482 21.9082C51.18 20.3553 52.4224 19.0847 54.0035 18.1529C55.5847 17.2212 57.3353 16.7694 59.2553 16.7694ZM76.4062 11.4047V42.9153H81.771V27.16C81.771 25.24 82.2227 23.4894 83.1545 21.9082C84.0862 20.3553 85.3286 19.0847 86.9098 18.1529C88.491 17.2212 90.2415 16.7694 92.1615 16.7694V11.4047C90.1568 11.4047 88.2933 11.7718 86.5145 12.4494C84.7357 13.1553 83.1545 14.1153 81.771 15.3576V11.4047H76.4062ZM105.943 11.4047C103.345 11.4047 100.973 11.9976 98.771 13.1553C96.5687 14.2847 94.7334 15.8376 93.2651 17.8141C91.8251 19.7624 90.8651 21.9929 90.4134 24.4776C90.2722 25.4376 90.1875 26.3412 90.1875 27.16C90.2157 28.1482 90.3004 29.0235 90.4134 29.8424C90.8651 32.3553 91.8251 34.5859 93.2934 36.5341C94.7616 38.4824 96.5687 40.0353 98.771 41.1929C100.973 42.3506 103.345 42.9153 105.943 42.9153C108.004 42.9153 109.952 42.5482 111.787 41.7859C113.595 41.0518 115.232 40.0071 116.644 38.7082L113.34 34.5012C112.409 35.4612 111.279 36.1953 110.037 36.76C108.766 37.2965 107.383 37.5788 105.943 37.5788C103.515 37.5788 101.397 36.8447 99.5616 35.4047C97.7263 33.9647 96.5122 32.1294 95.891 29.8424H121.472C121.613 28.9671 121.698 28.0918 121.698 27.16C121.67 26.2 121.585 25.2965 121.472 24.4776C121.02 21.9929 120.06 19.7624 118.592 17.8141C117.124 15.8376 115.317 14.2847 113.115 13.1553C110.912 11.9976 108.512 11.4047 105.943 11.4047ZM105.943 16.7694C108.371 16.7694 110.489 17.4753 112.324 18.9153C114.131 20.3553 115.373 22.2188 115.995 24.4776H95.891C96.5122 22.2188 97.7263 20.3553 99.5616 18.9153C101.397 17.4753 103.515 16.7694 105.943 16.7694ZM140.906 0.703532V27.2447C140.963 30.1529 141.669 32.7788 143.08 35.1506C144.492 37.4941 146.384 39.3859 148.756 40.7976C151.156 42.2094 153.782 42.9153 156.662 42.9153V37.5788C154.742 37.5788 152.991 37.0988 151.41 36.1671C149.857 35.2353 148.614 33.9929 147.683 32.44C146.751 30.8871 146.299 29.1365 146.271 27.1882V24.4776H156.662V19.1412H146.271V0.703532H140.906ZM158.062 0.703532V42.9153H163.399V27.1035C163.427 25.1553 163.907 23.4047 164.839 21.8518C165.771 20.2988 167.013 19.0847 168.566 18.1529C170.119 17.2212 171.87 16.7694 173.79 16.7694C175.71 16.7694 177.46 17.2212 179.041 18.1529C180.594 19.0847 181.837 20.3271 182.768 21.88C183.7 23.4329 184.18 25.1835 184.208 27.1318V43H189.545V26.9624C189.545 24.8729 189.178 22.8965 188.472 21.0329C187.766 19.1412 186.721 17.4753 185.338 16.0353C183.954 14.5953 182.288 13.4659 180.34 12.6471C178.392 11.8282 176.218 11.4047 173.818 11.4047C171.813 11.4047 169.95 11.7435 168.171 12.4494C166.392 13.1553 164.811 14.1153 163.399 15.3576V0.703532H158.062ZM206.724 11.4047C203.844 11.4047 201.19 12.1388 198.818 13.5506C196.418 14.9624 194.526 16.8824 193.115 19.2541C191.675 21.6541 190.969 24.28 190.969 27.16C190.969 30.0682 191.675 32.6941 193.115 35.0659C194.526 37.4659 196.418 39.3576 198.818 40.7976C201.19 42.2094 203.844 42.9153 206.724 42.9153C208.701 42.9153 210.592 42.5765 212.371 41.8706C214.122 41.1929 215.731 40.2047 217.115 38.9624V42.9153H222.479V27.16C222.451 24.2235 221.717 21.5976 220.305 19.2259C218.893 16.8541 217.002 14.9624 214.63 13.5506C212.258 12.1388 209.604 11.4047 206.724 11.4047ZM206.724 16.7694C208.644 16.7694 210.395 17.2212 211.976 18.1529C213.529 19.0847 214.799 20.3553 215.731 21.9082C216.663 23.4894 217.115 25.24 217.115 27.16C217.115 29.08 216.663 30.8306 215.731 32.4118C214.799 33.9929 213.529 35.2353 211.976 36.1671C210.395 37.0988 208.644 37.5788 206.724 37.5788C204.804 37.5788 203.053 37.0988 201.472 36.1671C199.891 35.2353 198.649 33.9929 197.717 32.4118C196.785 30.8306 196.333 29.08 196.333 27.16C196.333 25.24 196.785 23.4894 197.717 21.9082C198.649 20.3553 199.891 19.0847 201.472 18.1529C203.053 17.2212 204.804 16.7694 206.724 16.7694ZM223.875 11.4047V42.9153H229.24V27.16C229.24 25.24 229.691 23.4894 230.623 21.9082C231.555 20.3553 232.797 19.0847 234.379 18.1529C235.96 17.2212 237.71 16.7694 239.63 16.7694C241.55 16.7694 243.301 17.2212 244.854 18.1529C246.435 19.0847 247.677 20.3271 248.609 21.88C249.513 23.4329 249.993 25.1835 250.021 27.1035V42.9153H255.386V27.16C255.386 24.28 254.68 21.6259 253.24 19.2541C251.828 16.8824 249.908 14.9624 247.536 13.5506C245.164 12.1388 242.51 11.4047 239.63 11.4047C237.626 11.4047 235.762 11.7718 233.983 12.4494C232.204 13.1553 230.623 14.1153 229.24 15.3576V11.4047H223.875ZM10.3906 65.4047V91.8894C10.3906 93.8094 9.93882 95.56 9.00706 97.1129C8.07529 98.6941 6.83294 99.9365 5.25176 100.868C3.67059 101.8 1.92 102.28 0 102.28V107.616C2.88 107.616 5.50588 106.911 7.90588 105.499C10.2776 104.087 12.1694 102.195 13.5812 99.8235C14.9929 97.48 15.6988 94.8259 15.7553 91.9176V65.4047H10.3906ZM10.3906 54.7035V60.0682H15.7553V54.7035H10.3906ZM48.6668 96.9153V65.4047H43.3021V81.16C43.2739 83.1082 42.8221 84.8588 41.8904 86.44C40.9586 87.9929 39.7162 89.2353 38.1633 90.1671C36.5821 91.0988 34.8315 91.5788 32.9115 91.5788C30.9915 91.5788 29.241 91.0988 27.688 90.1671C26.1068 89.2635 24.8645 88.0212 23.9327 86.4682C23.0292 84.9153 22.5492 83.1647 22.521 81.2165V65.4047H17.1562V81.16C17.1845 84.0965 17.9186 86.7506 19.3021 89.0941C20.7139 91.4659 22.6057 93.3576 25.0057 94.7976C27.3774 96.2094 30.0315 96.9153 32.9115 96.9153C34.888 96.9153 36.7798 96.5765 38.5586 95.8706C40.3092 95.1647 41.9186 94.2047 43.3021 92.9624V96.9153H48.6668ZM62.0625 65.4329C61.8084 65.4329 61.5543 65.4047 61.3001 65.4047C60.1425 65.4047 59.0413 65.5176 57.9684 65.7435C56.6696 65.9976 55.4837 66.5341 54.3825 67.2965C53.2813 68.1153 52.4343 69.1318 51.8413 70.3459C51.2484 71.56 50.9378 72.8306 50.9096 74.1576C50.966 75.7388 51.3896 77.1506 52.1801 78.3647C52.9425 79.5788 54.0154 80.5106 55.3425 81.1318C56.5284 81.64 57.7425 82.0635 58.9849 82.4306C60.2272 82.7976 61.4131 83.1365 62.5707 83.4188C62.7684 83.4753 62.9378 83.5318 63.1354 83.56C65.9025 84.2659 67.6249 84.8306 68.3025 85.2824C69.2907 85.9318 69.7707 86.8071 69.7707 87.9365C69.7707 89.1788 69.206 90.28 68.1049 91.2118C67.0037 92.1435 65.2813 92.6235 62.966 92.6235C61.8084 92.6235 60.7637 92.5106 59.8601 92.2565C58.9284 92.0024 58.166 91.6071 57.5731 91.0424C56.8672 90.3365 56.359 89.6024 55.9919 88.7835C55.6249 87.9647 55.3707 87.2024 55.2578 86.44L50.0625 87.2588C50.6554 90.4494 51.9543 92.8494 53.9872 94.5153C55.3143 95.56 56.8107 96.2094 58.4766 96.52C60.1425 96.8306 61.5543 96.9718 62.7684 96.9718H62.9943C64.1519 96.9718 65.3096 96.8588 66.439 96.6047C67.5401 96.3788 68.5284 96.0965 69.3472 95.7294C70.3354 95.3059 71.2107 94.7976 71.9731 94.1482C72.7072 93.4988 73.2719 92.8776 73.639 92.2282C74.0625 91.4941 74.4296 90.6471 74.7119 89.6871C74.9943 88.7553 75.1354 87.9929 75.1637 87.4C75.1637 85.6494 74.7401 84.1812 73.9213 82.9953C72.8484 81.64 71.3801 80.5953 69.5166 79.8894C67.6531 79.1835 65.7049 78.6188 63.6437 78.1388C61.7519 77.7153 60.0578 77.2071 58.5049 76.6141C57.1213 75.9082 56.3872 75.2588 56.2743 74.6376C56.1613 73.9882 56.1049 73.5929 56.1049 73.4235C56.1049 72.52 56.5566 71.6729 57.4601 70.9106C58.4484 70.1482 60.086 69.7812 62.4013 69.7812C63.3896 69.7812 64.2931 69.8659 65.0554 70.0635C65.8178 70.2612 66.4672 70.5718 66.9472 71.0518C67.9919 72.1247 68.6413 73.3106 68.8954 74.6094L74.0343 73.9035C73.8366 73.0565 73.6107 72.2376 73.3566 71.4188C73.0743 70.6 72.7072 69.8941 72.2554 69.2447C71.4366 68.0306 70.0813 67.0424 68.2178 66.28C67.2013 65.8847 66.2413 65.6306 65.3378 65.5459C64.4343 65.4612 63.6154 65.4047 62.8249 65.4047L62.0625 65.4329ZM76.5938 54.7035V81.2447C76.6502 84.1529 77.3561 86.7788 78.7679 89.1506C80.1796 91.4941 82.0714 93.3859 84.4432 94.7976C86.8432 96.2094 89.469 96.9153 92.349 96.9153V91.5788C90.429 91.5788 88.6785 91.0988 87.0973 90.1671C85.5443 89.2353 84.302 87.9929 83.3702 86.44C82.4385 84.8871 81.9867 83.1365 81.9585 81.1882V78.4776H92.349V73.1412H81.9585V54.7035H76.5938ZM127.318 65.4047C124.438 65.4047 121.784 66.1388 119.412 67.5506C117.012 68.9624 115.12 70.8824 113.708 73.2541C112.268 75.6541 111.562 78.28 111.562 81.16C111.562 84.0682 112.268 86.6941 113.708 89.0659C115.12 91.4659 117.012 93.3576 119.412 94.7976C121.784 96.2094 124.438 96.9153 127.318 96.9153C129.294 96.9153 131.186 96.5765 132.965 95.8706C134.715 95.1929 136.297 94.2047 137.708 92.9906L134.038 89.1224C133.134 89.8847 132.118 90.4776 130.96 90.9294C129.831 91.3529 128.617 91.5788 127.318 91.5788C125.398 91.5788 123.647 91.0988 122.066 90.1671C120.485 89.2353 119.242 87.9929 118.311 86.4118C117.379 84.8306 116.927 83.08 116.927 81.16C116.927 79.24 117.379 77.4894 118.311 75.9082C119.242 74.3553 120.485 73.0847 122.066 72.1529C123.647 71.2212 125.398 70.7694 127.318 70.7694C128.617 70.7694 129.859 70.9953 130.988 71.4188C132.146 71.8706 133.191 72.4918 134.094 73.2824L137.991 69.6118C136.579 68.2847 134.941 67.2682 133.134 66.5341C131.299 65.8 129.379 65.4047 127.318 65.4047ZM155.162 65.4047C152.282 65.4047 149.627 66.1388 147.256 67.5506C144.856 68.9624 142.964 70.8824 141.552 73.2541C140.112 75.6541 139.406 78.28 139.406 81.16C139.406 84.0682 140.112 86.6941 141.552 89.0659C142.964 91.4659 144.856 93.3576 147.256 94.7976C149.627 96.2094 152.282 96.9153 155.162 96.9153C157.138 96.9153 159.03 96.5765 160.809 95.8706C162.559 95.1929 164.169 94.2047 165.552 92.9624V96.9153H170.917V81.16C170.889 78.2235 170.154 75.5976 168.743 73.2259C167.331 70.8541 165.439 68.9624 163.067 67.5506C160.696 66.1388 158.042 65.4047 155.162 65.4047ZM155.162 70.7694C157.082 70.7694 158.832 71.2212 160.413 72.1529C161.966 73.0847 163.237 74.3553 164.169 75.9082C165.1 77.4894 165.552 79.24 165.552 81.16C165.552 83.08 165.1 84.8306 164.169 86.4118C163.237 87.9929 161.966 89.2353 160.413 90.1671C158.832 91.0988 157.082 91.5788 155.162 91.5788C153.242 91.5788 151.491 91.0988 149.91 90.1671C148.329 89.2353 147.086 87.9929 146.154 86.4118C145.223 84.8306 144.771 83.08 144.771 81.16C144.771 79.24 145.223 77.4894 146.154 75.9082C147.086 74.3553 148.329 73.0847 149.91 72.1529C151.491 71.2212 153.242 70.7694 155.162 70.7694ZM188.068 96.9153C190.948 96.9153 193.602 96.2094 195.974 94.7976C198.374 93.3576 200.265 91.4659 201.677 89.0659C203.117 86.6941 203.823 84.0682 203.823 81.16C203.823 78.28 203.117 75.6541 201.677 73.2541C200.265 70.8824 198.374 68.9624 195.974 67.5506C193.602 66.1388 190.948 65.4047 188.068 65.4047C186.063 65.4047 184.2 65.7718 182.421 66.4494C180.642 67.1553 179.061 68.1153 177.677 69.3576V54.7035H172.312V81.1882C172.341 84.0965 173.075 86.7506 174.487 89.1224C175.87 91.4659 177.762 93.3576 180.162 94.7976C182.534 96.2094 185.188 96.9153 188.068 96.9153ZM188.068 91.5788C186.148 91.5788 184.397 91.0988 182.816 90.1671C181.235 89.2353 179.992 87.9929 179.061 86.4118C178.129 84.8306 177.677 83.08 177.677 81.16C177.677 79.24 178.129 77.4894 179.061 75.9082C179.992 74.3553 181.235 73.0847 182.816 72.1529C184.397 71.2212 186.148 70.7694 188.068 70.7694C189.988 70.7694 191.738 71.2212 193.32 72.1529C194.872 73.0847 196.143 74.3553 197.075 75.9082C198.007 77.4894 198.458 79.24 198.458 81.16C198.458 83.08 198.007 84.8306 197.075 86.4118C196.143 87.9929 194.872 89.2353 193.32 90.1671C191.738 91.0988 189.988 91.5788 188.068 91.5788ZM205.219 54.7035V96.9153H210.583V54.7035H205.219ZM227.771 65.4047C225.173 65.4047 222.802 65.9976 220.599 67.1553C218.397 68.2847 216.562 69.8376 215.093 71.8141C213.653 73.7624 212.693 75.9929 212.242 78.4776C212.1 79.4376 212.016 80.3412 212.016 81.16C212.044 82.1482 212.129 83.0235 212.242 83.8424C212.693 86.3553 213.653 88.5859 215.122 90.5341C216.59 92.4824 218.397 94.0353 220.599 95.1929C222.802 96.3506 225.173 96.9153 227.771 96.9153C229.832 96.9153 231.78 96.5482 233.616 95.7859C235.423 95.0518 237.06 94.0071 238.472 92.7082L235.169 88.5012C234.237 89.4612 233.107 90.1953 231.865 90.76C230.594 91.2965 229.211 91.5788 227.771 91.5788C225.343 91.5788 223.225 90.8447 221.39 89.4047C219.554 87.9647 218.34 86.1294 217.719 83.8424H243.3C243.442 82.9671 243.526 82.0918 243.526 81.16C243.498 80.2 243.413 79.2965 243.3 78.4776C242.849 75.9929 241.889 73.7624 240.42 71.8141C238.952 69.8376 237.145 68.2847 234.943 67.1553C232.74 65.9976 230.34 65.4047 227.771 65.4047ZM227.771 70.7694C230.199 70.7694 232.317 71.4753 234.152 72.9153C235.959 74.3553 237.202 76.2188 237.823 78.4776H217.719C218.34 76.2188 219.554 74.3553 221.39 72.9153C223.225 71.4753 225.343 70.7694 227.771 70.7694Z" fill="white"/>
</svg>
