<svg width="548" height="130" viewBox="0 0 548 130" fill="none" xmlns="http://www.w3.org/2000/svg">
<path d="M52 11.0001C48.287 11.0001 44.726 12.4751 42.1005 15.1006C39.475 17.7261 38 21.2871 38 25.0001V45.0001C38 48.7132 39.475 52.2741 42.1005 54.8996C44.726 57.5251 48.287 59.0001 52 59.0001H72C75.713 59.0001 79.274 57.5251 81.8995 54.8996C84.525 52.2741 86 48.7132 86 45.0001V35.0001C86 34.4697 86.2107 33.961 86.5858 33.5859C86.9609 33.2108 87.4696 33.0001 88 33.0001C88.5304 33.0001 89.0391 33.2108 89.4142 33.5859C89.7893 33.961 90 34.4697 90 35.0001V45.0001C90 49.774 88.1036 54.3524 84.7279 57.728C81.3523 61.1037 76.7739 63.0001 72 63.0001H52C47.2261 63.0001 42.6477 61.1037 39.2721 57.728C35.8964 54.3524 34 49.774 34 45.0001V25.0001C34 20.2262 35.8964 15.6479 39.2721 12.2722C42.6477 8.89654 47.2261 7.00012 52 7.00012H62C62.5304 7.00012 63.0391 7.21084 63.4142 7.58591C63.7893 7.96098 64 8.46969 64 9.00012C64 9.53056 63.7893 10.0393 63.4142 10.4143C63.0391 10.7894 62.5304 11.0001 62 11.0001H52Z" fill="#A650FF"/>
<path d="M94 15C94 18.1826 92.7357 21.2348 90.4853 23.4853C88.2348 25.7357 85.1826 27 82 27C78.8174 27 75.7652 25.7357 73.5147 23.4853C71.2643 21.2348 70 18.1826 70 15C70 11.8174 71.2643 8.76515 73.5147 6.51472C75.7652 4.26428 78.8174 3 82 3C85.1826 3 88.2348 4.26428 90.4853 6.51472C92.7357 8.76515 94 11.8174 94 15Z" fill="#A650FF"/>
<path d="M33.374 91.7676C32.167 91.7676 31.2178 92.1953 30.5264 93.0508C29.835 93.9062 29.4893 95.0869 29.4893 96.5928C29.4893 98.1689 29.8203 99.3613 30.4824 100.17C31.1504 100.979 32.1143 101.383 33.374 101.383C33.9189 101.383 34.4463 101.33 34.9561 101.225C35.4658 101.113 35.9961 100.973 36.5469 100.803V102.604C35.5391 102.985 34.3965 103.176 33.1191 103.176C31.2383 103.176 29.7939 102.607 28.7861 101.471C27.7783 100.328 27.2744 98.6963 27.2744 96.5752C27.2744 95.2393 27.5176 94.0703 28.0039 93.0684C28.4961 92.0664 29.2051 91.2988 30.1309 90.7656C31.0566 90.2324 32.1436 89.9658 33.3916 89.9658C34.7041 89.9658 35.917 90.2412 37.0303 90.792L36.2744 92.541C35.8408 92.3359 35.3809 92.1572 34.8945 92.0049C34.4141 91.8467 33.9072 91.7676 33.374 91.7676ZM45.9512 103L45.6611 101.726H45.5557C45.2686 102.177 44.8584 102.531 44.3252 102.789C43.7979 103.047 43.1943 103.176 42.5146 103.176C41.3369 103.176 40.458 102.883 39.8779 102.297C39.2979 101.711 39.0078 100.823 39.0078 99.6338V93.2793H41.0908V99.2734C41.0908 100.018 41.2432 100.577 41.5479 100.952C41.8525 101.321 42.3301 101.506 42.9805 101.506C43.8477 101.506 44.4834 101.248 44.8877 100.732C45.2979 100.211 45.5029 99.3408 45.5029 98.1221V93.2793H47.5771V103H45.9512ZM57.0518 100.231C57.0518 101.181 56.7061 101.91 56.0146 102.42C55.3232 102.924 54.333 103.176 53.0439 103.176C51.749 103.176 50.709 102.979 49.9238 102.587V100.803C51.0664 101.33 52.1299 101.594 53.1143 101.594C54.3857 101.594 55.0215 101.21 55.0215 100.442C55.0215 100.196 54.9512 99.9912 54.8105 99.8271C54.6699 99.6631 54.4385 99.4932 54.1162 99.3174C53.7939 99.1416 53.3457 98.9424 52.7715 98.7197C51.6523 98.2861 50.8936 97.8525 50.4951 97.4189C50.1025 96.9854 49.9062 96.4229 49.9062 95.7314C49.9062 94.8994 50.2402 94.2549 50.9082 93.7979C51.582 93.335 52.4961 93.1035 53.6504 93.1035C54.793 93.1035 55.874 93.335 56.8936 93.7979L56.2256 95.3535C55.1768 94.9199 54.2949 94.7031 53.5801 94.7031C52.4902 94.7031 51.9453 95.0137 51.9453 95.6348C51.9453 95.9395 52.0859 96.1973 52.3672 96.4082C52.6543 96.6191 53.2754 96.9092 54.2305 97.2783C55.0332 97.5889 55.6162 97.873 55.9795 98.1309C56.3428 98.3887 56.6123 98.6875 56.7881 99.0273C56.9639 99.3613 57.0518 99.7627 57.0518 100.231ZM62.9141 101.506C63.418 101.506 63.9219 101.427 64.4258 101.269V102.824C64.1973 102.924 63.9014 103.006 63.5381 103.07C63.1807 103.141 62.8086 103.176 62.4219 103.176C60.4648 103.176 59.4863 102.145 59.4863 100.082V94.8438H58.1592V93.9297L59.583 93.1738L60.2861 91.1172H61.5605V93.2793H64.3291V94.8438H61.5605V100.047C61.5605 100.545 61.6836 100.914 61.9297 101.154C62.1816 101.389 62.5098 101.506 62.9141 101.506ZM74.999 98.1221C74.999 99.71 74.5918 100.949 73.7773 101.84C72.9629 102.73 71.8291 103.176 70.376 103.176C69.4678 103.176 68.665 102.971 67.9678 102.561C67.2705 102.15 66.7344 101.562 66.3594 100.794C65.9844 100.026 65.7969 99.1357 65.7969 98.1221C65.7969 96.5459 66.2012 95.3154 67.0098 94.4307C67.8184 93.5459 68.958 93.1035 70.4287 93.1035C71.835 93.1035 72.9482 93.5576 73.7686 94.4658C74.5889 95.3682 74.999 96.5869 74.999 98.1221ZM67.9238 98.1221C67.9238 100.366 68.7529 101.488 70.4111 101.488C72.0518 101.488 72.8721 100.366 72.8721 98.1221C72.8721 95.9014 72.0459 94.791 70.3936 94.791C69.5264 94.791 68.8965 95.0781 68.5039 95.6523C68.1172 96.2266 67.9238 97.0498 67.9238 98.1221ZM85.5723 103H83.498V97.0059C83.498 96.2617 83.3574 95.708 83.0762 95.3447C82.7949 94.9756 82.3555 94.791 81.7578 94.791C80.9609 94.791 80.375 95.0518 80 95.5732C79.6309 96.0889 79.4463 96.9502 79.4463 98.1572V103H77.3809V93.2793H78.998L79.2881 94.5537H79.3936C79.6631 94.0908 80.0527 93.7334 80.5625 93.4814C81.0781 93.2295 81.6436 93.1035 82.2588 93.1035C83.7529 93.1035 84.7432 93.6133 85.2295 94.6328H85.3701C85.6572 94.1523 86.0615 93.7773 86.583 93.5078C87.1045 93.2383 87.7021 93.1035 88.376 93.1035C89.5361 93.1035 90.3799 93.3965 90.9072 93.9824C91.4404 94.5684 91.707 95.4619 91.707 96.6631V103H89.6416V97.0059C89.6416 96.2617 89.498 95.708 89.2109 95.3447C88.9297 94.9756 88.4902 94.791 87.8926 94.791C87.0898 94.791 86.501 95.043 86.126 95.5469C85.7568 96.0449 85.5723 96.8125 85.5723 97.8496V103ZM9.98633 125L8.70312 121.432H3.79004L2.5332 125H0.318359L5.12598 112.098H7.41113L12.2188 125H9.98633ZM8.14941 119.621L6.94531 116.123C6.85742 115.889 6.73438 115.52 6.57617 115.016C6.42383 114.512 6.31836 114.143 6.25977 113.908C6.10156 114.629 5.87012 115.417 5.56543 116.272L4.40527 119.621H8.14941ZM18.626 125.176C17.3955 125.176 16.4404 124.733 15.7607 123.849H15.6377C15.7197 124.669 15.7607 125.167 15.7607 125.343V129.324H13.6953V115.279H15.3652C15.4121 115.461 15.5088 115.895 15.6553 116.58H15.7607C16.4053 115.596 17.3721 115.104 18.6611 115.104C19.874 115.104 20.8174 115.543 21.4912 116.422C22.1709 117.301 22.5107 118.534 22.5107 120.122C22.5107 121.71 22.165 122.949 21.4736 123.84C20.7881 124.73 19.8389 125.176 18.626 125.176ZM18.125 116.791C17.3047 116.791 16.7041 117.031 16.3232 117.512C15.9482 117.992 15.7607 118.76 15.7607 119.814V120.122C15.7607 121.306 15.9482 122.164 16.3232 122.697C16.6982 123.225 17.3105 123.488 18.1602 123.488C18.875 123.488 19.4258 123.195 19.8125 122.609C20.1992 122.023 20.3926 121.188 20.3926 120.104C20.3926 119.015 20.1992 118.191 19.8125 117.635C19.4316 117.072 18.8691 116.791 18.125 116.791ZM29.8408 125.176C28.6104 125.176 27.6553 124.733 26.9756 123.849H26.8525C26.9346 124.669 26.9756 125.167 26.9756 125.343V129.324H24.9102V115.279H26.5801C26.627 115.461 26.7236 115.895 26.8701 116.58H26.9756C27.6201 115.596 28.5869 115.104 29.876 115.104C31.0889 115.104 32.0322 115.543 32.7061 116.422C33.3857 117.301 33.7256 118.534 33.7256 120.122C33.7256 121.71 33.3799 122.949 32.6885 123.84C32.0029 124.73 31.0537 125.176 29.8408 125.176ZM29.3398 116.791C28.5195 116.791 27.9189 117.031 27.5381 117.512C27.1631 117.992 26.9756 118.76 26.9756 119.814V120.122C26.9756 121.306 27.1631 122.164 27.5381 122.697C27.9131 123.225 28.5254 123.488 29.375 123.488C30.0898 123.488 30.6406 123.195 31.0273 122.609C31.4141 122.023 31.6074 121.188 31.6074 120.104C31.6074 119.015 31.4141 118.191 31.0273 117.635C30.6465 117.072 30.084 116.791 29.3398 116.791ZM42.6553 122.231C42.6553 123.181 42.3096 123.91 41.6182 124.42C40.9268 124.924 39.9365 125.176 38.6475 125.176C37.3525 125.176 36.3125 124.979 35.5273 124.587V122.803C36.6699 123.33 37.7334 123.594 38.7178 123.594C39.9893 123.594 40.625 123.21 40.625 122.442C40.625 122.196 40.5547 121.991 40.4141 121.827C40.2734 121.663 40.042 121.493 39.7197 121.317C39.3975 121.142 38.9492 120.942 38.375 120.72C37.2559 120.286 36.4971 119.853 36.0986 119.419C35.7061 118.985 35.5098 118.423 35.5098 117.731C35.5098 116.899 35.8438 116.255 36.5117 115.798C37.1855 115.335 38.0996 115.104 39.2539 115.104C40.3965 115.104 41.4775 115.335 42.4971 115.798L41.8291 117.354C40.7803 116.92 39.8984 116.703 39.1836 116.703C38.0938 116.703 37.5488 117.014 37.5488 117.635C37.5488 117.939 37.6895 118.197 37.9707 118.408C38.2578 118.619 38.8789 118.909 39.834 119.278C40.6367 119.589 41.2197 119.873 41.583 120.131C41.9463 120.389 42.2158 120.688 42.3916 121.027C42.5674 121.361 42.6553 121.763 42.6553 122.231ZM52.0596 114.919C52.0596 115.288 52.1562 115.637 52.3496 115.965C52.5488 116.293 52.8242 116.642 53.1758 117.011C53.8379 116.636 54.3008 116.287 54.5645 115.965C54.834 115.637 54.9688 115.271 54.9688 114.866C54.9688 114.485 54.8398 114.181 54.582 113.952C54.3301 113.724 53.9932 113.609 53.5713 113.609C53.1084 113.609 52.7393 113.729 52.4639 113.97C52.1943 114.204 52.0596 114.521 52.0596 114.919ZM53.3691 123.4C54.4414 123.4 55.3584 123.087 56.1201 122.46L52.7539 119.146C52.1328 119.545 51.7051 119.92 51.4707 120.271C51.2363 120.617 51.1191 121.013 51.1191 121.458C51.1191 122.032 51.3213 122.501 51.7256 122.864C52.1357 123.222 52.6836 123.4 53.3691 123.4ZM48.9395 121.599C48.9395 120.831 49.127 120.163 49.502 119.595C49.877 119.021 50.5537 118.452 51.5322 117.89C50.9756 117.239 50.5947 116.691 50.3896 116.246C50.1904 115.795 50.0908 115.329 50.0908 114.849C50.0908 113.958 50.4072 113.255 51.04 112.739C51.6787 112.224 52.5342 111.966 53.6064 111.966C54.6436 111.966 55.458 112.218 56.0498 112.722C56.6416 113.22 56.9375 113.894 56.9375 114.743C56.9375 115.411 56.7383 116.018 56.3398 116.562C55.9473 117.107 55.2881 117.652 54.3623 118.197L57.4033 121.133C57.8779 120.506 58.2734 119.586 58.5898 118.373H60.7168C60.3066 120.037 59.6504 121.394 58.748 122.442L61.3936 125H58.7305L57.4209 123.726C56.8232 124.206 56.1846 124.569 55.5049 124.815C54.8311 125.056 54.084 125.176 53.2637 125.176C51.916 125.176 50.8584 124.856 50.0908 124.218C49.3232 123.579 48.9395 122.706 48.9395 121.599ZM75.1133 112.15H77.293L72.793 125H70.5781L66.0957 112.15H68.2578L70.9385 120.14C71.0791 120.521 71.2285 121.013 71.3867 121.616C71.5449 122.214 71.6475 122.659 71.6943 122.952C71.7705 122.507 71.8877 121.991 72.0459 121.405C72.2041 120.819 72.333 120.386 72.4326 120.104L75.1133 112.15ZM80.835 125H78.7695V115.279H80.835V125ZM78.6465 112.704C78.6465 112.335 78.7461 112.051 78.9453 111.852C79.1504 111.652 79.4404 111.553 79.8154 111.553C80.1787 111.553 80.46 111.652 80.6592 111.852C80.8643 112.051 80.9668 112.335 80.9668 112.704C80.9668 113.056 80.8643 113.334 80.6592 113.539C80.46 113.738 80.1787 113.838 79.8154 113.838C79.4404 113.838 79.1504 113.738 78.9453 113.539C78.7461 113.334 78.6465 113.056 78.6465 112.704ZM87.0752 125.176C85.8623 125.176 84.916 124.736 84.2363 123.857C83.5566 122.979 83.2168 121.745 83.2168 120.157C83.2168 118.563 83.5596 117.324 84.2451 116.439C84.9365 115.549 85.8916 115.104 87.1104 115.104C88.3877 115.104 89.3604 115.575 90.0283 116.519H90.1338C90.0342 115.821 89.9844 115.271 89.9844 114.866V111.324H92.0586V125H90.4414L90.0811 123.726H89.9844C89.3223 124.692 88.3525 125.176 87.0752 125.176ZM87.6289 123.506C88.4785 123.506 89.0967 123.269 89.4834 122.794C89.8701 122.313 90.0693 121.537 90.0811 120.465V120.175C90.0811 118.95 89.8818 118.08 89.4834 117.564C89.085 117.049 88.4609 116.791 87.6113 116.791C86.8848 116.791 86.3252 117.087 85.9326 117.679C85.54 118.265 85.3438 119.103 85.3438 120.192C85.3438 121.271 85.5342 122.094 85.915 122.662C86.2959 123.225 86.8672 123.506 87.6289 123.506ZM99.2568 125.176C97.7451 125.176 96.5615 124.736 95.7061 123.857C94.8564 122.973 94.4316 121.757 94.4316 120.21C94.4316 118.622 94.8271 117.374 95.6182 116.466C96.4092 115.558 97.4961 115.104 98.8789 115.104C100.162 115.104 101.176 115.493 101.92 116.272C102.664 117.052 103.036 118.124 103.036 119.489V120.605H96.5586C96.5879 121.549 96.8428 122.275 97.3232 122.785C97.8037 123.289 98.4805 123.541 99.3535 123.541C99.9277 123.541 100.461 123.488 100.953 123.383C101.451 123.271 101.984 123.09 102.553 122.838V124.517C102.049 124.757 101.539 124.927 101.023 125.026C100.508 125.126 99.9189 125.176 99.2568 125.176ZM98.8789 116.668C98.2227 116.668 97.6953 116.876 97.2969 117.292C96.9043 117.708 96.6699 118.314 96.5938 119.111H101.006C100.994 118.309 100.801 117.702 100.426 117.292C100.051 116.876 99.5352 116.668 98.8789 116.668ZM114.005 120.122C114.005 121.71 113.598 122.949 112.783 123.84C111.969 124.73 110.835 125.176 109.382 125.176C108.474 125.176 107.671 124.971 106.974 124.561C106.276 124.15 105.74 123.562 105.365 122.794C104.99 122.026 104.803 121.136 104.803 120.122C104.803 118.546 105.207 117.315 106.016 116.431C106.824 115.546 107.964 115.104 109.435 115.104C110.841 115.104 111.954 115.558 112.774 116.466C113.595 117.368 114.005 118.587 114.005 120.122ZM106.93 120.122C106.93 122.366 107.759 123.488 109.417 123.488C111.058 123.488 111.878 122.366 111.878 120.122C111.878 117.901 111.052 116.791 109.399 116.791C108.532 116.791 107.902 117.078 107.51 117.652C107.123 118.227 106.93 119.05 106.93 120.122ZM122.917 122.231C122.917 123.181 122.571 123.91 121.88 124.42C121.188 124.924 120.198 125.176 118.909 125.176C117.614 125.176 116.574 124.979 115.789 124.587V122.803C116.932 123.33 117.995 123.594 118.979 123.594C120.251 123.594 120.887 123.21 120.887 122.442C120.887 122.196 120.816 121.991 120.676 121.827C120.535 121.663 120.304 121.493 119.981 121.317C119.659 121.142 119.211 120.942 118.637 120.72C117.518 120.286 116.759 119.853 116.36 119.419C115.968 118.985 115.771 118.423 115.771 117.731C115.771 116.899 116.105 116.255 116.773 115.798C117.447 115.335 118.361 115.104 119.516 115.104C120.658 115.104 121.739 115.335 122.759 115.798L122.091 117.354C121.042 116.92 120.16 116.703 119.445 116.703C118.355 116.703 117.811 117.014 117.811 117.635C117.811 117.939 117.951 118.197 118.232 118.408C118.52 118.619 119.141 118.909 120.096 119.278C120.898 119.589 121.481 119.873 121.845 120.131C122.208 120.389 122.478 120.688 122.653 121.027C122.829 121.361 122.917 121.763 122.917 122.231Z" fill="#A650FF"/>
<path d="M288.07 15.8572H310.786C311.317 18.4587 312.796 20.7703 314.934 22.344C317.073 23.9177 319.72 24.6412 322.362 24.3743C325.004 24.1075 327.453 22.8692 329.233 20.8996C331.014 18.93 332 16.3695 332 13.7143C332 11.0591 331.014 8.49856 329.233 6.52898C327.453 4.5594 325.004 3.32115 322.362 3.05428C319.72 2.78741 317.073 3.51094 314.934 5.0846C312.796 6.65826 311.317 8.96993 310.786 11.5714H288.07C284.944 11.5714 281.946 12.8132 279.736 15.0234C277.526 17.2336 276.284 20.2314 276.284 23.3572C276.284 26.4829 277.526 29.4807 279.736 31.6909C281.946 33.9012 284.944 35.1429 288.07 35.1429H311.644C313.633 35.1429 315.541 35.933 316.947 37.3396C318.354 38.7461 319.144 40.6537 319.144 42.6429C319.144 44.632 318.354 46.5396 316.947 47.9462C315.541 49.3527 313.633 50.1428 311.644 50.1428H293.214C292.683 47.5413 291.204 45.2297 289.066 43.656C286.927 42.0823 284.28 41.3588 281.638 41.6257C278.996 41.8926 276.547 43.1308 274.767 45.1004C272.986 47.07 272 49.6305 272 52.2857C272 54.9409 272.986 57.5014 274.767 59.471C276.547 61.4406 278.996 62.6789 281.638 62.9457C284.28 63.2126 286.927 62.4891 289.066 60.9154C291.204 59.3417 292.683 57.0301 293.214 54.4286H311.644C314.77 54.4286 317.768 53.1869 319.978 50.9766C322.188 48.7664 323.43 45.7686 323.43 42.6429C323.43 39.5171 322.188 36.5193 319.978 34.3091C317.768 32.0989 314.77 30.8571 311.644 30.8571H288.07C286.081 30.8571 284.173 30.067 282.767 28.6604C281.36 27.2539 280.57 25.3463 280.57 23.3572C280.57 21.368 281.36 19.4604 282.767 18.0539C284.173 16.6473 286.081 15.8572 288.07 15.8572ZM321.287 7.28574C322.559 7.28574 323.802 7.66276 324.859 8.36914C325.916 9.07552 326.74 10.0795 327.227 11.2542C327.713 12.4289 327.841 13.7214 327.593 14.9685C327.345 16.2155 326.732 17.3609 325.833 18.26C324.934 19.159 323.788 19.7713 322.541 20.0193C321.294 20.2674 320.002 20.1401 318.827 19.6535C317.652 19.167 316.648 18.343 315.942 17.2858C315.235 16.2287 314.858 14.9858 314.858 13.7143C314.858 12.0093 315.535 10.3742 316.741 9.16862C317.947 7.96303 319.582 7.28574 321.287 7.28574ZM282.713 58.7143C281.441 58.7143 280.198 58.3372 279.141 57.6309C278.084 56.9245 277.26 55.9205 276.773 54.7458C276.287 53.5711 276.159 52.2786 276.407 51.0316C276.655 49.7845 277.268 48.6391 278.167 47.74C279.066 46.841 280.212 46.2287 281.459 45.9807C282.706 45.7326 283.998 45.8599 285.173 46.3465C286.348 46.833 287.352 47.657 288.058 48.7142C288.765 49.7714 289.142 51.0143 289.142 52.2857C289.142 53.9907 288.465 55.6258 287.259 56.8314C286.053 58.037 284.418 58.7143 282.713 58.7143Z" fill="#A650FF"/>
<path d="M231.318 100V87.1504H233.419V100H231.318ZM245.152 100H243.078V94.0234C243.078 93.2734 242.926 92.7139 242.621 92.3447C242.322 91.9756 241.845 91.791 241.188 91.791C240.315 91.791 239.677 92.0488 239.272 92.5645C238.868 93.0801 238.666 93.9443 238.666 95.1572V100H236.601V90.2793H238.218L238.508 91.5537H238.613C238.906 91.0908 239.322 90.7334 239.861 90.4814C240.4 90.2295 240.998 90.1035 241.654 90.1035C243.986 90.1035 245.152 91.29 245.152 93.6631V100ZM251.647 98.5059C252.151 98.5059 252.655 98.4268 253.159 98.2686V99.8242C252.931 99.9238 252.635 100.006 252.271 100.07C251.914 100.141 251.542 100.176 251.155 100.176C249.198 100.176 248.22 99.1445 248.22 97.082V91.8438H246.893V90.9297L248.316 90.1738L249.02 88.1172H250.294V90.2793H253.062V91.8438H250.294V97.0469C250.294 97.5449 250.417 97.9141 250.663 98.1543C250.915 98.3887 251.243 98.5059 251.647 98.5059ZM259.355 100.176C257.844 100.176 256.66 99.7363 255.805 98.8574C254.955 97.9727 254.53 96.7568 254.53 95.21C254.53 93.6221 254.926 92.374 255.717 91.4658C256.508 90.5576 257.595 90.1035 258.978 90.1035C260.261 90.1035 261.274 90.4932 262.019 91.2725C262.763 92.0518 263.135 93.124 263.135 94.4893V95.6055H256.657C256.687 96.5488 256.941 97.2754 257.422 97.7852C257.902 98.2891 258.579 98.541 259.452 98.541C260.026 98.541 260.56 98.4883 261.052 98.3828C261.55 98.2715 262.083 98.0898 262.651 97.8379V99.5166C262.147 99.7568 261.638 99.9268 261.122 100.026C260.606 100.126 260.018 100.176 259.355 100.176ZM258.978 91.668C258.321 91.668 257.794 91.876 257.396 92.292C257.003 92.708 256.769 93.3145 256.692 94.1113H261.104C261.093 93.3086 260.899 92.7021 260.524 92.292C260.149 91.876 259.634 91.668 258.978 91.668ZM273.69 90.2793V91.4131L272.029 91.7207C272.182 91.9258 272.308 92.1777 272.407 92.4766C272.507 92.7754 272.557 93.0918 272.557 93.4258C272.557 94.4277 272.211 95.2158 271.52 95.79C270.828 96.3643 269.876 96.6514 268.663 96.6514C268.353 96.6514 268.071 96.6279 267.819 96.5811C267.374 96.8564 267.151 97.1787 267.151 97.5479C267.151 97.7705 267.254 97.9375 267.459 98.0488C267.67 98.1602 268.054 98.2158 268.61 98.2158H270.307C271.379 98.2158 272.193 98.4443 272.75 98.9014C273.307 99.3584 273.585 100.018 273.585 100.879C273.585 101.98 273.131 102.83 272.223 103.428C271.314 104.025 270.002 104.324 268.285 104.324C266.961 104.324 265.95 104.09 265.253 103.621C264.556 103.152 264.207 102.484 264.207 101.617C264.207 101.02 264.395 100.516 264.77 100.105C265.15 99.7012 265.681 99.4199 266.36 99.2617C266.085 99.1445 265.856 98.957 265.675 98.6992C265.499 98.4355 265.411 98.1602 265.411 97.873C265.411 97.5098 265.514 97.2021 265.719 96.9502C265.924 96.6982 266.229 96.4492 266.633 96.2031C266.129 95.9863 265.719 95.6348 265.402 95.1484C265.092 94.6562 264.937 94.082 264.937 93.4258C264.937 92.3711 265.268 91.5537 265.93 90.9736C266.598 90.3936 267.547 90.1035 268.777 90.1035C269.053 90.1035 269.34 90.124 269.639 90.165C269.943 90.2002 270.172 90.2383 270.324 90.2793H273.69ZM266.053 101.512C266.053 101.957 266.252 102.3 266.65 102.54C267.055 102.78 267.62 102.9 268.347 102.9C269.472 102.9 270.31 102.739 270.86 102.417C271.411 102.095 271.687 101.667 271.687 101.134C271.687 100.712 271.534 100.41 271.229 100.229C270.931 100.053 270.371 99.9648 269.551 99.9648H267.986C267.395 99.9648 266.923 100.103 266.571 100.378C266.226 100.659 266.053 101.037 266.053 101.512ZM266.94 93.4258C266.94 94.0352 267.096 94.5039 267.406 94.832C267.723 95.1602 268.174 95.3242 268.76 95.3242C269.955 95.3242 270.553 94.6855 270.553 93.4082C270.553 92.7754 270.403 92.2891 270.104 91.9492C269.812 91.6035 269.363 91.4307 268.76 91.4307C268.162 91.4307 267.708 91.6006 267.397 91.9404C267.093 92.2803 266.94 92.7754 266.94 93.4258ZM280.432 90.1035C280.848 90.1035 281.19 90.1328 281.46 90.1914L281.258 92.1162C280.965 92.0459 280.66 92.0107 280.344 92.0107C279.518 92.0107 278.847 92.2803 278.331 92.8193C277.821 93.3584 277.566 94.0586 277.566 94.9199V100H275.501V90.2793H277.118L277.391 91.9932H277.496C277.818 91.4131 278.237 90.9531 278.753 90.6133C279.274 90.2734 279.834 90.1035 280.432 90.1035ZM289.353 100L288.939 98.6465H288.869C288.4 99.2383 287.929 99.6426 287.454 99.8594C286.979 100.07 286.37 100.176 285.626 100.176C284.671 100.176 283.924 99.918 283.385 99.4023C282.852 98.8867 282.585 98.1572 282.585 97.2139C282.585 96.2119 282.957 95.4561 283.701 94.9463C284.445 94.4365 285.579 94.1582 287.103 94.1113L288.781 94.0586V93.54C288.781 92.9189 288.635 92.4561 288.342 92.1514C288.055 91.8408 287.606 91.6855 286.997 91.6855C286.499 91.6855 286.021 91.7588 285.564 91.9053C285.107 92.0518 284.668 92.2246 284.246 92.4238L283.578 90.9473C284.105 90.6719 284.683 90.4639 285.31 90.3232C285.937 90.1768 286.528 90.1035 287.085 90.1035C288.321 90.1035 289.253 90.373 289.88 90.9121C290.513 91.4512 290.829 92.2979 290.829 93.4521V100H289.353ZM286.276 98.5938C287.026 98.5938 287.627 98.3857 288.078 97.9697C288.535 97.5479 288.764 96.959 288.764 96.2031V95.3594L287.516 95.4121C286.543 95.4473 285.834 95.6113 285.389 95.9043C284.949 96.1914 284.729 96.6338 284.729 97.2314C284.729 97.665 284.858 98.002 285.116 98.2422C285.374 98.4766 285.761 98.5938 286.276 98.5938ZM297.333 98.5059C297.837 98.5059 298.341 98.4268 298.845 98.2686V99.8242C298.616 99.9238 298.32 100.006 297.957 100.07C297.6 100.141 297.228 100.176 296.841 100.176C294.884 100.176 293.905 99.1445 293.905 97.082V91.8438H292.578V90.9297L294.002 90.1738L294.705 88.1172H295.979V90.2793H298.748V91.8438H295.979V97.0469C295.979 97.5449 296.103 97.9141 296.349 98.1543C296.601 98.3887 296.929 98.5059 297.333 98.5059ZM302.861 100H300.796V90.2793H302.861V100ZM300.673 87.7041C300.673 87.335 300.772 87.0508 300.972 86.8516C301.177 86.6523 301.467 86.5527 301.842 86.5527C302.205 86.5527 302.486 86.6523 302.686 86.8516C302.891 87.0508 302.993 87.335 302.993 87.7041C302.993 88.0557 302.891 88.334 302.686 88.5391C302.486 88.7383 302.205 88.8379 301.842 88.8379C301.467 88.8379 301.177 88.7383 300.972 88.5391C300.772 88.334 300.673 88.0557 300.673 87.7041ZM314.445 95.1221C314.445 96.71 314.038 97.9492 313.224 98.8398C312.409 99.7305 311.275 100.176 309.822 100.176C308.914 100.176 308.111 99.9707 307.414 99.5605C306.717 99.1504 306.181 98.5615 305.806 97.7939C305.431 97.0264 305.243 96.1357 305.243 95.1221C305.243 93.5459 305.647 92.3154 306.456 91.4307C307.265 90.5459 308.404 90.1035 309.875 90.1035C311.281 90.1035 312.395 90.5576 313.215 91.4658C314.035 92.3682 314.445 93.5869 314.445 95.1221ZM307.37 95.1221C307.37 97.3662 308.199 98.4883 309.857 98.4883C311.498 98.4883 312.318 97.3662 312.318 95.1221C312.318 92.9014 311.492 91.791 309.84 91.791C308.973 91.791 308.343 92.0781 307.95 92.6523C307.563 93.2266 307.37 94.0498 307.37 95.1221ZM325.379 100H323.305V94.0234C323.305 93.2734 323.152 92.7139 322.848 92.3447C322.549 91.9756 322.071 91.791 321.415 91.791C320.542 91.791 319.903 92.0488 319.499 92.5645C319.095 93.0801 318.893 93.9443 318.893 95.1572V100H316.827V90.2793H318.444L318.734 91.5537H318.84C319.133 91.0908 319.549 90.7334 320.088 90.4814C320.627 90.2295 321.225 90.1035 321.881 90.1035C324.213 90.1035 325.379 91.29 325.379 93.6631V100ZM340.9 100L339.644 95.4648C339.491 94.9844 339.216 93.8682 338.817 92.1162H338.738C338.398 93.6982 338.129 94.8203 337.93 95.4824L336.638 100H334.353L331.628 90.2793H333.737L334.977 95.0693C335.258 96.2529 335.457 97.2666 335.574 98.1104H335.627C335.686 97.6826 335.773 97.1934 335.891 96.6426C336.014 96.0859 336.119 95.6699 336.207 95.3945L337.684 90.2793H339.951L341.384 95.3945C341.472 95.6816 341.58 96.1211 341.709 96.7129C341.844 97.3047 341.923 97.7646 341.946 98.0928H342.017C342.104 97.3721 342.31 96.3643 342.632 95.0693L343.889 90.2793H345.963L343.221 100H340.9ZM349.707 100H347.642V90.2793H349.707V100ZM347.519 87.7041C347.519 87.335 347.618 87.0508 347.817 86.8516C348.022 86.6523 348.312 86.5527 348.688 86.5527C349.051 86.5527 349.332 86.6523 349.531 86.8516C349.736 87.0508 349.839 87.335 349.839 87.7041C349.839 88.0557 349.736 88.334 349.531 88.5391C349.332 88.7383 349.051 88.8379 348.688 88.8379C348.312 88.8379 348.022 88.7383 347.817 88.5391C347.618 88.334 347.519 88.0557 347.519 87.7041ZM356.29 98.5059C356.794 98.5059 357.298 98.4268 357.802 98.2686V99.8242C357.573 99.9238 357.277 100.006 356.914 100.07C356.557 100.141 356.185 100.176 355.798 100.176C353.841 100.176 352.862 99.1445 352.862 97.082V91.8438H351.535V90.9297L352.959 90.1738L353.662 88.1172H354.937V90.2793H357.705V91.8438H354.937V97.0469C354.937 97.5449 355.06 97.9141 355.306 98.1543C355.558 98.3887 355.886 98.5059 356.29 98.5059ZM368.305 100H366.23V94.0234C366.23 93.2734 366.078 92.7139 365.773 92.3447C365.475 91.9756 364.997 91.791 364.341 91.791C363.474 91.791 362.835 92.0518 362.425 92.5732C362.021 93.0889 361.818 93.9561 361.818 95.1748V100H359.753V86.3242H361.818V89.7959C361.818 90.3525 361.783 90.9473 361.713 91.5801H361.845C362.126 91.1113 362.516 90.748 363.014 90.4902C363.518 90.2324 364.104 90.1035 364.771 90.1035C367.127 90.1035 368.305 91.29 368.305 93.6631V100ZM216.72 115.127H218.179C219.157 115.127 219.866 114.945 220.306 114.582C220.745 114.219 220.965 113.68 220.965 112.965C220.965 112.238 220.728 111.717 220.253 111.4C219.778 111.084 219.063 110.926 218.108 110.926H216.72V115.127ZM216.72 116.867V122H214.619V109.15H218.249C219.907 109.15 221.135 109.461 221.932 110.082C222.729 110.703 223.127 111.641 223.127 112.895C223.127 114.494 222.295 115.634 220.631 116.313L224.261 122H221.87L218.794 116.867H216.72ZM230.158 122.176C228.646 122.176 227.463 121.736 226.607 120.857C225.758 119.973 225.333 118.757 225.333 117.21C225.333 115.622 225.729 114.374 226.52 113.466C227.311 112.558 228.397 112.104 229.78 112.104C231.063 112.104 232.077 112.493 232.821 113.272C233.565 114.052 233.938 115.124 233.938 116.489V117.605H227.46C227.489 118.549 227.744 119.275 228.225 119.785C228.705 120.289 229.382 120.541 230.255 120.541C230.829 120.541 231.362 120.488 231.854 120.383C232.353 120.271 232.886 120.09 233.454 119.838V121.517C232.95 121.757 232.44 121.927 231.925 122.026C231.409 122.126 230.82 122.176 230.158 122.176ZM229.78 113.668C229.124 113.668 228.597 113.876 228.198 114.292C227.806 114.708 227.571 115.314 227.495 116.111H231.907C231.896 115.309 231.702 114.702 231.327 114.292C230.952 113.876 230.437 113.668 229.78 113.668ZM242.814 119.231C242.814 120.181 242.469 120.91 241.777 121.42C241.086 121.924 240.096 122.176 238.807 122.176C237.512 122.176 236.472 121.979 235.687 121.587V119.803C236.829 120.33 237.893 120.594 238.877 120.594C240.148 120.594 240.784 120.21 240.784 119.442C240.784 119.196 240.714 118.991 240.573 118.827C240.433 118.663 240.201 118.493 239.879 118.317C239.557 118.142 239.108 117.942 238.534 117.72C237.415 117.286 236.656 116.853 236.258 116.419C235.865 115.985 235.669 115.423 235.669 114.731C235.669 113.899 236.003 113.255 236.671 112.798C237.345 112.335 238.259 112.104 239.413 112.104C240.556 112.104 241.637 112.335 242.656 112.798L241.988 114.354C240.939 113.92 240.058 113.703 239.343 113.703C238.253 113.703 237.708 114.014 237.708 114.635C237.708 114.939 237.849 115.197 238.13 115.408C238.417 115.619 239.038 115.909 239.993 116.278C240.796 116.589 241.379 116.873 241.742 117.131C242.105 117.389 242.375 117.688 242.551 118.027C242.727 118.361 242.814 118.763 242.814 119.231ZM249.301 122.176C247.789 122.176 246.605 121.736 245.75 120.857C244.9 119.973 244.476 118.757 244.476 117.21C244.476 115.622 244.871 114.374 245.662 113.466C246.453 112.558 247.54 112.104 248.923 112.104C250.206 112.104 251.22 112.493 251.964 113.272C252.708 114.052 253.08 115.124 253.08 116.489V117.605H246.603C246.632 118.549 246.887 119.275 247.367 119.785C247.848 120.289 248.524 120.541 249.397 120.541C249.972 120.541 250.505 120.488 250.997 120.383C251.495 120.271 252.028 120.09 252.597 119.838V121.517C252.093 121.757 251.583 121.927 251.067 122.026C250.552 122.126 249.963 122.176 249.301 122.176ZM248.923 113.668C248.267 113.668 247.739 113.876 247.341 114.292C246.948 114.708 246.714 115.314 246.638 116.111H251.05C251.038 115.309 250.845 114.702 250.47 114.292C250.095 113.876 249.579 113.668 248.923 113.668ZM260.357 112.104C260.773 112.104 261.116 112.133 261.386 112.191L261.184 114.116C260.891 114.046 260.586 114.011 260.27 114.011C259.443 114.011 258.772 114.28 258.257 114.819C257.747 115.358 257.492 116.059 257.492 116.92V122H255.427V112.279H257.044L257.316 113.993H257.422C257.744 113.413 258.163 112.953 258.679 112.613C259.2 112.273 259.76 112.104 260.357 112.104ZM265.411 122L261.72 112.279H263.899L265.877 117.931C266.217 118.88 266.422 119.647 266.492 120.233H266.562C266.615 119.812 266.82 119.044 267.178 117.931L269.155 112.279H271.353L267.644 122H265.411ZM278.911 122L278.498 120.646H278.428C277.959 121.238 277.487 121.643 277.013 121.859C276.538 122.07 275.929 122.176 275.185 122.176C274.229 122.176 273.482 121.918 272.943 121.402C272.41 120.887 272.144 120.157 272.144 119.214C272.144 118.212 272.516 117.456 273.26 116.946C274.004 116.437 275.138 116.158 276.661 116.111L278.34 116.059V115.54C278.34 114.919 278.193 114.456 277.9 114.151C277.613 113.841 277.165 113.686 276.556 113.686C276.058 113.686 275.58 113.759 275.123 113.905C274.666 114.052 274.227 114.225 273.805 114.424L273.137 112.947C273.664 112.672 274.241 112.464 274.868 112.323C275.495 112.177 276.087 112.104 276.644 112.104C277.88 112.104 278.812 112.373 279.438 112.912C280.071 113.451 280.388 114.298 280.388 115.452V122H278.911ZM275.835 120.594C276.585 120.594 277.186 120.386 277.637 119.97C278.094 119.548 278.322 118.959 278.322 118.203V117.359L277.074 117.412C276.102 117.447 275.393 117.611 274.947 117.904C274.508 118.191 274.288 118.634 274.288 119.231C274.288 119.665 274.417 120.002 274.675 120.242C274.933 120.477 275.319 120.594 275.835 120.594ZM286.892 120.506C287.396 120.506 287.899 120.427 288.403 120.269V121.824C288.175 121.924 287.879 122.006 287.516 122.07C287.158 122.141 286.786 122.176 286.399 122.176C284.442 122.176 283.464 121.145 283.464 119.082V113.844H282.137V112.93L283.561 112.174L284.264 110.117H285.538V112.279H288.307V113.844H285.538V119.047C285.538 119.545 285.661 119.914 285.907 120.154C286.159 120.389 286.487 120.506 286.892 120.506ZM292.42 122H290.354V112.279H292.42V122ZM290.231 109.704C290.231 109.335 290.331 109.051 290.53 108.852C290.735 108.652 291.025 108.553 291.4 108.553C291.764 108.553 292.045 108.652 292.244 108.852C292.449 109.051 292.552 109.335 292.552 109.704C292.552 110.056 292.449 110.334 292.244 110.539C292.045 110.738 291.764 110.838 291.4 110.838C291.025 110.838 290.735 110.738 290.53 110.539C290.331 110.334 290.231 110.056 290.231 109.704ZM304.004 117.122C304.004 118.71 303.597 119.949 302.782 120.84C301.968 121.73 300.834 122.176 299.381 122.176C298.473 122.176 297.67 121.971 296.973 121.561C296.275 121.15 295.739 120.562 295.364 119.794C294.989 119.026 294.802 118.136 294.802 117.122C294.802 115.546 295.206 114.315 296.015 113.431C296.823 112.546 297.963 112.104 299.434 112.104C300.84 112.104 301.953 112.558 302.773 113.466C303.594 114.368 304.004 115.587 304.004 117.122ZM296.929 117.122C296.929 119.366 297.758 120.488 299.416 120.488C301.057 120.488 301.877 119.366 301.877 117.122C301.877 114.901 301.051 113.791 299.398 113.791C298.531 113.791 297.901 114.078 297.509 114.652C297.122 115.227 296.929 116.05 296.929 117.122ZM314.938 122H312.863V116.023C312.863 115.273 312.711 114.714 312.406 114.345C312.107 113.976 311.63 113.791 310.974 113.791C310.101 113.791 309.462 114.049 309.058 114.564C308.653 115.08 308.451 115.944 308.451 117.157V122H306.386V112.279H308.003L308.293 113.554H308.398C308.691 113.091 309.107 112.733 309.646 112.481C310.186 112.229 310.783 112.104 311.439 112.104C313.771 112.104 314.938 113.29 314.938 115.663V122ZM330.116 118.511C330.116 119.653 329.703 120.55 328.877 121.2C328.051 121.851 326.911 122.176 325.458 122.176C324.005 122.176 322.815 121.95 321.89 121.499V119.513C322.476 119.788 323.097 120.005 323.753 120.163C324.415 120.321 325.03 120.4 325.599 120.4C326.431 120.4 327.043 120.242 327.436 119.926C327.834 119.609 328.033 119.185 328.033 118.651C328.033 118.171 327.852 117.764 327.488 117.43C327.125 117.096 326.375 116.7 325.238 116.243C324.066 115.769 323.24 115.227 322.76 114.617C322.279 114.008 322.039 113.275 322.039 112.42C322.039 111.348 322.42 110.504 323.182 109.889C323.943 109.273 324.966 108.966 326.249 108.966C327.479 108.966 328.704 109.235 329.923 109.774L329.255 111.488C328.112 111.008 327.093 110.768 326.196 110.768C325.517 110.768 325.001 110.917 324.649 111.216C324.298 111.509 324.122 111.898 324.122 112.385C324.122 112.719 324.192 113.006 324.333 113.246C324.474 113.48 324.705 113.703 325.027 113.914C325.35 114.125 325.93 114.403 326.768 114.749C327.711 115.142 328.402 115.508 328.842 115.848C329.281 116.188 329.604 116.571 329.809 116.999C330.014 117.427 330.116 117.931 330.116 118.511ZM330.907 112.279H333.157L335.135 117.79C335.434 118.575 335.633 119.313 335.732 120.005H335.803C335.855 119.683 335.952 119.293 336.093 118.836C336.233 118.373 336.978 116.188 338.325 112.279H340.558L336.4 123.292C335.645 125.313 334.385 126.324 332.621 126.324C332.164 126.324 331.719 126.274 331.285 126.175V124.54C331.596 124.61 331.95 124.646 332.349 124.646C333.345 124.646 334.045 124.068 334.449 122.914L334.81 122L330.907 112.279ZM348.564 119.231C348.564 120.181 348.219 120.91 347.527 121.42C346.836 121.924 345.846 122.176 344.557 122.176C343.262 122.176 342.222 121.979 341.437 121.587V119.803C342.579 120.33 343.643 120.594 344.627 120.594C345.898 120.594 346.534 120.21 346.534 119.442C346.534 119.196 346.464 118.991 346.323 118.827C346.183 118.663 345.951 118.493 345.629 118.317C345.307 118.142 344.858 117.942 344.284 117.72C343.165 117.286 342.406 116.853 342.008 116.419C341.615 115.985 341.419 115.423 341.419 114.731C341.419 113.899 341.753 113.255 342.421 112.798C343.095 112.335 344.009 112.104 345.163 112.104C346.306 112.104 347.387 112.335 348.406 112.798L347.738 114.354C346.689 113.92 345.808 113.703 345.093 113.703C344.003 113.703 343.458 114.014 343.458 114.635C343.458 114.939 343.599 115.197 343.88 115.408C344.167 115.619 344.788 115.909 345.743 116.278C346.546 116.589 347.129 116.873 347.492 117.131C347.855 117.389 348.125 117.688 348.301 118.027C348.477 118.361 348.564 118.763 348.564 119.231ZM354.427 120.506C354.931 120.506 355.435 120.427 355.938 120.269V121.824C355.71 121.924 355.414 122.006 355.051 122.07C354.693 122.141 354.321 122.176 353.935 122.176C351.978 122.176 350.999 121.145 350.999 119.082V113.844H349.672V112.93L351.096 112.174L351.799 110.117H353.073V112.279H355.842V113.844H353.073V119.047C353.073 119.545 353.196 119.914 353.442 120.154C353.694 120.389 354.022 120.506 354.427 120.506ZM362.135 122.176C360.623 122.176 359.439 121.736 358.584 120.857C357.734 119.973 357.31 118.757 357.31 117.21C357.31 115.622 357.705 114.374 358.496 113.466C359.287 112.558 360.374 112.104 361.757 112.104C363.04 112.104 364.054 112.493 364.798 113.272C365.542 114.052 365.914 115.124 365.914 116.489V117.605H359.437C359.466 118.549 359.721 119.275 360.201 119.785C360.682 120.289 361.358 120.541 362.231 120.541C362.806 120.541 363.339 120.488 363.831 120.383C364.329 120.271 364.862 120.09 365.431 119.838V121.517C364.927 121.757 364.417 121.927 363.901 122.026C363.386 122.126 362.797 122.176 362.135 122.176ZM361.757 113.668C361.101 113.668 360.573 113.876 360.175 114.292C359.782 114.708 359.548 115.314 359.472 116.111H363.884C363.872 115.309 363.679 114.702 363.304 114.292C362.929 113.876 362.413 113.668 361.757 113.668ZM376.452 122H374.378V116.006C374.378 115.262 374.237 114.708 373.956 114.345C373.675 113.976 373.235 113.791 372.638 113.791C371.841 113.791 371.255 114.052 370.88 114.573C370.511 115.089 370.326 115.95 370.326 117.157V122H368.261V112.279H369.878L370.168 113.554H370.273C370.543 113.091 370.933 112.733 371.442 112.481C371.958 112.229 372.523 112.104 373.139 112.104C374.633 112.104 375.623 112.613 376.109 113.633H376.25C376.537 113.152 376.941 112.777 377.463 112.508C377.984 112.238 378.582 112.104 379.256 112.104C380.416 112.104 381.26 112.396 381.787 112.982C382.32 113.568 382.587 114.462 382.587 115.663V122H380.521V116.006C380.521 115.262 380.378 114.708 380.091 114.345C379.81 113.976 379.37 113.791 378.772 113.791C377.97 113.791 377.381 114.043 377.006 114.547C376.637 115.045 376.452 115.812 376.452 116.85V122ZM389.091 120.506C389.595 120.506 390.099 120.427 390.603 120.269V121.824C390.374 121.924 390.078 122.006 389.715 122.07C389.357 122.141 388.985 122.176 388.599 122.176C386.642 122.176 385.663 121.145 385.663 119.082V113.844H384.336V112.93L385.76 112.174L386.463 110.117H387.737V112.279H390.506V113.844H387.737V119.047C387.737 119.545 387.86 119.914 388.106 120.154C388.358 120.389 388.687 120.506 389.091 120.506Z" fill="#A650FF"/>
<path d="M493 45H490C488.409 45 486.883 44.3679 485.757 43.2426C484.632 42.1174 484 40.5913 484 39V9C484 7.4087 484.632 5.88258 485.757 4.75736C486.883 3.63214 488.409 3 490 3H538C539.591 3 541.117 3.63214 542.243 4.75736C543.368 5.88258 544 7.4087 544 9V39C544 40.5913 543.368 42.1174 542.243 43.2426C541.117 44.3679 539.591 45 538 45H535" stroke="#A650FF" stroke-width="5" stroke-linecap="round" stroke-linejoin="round"/>
<path d="M514 42L532 57H496L514 42Z" stroke="#A650FF" stroke-width="5" stroke-linecap="round" stroke-linejoin="round"/>
<path d="M494.717 93.5107C494.717 94.6533 494.304 95.5498 493.478 96.2002C492.651 96.8506 491.512 97.1758 490.059 97.1758C488.605 97.1758 487.416 96.9502 486.49 96.499V94.5127C487.076 94.7881 487.697 95.0049 488.354 95.1631C489.016 95.3213 489.631 95.4004 490.199 95.4004C491.031 95.4004 491.644 95.2422 492.036 94.9258C492.435 94.6094 492.634 94.1846 492.634 93.6514C492.634 93.1709 492.452 92.7637 492.089 92.4297C491.726 92.0957 490.976 91.7002 489.839 91.2432C488.667 90.7686 487.841 90.2266 487.36 89.6172C486.88 89.0078 486.64 88.2754 486.64 87.4199C486.64 86.3477 487.021 85.5039 487.782 84.8887C488.544 84.2734 489.566 83.9658 490.85 83.9658C492.08 83.9658 493.305 84.2354 494.523 84.7744L493.855 86.4883C492.713 86.0078 491.693 85.7676 490.797 85.7676C490.117 85.7676 489.602 85.917 489.25 86.2158C488.898 86.5088 488.723 86.8984 488.723 87.3848C488.723 87.7188 488.793 88.0059 488.934 88.2461C489.074 88.4805 489.306 88.7031 489.628 88.9141C489.95 89.125 490.53 89.4033 491.368 89.749C492.312 90.1416 493.003 90.5078 493.442 90.8477C493.882 91.1875 494.204 91.5713 494.409 91.999C494.614 92.4268 494.717 92.9307 494.717 93.5107ZM501.915 97.1758C500.685 97.1758 499.729 96.7334 499.05 95.8486H498.927C499.009 96.6689 499.05 97.167 499.05 97.3428V101.324H496.984V87.2793H498.654C498.701 87.4609 498.798 87.8945 498.944 88.5801H499.05C499.694 87.5957 500.661 87.1035 501.95 87.1035C503.163 87.1035 504.106 87.543 504.78 88.4219C505.46 89.3008 505.8 90.5342 505.8 92.1221C505.8 93.71 505.454 94.9492 504.763 95.8398C504.077 96.7305 503.128 97.1758 501.915 97.1758ZM501.414 88.791C500.594 88.791 499.993 89.0312 499.612 89.5117C499.237 89.9922 499.05 90.7598 499.05 91.8145V92.1221C499.05 93.3057 499.237 94.1641 499.612 94.6973C499.987 95.2246 500.6 95.4883 501.449 95.4883C502.164 95.4883 502.715 95.1953 503.102 94.6094C503.488 94.0234 503.682 93.1885 503.682 92.1045C503.682 91.0146 503.488 90.1914 503.102 89.6348C502.721 89.0723 502.158 88.791 501.414 88.791ZM510.265 97H508.199V83.3242H510.265V97ZM519.309 97L518.896 95.6465H518.825C518.356 96.2383 517.885 96.6426 517.41 96.8594C516.936 97.0703 516.326 97.1758 515.582 97.1758C514.627 97.1758 513.88 96.918 513.341 96.4023C512.808 95.8867 512.541 95.1572 512.541 94.2139C512.541 93.2119 512.913 92.4561 513.657 91.9463C514.401 91.4365 515.535 91.1582 517.059 91.1113L518.737 91.0586V90.54C518.737 89.9189 518.591 89.4561 518.298 89.1514C518.011 88.8408 517.562 88.6855 516.953 88.6855C516.455 88.6855 515.978 88.7588 515.521 88.9053C515.063 89.0518 514.624 89.2246 514.202 89.4238L513.534 87.9473C514.062 87.6719 514.639 87.4639 515.266 87.3232C515.893 87.1768 516.484 87.1035 517.041 87.1035C518.277 87.1035 519.209 87.373 519.836 87.9121C520.469 88.4512 520.785 89.2979 520.785 90.4521V97H519.309ZM516.232 95.5938C516.982 95.5938 517.583 95.3857 518.034 94.9697C518.491 94.5479 518.72 93.959 518.72 93.2031V92.3594L517.472 92.4121C516.499 92.4473 515.79 92.6113 515.345 92.9043C514.905 93.1914 514.686 93.6338 514.686 94.2314C514.686 94.665 514.814 95.002 515.072 95.2422C515.33 95.4766 515.717 95.5938 516.232 95.5938ZM530.198 94.2314C530.198 95.1807 529.853 95.9102 529.161 96.4199C528.47 96.9238 527.479 97.1758 526.19 97.1758C524.896 97.1758 523.855 96.9795 523.07 96.5869V94.8027C524.213 95.3301 525.276 95.5938 526.261 95.5938C527.532 95.5938 528.168 95.21 528.168 94.4424C528.168 94.1963 528.098 93.9912 527.957 93.8271C527.816 93.6631 527.585 93.4932 527.263 93.3174C526.94 93.1416 526.492 92.9424 525.918 92.7197C524.799 92.2861 524.04 91.8525 523.642 91.4189C523.249 90.9854 523.053 90.4229 523.053 89.7314C523.053 88.8994 523.387 88.2549 524.055 87.7979C524.729 87.335 525.643 87.1035 526.797 87.1035C527.939 87.1035 529.021 87.335 530.04 87.7979L529.372 89.3535C528.323 88.9199 527.441 88.7031 526.727 88.7031C525.637 88.7031 525.092 89.0137 525.092 89.6348C525.092 89.9395 525.232 90.1973 525.514 90.4082C525.801 90.6191 526.422 90.9092 527.377 91.2783C528.18 91.5889 528.763 91.873 529.126 92.1309C529.489 92.3887 529.759 92.6875 529.935 93.0273C530.11 93.3613 530.198 93.7627 530.198 94.2314ZM540.991 97H538.917V91.0234C538.917 90.2734 538.765 89.7139 538.46 89.3447C538.161 88.9756 537.684 88.791 537.027 88.791C536.16 88.791 535.521 89.0518 535.111 89.5732C534.707 90.0889 534.505 90.9561 534.505 92.1748V97H532.439V83.3242H534.505V86.7959C534.505 87.3525 534.47 87.9473 534.399 88.5801H534.531C534.812 88.1113 535.202 87.748 535.7 87.4902C536.204 87.2324 536.79 87.1035 537.458 87.1035C539.813 87.1035 540.991 88.29 540.991 90.6631V97ZM489.347 115.511C489.347 116.653 488.934 117.55 488.107 118.2C487.281 118.851 486.142 119.176 484.688 119.176C483.235 119.176 482.046 118.95 481.12 118.499V116.513C481.706 116.788 482.327 117.005 482.983 117.163C483.646 117.321 484.261 117.4 484.829 117.4C485.661 117.4 486.273 117.242 486.666 116.926C487.064 116.609 487.264 116.185 487.264 115.651C487.264 115.171 487.082 114.764 486.719 114.43C486.355 114.096 485.605 113.7 484.469 113.243C483.297 112.769 482.471 112.227 481.99 111.617C481.51 111.008 481.27 110.275 481.27 109.42C481.27 108.348 481.65 107.504 482.412 106.889C483.174 106.273 484.196 105.966 485.479 105.966C486.71 105.966 487.935 106.235 489.153 106.774L488.485 108.488C487.343 108.008 486.323 107.768 485.427 107.768C484.747 107.768 484.231 107.917 483.88 108.216C483.528 108.509 483.353 108.898 483.353 109.385C483.353 109.719 483.423 110.006 483.563 110.246C483.704 110.48 483.936 110.703 484.258 110.914C484.58 111.125 485.16 111.403 485.998 111.749C486.941 112.142 487.633 112.508 488.072 112.848C488.512 113.188 488.834 113.571 489.039 113.999C489.244 114.427 489.347 114.931 489.347 115.511ZM495.534 119.176C494.063 119.176 492.944 118.748 492.177 117.893C491.415 117.031 491.034 115.798 491.034 114.192C491.034 112.558 491.433 111.301 492.229 110.422C493.032 109.543 494.189 109.104 495.701 109.104C496.727 109.104 497.649 109.294 498.47 109.675L497.846 111.336C496.973 110.996 496.252 110.826 495.684 110.826C494.002 110.826 493.161 111.942 493.161 114.175C493.161 115.265 493.369 116.085 493.785 116.636C494.207 117.181 494.822 117.453 495.631 117.453C496.551 117.453 497.421 117.225 498.241 116.768V118.569C497.872 118.786 497.477 118.941 497.055 119.035C496.639 119.129 496.132 119.176 495.534 119.176ZM505.457 109.104C505.873 109.104 506.216 109.133 506.485 109.191L506.283 111.116C505.99 111.046 505.686 111.011 505.369 111.011C504.543 111.011 503.872 111.28 503.356 111.819C502.847 112.358 502.592 113.059 502.592 113.92V119H500.526V109.279H502.144L502.416 110.993H502.521C502.844 110.413 503.263 109.953 503.778 109.613C504.3 109.273 504.859 109.104 505.457 109.104ZM512.541 119.176C511.029 119.176 509.846 118.736 508.99 117.857C508.141 116.973 507.716 115.757 507.716 114.21C507.716 112.622 508.111 111.374 508.902 110.466C509.693 109.558 510.78 109.104 512.163 109.104C513.446 109.104 514.46 109.493 515.204 110.272C515.948 111.052 516.32 112.124 516.32 113.489V114.605H509.843C509.872 115.549 510.127 116.275 510.607 116.785C511.088 117.289 511.765 117.541 512.638 117.541C513.212 117.541 513.745 117.488 514.237 117.383C514.735 117.271 515.269 117.09 515.837 116.838V118.517C515.333 118.757 514.823 118.927 514.308 119.026C513.792 119.126 513.203 119.176 512.541 119.176ZM512.163 110.668C511.507 110.668 510.979 110.876 510.581 111.292C510.188 111.708 509.954 112.314 509.878 113.111H514.29C514.278 112.309 514.085 111.702 513.71 111.292C513.335 110.876 512.819 110.668 512.163 110.668ZM522.912 119.176C521.4 119.176 520.217 118.736 519.361 117.857C518.512 116.973 518.087 115.757 518.087 114.21C518.087 112.622 518.482 111.374 519.273 110.466C520.064 109.558 521.151 109.104 522.534 109.104C523.817 109.104 524.831 109.493 525.575 110.272C526.319 111.052 526.691 112.124 526.691 113.489V114.605H520.214C520.243 115.549 520.498 116.275 520.979 116.785C521.459 117.289 522.136 117.541 523.009 117.541C523.583 117.541 524.116 117.488 524.608 117.383C525.106 117.271 525.64 117.09 526.208 116.838V118.517C525.704 118.757 525.194 118.927 524.679 119.026C524.163 119.126 523.574 119.176 522.912 119.176ZM522.534 110.668C521.878 110.668 521.351 110.876 520.952 111.292C520.56 111.708 520.325 112.314 520.249 113.111H524.661C524.649 112.309 524.456 111.702 524.081 111.292C523.706 110.876 523.19 110.668 522.534 110.668ZM537.59 119H535.516V113.023C535.516 112.273 535.363 111.714 535.059 111.345C534.76 110.976 534.282 110.791 533.626 110.791C532.753 110.791 532.114 111.049 531.71 111.564C531.306 112.08 531.104 112.944 531.104 114.157V119H529.038V109.279H530.655L530.945 110.554H531.051C531.344 110.091 531.76 109.733 532.299 109.481C532.838 109.229 533.436 109.104 534.092 109.104C536.424 109.104 537.59 110.29 537.59 112.663V119ZM546.994 116.231C546.994 117.181 546.648 117.91 545.957 118.42C545.266 118.924 544.275 119.176 542.986 119.176C541.691 119.176 540.651 118.979 539.866 118.587V116.803C541.009 117.33 542.072 117.594 543.057 117.594C544.328 117.594 544.964 117.21 544.964 116.442C544.964 116.196 544.894 115.991 544.753 115.827C544.612 115.663 544.381 115.493 544.059 115.317C543.736 115.142 543.288 114.942 542.714 114.72C541.595 114.286 540.836 113.853 540.438 113.419C540.045 112.985 539.849 112.423 539.849 111.731C539.849 110.899 540.183 110.255 540.851 109.798C541.524 109.335 542.438 109.104 543.593 109.104C544.735 109.104 545.816 109.335 546.836 109.798L546.168 111.354C545.119 110.92 544.237 110.703 543.522 110.703C542.433 110.703 541.888 111.014 541.888 111.635C541.888 111.939 542.028 112.197 542.31 112.408C542.597 112.619 543.218 112.909 544.173 113.278C544.976 113.589 545.559 113.873 545.922 114.131C546.285 114.389 546.555 114.688 546.73 115.027C546.906 115.361 546.994 115.763 546.994 116.231Z" fill="#A650FF"/>
</svg>
