<svg width="575" height="419" viewBox="0 0 575 419" fill="none" xmlns="http://www.w3.org/2000/svg">
<path d="M333.065 290.238C333.065 297.81 330.334 304.119 324.874 309.167C319.414 314.214 313.323 316.738 306.603 316.738L-15.9778 316.738C-23.5383 316.738 -30.0487 314.214 -35.509 309.167C-40.9694 304.119 -43.6996 297.81 -43.6996 290.238L-43.6996 128.714C-43.6996 121.143 -40.9694 114.833 -35.509 109.786C-30.0487 104.738 -23.5383 102.214 -15.9778 102.214L306.603 102.214C313.323 102.214 319.414 104.738 324.874 109.786C330.334 114.833 333.065 121.143 333.065 128.714L333.065 290.238ZM171.774 209.476C171.774 224.619 177.025 237.448 187.525 247.964C198.026 258.48 210.627 263.738 225.328 263.738C240.029 263.738 252.629 258.48 263.13 247.964C273.631 237.448 278.881 224.619 278.881 209.476C278.881 194.333 273.631 181.504 263.13 170.988C252.629 160.472 240.029 155.214 225.328 155.214C210.627 155.214 198.026 160.472 187.525 170.988C177.025 181.504 171.774 194.333 171.774 209.476ZM412.45 75.7143C449.412 112.73 467.893 157.317 467.893 209.476C467.893 261.635 449.412 306.222 412.45 343.238L374.647 304.119C400.689 278.04 413.71 246.492 413.71 209.476C413.71 172.46 400.689 140.492 374.647 113.571L412.45 75.7143ZM575 209.476C575 291.921 546.018 361.746 488.054 418.952L450.252 381.095C497.295 333.984 520.817 276.778 520.817 209.476C520.817 143.016 497.295 85.8095 450.252 37.8571L488.054 -3.80051e-06C546.018 58.0476 575 127.873 575 209.476Z" fill="#A650FF"/>
</svg>
