<svg xmlns="http://www.w3.org/2000/svg" fill="none" viewBox="0 0 772 153"><g clip-path="url(#a)" opacity=".8"><g filter="url(#b)"><path stroke="#A650FF" stroke-linecap="round" stroke-linejoin="round" stroke-width="7" d="M16.7 86.7h-3.4A6.7 6.7 0 0 1 6.7 80V46.7a6.7 6.7 0 0 1 6.6-6.7h53.4a6.7 6.7 0 0 1 6.6 6.7V80a6.7 6.7 0 0 1-6.6 6.7h-3.4"/></g><path stroke="#A650FF" stroke-linecap="round" stroke-linejoin="round" stroke-width="7" d="M40 83.3 60 100H20l20-16.7Z"/></g><path fill="#fff" d="M26.6 149h-2.3l-2.2-7.7a30.3 30.3 0 0 1-.6-2.7 23.2 23.2 0 0 1-.6 2.8l-2.1 7.6h-2.3l-1.7-6.4-1.6-6.4h2.1l1.8 7.4.7 3.2a22 22 0 0 1 .6-3.1l2-7.5h2.2l2.1 7.5.7 3.1c0-.8.3-1.9.6-3.2l1.8-7.4H30L26.6 149Zm11 0-.4-1.4c-.5.6-1 1-1.5 1.3-.4.2-1 .3-1.8.3a3 3 0 0 1-2.2-.8c-.6-.5-.8-1.2-.8-2.2 0-1 .3-1.7 1-2.3.8-.5 2-.7 3.5-.8H37v-.6c0-.6-.2-1-.5-1.3-.3-.4-.7-.5-1.3-.5-.5 0-1 0-1.4.2l-1.4.5-.6-1.5a7.8 7.8 0 0 1 3.5-.8c1.2 0 2.1.3 2.8.8.6.6 1 1.4 1 2.6v6.5h-1.6Zm-3-1.4c.7 0 1.3-.2 1.8-.6.4-.5.7-1 .7-1.8v-.8h-1.3c-1 0-1.7.2-2.1.5-.5.3-.7.7-.7 1.3 0 .5.1.8.4 1 .3.3.7.4 1.2.4Zm11 0 1.5-.3v1.5a5.7 5.7 0 0 1-2 .4c-2 0-2.9-1-2.9-3.1v-5.3h-1.3v-.9l1.4-.7.7-2h1.3v2H47v1.6h-2.7v5.2c0 .5 0 1 .3 1.2.3.2.6.3 1 .3Zm7.4 1.6c-1.5 0-2.6-.5-3.4-1.3-.7-.9-1-2.1-1-3.7s.3-2.9 1.1-3.8c.8-.9 2-1.3 3.5-1.3 1 0 2 .2 2.7.6l-.6 1.6c-.9-.3-1.6-.5-2.1-.5-1.7 0-2.6 1.1-2.6 3.4 0 1 .2 1.9.7 2.4.4.6 1 .9 1.8.9 1 0 1.8-.3 2.6-.7v1.8a4 4 0 0 1-1.2.4 7 7 0 0 1-1.5.2Zm13.6-.2h-2.1v-6c0-.7-.2-1.3-.5-1.7a2 2 0 0 0-1.4-.5c-.9 0-1.5.3-2 .8-.3.5-.5 1.4-.5 2.6v4.8H58v-13.7h2v5.3c.4-.5.8-.9 1.3-1.1a3 3 0 0 1 1.7-.4c2.4 0 3.6 1.2 3.6 3.6v6.3Z"/><g filter="url(#c)"><path fill="#A650FF" d="M358.7 30.6a40 40 0 0 0-29.1 67.1l2.3 2.3a1 1 0 0 0 1.3-.1l1.8-2a1 1 0 0 0 0-1.5 35.2 35.2 0 1 1 49.8-2l-2 2a1 1 0 0 0 0 1.5l1.8 2a1.2 1.2 0 0 0 1.5.1 40 40 0 0 0-27.4-69.4Zm1.3 11.7a28.5 28.5 0 0 0-22 48c.4.4.8 1 1.3 1.3a1 1 0 0 0 1.5 0l1.8-2a1 1 0 0 0 0-1.5 24.2 24.2 0 0 1-7.6-17.5 23.9 23.9 0 1 1 40.3 17.5 1 1 0 0 0 0 1.5l1.7 2c.4.4 1.1.6 1.5.2A28.7 28.7 0 0 0 360 42.3Zm-.9 11a17.3 17.3 0 0 0-12.7 29.4l.4.4a1 1 0 0 0 1.5 0l1.8-2a1 1 0 0 0 0-1.5 12.7 12.7 0 0 1 0-17.8 12.4 12.4 0 0 1 20.3 4 12.4 12.4 0 0 1-2.9 13.8 1 1 0 0 0 0 1.4l1.8 2a1 1 0 0 0 1.5 0 17.3 17.3 0 0 0-11.7-29.6Zm0 25.9a2 2 0 0 0-1.3.5l-.2.1-23.8 26.9a1.7 1.7 0 0 0 .1 2.3c.3.2.6.4 1 .4h47.8a1.6 1.6 0 0 0 1.3-2.7l-23.6-26.9a1.7 1.7 0 0 0-1.3-.6Z"/></g><path fill="#fff" d="M334 149v-12.8h2v11h5.5v1.8H334Zm11.6 0h-2v-9.7h2v9.7Zm-2.2-12.3c0-.4 0-.6.3-.8.2-.2.5-.3.9-.3.3 0 .6 0 .8.3.2.2.3.4.3.8s0 .6-.3.8c-.2.2-.5.3-.8.3-.4 0-.7 0-1-.3l-.2-.8Zm11.7 9.5c0 1-.4 1.7-1 2.2a5 5 0 0 1-3 .8 7 7 0 0 1-3.2-.6v-1.8c1.2.5 2.3.8 3.2.8 1.3 0 2-.4 2-1.2l-.3-.6-.7-.5a12 12 0 0 0-1.3-.6 6.3 6.3 0 0 1-2.3-1.3c-.4-.4-.6-1-.6-1.7 0-.8.4-1.4 1-1.9.7-.5 1.6-.7 2.8-.7 1.1 0 2.2.2 3.2.7l-.7 1.6a6 6 0 0 0-2.6-.7c-1 0-1.6.3-1.6 1 0 .2.1.5.4.7l1.9.9 1.7.8c.4.3.6.6.8 1 .2.3.3.7.3 1.1Zm5.8 1.3c.5 0 1 0 1.5-.2v1.5a5.7 5.7 0 0 1-2 .4c-2 0-2.9-1-2.9-3.1v-5.3h-1.3v-.9l1.4-.7.7-2h1.3v2h2.8v1.6h-2.8v5.2c0 .5.1 1 .3 1.2.3.2.6.3 1 .3Zm7.7 1.7c-1.5 0-2.7-.5-3.5-1.3a5 5 0 0 1-1.3-3.7c0-1.6.4-2.8 1.2-3.7.8-1 1.9-1.4 3.3-1.4a4 4 0 0 1 3 1.2c.8.8 1.1 1.8 1.1 3.2v1.1H366c0 1 .3 1.7.8 2.2.5.5 1.2.7 2 .7a7.7 7.7 0 0 0 3.2-.7v1.7c-.5.3-1 .4-1.5.5l-1.8.2Zm-.3-8.5a2 2 0 0 0-1.6.6 3 3 0 0 0-.7 1.8h4.4c0-.8-.2-1.4-.6-1.8a2 2 0 0 0-1.5-.6Zm15 8.3h-2v-6c0-.7-.2-1.3-.5-1.7a2 2 0 0 0-1.4-.5c-1 0-1.6.2-2 .8-.4.5-.6 1.3-.6 2.6v4.8h-2v-9.7h1.6l.3 1.3c.4-.5.8-.9 1.3-1.1a4 4 0 0 1 1.8-.4c2.4 0 3.5 1.2 3.5 3.6v6.3Z"/><g stroke="#A650FF" stroke-width="5" filter="url(#d)" opacity=".8"><rect width="69" height="57" x="640.5" y="32.5" rx="7.5"/><rect width="69" height="57" x="678.5" y="44.5" rx="7.5"/></g><path fill="#fff" d="M678.2 145.5c0 1.2-.5 2-1.3 2.7-.8.7-2 1-3.4 1-1.5 0-2.6-.3-3.6-.7v-2a9.7 9.7 0 0 0 3.7.9 3 3 0 0 0 1.9-.5c.4-.3.6-.7.6-1.2s-.2-1-.6-1.3c-.3-.3-1-.7-2.2-1.2a6 6 0 0 1-2.5-1.6c-.5-.6-.7-1.3-.7-2.2 0-1 .4-1.9 1.1-2.5a5 5 0 0 1 3-1 9 9 0 0 1 3.8.9l-.7 1.7a8 8 0 0 0-3-.7c-.7 0-1.3.1-1.6.4-.4.3-.5.7-.5 1.2 0 .3 0 .6.2.8.1.3.3.5.7.7l1.7.8c1 .4 1.6.8 2 1.1.5.4.8.8 1 1.2.3.4.4 1 .4 1.5ZM689 149h-2.1v-6c0-.7-.2-1.3-.5-1.7-.3-.3-.7-.5-1.4-.5-.9 0-1.5.3-2 .8-.3.5-.5 1.4-.5 2.6v4.8h-2v-13.7h2v3.5l-.1 1.8h.1c.3-.5.7-.9 1.2-1.1a3 3 0 0 1 1.7-.4c2.4 0 3.6 1.2 3.6 3.6v6.3Zm9 0-.5-1.4c-.5.6-1 1-1.5 1.3-.4.2-1 .3-1.8.3a3 3 0 0 1-2.2-.8c-.6-.5-.8-1.2-.8-2.2 0-1 .3-1.7 1-2.3.8-.5 2-.7 3.5-.8h1.7v-.6c0-.6-.2-1-.5-1.3-.3-.4-.7-.5-1.3-.5-.5 0-1 0-1.5.2l-1.3.5-.6-1.5 1.7-.6 1.8-.2c1.2 0 2.1.3 2.8.8.6.6 1 1.4 1 2.6v6.5h-1.6Zm-3.1-1.4c.7 0 1.3-.2 1.8-.6.4-.5.6-1 .6-1.8v-.8h-1.2c-1 0-1.7.2-2.1.5-.5.3-.7.7-.7 1.3 0 .5.1.8.4 1 .3.3.6.4 1.2.4Zm12.3-8.5h1l-.2 2a4 4 0 0 0-.9 0c-.8 0-1.5.2-2 .7a3 3 0 0 0-.7 2.1v5.1h-2.1v-9.7h1.6l.3 1.7c.4-.6.8-1 1.3-1.4a3 3 0 0 1 1.7-.5Zm7.1 10c-1.5 0-2.7-.4-3.5-1.2a5 5 0 0 1-1.3-3.7c0-1.6.4-2.8 1.2-3.7.8-1 1.8-1.4 3.2-1.4a4 4 0 0 1 3 1.2c.8.8 1.2 1.8 1.2 3.2v1.1h-6.5c0 1 .3 1.7.8 2.2.5.5 1.1.7 2 .7a7.7 7.7 0 0 0 3.2-.7v1.7c-.5.3-1 .4-1.5.5l-1.8.2Zm-.4-8.4a2 2 0 0 0-1.6.6 3 3 0 0 0-.7 1.8h4.5a3 3 0 0 0-.6-1.8 2 2 0 0 0-1.6-.6Z"/><defs><filter id="b" width="108.7" height="96.7" x="-9.8" y="6.5" color-interpolation-filters="sRGB" filterUnits="userSpaceOnUse"><feFlood flood-opacity="0" result="BackgroundImageFix"/><feColorMatrix in="SourceAlpha" result="hardAlpha" values="0 0 0 0 0 0 0 0 0 0 0 0 0 0 0 0 0 0 127 0"/><feOffset dx="3" dy="-14"/><feGaussianBlur stdDeviation="8"/><feColorMatrix values="0 0 0 0 0.120833 0 0 0 0 0.120833 0 0 0 0 0.120833 0 0 0 1 0"/><feBlend in2="BackgroundImageFix" result="effect1_dropShadow_127:87"/><feColorMatrix in="SourceAlpha" result="hardAlpha" values="0 0 0 0 0 0 0 0 0 0 0 0 0 0 0 0 0 0 127 0"/><feOffset dx="13" dy="4"/><feGaussianBlur stdDeviation="4.5"/><feColorMatrix values="0 0 0 0 0 0 0 0 0 0 0 0 0 0 0 0 0 0 1 0"/><feBlend in2="effect1_dropShadow_127:87" result="effect2_dropShadow_127:87"/><feBlend in="SourceGraphic" in2="effect2_dropShadow_127:87" result="shape"/></filter><filter id="c" width="115" height="121.8" x="306" y=".6" color-interpolation-filters="sRGB" filterUnits="userSpaceOnUse"><feFlood flood-opacity="0" result="BackgroundImageFix"/><feColorMatrix in="SourceAlpha" result="hardAlpha" values="0 0 0 0 0 0 0 0 0 0 0 0 0 0 0 0 0 0 127 0"/><feOffset dx="3" dy="-14"/><feGaussianBlur stdDeviation="8"/><feColorMatrix values="0 0 0 0 0.120833 0 0 0 0 0.120833 0 0 0 0 0.120833 0 0 0 1 0"/><feBlend in2="BackgroundImageFix" result="effect1_dropShadow_127:87"/><feColorMatrix in="SourceAlpha" result="hardAlpha" values="0 0 0 0 0 0 0 0 0 0 0 0 0 0 0 0 0 0 127 0"/><feOffset dx="13" dy="4"/><feGaussianBlur stdDeviation="4.5"/><feColorMatrix values="0 0 0 0 0 0 0 0 0 0 0 0 0 0 0 0 0 0 1 0"/><feBlend in2="effect1_dropShadow_127:87" result="effect2_dropShadow_127:87"/><feBlend in="SourceGraphic" in2="effect2_dropShadow_127:87" result="shape"/></filter><filter id="d" width="147" height="117" x="625" y="0" color-interpolation-filters="sRGB" filterUnits="userSpaceOnUse"><feFlood flood-opacity="0" result="BackgroundImageFix"/><feColorMatrix in="SourceAlpha" result="hardAlpha" values="0 0 0 0 0 0 0 0 0 0 0 0 0 0 0 0 0 0 127 0"/><feOffset dx="3" dy="-14"/><feGaussianBlur stdDeviation="8"/><feColorMatrix values="0 0 0 0 0.120833 0 0 0 0 0.120833 0 0 0 0 0.120833 0 0 0 1 0"/><feBlend in2="BackgroundImageFix" result="effect1_dropShadow_127:87"/><feColorMatrix in="SourceAlpha" result="hardAlpha" values="0 0 0 0 0 0 0 0 0 0 0 0 0 0 0 0 0 0 127 0"/><feOffset dx="13" dy="4"/><feGaussianBlur stdDeviation="4.5"/><feColorMatrix values="0 0 0 0 0 0 0 0 0 0 0 0 0 0 0 0 0 0 1 0"/><feBlend in2="effect1_dropShadow_127:87" result="effect2_dropShadow_127:87"/><feBlend in="SourceGraphic" in2="effect2_dropShadow_127:87" result="shape"/></filter><clipPath id="a"><path fill="#fff" d="M0 0h80v80H0z" transform="translate(0 30)"/></clipPath></defs></svg>