<svg width="1077" height="100" viewBox="0 0 1077 100" fill="none" xmlns="http://www.w3.org/2000/svg">
<path d="M217.2 42.9999L208.8 42.4999L208.4 41.2999C210.3 40.3999 212.5 39.7999 214.2 38.8999C218.1 36.6999 218.4 36.3999 218.9 33.8999C220.2 27.4999 221.4 21.1999 225.2 15.3999C230.5 6.99988 238 5.09988 247.6 6.39988C247.6 7.79988 247.7 9.29988 247.8 11.6999L239.3 10.2999C235.7 9.69988 232.2 9.29988 230.9 13.8999C228.9 21.1999 227 28.6999 225.1 35.9999C227.444 35.9393 229.771 36.4183 231.9 37.3999C233.2 37.7999 234.8 38.0999 235.5 39.0999C233.957 39.4311 232.377 39.5655 230.8 39.4999C224.3 39.1999 224.3 40.9999 223.2 46.9999C221.2 57.3999 220.1 68.4999 216.2 78.3999C214.7 81.9999 215.2 80.9999 211.2 90.7999C210.7 91.9999 207.3 97.7999 206.1 98.5999C209.9 79.7999 213.5 61.5999 217.2 42.9999Z" fill="white"/>
<path d="M21.5999 48.3002V50.2002C23.216 48.6686 25.3741 47.8414 27.5999 47.9002C28.6031 47.8726 29.5984 48.0851 30.5029 48.5199C31.4074 48.9548 32.1949 49.5994 32.7999 50.4002C34.1632 52.3965 34.831 54.7863 34.6999 57.2002C34.7161 59.7381 33.8699 62.2062 32.2999 64.2002C31.661 65.1525 30.798 65.9332 29.7866 66.4737C28.7753 67.0143 27.6466 67.2981 26.4999 67.3002C24.3882 67.2573 22.3496 66.5192 20.6999 65.2002C19.9986 66.1626 19.1153 66.978 18.0999 67.6002C17.8529 67.562 17.6206 67.4584 17.4272 67.3002C17.2338 67.1419 17.0862 66.9347 16.9999 66.7002C17.8185 65.3393 18.2667 63.7879 18.2999 62.2002V40.2002L15.1999 39.6002C15.0471 39.1155 14.9794 38.608 14.9999 38.1002C17.0454 37.2968 19.2058 36.8242 21.3999 36.7002L21.7999 37.0002C21.6999 40.5002 21.5999 44.3002 21.5999 48.3002ZM26.4999 50.6002C24.7415 50.7066 23.0463 51.2947 21.5999 52.3002V62.3002C22.2906 63.0451 23.1253 63.6419 24.0536 64.0544C24.9818 64.467 25.9842 64.6867 26.9999 64.7002L28.3999 64.5002L29.3999 64.0002C30.7182 62.3957 31.4267 60.3767 31.3999 58.3002C31.4692 56.4151 31.0195 54.5472 30.0999 52.9002C29.7692 52.223 29.2582 51.65 28.6231 51.2443C27.988 50.8385 27.2534 50.6157 26.4999 50.6002Z" fill="white"/>
<path d="M40 60.8998V50.8998C39.0283 50.5365 38.0236 50.2686 37 50.0998C37.006 49.4946 37.073 48.8916 37.2 48.2998H43.1L43.4 48.5998V59.3998C43.4 62.7998 44.4 64.3998 46.4 64.3998C47.3616 64.3329 48.2906 64.0233 49.1 63.4998C50.0246 62.8747 50.8944 62.1722 51.7 61.3998V50.8998L48.7 50.0998C48.6565 49.4926 48.7243 48.8826 48.9 48.2998H54.8L55.1 48.5998C55.1 51.1998 55 54.9998 55 59.8998V61.2998C54.9961 62.3365 55.0629 63.3722 55.2 64.3998L57.7 63.7998C58.0768 64.1691 58.2925 64.6723 58.3 65.1998C57.6678 65.8341 56.9214 66.343 56.1 66.6998C55.3805 67.0368 54.5945 67.2076 53.8 67.1998C53.3 67.1998 52.9 66.8998 52.6 66.0998C52.2002 65.2798 51.9303 64.4027 51.8 63.4998C50.8721 64.5437 49.8326 65.4826 48.7 66.2998C47.7041 66.8984 46.562 67.2099 45.4 67.1998C41.8 67.2998 40 65.1998 40 60.8998Z" fill="white"/>
<path d="M63 61.7002V50.7002L60.1 50.2002C59.917 49.6869 59.8824 49.1324 60 48.6002C60.982 48.3557 61.9883 48.2215 63 48.2002L64.3 42.8002C64.9732 42.752 65.6497 42.8197 66.3 43.0002V48.2002H72.5C72.4916 49.004 72.4247 49.8061 72.3 50.6002H66.3V60.1002C66.3 63.0002 66.9 64.5002 68.2 64.5002C69.5421 64.4265 70.8614 64.122 72.1 63.6002C72.5034 64.1121 72.7156 64.7487 72.7 65.4002C70.8677 66.5425 68.759 67.1648 66.6 67.2002C66.0829 67.2718 65.556 67.1974 65.0789 66.9854C64.6018 66.7733 64.1935 66.4321 63.9 66.0002C63.2193 64.6738 62.9084 63.1884 63 61.7002Z" fill="white"/>
<path d="M76.7 61.7002V50.7002L73.8 50.2002C73.6643 49.6783 73.6303 49.135 73.7 48.6002C74.682 48.3557 75.6883 48.2215 76.7 48.2002L78 42.8002C78.6732 42.752 79.3497 42.8197 80 43.0002V48.2002H86.2C86.1915 49.004 86.1247 49.8061 86 50.6002H80V60.1002C80 63.0002 80.7 64.5002 81.9 64.5002C83.2447 64.4458 84.5675 64.1406 85.8 63.6002C86.2322 64.1026 86.4792 64.7379 86.5 65.4002C84.6616 66.529 82.5567 67.1501 80.4 67.2002C79.8687 67.2684 79.3288 67.1931 78.8364 66.9821C78.344 66.7711 77.9171 66.432 77.6 66.0002C76.9193 64.6738 76.6084 63.1884 76.7 61.7002Z" fill="white"/>
<path d="M88.1999 57.7998C88.1762 55.2739 89.0638 52.8242 90.6999 50.8998C91.3703 49.9319 92.2679 49.1431 93.3139 48.6027C94.3599 48.0622 95.5226 47.7865 96.6999 47.7998C99.1999 47.7998 101 48.3998 102.1 49.7998C103.218 51.2193 103.786 52.9948 103.7 54.7998C103.711 55.6043 103.644 56.4081 103.5 57.1998L103.2 57.5998H91.4999C91.5848 58.6848 91.7859 59.7577 92.0999 60.7998C92.4719 61.8086 93.051 62.7283 93.7999 63.4998C94.6756 64.2127 95.7707 64.6013 96.8999 64.5998C99.0319 64.4943 101.129 64.0206 103.1 63.1998C103.505 63.5588 103.756 64.0603 103.8 64.5998C102.646 65.4042 101.405 66.0751 100.1 66.5998C98.8659 67.1226 97.5401 67.3945 96.1999 67.3998C93.4999 67.3998 91.4999 66.5998 90.1999 64.7998C88.7653 62.7576 88.0607 60.2916 88.1999 57.7998ZM93.4999 51.0998C92.4394 52.3036 91.776 53.8052 91.5999 55.3998H100.3C100.288 54.7619 100.221 54.1262 100.1 53.4998C99.988 52.9689 99.785 52.4614 99.4999 51.9998C99.2078 51.5048 98.7949 51.0919 98.2999 50.7998C97.6268 50.5515 96.9172 50.4163 96.1999 50.3998C95.2437 50.2824 94.2786 50.5326 93.4999 51.0998Z" fill="white"/>
<path d="M112.4 47.9L112.7 48.2C112.97 49.3198 113.171 50.4553 113.3 51.6C114.9 49.1 116.8 47.9 118.8 47.9C119.886 47.8952 120.967 48.064 122 48.4C122.03 50.6861 121.795 52.968 121.3 55.2C120.614 55.3973 119.886 55.3973 119.2 55.2C119.164 53.7261 119.03 52.2562 118.8 50.8H117.8C116.993 50.7852 116.197 50.9928 115.5 51.4C114.624 52.0958 113.879 52.9424 113.3 53.9V61.5C113.3 62.5 113.4 63.5 113.5 64.5C115.059 64.5065 116.609 64.7424 118.1 65.2C118.116 65.7734 118.049 66.3461 117.9 66.9H107C106.755 66.3686 106.652 65.783 106.7 65.2C107.782 65.0461 108.852 64.8122 109.9 64.5C109.981 63.7696 110.014 63.0347 110 62.3V51.5L106.9 50.8C106.77 50.3112 106.736 49.8018 106.8 49.3C108.585 48.5538 110.473 48.0818 112.4 47.9Z" fill="white"/>
<path d="M138.1 62.1998V55.5998C138.189 54.2621 137.949 52.923 137.4 51.6998C137 50.8998 136.1 50.4998 134.7 50.4998C133.103 50.5635 131.565 51.1227 130.3 52.0998V61.3998C130.3 62.3998 130.3 63.3998 130.4 64.3998C131.435 64.4439 132.452 64.6813 133.4 65.0998C133.448 65.6828 133.344 66.2684 133.1 66.7998H124C123.755 66.2684 123.652 65.6828 123.7 65.0998L126.8 64.3998C126.912 63.6713 126.978 62.9365 127 62.1998V51.4998L123.9 50.7998C123.741 50.3165 123.673 49.8079 123.7 49.2998C125.489 48.5648 127.375 48.0932 129.3 47.8998L129.6 48.1998C129.809 48.9567 129.976 49.7245 130.1 50.4998C130.863 49.6646 131.789 48.9942 132.821 48.5299C133.853 48.0656 134.969 47.8171 136.1 47.7998C138.633 47.7998 140.233 48.7998 140.9 50.7998C141.693 49.8749 142.674 49.1291 143.777 48.6119C144.881 48.0947 146.081 47.8179 147.3 47.7998C150.8 47.7998 152.6 49.8998 152.6 54.0998V61.3998C152.6 62.3998 152.6 63.3998 152.7 64.3998C153.704 64.431 154.692 64.6693 155.6 65.0998C155.648 65.6828 155.544 66.2684 155.3 66.7998H146.2C145.955 66.2684 145.852 65.6828 145.9 65.0998C146.982 64.946 148.052 64.712 149.1 64.3998C149.181 63.6694 149.214 62.9345 149.2 62.1998V55.5998C149.264 54.2727 149.06 52.9464 148.6 51.6998C148.2 50.8998 147.2 50.4998 145.8 50.4998C144.17 50.6323 142.61 51.2215 141.3 52.1998C141.3 52.7998 141.4 53.3998 141.4 54.0998V61.3998C141.4 62.0998 141.4 63.0998 141.5 64.3998C142.365 64.4989 143.209 64.7352 144 65.0998C144.06 65.6743 143.992 66.2549 143.8 66.7998H135.4C135.177 66.2617 135.075 65.6816 135.1 65.0998L137.9 64.3998C138.012 63.6713 138.078 62.9365 138.1 62.1998Z" fill="white"/>
<path d="M164 59.3998V61.3998C164 62.3998 164.1 63.3998 164.2 64.3998C165.203 64.4419 166.188 64.6796 167.1 65.0998C167.116 65.6732 167.049 66.2459 166.9 66.7998H157.7C157.456 66.2684 157.352 65.6828 157.4 65.0998C158.487 64.9732 159.559 64.7387 160.6 64.3998C160.686 63.6698 160.719 62.9346 160.7 62.1998V51.2998L157.6 50.6998C157.425 50.2194 157.391 49.6992 157.5 49.1998C159.556 48.4328 161.711 47.9614 163.9 47.7998L164.2 48.0998C164.1 51.5998 164 55.3998 164 59.3998ZM161.9 44.6998C161.316 44.6783 160.754 44.4677 160.3 44.0998C160.072 43.924 159.889 43.6961 159.767 43.435C159.646 43.174 159.588 42.8876 159.6 42.5998C159.595 41.8244 159.88 41.0751 160.4 40.4998C160.581 40.2114 160.827 39.969 161.117 39.7916C161.408 39.6143 161.736 39.5068 162.075 39.4778C162.415 39.4487 162.756 39.4988 163.073 39.6241C163.389 39.7493 163.673 39.9464 163.9 40.1998C164.128 40.3756 164.311 40.6035 164.433 40.8646C164.555 41.1256 164.612 41.412 164.6 41.6998C164.605 42.4752 164.32 43.2245 163.8 43.7998C163.568 44.0788 163.277 44.3038 162.949 44.4592C162.621 44.6147 162.263 44.6968 161.9 44.6998Z" fill="white"/>
<path d="M175.5 48.3002V61.4002C175.5 62.4002 175.6 63.4002 175.6 64.4002C176.635 64.4443 177.653 64.6817 178.6 65.1002C178.648 65.6832 178.545 66.2688 178.3 66.8002H169.2C168.956 66.2688 168.852 65.6832 168.9 65.1002L172.1 64.4002C172.181 63.6698 172.214 62.9349 172.2 62.2002V40.2002L169.1 39.6002C168.925 39.1197 168.891 38.5996 169 38.1002C171.039 37.2759 173.203 36.8026 175.4 36.7002L175.7 37.0002C175.6 40.5002 175.5 44.3002 175.5 48.3002Z" fill="white"/>
<path d="M186.8 48.2998V56.3998C187.903 56.0224 188.974 55.5541 190 54.9998L193.6 50.5998L191.2 49.9998C191.194 49.4195 191.296 48.8431 191.5 48.2998H199.6C199.749 48.8537 199.816 49.4264 199.8 49.9998C198.976 50.3885 198.1 50.6579 197.2 50.7998L192.2 56.0998C193.289 58.6279 194.737 60.9856 196.5 63.0998C196.944 63.6234 197.447 64.0932 198 64.4998C198.575 64.714 199.186 64.8158 199.8 64.7998H201C201.206 64.9851 201.36 65.2208 201.448 65.4837C201.536 65.7467 201.554 66.0279 201.5 66.2998C200.823 66.6834 200.074 66.9218 199.3 66.9998L196.6 67.2998C195.3 67.2998 194 66.3998 192.8 64.4998C191.494 62.4031 190.453 60.1526 189.7 57.7998L186.8 58.5998V61.4998C186.8 62.4998 186.9 63.4998 187 64.4998C188.003 64.5419 188.988 64.7796 189.9 65.1998C189.916 65.7732 189.849 66.3459 189.7 66.8998H180.5C180.255 66.3684 180.152 65.7828 180.2 65.1998C181.282 65.0459 182.352 64.812 183.4 64.4998C183.481 63.7694 183.514 63.0345 183.5 62.2998V40.2998L180.4 39.6998C180.225 39.2194 180.191 38.6992 180.3 38.1998C182.342 37.3863 184.504 36.9133 186.7 36.7998L187 37.0998C186.9 40.4998 186.8 44.2998 186.8 48.2998Z" fill="white"/>
<path d="M229.1 62.6998C229.114 61.9895 229.282 61.2906 229.593 60.6517C229.904 60.0128 230.35 59.4492 230.9 58.9998C231.992 57.903 233.329 57.0806 234.8 56.5998C236.461 56.025 238.167 55.5901 239.9 55.2998C239.938 53.9979 239.7 52.7026 239.2 51.4998C238.919 51.0735 238.531 50.7288 238.075 50.5005C237.618 50.2723 237.109 50.1685 236.6 50.1998C235.552 50.1647 234.505 50.2998 233.5 50.5998C233.27 51.6164 233.169 52.658 233.2 53.6998C232.498 54.0839 231.677 54.191 230.9 53.9998C230.296 52.6825 229.989 51.2488 230 49.7998C232.106 48.5047 234.528 47.8129 237 47.7998L238.9 47.9998C239.602 48.2152 240.273 48.5176 240.9 48.8998C241.659 49.3308 242.256 49.998 242.6 50.7998C243.02 51.8132 243.224 52.903 243.2 53.9998V61.3998C243.145 62.4374 243.212 63.4778 243.4 64.4998L245.9 63.8998C246.277 64.2691 246.492 64.7723 246.5 65.2998C245.297 66.4973 243.695 67.2093 242 67.2998C241.757 67.2934 241.522 67.2135 241.326 67.0707C241.129 66.9279 240.981 66.7288 240.9 66.4998C240.484 65.7936 240.212 65.0118 240.1 64.1998C237.7 66.2998 235.5 67.2998 233.6 67.2998C233.014 67.3233 232.428 67.2293 231.879 67.0232C231.329 66.8171 230.826 66.5031 230.4 66.0998C229.537 65.1811 229.07 63.9599 229.1 62.6998ZM235.6 64.3998C236.337 64.3638 237.055 64.1585 237.7 63.7998C238.507 63.4171 239.249 62.911 239.9 62.2998V57.6998C238.483 57.8192 237.079 58.0533 235.7 58.3998L233.4 59.2998C232.843 59.9721 232.558 60.828 232.6 61.6998C232.597 62.0543 232.666 62.4057 232.804 62.7325C232.941 63.0592 233.144 63.3544 233.4 63.5998C233.691 63.8787 234.037 64.0939 234.416 64.2317C234.794 64.3694 235.198 64.4267 235.6 64.3998Z" fill="white"/>
<path d="M254.2 48.3002V61.4002C254.2 62.4002 254.3 63.4002 254.4 64.4002C255.403 64.4422 256.388 64.68 257.3 65.1002C257.316 65.6736 257.249 66.2463 257.1 66.8002H247.9C247.655 66.2688 247.552 65.6832 247.6 65.1002C248.683 64.9463 249.752 64.7124 250.8 64.4002C250.881 63.6698 250.914 62.9349 250.9 62.2002V40.2002L247.8 39.6002C247.625 39.1197 247.591 38.5996 247.7 38.1002C249.742 37.2867 251.905 36.8137 254.1 36.7002L254.4 37.0002C254.3 40.5002 254.2 44.3002 254.2 48.3002Z" fill="white"/>
<path d="M265.6 48.3002V61.4002C265.6 62.4002 265.6 63.4002 265.7 64.4002C266.704 64.4314 267.692 64.6697 268.6 65.1002C268.616 65.6736 268.549 66.2463 268.4 66.8002H259.2C259.001 66.257 258.933 65.6747 259 65.1002L262.1 64.4002C262.212 63.6716 262.278 62.9369 262.3 62.2002V40.2002L259.1 39.6002C258.972 39.111 258.938 38.602 259 38.1002C261.045 37.2968 263.206 36.8242 265.4 36.7002L265.7 37.0002C265.6 40.5002 265.6 44.3002 265.6 48.3002Z" fill="white"/>
<path d="M277.4 67.2C275.319 67.3059 273.239 66.9649 271.3 66.2C271.292 64.2451 271.527 62.2969 272 60.4C272.584 60.2019 273.216 60.2019 273.8 60.4C273.858 61.7398 273.992 63.0752 274.2 64.4C275.358 64.7897 276.579 64.9593 277.8 64.9C278.741 64.9884 279.685 64.7785 280.5 64.3C280.774 63.989 280.979 63.6227 281.1 63.226C281.22 62.8292 281.255 62.4111 281.2 62C281.2 60.9 280.6 60 279.2 59.2L277.3 58.4L275.3 57.6C274.695 57.3797 274.123 57.0768 273.6 56.7C273.011 56.3302 272.528 55.8132 272.2 55.2C271.869 54.5496 271.698 53.8297 271.7 53.1C271.656 52.3057 271.828 51.5143 272.197 50.8099C272.567 50.1055 273.121 49.5146 273.8 49.1C275.256 48.2594 276.919 47.8437 278.6 47.9C280.491 47.8547 282.378 48.0907 284.2 48.6C284.221 50.2596 283.985 51.9125 283.5 53.5C282.845 53.7243 282.129 53.6885 281.5 53.4C281.4 52.5 281.2 51.5 281 50.4C280.194 50.1296 279.35 49.9945 278.5 50C277.538 49.9032 276.569 50.0764 275.7 50.5C275.448 50.7221 275.253 51.0015 275.131 51.3148C275.009 51.628 274.964 51.9658 275 52.3C275.023 52.6554 275.124 53.0014 275.297 53.3127C275.47 53.624 275.71 53.893 276 54.1C276.731 54.6503 277.54 55.0884 278.4 55.4L281.2 56.5C282.14 56.9332 282.963 57.5846 283.6 58.4C284.279 59.2108 284.635 60.2433 284.6 61.3C284.631 62.1384 284.467 62.9725 284.12 63.7362C283.773 64.5 283.252 65.1724 282.6 65.7C281.073 66.7466 279.25 67.2726 277.4 67.2Z" fill="white"/>
<path d="M315.897 63.4502H312.826V40.167H315.897V63.4502Z" fill="white"/>
<path d="M323.86 46.1477L323.956 48.3225C325.278 46.6594 327.005 45.8279 329.137 45.8279C332.794 45.8279 334.638 47.8907 334.67 52.0165V63.4502H331.712V52.0005C331.701 50.7532 331.414 49.831 330.849 49.234C330.294 48.637 329.425 48.3385 328.242 48.3385C327.282 48.3385 326.44 48.5944 325.715 49.1061C324.99 49.6178 324.425 50.2894 324.02 51.121V63.4502H321.062V46.1477H323.86Z" fill="white"/>
<path d="M341.93 46.1477L342.026 48.3225C343.348 46.6594 345.075 45.8279 347.208 45.8279C350.864 45.8279 352.708 47.8907 352.74 52.0165V63.4502H349.782V52.0005C349.771 50.7532 349.484 49.831 348.919 49.234C348.364 48.637 347.495 48.3385 346.312 48.3385C345.353 48.3385 344.51 48.5944 343.785 49.1061C343.06 49.6178 342.495 50.2894 342.09 51.121V63.4502H339.132V46.1477H341.93Z" fill="white"/>
<path d="M373.801 50.9611H380.293V53.7595H373.801V61.1155H370.827V53.7595H364.334V50.9611H370.827V44.1648H373.801V50.9611Z" fill="white"/>
<path d="M399.355 53.0719C396.722 52.315 394.803 51.3875 393.598 50.2894C392.404 49.1807 391.807 47.8161 391.807 46.1957C391.807 44.362 392.537 42.8482 393.998 41.6542C395.469 40.4495 397.377 39.8472 399.723 39.8472C401.322 39.8472 402.745 40.1563 403.992 40.7747C405.25 41.393 406.22 42.2458 406.903 43.3333C407.596 44.4207 407.942 45.6093 407.942 46.8993H404.856C404.856 45.4921 404.408 44.3887 403.513 43.5891C402.617 42.7789 401.354 42.3738 399.723 42.3738C398.209 42.3738 397.025 42.7096 396.173 43.3812C395.33 44.0422 394.909 44.9644 394.909 46.1477C394.909 47.0965 395.309 47.9014 396.109 48.5624C396.919 49.2127 398.289 49.8097 400.218 50.3534C402.159 50.8971 403.672 51.4994 404.76 52.1604C405.858 52.8107 406.668 53.573 407.191 54.4471C407.724 55.3213 407.99 56.3501 407.99 57.5334C407.99 59.4204 407.255 60.9342 405.783 62.075C404.312 63.205 402.345 63.77 399.883 63.77C398.283 63.77 396.791 63.4662 395.405 62.8585C394.019 62.2402 392.948 61.398 392.191 60.3319C391.445 59.2658 391.071 58.0558 391.071 56.7019H394.158C394.158 58.1091 394.675 59.2232 395.709 60.0441C396.754 60.8543 398.145 61.2594 399.883 61.2594C401.503 61.2594 402.745 60.9289 403.609 60.2679C404.472 59.607 404.904 58.7061 404.904 57.5654C404.904 56.4247 404.504 55.5452 403.704 54.9269C402.905 54.2979 401.455 53.6796 399.355 53.0719Z" fill="white"/>
<path d="M426.092 54.9908C426.092 57.6241 425.49 59.7456 424.285 61.3553C423.08 62.9651 421.449 63.77 419.392 63.77C417.292 63.77 415.639 63.1037 414.435 61.7711V70.1025H411.476V46.1477H414.179L414.323 48.0667C415.527 46.5741 417.201 45.8279 419.344 45.8279C421.423 45.8279 423.064 46.6115 424.269 48.1786C425.484 49.7457 426.092 51.9259 426.092 54.719V54.9908ZM423.134 54.655C423.134 52.7041 422.718 51.1636 421.886 50.0336C421.055 48.9035 419.914 48.3385 418.464 48.3385C416.673 48.3385 415.33 49.1327 414.435 50.7212V58.9886C415.319 60.5664 416.673 61.3553 418.496 61.3553C419.914 61.3553 421.039 60.7957 421.87 59.6763C422.713 58.5462 423.134 56.8725 423.134 54.655Z" fill="white"/>
<path d="M440.548 63.4502C440.378 63.109 440.239 62.5014 440.132 61.6272C438.757 63.0557 437.115 63.77 435.207 63.77C433.501 63.77 432.1 63.2903 431.001 62.3308C429.914 61.3607 429.37 60.1347 429.37 58.6528C429.37 56.8512 430.053 55.4546 431.417 54.4631C432.792 53.461 434.722 52.96 437.206 52.96H440.084V51.6007C440.084 50.5666 439.775 49.7457 439.157 49.1381C438.539 48.5197 437.627 48.2106 436.422 48.2106C435.367 48.2106 434.482 48.4771 433.768 49.0101C433.054 49.5432 432.697 50.1882 432.697 50.9451H429.722C429.722 50.0815 430.026 49.25 430.634 48.4504C431.252 47.6402 432.084 47.0006 433.128 46.5315C434.184 46.0624 435.34 45.8279 436.598 45.8279C438.592 45.8279 440.154 46.3289 441.284 47.3311C442.414 48.3225 443 49.6924 443.043 51.4408V59.4044C443.043 60.9929 443.245 62.2562 443.651 63.1943V63.4502H440.548ZM435.639 61.1954C436.566 61.1954 437.446 60.9556 438.277 60.4758C439.109 59.9961 439.711 59.3724 440.084 58.6049V55.0548H437.766C434.141 55.0548 432.329 56.1156 432.329 58.2371C432.329 59.1646 432.638 59.8895 433.256 60.4119C433.875 60.9342 434.669 61.1954 435.639 61.1954Z" fill="white"/>
<path d="M519.009 69.5142L516.483 81.6411C514.125 82.4832 512.778 83.578 513.03 85.2623C514.209 84.6728 515.136 84.3359 515.978 84.0833L514.883 89.2204C514.63 90.5678 514.715 91.5784 515.22 92.1679C515.725 92.7574 516.567 92.9258 517.83 92.9258L519.936 82.9885C522.378 82.2306 524.989 81.6411 527.684 81.22L525.999 89.3046C525.747 90.5678 525.831 91.5784 526.336 92.2521C526.841 92.8416 527.684 93.0101 528.947 93.0101L533.831 69.5142H530.126L528.357 78.1883C525.578 78.6936 522.968 79.2831 520.525 80.041L522.715 69.5142H519.009ZM551.685 73.0512L548.316 89.2204C548.064 90.4836 548.148 91.4942 548.653 92.1679C549.158 92.7574 550 92.9258 551.264 92.9258L555.39 73.0512H551.685ZM558.338 78.2725L556.064 89.3046C555.811 90.5678 555.896 91.5784 556.401 92.2521C556.906 92.8416 557.748 93.0101 559.011 93.0101L562.127 78.3567H558.338V78.2725ZM588.823 78.0198C587.813 78.0198 586.971 78.1041 586.044 78.3567V80.9674C586.465 80.7147 586.887 80.5463 587.392 80.4621C588.318 80.2936 589.329 80.3779 589.497 80.7147L588.234 86.7782C587.981 88.0414 587.56 88.8835 587.055 89.5573C586.718 89.8941 586.381 90.231 585.96 90.3994V92.589C586.55 92.3363 587.139 91.9153 587.644 91.3258C587.729 91.7468 587.897 92.0837 588.15 92.3363C588.655 92.9258 589.329 93.0943 590.592 93.0943L593.455 79.4515C592.024 78.6093 590.508 78.1041 588.823 78.0198ZM586.129 78.3567C584.529 78.7778 583.097 79.6199 581.834 80.8831C580.486 82.3148 579.56 83.9991 579.139 85.7676C578.886 87.0308 578.802 88.3783 579.055 89.7257C579.476 91.41 580.57 92.7574 583.097 93.0101C584.023 93.0943 585.118 92.9258 586.129 92.5048V90.3152C585.623 90.5678 585.118 90.5678 584.613 90.4836C583.771 90.3152 583.013 89.7257 582.76 88.7151C582.423 87.4519 582.676 86.0202 583.181 84.6728C583.771 83.2412 584.697 81.7253 586.044 80.9674V78.3567H586.129ZM600.024 99.0735C602.298 98.7367 604.403 97.8103 605.835 95.7892C606.593 94.6944 607.182 93.0943 607.519 91.41L610.382 78.2725H606.677L604.908 86.5255C604.487 88.0414 603.898 89.052 603.224 89.6415C602.382 90.3152 600.95 90.6521 600.024 89.8941V92.8416C600.782 92.7574 601.456 92.6732 602.466 92.2521C602.972 91.9995 603.393 91.8311 603.898 91.3258C603.561 92.8416 603.14 94.3575 602.298 95.4523C601.708 96.126 601.035 96.7155 600.024 96.9682V99.0735ZM600.024 84.3359V78.2725H601.287L600.024 84.3359ZM596.403 91.8311C595.561 92.1679 594.718 92.4206 594.129 93.0101C593.455 93.5996 593.034 94.3575 593.034 95.1996V95.6207C593.118 96.6313 593.624 97.6419 594.55 98.2314C595.813 99.1577 597.75 99.4104 599.771 99.1577H600.024V97.0524C599.94 97.0524 599.771 97.1366 599.687 97.1366C599.013 97.2208 598.087 97.2208 597.245 96.7155C596.15 96.126 595.982 95.1996 596.319 94.4417C596.571 93.6838 597.498 93.4311 598.171 93.2627C598.592 93.1785 598.929 93.0943 599.266 93.0943H599.435C599.603 93.0943 599.856 93.0101 600.024 93.0101V90.0625L599.856 89.8941C599.266 89.2204 599.266 88.1256 599.435 87.3677L600.024 84.5044V78.4409H597.582L595.561 87.7045C595.224 89.3888 595.561 90.8205 596.403 91.8311ZM573.075 78.0198C572.149 78.0198 571.223 78.1041 570.296 78.3567V80.9674C570.717 80.7147 571.223 80.5463 571.644 80.4621C572.57 80.2936 573.581 80.3779 573.749 80.7147L572.486 86.7782C572.233 88.0414 571.812 88.8835 571.307 89.5573C570.97 89.8941 570.633 90.231 570.212 90.3994V92.589C570.802 92.3363 571.391 91.9153 571.896 91.3258C571.981 91.7468 572.149 92.0837 572.402 92.3363C572.907 92.9258 573.581 93.0943 574.844 93.0943L579.812 70.3563H576.107L574.507 78.1883C574.002 78.1041 573.581 78.0198 573.075 78.0198ZM570.38 78.2725C568.696 78.6936 567.18 79.5357 565.917 80.7989C564.57 82.2306 563.643 83.8307 563.222 85.6834C562.885 87.115 562.885 88.7151 563.306 89.9783C563.896 91.6626 565.159 92.7574 567.349 92.9258C568.275 93.0101 569.37 92.8416 570.38 92.4206V90.231C569.875 90.3994 569.37 90.4836 568.865 90.3994C568.022 90.231 567.264 89.6415 567.012 88.6309C566.675 87.3677 566.759 85.8518 567.349 84.5044C567.938 83.0727 568.949 81.6411 570.38 80.7989V78.2725ZM539.895 92.9258C542 92.5048 543.684 91.41 544.863 89.8941C545.958 88.5467 546.632 86.7782 546.969 85.0097C547.053 84.4202 547.137 83.8307 547.137 83.1569C547.137 81.8095 546.8 80.5463 546.042 79.6199C544.611 78.0198 542.084 77.683 539.895 78.1041V80.6305C540.147 80.5463 540.484 80.4621 540.737 80.4621C541.579 80.4621 542.59 80.7989 543.095 81.9779C543.432 82.8201 543.348 83.9149 543.179 85.0097C542.926 86.5255 542.337 88.0414 541.579 88.9678C541.074 89.6415 540.484 90.1468 539.895 90.3994V92.9258ZM538.126 78.6936C535.937 79.6199 534.337 81.4726 533.494 83.6622C532.568 86.0202 532.063 89.5573 534 91.5784C535.347 92.9258 537.705 93.2627 539.642 92.9258C539.726 92.9258 539.81 92.9258 539.895 92.8416V90.3994C539.642 90.4836 539.389 90.5678 539.137 90.5678C538.295 90.6521 537.452 90.3152 536.947 89.3888C535.852 87.5361 537.031 83.9149 538.042 82.2306C538.547 81.4726 539.221 80.8831 539.979 80.5463V78.0198C539.305 78.2725 538.631 78.4409 538.126 78.6936ZM562.717 75.1565C563.138 74.567 563.306 73.9775 563.306 73.4723C563.222 72.2932 562.043 71.8722 560.948 72.209C559.938 72.5459 559.18 73.3038 559.011 74.3986C558.927 74.9881 559.011 75.4934 559.348 75.8303C559.769 76.3356 560.612 76.504 561.369 76.1671C561.875 75.9145 562.38 75.4934 562.717 75.1565ZM619.057 69.5984L614.93 89.3046C614.677 90.5678 614.762 91.5784 615.267 92.2521C615.772 92.8416 616.614 93.0101 617.878 93.0101L622.762 69.6826L619.057 69.5984ZM632.615 83.9991L631.52 89.3046C631.268 90.5678 631.352 91.5784 631.857 92.2521C632.362 92.8416 633.205 93.0101 634.468 93.0101L636.489 83.578C636.742 82.3148 636.826 80.7147 636.152 79.6199C634.889 77.5988 631.605 77.683 629.668 78.6093C628.994 78.9462 628.32 79.4515 627.646 80.1252L627.141 78.2725H624.278C624.278 79.8726 624.025 81.5569 623.604 83.3254L621.667 92.6732H625.373L626.973 85.0097C627.225 83.7464 627.646 82.4832 628.489 81.5569C628.994 81.0516 629.668 80.7147 630.426 80.6305C631.183 80.5463 632.026 80.7989 632.362 81.5569C632.699 82.0622 632.784 82.9043 632.615 83.9991ZM648.784 83.9991L647.69 89.3046C647.437 90.5678 647.521 91.5784 648.026 92.2521C648.532 92.8416 649.374 93.0101 650.637 93.0101L652.658 83.578C652.911 82.3148 652.995 80.7147 652.321 79.6199C651.058 77.5988 647.774 77.683 645.837 78.6093C645.163 78.9462 644.489 79.4515 643.816 80.1252L643.31 78.2725H640.447C640.447 79.8726 640.194 81.5569 639.773 83.3254L637.836 92.7574H641.542L643.142 85.0939C643.395 83.8307 643.816 82.5674 644.658 81.6411C645.163 81.1358 645.837 80.7989 646.595 80.7147C647.353 80.6305 648.195 80.8831 648.532 81.6411C648.953 82.0622 649.037 82.9043 648.784 83.9991Z" fill="white"/>
<path d="M580.823 4.24776C578.381 9.6375 576.191 15.5325 574.423 21.9328C575.265 21.596 576.107 21.1749 576.949 20.8381C579.812 19.6591 582.592 18.6485 585.286 17.8063C586.634 13.0061 588.234 8.12164 590.171 4.07933C592.108 0.121239 594.045 -0.215621 598.34 0.626526C596.403 5.25834 594.466 10.227 592.782 15.6167C599.687 13.8482 606.677 12.7534 614.509 12.3324V17.5537C605.414 17.9748 597.834 19.238 591.097 21.0065C588.15 31.3649 585.96 42.9865 584.613 56.2924C578.297 57.5557 578.128 54.0187 578.633 50.0606C579.644 41.8917 581.16 33.8913 583.181 25.8909C583.434 25.0488 583.602 24.1224 583.855 23.1961C580.065 24.5435 576.444 25.9752 572.991 27.5752C571.475 34.2282 570.296 41.5549 569.622 49.6395C563.559 51.1554 563.812 46.0183 564.317 42.0602C564.822 38.1863 565.412 34.4808 566.085 31.028C562.801 32.7123 559.769 34.3966 556.738 36.1651C555.222 33.3018 557.748 31.1123 559.938 29.7648C561.875 28.5858 564.401 27.0699 567.264 25.5541C568.78 19.1538 570.717 13.3429 572.823 8.12164C574.591 3.99512 577.286 3.74247 580.823 4.24776Z" fill="white"/>
<path d="M610.719 12.5852L614.509 12.3325V17.5538C605.414 17.9749 597.834 19.2381 591.097 21.0066C588.15 31.365 585.96 42.9867 584.613 56.2926C578.297 57.5558 578.128 54.0188 578.633 50.0607C579.644 41.8919 581.16 33.8915 583.181 25.8911C583.434 25.0489 583.602 24.1226 583.855 23.1962C580.065 24.5437 576.444 25.9753 572.991 27.5754C571.475 34.2283 570.296 41.555 569.622 49.6396C563.559 51.1555 563.812 46.0184 564.317 42.0603C564.822 38.1864 565.412 34.481 566.085 31.0282C562.885 32.7125 559.769 34.3968 556.822 36.0811C562.885 28.9228 586.971 17.0485 610.298 12.7536L610.719 12.5852Z" fill="white"/>
<path d="M833.164 11.312V11.276H837.924V16.0554H839.794V5.35693H837.924V9.62812H833.164V5.35693H831.294V16.0554H833.164V11.312Z" fill="white"/>
<path d="M870.477 10.7912C870.515 10.0707 870.406 9.34998 870.158 8.67266C869.911 7.99534 869.529 7.37544 869.035 6.85035C868.542 6.32526 867.948 5.90587 867.289 5.61749C866.63 5.32911 865.92 5.17772 865.201 5.17245C864.474 5.15011 863.75 5.27602 863.074 5.54256C862.397 5.8091 861.781 6.21072 861.264 6.72309C860.746 7.23546 860.338 7.84791 860.063 8.52336C859.788 9.1988 859.653 9.92318 859.666 10.6526C859.635 11.3765 859.75 12.0991 860.004 12.7771C860.259 13.4552 860.647 14.0745 861.146 14.598C861.645 15.1214 862.245 15.5381 862.909 15.8231C863.573 16.108 864.287 16.2553 865.009 16.256C865.734 16.2917 866.46 16.175 867.138 15.9134C867.816 15.6517 868.432 15.2508 868.947 14.7364C869.461 14.222 869.863 13.6054 870.127 12.926C870.391 12.2466 870.51 11.5195 870.477 10.7912ZM868.485 10.9581C868.523 11.4075 868.468 11.8601 868.322 12.2869C868.177 12.7138 867.945 13.1055 867.64 13.4373C867.335 13.769 866.965 14.0335 866.553 14.2139C866.141 14.3942 865.696 14.4865 865.247 14.4849C864.743 14.4695 864.247 14.3507 863.79 14.1357C863.334 13.9207 862.926 13.6141 862.592 13.2348C862.258 12.8555 862.006 12.4115 861.849 11.9303C861.693 11.4491 861.637 10.9409 861.684 10.437C861.647 9.98345 861.705 9.52721 861.854 9.09739C862.003 8.66756 862.239 8.27357 862.548 7.94055C862.857 7.60752 863.232 7.34276 863.649 7.16315C864.065 6.98354 864.514 6.89301 864.968 6.89735C865.466 6.9292 865.952 7.05989 866.399 7.28184C866.846 7.50379 867.245 7.81259 867.572 8.19032C867.899 8.56806 868.148 9.00721 868.305 9.48232C868.462 9.95743 868.523 10.459 868.485 10.9581Z" fill="white"/>
<path d="M891.835 7.04829V16.0553H893.705V7.04829H897.181V5.40039H888.374V7.04829H891.835Z" fill="white"/>
<path d="M918.385 14.3766V11.2758H922.089V9.62794H918.385V7.04829H922.442V5.40039H916.515V16.0245H922.928L923.25 14.3766H918.39H918.385Z" fill="white"/>
<path d="M948.953 14.3767H944.429V5.35693H942.559V16.0246H948.649L948.953 14.3767Z" fill="white"/>
<path d="M735.504 35.4756H733.793L707.86 65.9771V35.4756H704.967V92.5232H707.86V68.8058L713.431 62.322L740.359 92.4154L740.454 92.5232H744.288L715.451 60.212L735.504 35.4756Z" fill="white"/>
<path d="M761.804 36.7693H770.221V91.2295H761.804V92.5232H781.532V91.2295H773.114V36.7693H781.532V35.4756H761.804V36.7693Z" fill="white"/>
<path d="M840.436 89.0682L806.752 35.627L806.657 35.4756H803.908V92.5232H805.197V38.4403L840.487 93.9837L840.584 94.1326H841.725V35.4756H840.436V89.0682Z" fill="white"/>
<path d="M958.45 91.2295H931.23V35.4756H928.337V92.5232H959.74V78.7625H958.45V91.2295Z" fill="white"/>
<path d="M1014.54 91.2295H985.177V62.997H1003.53V61.7059H985.177V36.7693H1011.66V49.2389H1012.94V35.4756H982.284V92.5232H1015.83V76.9118H1014.54V91.2295Z" fill="white"/>
<path d="M1073.17 35.4756L1054.85 67.2503L1036.93 35.6399L1036.84 35.4756H1033.45L1052.84 69.5168L1052.76 92.1998V92.5232H1055.73V68.3925L1074.72 35.4756H1073.17Z" fill="white"/>
<path d="M901.923 67.2016C897.857 63.6627 893.005 61.1548 887.773 59.8887L886.494 59.4678C882.764 58.3998 879.224 56.7479 876.007 54.5728C874.764 53.6959 873.747 52.5356 873.038 51.1872C872.403 49.8522 872.087 48.3872 872.114 46.9083C872.113 45.3675 872.521 43.8541 873.296 42.5242C874.132 41.0975 875.251 39.8579 876.583 38.8819C878.619 37.2734 881.022 36.197 883.574 35.749C886.127 35.301 888.751 35.4955 891.211 36.315C892.835 36.827 894.392 37.531 895.851 38.4121C896.911 39.0465 897.88 39.8238 898.731 40.7223C899.429 41.5077 899.889 42.0442 900.138 42.3573L900.314 42.5832L902.718 41.1124L902.48 40.8249C901.934 40.2081 901.345 39.6308 900.718 39.0975C899.649 38.1939 898.467 37.4345 897.201 36.8387C895.499 36.0219 893.719 35.3795 891.889 34.9213C888.669 34.0608 885.285 34.0332 882.052 34.8412C878.818 35.6491 875.842 37.2663 873.401 39.5415C872.086 40.7089 871.082 42.1868 870.48 43.8415C869.878 45.4962 869.697 47.2755 869.953 49.0182C870.524 51.4627 871.649 53.7421 873.241 55.6787C874.833 57.6154 876.85 59.1571 879.133 60.1839C881.623 61.3311 884.187 62.3112 886.806 63.1178C891.4 64.2918 895.705 66.3989 899.455 69.309C900.764 70.4392 901.797 71.8567 902.473 73.4518C903.08 74.9915 903.387 76.6342 903.376 78.2903C903.384 80.2791 902.976 82.2475 902.179 84.0682C901.375 85.8761 900.187 87.4855 898.697 88.7834C897.052 90.1898 895.149 91.2621 893.096 91.9406C891.368 92.5377 889.565 92.8877 887.74 92.9802C886.869 93.025 885.997 93.0121 885.128 92.9417C881.595 92.5984 878.169 91.5391 875.056 89.8281C873.559 89.0385 872.126 88.134 870.769 87.1227C870.147 86.6749 869.562 86.1779 869.019 85.6365L868.942 85.5544C867.843 84.389 867.807 84.3505 867.548 84.5456L867.152 84.8434C866.681 85.1925 866.211 85.5415 865.735 85.8855L865.41 86.1191L865.709 86.3758C866.925 87.4677 868.222 88.4648 869.59 89.3584C874.502 92.5642 880.23 94.2848 886.09 94.3149C888.708 94.332 891.312 93.9228 893.799 93.1034C896.155 92.3445 898.357 91.1692 900.301 89.6331C902.063 88.2236 903.514 86.4612 904.56 84.4583C905.575 82.4997 906.101 80.3233 906.095 78.1157C906.099 76.1323 905.776 74.1619 905.141 72.2839C904.468 70.366 903.367 68.6276 901.923 67.2016Z" fill="white"/>
</svg>
