<svg width="345" height="80" viewBox="0 0 345 80" fill="none" xmlns="http://www.w3.org/2000/svg">
<path d="M38.0712 10.7803C35.8526 10.7803 33.7249 11.6617 32.1561 13.2305C30.5873 14.7992 29.706 16.927 29.706 19.1456V31.0959C29.706 33.3145 30.5873 35.4423 32.1561 37.0111C33.7249 38.5798 35.8526 39.4612 38.0712 39.4612H50.0216C52.2402 39.4612 54.3679 38.5798 55.9367 37.0111C57.5055 35.4423 58.3868 33.3145 58.3868 31.0959V25.1208C58.3868 24.8038 58.5127 24.4998 58.7369 24.2757C58.961 24.0516 59.2649 23.9257 59.5819 23.9257C59.8988 23.9257 60.2028 24.0516 60.4269 24.2757C60.651 24.4998 60.7769 24.8038 60.7769 25.1208V31.0959C60.7769 33.9484 59.6438 36.6841 57.6267 38.7011C55.6097 40.7181 52.8741 41.8512 50.0216 41.8512H38.0712C35.2187 41.8512 32.4831 40.7181 30.4661 38.7011C28.4491 36.6841 27.3159 33.9484 27.3159 31.0959V19.1456C27.3159 16.2931 28.4491 13.5574 30.4661 11.5404C32.4831 9.5234 35.2187 8.39026 38.0712 8.39026H44.0464C44.3634 8.39026 44.6673 8.51616 44.8914 8.74028C45.1155 8.96439 45.2414 9.26835 45.2414 9.58529C45.2414 9.90224 45.1155 10.2062 44.8914 10.4303C44.6673 10.6544 44.3634 10.7803 44.0464 10.7803H38.0712Z" fill="#A650FF"/>
<path d="M63.1671 13.1702C63.1671 15.0719 62.4117 16.8956 61.067 18.2403C59.7223 19.585 57.8985 20.3404 55.9969 20.3404C54.0952 20.3404 52.2714 19.585 50.9268 18.2403C49.5821 16.8956 48.8267 15.0719 48.8267 13.1702C48.8267 11.2686 49.5821 9.44478 50.9268 8.10011C52.2714 6.75543 54.0952 6 55.9969 6C57.8985 6 59.7223 6.75543 61.067 8.10011C62.4117 9.44478 63.1671 11.2686 63.1671 13.1702Z" fill="#A650FF"/>
<path d="M26.5063 57.1357C25.7687 57.1357 25.1886 57.3971 24.7661 57.9199C24.3436 58.4427 24.1323 59.1642 24.1323 60.0845C24.1323 61.0477 24.3346 61.7764 24.7393 62.2705C25.1475 62.7646 25.7365 63.0117 26.5063 63.0117C26.8394 63.0117 27.1616 62.9795 27.4731 62.915C27.7847 62.847 28.1087 62.7611 28.4453 62.6572V63.7583C27.8294 63.991 27.1312 64.1074 26.3506 64.1074C25.2012 64.1074 24.3185 63.7601 23.7026 63.0654C23.0868 62.3672 22.7788 61.37 22.7788 60.0737C22.7788 59.2573 22.9274 58.543 23.2246 57.9307C23.5254 57.3184 23.9587 56.8493 24.5244 56.5234C25.0902 56.1976 25.7544 56.0347 26.5171 56.0347C27.3192 56.0347 28.0604 56.203 28.7407 56.5396L28.2788 57.6084C28.0138 57.4831 27.7327 57.3739 27.4355 57.2808C27.1419 57.1841 26.8322 57.1357 26.5063 57.1357ZM34.1924 64L34.0151 63.2212H33.9507C33.7752 63.4969 33.5246 63.7135 33.1987 63.8711C32.8765 64.0286 32.5076 64.1074 32.0923 64.1074C31.3726 64.1074 30.8354 63.9284 30.481 63.5703C30.1265 63.2122 29.9492 62.6698 29.9492 61.9429V58.0596H31.2222V61.7227C31.2222 62.1774 31.3153 62.5194 31.5015 62.7485C31.6877 62.9741 31.9795 63.0869 32.377 63.0869C32.9069 63.0869 33.2954 62.9294 33.5425 62.6143C33.7931 62.2956 33.9185 61.7638 33.9185 61.019V58.0596H35.186V64H34.1924ZM40.9761 62.3081C40.9761 62.8882 40.7648 63.334 40.3423 63.6455C39.9198 63.9535 39.3146 64.1074 38.5269 64.1074C37.7355 64.1074 37.0999 63.9875 36.6201 63.7476V62.6572C37.3184 62.9795 37.9683 63.1406 38.5698 63.1406C39.3468 63.1406 39.7354 62.9061 39.7354 62.437C39.7354 62.2866 39.6924 62.1613 39.6064 62.061C39.5205 61.9608 39.3791 61.8569 39.1821 61.7495C38.9852 61.6421 38.7113 61.5203 38.3604 61.3843C37.6764 61.1193 37.2127 60.8543 36.9692 60.5894C36.7293 60.3244 36.6094 59.9806 36.6094 59.5581C36.6094 59.0496 36.8135 58.6558 37.2217 58.3765C37.6335 58.0936 38.1921 57.9521 38.8975 57.9521C39.5957 57.9521 40.2563 58.0936 40.8794 58.3765L40.4712 59.3271C39.8302 59.0622 39.2913 58.9297 38.8545 58.9297C38.1885 58.9297 37.8555 59.1195 37.8555 59.499C37.8555 59.6852 37.9414 59.8428 38.1133 59.9717C38.2887 60.1006 38.6683 60.2778 39.252 60.5034C39.7425 60.6932 40.0988 60.8669 40.3208 61.0244C40.5428 61.182 40.7075 61.3646 40.8149 61.5723C40.9224 61.7764 40.9761 62.0216 40.9761 62.3081ZM44.5586 63.0869C44.8665 63.0869 45.1745 63.0386 45.4824 62.9419V63.8926C45.3428 63.9535 45.1619 64.0036 44.9399 64.043C44.7215 64.0859 44.4941 64.1074 44.2578 64.1074C43.0618 64.1074 42.4639 63.4772 42.4639 62.2168V59.0156H41.6528V58.457L42.5229 57.9951L42.9526 56.7383H43.7314V58.0596H45.4233V59.0156H43.7314V62.1953C43.7314 62.4997 43.8066 62.7253 43.957 62.8721C44.111 63.0153 44.3115 63.0869 44.5586 63.0869ZM51.9438 61.019C51.9438 61.9894 51.695 62.7467 51.1973 63.291C50.6995 63.8353 50.0067 64.1074 49.1187 64.1074C48.5636 64.1074 48.0731 63.9821 47.647 63.7314C47.2209 63.4808 46.8932 63.1209 46.6641 62.6519C46.4349 62.1828 46.3203 61.6385 46.3203 61.019C46.3203 60.0558 46.5674 59.3039 47.0615 58.7632C47.5557 58.2225 48.2521 57.9521 49.1509 57.9521C50.0103 57.9521 50.6906 58.2297 51.1919 58.7847C51.6932 59.3361 51.9438 60.0809 51.9438 61.019ZM47.6201 61.019C47.6201 62.3905 48.1268 63.0762 49.1401 63.0762C50.1427 63.0762 50.644 62.3905 50.644 61.019C50.644 59.6619 50.1392 58.9834 49.1294 58.9834C48.5994 58.9834 48.2145 59.1589 47.9746 59.5098C47.7383 59.8607 47.6201 60.3638 47.6201 61.019ZM58.4053 64H57.1377V60.3369C57.1377 59.8822 57.0518 59.5438 56.8799 59.3218C56.708 59.0962 56.4395 58.9834 56.0742 58.9834C55.5872 58.9834 55.2292 59.1427 55 59.4614C54.7744 59.7765 54.6616 60.3029 54.6616 61.0405V64H53.3994V58.0596H54.3877L54.5649 58.8384H54.6294C54.7941 58.5555 55.0322 58.3371 55.3438 58.1831C55.6589 58.0291 56.0044 57.9521 56.3804 57.9521C57.2935 57.9521 57.8986 58.2637 58.1958 58.8867H58.2817C58.4572 58.5931 58.7043 58.3639 59.0229 58.1992C59.3416 58.0345 59.7069 57.9521 60.1187 57.9521C60.8276 57.9521 61.3433 58.1312 61.6655 58.4893C61.9914 58.8473 62.1543 59.3934 62.1543 60.1274V64H60.8921V60.3369C60.8921 59.8822 60.8044 59.5438 60.6289 59.3218C60.457 59.0962 60.1885 58.9834 59.8232 58.9834C59.3327 58.9834 58.9728 59.1374 58.7437 59.4453C58.5181 59.7497 58.4053 60.2188 58.4053 60.8525V64ZM12.2139 77L11.4297 74.8193H8.42725L7.65918 77H6.30566L9.24365 69.1152H10.6401L13.5781 77H12.2139ZM11.0913 73.7129L10.3555 71.5752C10.3018 71.432 10.2266 71.2064 10.1299 70.8984C10.0368 70.5905 9.97233 70.3649 9.93652 70.2217C9.83984 70.6621 9.6984 71.1437 9.51221 71.6665L8.80322 73.7129H11.0913ZM17.4937 77.1074C16.7417 77.1074 16.158 76.8371 15.7427 76.2964H15.6675C15.7176 76.7977 15.7427 77.1021 15.7427 77.2095V79.6426H14.4805V71.0596H15.501C15.5296 71.1706 15.5887 71.4355 15.6782 71.8545H15.7427C16.1366 71.2529 16.7274 70.9521 17.5151 70.9521C18.2563 70.9521 18.8328 71.2207 19.2446 71.7578C19.66 72.2949 19.8677 73.0487 19.8677 74.019C19.8677 74.9894 19.6564 75.7467 19.2339 76.291C18.8149 76.8353 18.2349 77.1074 17.4937 77.1074ZM17.1875 71.9834C16.6862 71.9834 16.3192 72.1302 16.0864 72.4238C15.8573 72.7174 15.7427 73.1865 15.7427 73.8311V74.019C15.7427 74.7424 15.8573 75.2669 16.0864 75.5928C16.3156 75.915 16.6898 76.0762 17.209 76.0762C17.6458 76.0762 17.9824 75.8971 18.2188 75.5391C18.4551 75.181 18.5732 74.6707 18.5732 74.0083C18.5732 73.3423 18.4551 72.8392 18.2188 72.499C17.986 72.1553 17.6423 71.9834 17.1875 71.9834ZM24.3472 77.1074C23.5952 77.1074 23.0116 76.8371 22.5962 76.2964H22.521C22.5711 76.7977 22.5962 77.1021 22.5962 77.2095V79.6426H21.334V71.0596H22.3545C22.3831 71.1706 22.4422 71.4355 22.5317 71.8545H22.5962C22.9901 71.2529 23.5809 70.9521 24.3687 70.9521C25.1099 70.9521 25.6864 71.2207 26.0981 71.7578C26.5135 72.2949 26.7212 73.0487 26.7212 74.019C26.7212 74.9894 26.5099 75.7467 26.0874 76.291C25.6685 76.8353 25.0884 77.1074 24.3472 77.1074ZM24.041 71.9834C23.5397 71.9834 23.1727 72.1302 22.9399 72.4238C22.7108 72.7174 22.5962 73.1865 22.5962 73.8311V74.019C22.5962 74.7424 22.7108 75.2669 22.9399 75.5928C23.1691 75.915 23.5433 76.0762 24.0625 76.0762C24.4993 76.0762 24.8359 75.8971 25.0723 75.5391C25.3086 75.181 25.4268 74.6707 25.4268 74.0083C25.4268 73.3423 25.3086 72.8392 25.0723 72.499C24.8395 72.1553 24.4958 71.9834 24.041 71.9834ZM32.1782 75.3081C32.1782 75.8882 31.967 76.334 31.5444 76.6455C31.1219 76.9535 30.5168 77.1074 29.729 77.1074C28.9377 77.1074 28.3021 76.9875 27.8223 76.7476V75.6572C28.5205 75.9795 29.1704 76.1406 29.772 76.1406C30.549 76.1406 30.9375 75.9061 30.9375 75.437C30.9375 75.2866 30.8945 75.1613 30.8086 75.061C30.7227 74.9608 30.5812 74.8569 30.3843 74.7495C30.1873 74.6421 29.9134 74.5203 29.5625 74.3843C28.8786 74.1193 28.4149 73.8543 28.1714 73.5894C27.9315 73.3244 27.8115 72.9806 27.8115 72.5581C27.8115 72.0496 28.0156 71.6558 28.4238 71.3765C28.8356 71.0936 29.3942 70.9521 30.0996 70.9521C30.7979 70.9521 31.4585 71.0936 32.0815 71.3765L31.6733 72.3271C31.0324 72.0622 30.4935 71.9297 30.0566 71.9297C29.3906 71.9297 29.0576 72.1195 29.0576 72.499C29.0576 72.6852 29.1436 72.8428 29.3154 72.9717C29.4909 73.1006 29.8704 73.2778 30.4541 73.5034C30.9447 73.6932 31.3009 73.8669 31.5229 74.0244C31.745 74.182 31.9097 74.3646 32.0171 74.5723C32.1245 74.7764 32.1782 75.0216 32.1782 75.3081ZM37.9253 70.8394C37.9253 71.0649 37.9844 71.278 38.1025 71.4785C38.2243 71.679 38.3926 71.8921 38.6074 72.1177C39.012 71.8885 39.2949 71.6755 39.4561 71.4785C39.6208 71.278 39.7031 71.0542 39.7031 70.8071C39.7031 70.5744 39.6243 70.3882 39.4668 70.2485C39.3128 70.1089 39.1069 70.0391 38.8491 70.0391C38.5662 70.0391 38.3407 70.1125 38.1724 70.2593C38.0076 70.4025 37.9253 70.5959 37.9253 70.8394ZM38.7256 76.0225C39.3809 76.0225 39.9412 75.8309 40.4067 75.4478L38.3496 73.4229C37.9701 73.6663 37.7087 73.8955 37.5654 74.1104C37.4222 74.3216 37.3506 74.5633 37.3506 74.8354C37.3506 75.1864 37.4741 75.4728 37.7212 75.6948C37.9718 75.9132 38.3066 76.0225 38.7256 76.0225ZM36.0186 74.9214C36.0186 74.4523 36.1331 74.0441 36.3623 73.6968C36.5915 73.3459 37.005 72.9985 37.603 72.6548C37.2629 72.2573 37.0301 71.9225 36.9048 71.6504C36.783 71.3747 36.7222 71.09 36.7222 70.7964C36.7222 70.2521 36.9155 69.8224 37.3022 69.5073C37.6925 69.1922 38.2153 69.0347 38.8706 69.0347C39.5044 69.0347 40.0021 69.1886 40.3638 69.4966C40.7254 69.8009 40.9062 70.2127 40.9062 70.7319C40.9062 71.1401 40.7845 71.5107 40.541 71.8438C40.3011 72.1768 39.8983 72.5098 39.3325 72.8428L41.1909 74.6367C41.481 74.2536 41.7227 73.6914 41.916 72.9502H43.2158C42.9652 73.9671 42.5641 74.7961 42.0127 75.437L43.6294 77H42.002L41.2017 76.2212C40.8364 76.5148 40.4461 76.7368 40.0308 76.8872C39.619 77.034 39.1624 77.1074 38.6611 77.1074C37.8376 77.1074 37.1912 76.9123 36.7222 76.522C36.2531 76.1317 36.0186 75.5981 36.0186 74.9214ZM52.0137 69.1475H53.3457L50.5957 77H49.2422L46.5029 69.1475H47.8242L49.4624 74.0298C49.5483 74.2625 49.6396 74.5633 49.7363 74.9321C49.833 75.2974 49.8957 75.5695 49.9243 75.7485C49.9709 75.4764 50.0425 75.1613 50.1392 74.8032C50.2358 74.4451 50.3146 74.1802 50.3755 74.0083L52.0137 69.1475ZM55.5103 77H54.248V71.0596H55.5103V77ZM54.1729 69.4858C54.1729 69.2603 54.2337 69.0866 54.3555 68.9648C54.4808 68.8431 54.658 68.7822 54.8872 68.7822C55.1092 68.7822 55.2811 68.8431 55.4028 68.9648C55.5282 69.0866 55.5908 69.2603 55.5908 69.4858C55.5908 69.7007 55.5282 69.8708 55.4028 69.9961C55.2811 70.1178 55.1092 70.1787 54.8872 70.1787C54.658 70.1787 54.4808 70.1178 54.3555 69.9961C54.2337 69.8708 54.1729 69.7007 54.1729 69.4858ZM59.3237 77.1074C58.5825 77.1074 58.0042 76.8389 57.5889 76.3018C57.1735 75.7646 56.9658 75.0109 56.9658 74.0405C56.9658 73.0666 57.1753 72.3092 57.5942 71.7686C58.0168 71.2243 58.6004 70.9521 59.3452 70.9521C60.1258 70.9521 60.7202 71.2404 61.1284 71.8169H61.1929C61.132 71.3908 61.1016 71.0542 61.1016 70.8071V68.6426H62.3691V77H61.3809L61.1606 76.2212H61.1016C60.6969 76.812 60.1043 77.1074 59.3237 77.1074ZM59.6621 76.0869C60.1813 76.0869 60.5591 75.9419 60.7954 75.6519C61.0317 75.3582 61.1535 74.8838 61.1606 74.2285V74.0513C61.1606 73.3029 61.0389 72.7712 60.7954 72.4561C60.5519 72.141 60.1706 71.9834 59.6514 71.9834C59.2074 71.9834 58.8654 72.1642 58.6255 72.5259C58.3856 72.884 58.2656 73.396 58.2656 74.062C58.2656 74.7209 58.382 75.224 58.6147 75.5713C58.8475 75.915 59.1966 76.0869 59.6621 76.0869ZM66.7681 77.1074C65.8442 77.1074 65.1209 76.8389 64.5981 76.3018C64.0789 75.7611 63.8193 75.0181 63.8193 74.0728C63.8193 73.1024 64.061 72.3397 64.5444 71.7847C65.0278 71.2297 65.6921 70.9521 66.5371 70.9521C67.3213 70.9521 67.9408 71.1903 68.3955 71.6665C68.8503 72.1427 69.0776 72.798 69.0776 73.6323V74.3145H65.1191C65.137 74.891 65.2928 75.335 65.5864 75.6465C65.88 75.9544 66.2936 76.1084 66.8271 76.1084C67.1781 76.1084 67.5039 76.0762 67.8047 76.0117C68.109 75.9437 68.4349 75.8327 68.7822 75.6787V76.7046C68.4743 76.8514 68.1628 76.9552 67.8477 77.0161C67.5326 77.077 67.1727 77.1074 66.7681 77.1074ZM66.5371 71.9082C66.1361 71.9082 65.8138 72.0353 65.5703 72.2896C65.3304 72.5438 65.1872 72.9144 65.1406 73.4014H67.8369C67.8298 72.9108 67.7116 72.5402 67.4824 72.2896C67.2533 72.0353 66.9382 71.9082 66.5371 71.9082ZM75.7808 74.019C75.7808 74.9894 75.5319 75.7467 75.0342 76.291C74.5365 76.8353 73.8436 77.1074 72.9556 77.1074C72.4006 77.1074 71.91 76.9821 71.4839 76.7314C71.0578 76.4808 70.7301 76.1209 70.501 75.6519C70.2718 75.1828 70.1572 74.6385 70.1572 74.019C70.1572 73.0558 70.4043 72.3039 70.8984 71.7632C71.3926 71.2225 72.089 70.9521 72.9878 70.9521C73.8472 70.9521 74.5275 71.2297 75.0288 71.7847C75.5301 72.3361 75.7808 73.0809 75.7808 74.019ZM71.457 74.019C71.457 75.3905 71.9637 76.0762 72.9771 76.0762C73.9797 76.0762 74.481 75.3905 74.481 74.019C74.481 72.6619 73.9761 71.9834 72.9663 71.9834C72.4364 71.9834 72.0514 72.1589 71.8115 72.5098C71.5752 72.8607 71.457 73.3638 71.457 74.019ZM81.2271 75.3081C81.2271 75.8882 81.0158 76.334 80.5933 76.6455C80.1707 76.9535 79.5656 77.1074 78.7778 77.1074C77.9865 77.1074 77.3509 76.9875 76.8711 76.7476V75.6572C77.5693 75.9795 78.2192 76.1406 78.8208 76.1406C79.5978 76.1406 79.9863 75.9061 79.9863 75.437C79.9863 75.2866 79.9434 75.1613 79.8574 75.061C79.7715 74.9608 79.63 74.8569 79.4331 74.7495C79.2362 74.6421 78.9622 74.5203 78.6113 74.3843C77.9274 74.1193 77.4637 73.8543 77.2202 73.5894C76.9803 73.3244 76.8604 72.9806 76.8604 72.5581C76.8604 72.0496 77.0645 71.6558 77.4727 71.3765C77.8844 71.0936 78.443 70.9521 79.1484 70.9521C79.8467 70.9521 80.5073 71.0936 81.1304 71.3765L80.7222 72.3271C80.0812 72.0622 79.5423 71.9297 79.1055 71.9297C78.4395 71.9297 78.1064 72.1195 78.1064 72.499C78.1064 72.6852 78.1924 72.8428 78.3643 72.9717C78.5397 73.1006 78.9193 73.2778 79.5029 73.5034C79.9935 73.6932 80.3498 73.8669 80.5718 74.0244C80.7938 74.182 80.9585 74.3646 81.0659 74.5723C81.1733 74.7764 81.2271 75.0216 81.2271 75.3081Z" fill="#A650FF"/>
<path d="M166.127 13.6824H179.7C180.018 15.2368 180.901 16.6181 182.179 17.5584C183.457 18.4987 185.038 18.931 186.617 18.7715C188.196 18.6121 189.659 17.8722 190.723 16.6953C191.787 15.5185 192.376 13.9885 192.376 12.402C192.376 10.8155 191.787 9.28548 190.723 8.10863C189.659 6.93177 188.196 6.19189 186.617 6.03243C185.038 5.87297 183.457 6.3053 182.179 7.24559C180.901 8.18587 180.018 9.56714 179.7 11.1216H166.127C164.259 11.1216 162.468 11.8635 161.147 13.1842C159.827 14.5049 159.085 16.2961 159.085 18.1638C159.085 20.0315 159.827 21.8227 161.147 23.1433C162.468 24.464 164.259 25.2059 166.127 25.2059H180.213C181.401 25.2059 182.541 25.6781 183.382 26.5185C184.222 27.3589 184.694 28.4988 184.694 29.6873C184.694 30.8758 184.222 32.0157 183.382 32.8561C182.541 33.6965 181.401 34.1687 180.213 34.1687H169.2C168.883 32.6142 168 31.233 166.722 30.2927C165.444 29.3524 163.862 28.9201 162.284 29.0795C160.705 29.239 159.242 29.9789 158.178 31.1557C157.114 32.3326 156.525 33.8626 156.525 35.4491C156.525 37.0356 157.114 38.5656 158.178 39.7424C159.242 40.9193 160.705 41.6592 162.284 41.8186C163.862 41.9781 165.444 41.5458 166.722 40.6055C168 39.6652 168.883 38.2839 169.2 36.7295H180.213C182.08 36.7295 183.872 35.9875 185.193 34.6669C186.513 33.3462 187.255 31.555 187.255 29.6873C187.255 27.8196 186.513 26.0284 185.193 24.7077C183.872 23.3871 182.08 22.6451 180.213 22.6451H166.127C164.939 22.6451 163.799 22.173 162.958 21.3326C162.118 20.4922 161.646 19.3523 161.646 18.1638C161.646 16.9752 162.118 15.8354 162.958 14.9949C163.799 14.1545 164.939 13.6824 166.127 13.6824ZM185.975 8.5608C186.735 8.5608 187.477 8.78608 188.109 9.20816C188.741 9.63023 189.233 10.2301 189.524 10.932C189.815 11.6339 189.891 12.4062 189.742 13.1514C189.594 13.8965 189.228 14.5809 188.691 15.1181C188.154 15.6553 187.469 16.0211 186.724 16.1694C185.979 16.3176 185.207 16.2415 184.505 15.9508C183.803 15.66 183.203 15.1677 182.781 14.536C182.359 13.9044 182.133 13.1617 182.133 12.402C182.133 11.3832 182.538 10.4062 183.259 9.68586C183.979 8.9655 184.956 8.5608 185.975 8.5608ZM162.926 39.2903C162.166 39.2903 161.424 39.065 160.792 38.6429C160.16 38.2208 159.668 37.6209 159.377 36.919C159.086 36.2172 159.01 35.4448 159.158 34.6997C159.307 33.9546 159.672 33.2702 160.21 32.733C160.747 32.1958 161.431 31.8299 162.177 31.6817C162.922 31.5335 163.694 31.6096 164.396 31.9003C165.098 32.191 165.698 32.6834 166.12 33.315C166.542 33.9467 166.768 34.6894 166.768 35.4491C166.768 36.4678 166.363 37.4448 165.642 38.1652C164.922 38.8856 163.945 39.2903 162.926 39.2903Z" fill="#A650FF"/>
<path d="M130.806 64V56.1475H132.089V64H130.806ZM139.26 64H137.992V60.3477C137.992 59.8893 137.899 59.5474 137.713 59.3218C137.53 59.0962 137.238 58.9834 136.837 58.9834C136.304 58.9834 135.914 59.141 135.667 59.4561C135.419 59.7712 135.296 60.2993 135.296 61.0405V64H134.034V58.0596H135.022L135.199 58.8384H135.264C135.443 58.5555 135.697 58.3371 136.026 58.1831C136.356 58.0291 136.721 57.9521 137.122 57.9521C138.547 57.9521 139.26 58.6772 139.26 60.1274V64ZM143.229 63.0869C143.537 63.0869 143.845 63.0386 144.153 62.9419V63.8926C144.013 63.9535 143.832 64.0036 143.61 64.043C143.392 64.0859 143.165 64.1074 142.928 64.1074C141.732 64.1074 141.134 63.4772 141.134 62.2168V59.0156H140.323V58.457L141.193 57.9951L141.623 56.7383H142.402V58.0596H144.094V59.0156H142.402V62.1953C142.402 62.4997 142.477 62.7253 142.627 62.8721C142.781 63.0153 142.982 63.0869 143.229 63.0869ZM147.939 64.1074C147.016 64.1074 146.292 63.8389 145.77 63.3018C145.25 62.7611 144.991 62.0181 144.991 61.0728C144.991 60.1024 145.232 59.3397 145.716 58.7847C146.199 58.2297 146.863 57.9521 147.708 57.9521C148.493 57.9521 149.112 58.1903 149.567 58.6665C150.022 59.1427 150.249 59.798 150.249 60.6323V61.3145H146.291C146.308 61.891 146.464 62.335 146.758 62.6465C147.051 62.9544 147.465 63.1084 147.999 63.1084C148.349 63.1084 148.675 63.0762 148.976 63.0117C149.28 62.9437 149.606 62.8327 149.954 62.6787V63.7046C149.646 63.8514 149.334 63.9552 149.019 64.0161C148.704 64.077 148.344 64.1074 147.939 64.1074ZM147.708 58.9082C147.307 58.9082 146.985 59.0353 146.742 59.2896C146.502 59.5438 146.359 59.9144 146.312 60.4014H149.008C149.001 59.9108 148.883 59.5402 148.654 59.2896C148.425 59.0353 148.11 58.9082 147.708 58.9082ZM156.7 58.0596V58.7524L155.685 58.9404C155.778 59.0658 155.855 59.2197 155.916 59.4023C155.976 59.585 156.007 59.7783 156.007 59.9824C156.007 60.5947 155.796 61.0763 155.373 61.4272C154.951 61.7782 154.369 61.9536 153.627 61.9536C153.438 61.9536 153.266 61.9393 153.112 61.9106C152.84 62.0789 152.704 62.2759 152.704 62.5015C152.704 62.6375 152.766 62.7396 152.892 62.8076C153.021 62.8757 153.255 62.9097 153.595 62.9097H154.632C155.287 62.9097 155.785 63.0493 156.125 63.3286C156.465 63.6079 156.635 64.0107 156.635 64.5371C156.635 65.2103 156.358 65.7295 155.803 66.0947C155.248 66.46 154.446 66.6426 153.396 66.6426C152.587 66.6426 151.97 66.4993 151.543 66.2129C151.117 65.9264 150.904 65.5182 150.904 64.9883C150.904 64.623 151.019 64.3151 151.248 64.0645C151.481 63.8174 151.805 63.6455 152.22 63.5488C152.052 63.4772 151.912 63.3626 151.801 63.2051C151.694 63.0439 151.64 62.8757 151.64 62.7002C151.64 62.4782 151.703 62.2902 151.828 62.1362C151.953 61.9823 152.14 61.8301 152.387 61.6797C152.079 61.5472 151.828 61.3324 151.635 61.0352C151.445 60.7344 151.35 60.3835 151.35 59.9824C151.35 59.3379 151.552 58.8384 151.957 58.4839C152.365 58.1294 152.945 57.9521 153.697 57.9521C153.866 57.9521 154.041 57.9647 154.224 57.9897C154.41 58.0112 154.549 58.0345 154.643 58.0596H156.7ZM152.032 64.9238C152.032 65.196 152.154 65.4054 152.397 65.5522C152.645 65.6991 152.99 65.7725 153.434 65.7725C154.122 65.7725 154.634 65.674 154.97 65.4771C155.307 65.2801 155.475 65.0187 155.475 64.6929C155.475 64.4351 155.382 64.2507 155.196 64.1396C155.013 64.0322 154.671 63.9785 154.17 63.9785H153.214C152.852 63.9785 152.564 64.0627 152.349 64.231C152.138 64.4028 152.032 64.6338 152.032 64.9238ZM152.575 59.9824C152.575 60.3548 152.67 60.6413 152.859 60.8418C153.053 61.0423 153.328 61.1426 153.687 61.1426C154.417 61.1426 154.782 60.7523 154.782 59.9717C154.782 59.585 154.691 59.2878 154.508 59.0801C154.329 58.8688 154.055 58.7632 153.687 58.7632C153.321 58.7632 153.044 58.867 152.854 59.0747C152.668 59.2824 152.575 59.585 152.575 59.9824ZM160.819 57.9521C161.074 57.9521 161.283 57.9701 161.448 58.0059L161.324 59.1821C161.145 59.1392 160.959 59.1177 160.766 59.1177C160.261 59.1177 159.851 59.2824 159.536 59.6118C159.224 59.9412 159.068 60.3691 159.068 60.8955V64H157.806V58.0596H158.794L158.961 59.1069H159.025C159.222 58.7524 159.478 58.4714 159.793 58.2637C160.112 58.056 160.454 57.9521 160.819 57.9521ZM166.271 64L166.019 63.1729H165.976C165.689 63.5345 165.401 63.7816 165.111 63.9141C164.821 64.043 164.448 64.1074 163.994 64.1074C163.41 64.1074 162.953 63.9499 162.624 63.6348C162.298 63.3197 162.135 62.8739 162.135 62.2974C162.135 61.6851 162.363 61.2231 162.817 60.9116C163.272 60.6001 163.965 60.43 164.896 60.4014L165.922 60.3691V60.0522C165.922 59.6727 165.832 59.3898 165.653 59.2036C165.478 59.0138 165.204 58.9189 164.832 58.9189C164.527 58.9189 164.235 58.9637 163.956 59.0532C163.677 59.1427 163.408 59.2484 163.15 59.3701L162.742 58.4678C163.064 58.2995 163.417 58.1724 163.8 58.0864C164.183 57.9969 164.545 57.9521 164.885 57.9521C165.641 57.9521 166.21 58.1169 166.593 58.4463C166.98 58.7757 167.173 59.2931 167.173 59.9985V64H166.271ZM164.391 63.1406C164.849 63.1406 165.216 63.0135 165.492 62.7593C165.771 62.5015 165.911 62.1416 165.911 61.6797V61.1641L165.148 61.1963C164.554 61.2178 164.121 61.318 163.849 61.4971C163.58 61.6725 163.446 61.9429 163.446 62.3081C163.446 62.5731 163.525 62.779 163.682 62.9258C163.84 63.069 164.076 63.1406 164.391 63.1406ZM171.148 63.0869C171.456 63.0869 171.764 63.0386 172.072 62.9419V63.8926C171.932 63.9535 171.751 64.0036 171.529 64.043C171.311 64.0859 171.083 64.1074 170.847 64.1074C169.651 64.1074 169.053 63.4772 169.053 62.2168V59.0156H168.242V58.457L169.112 57.9951L169.542 56.7383H170.321V58.0596H172.013V59.0156H170.321V62.1953C170.321 62.4997 170.396 62.7253 170.546 62.8721C170.7 63.0153 170.901 63.0869 171.148 63.0869ZM174.526 64H173.264V58.0596H174.526V64ZM173.189 56.4858C173.189 56.2603 173.25 56.0866 173.372 55.9648C173.497 55.8431 173.674 55.7822 173.903 55.7822C174.125 55.7822 174.297 55.8431 174.419 55.9648C174.544 56.0866 174.607 56.2603 174.607 56.4858C174.607 56.7007 174.544 56.8708 174.419 56.9961C174.297 57.1178 174.125 57.1787 173.903 57.1787C173.674 57.1787 173.497 57.1178 173.372 56.9961C173.25 56.8708 173.189 56.7007 173.189 56.4858ZM181.605 61.019C181.605 61.9894 181.357 62.7467 180.859 63.291C180.361 63.8353 179.668 64.1074 178.78 64.1074C178.225 64.1074 177.735 63.9821 177.309 63.7314C176.882 63.4808 176.555 63.1209 176.326 62.6519C176.097 62.1828 175.982 61.6385 175.982 61.019C175.982 60.0558 176.229 59.3039 176.723 58.7632C177.217 58.2225 177.914 57.9521 178.812 57.9521C179.672 57.9521 180.352 58.2297 180.854 58.7847C181.355 59.3361 181.605 60.0809 181.605 61.019ZM177.282 61.019C177.282 62.3905 177.788 63.0762 178.802 63.0762C179.804 63.0762 180.306 62.3905 180.306 61.019C180.306 59.6619 179.801 58.9834 178.791 58.9834C178.261 58.9834 177.876 59.1589 177.636 59.5098C177.4 59.8607 177.282 60.3638 177.282 61.019ZM188.287 64H187.02V60.3477C187.02 59.8893 186.926 59.5474 186.74 59.3218C186.558 59.0962 186.266 58.9834 185.865 58.9834C185.331 58.9834 184.941 59.141 184.694 59.4561C184.447 59.7712 184.323 60.2993 184.323 61.0405V64H183.061V58.0596H184.049L184.227 58.8384H184.291C184.47 58.5555 184.724 58.3371 185.054 58.1831C185.383 58.0291 185.748 57.9521 186.149 57.9521C187.575 57.9521 188.287 58.6772 188.287 60.1274V64ZM197.772 64L197.004 61.2285C196.911 60.9349 196.743 60.2528 196.5 59.1821H196.451C196.243 60.1489 196.079 60.8346 195.957 61.2393L195.167 64H193.771L192.106 58.0596H193.395L194.152 60.9868C194.324 61.7101 194.446 62.3296 194.518 62.8452H194.55C194.586 62.5838 194.639 62.2848 194.711 61.9482C194.786 61.6081 194.851 61.3538 194.904 61.1855L195.807 58.0596H197.192L198.068 61.1855C198.122 61.361 198.188 61.6296 198.267 61.9912C198.349 62.3529 198.397 62.634 198.412 62.8345H198.455C198.508 62.394 198.634 61.7782 198.831 60.9868L199.599 58.0596H200.866L199.19 64H197.772ZM203.154 64H201.892V58.0596H203.154V64ZM201.817 56.4858C201.817 56.2603 201.878 56.0866 202 55.9648C202.125 55.8431 202.302 55.7822 202.531 55.7822C202.753 55.7822 202.925 55.8431 203.047 55.9648C203.172 56.0866 203.235 56.2603 203.235 56.4858C203.235 56.7007 203.172 56.8708 203.047 56.9961C202.925 57.1178 202.753 57.1787 202.531 57.1787C202.302 57.1787 202.125 57.1178 202 56.9961C201.878 56.8708 201.817 56.7007 201.817 56.4858ZM207.177 63.0869C207.485 63.0869 207.793 63.0386 208.101 62.9419V63.8926C207.961 63.9535 207.781 64.0036 207.559 64.043C207.34 64.0859 207.113 64.1074 206.876 64.1074C205.681 64.1074 205.083 63.4772 205.083 62.2168V59.0156H204.271V58.457L205.142 57.9951L205.571 56.7383H206.35V58.0596H208.042V59.0156H206.35V62.1953C206.35 62.4997 206.425 62.7253 206.576 62.8721C206.73 63.0153 206.93 63.0869 207.177 63.0869ZM214.52 64H213.252V60.3477C213.252 59.8893 213.159 59.5474 212.973 59.3218C212.79 59.0962 212.498 58.9834 212.097 58.9834C211.567 58.9834 211.177 59.1427 210.926 59.4614C210.679 59.7765 210.556 60.3065 210.556 61.0513V64H209.293V55.6426H210.556V57.7642C210.556 58.1043 210.534 58.4678 210.491 58.8545H210.572C210.744 58.568 210.982 58.346 211.286 58.1885C211.594 58.0309 211.952 57.9521 212.36 57.9521C213.8 57.9521 214.52 58.6772 214.52 60.1274V64ZM121.369 72.7998H122.26C122.858 72.7998 123.292 72.6888 123.56 72.4668C123.829 72.2448 123.963 71.9154 123.963 71.4785C123.963 71.0345 123.818 70.7158 123.528 70.5225C123.238 70.3291 122.801 70.2324 122.217 70.2324H121.369V72.7998ZM121.369 73.8633V77H120.085V69.1475H122.303C123.317 69.1475 124.067 69.3372 124.554 69.7168C125.041 70.0964 125.284 70.6693 125.284 71.4355C125.284 72.4131 124.776 73.1095 123.759 73.5249L125.977 77H124.516L122.636 73.8633H121.369ZM129.581 77.1074C128.657 77.1074 127.934 76.8389 127.411 76.3018C126.892 75.7611 126.632 75.0181 126.632 74.0728C126.632 73.1024 126.874 72.3397 127.357 71.7847C127.841 71.2297 128.505 70.9521 129.35 70.9521C130.134 70.9521 130.754 71.1903 131.208 71.6665C131.663 72.1427 131.891 72.798 131.891 73.6323V74.3145H127.932C127.95 74.891 128.106 75.335 128.399 75.6465C128.693 75.9544 129.107 76.1084 129.64 76.1084C129.991 76.1084 130.317 76.0762 130.618 76.0117C130.922 75.9437 131.248 75.8327 131.595 75.6787V76.7046C131.287 76.8514 130.976 76.9552 130.661 77.0161C130.346 77.077 129.986 77.1074 129.581 77.1074ZM129.35 71.9082C128.949 71.9082 128.627 72.0353 128.383 72.2896C128.143 72.5438 128 72.9144 127.954 73.4014H130.65C130.643 72.9108 130.525 72.5402 130.295 72.2896C130.066 72.0353 129.751 71.9082 129.35 71.9082ZM137.315 75.3081C137.315 75.8882 137.104 76.334 136.682 76.6455C136.259 76.9535 135.654 77.1074 134.866 77.1074C134.075 77.1074 133.439 76.9875 132.959 76.7476V75.6572C133.658 75.9795 134.308 76.1406 134.909 76.1406C135.686 76.1406 136.075 75.9061 136.075 75.437C136.075 75.2866 136.032 75.1613 135.946 75.061C135.86 74.9608 135.718 74.8569 135.521 74.7495C135.325 74.6421 135.051 74.5203 134.7 74.3843C134.016 74.1193 133.552 73.8543 133.309 73.5894C133.069 73.3244 132.949 72.9806 132.949 72.5581C132.949 72.0496 133.153 71.6558 133.561 71.3765C133.973 71.0936 134.531 70.9521 135.237 70.9521C135.935 70.9521 136.596 71.0936 137.219 71.3765L136.811 72.3271C136.17 72.0622 135.631 71.9297 135.194 71.9297C134.528 71.9297 134.195 72.1195 134.195 72.499C134.195 72.6852 134.281 72.8428 134.453 72.9717C134.628 73.1006 135.008 73.2778 135.591 73.5034C136.082 73.6932 136.438 73.8669 136.66 74.0244C136.882 74.182 137.047 74.3646 137.154 74.5723C137.262 74.7764 137.315 75.0216 137.315 75.3081ZM141.279 77.1074C140.355 77.1074 139.632 76.8389 139.109 76.3018C138.59 75.7611 138.331 75.0181 138.331 74.0728C138.331 73.1024 138.572 72.3397 139.056 71.7847C139.539 71.2297 140.203 70.9521 141.048 70.9521C141.833 70.9521 142.452 71.1903 142.907 71.6665C143.361 72.1427 143.589 72.798 143.589 73.6323V74.3145H139.63C139.648 74.891 139.804 75.335 140.098 75.6465C140.391 75.9544 140.805 76.1084 141.338 76.1084C141.689 76.1084 142.015 76.0762 142.316 76.0117C142.62 75.9437 142.946 75.8327 143.293 75.6787V76.7046C142.986 76.8514 142.674 76.9552 142.359 77.0161C142.044 77.077 141.684 77.1074 141.279 77.1074ZM141.048 71.9082C140.647 71.9082 140.325 72.0353 140.082 72.2896C139.842 72.5438 139.698 72.9144 139.652 73.4014H142.348C142.341 72.9108 142.223 72.5402 141.994 72.2896C141.764 72.0353 141.449 71.9082 141.048 71.9082ZM148.036 70.9521C148.29 70.9521 148.5 70.9701 148.665 71.0059L148.541 72.1821C148.362 72.1392 148.176 72.1177 147.982 72.1177C147.478 72.1177 147.068 72.2824 146.752 72.6118C146.441 72.9412 146.285 73.3691 146.285 73.8955V77H145.023V71.0596H146.011L146.178 72.1069H146.242C146.439 71.7524 146.695 71.4714 147.01 71.2637C147.329 71.056 147.671 70.9521 148.036 70.9521ZM151.125 77L148.869 71.0596H150.201L151.409 74.5132C151.617 75.0933 151.742 75.5623 151.785 75.9204H151.828C151.86 75.6626 151.986 75.1935 152.204 74.5132L153.413 71.0596H154.755L152.489 77H151.125ZM159.375 77L159.122 76.1729H159.079C158.793 76.5345 158.504 76.7816 158.214 76.9141C157.924 77.043 157.552 77.1074 157.097 77.1074C156.514 77.1074 156.057 76.9499 155.728 76.6348C155.402 76.3197 155.239 75.8739 155.239 75.2974C155.239 74.6851 155.466 74.2231 155.921 73.9116C156.376 73.6001 157.069 73.43 158 73.4014L159.025 73.3691V73.0522C159.025 72.6727 158.936 72.3898 158.757 72.2036C158.581 72.0138 158.307 71.9189 157.935 71.9189C157.631 71.9189 157.339 71.9637 157.06 72.0532C156.78 72.1427 156.512 72.2484 156.254 72.3701L155.846 71.4678C156.168 71.2995 156.521 71.1724 156.904 71.0864C157.287 70.9969 157.649 70.9521 157.989 70.9521C158.744 70.9521 159.314 71.1169 159.697 71.4463C160.083 71.7757 160.277 72.2931 160.277 72.9985V77H159.375ZM157.495 76.1406C157.953 76.1406 158.32 76.0135 158.596 75.7593C158.875 75.5015 159.015 75.1416 159.015 74.6797V74.1641L158.252 74.1963C157.658 74.2178 157.224 74.318 156.952 74.4971C156.684 74.6725 156.549 74.9429 156.549 75.3081C156.549 75.5731 156.628 75.779 156.786 75.9258C156.943 76.069 157.18 76.1406 157.495 76.1406ZM164.251 76.0869C164.559 76.0869 164.867 76.0386 165.175 75.9419V76.8926C165.036 76.9535 164.855 77.0036 164.633 77.043C164.414 77.0859 164.187 77.1074 163.951 77.1074C162.755 77.1074 162.157 76.4772 162.157 75.2168V72.0156H161.346V71.457L162.216 70.9951L162.646 69.7383H163.424V71.0596H165.116V72.0156H163.424V75.1953C163.424 75.4997 163.5 75.7253 163.65 75.8721C163.804 76.0153 164.004 76.0869 164.251 76.0869ZM167.63 77H166.368V71.0596H167.63V77ZM166.292 69.4858C166.292 69.2603 166.353 69.0866 166.475 68.9648C166.6 68.8431 166.778 68.7822 167.007 68.7822C167.229 68.7822 167.401 68.8431 167.522 68.9648C167.648 69.0866 167.71 69.2603 167.71 69.4858C167.71 69.7007 167.648 69.8708 167.522 69.9961C167.401 70.1178 167.229 70.1787 167.007 70.1787C166.778 70.1787 166.6 70.1178 166.475 69.9961C166.353 69.8708 166.292 69.7007 166.292 69.4858ZM174.709 74.019C174.709 74.9894 174.46 75.7467 173.962 76.291C173.465 76.8353 172.772 77.1074 171.884 77.1074C171.329 77.1074 170.838 76.9821 170.412 76.7314C169.986 76.4808 169.658 76.1209 169.429 75.6519C169.2 75.1828 169.085 74.6385 169.085 74.019C169.085 73.0558 169.333 72.3039 169.827 71.7632C170.321 71.2225 171.017 70.9521 171.916 70.9521C172.775 70.9521 173.456 71.2297 173.957 71.7847C174.458 72.3361 174.709 73.0809 174.709 74.019ZM170.385 74.019C170.385 75.3905 170.892 76.0762 171.905 76.0762C172.908 76.0762 173.409 75.3905 173.409 74.019C173.409 72.6619 172.904 71.9834 171.895 71.9834C171.365 71.9834 170.98 72.1589 170.74 72.5098C170.503 72.8607 170.385 73.3638 170.385 74.019ZM181.391 77H180.123V73.3477C180.123 72.8893 180.03 72.5474 179.844 72.3218C179.661 72.0962 179.369 71.9834 178.968 71.9834C178.435 71.9834 178.044 72.141 177.797 72.4561C177.55 72.7712 177.427 73.2993 177.427 74.0405V77H176.165V71.0596H177.153L177.33 71.8384H177.395C177.574 71.5555 177.828 71.3371 178.157 71.1831C178.487 71.0291 178.852 70.9521 179.253 70.9521C180.678 70.9521 181.391 71.6772 181.391 73.1274V77ZM190.667 74.8677C190.667 75.5659 190.414 76.1138 189.909 76.5112C189.404 76.9087 188.708 77.1074 187.82 77.1074C186.932 77.1074 186.205 76.9696 185.639 76.6938V75.48C185.997 75.6483 186.377 75.7808 186.778 75.8774C187.182 75.9741 187.558 76.0225 187.906 76.0225C188.414 76.0225 188.788 75.9258 189.028 75.7324C189.272 75.5391 189.394 75.2795 189.394 74.9536C189.394 74.66 189.283 74.4111 189.061 74.207C188.839 74.0029 188.38 73.7612 187.686 73.4819C186.969 73.1919 186.465 72.8607 186.171 72.4883C185.877 72.1159 185.73 71.6683 185.73 71.1455C185.73 70.4902 185.963 69.9746 186.429 69.5986C186.894 69.2227 187.519 69.0347 188.303 69.0347C189.055 69.0347 189.804 69.1994 190.548 69.5288L190.14 70.5762C189.442 70.2826 188.819 70.1357 188.271 70.1357C187.856 70.1357 187.541 70.2271 187.326 70.4097C187.111 70.5887 187.003 70.8268 187.003 71.124C187.003 71.3281 187.046 71.5036 187.132 71.6504C187.218 71.7936 187.36 71.9297 187.557 72.0586C187.754 72.1875 188.108 72.3576 188.62 72.5688C189.197 72.8088 189.619 73.0326 189.888 73.2402C190.156 73.4479 190.353 73.6825 190.479 73.9438C190.604 74.2052 190.667 74.5132 190.667 74.8677ZM191.15 71.0596H192.525L193.733 74.4272C193.916 74.9071 194.038 75.3582 194.099 75.7808H194.142C194.174 75.5838 194.233 75.3457 194.319 75.0664C194.405 74.7835 194.86 73.4479 195.683 71.0596H197.047L194.507 77.7896C194.045 79.0249 193.275 79.6426 192.197 79.6426C191.918 79.6426 191.646 79.6121 191.381 79.5513V78.5522C191.571 78.5952 191.787 78.6167 192.031 78.6167C192.639 78.6167 193.067 78.264 193.314 77.5586L193.535 77L191.15 71.0596ZM201.94 75.3081C201.94 75.8882 201.729 76.334 201.307 76.6455C200.884 76.9535 200.279 77.1074 199.491 77.1074C198.7 77.1074 198.064 76.9875 197.584 76.7476V75.6572C198.283 75.9795 198.933 76.1406 199.534 76.1406C200.311 76.1406 200.7 75.9061 200.7 75.437C200.7 75.2866 200.657 75.1613 200.571 75.061C200.485 74.9608 200.343 74.8569 200.146 74.7495C199.95 74.6421 199.676 74.5203 199.325 74.3843C198.641 74.1193 198.177 73.8543 197.934 73.5894C197.694 73.3244 197.574 72.9806 197.574 72.5581C197.574 72.0496 197.778 71.6558 198.186 71.3765C198.598 71.0936 199.156 70.9521 199.862 70.9521C200.56 70.9521 201.221 71.0936 201.844 71.3765L201.436 72.3271C200.795 72.0622 200.256 71.9297 199.819 71.9297C199.153 71.9297 198.82 72.1195 198.82 72.499C198.82 72.6852 198.906 72.8428 199.078 72.9717C199.253 73.1006 199.633 73.2778 200.216 73.5034C200.707 73.6932 201.063 73.8669 201.285 74.0244C201.507 74.182 201.672 74.3646 201.779 74.5723C201.887 74.7764 201.94 75.0216 201.94 75.3081ZM205.523 76.0869C205.831 76.0869 206.139 76.0386 206.447 75.9419V76.8926C206.307 76.9535 206.126 77.0036 205.904 77.043C205.686 77.0859 205.458 77.1074 205.222 77.1074C204.026 77.1074 203.428 76.4772 203.428 75.2168V72.0156H202.617V71.457L203.487 70.9951L203.917 69.7383H204.696V71.0596H206.388V72.0156H204.696V75.1953C204.696 75.4997 204.771 75.7253 204.921 75.8721C205.075 76.0153 205.276 76.0869 205.523 76.0869ZM210.233 77.1074C209.31 77.1074 208.586 76.8389 208.063 76.3018C207.544 75.7611 207.285 75.0181 207.285 74.0728C207.285 73.1024 207.526 72.3397 208.01 71.7847C208.493 71.2297 209.157 70.9521 210.002 70.9521C210.787 70.9521 211.406 71.1903 211.861 71.6665C212.316 72.1427 212.543 72.798 212.543 73.6323V74.3145H208.584C208.602 74.891 208.758 75.335 209.052 75.6465C209.345 75.9544 209.759 76.1084 210.292 76.1084C210.643 76.1084 210.969 76.0762 211.27 76.0117C211.574 75.9437 211.9 75.8327 212.248 75.6787V76.7046C211.94 76.8514 211.628 76.9552 211.313 77.0161C210.998 77.077 210.638 77.1074 210.233 77.1074ZM210.002 71.9082C209.601 71.9082 209.279 72.0353 209.036 72.2896C208.796 72.5438 208.653 72.9144 208.606 73.4014H211.302C211.295 72.9108 211.177 72.5402 210.948 72.2896C210.719 72.0353 210.403 71.9082 210.002 71.9082ZM218.983 77H217.715V73.3369C217.715 72.8822 217.629 72.5438 217.458 72.3218C217.286 72.0962 217.017 71.9834 216.652 71.9834C216.165 71.9834 215.807 72.1427 215.578 72.4614C215.352 72.7765 215.239 73.3029 215.239 74.0405V77H213.977V71.0596H214.965L215.143 71.8384H215.207C215.372 71.5555 215.61 71.3371 215.921 71.1831C216.236 71.0291 216.582 70.9521 216.958 70.9521C217.871 70.9521 218.476 71.2637 218.773 71.8867H218.859C219.035 71.5931 219.282 71.3639 219.601 71.1992C219.919 71.0345 220.285 70.9521 220.696 70.9521C221.405 70.9521 221.921 71.1312 222.243 71.4893C222.569 71.8473 222.732 72.3934 222.732 73.1274V77H221.47V73.3369C221.47 72.8822 221.382 72.5438 221.207 72.3218C221.035 72.0962 220.766 71.9834 220.401 71.9834C219.91 71.9834 219.55 72.1374 219.321 72.4453C219.096 72.7497 218.983 73.2188 218.983 73.8525V77ZM228.484 75.3081C228.484 75.8882 228.273 76.334 227.851 76.6455C227.428 76.9535 226.823 77.1074 226.035 77.1074C225.244 77.1074 224.608 76.9875 224.128 76.7476V75.6572C224.827 75.9795 225.477 76.1406 226.078 76.1406C226.855 76.1406 227.244 75.9061 227.244 75.437C227.244 75.2866 227.201 75.1613 227.115 75.061C227.029 74.9608 226.887 74.8569 226.69 74.7495C226.493 74.6421 226.22 74.5203 225.869 74.3843C225.185 74.1193 224.721 73.8543 224.478 73.5894C224.238 73.3244 224.118 72.9806 224.118 72.5581C224.118 72.0496 224.322 71.6558 224.73 71.3765C225.142 71.0936 225.7 70.9521 226.406 70.9521C227.104 70.9521 227.765 71.0936 228.388 71.3765L227.979 72.3271C227.339 72.0622 226.8 71.9297 226.363 71.9297C225.697 71.9297 225.364 72.1195 225.364 72.499C225.364 72.6852 225.45 72.8428 225.622 72.9717C225.797 73.1006 226.177 73.2778 226.76 73.5034C227.251 73.6932 227.607 73.8669 227.829 74.0244C228.051 74.182 228.216 74.3646 228.323 74.5723C228.431 74.7764 228.484 75.0216 228.484 75.3081Z" fill="#A650FF"/>
<path d="M317.5 13.125H287.5C285.429 13.125 283.75 14.8039 283.75 16.875V37.5C283.75 39.5711 285.429 41.25 287.5 41.25H317.5C319.571 41.25 321.25 39.5711 321.25 37.5V16.875C321.25 14.8039 319.571 13.125 317.5 13.125Z" stroke="#A650FF" stroke-width="2" stroke-linecap="round" stroke-linejoin="round"/>
<path d="M311.875 3.75L302.5 13.125L293.125 3.75" stroke="#A650FF" stroke-width="2" stroke-linecap="round" stroke-linejoin="round"/>
<path d="M289.287 61.8677C289.287 62.5659 289.035 63.1138 288.53 63.5112C288.025 63.9087 287.328 64.1074 286.44 64.1074C285.552 64.1074 284.826 63.9696 284.26 63.6938V62.48C284.618 62.6483 284.997 62.7808 285.398 62.8774C285.803 62.9741 286.179 63.0225 286.526 63.0225C287.035 63.0225 287.409 62.9258 287.649 62.7324C287.892 62.5391 288.014 62.2795 288.014 61.9536C288.014 61.66 287.903 61.4111 287.681 61.207C287.459 61.0029 287.001 60.7612 286.306 60.4819C285.59 60.1919 285.085 59.8607 284.792 59.4883C284.498 59.1159 284.351 58.6683 284.351 58.1455C284.351 57.4902 284.584 56.9746 285.049 56.5986C285.515 56.2227 286.14 56.0347 286.924 56.0347C287.676 56.0347 288.424 56.1994 289.169 56.5288L288.761 57.5762C288.062 57.2826 287.439 57.1357 286.892 57.1357C286.476 57.1357 286.161 57.2271 285.946 57.4097C285.731 57.5887 285.624 57.8268 285.624 58.124C285.624 58.3281 285.667 58.5036 285.753 58.6504C285.839 58.7936 285.98 58.9297 286.177 59.0586C286.374 59.1875 286.729 59.3576 287.241 59.5688C287.817 59.8088 288.24 60.0326 288.508 60.2402C288.777 60.4479 288.974 60.6825 289.099 60.9438C289.224 61.2052 289.287 61.5132 289.287 61.8677ZM293.686 64.1074C292.934 64.1074 292.35 63.8371 291.935 63.2964H291.86C291.91 63.7977 291.935 64.1021 291.935 64.2095V66.6426H290.673V58.0596H291.693C291.722 58.1706 291.781 58.4355 291.871 58.8545H291.935C292.329 58.2529 292.92 57.9521 293.708 57.9521C294.449 57.9521 295.025 58.2207 295.437 58.7578C295.852 59.2949 296.06 60.0487 296.06 61.019C296.06 61.9894 295.849 62.7467 295.426 63.291C295.007 63.8353 294.427 64.1074 293.686 64.1074ZM293.38 58.9834C292.879 58.9834 292.512 59.1302 292.279 59.4238C292.05 59.7174 291.935 60.1865 291.935 60.8311V61.019C291.935 61.7424 292.05 62.2669 292.279 62.5928C292.508 62.915 292.882 63.0762 293.401 63.0762C293.838 63.0762 294.175 62.8971 294.411 62.5391C294.647 62.181 294.766 61.6707 294.766 61.0083C294.766 60.3423 294.647 59.8392 294.411 59.499C294.178 59.1553 293.835 58.9834 293.38 58.9834ZM298.789 64H297.526V55.6426H298.789V64ZM304.315 64L304.063 63.1729H304.02C303.734 63.5345 303.445 63.7816 303.155 63.9141C302.865 64.043 302.493 64.1074 302.038 64.1074C301.454 64.1074 300.998 63.9499 300.668 63.6348C300.343 63.3197 300.18 62.8739 300.18 62.2974C300.18 61.6851 300.407 61.2231 300.862 60.9116C301.317 60.6001 302.009 60.43 302.94 60.4014L303.966 60.3691V60.0522C303.966 59.6727 303.877 59.3898 303.698 59.2036C303.522 59.0138 303.248 58.9189 302.876 58.9189C302.572 58.9189 302.28 58.9637 302 59.0532C301.721 59.1427 301.453 59.2484 301.195 59.3701L300.787 58.4678C301.109 58.2995 301.462 58.1724 301.845 58.0864C302.228 57.9969 302.59 57.9521 302.93 57.9521C303.685 57.9521 304.255 58.1169 304.638 58.4463C305.024 58.7757 305.218 59.2931 305.218 59.9985V64H304.315ZM302.436 63.1406C302.894 63.1406 303.261 63.0135 303.537 62.7593C303.816 62.5015 303.956 62.1416 303.956 61.6797V61.1641L303.193 61.1963C302.598 61.2178 302.165 61.318 301.893 61.4971C301.625 61.6725 301.49 61.9429 301.49 62.3081C301.49 62.5731 301.569 62.779 301.727 62.9258C301.884 63.069 302.12 63.1406 302.436 63.1406ZM310.97 62.3081C310.97 62.8882 310.759 63.334 310.336 63.6455C309.914 63.9535 309.309 64.1074 308.521 64.1074C307.73 64.1074 307.094 63.9875 306.614 63.7476V62.6572C307.312 62.9795 307.962 63.1406 308.564 63.1406C309.341 63.1406 309.729 62.9061 309.729 62.437C309.729 62.2866 309.687 62.1613 309.601 62.061C309.515 61.9608 309.373 61.8569 309.176 61.7495C308.979 61.6421 308.705 61.5203 308.354 61.3843C307.671 61.1193 307.207 60.8543 306.963 60.5894C306.723 60.3244 306.604 59.9806 306.604 59.5581C306.604 59.0496 306.808 58.6558 307.216 58.3765C307.628 58.0936 308.186 57.9521 308.892 57.9521C309.59 57.9521 310.25 58.0936 310.874 58.3765L310.465 59.3271C309.824 59.0622 309.285 58.9297 308.849 58.9297C308.183 58.9297 307.85 59.1195 307.85 59.499C307.85 59.6852 307.936 59.8428 308.107 59.9717C308.283 60.1006 308.662 60.2778 309.246 60.5034C309.737 60.6932 310.093 60.8669 310.315 61.0244C310.537 61.182 310.702 61.3646 310.809 61.5723C310.917 61.7764 310.97 62.0216 310.97 62.3081ZM317.566 64H316.298V60.3477C316.298 59.8893 316.205 59.5474 316.019 59.3218C315.836 59.0962 315.545 58.9834 315.144 58.9834C314.614 58.9834 314.223 59.1427 313.973 59.4614C313.726 59.7765 313.602 60.3065 313.602 61.0513V64H312.34V55.6426H313.602V57.7642C313.602 58.1043 313.581 58.4678 313.538 58.8545H313.618C313.79 58.568 314.028 58.346 314.333 58.1885C314.64 58.0309 314.999 57.9521 315.407 57.9521C316.846 57.9521 317.566 58.6772 317.566 60.1274V64ZM287.434 74.8677C287.434 75.5659 287.182 76.1138 286.677 76.5112C286.172 76.9087 285.475 77.1074 284.587 77.1074C283.699 77.1074 282.972 76.9696 282.407 76.6938V75.48C282.765 75.6483 283.144 75.7808 283.545 75.8774C283.95 75.9741 284.326 76.0225 284.673 76.0225C285.182 76.0225 285.556 75.9258 285.796 75.7324C286.039 75.5391 286.161 75.2795 286.161 74.9536C286.161 74.66 286.05 74.4111 285.828 74.207C285.606 74.0029 285.148 73.7612 284.453 73.4819C283.737 73.1919 283.232 72.8607 282.938 72.4883C282.645 72.1159 282.498 71.6683 282.498 71.1455C282.498 70.4902 282.731 69.9746 283.196 69.5986C283.662 69.2227 284.287 69.0347 285.071 69.0347C285.823 69.0347 286.571 69.1994 287.316 69.5288L286.908 70.5762C286.209 70.2826 285.586 70.1357 285.039 70.1357C284.623 70.1357 284.308 70.2271 284.093 70.4097C283.878 70.5887 283.771 70.8268 283.771 71.124C283.771 71.3281 283.814 71.5036 283.9 71.6504C283.986 71.7936 284.127 71.9297 284.324 72.0586C284.521 72.1875 284.876 72.3576 285.388 72.5688C285.964 72.8088 286.387 73.0326 286.655 73.2402C286.924 73.4479 287.121 73.6825 287.246 73.9438C287.371 74.2052 287.434 74.5132 287.434 74.8677ZM291.215 77.1074C290.317 77.1074 289.633 76.846 289.164 76.3232C288.698 75.7969 288.465 75.0431 288.465 74.062C288.465 73.063 288.709 72.2949 289.196 71.7578C289.686 71.2207 290.394 70.9521 291.317 70.9521C291.944 70.9521 292.508 71.0685 293.009 71.3013L292.628 72.3164C292.094 72.1087 291.654 72.0049 291.307 72.0049C290.279 72.0049 289.765 72.687 289.765 74.0513C289.765 74.7173 289.892 75.2186 290.146 75.5552C290.404 75.8882 290.78 76.0547 291.274 76.0547C291.837 76.0547 292.368 75.915 292.87 75.6357V76.7368C292.644 76.8693 292.402 76.9642 292.145 77.0215C291.89 77.0788 291.581 77.1074 291.215 77.1074ZM297.279 70.9521C297.534 70.9521 297.743 70.9701 297.908 71.0059L297.784 72.1821C297.605 72.1392 297.419 72.1177 297.226 72.1177C296.721 72.1177 296.311 72.2824 295.996 72.6118C295.684 72.9412 295.528 73.3691 295.528 73.8955V77H294.266V71.0596H295.254L295.421 72.1069H295.485C295.682 71.7524 295.938 71.4714 296.253 71.2637C296.572 71.056 296.914 70.9521 297.279 70.9521ZM301.608 77.1074C300.685 77.1074 299.961 76.8389 299.438 76.3018C298.919 75.7611 298.66 75.0181 298.66 74.0728C298.66 73.1024 298.901 72.3397 299.385 71.7847C299.868 71.2297 300.532 70.9521 301.377 70.9521C302.162 70.9521 302.781 71.1903 303.236 71.6665C303.691 72.1427 303.918 72.798 303.918 73.6323V74.3145H299.959C299.977 74.891 300.133 75.335 300.427 75.6465C300.72 75.9544 301.134 76.1084 301.667 76.1084C302.018 76.1084 302.344 76.0762 302.645 76.0117C302.949 75.9437 303.275 75.8327 303.623 75.6787V76.7046C303.315 76.8514 303.003 76.9552 302.688 77.0161C302.373 77.077 302.013 77.1074 301.608 77.1074ZM301.377 71.9082C300.976 71.9082 300.654 72.0353 300.411 72.2896C300.171 72.5438 300.028 72.9144 299.981 73.4014H302.677C302.67 72.9108 302.552 72.5402 302.323 72.2896C302.094 72.0353 301.778 71.9082 301.377 71.9082ZM307.946 77.1074C307.022 77.1074 306.299 76.8389 305.776 76.3018C305.257 75.7611 304.998 75.0181 304.998 74.0728C304.998 73.1024 305.239 72.3397 305.723 71.7847C306.206 71.2297 306.87 70.9521 307.715 70.9521C308.5 70.9521 309.119 71.1903 309.574 71.6665C310.028 72.1427 310.256 72.798 310.256 73.6323V74.3145H306.297C306.315 74.891 306.471 75.335 306.765 75.6465C307.058 75.9544 307.472 76.1084 308.005 76.1084C308.356 76.1084 308.682 76.0762 308.983 76.0117C309.287 75.9437 309.613 75.8327 309.96 75.6787V76.7046C309.653 76.8514 309.341 76.9552 309.026 77.0161C308.711 77.077 308.351 77.1074 307.946 77.1074ZM307.715 71.9082C307.314 71.9082 306.992 72.0353 306.749 72.2896C306.509 72.5438 306.365 72.9144 306.319 73.4014H309.015C309.008 72.9108 308.89 72.5402 308.661 72.2896C308.431 72.0353 308.116 71.9082 307.715 71.9082ZM316.916 77H315.648V73.3477C315.648 72.8893 315.555 72.5474 315.369 72.3218C315.187 72.0962 314.895 71.9834 314.494 71.9834C313.96 71.9834 313.57 72.141 313.323 72.4561C313.076 72.7712 312.952 73.2993 312.952 74.0405V77H311.69V71.0596H312.678L312.855 71.8384H312.92C313.099 71.5555 313.353 71.3371 313.683 71.1831C314.012 71.0291 314.377 70.9521 314.778 70.9521C316.203 70.9521 316.916 71.6772 316.916 73.1274V77ZM322.663 75.3081C322.663 75.8882 322.452 76.334 322.029 76.6455C321.607 76.9535 321.002 77.1074 320.214 77.1074C319.423 77.1074 318.787 76.9875 318.307 76.7476V75.6572C319.005 75.9795 319.655 76.1406 320.257 76.1406C321.034 76.1406 321.422 75.9061 321.422 75.437C321.422 75.2866 321.379 75.1613 321.293 75.061C321.208 74.9608 321.066 74.8569 320.869 74.7495C320.672 74.6421 320.398 74.5203 320.047 74.3843C319.363 74.1193 318.9 73.8543 318.656 73.5894C318.416 73.3244 318.296 72.9806 318.296 72.5581C318.296 72.0496 318.5 71.6558 318.909 71.3765C319.32 71.0936 319.879 70.9521 320.584 70.9521C321.283 70.9521 321.943 71.0936 322.566 71.3765L322.158 72.3271C321.517 72.0622 320.978 71.9297 320.542 71.9297C319.875 71.9297 319.542 72.1195 319.542 72.499C319.542 72.6852 319.628 72.8428 319.8 72.9717C319.976 73.1006 320.355 73.2778 320.939 73.5034C321.43 73.6932 321.786 73.8669 322.008 74.0244C322.23 74.182 322.395 74.3646 322.502 74.5723C322.609 74.7764 322.663 75.0216 322.663 75.3081Z" fill="#A650FF"/>
</svg>
