<svg width="340" height="109" viewBox="0 0 340 109" fill="none" xmlns="http://www.w3.org/2000/svg">
<path d="M22.2734 4.82447C22.2734 3.59804 22.7606 2.42183 23.6279 1.55461C24.4951 0.687394 25.6713 0.200195 26.8977 0.200195H54.6434C55.8698 0.200195 57.046 0.687394 57.9132 1.55461C58.7805 2.42183 59.2677 3.59804 59.2677 4.82447V7.75626C58.5651 7.34934 57.7674 7.13555 56.9555 7.13661V4.82447C56.9555 4.21126 56.7119 3.62315 56.2783 3.18954C55.8447 2.75593 55.2566 2.51233 54.6434 2.51233H26.8977C26.2845 2.51233 25.6964 2.75593 25.2628 3.18954C24.8292 3.62315 24.5856 4.21126 24.5856 4.82447V21.0094C24.5856 21.6227 24.8292 22.2108 25.2628 22.6444C25.6964 23.078 26.2845 23.3216 26.8977 23.3216H45.3948V23.7355C45.3946 24.3899 45.5333 25.0369 45.8018 25.6337H26.8977C25.6713 25.6337 24.4951 25.1465 23.6279 24.2793C22.7606 23.4121 22.2734 22.2359 22.2734 21.0094V4.82447ZM48.863 30.0615L47.3486 27.9459H30.3659C30.0593 27.9459 29.7653 28.0677 29.5485 28.2845C29.3317 28.5013 29.2099 28.7953 29.2099 29.1019C29.2099 29.4085 29.3317 29.7026 29.5485 29.9194C29.7653 30.1362 30.0593 30.258 30.3659 30.258H48.863V30.0615ZM50.0191 11.7609V16.3852C49.4059 16.3852 48.8178 16.6288 48.3842 17.0624C47.9506 17.496 47.707 18.0841 47.707 18.6973V23.7355C47.7071 24.2181 47.8583 24.6887 48.1393 25.0811L51.1752 29.3193V32.5701C51.1752 33.1834 51.4188 33.7715 51.8524 34.2051C52.286 34.6387 52.8741 34.8823 53.4873 34.8823H55.7994C56.4127 34.8823 57.0008 34.6387 57.4344 34.2051C57.868 33.7715 58.1116 33.1834 58.1116 32.5701V29.3193L61.1382 25.1574C61.4253 24.7623 61.5799 24.2863 61.5798 23.7979V18.6973C61.5798 18.0841 61.3362 17.496 60.9026 17.0624C60.469 16.6288 59.8809 16.3852 59.2677 16.3852V11.7609C59.2677 11.1477 59.0241 10.5596 58.5905 10.126C58.1568 9.69235 57.5687 9.44875 56.9555 9.44875H52.3312C51.718 9.44875 51.1299 9.69235 50.6963 10.126C50.2627 10.5596 50.0191 11.1477 50.0191 11.7609ZM56.9555 16.3852H52.3312V11.7609H56.9555V16.3852Z" fill="#A650FF"/>
<path d="M5.14844 63.1001H3.87549V55.2476H8.30664V56.3325H5.14844V58.7871H8.10791V59.8774H5.14844V63.1001ZM13.7852 63.1001L13.6079 62.3213H13.5435C13.368 62.597 13.1174 62.8136 12.7915 62.9712C12.4692 63.1287 12.1004 63.2075 11.6851 63.2075C10.9653 63.2075 10.4282 63.0285 10.0737 62.6704C9.71924 62.3123 9.54199 61.7699 9.54199 61.043V57.1597H10.8149V60.8228C10.8149 61.2775 10.908 61.6195 11.0942 61.8486C11.2804 62.0742 11.5723 62.187 11.9697 62.187C12.4997 62.187 12.8882 62.0295 13.1353 61.7144C13.3859 61.3957 13.5112 60.8639 13.5112 60.1191V57.1597H14.7788V63.1001H13.7852ZM17.8403 63.1001H16.5781V54.7427H17.8403V63.1001ZM20.9126 63.1001H19.6504V54.7427H20.9126V63.1001ZM28.4268 63.1001H27.1431V56.3486H24.8335V55.2476H30.7363V56.3486H28.4268V63.1001ZM36.4189 55.2476H37.751L35.001 63.1001H33.6475L30.9082 55.2476H32.2295L33.8677 60.1299C33.9536 60.3626 34.0449 60.6634 34.1416 61.0322C34.2383 61.3975 34.3009 61.6696 34.3296 61.8486C34.3761 61.5765 34.4478 61.2614 34.5444 60.9033C34.6411 60.5452 34.7199 60.2803 34.7808 60.1084L36.4189 55.2476ZM44.9858 56.2358C44.2482 56.2358 43.6681 56.4972 43.2456 57.02C42.8231 57.5428 42.6118 58.2643 42.6118 59.1846C42.6118 60.1478 42.8141 60.8765 43.2188 61.3706C43.627 61.8647 44.216 62.1118 44.9858 62.1118C45.3188 62.1118 45.6411 62.0796 45.9526 62.0151C46.2642 61.9471 46.5882 61.8612 46.9248 61.7573V62.8584C46.3089 63.0911 45.6107 63.2075 44.8301 63.2075C43.6807 63.2075 42.798 62.8602 42.1821 62.1655C41.5662 61.4673 41.2583 60.4701 41.2583 59.1738C41.2583 58.3574 41.4069 57.6431 41.7041 57.0308C42.0049 56.4185 42.4382 55.9494 43.0039 55.6235C43.5697 55.2977 44.2339 55.1348 44.9966 55.1348C45.7987 55.1348 46.5399 55.3031 47.2202 55.6396L46.7583 56.7085C46.4933 56.5832 46.2122 56.474 45.915 56.3809C45.6214 56.2842 45.3117 56.2358 44.9858 56.2358ZM53.7515 60.1191C53.7515 61.0895 53.5026 61.8468 53.0049 62.3911C52.5072 62.9354 51.8143 63.2075 50.9263 63.2075C50.3713 63.2075 49.8807 63.0822 49.4546 62.8315C49.0285 62.5809 48.7008 62.221 48.4717 61.752C48.2425 61.2829 48.1279 60.7386 48.1279 60.1191C48.1279 59.1559 48.375 58.404 48.8691 57.8633C49.3633 57.3226 50.0597 57.0522 50.9585 57.0522C51.8179 57.0522 52.4982 57.3298 52.9995 57.8848C53.5008 58.4362 53.7515 59.181 53.7515 60.1191ZM49.4277 60.1191C49.4277 61.4906 49.9344 62.1763 50.9478 62.1763C51.9504 62.1763 52.4517 61.4906 52.4517 60.1191C52.4517 58.762 51.9468 58.0835 50.937 58.0835C50.4071 58.0835 50.0221 58.259 49.7822 58.6099C49.5459 58.9608 49.4277 59.4639 49.4277 60.1191ZM60.4331 63.1001H59.1655V59.4478C59.1655 58.9894 59.0724 58.6475 58.8862 58.4219C58.7036 58.1963 58.4118 58.0835 58.0107 58.0835C57.4772 58.0835 57.0869 58.241 56.8398 58.5562C56.5928 58.8713 56.4692 59.3994 56.4692 60.1406V63.1001H55.207V57.1597H56.1953L56.3726 57.9385H56.437C56.616 57.6556 56.8703 57.4372 57.1997 57.2832C57.5291 57.1292 57.8944 57.0522 58.2954 57.0522C59.7205 57.0522 60.4331 57.7773 60.4331 59.2275V63.1001ZM64.4023 62.187C64.7103 62.187 65.0182 62.1387 65.3262 62.042V62.9927C65.1865 63.0535 65.0057 63.1037 64.7837 63.1431C64.5653 63.186 64.3379 63.2075 64.1016 63.2075C62.9056 63.2075 62.3076 62.5773 62.3076 61.3169V58.1157H61.4966V57.5571L62.3667 57.0952L62.7964 55.8384H63.5752V57.1597H65.2671V58.1157H63.5752V61.2954C63.5752 61.5998 63.6504 61.8254 63.8008 61.9722C63.9548 62.1154 64.1553 62.187 64.4023 62.187ZM69.5317 57.0522C69.786 57.0522 69.9954 57.0701 70.1602 57.106L70.0366 58.2822C69.8576 58.2393 69.6714 58.2178 69.478 58.2178C68.9731 58.2178 68.5632 58.3825 68.248 58.7119C67.9365 59.0413 67.7808 59.4692 67.7808 59.9956V63.1001H66.5186V57.1597H67.5068L67.6733 58.207H67.7378C67.9347 57.8525 68.1908 57.5715 68.5059 57.3638C68.8245 57.1561 69.1665 57.0522 69.5317 57.0522ZM76.5356 60.1191C76.5356 61.0895 76.2868 61.8468 75.7891 62.3911C75.2913 62.9354 74.5985 63.2075 73.7104 63.2075C73.1554 63.2075 72.6649 63.0822 72.2388 62.8315C71.8127 62.5809 71.485 62.221 71.2559 61.752C71.0267 61.2829 70.9121 60.7386 70.9121 60.1191C70.9121 59.1559 71.1592 58.404 71.6533 57.8633C72.1475 57.3226 72.8439 57.0522 73.7427 57.0522C74.6021 57.0522 75.2824 57.3298 75.7837 57.8848C76.285 58.4362 76.5356 59.181 76.5356 60.1191ZM72.2119 60.1191C72.2119 61.4906 72.7186 62.1763 73.7319 62.1763C74.7345 62.1763 75.2358 61.4906 75.2358 60.1191C75.2358 58.762 74.731 58.0835 73.7212 58.0835C73.1912 58.0835 72.8063 58.259 72.5664 58.6099C72.3301 58.9608 72.2119 59.4639 72.2119 60.1191ZM79.2534 63.1001H77.9912V54.7427H79.2534V63.1001Z" fill="#A650FF"/>
<path d="M157.932 3.98959C156.296 3.98959 154.726 4.73576 153.57 6.06396C152.413 7.39215 151.763 9.19357 151.763 11.0719V21.1896C151.763 23.0679 152.413 24.8693 153.57 26.1975C154.726 27.5257 156.296 28.2719 157.932 28.2719H166.745C168.381 28.2719 169.95 27.5257 171.107 26.1975C172.264 24.8693 172.914 23.0679 172.914 21.1896V16.1307C172.914 15.8624 173.007 15.6051 173.172 15.4153C173.337 15.2256 173.562 15.119 173.795 15.119C174.029 15.119 174.253 15.2256 174.419 15.4153C174.584 15.6051 174.677 15.8624 174.677 16.1307V21.1896C174.677 23.6046 173.841 25.9207 172.354 27.6284C170.866 29.3361 168.849 30.2954 166.745 30.2954H157.932C155.828 30.2954 153.811 29.3361 152.323 27.6284C150.836 25.9207 150 23.6046 150 21.1896V11.0719C150 8.6569 150.836 6.34079 152.323 4.63311C153.811 2.92543 155.828 1.96606 157.932 1.96606H162.338C162.572 1.96606 162.796 2.07266 162.962 2.2624C163.127 2.45215 163.22 2.70949 163.22 2.97783C163.22 3.24616 163.127 3.50351 162.962 3.69325C162.796 3.88299 162.572 3.98959 162.338 3.98959H157.932Z" fill="#A650FF"/>
<path d="M189.307 14.2648C189.307 18.0215 188.007 21.6243 185.693 24.2807C183.379 26.9371 180.241 28.4294 176.968 28.4294C173.696 28.4294 170.558 26.9371 168.244 24.2807C165.93 21.6243 164.63 18.0215 164.63 14.2648C164.63 10.5081 165.93 6.90523 168.244 4.24884C170.558 1.59244 173.696 0.100098 176.968 0.100098C180.241 0.100098 183.379 1.59244 185.693 4.24884C188.007 6.90523 189.307 10.5081 189.307 14.2648Z" fill="#A650FF"/>
<path d="M126.708 59.8762H125.436V52.0237H129.867V53.1086H126.708V55.5632H129.668V56.6536H126.708V59.8762ZM135.345 59.8762L135.168 59.0974H135.104C134.928 59.3731 134.677 59.5898 134.352 59.7473C134.029 59.9049 133.66 59.9836 133.245 59.9836C132.525 59.9836 131.988 59.8046 131.634 59.4465C131.279 59.0885 131.102 58.546 131.102 57.8191V53.9358H132.375V57.5989C132.375 58.0536 132.468 58.3956 132.654 58.6248C132.84 58.8503 133.132 58.9631 133.53 58.9631C134.06 58.9631 134.448 58.8056 134.695 58.4905C134.946 58.1718 135.071 57.6401 135.071 56.8953V53.9358H136.339V59.8762H135.345ZM139.4 59.8762H138.138V51.5188H139.4V59.8762ZM142.473 59.8762H141.21V51.5188H142.473V59.8762ZM143.38 53.9358H144.755L145.964 57.3035C146.146 57.7833 146.268 58.2345 146.329 58.657H146.372C146.404 58.46 146.463 58.2219 146.549 57.9426C146.635 57.6597 147.09 56.3241 147.914 53.9358H149.278L146.737 60.6658C146.275 61.9011 145.506 62.5188 144.428 62.5188C144.148 62.5188 143.876 62.4884 143.611 62.4275V61.4285C143.801 61.4714 144.018 61.4929 144.261 61.4929C144.87 61.4929 145.298 61.1402 145.545 60.4348L145.765 59.8762L143.38 53.9358ZM158.043 59.8762L157.259 57.6956H154.257L153.489 59.8762H152.135L155.073 51.9915H156.47L159.408 59.8762H158.043ZM156.921 56.5891L156.185 54.4514C156.131 54.3082 156.056 54.0826 155.959 53.7747C155.866 53.4667 155.802 53.2411 155.766 53.0979C155.669 53.5383 155.528 54.0199 155.342 54.5427L154.633 56.5891H156.921ZM164.5 59.8762L164.322 59.0974H164.258C164.082 59.3731 163.832 59.5898 163.506 59.7473C163.184 59.9049 162.815 59.9836 162.399 59.9836C161.68 59.9836 161.143 59.8046 160.788 59.4465C160.434 59.0885 160.256 58.546 160.256 57.8191V53.9358H161.529V57.5989C161.529 58.0536 161.622 58.3956 161.809 58.6248C161.995 58.8503 162.287 58.9631 162.684 58.9631C163.214 58.9631 163.603 58.8056 163.85 58.4905C164.1 58.1718 164.226 57.6401 164.226 56.8953V53.9358H165.493V59.8762H164.5ZM169.505 58.9631C169.813 58.9631 170.121 58.9148 170.429 58.8181V59.7688C170.29 59.8297 170.109 59.8798 169.887 59.9192C169.668 59.9622 169.441 59.9836 169.205 59.9836C168.009 59.9836 167.411 59.3534 167.411 58.093V54.8918H166.6V54.3333L167.47 53.8713L167.899 52.6145H168.678V53.9358H170.37V54.8918H168.678V58.0715C168.678 58.3759 168.753 58.6015 168.904 58.7483C169.058 58.8915 169.258 58.9631 169.505 58.9631ZM176.891 56.8953C176.891 57.8656 176.642 58.623 176.144 59.1672C175.646 59.7115 174.953 59.9836 174.065 59.9836C173.51 59.9836 173.02 59.8583 172.594 59.6077C172.168 59.357 171.84 58.9972 171.611 58.5281C171.382 58.059 171.267 57.5147 171.267 56.8953C171.267 55.932 171.514 55.1801 172.008 54.6394C172.502 54.0987 173.199 53.8284 174.098 53.8284C174.957 53.8284 175.637 54.1059 176.139 54.6609C176.64 55.2123 176.891 55.9571 176.891 56.8953ZM172.567 56.8953C172.567 58.2667 173.074 58.9524 174.087 58.9524C175.09 58.9524 175.591 58.2667 175.591 56.8953C175.591 55.5382 175.086 54.8596 174.076 54.8596C173.546 54.8596 173.161 55.0351 172.921 55.386C172.685 55.7369 172.567 56.24 172.567 56.8953ZM183.352 59.8762H182.084V56.2131C182.084 55.7584 181.999 55.42 181.827 55.198C181.655 54.9724 181.386 54.8596 181.021 54.8596C180.534 54.8596 180.176 55.019 179.947 55.3376C179.721 55.6528 179.608 56.1791 179.608 56.9167V59.8762H178.346V53.9358H179.334L179.512 54.7146H179.576C179.741 54.4317 179.979 54.2133 180.291 54.0593C180.606 53.9054 180.951 53.8284 181.327 53.8284C182.24 53.8284 182.845 54.1399 183.143 54.7629H183.229C183.404 54.4693 183.651 54.2402 183.97 54.0754C184.288 53.9107 184.654 53.8284 185.065 53.8284C185.774 53.8284 186.29 54.0074 186.612 54.3655C186.938 54.7236 187.101 55.2696 187.101 56.0037V59.8762H185.839V56.2131C185.839 55.7584 185.751 55.42 185.576 55.198C185.404 54.9724 185.135 54.8596 184.77 54.8596C184.279 54.8596 183.92 55.0136 183.69 55.3215C183.465 55.6259 183.352 56.095 183.352 56.7288V59.8762ZM192.58 59.8762L192.327 59.0491H192.284C191.998 59.4107 191.709 59.6578 191.419 59.7903C191.129 59.9192 190.757 59.9836 190.302 59.9836C189.719 59.9836 189.262 59.8261 188.933 59.511C188.607 59.1959 188.444 58.7501 188.444 58.1736C188.444 57.5613 188.671 57.0994 189.126 56.7878C189.581 56.4763 190.274 56.3062 191.205 56.2776L192.23 56.2454V55.9285C192.23 55.5489 192.141 55.266 191.962 55.0798C191.786 54.8901 191.513 54.7952 191.14 54.7952C190.836 54.7952 190.544 54.8399 190.265 54.9294C189.985 55.019 189.717 55.1246 189.459 55.2463L189.051 54.344C189.373 54.1757 189.726 54.0486 190.109 53.9626C190.492 53.8731 190.854 53.8284 191.194 53.8284C191.949 53.8284 192.519 53.9931 192.902 54.3225C193.289 54.6519 193.482 55.1694 193.482 55.8748V59.8762H192.58ZM190.7 59.0168C191.158 59.0168 191.525 58.8897 191.801 58.6355C192.08 58.3777 192.22 58.0178 192.22 57.5559V57.0403L191.457 57.0725C190.863 57.094 190.429 57.1943 190.157 57.3733C189.889 57.5487 189.754 57.8191 189.754 58.1843C189.754 58.4493 189.833 58.6552 189.991 58.802C190.148 58.9452 190.385 59.0168 190.7 59.0168ZM197.457 58.9631C197.764 58.9631 198.072 58.9148 198.38 58.8181V59.7688C198.241 59.8297 198.06 59.8798 197.838 59.9192C197.619 59.9622 197.392 59.9836 197.156 59.9836C195.96 59.9836 195.362 59.3534 195.362 58.093V54.8918H194.551V54.3333L195.421 53.8713L195.851 52.6145H196.629V53.9358H198.321V54.8918H196.629V58.0715C196.629 58.3759 196.705 58.6015 196.855 58.7483C197.009 58.8915 197.209 58.9631 197.457 58.9631ZM202.167 59.9836C201.243 59.9836 200.52 59.7151 199.997 59.178C199.478 58.6373 199.218 57.8943 199.218 56.949C199.218 55.9786 199.46 55.2159 199.943 54.6609C200.427 54.1059 201.091 53.8284 201.936 53.8284C202.72 53.8284 203.34 54.0665 203.794 54.5427C204.249 55.019 204.477 55.6742 204.477 56.5085V57.1907H200.518C200.536 57.7672 200.692 58.2112 200.985 58.5227C201.279 58.8306 201.693 58.9846 202.226 58.9846C202.577 58.9846 202.903 58.9524 203.204 58.8879C203.508 58.8199 203.834 58.7089 204.181 58.5549V59.5808C203.873 59.7276 203.562 59.8315 203.247 59.8923C202.931 59.9532 202.572 59.9836 202.167 59.9836ZM201.936 54.7844C201.535 54.7844 201.213 54.9115 200.969 55.1658C200.729 55.42 200.586 55.7906 200.54 56.2776H203.236C203.229 55.787 203.111 55.4164 202.881 55.1658C202.652 54.9115 202.337 54.7844 201.936 54.7844ZM207.914 59.9836C207.173 59.9836 206.595 59.7151 206.179 59.178C205.764 58.6409 205.556 57.8871 205.556 56.9167C205.556 55.9428 205.766 55.1855 206.185 54.6448C206.607 54.1005 207.191 53.8284 207.936 53.8284C208.716 53.8284 209.311 54.1166 209.719 54.6931H209.783C209.722 54.267 209.692 53.9304 209.692 53.6833V51.5188H210.959V59.8762H209.971L209.751 59.0974H209.692C209.287 59.6882 208.695 59.9836 207.914 59.9836ZM208.252 58.9631C208.772 58.9631 209.149 58.8181 209.386 58.5281C209.622 58.2345 209.744 57.76 209.751 57.1047V56.9275C209.751 56.1791 209.629 55.6474 209.386 55.3323C209.142 55.0172 208.761 54.8596 208.242 54.8596C207.798 54.8596 207.456 55.0404 207.216 55.4021C206.976 55.7602 206.856 56.2722 206.856 56.9382C206.856 57.5971 206.972 58.1002 207.205 58.4475C207.438 58.7913 207.787 58.9631 208.252 58.9631ZM107.965 73.7228C107.965 73.0447 108.063 72.41 108.26 71.8189C108.46 71.2278 108.747 70.7096 109.12 70.2643H109.742C109.374 70.7582 109.096 71.3007 108.909 71.8918C108.725 72.483 108.633 73.0907 108.633 73.7151C108.633 74.3293 108.727 74.9294 108.917 75.5154C109.106 76.1014 109.379 76.6362 109.734 77.1199H109.12C108.744 76.6849 108.457 76.1769 108.26 75.596C108.063 75.0151 107.965 74.3907 107.965 73.7228ZM110.748 75.8762V70.2643H111.4V75.8762H110.748ZM115.726 75.8762V73.1547C115.726 72.8118 115.648 72.5559 115.492 72.387C115.336 72.2181 115.092 72.1337 114.759 72.1337C114.319 72.1337 113.996 72.2527 113.792 72.4907C113.587 72.7286 113.485 73.1214 113.485 73.6691V75.8762H112.847V71.6692H113.366L113.469 72.245H113.5C113.63 72.0377 113.813 71.8778 114.049 71.7652C114.284 71.65 114.547 71.5924 114.836 71.5924C115.342 71.5924 115.724 71.7153 115.98 71.9609C116.236 72.204 116.363 72.5943 116.363 73.1317V75.8762H115.726ZM119.035 75.4271C119.148 75.4271 119.256 75.4194 119.361 75.4041C119.466 75.3862 119.549 75.3683 119.611 75.3503V75.8378C119.542 75.8711 119.439 75.898 119.304 75.9184C119.171 75.9415 119.05 75.953 118.943 75.953C118.129 75.953 117.722 75.5244 117.722 74.6671V72.1644H117.12V71.8573L117.722 71.5924L117.991 70.6942H118.36V71.6692H119.58V72.1644H118.36V74.6402C118.36 74.8936 118.42 75.088 118.54 75.2237C118.66 75.3593 118.825 75.4271 119.035 75.4271ZM122.233 75.953C121.611 75.953 121.119 75.7636 120.759 75.3849C120.4 75.0062 120.221 74.4803 120.221 73.8073C120.221 73.1291 120.388 72.5905 120.72 72.1912C121.055 71.792 121.505 71.5924 122.068 71.5924C122.595 71.5924 123.012 71.7665 123.319 72.1145C123.626 72.4599 123.779 72.9167 123.779 73.4848V73.8879H120.881C120.894 74.3818 121.018 74.7567 121.254 75.0126C121.492 75.2685 121.826 75.3964 122.256 75.3964C122.709 75.3964 123.156 75.3017 123.599 75.1124V75.6805C123.374 75.7777 123.16 75.8468 122.958 75.8877C122.758 75.9312 122.517 75.953 122.233 75.953ZM122.06 72.126C121.722 72.126 121.452 72.236 121.25 72.4561C121.05 72.6762 120.933 72.9807 120.897 73.3697H123.096C123.096 72.9679 123.007 72.6608 122.828 72.4484C122.648 72.2335 122.393 72.126 122.06 72.126ZM128.313 71.6692V72.0723L127.534 72.1644C127.605 72.2539 127.669 72.3717 127.725 72.5175C127.782 72.6608 127.81 72.8233 127.81 73.005C127.81 73.417 127.669 73.7458 127.388 73.9915C127.106 74.2372 126.72 74.36 126.228 74.36C126.103 74.36 125.985 74.3498 125.875 74.3293C125.604 74.4726 125.468 74.653 125.468 74.8705C125.468 74.9857 125.516 75.0714 125.61 75.1277C125.705 75.1815 125.868 75.2083 126.098 75.2083H126.843C127.298 75.2083 127.647 75.3043 127.891 75.4962C128.136 75.6881 128.259 75.9671 128.259 76.333C128.259 76.7987 128.072 77.1532 127.699 77.3963C127.325 77.6419 126.78 77.7648 126.063 77.7648C125.513 77.7648 125.088 77.6624 124.789 77.4577C124.492 77.253 124.344 76.9638 124.344 76.5902C124.344 76.3343 124.426 76.1129 124.589 75.9261C124.753 75.7393 124.984 75.6126 125.28 75.5461C125.173 75.4975 125.082 75.422 125.008 75.3196C124.936 75.2173 124.9 75.0983 124.9 74.9627C124.9 74.8091 124.941 74.6748 125.023 74.5596C125.105 74.4445 125.234 74.3331 125.411 74.2257C125.193 74.1361 125.015 73.9838 124.877 73.7689C124.742 73.5539 124.674 73.3083 124.674 73.0319C124.674 72.5713 124.812 72.2168 125.088 71.9686C125.365 71.7178 125.756 71.5924 126.263 71.5924C126.483 71.5924 126.681 71.618 126.858 71.6692H128.313ZM124.958 76.5825C124.958 76.8103 125.054 76.983 125.246 77.1007C125.438 77.2184 125.713 77.2773 126.071 77.2773C126.606 77.2773 127.001 77.1967 127.257 77.0355C127.516 76.8768 127.645 76.6606 127.645 76.3867C127.645 76.159 127.574 76.0003 127.434 75.9108C127.293 75.8238 127.028 75.7803 126.639 75.7803H125.875C125.586 75.7803 125.361 75.8494 125.2 75.9875C125.039 76.1257 124.958 76.324 124.958 76.5825ZM125.303 73.0165C125.303 73.3108 125.387 73.5334 125.553 73.6844C125.719 73.8354 125.951 73.9109 126.248 73.9109C126.869 73.9109 127.18 73.6089 127.18 73.005C127.18 72.3729 126.866 72.0569 126.236 72.0569C125.937 72.0569 125.706 72.1375 125.545 72.2987C125.384 72.4599 125.303 72.6992 125.303 73.0165ZM131.096 71.5924C131.282 71.5924 131.45 71.6078 131.599 71.6385L131.51 72.2296C131.336 72.1912 131.183 72.1721 131.05 72.1721C130.709 72.1721 130.418 72.3102 130.174 72.5866C129.934 72.863 129.814 73.2072 129.814 73.6192V75.8762H129.176V71.6692H129.702L129.775 72.4484H129.806C129.962 72.1746 130.15 71.9635 130.37 71.8151C130.59 71.6667 130.832 71.5924 131.096 71.5924ZM134.973 75.8762L134.846 75.2774H134.815C134.605 75.541 134.396 75.7201 134.186 75.8148C133.978 75.9069 133.719 75.953 133.406 75.953C132.989 75.953 132.662 75.8455 132.424 75.6306C132.188 75.4156 132.071 75.1098 132.071 74.7132C132.071 73.8636 132.75 73.4183 134.109 73.3773L134.823 73.3543V73.0933C134.823 72.7632 134.751 72.5201 134.608 72.364C134.467 72.2053 134.241 72.126 133.929 72.126C133.578 72.126 133.181 72.2335 132.739 72.4484L132.543 71.9609C132.75 71.8483 132.977 71.7601 133.222 71.6961C133.47 71.6321 133.719 71.6001 133.967 71.6001C134.468 71.6001 134.84 71.7114 135.08 71.9341C135.323 72.1567 135.445 72.5137 135.445 73.005V75.8762H134.973ZM133.533 75.4271C133.93 75.4271 134.241 75.3184 134.466 75.1008C134.694 74.8833 134.808 74.5788 134.808 74.1873V73.8073L134.17 73.8341C133.664 73.852 133.298 73.9314 133.073 74.0721C132.85 74.2103 132.739 74.4265 132.739 74.7208C132.739 74.9511 132.808 75.1264 132.946 75.2467C133.087 75.367 133.282 75.4271 133.533 75.4271ZM138.12 75.4271C138.233 75.4271 138.342 75.4194 138.446 75.4041C138.551 75.3862 138.635 75.3683 138.696 75.3503V75.8378C138.627 75.8711 138.524 75.898 138.389 75.9184C138.256 75.9415 138.136 75.953 138.028 75.953C137.214 75.953 136.807 75.5244 136.807 74.6671V72.1644H136.205V71.8573L136.807 71.5924L137.076 70.6942H137.445V71.6692H138.665V72.1644H137.445V74.6402C137.445 74.8936 137.505 75.088 137.625 75.2237C137.745 75.3593 137.91 75.4271 138.12 75.4271ZM141.318 75.953C140.696 75.953 140.204 75.7636 139.844 75.3849C139.485 75.0062 139.306 74.4803 139.306 73.8073C139.306 73.1291 139.473 72.5905 139.805 72.1912C140.141 71.792 140.59 71.5924 141.153 71.5924C141.68 71.5924 142.097 71.7665 142.404 72.1145C142.711 72.4599 142.865 72.9167 142.865 73.4848V73.8879H139.966C139.979 74.3818 140.103 74.7567 140.339 75.0126C140.577 75.2685 140.911 75.3964 141.341 75.3964C141.794 75.3964 142.241 75.3017 142.684 75.1124V75.6805C142.459 75.7777 142.245 75.8468 142.043 75.8877C141.844 75.9312 141.602 75.953 141.318 75.953ZM141.145 72.126C140.807 72.126 140.537 72.236 140.335 72.4561C140.135 72.6762 140.018 72.9807 139.982 73.3697H142.181C142.181 72.9679 142.092 72.6608 141.913 72.4484C141.733 72.2335 141.478 72.126 141.145 72.126ZM146.669 74.7285C146.669 75.12 146.523 75.422 146.231 75.6344C145.939 75.8468 145.53 75.953 145.003 75.953C144.445 75.953 144.01 75.8647 143.698 75.6881V75.097C143.9 75.1994 144.116 75.28 144.346 75.3388C144.579 75.3977 144.803 75.4271 145.018 75.4271C145.351 75.4271 145.607 75.3747 145.786 75.2697C145.965 75.1623 146.054 74.9998 146.054 74.7822C146.054 74.6185 145.983 74.479 145.839 74.3638C145.699 74.2461 145.422 74.1079 145.01 73.9493C144.619 73.8034 144.34 73.6768 144.174 73.5693C144.01 73.4592 143.887 73.3351 143.805 73.1969C143.726 73.0588 143.686 72.8937 143.686 72.7018C143.686 72.3589 143.825 72.0889 144.104 71.8918C144.383 71.6922 144.766 71.5924 145.252 71.5924C145.705 71.5924 146.148 71.6846 146.58 71.8688L146.354 72.387C145.932 72.213 145.549 72.126 145.206 72.126C144.904 72.126 144.676 72.1733 144.523 72.268C144.369 72.3627 144.292 72.4932 144.292 72.6595C144.292 72.7721 144.321 72.8681 144.377 72.9474C144.436 73.0268 144.529 73.1023 144.657 73.1739C144.785 73.2456 145.031 73.3492 145.394 73.4848C145.893 73.6665 146.23 73.8495 146.404 74.0337C146.58 74.218 146.669 74.4496 146.669 74.7285ZM153.186 75.8762L152.415 73.4081C152.366 73.2571 152.275 72.9142 152.142 72.3793H152.112C152.009 72.8272 151.92 73.1726 151.843 73.4157L151.048 75.8762H150.311L149.164 71.6692H149.831C150.103 72.7261 150.309 73.5309 150.449 74.0836C150.593 74.6364 150.675 75.0087 150.695 75.2006H150.726C150.754 75.0548 150.799 74.8667 150.86 74.6364C150.924 74.4035 150.979 74.2193 151.025 74.0836L151.797 71.6692H152.488L153.24 74.0836C153.383 74.5238 153.481 74.8936 153.532 75.193H153.562C153.573 75.1008 153.6 74.9588 153.643 74.7669C153.689 74.575 153.957 73.5424 154.445 71.6692H155.106L153.943 75.8762H153.186ZM156.507 75.8762H155.869V71.6692H156.507V75.8762ZM155.816 70.5292C155.816 70.3833 155.852 70.2771 155.923 70.2106C155.995 70.1415 156.084 70.1069 156.192 70.1069C156.294 70.1069 156.383 70.1415 156.457 70.2106C156.531 70.2797 156.568 70.3859 156.568 70.5292C156.568 70.6725 156.531 70.78 156.457 70.8516C156.383 70.9207 156.294 70.9552 156.192 70.9552C156.084 70.9552 155.995 70.9207 155.923 70.8516C155.852 70.78 155.816 70.6725 155.816 70.5292ZM159.217 75.4271C159.329 75.4271 159.438 75.4194 159.543 75.4041C159.648 75.3862 159.731 75.3683 159.792 75.3503V75.8378C159.723 75.8711 159.621 75.898 159.485 75.9184C159.352 75.9415 159.232 75.953 159.125 75.953C158.311 75.953 157.904 75.5244 157.904 74.6671V72.1644H157.301V71.8573L157.904 71.5924L158.173 70.6942H158.541V71.6692H159.762V72.1644H158.541V74.6402C158.541 74.8936 158.601 75.088 158.721 75.2237C158.842 75.3593 159.007 75.4271 159.217 75.4271ZM163.516 75.8762V73.1547C163.516 72.8118 163.438 72.5559 163.282 72.387C163.126 72.2181 162.881 72.1337 162.548 72.1337C162.106 72.1337 161.782 72.2539 161.577 72.4945C161.375 72.735 161.274 73.1291 161.274 73.6768V75.8762H160.637V69.9035H161.274V71.7114C161.274 71.929 161.264 72.1094 161.243 72.2527H161.282C161.407 72.0505 161.585 71.8918 161.815 71.7767C162.048 71.659 162.313 71.6001 162.61 71.6001C163.124 71.6001 163.509 71.723 163.765 71.9686C164.024 72.2117 164.153 72.5994 164.153 73.1317V75.8762H163.516ZM167.604 70.2643H169.189C169.934 70.2643 170.472 70.3756 170.805 70.5983C171.138 70.8209 171.304 71.1728 171.304 71.6539C171.304 71.9865 171.211 72.2616 171.024 72.4791C170.84 72.6941 170.57 72.8336 170.214 72.8975V72.9359C171.066 73.0818 171.492 73.5296 171.492 74.2794C171.492 74.781 171.322 75.1725 170.982 75.454C170.644 75.7355 170.17 75.8762 169.561 75.8762H167.604V70.2643ZM168.256 72.6672H169.331C169.792 72.6672 170.123 72.5956 170.325 72.4523C170.527 72.3064 170.629 72.062 170.629 71.7191C170.629 71.4044 170.516 71.1779 170.291 71.0397C170.066 70.899 169.707 70.8286 169.216 70.8286H168.256V72.6672ZM168.256 73.22V75.3196H169.427C169.88 75.3196 170.22 75.2326 170.448 75.0586C170.678 74.882 170.794 74.607 170.794 74.2333C170.794 73.8853 170.676 73.6294 170.44 73.4656C170.208 73.3019 169.852 73.22 169.373 73.22H168.256ZM176.237 73.7689C176.237 74.4547 176.064 74.9908 175.718 75.3772C175.373 75.7611 174.896 75.953 174.287 75.953C173.91 75.953 173.577 75.8647 173.285 75.6881C172.993 75.5116 172.768 75.2582 172.609 74.9281C172.451 74.598 172.371 74.2116 172.371 73.7689C172.371 73.0831 172.543 72.5495 172.886 72.1682C173.228 71.7844 173.704 71.5924 174.313 71.5924C174.902 71.5924 175.369 71.7882 175.715 72.1797C176.063 72.5713 176.237 73.101 176.237 73.7689ZM173.031 73.7689C173.031 74.3063 173.139 74.7157 173.354 74.9972C173.569 75.2787 173.885 75.4194 174.302 75.4194C174.719 75.4194 175.035 75.28 175.25 75.001C175.468 74.7195 175.576 74.3088 175.576 73.7689C175.576 73.234 175.468 72.8284 175.25 72.5521C175.035 72.2731 174.717 72.1337 174.294 72.1337C173.877 72.1337 173.562 72.2706 173.35 72.5444C173.138 72.8182 173.031 73.2264 173.031 73.7689ZM180.989 73.7689C180.989 74.4547 180.816 74.9908 180.47 75.3772C180.125 75.7611 179.648 75.953 179.039 75.953C178.663 75.953 178.329 75.8647 178.037 75.6881C177.745 75.5116 177.52 75.2582 177.361 74.9281C177.203 74.598 177.123 74.2116 177.123 73.7689C177.123 73.0831 177.295 72.5495 177.638 72.1682C177.981 71.7844 178.457 71.5924 179.066 71.5924C179.654 71.5924 180.121 71.7882 180.467 72.1797C180.815 72.5713 180.989 73.101 180.989 73.7689ZM177.784 73.7689C177.784 74.3063 177.891 74.7157 178.106 74.9972C178.321 75.2787 178.637 75.4194 179.054 75.4194C179.471 75.4194 179.787 75.28 180.002 75.001C180.22 74.7195 180.328 74.3088 180.328 73.7689C180.328 73.234 180.22 72.8284 180.002 72.5521C179.787 72.2731 179.469 72.1337 179.046 72.1337C178.629 72.1337 178.315 72.2706 178.102 72.5444C177.89 72.8182 177.784 73.2264 177.784 73.7689ZM182.739 73.7228C182.849 73.5667 183.017 73.362 183.242 73.1087L184.601 71.6692H185.357L183.653 73.4618L185.476 75.8762H184.704L183.219 73.8879L182.739 74.3024V75.8762H182.11V69.9035H182.739V73.0703C182.739 73.211 182.729 73.4285 182.708 73.7228H182.739ZM186.877 75.8762H186.24V71.6692H186.877V75.8762ZM186.186 70.5292C186.186 70.3833 186.222 70.2771 186.293 70.2106C186.365 70.1415 186.455 70.1069 186.562 70.1069C186.665 70.1069 186.753 70.1415 186.827 70.2106C186.901 70.2797 186.938 70.3859 186.938 70.5292C186.938 70.6725 186.901 70.78 186.827 70.8516C186.753 70.9207 186.665 70.9552 186.562 70.9552C186.455 70.9552 186.365 70.9207 186.293 70.8516C186.222 70.78 186.186 70.6725 186.186 70.5292ZM191.107 75.8762V73.1547C191.107 72.8118 191.029 72.5559 190.873 72.387C190.717 72.2181 190.472 72.1337 190.14 72.1337C189.7 72.1337 189.377 72.2527 189.172 72.4907C188.968 72.7286 188.865 73.1214 188.865 73.6691V75.8762H188.228V71.6692H188.746L188.85 72.245H188.881C189.011 72.0377 189.194 71.8778 189.43 71.7652C189.665 71.65 189.927 71.5924 190.216 71.5924C190.723 71.5924 191.104 71.7153 191.36 71.9609C191.616 72.204 191.744 72.5943 191.744 73.1317V75.8762H191.107ZM196.5 71.6692V72.0723L195.721 72.1644C195.793 72.2539 195.857 72.3717 195.913 72.5175C195.969 72.6608 195.997 72.8233 195.997 73.005C195.997 73.417 195.857 73.7458 195.575 73.9915C195.294 74.2372 194.907 74.36 194.416 74.36C194.29 74.36 194.173 74.3498 194.063 74.3293C193.791 74.4726 193.656 74.653 193.656 74.8705C193.656 74.9857 193.703 75.0714 193.798 75.1277C193.892 75.1815 194.055 75.2083 194.285 75.2083H195.03C195.485 75.2083 195.835 75.3043 196.078 75.4962C196.324 75.6881 196.446 75.9671 196.446 76.333C196.446 76.7987 196.26 77.1532 195.886 77.3963C195.512 77.6419 194.967 77.7648 194.251 77.7648C193.701 77.7648 193.276 77.6624 192.976 77.4577C192.679 77.253 192.531 76.9638 192.531 76.5902C192.531 76.3343 192.613 76.1129 192.777 75.9261C192.941 75.7393 193.171 75.6126 193.468 75.5461C193.36 75.4975 193.269 75.422 193.195 75.3196C193.123 75.2173 193.088 75.0983 193.088 74.9627C193.088 74.8091 193.129 74.6748 193.21 74.5596C193.292 74.4445 193.422 74.3331 193.598 74.2257C193.381 74.1361 193.203 73.9838 193.065 73.7689C192.929 73.5539 192.861 73.3083 192.861 73.0319C192.861 72.5713 192.999 72.2168 193.276 71.9686C193.552 71.7178 193.944 71.5924 194.45 71.5924C194.67 71.5924 194.869 71.618 195.045 71.6692H196.5ZM193.145 76.5825C193.145 76.8103 193.241 76.983 193.433 77.1007C193.625 77.2184 193.9 77.2773 194.258 77.2773C194.793 77.2773 195.189 77.1967 195.445 77.0355C195.703 76.8768 195.832 76.6606 195.832 76.3867C195.832 76.159 195.762 76.0003 195.621 75.9108C195.48 75.8238 195.215 75.7803 194.827 75.7803H194.063C193.773 75.7803 193.548 75.8494 193.387 75.9875C193.226 76.1257 193.145 76.324 193.145 76.5825ZM193.491 73.0165C193.491 73.3108 193.574 73.5334 193.74 73.6844C193.907 73.8354 194.138 73.9109 194.435 73.9109C195.057 73.9109 195.368 73.6089 195.368 73.005C195.368 72.3729 195.053 72.0569 194.423 72.0569C194.124 72.0569 193.894 72.1375 193.733 72.2987C193.571 72.4599 193.491 72.6992 193.491 73.0165ZM202.669 74.383C202.669 74.8769 202.489 75.2621 202.131 75.5384C201.773 75.8148 201.287 75.953 200.673 75.953C200.007 75.953 199.495 75.8673 199.137 75.6958V75.0663C199.367 75.1635 199.618 75.2403 199.89 75.2966C200.161 75.3529 200.429 75.3811 200.696 75.3811C201.131 75.3811 201.458 75.2992 201.678 75.1354C201.898 74.9691 202.008 74.7387 202.008 74.4445C202.008 74.25 201.969 74.0913 201.889 73.9685C201.813 73.8431 201.682 73.7279 201.498 73.623C201.316 73.5181 201.038 73.3991 200.665 73.266C200.143 73.0792 199.769 72.8579 199.544 72.602C199.321 72.3461 199.21 72.0121 199.21 71.6001C199.21 71.1676 199.373 70.8235 199.698 70.5676C200.023 70.3117 200.452 70.1837 200.987 70.1837C201.545 70.1837 202.058 70.2861 202.527 70.4908L202.323 71.0589C201.86 70.8644 201.41 70.7672 200.972 70.7672C200.626 70.7672 200.357 70.8414 200.162 70.9898C199.968 71.1382 199.87 71.3442 199.87 71.6078C199.87 71.8023 199.906 71.9622 199.978 72.0876C200.049 72.2104 200.17 72.3243 200.339 72.4292C200.51 72.5316 200.771 72.6455 201.122 72.7709C201.71 72.9807 202.115 73.2059 202.335 73.4464C202.557 73.687 202.669 73.9992 202.669 74.383ZM203.052 71.6692H203.736L204.657 74.0683C204.859 74.6159 204.984 75.0113 205.033 75.2544H205.064C205.097 75.1239 205.166 74.9012 205.271 74.5865C205.379 74.2692 205.727 73.2967 206.315 71.6692H206.998L205.19 76.4597C205.011 76.9331 204.802 77.2683 204.561 77.4654C204.323 77.665 204.03 77.7648 203.682 77.7648C203.487 77.7648 203.296 77.743 203.106 77.6995V77.189C203.247 77.2197 203.404 77.2351 203.578 77.2351C204.016 77.2351 204.328 76.9894 204.515 76.4981L204.749 75.8993L203.052 71.6692ZM210.396 74.7285C210.396 75.12 210.25 75.422 209.958 75.6344C209.666 75.8468 209.257 75.953 208.73 75.953C208.172 75.953 207.737 75.8647 207.424 75.6881V75.097C207.627 75.1994 207.843 75.28 208.073 75.3388C208.306 75.3977 208.53 75.4271 208.745 75.4271C209.078 75.4271 209.334 75.3747 209.513 75.2697C209.692 75.1623 209.781 74.9998 209.781 74.7822C209.781 74.6185 209.71 74.479 209.566 74.3638C209.426 74.2461 209.149 74.1079 208.737 73.9493C208.346 73.8034 208.067 73.6768 207.9 73.5693C207.737 73.4592 207.614 73.3351 207.532 73.1969C207.453 73.0588 207.413 72.8937 207.413 72.7018C207.413 72.3589 207.552 72.0889 207.831 71.8918C208.11 71.6922 208.493 71.5924 208.979 71.5924C209.432 71.5924 209.875 71.6846 210.307 71.8688L210.081 72.387C209.659 72.213 209.276 72.126 208.933 72.126C208.631 72.126 208.403 72.1733 208.25 72.268C208.096 72.3627 208.019 72.4932 208.019 72.6595C208.019 72.7721 208.048 72.8681 208.104 72.9474C208.163 73.0268 208.256 73.1023 208.384 73.1739C208.512 73.2456 208.758 73.3492 209.121 73.4848C209.62 73.6665 209.957 73.8495 210.131 74.0337C210.307 74.218 210.396 74.4496 210.396 74.7285ZM212.795 75.4271C212.907 75.4271 213.016 75.4194 213.121 75.4041C213.226 75.3862 213.309 75.3683 213.37 75.3503V75.8378C213.301 75.8711 213.199 75.898 213.063 75.9184C212.93 75.9415 212.81 75.953 212.702 75.953C211.889 75.953 211.482 75.5244 211.482 74.6671V72.1644H210.879V71.8573L211.482 71.5924L211.75 70.6942H212.119V71.6692H213.34V72.1644H212.119V74.6402C212.119 74.8936 212.179 75.088 212.299 75.2237C212.42 75.3593 212.585 75.4271 212.795 75.4271ZM215.992 75.953C215.37 75.953 214.879 75.7636 214.518 75.3849C214.16 75.0062 213.981 74.4803 213.981 73.8073C213.981 73.1291 214.147 72.5905 214.48 72.1912C214.815 71.792 215.264 71.5924 215.827 71.5924C216.354 71.5924 216.771 71.7665 217.078 72.1145C217.385 72.4599 217.539 72.9167 217.539 73.4848V73.8879H214.641C214.654 74.3818 214.778 74.7567 215.013 75.0126C215.251 75.2685 215.585 75.3964 216.015 75.3964C216.468 75.3964 216.916 75.3017 217.359 75.1124V75.6805C217.133 75.7777 216.92 75.8468 216.718 75.8877C216.518 75.9312 216.276 75.953 215.992 75.953ZM215.819 72.126C215.482 72.126 215.212 72.236 215.009 72.4561C214.81 72.6762 214.692 72.9807 214.656 73.3697H216.856C216.856 72.9679 216.766 72.6608 216.587 72.4484C216.408 72.2335 216.152 72.126 215.819 72.126ZM223.992 75.8762V73.1394C223.992 72.8041 223.92 72.5533 223.777 72.387C223.633 72.2181 223.411 72.1337 223.109 72.1337C222.712 72.1337 222.419 72.2475 222.23 72.4753C222.04 72.7031 221.946 73.0536 221.946 73.5271V75.8762H221.308V73.1394C221.308 72.8041 221.237 72.5533 221.093 72.387C220.95 72.2181 220.726 72.1337 220.422 72.1337C220.022 72.1337 219.729 72.2539 219.543 72.4945C219.358 72.7325 219.266 73.124 219.266 73.6691V75.8762H218.629V71.6692H219.147L219.251 72.245H219.282C219.402 72.0403 219.571 71.8803 219.788 71.7652C220.008 71.65 220.254 71.5924 220.525 71.5924C221.183 71.5924 221.613 71.8304 221.815 72.3064H221.846C221.971 72.0863 222.153 71.9123 222.391 71.7844C222.629 71.6564 222.9 71.5924 223.205 71.5924C223.681 71.5924 224.036 71.7153 224.272 71.9609C224.51 72.204 224.629 72.5943 224.629 73.1317V75.8762H223.992ZM228.659 74.7285C228.659 75.12 228.513 75.422 228.222 75.6344C227.93 75.8468 227.52 75.953 226.993 75.953C226.435 75.953 226 75.8647 225.688 75.6881V75.097C225.89 75.1994 226.107 75.28 226.337 75.3388C226.57 75.3977 226.794 75.4271 227.009 75.4271C227.341 75.4271 227.597 75.3747 227.776 75.2697C227.955 75.1623 228.045 74.9998 228.045 74.7822C228.045 74.6185 227.973 74.479 227.83 74.3638C227.689 74.2461 227.413 74.1079 227.001 73.9493C226.609 73.8034 226.33 73.6768 226.164 73.5693C226 73.4592 225.878 73.3351 225.796 73.1969C225.716 73.0588 225.677 72.8937 225.677 72.7018C225.677 72.3589 225.816 72.0889 226.095 71.8918C226.374 71.6922 226.757 71.5924 227.243 71.5924C227.696 71.5924 228.138 71.6846 228.571 71.8688L228.344 72.387C227.922 72.213 227.54 72.126 227.197 72.126C226.895 72.126 226.667 72.1733 226.513 72.268C226.36 72.3627 226.283 72.4932 226.283 72.6595C226.283 72.7721 226.311 72.8681 226.368 72.9474C226.426 73.0268 226.52 73.1023 226.648 73.1739C226.776 73.2456 227.021 73.3492 227.385 73.4848C227.884 73.6665 228.22 73.8495 228.394 74.0337C228.571 74.218 228.659 74.4496 228.659 74.7285ZM231.035 73.7228C231.035 74.3958 230.935 75.0228 230.736 75.6037C230.539 76.1846 230.253 76.69 229.88 77.1199H229.266C229.621 76.6388 229.894 76.1053 230.083 75.5192C230.273 74.9307 230.367 74.3293 230.367 73.7151C230.367 73.0907 230.274 72.483 230.087 71.8918C229.903 71.3007 229.626 70.7582 229.258 70.2643H229.88C230.256 70.7121 230.543 71.2329 230.74 71.8266C230.937 72.4177 231.035 73.0498 231.035 73.7228Z" fill="#A650FF"/>
<path d="M279.321 28.4516C279.321 28.1259 279.45 27.8134 279.681 27.5831C279.911 27.3527 280.223 27.2233 280.549 27.2233H305.116C305.441 27.2233 305.754 27.3527 305.984 27.5831C306.215 27.8134 306.344 28.1259 306.344 28.4516C306.344 28.7774 306.215 29.0898 305.984 29.3202C305.754 29.5506 305.441 29.68 305.116 29.68H280.549C280.223 29.68 279.911 29.5506 279.681 29.3202C279.45 29.0898 279.321 28.7774 279.321 28.4516ZM307.55 2.65684L307.609 2.6593C308.068 2.69055 308.517 2.80982 308.931 3.0106C309.229 3.14935 309.485 3.36466 309.673 3.63459C309.837 3.88025 310.029 4.31508 310.029 5.11349V19.8313L310.026 19.8902C309.995 20.3492 309.876 20.7979 309.675 21.2119C309.536 21.51 309.321 21.7659 309.051 21.9538C308.806 22.1184 308.371 22.31 307.572 22.31H278.115L278.056 22.3076C277.597 22.2761 277.148 22.1568 276.734 21.9563C276.436 21.8174 276.18 21.6021 275.992 21.3323C275.827 21.0866 275.636 20.6518 275.636 19.8534V5.1356L275.638 5.07664C275.67 4.61763 275.789 4.16891 275.99 3.75496C276.128 3.45691 276.344 3.20093 276.614 3.01306C276.859 2.84846 277.294 2.65684 278.092 2.65684H307.55ZM307.572 0.200195H278.092C273.179 0.200195 273.179 5.11349 273.179 5.11349V19.8534C273.179 24.7667 278.092 24.7667 278.092 24.7667H307.572C312.486 24.7667 312.486 19.8534 312.486 19.8534V5.11349C312.486 0.200195 307.572 0.200195 307.572 0.200195Z" fill="#A650FF"/>
<path d="M260 61.1001H258.426L254.564 54.8428H254.521L254.548 55.1919C254.598 55.8579 254.623 56.4666 254.623 57.0181V61.1001H253.458V53.2476H255.015L258.866 59.4727H258.898C258.891 59.3903 258.877 59.0913 258.855 58.5757C258.834 58.0565 258.823 57.6519 258.823 57.3618V53.2476H260V61.1001ZM267.208 58.1191C267.208 59.0895 266.959 59.8468 266.461 60.3911C265.963 60.9354 265.27 61.2075 264.382 61.2075C263.827 61.2075 263.337 61.0822 262.911 60.8315C262.485 60.5809 262.157 60.221 261.928 59.752C261.699 59.2829 261.584 58.7386 261.584 58.1191C261.584 57.1559 261.831 56.404 262.325 55.8633C262.819 55.3226 263.516 55.0522 264.415 55.0522C265.274 55.0522 265.954 55.3298 266.456 55.8848C266.957 56.4362 267.208 57.181 267.208 58.1191ZM262.884 58.1191C262.884 59.4906 263.39 60.1763 264.404 60.1763C265.406 60.1763 265.908 59.4906 265.908 58.1191C265.908 56.762 265.403 56.0835 264.393 56.0835C263.863 56.0835 263.478 56.259 263.238 56.6099C263.002 56.9608 262.884 57.4639 262.884 58.1191ZM276.747 61.1001H275.479V57.4478C275.479 56.9894 275.386 56.6475 275.2 56.4219C275.017 56.1963 274.725 56.0835 274.324 56.0835C273.791 56.0835 273.4 56.241 273.153 56.5562C272.906 56.8713 272.783 57.3994 272.783 58.1406V61.1001H271.521V55.1597H272.509L272.686 55.9385H272.75C272.93 55.6556 273.184 55.4372 273.513 55.2832C273.843 55.1292 274.208 55.0522 274.609 55.0522C276.034 55.0522 276.747 55.7773 276.747 57.2275V61.1001ZM281.097 61.2075C280.173 61.2075 279.45 60.939 278.927 60.4019C278.408 59.8612 278.148 59.1182 278.148 58.1729C278.148 57.2025 278.39 56.4398 278.874 55.8848C279.357 55.3298 280.021 55.0522 280.866 55.0522C281.65 55.0522 282.27 55.2904 282.725 55.7666C283.179 56.2428 283.407 56.8981 283.407 57.7324V58.4146H279.448C279.466 58.991 279.622 59.4351 279.916 59.7466C280.209 60.0545 280.623 60.2085 281.156 60.2085C281.507 60.2085 281.833 60.1763 282.134 60.1118C282.438 60.0438 282.764 59.9328 283.111 59.7788V60.8047C282.803 60.9515 282.492 61.0553 282.177 61.1162C281.862 61.1771 281.502 61.2075 281.097 61.2075ZM280.866 56.0083C280.465 56.0083 280.143 56.1354 279.899 56.3896C279.66 56.6439 279.516 57.0145 279.47 57.5015H282.166C282.159 57.0109 282.041 56.6403 281.812 56.3896C281.582 56.1354 281.267 56.0083 280.866 56.0083ZM287.435 61.2075C286.511 61.2075 285.788 60.939 285.265 60.4019C284.746 59.8612 284.486 59.1182 284.486 58.1729C284.486 57.2025 284.728 56.4398 285.211 55.8848C285.695 55.3298 286.359 55.0522 287.204 55.0522C287.988 55.0522 288.608 55.2904 289.062 55.7666C289.517 56.2428 289.745 56.8981 289.745 57.7324V58.4146H285.786C285.804 58.991 285.96 59.4351 286.253 59.7466C286.547 60.0545 286.961 60.2085 287.494 60.2085C287.845 60.2085 288.171 60.1763 288.472 60.1118C288.776 60.0438 289.102 59.9328 289.449 59.7788V60.8047C289.141 60.9515 288.83 61.0553 288.515 61.1162C288.2 61.1771 287.84 61.2075 287.435 61.2075ZM287.204 56.0083C286.803 56.0083 286.481 56.1354 286.237 56.3896C285.997 56.6439 285.854 57.0145 285.808 57.5015H288.504C288.497 57.0109 288.379 56.6403 288.149 56.3896C287.92 56.1354 287.605 56.0083 287.204 56.0083ZM293.182 61.2075C292.441 61.2075 291.863 60.939 291.447 60.4019C291.032 59.8647 290.824 59.111 290.824 58.1406C290.824 57.1667 291.034 56.4093 291.453 55.8687C291.875 55.3244 292.459 55.0522 293.204 55.0522C293.984 55.0522 294.579 55.3405 294.987 55.917H295.051C294.99 55.4909 294.96 55.1543 294.96 54.9072V52.7427H296.228V61.1001H295.239L295.019 60.3213H294.96C294.555 60.9121 293.963 61.2075 293.182 61.2075ZM293.521 60.187C294.04 60.187 294.417 60.042 294.654 59.752C294.89 59.4583 295.012 58.9839 295.019 58.3286V58.1514C295.019 57.403 294.897 56.8713 294.654 56.5562C294.41 56.241 294.029 56.0835 293.51 56.0835C293.066 56.0835 292.724 56.2643 292.484 56.626C292.244 56.984 292.124 57.4961 292.124 58.1621C292.124 58.821 292.24 59.3241 292.473 59.6714C292.706 60.0151 293.055 60.187 293.521 60.187ZM303.103 60.187C303.41 60.187 303.718 60.1387 304.026 60.042V60.9927C303.887 61.0535 303.706 61.1037 303.484 61.1431C303.265 61.186 303.038 61.2075 302.802 61.2075C301.606 61.2075 301.008 60.5773 301.008 59.3169V56.1157H300.197V55.5571L301.067 55.0952L301.497 53.8384H302.275V55.1597H303.967V56.1157H302.275V59.2954C302.275 59.5998 302.351 59.8254 302.501 59.9722C302.655 60.1154 302.855 60.187 303.103 60.187ZM310.488 58.1191C310.488 59.0895 310.239 59.8468 309.741 60.3911C309.243 60.9354 308.551 61.2075 307.663 61.2075C307.108 61.2075 306.617 61.0822 306.191 60.8315C305.765 60.5809 305.437 60.221 305.208 59.752C304.979 59.2829 304.864 58.7386 304.864 58.1191C304.864 57.1559 305.111 56.404 305.605 55.8633C306.1 55.3226 306.796 55.0522 307.695 55.0522C308.554 55.0522 309.235 55.3298 309.736 55.8848C310.237 56.4362 310.488 57.181 310.488 58.1191ZM306.164 58.1191C306.164 59.4906 306.671 60.1763 307.684 60.1763C308.687 60.1763 309.188 59.4906 309.188 58.1191C309.188 56.762 308.683 56.0835 307.673 56.0835C307.143 56.0835 306.758 56.259 306.519 56.6099C306.282 56.9608 306.164 57.4639 306.164 58.1191ZM318.99 61.1001L318.813 60.3213H318.749C318.573 60.597 318.322 60.8136 317.997 60.9712C317.674 61.1287 317.306 61.2075 316.89 61.2075C316.17 61.2075 315.633 61.0285 315.279 60.6704C314.924 60.3123 314.747 59.7699 314.747 59.043V55.1597H316.02V58.8228C316.02 59.2775 316.113 59.6195 316.299 59.8486C316.486 60.0742 316.777 60.187 317.175 60.187C317.705 60.187 318.093 60.0295 318.34 59.7144C318.591 59.3957 318.716 58.8639 318.716 58.1191V55.1597H319.984V61.1001H318.99ZM325.774 59.4082C325.774 59.9883 325.563 60.4341 325.14 60.7456C324.718 61.0535 324.112 61.2075 323.325 61.2075C322.533 61.2075 321.898 61.0876 321.418 60.8477V59.7573C322.116 60.0796 322.766 60.2407 323.368 60.2407C324.145 60.2407 324.533 60.0062 324.533 59.5371C324.533 59.3867 324.49 59.2614 324.404 59.1611C324.318 59.0609 324.177 58.957 323.98 58.8496C323.783 58.7422 323.509 58.6204 323.158 58.4844C322.474 58.2194 322.011 57.9544 321.767 57.6895C321.527 57.4245 321.407 57.0807 321.407 56.6582C321.407 56.1497 321.611 55.7559 322.02 55.4766C322.431 55.1937 322.99 55.0522 323.695 55.0522C324.394 55.0522 325.054 55.1937 325.677 55.4766L325.269 56.4272C324.628 56.1623 324.089 56.0298 323.652 56.0298C322.986 56.0298 322.653 56.2196 322.653 56.5991C322.653 56.7853 322.739 56.9429 322.911 57.0718C323.087 57.2007 323.466 57.3779 324.05 57.6035C324.54 57.7933 324.897 57.967 325.119 58.1245C325.341 58.2821 325.505 58.4647 325.613 58.6724C325.72 58.8765 325.774 59.1217 325.774 59.4082ZM329.738 61.2075C328.814 61.2075 328.091 60.939 327.568 60.4019C327.049 59.8612 326.789 59.1182 326.789 58.1729C326.789 57.2025 327.031 56.4398 327.514 55.8848C327.998 55.3298 328.662 55.0522 329.507 55.0522C330.291 55.0522 330.91 55.2904 331.365 55.7666C331.82 56.2428 332.047 56.8981 332.047 57.7324V58.4146H328.089C328.107 58.991 328.263 59.4351 328.556 59.7466C328.85 60.0545 329.263 60.2085 329.797 60.2085C330.148 60.2085 330.474 60.1763 330.774 60.1118C331.079 60.0438 331.405 59.9328 331.752 59.7788V60.8047C331.444 60.9515 331.132 61.0553 330.817 61.1162C330.502 61.1771 330.142 61.2075 329.738 61.2075ZM329.507 56.0083C329.106 56.0083 328.784 56.1354 328.54 56.3896C328.3 56.6439 328.157 57.0145 328.11 57.5015H330.807C330.799 57.0109 330.681 56.6403 330.452 56.3896C330.223 56.1354 329.908 56.0083 329.507 56.0083ZM263.088 74.1001H261.799V70.5605H258.179V74.1001H256.895V66.2476H258.179V69.4595H261.799V66.2476H263.088V74.1001ZM270.291 71.1191C270.291 72.0895 270.042 72.8468 269.544 73.3911C269.046 73.9354 268.353 74.2075 267.465 74.2075C266.91 74.2075 266.42 74.0822 265.994 73.8315C265.568 73.5809 265.24 73.221 265.011 72.752C264.782 72.2829 264.667 71.7386 264.667 71.1191C264.667 70.1559 264.914 69.404 265.408 68.8633C265.902 68.3226 266.599 68.0522 267.498 68.0522C268.357 68.0522 269.037 68.3298 269.539 68.8848C270.04 69.4362 270.291 70.181 270.291 71.1191ZM265.967 71.1191C265.967 72.4906 266.473 73.1763 267.487 73.1763C268.489 73.1763 268.991 72.4906 268.991 71.1191C268.991 69.762 268.486 69.0835 267.476 69.0835C266.946 69.0835 266.561 69.259 266.321 69.6099C266.085 69.9608 265.967 70.4639 265.967 71.1191ZM275.737 72.4082C275.737 72.9883 275.526 73.4341 275.103 73.7456C274.681 74.0535 274.075 74.2075 273.288 74.2075C272.496 74.2075 271.861 74.0876 271.381 73.8477V72.7573C272.079 73.0796 272.729 73.2407 273.331 73.2407C274.108 73.2407 274.496 73.0062 274.496 72.5371C274.496 72.3867 274.453 72.2614 274.367 72.1611C274.281 72.0609 274.14 71.957 273.943 71.8496C273.746 71.7422 273.472 71.6204 273.121 71.4844C272.437 71.2194 271.973 70.9544 271.73 70.6895C271.49 70.4245 271.37 70.0807 271.37 69.6582C271.37 69.1497 271.574 68.7559 271.982 68.4766C272.394 68.1937 272.953 68.0522 273.658 68.0522C274.356 68.0522 275.017 68.1937 275.64 68.4766L275.232 69.4272C274.591 69.1623 274.052 69.0298 273.615 69.0298C272.949 69.0298 272.616 69.2196 272.616 69.5991C272.616 69.7853 272.702 69.9429 272.874 70.0718C273.049 70.2007 273.429 70.3779 274.013 70.6035C274.503 70.7933 274.86 70.967 275.082 71.1245C275.304 71.2821 275.468 71.4647 275.576 71.6724C275.683 71.8765 275.737 72.1217 275.737 72.4082ZM280.12 74.2075C279.368 74.2075 278.784 73.9372 278.369 73.3965H278.293C278.344 73.8978 278.369 74.2021 278.369 74.3096V76.7427H277.106V68.1597H278.127C278.156 68.2707 278.215 68.5356 278.304 68.9546H278.369C278.763 68.353 279.353 68.0522 280.141 68.0522C280.882 68.0522 281.459 68.3208 281.871 68.8579C282.286 69.395 282.494 70.1488 282.494 71.1191C282.494 72.0895 282.282 72.8468 281.86 73.3911C281.441 73.9354 280.861 74.2075 280.12 74.2075ZM279.813 69.0835C279.312 69.0835 278.945 69.2303 278.712 69.5239C278.483 69.8175 278.369 70.2866 278.369 70.9312V71.1191C278.369 71.8424 278.483 72.367 278.712 72.6929C278.942 73.0151 279.316 73.1763 279.835 73.1763C280.272 73.1763 280.608 72.9972 280.845 72.6392C281.081 72.2811 281.199 71.7708 281.199 71.1084C281.199 70.4424 281.081 69.9393 280.845 69.5991C280.612 69.2554 280.268 69.0835 279.813 69.0835ZM285.222 74.1001H283.96V68.1597H285.222V74.1001ZM283.885 66.5859C283.885 66.3604 283.946 66.1867 284.067 66.0649C284.193 65.9432 284.37 65.8823 284.599 65.8823C284.821 65.8823 284.993 65.9432 285.115 66.0649C285.24 66.1867 285.303 66.3604 285.303 66.5859C285.303 66.8008 285.24 66.9709 285.115 67.0962C284.993 67.2179 284.821 67.2788 284.599 67.2788C284.37 67.2788 284.193 67.2179 284.067 67.0962C283.946 66.9709 283.885 66.8008 283.885 66.5859ZM289.245 73.187C289.553 73.187 289.861 73.1387 290.169 73.042V73.9927C290.029 74.0535 289.848 74.1037 289.626 74.1431C289.408 74.186 289.181 74.2075 288.944 74.2075C287.748 74.2075 287.15 73.5773 287.15 72.3169V69.1157H286.339V68.5571L287.209 68.0952L287.639 66.8384H288.418V68.1597H290.11V69.1157H288.418V72.2954C288.418 72.5998 288.493 72.8254 288.644 72.9722C288.798 73.1154 288.998 73.187 289.245 73.187ZM295.078 74.1001L294.826 73.2729H294.783C294.496 73.6346 294.208 73.8817 293.918 74.0142C293.628 74.1431 293.256 74.2075 292.801 74.2075C292.217 74.2075 291.761 74.05 291.431 73.7349C291.105 73.4198 290.942 72.974 290.942 72.3975C290.942 71.7852 291.17 71.3232 291.625 71.0117C292.079 70.7002 292.772 70.5301 293.703 70.5015L294.729 70.4692V70.1523C294.729 69.7728 294.639 69.4899 294.46 69.3037C294.285 69.1139 294.011 69.019 293.639 69.019C293.334 69.019 293.042 69.0638 292.763 69.1533C292.484 69.2428 292.215 69.3485 291.958 69.4702L291.549 68.5679C291.872 68.3996 292.224 68.2725 292.607 68.1865C292.991 68.097 293.352 68.0522 293.692 68.0522C294.448 68.0522 295.017 68.217 295.4 68.5464C295.787 68.8758 295.98 69.3932 295.98 70.0986V74.1001H295.078ZM293.198 73.2407C293.657 73.2407 294.024 73.1136 294.299 72.8594C294.579 72.6016 294.718 72.2417 294.718 71.7798V71.2642L293.956 71.2964C293.361 71.3179 292.928 71.4181 292.656 71.5972C292.387 71.7726 292.253 72.043 292.253 72.4082C292.253 72.6732 292.332 72.8791 292.489 73.0259C292.647 73.1691 292.883 73.2407 293.198 73.2407ZM299.004 74.1001H297.742V65.7427H299.004V74.1001ZM302.077 74.1001H300.814V68.1597H302.077V74.1001ZM300.739 66.5859C300.739 66.3604 300.8 66.1867 300.922 66.0649C301.047 65.9432 301.224 65.8823 301.454 65.8823C301.676 65.8823 301.847 65.9432 301.969 66.0649C302.095 66.1867 302.157 66.3604 302.157 66.5859C302.157 66.8008 302.095 66.9709 301.969 67.0962C301.847 67.2179 301.676 67.2788 301.454 67.2788C301.224 67.2788 301.047 67.2179 300.922 67.0962C300.8 66.9709 300.739 66.8008 300.739 66.5859ZM306.1 73.187C306.408 73.187 306.715 73.1387 307.023 73.042V73.9927C306.884 74.0535 306.703 74.1037 306.481 74.1431C306.263 74.186 306.035 74.2075 305.799 74.2075C304.603 74.2075 304.005 73.5773 304.005 72.3169V69.1157H303.194V68.5571L304.064 68.0952L304.494 66.8384H305.272V68.1597H306.964V69.1157H305.272V72.2954C305.272 72.5998 305.348 72.8254 305.498 72.9722C305.652 73.1154 305.853 73.187 306.1 73.187ZM307.313 68.1597H308.688L309.897 71.5273C310.08 72.0072 310.201 72.4583 310.262 72.8809H310.305C310.337 72.6839 310.396 72.4458 310.482 72.1665C310.568 71.8836 311.023 70.548 311.847 68.1597H313.211L310.67 74.8896C310.208 76.125 309.439 76.7427 308.361 76.7427C308.082 76.7427 307.809 76.7122 307.544 76.6514V75.6523C307.734 75.6953 307.951 75.7168 308.194 75.7168C308.803 75.7168 309.231 75.3641 309.478 74.6587L309.698 74.1001L307.313 68.1597ZM319.817 74.1001H318.534V67.3486H316.224V66.2476H322.127V67.3486H319.817V74.1001ZM327.81 66.2476H329.142L326.392 74.1001H325.038L322.299 66.2476H323.62L325.258 71.1299C325.344 71.3626 325.436 71.6634 325.532 72.0322C325.629 72.3975 325.692 72.6696 325.72 72.8486C325.767 72.5765 325.838 72.2614 325.935 71.9033C326.032 71.5452 326.111 71.2803 326.171 71.1084L327.81 66.2476Z" fill="#A650FF"/>
</svg>
