<svg width="772" height="153" viewBox="0 0 772 153" fill="none" xmlns="http://www.w3.org/2000/svg">
<g opacity="0.8" clip-path="url(#clip0_127_87)">
<g filter="url(#filter0_dd_127_87)">
<path d="M16.6667 86.6667H13.3334C11.5653 86.6667 9.86961 85.9643 8.61937 84.714C7.36913 83.4638 6.66675 81.7681 6.66675 80V46.6667C6.66675 44.8986 7.36913 43.2029 8.61937 41.9526C9.86961 40.7024 11.5653 40 13.3334 40H66.6668C68.4349 40 70.1306 40.7024 71.3808 41.9526C72.631 43.2029 73.3334 44.8986 73.3334 46.6667V80C73.3334 81.7681 72.631 83.4638 71.3808 84.714C70.1306 85.9643 68.4349 86.6667 66.6668 86.6667H63.3334" stroke="#A650FF" stroke-width="7" stroke-linecap="round" stroke-linejoin="round"/>
</g>
<path d="M40 83.3333L60 99.9999H20L40 83.3333Z" stroke="#A650FF" stroke-width="7" stroke-linecap="round" stroke-linejoin="round"/>
</g>
<path d="M26.6045 149H24.3193L22.1396 141.336C22.0459 141.002 21.9287 140.521 21.7881 139.895C21.6475 139.262 21.5625 138.822 21.5332 138.576C21.4746 138.951 21.3779 139.438 21.2432 140.035C21.1143 140.633 21.0059 141.078 20.918 141.371L18.791 149H16.5059L14.8447 142.566L13.1572 136.15H15.3018L17.1387 143.639C17.4258 144.84 17.6309 145.9 17.7539 146.82C17.8184 146.322 17.915 145.766 18.0439 145.15C18.1729 144.535 18.29 144.037 18.3955 143.656L20.4873 136.15H22.5703L24.7148 143.691C24.9199 144.389 25.1367 145.432 25.3652 146.82C25.4531 145.982 25.6641 144.916 25.998 143.621L27.8262 136.15H29.9531L26.6045 149ZM37.6436 149L37.2305 147.646H37.1602C36.6914 148.238 36.2197 148.643 35.7451 148.859C35.2705 149.07 34.6611 149.176 33.917 149.176C32.9619 149.176 32.2148 148.918 31.6758 148.402C31.1426 147.887 30.876 147.157 30.876 146.214C30.876 145.212 31.248 144.456 31.9922 143.946C32.7363 143.437 33.8701 143.158 35.3936 143.111L37.0723 143.059V142.54C37.0723 141.919 36.9258 141.456 36.6328 141.151C36.3457 140.841 35.8975 140.686 35.2881 140.686C34.79 140.686 34.3125 140.759 33.8555 140.905C33.3984 141.052 32.959 141.225 32.5371 141.424L31.8691 139.947C32.3965 139.672 32.9736 139.464 33.6006 139.323C34.2275 139.177 34.8193 139.104 35.376 139.104C36.6123 139.104 37.5439 139.373 38.1709 139.912C38.8037 140.451 39.1201 141.298 39.1201 142.452V149H37.6436ZM34.5674 147.594C35.3174 147.594 35.918 147.386 36.3691 146.97C36.8262 146.548 37.0547 145.959 37.0547 145.203V144.359L35.8066 144.412C34.834 144.447 34.125 144.611 33.6797 144.904C33.2402 145.191 33.0205 145.634 33.0205 146.231C33.0205 146.665 33.1494 147.002 33.4072 147.242C33.665 147.477 34.0518 147.594 34.5674 147.594ZM45.624 147.506C46.1279 147.506 46.6318 147.427 47.1357 147.269V148.824C46.9072 148.924 46.6113 149.006 46.248 149.07C45.8906 149.141 45.5186 149.176 45.1318 149.176C43.1748 149.176 42.1963 148.145 42.1963 146.082V140.844H40.8691V139.93L42.293 139.174L42.9961 137.117H44.2705V139.279H47.0391V140.844H44.2705V146.047C44.2705 146.545 44.3936 146.914 44.6396 147.154C44.8916 147.389 45.2197 147.506 45.624 147.506ZM53.0068 149.176C51.5361 149.176 50.417 148.748 49.6494 147.893C48.8877 147.031 48.5068 145.798 48.5068 144.192C48.5068 142.558 48.9053 141.301 49.7021 140.422C50.5049 139.543 51.6621 139.104 53.1738 139.104C54.1992 139.104 55.1221 139.294 55.9424 139.675L55.3184 141.336C54.4453 140.996 53.7246 140.826 53.1562 140.826C51.4746 140.826 50.6338 141.942 50.6338 144.175C50.6338 145.265 50.8418 146.085 51.2578 146.636C51.6797 147.181 52.2949 147.453 53.1035 147.453C54.0234 147.453 54.8936 147.225 55.7139 146.768V148.569C55.3447 148.786 54.9492 148.941 54.5273 149.035C54.1113 149.129 53.6045 149.176 53.0068 149.176ZM66.5508 149H64.4766V143.023C64.4766 142.273 64.3242 141.714 64.0195 141.345C63.7207 140.976 63.2432 140.791 62.5869 140.791C61.7197 140.791 61.0811 141.052 60.6709 141.573C60.2666 142.089 60.0645 142.956 60.0645 144.175V149H57.999V135.324H60.0645V138.796C60.0645 139.353 60.0293 139.947 59.959 140.58H60.0908C60.3721 140.111 60.7617 139.748 61.2598 139.49C61.7637 139.232 62.3496 139.104 63.0176 139.104C65.373 139.104 66.5508 140.29 66.5508 142.663V149Z" fill="white"/>
<g filter="url(#filter1_dd_127_87)">
<path d="M358.693 30.6103C348.753 30.684 339.196 34.4529 331.88 41.1836C315.607 56.1003 314.66 81.4502 329.573 97.7236C330.253 98.5369 331.067 99.2136 331.88 100.03C332.085 100.174 332.335 100.24 332.585 100.215C332.834 100.191 333.067 100.078 333.24 99.8969L335.007 97.8636C335.202 97.6642 335.312 97.3961 335.312 97.1169C335.312 96.8377 335.202 96.5696 335.007 96.3702C320.767 83.2169 319.81 60.8436 333.1 46.6069C346.39 32.3703 368.63 31.4236 382.867 44.7136C397.103 58.0002 398.05 80.2303 384.76 94.4702C384.083 95.1469 383.543 95.8269 382.867 96.3702C382.672 96.5695 382.564 96.8369 382.564 97.1152C382.564 97.3936 382.672 97.661 382.867 97.8602L384.633 99.8969C384.833 100.079 385.086 100.19 385.354 100.214C385.623 100.238 385.892 100.174 386.12 100.03C402.393 84.9769 403.34 59.7603 388.427 43.4903C384.646 39.3848 380.047 36.1174 374.925 33.8989C369.804 31.6804 364.274 30.5601 358.693 30.6103ZM359.983 42.3369C352.404 42.0805 345.031 44.8358 339.477 50.0002C327.95 60.7102 327.277 78.7436 337.987 90.2669C338.393 90.6769 338.797 91.2169 339.34 91.6236C339.539 91.8188 339.806 91.9282 340.085 91.9282C340.364 91.9282 340.631 91.8188 340.83 91.6236L342.597 89.5903C342.79 89.3912 342.898 89.1245 342.898 88.8469C342.898 88.5693 342.79 88.3027 342.597 88.1036C340.212 85.854 338.309 83.1435 337.003 80.1365C335.698 77.1294 335.016 73.8885 335 70.6102C335 57.4569 345.707 46.7436 358.86 46.7436C372.013 46.7436 382.727 57.5869 382.727 70.7402C382.722 73.9884 382.058 77.2019 380.776 80.1863C379.494 83.1707 377.62 85.8641 375.267 88.1036C375.072 88.3024 374.962 88.5699 374.962 88.8486C374.962 89.1272 375.072 89.3948 375.267 89.5936L377.03 91.6269C377.437 92.0303 378.113 92.1669 378.52 91.7603C384.041 86.572 387.283 79.4092 387.538 71.8375C387.792 64.2659 385.039 56.9013 379.88 51.3536C377.326 48.6075 374.251 46.3964 370.835 44.8485C367.419 43.3007 363.729 42.4469 359.98 42.3369H359.983ZM359.097 53.3903C354.514 53.3256 350.093 55.0791 346.8 58.2669C339.883 64.9102 339.75 75.7569 346.393 82.6736L346.797 83.0836C346.996 83.2788 347.263 83.3882 347.542 83.3882C347.82 83.3882 348.088 83.2788 348.287 83.0836L350.053 81.0469C350.249 80.8475 350.358 80.5795 350.358 80.3002C350.358 80.021 350.249 79.753 350.053 79.5536C347.704 77.1704 346.389 73.9569 346.393 70.6102C346.389 68.971 346.709 67.347 347.334 65.8317C347.959 64.3164 348.878 62.9396 350.037 61.7805C351.196 60.6213 352.573 59.7027 354.088 59.0774C355.604 58.4521 357.228 58.1325 358.867 58.1369C360.506 58.1325 362.13 58.4521 363.645 59.0774C365.161 59.7027 366.537 60.6213 367.697 61.7805C368.856 62.9396 369.774 64.3164 370.4 65.8317C371.025 67.347 371.345 68.971 371.34 70.6102C371.34 74.0002 369.987 77.1136 367.543 79.5536C367.348 79.753 367.239 80.021 367.239 80.3002C367.239 80.5795 367.348 80.8475 367.543 81.0469L369.31 83.0802C369.509 83.2747 369.777 83.3835 370.055 83.3835C370.334 83.3835 370.601 83.2747 370.8 83.0802C374.079 79.8921 375.962 75.5358 376.039 70.9632C376.116 66.3906 374.38 61.9734 371.21 58.6769C369.643 57.0362 367.766 55.7237 365.687 54.8161C363.608 53.9084 361.368 53.4237 359.1 53.3903H359.097ZM359.117 79.2036C358.625 79.1954 358.148 79.3687 357.777 79.6902L357.643 79.8269L333.78 106.677C333.507 107.006 333.369 107.427 333.395 107.854C333.42 108.281 333.607 108.682 333.917 108.977C334.17 109.225 334.506 109.372 334.86 109.39H382.727C383.157 109.385 383.568 109.212 383.872 108.908C384.177 108.604 384.351 108.194 384.357 107.764C384.369 107.363 384.224 106.973 383.953 106.677L360.353 79.8269C360.204 79.6409 360.017 79.4889 359.804 79.3814C359.592 79.2739 359.358 79.2132 359.12 79.2036H359.117Z" fill="#A650FF"/>
</g>
<path d="M333.979 149V136.15H336.079V147.198H341.52V149H333.979ZM345.58 149H343.515V139.279H345.58V149ZM343.392 136.704C343.392 136.335 343.491 136.051 343.69 135.852C343.896 135.652 344.186 135.553 344.561 135.553C344.924 135.553 345.205 135.652 345.404 135.852C345.609 136.051 345.712 136.335 345.712 136.704C345.712 137.056 345.609 137.334 345.404 137.539C345.205 137.738 344.924 137.838 344.561 137.838C344.186 137.838 343.896 137.738 343.69 137.539C343.491 137.334 343.392 137.056 343.392 136.704ZM355.072 146.231C355.072 147.181 354.727 147.91 354.035 148.42C353.344 148.924 352.354 149.176 351.064 149.176C349.77 149.176 348.729 148.979 347.944 148.587V146.803C349.087 147.33 350.15 147.594 351.135 147.594C352.406 147.594 353.042 147.21 353.042 146.442C353.042 146.196 352.972 145.991 352.831 145.827C352.69 145.663 352.459 145.493 352.137 145.317C351.814 145.142 351.366 144.942 350.792 144.72C349.673 144.286 348.914 143.853 348.516 143.419C348.123 142.985 347.927 142.423 347.927 141.731C347.927 140.899 348.261 140.255 348.929 139.798C349.603 139.335 350.517 139.104 351.671 139.104C352.813 139.104 353.895 139.335 354.914 139.798L354.246 141.354C353.197 140.92 352.315 140.703 351.601 140.703C350.511 140.703 349.966 141.014 349.966 141.635C349.966 141.939 350.106 142.197 350.388 142.408C350.675 142.619 351.296 142.909 352.251 143.278C353.054 143.589 353.637 143.873 354 144.131C354.363 144.389 354.633 144.688 354.809 145.027C354.984 145.361 355.072 145.763 355.072 146.231ZM360.935 147.506C361.438 147.506 361.942 147.427 362.446 147.269V148.824C362.218 148.924 361.922 149.006 361.559 149.07C361.201 149.141 360.829 149.176 360.442 149.176C358.485 149.176 357.507 148.145 357.507 146.082V140.844H356.18V139.93L357.604 139.174L358.307 137.117H359.581V139.279H362.35V140.844H359.581V146.047C359.581 146.545 359.704 146.914 359.95 147.154C360.202 147.389 360.53 147.506 360.935 147.506ZM368.643 149.176C367.131 149.176 365.947 148.736 365.092 147.857C364.242 146.973 363.817 145.757 363.817 144.21C363.817 142.622 364.213 141.374 365.004 140.466C365.795 139.558 366.882 139.104 368.265 139.104C369.548 139.104 370.562 139.493 371.306 140.272C372.05 141.052 372.422 142.124 372.422 143.489V144.605H365.944C365.974 145.549 366.229 146.275 366.709 146.785C367.189 147.289 367.866 147.541 368.739 147.541C369.313 147.541 369.847 147.488 370.339 147.383C370.837 147.271 371.37 147.09 371.938 146.838V148.517C371.435 148.757 370.925 148.927 370.409 149.026C369.894 149.126 369.305 149.176 368.643 149.176ZM368.265 140.668C367.608 140.668 367.081 140.876 366.683 141.292C366.29 141.708 366.056 142.314 365.979 143.111H370.392C370.38 142.309 370.187 141.702 369.812 141.292C369.437 140.876 368.921 140.668 368.265 140.668ZM383.32 149H381.246V143.023C381.246 142.273 381.094 141.714 380.789 141.345C380.49 140.976 380.013 140.791 379.356 140.791C378.483 140.791 377.845 141.049 377.44 141.564C377.036 142.08 376.834 142.944 376.834 144.157V149H374.769V139.279H376.386L376.676 140.554H376.781C377.074 140.091 377.49 139.733 378.029 139.481C378.568 139.229 379.166 139.104 379.822 139.104C382.154 139.104 383.32 140.29 383.32 142.663V149Z" fill="white"/>
<g opacity="0.8" filter="url(#filter2_dd_127_87)">
<rect x="640.5" y="32.5" width="69" height="57" rx="7.5" stroke="#A650FF" stroke-width="5"/>
<rect x="678.5" y="44.5" width="69" height="57" rx="7.5" stroke="#A650FF" stroke-width="5"/>
</g>
<path d="M678.154 145.511C678.154 146.653 677.741 147.55 676.915 148.2C676.089 148.851 674.949 149.176 673.496 149.176C672.043 149.176 670.854 148.95 669.928 148.499V146.513C670.514 146.788 671.135 147.005 671.791 147.163C672.453 147.321 673.068 147.4 673.637 147.4C674.469 147.4 675.081 147.242 675.474 146.926C675.872 146.609 676.071 146.185 676.071 145.651C676.071 145.171 675.89 144.764 675.526 144.43C675.163 144.096 674.413 143.7 673.276 143.243C672.104 142.769 671.278 142.227 670.798 141.617C670.317 141.008 670.077 140.275 670.077 139.42C670.077 138.348 670.458 137.504 671.22 136.889C671.981 136.273 673.004 135.966 674.287 135.966C675.518 135.966 676.742 136.235 677.961 136.774L677.293 138.488C676.15 138.008 675.131 137.768 674.234 137.768C673.555 137.768 673.039 137.917 672.688 138.216C672.336 138.509 672.16 138.898 672.16 139.385C672.16 139.719 672.23 140.006 672.371 140.246C672.512 140.48 672.743 140.703 673.065 140.914C673.388 141.125 673.968 141.403 674.806 141.749C675.749 142.142 676.44 142.508 676.88 142.848C677.319 143.188 677.642 143.571 677.847 143.999C678.052 144.427 678.154 144.931 678.154 145.511ZM688.974 149H686.899V143.023C686.899 142.273 686.747 141.714 686.442 141.345C686.144 140.976 685.666 140.791 685.01 140.791C684.143 140.791 683.504 141.052 683.094 141.573C682.689 142.089 682.487 142.956 682.487 144.175V149H680.422V135.324H682.487V138.796C682.487 139.353 682.452 139.947 682.382 140.58H682.514C682.795 140.111 683.185 139.748 683.683 139.49C684.187 139.232 684.772 139.104 685.44 139.104C687.796 139.104 688.974 140.29 688.974 142.663V149ZM697.93 149L697.517 147.646H697.446C696.978 148.238 696.506 148.643 696.031 148.859C695.557 149.07 694.947 149.176 694.203 149.176C693.248 149.176 692.501 148.918 691.962 148.402C691.429 147.887 691.162 147.157 691.162 146.214C691.162 145.212 691.534 144.456 692.278 143.946C693.022 143.437 694.156 143.158 695.68 143.111L697.358 143.059V142.54C697.358 141.919 697.212 141.456 696.919 141.151C696.632 140.841 696.184 140.686 695.574 140.686C695.076 140.686 694.599 140.759 694.142 140.905C693.685 141.052 693.245 141.225 692.823 141.424L692.155 139.947C692.683 139.672 693.26 139.464 693.887 139.323C694.514 139.177 695.105 139.104 695.662 139.104C696.898 139.104 697.83 139.373 698.457 139.912C699.09 140.451 699.406 141.298 699.406 142.452V149H697.93ZM694.854 147.594C695.604 147.594 696.204 147.386 696.655 146.97C697.112 146.548 697.341 145.959 697.341 145.203V144.359L696.093 144.412C695.12 144.447 694.411 144.611 693.966 144.904C693.526 145.191 693.307 145.634 693.307 146.231C693.307 146.665 693.436 147.002 693.693 147.242C693.951 147.477 694.338 147.594 694.854 147.594ZM707.22 139.104C707.636 139.104 707.979 139.133 708.248 139.191L708.046 141.116C707.753 141.046 707.448 141.011 707.132 141.011C706.306 141.011 705.635 141.28 705.119 141.819C704.609 142.358 704.354 143.059 704.354 143.92V149H702.289V139.279H703.906L704.179 140.993H704.284C704.606 140.413 705.025 139.953 705.541 139.613C706.062 139.273 706.622 139.104 707.22 139.104ZM714.304 149.176C712.792 149.176 711.608 148.736 710.753 147.857C709.903 146.973 709.479 145.757 709.479 144.21C709.479 142.622 709.874 141.374 710.665 140.466C711.456 139.558 712.543 139.104 713.926 139.104C715.209 139.104 716.223 139.493 716.967 140.272C717.711 141.052 718.083 142.124 718.083 143.489V144.605H711.605C711.635 145.549 711.89 146.275 712.37 146.785C712.851 147.289 713.527 147.541 714.4 147.541C714.975 147.541 715.508 147.488 716 147.383C716.498 147.271 717.031 147.09 717.6 146.838V148.517C717.096 148.757 716.586 148.927 716.07 149.026C715.555 149.126 714.966 149.176 714.304 149.176ZM713.926 140.668C713.27 140.668 712.742 140.876 712.344 141.292C711.951 141.708 711.717 142.314 711.641 143.111H716.053C716.041 142.309 715.848 141.702 715.473 141.292C715.098 140.876 714.582 140.668 713.926 140.668Z" fill="white"/>
<defs>
<filter id="filter0_dd_127_87" x="-9.83325" y="6.5" width="108.667" height="96.6667" filterUnits="userSpaceOnUse" color-interpolation-filters="sRGB">
<feFlood flood-opacity="0" result="BackgroundImageFix"/>
<feColorMatrix in="SourceAlpha" type="matrix" values="0 0 0 0 0 0 0 0 0 0 0 0 0 0 0 0 0 0 127 0" result="hardAlpha"/>
<feOffset dx="3" dy="-14"/>
<feGaussianBlur stdDeviation="8"/>
<feColorMatrix type="matrix" values="0 0 0 0 0.120833 0 0 0 0 0.120833 0 0 0 0 0.120833 0 0 0 1 0"/>
<feBlend mode="normal" in2="BackgroundImageFix" result="effect1_dropShadow_127_87"/>
<feColorMatrix in="SourceAlpha" type="matrix" values="0 0 0 0 0 0 0 0 0 0 0 0 0 0 0 0 0 0 127 0" result="hardAlpha"/>
<feOffset dx="13" dy="4"/>
<feGaussianBlur stdDeviation="4.5"/>
<feColorMatrix type="matrix" values="0 0 0 0 0 0 0 0 0 0 0 0 0 0 0 0 0 0 1 0"/>
<feBlend mode="normal" in2="effect1_dropShadow_127_87" result="effect2_dropShadow_127_87"/>
<feBlend mode="normal" in="SourceGraphic" in2="effect2_dropShadow_127_87" result="shape"/>
</filter>
<filter id="filter1_dd_127_87" x="306" y="0.608643" width="115" height="121.781" filterUnits="userSpaceOnUse" color-interpolation-filters="sRGB">
<feFlood flood-opacity="0" result="BackgroundImageFix"/>
<feColorMatrix in="SourceAlpha" type="matrix" values="0 0 0 0 0 0 0 0 0 0 0 0 0 0 0 0 0 0 127 0" result="hardAlpha"/>
<feOffset dx="3" dy="-14"/>
<feGaussianBlur stdDeviation="8"/>
<feColorMatrix type="matrix" values="0 0 0 0 0.120833 0 0 0 0 0.120833 0 0 0 0 0.120833 0 0 0 1 0"/>
<feBlend mode="normal" in2="BackgroundImageFix" result="effect1_dropShadow_127_87"/>
<feColorMatrix in="SourceAlpha" type="matrix" values="0 0 0 0 0 0 0 0 0 0 0 0 0 0 0 0 0 0 127 0" result="hardAlpha"/>
<feOffset dx="13" dy="4"/>
<feGaussianBlur stdDeviation="4.5"/>
<feColorMatrix type="matrix" values="0 0 0 0 0 0 0 0 0 0 0 0 0 0 0 0 0 0 1 0"/>
<feBlend mode="normal" in2="effect1_dropShadow_127_87" result="effect2_dropShadow_127_87"/>
<feBlend mode="normal" in="SourceGraphic" in2="effect2_dropShadow_127_87" result="shape"/>
</filter>
<filter id="filter2_dd_127_87" x="625" y="0" width="147" height="117" filterUnits="userSpaceOnUse" color-interpolation-filters="sRGB">
<feFlood flood-opacity="0" result="BackgroundImageFix"/>
<feColorMatrix in="SourceAlpha" type="matrix" values="0 0 0 0 0 0 0 0 0 0 0 0 0 0 0 0 0 0 127 0" result="hardAlpha"/>
<feOffset dx="3" dy="-14"/>
<feGaussianBlur stdDeviation="8"/>
<feColorMatrix type="matrix" values="0 0 0 0 0.120833 0 0 0 0 0.120833 0 0 0 0 0.120833 0 0 0 1 0"/>
<feBlend mode="normal" in2="BackgroundImageFix" result="effect1_dropShadow_127_87"/>
<feColorMatrix in="SourceAlpha" type="matrix" values="0 0 0 0 0 0 0 0 0 0 0 0 0 0 0 0 0 0 127 0" result="hardAlpha"/>
<feOffset dx="13" dy="4"/>
<feGaussianBlur stdDeviation="4.5"/>
<feColorMatrix type="matrix" values="0 0 0 0 0 0 0 0 0 0 0 0 0 0 0 0 0 0 1 0"/>
<feBlend mode="normal" in2="effect1_dropShadow_127_87" result="effect2_dropShadow_127_87"/>
<feBlend mode="normal" in="SourceGraphic" in2="effect2_dropShadow_127_87" result="shape"/>
</filter>
<clipPath id="clip0_127_87">
<rect width="80" height="80" fill="white" transform="translate(0 30)"/>
</clipPath>
</defs>
</svg>
