<svg width="341" height="100" viewBox="0 0 341 100" fill="none" xmlns="http://www.w3.org/2000/svg">
<g opacity="0.8">
<path d="M13.5415 46.0417H10.8332C9.39658 46.0417 8.01883 45.471 7.00301 44.4552C5.98719 43.4393 5.4165 42.0616 5.4165 40.625V13.5417C5.4165 12.1051 5.98719 10.7273 7.00301 9.7115C8.01883 8.69568 9.39658 8.125 10.8332 8.125H54.1665C55.6031 8.125 56.9809 8.69568 57.9967 9.7115C59.0125 10.7273 59.5832 12.1051 59.5832 13.5417V40.625C59.5832 42.0616 59.0125 43.4393 57.9967 44.4552C56.9809 45.471 55.6031 46.0417 54.1665 46.0417H51.4582" stroke="#A650FF" stroke-width="5.69106" stroke-linecap="round" stroke-linejoin="round"/>
<path d="M32.5 43.3333L48.75 56.8749H16.25L32.5 43.3333Z" stroke="#A650FF" stroke-width="5.69106" stroke-linecap="round" stroke-linejoin="round"/>
</g>
<path d="M22.2028 97H20.345L18.5729 90.7691C18.4967 90.4975 18.4014 90.1069 18.2871 89.5972C18.1727 89.0827 18.1037 88.7254 18.0798 88.5253C18.0322 88.8302 17.9536 89.2256 17.844 89.7115C17.7392 90.1974 17.6511 90.5595 17.5796 90.7976L15.8504 97H13.9926L12.6421 91.7694L11.2701 86.5532H13.0136L14.507 92.6412C14.7405 93.6178 14.9072 94.48 15.0072 95.2279C15.0596 94.823 15.1382 94.3704 15.243 93.8702C15.3478 93.37 15.4431 92.9651 15.5289 92.6555L17.2295 86.5532H18.923L20.6665 92.6841C20.8333 93.251 21.0095 94.0989 21.1953 95.2279C21.2668 94.5467 21.4383 93.6797 21.7098 92.6269L23.1961 86.5532H24.9253L22.2028 97ZM31.1777 97L30.8418 95.8996H30.7847C30.4036 96.3807 30.0201 96.7094 29.6342 96.8857C29.2484 97.0572 28.753 97.1429 28.148 97.1429C27.3715 97.1429 26.7641 96.9333 26.3258 96.5141C25.8923 96.0949 25.6756 95.5018 25.6756 94.7349C25.6756 93.9203 25.9781 93.3057 26.5831 92.8913C27.1881 92.4768 28.1099 92.2506 29.3484 92.2125L30.7132 92.1696V91.748C30.7132 91.243 30.5941 90.8667 30.3559 90.619C30.1225 90.3665 29.7581 90.2403 29.2627 90.2403C28.8578 90.2403 28.4695 90.2998 28.0979 90.4189C27.7264 90.538 27.3691 90.6785 27.0261 90.8405L26.483 89.6401C26.9118 89.4162 27.381 89.247 27.8907 89.1327C28.4004 89.0136 28.8816 88.9541 29.3341 88.9541C30.3393 88.9541 31.0967 89.1732 31.6064 89.6115C32.1209 90.0497 32.3781 90.7381 32.3781 91.6765V97H31.1777ZM28.6767 95.8567C29.2865 95.8567 29.7748 95.6876 30.1416 95.3494C30.5131 95.0064 30.6989 94.5276 30.6989 93.9131V93.2271L29.6843 93.27C28.8935 93.2986 28.3171 93.432 27.955 93.6702C27.5978 93.9036 27.4191 94.2632 27.4191 94.7491C27.4191 95.1017 27.5239 95.3756 27.7335 95.5709C27.9431 95.7614 28.2575 95.8567 28.6767 95.8567ZM37.6659 95.7853C38.0756 95.7853 38.4852 95.7209 38.8949 95.5923V96.8571C38.7091 96.9381 38.4686 97.0048 38.1732 97.0572C37.8826 97.1143 37.5801 97.1429 37.2657 97.1429C35.6746 97.1429 34.8791 96.3045 34.8791 94.6277V90.3689H33.8001V89.6258L34.9577 89.0112L35.5293 87.3392H36.5655V89.097H38.8163V90.3689H36.5655V94.5991C36.5655 95.004 36.6655 95.3041 36.8656 95.4994C37.0704 95.69 37.3372 95.7853 37.6659 95.7853ZM43.6682 97.1429C42.4725 97.1429 41.5626 96.7952 40.9385 96.0997C40.3193 95.3994 40.0096 94.3966 40.0096 93.0914C40.0096 91.7623 40.3336 90.7405 40.9814 90.0259C41.6341 89.3114 42.5749 88.9541 43.8039 88.9541C44.6376 88.9541 45.3879 89.1089 46.0548 89.4185L45.5474 90.7691C44.8377 90.4928 44.2517 90.3546 43.7896 90.3546C42.4224 90.3546 41.7389 91.2621 41.7389 93.0771C41.7389 93.9631 41.908 94.63 42.2462 95.0778C42.5892 95.5209 43.0894 95.7424 43.7468 95.7424C44.4947 95.7424 45.2021 95.5566 45.869 95.185V96.6499C45.5689 96.8261 45.2473 96.9524 44.9043 97.0286C44.5661 97.1048 44.1541 97.1429 43.6682 97.1429ZM54.6795 97H52.9931V92.141C52.9931 91.5312 52.8693 91.0763 52.6216 90.7762C52.3786 90.4761 51.9904 90.326 51.4568 90.326C50.7518 90.326 50.2326 90.538 49.8991 90.962C49.5704 91.3812 49.4061 92.0862 49.4061 93.0771V97H47.7268V85.8815H49.4061V88.704C49.4061 89.1565 49.3775 89.6401 49.3203 90.1545H49.4275C49.6562 89.7734 49.9729 89.4781 50.3779 89.2685C50.7875 89.0589 51.2639 88.9541 51.807 88.9541C53.722 88.9541 54.6795 89.9187 54.6795 91.848V97Z" fill="white"/>
<path d="M157.271 0.496182C149.189 0.556175 141.419 3.62027 135.472 9.09239C122.241 21.2198 121.472 41.8295 133.596 55.0599C134.149 55.7211 134.81 56.2712 135.472 56.9352C135.639 57.0521 135.842 57.1054 136.045 57.0855C136.247 57.0656 136.436 56.9739 136.577 56.8268L138.014 55.1737C138.173 55.0116 138.262 54.7936 138.262 54.5666C138.262 54.3396 138.173 54.1217 138.014 53.9596C126.436 43.2658 125.659 25.0761 136.464 13.5016C147.268 1.92708 165.35 1.15743 176.924 11.9623C188.499 22.7645 189.268 40.8376 178.464 52.4149C177.913 52.965 177.474 53.5179 176.924 53.9596C176.766 54.1216 176.678 54.3389 176.678 54.5653C176.678 54.7916 176.766 55.009 176.924 55.171L178.361 56.8268C178.522 56.9745 178.728 57.065 178.947 57.0846C179.165 57.1042 179.384 57.0517 179.569 56.9352C192.8 44.6967 193.569 24.1954 181.445 10.9677C178.371 7.62993 174.631 4.97354 170.468 3.1699C166.304 1.36626 161.808 0.455436 157.271 0.496182ZM158.32 10.0301C152.157 9.82161 146.163 12.0617 141.648 16.2604C132.277 24.9677 131.729 39.629 140.436 48.9975C140.767 49.3309 141.095 49.7699 141.537 50.1005C141.698 50.2592 141.916 50.3482 142.142 50.3482C142.369 50.3482 142.586 50.2592 142.748 50.1005L144.184 48.4474C144.342 48.2855 144.43 48.0687 144.43 47.8431C144.43 47.6174 144.342 47.4006 144.184 47.2387C142.246 45.4098 140.699 43.2061 139.637 40.7614C138.575 38.3167 138.021 35.6818 138.008 33.0165C138.008 22.3227 146.713 13.6127 157.407 13.6127C168.1 13.6127 176.81 22.4284 176.81 33.1222C176.806 35.763 176.267 38.3755 175.224 40.8019C174.182 43.2282 172.658 45.418 170.745 47.2387C170.587 47.4004 170.498 47.6179 170.498 47.8444C170.498 48.071 170.587 48.2885 170.745 48.4501L172.179 50.1032C172.51 50.4311 173.06 50.5422 173.39 50.2116C177.879 45.9935 180.514 40.1701 180.722 34.0143C180.929 27.8585 178.691 21.871 174.496 17.3607C172.419 15.1281 169.92 13.3304 167.142 12.072C164.365 10.8136 161.365 10.1195 158.317 10.0301H158.32ZM157.599 19.0165C153.873 18.9639 150.279 20.3895 147.602 22.9813C141.978 28.3824 141.87 37.2008 147.271 42.8241L147.599 43.1574C147.761 43.3162 147.978 43.4051 148.205 43.4051C148.431 43.4051 148.649 43.3162 148.81 43.1574L150.247 41.5016C150.406 41.3395 150.495 41.1215 150.495 40.8946C150.495 40.6676 150.406 40.4496 150.247 40.2875C148.337 38.35 147.267 35.7373 147.271 33.0165C147.268 31.6838 147.527 30.3635 148.036 29.1315C148.544 27.8995 149.291 26.7802 150.233 25.8378C151.176 24.8954 152.295 24.1486 153.527 23.6402C154.759 23.1319 156.079 22.872 157.412 22.8756C158.745 22.872 160.065 23.1319 161.297 23.6402C162.529 24.1486 163.648 24.8954 164.591 25.8378C165.533 26.7802 166.28 27.8995 166.788 29.1315C167.297 30.3635 167.557 31.6838 167.553 33.0165C167.553 35.7726 166.453 38.3038 164.466 40.2875C164.307 40.4496 164.218 40.6676 164.218 40.8946C164.218 41.1215 164.307 41.3395 164.466 41.5016L165.903 43.1547C166.065 43.3128 166.282 43.4013 166.508 43.4013C166.735 43.4013 166.952 43.3128 167.114 43.1547C169.78 40.5627 171.311 37.021 171.373 33.3034C171.436 29.5859 170.024 25.9947 167.447 23.3146C166.174 21.9807 164.647 20.9137 162.957 20.1757C161.266 19.4378 159.446 19.0437 157.602 19.0165H157.599ZM157.615 40.003C157.216 39.9963 156.828 40.1372 156.526 40.3986L156.417 40.5097L137.016 62.339C136.794 62.6067 136.682 62.9487 136.703 63.2959C136.724 63.6431 136.875 63.9694 137.127 64.2089C137.334 64.4106 137.606 64.5301 137.894 64.545H176.81C177.16 64.5407 177.494 64.4002 177.742 64.1531C177.989 63.9061 178.131 63.5721 178.136 63.2225C178.145 62.8966 178.028 62.5797 177.808 62.339L158.621 40.5097C158.5 40.3585 158.347 40.2349 158.174 40.1475C158.001 40.0601 157.812 40.0108 157.618 40.003H157.615Z" fill="#A650FF"/>
<path d="M137.564 97V86.5532H139.272V95.5352H143.695V97H137.564ZM146.996 97H145.317V89.097H146.996V97ZM145.217 87.0033C145.217 86.7032 145.298 86.4722 145.46 86.3102C145.626 86.1482 145.862 86.0673 146.167 86.0673C146.462 86.0673 146.691 86.1482 146.853 86.3102C147.02 86.4722 147.103 86.7032 147.103 87.0033C147.103 87.2892 147.02 87.5154 146.853 87.6822C146.691 87.8441 146.462 87.9251 146.167 87.9251C145.862 87.9251 145.626 87.8441 145.46 87.6822C145.298 87.5154 145.217 87.2892 145.217 87.0033ZM154.713 94.7491C154.713 95.5209 154.432 96.1139 153.87 96.5284C153.308 96.9381 152.503 97.1429 151.455 97.1429C150.402 97.1429 149.556 96.9833 148.918 96.6642V95.2136C149.847 95.6423 150.712 95.8567 151.512 95.8567C152.546 95.8567 153.063 95.5447 153.063 94.9206C153.063 94.7206 153.005 94.5538 152.891 94.4204C152.777 94.2871 152.589 94.1489 152.327 94.006C152.065 93.8631 151.7 93.7011 151.233 93.5201C150.323 93.1676 149.707 92.8151 149.383 92.4626C149.063 92.11 148.904 91.6527 148.904 91.0906C148.904 90.4142 149.175 89.8901 149.718 89.5186C150.266 89.1422 151.009 88.9541 151.948 88.9541C152.877 88.9541 153.756 89.1422 154.585 89.5186L154.042 90.7833C153.189 90.4308 152.472 90.2546 151.891 90.2546C151.005 90.2546 150.562 90.5071 150.562 91.012C150.562 91.2597 150.676 91.4693 150.905 91.6408C151.138 91.8123 151.643 92.0481 152.419 92.3482C153.072 92.6007 153.546 92.8317 153.841 93.0413C154.137 93.251 154.356 93.4939 154.499 93.7702C154.642 94.0417 154.713 94.368 154.713 94.7491ZM159.479 95.7853C159.889 95.7853 160.299 95.7209 160.708 95.5923V96.8571C160.523 96.9381 160.282 97.0048 159.987 97.0572C159.696 97.1143 159.394 97.1429 159.079 97.1429C157.488 97.1429 156.693 96.3045 156.693 94.6277V90.3689H155.614V89.6258L156.771 89.0112L157.343 87.3392H158.379V89.097H160.63V90.3689H158.379V94.5991C158.379 95.004 158.479 95.3041 158.679 95.4994C158.884 95.69 159.151 95.7853 159.479 95.7853ZM165.746 97.1429C164.517 97.1429 163.555 96.7856 162.859 96.0711C162.168 95.3518 161.823 94.3633 161.823 93.1057C161.823 91.8147 162.145 90.8 162.788 90.0616C163.431 89.3233 164.314 88.9541 165.439 88.9541C166.482 88.9541 167.306 89.2709 167.911 89.9044C168.516 90.538 168.819 91.4098 168.819 92.5197V93.4272H163.552C163.576 94.1942 163.783 94.7849 164.174 95.1993C164.565 95.609 165.115 95.8138 165.825 95.8138C166.291 95.8138 166.725 95.771 167.125 95.6852C167.53 95.5947 167.964 95.447 168.426 95.2422V96.607C168.016 96.8023 167.601 96.9405 167.182 97.0214C166.763 97.1024 166.284 97.1429 165.746 97.1429ZM165.439 90.226C164.905 90.226 164.476 90.3951 164.153 90.7333C163.833 91.0716 163.643 91.5646 163.581 92.2125H167.168C167.158 91.5598 167.001 91.0668 166.696 90.7333C166.391 90.3951 165.972 90.226 165.439 90.226ZM177.679 97H175.993V92.141C175.993 91.5312 175.869 91.0763 175.621 90.7762C175.378 90.4761 174.99 90.326 174.456 90.326C173.747 90.326 173.227 90.5356 172.899 90.9548C172.57 91.374 172.406 92.0767 172.406 93.0628V97H170.726V89.097H172.041L172.277 90.1331H172.363C172.601 89.7568 172.939 89.4662 173.377 89.2613C173.816 89.0565 174.302 88.9541 174.835 88.9541C176.731 88.9541 177.679 89.9187 177.679 91.848V97Z" fill="white"/>
<g opacity="0.8">
<rect x="252.074" y="2.03252" width="55.935" height="45.935" rx="6.09756" stroke="#A650FF" stroke-width="4.06504"/>
<rect x="283.033" y="12.0325" width="55.935" height="45.935" rx="6.09756" stroke="#A650FF" stroke-width="4.06504"/>
</g>
<path d="M282.617 94.1632C282.617 95.0921 282.281 95.821 281.609 96.3498C280.937 96.8785 280.011 97.1429 278.829 97.1429C277.648 97.1429 276.681 96.9595 275.928 96.5927V94.9778C276.405 95.2017 276.91 95.378 277.443 95.5066C277.981 95.6352 278.482 95.6995 278.944 95.6995C279.62 95.6995 280.118 95.5709 280.437 95.3136C280.761 95.0564 280.923 94.711 280.923 94.2775C280.923 93.8869 280.775 93.5558 280.48 93.2843C280.185 93.0128 279.575 92.6912 278.651 92.3196C277.698 91.9338 277.026 91.4931 276.636 90.9977C276.245 90.5023 276.05 89.9068 276.05 89.2113C276.05 88.3396 276.359 87.6536 276.979 87.1534C277.598 86.6532 278.429 86.4031 279.472 86.4031C280.473 86.4031 281.468 86.6222 282.459 87.0605L281.916 88.4539C280.987 88.0633 280.158 87.8679 279.43 87.8679C278.877 87.8679 278.458 87.9894 278.172 88.2324C277.886 88.4706 277.743 88.7873 277.743 89.1827C277.743 89.4543 277.8 89.6877 277.915 89.883C278.029 90.0736 278.217 90.2546 278.479 90.4261C278.741 90.5976 279.213 90.8238 279.894 91.1049C280.661 91.4241 281.223 91.7218 281.58 91.9981C281.938 92.2744 282.2 92.5864 282.366 92.9342C282.533 93.2819 282.617 93.6916 282.617 94.1632ZM291.413 97H289.726V92.141C289.726 91.5312 289.603 91.0763 289.355 90.7762C289.112 90.4761 288.724 90.326 288.19 90.326C287.485 90.326 286.966 90.538 286.632 90.962C286.304 91.3812 286.139 92.0862 286.139 93.0771V97H284.46V85.8815H286.139V88.704C286.139 89.1565 286.111 89.6401 286.054 90.1545H286.161C286.389 89.7734 286.706 89.4781 287.111 89.2685C287.521 89.0589 287.997 88.9541 288.54 88.9541C290.455 88.9541 291.413 89.9187 291.413 91.848V97ZM298.694 97L298.358 95.8996H298.301C297.92 96.3807 297.536 96.7094 297.151 96.8857C296.765 97.0572 296.269 97.1429 295.664 97.1429C294.888 97.1429 294.28 96.9333 293.842 96.5141C293.409 96.0949 293.192 95.5018 293.192 94.7349C293.192 93.9203 293.494 93.3057 294.099 92.8913C294.704 92.4768 295.626 92.2506 296.865 92.2125L298.23 92.1696V91.748C298.23 91.243 298.111 90.8667 297.872 90.619C297.639 90.3665 297.274 90.2403 296.779 90.2403C296.374 90.2403 295.986 90.2998 295.614 90.4189C295.243 90.538 294.885 90.6785 294.542 90.8405L293.999 89.6401C294.428 89.4162 294.897 89.247 295.407 89.1327C295.917 89.0136 296.398 88.9541 296.851 88.9541C297.856 88.9541 298.613 89.1732 299.123 89.6115C299.637 90.0497 299.895 90.7381 299.895 91.6765V97H298.694ZM296.193 95.8567C296.803 95.8567 297.291 95.6876 297.658 95.3494C298.03 95.0064 298.215 94.5276 298.215 93.9131V93.2271L297.201 93.27C296.41 93.2986 295.833 93.432 295.471 93.6702C295.114 93.9036 294.935 94.2632 294.935 94.7491C294.935 95.1017 295.04 95.3756 295.25 95.5709C295.46 95.7614 295.774 95.8567 296.193 95.8567ZM306.247 88.9541C306.585 88.9541 306.864 88.9779 307.083 89.0255L306.919 90.5904C306.68 90.5333 306.433 90.5047 306.175 90.5047C305.504 90.5047 304.958 90.7238 304.539 91.1621C304.125 91.6003 303.917 92.1696 303.917 92.8699V97H302.238V89.097H303.553L303.775 90.4904H303.86C304.122 90.0188 304.463 89.6448 304.882 89.3685C305.306 89.0922 305.761 88.9541 306.247 88.9541ZM312.006 97.1429C310.777 97.1429 309.815 96.7856 309.119 96.0711C308.429 95.3518 308.083 94.3633 308.083 93.1057C308.083 91.8147 308.405 90.8 309.048 90.0616C309.691 89.3233 310.575 88.9541 311.699 88.9541C312.742 88.9541 313.566 89.2709 314.171 89.9044C314.776 90.538 315.079 91.4098 315.079 92.5197V93.4272H309.813C309.836 94.1942 310.044 94.7849 310.434 95.1993C310.825 95.609 311.375 95.8138 312.085 95.8138C312.552 95.8138 312.985 95.771 313.385 95.6852C313.79 95.5947 314.224 95.447 314.686 95.2422V96.607C314.276 96.8023 313.862 96.9405 313.443 97.0214C313.023 97.1024 312.545 97.1429 312.006 97.1429ZM311.699 90.226C311.165 90.226 310.737 90.3951 310.413 90.7333C310.094 91.0716 309.903 91.5646 309.841 92.2125H313.428C313.419 91.5598 313.262 91.0668 312.957 90.7333C312.652 90.3951 312.233 90.226 311.699 90.226Z" fill="white"/>
</svg>
