<svg width="519" height="151" viewBox="0 0 519 151" fill="none" xmlns="http://www.w3.org/2000/svg">
<path d="M34 7.05882C34 5.18671 34.7437 3.39127 36.0675 2.06748C37.3913 0.743695 39.1867 0 41.0588 0H83.4118C85.2839 0 87.0793 0.743695 88.4031 2.06748C89.7269 3.39127 90.4706 5.18671 90.4706 7.05882V11.5341C89.3982 10.913 88.1805 10.5866 86.9412 10.5882V7.05882C86.9412 6.12277 86.5693 5.22505 85.9074 4.56315C85.2455 3.90126 84.3478 3.52941 83.4118 3.52941H41.0588C40.1228 3.52941 39.225 3.90126 38.5632 4.56315C37.9013 5.22505 37.5294 6.12277 37.5294 7.05882V31.7647C37.5294 32.7008 37.9013 33.5985 38.5632 34.2604C39.225 34.9223 40.1228 35.2941 41.0588 35.2941H69.2941V35.9259C69.2938 36.9248 69.5055 37.9125 69.9153 38.8235H41.0588C39.1867 38.8235 37.3913 38.0798 36.0675 36.756C34.7437 35.4323 34 33.6368 34 31.7647V7.05882ZM74.5882 45.5824L72.2765 42.3529H46.3529C45.8849 42.3529 45.4361 42.5389 45.1051 42.8698C44.7742 43.2008 44.5882 43.6496 44.5882 44.1176C44.5882 44.5857 44.7742 45.0345 45.1051 45.3655C45.4361 45.6964 45.8849 45.8824 46.3529 45.8824H74.5882V45.5824ZM76.3529 17.6471V24.7059C75.4169 24.7059 74.5192 25.0777 73.8573 25.7396C73.1954 26.4015 72.8235 27.2992 72.8235 28.2353V35.9259C72.8237 36.6627 73.0545 37.381 73.4835 37.98L78.1176 44.4494V49.4118C78.1176 50.3478 78.4895 51.2455 79.1514 51.9074C79.8133 52.5693 80.711 52.9412 81.6471 52.9412H85.1765C86.1125 52.9412 87.0103 52.5693 87.6721 51.9074C88.334 51.2455 88.7059 50.3478 88.7059 49.4118V44.4494L93.3259 38.0965C93.7642 37.4933 94.0001 36.7668 94 36.0212V28.2353C94 27.2992 93.6282 26.4015 92.9663 25.7396C92.3044 25.0777 91.4066 24.7059 90.4706 24.7059V17.6471C90.4706 16.711 90.0987 15.8133 89.4369 15.1514C88.775 14.4895 87.8772 14.1176 86.9412 14.1176H79.8824C78.9463 14.1176 78.0486 14.4895 77.3867 15.1514C76.7248 15.8133 76.3529 16.711 76.3529 17.6471ZM86.9412 24.7059H79.8824V17.6471H86.9412V24.7059Z" fill="#A650FF"/>
<path d="M4.01562 97H1.93262V84.1504H9.18359V85.9258H4.01562V89.9424H8.8584V91.7266H4.01562V97ZM18.1484 97L17.8584 95.7256H17.7529C17.4658 96.1768 17.0557 96.5312 16.5225 96.7891C15.9951 97.0469 15.3916 97.1758 14.7119 97.1758C13.5342 97.1758 12.6553 96.8828 12.0752 96.2969C11.4951 95.7109 11.2051 94.8232 11.2051 93.6338V87.2793H13.2881V93.2734C13.2881 94.0176 13.4404 94.5771 13.7451 94.9521C14.0498 95.3213 14.5273 95.5059 15.1777 95.5059C16.0449 95.5059 16.6807 95.248 17.085 94.7324C17.4951 94.2109 17.7002 93.3408 17.7002 92.1221V87.2793H19.7744V97H18.1484ZM24.7842 97H22.7188V83.3242H24.7842V97ZM29.8115 97H27.7461V83.3242H29.8115V97ZM42.1074 97H40.0068V85.9521H36.2275V84.1504H45.8867V85.9521H42.1074V97ZM55.1855 84.1504H57.3652L52.8652 97H50.6504L46.168 84.1504H48.3301L51.0107 92.1396C51.1514 92.5205 51.3008 93.0127 51.459 93.6162C51.6172 94.2139 51.7197 94.6592 51.7666 94.9521C51.8428 94.5068 51.96 93.9912 52.1182 93.4053C52.2764 92.8193 52.4053 92.3857 52.5049 92.1045L55.1855 84.1504ZM69.2041 85.7676C67.9971 85.7676 67.0479 86.1953 66.3564 87.0508C65.665 87.9062 65.3193 89.0869 65.3193 90.5928C65.3193 92.1689 65.6504 93.3613 66.3125 94.1699C66.9805 94.9785 67.9443 95.3828 69.2041 95.3828C69.749 95.3828 70.2764 95.3301 70.7861 95.2246C71.2959 95.1133 71.8262 94.9727 72.377 94.8027V96.6045C71.3691 96.9854 70.2266 97.1758 68.9492 97.1758C67.0684 97.1758 65.624 96.6074 64.6162 95.4707C63.6084 94.3281 63.1045 92.6963 63.1045 90.5752C63.1045 89.2393 63.3477 88.0703 63.834 87.0684C64.3262 86.0664 65.0352 85.2988 65.9609 84.7656C66.8867 84.2324 67.9736 83.9658 69.2217 83.9658C70.5342 83.9658 71.7471 84.2412 72.8604 84.792L72.1045 86.541C71.6709 86.3359 71.2109 86.1572 70.7246 86.0049C70.2441 85.8467 69.7373 85.7676 69.2041 85.7676ZM83.5479 92.1221C83.5479 93.71 83.1406 94.9492 82.3262 95.8398C81.5117 96.7305 80.3779 97.1758 78.9248 97.1758C78.0166 97.1758 77.2139 96.9707 76.5166 96.5605C75.8193 96.1504 75.2832 95.5615 74.9082 94.7939C74.5332 94.0264 74.3457 93.1357 74.3457 92.1221C74.3457 90.5459 74.75 89.3154 75.5586 88.4307C76.3672 87.5459 77.5068 87.1035 78.9775 87.1035C80.3838 87.1035 81.4971 87.5576 82.3174 88.4658C83.1377 89.3682 83.5479 90.5869 83.5479 92.1221ZM76.4727 92.1221C76.4727 94.3662 77.3018 95.4883 78.96 95.4883C80.6006 95.4883 81.4209 94.3662 81.4209 92.1221C81.4209 89.9014 80.5947 88.791 78.9424 88.791C78.0752 88.791 77.4453 89.0781 77.0527 89.6523C76.666 90.2266 76.4727 91.0498 76.4727 92.1221ZM94.4814 97H92.4072V91.0234C92.4072 90.2734 92.2549 89.7139 91.9502 89.3447C91.6514 88.9756 91.1738 88.791 90.5176 88.791C89.6445 88.791 89.0059 89.0488 88.6016 89.5645C88.1973 90.0801 87.9951 90.9443 87.9951 92.1572V97H85.9297V87.2793H87.5469L87.8369 88.5537H87.9424C88.2354 88.0908 88.6514 87.7334 89.1904 87.4814C89.7295 87.2295 90.3271 87.1035 90.9834 87.1035C93.3154 87.1035 94.4814 88.29 94.4814 90.6631V97ZM100.977 95.5059C101.48 95.5059 101.984 95.4268 102.488 95.2686V96.8242C102.26 96.9238 101.964 97.0059 101.601 97.0703C101.243 97.1406 100.871 97.1758 100.484 97.1758C98.5273 97.1758 97.5488 96.1445 97.5488 94.082V88.8438H96.2217V87.9297L97.6455 87.1738L98.3486 85.1172H99.623V87.2793H102.392V88.8438H99.623V94.0469C99.623 94.5449 99.7461 94.9141 99.9922 95.1543C100.244 95.3887 100.572 95.5059 100.977 95.5059ZM109.37 87.1035C109.786 87.1035 110.129 87.1328 110.398 87.1914L110.196 89.1162C109.903 89.0459 109.599 89.0107 109.282 89.0107C108.456 89.0107 107.785 89.2803 107.27 89.8193C106.76 90.3584 106.505 91.0586 106.505 91.9199V97H104.439V87.2793H106.057L106.329 88.9932H106.435C106.757 88.4131 107.176 87.9531 107.691 87.6133C108.213 87.2734 108.772 87.1035 109.37 87.1035ZM120.831 92.1221C120.831 93.71 120.424 94.9492 119.609 95.8398C118.795 96.7305 117.661 97.1758 116.208 97.1758C115.3 97.1758 114.497 96.9707 113.8 96.5605C113.103 96.1504 112.566 95.5615 112.191 94.7939C111.816 94.0264 111.629 93.1357 111.629 92.1221C111.629 90.5459 112.033 89.3154 112.842 88.4307C113.65 87.5459 114.79 87.1035 116.261 87.1035C117.667 87.1035 118.78 87.5576 119.601 88.4658C120.421 89.3682 120.831 90.5869 120.831 92.1221ZM113.756 92.1221C113.756 94.3662 114.585 95.4883 116.243 95.4883C117.884 95.4883 118.704 94.3662 118.704 92.1221C118.704 89.9014 117.878 88.791 116.226 88.791C115.358 88.791 114.729 89.0781 114.336 89.6523C113.949 90.2266 113.756 91.0498 113.756 92.1221ZM125.278 97H123.213V83.3242H125.278V97Z" fill="#A650FF"/>
<path d="M233.108 5.39124C230.61 5.39124 228.215 6.42542 226.449 8.26628C224.683 10.1071 223.691 12.6039 223.691 15.2072V29.2301C223.691 31.8335 224.683 34.3302 226.449 36.1711C228.215 38.0119 230.61 39.0461 233.108 39.0461H246.561C249.058 39.0461 251.453 38.0119 253.219 36.1711C254.985 34.3302 255.978 31.8335 255.978 29.2301V22.2187C255.978 21.8468 256.119 21.4901 256.372 21.2271C256.624 20.9641 256.966 20.8164 257.323 20.8164C257.68 20.8164 258.022 20.9641 258.274 21.2271C258.526 21.4901 258.668 21.8468 258.668 22.2187V29.2301C258.668 32.5773 257.393 35.7874 255.122 38.1542C252.851 40.521 249.772 41.8507 246.561 41.8507H233.108C229.896 41.8507 226.817 40.521 224.546 38.1542C222.276 35.7874 221 32.5773 221 29.2301V15.2072C221 11.8601 222.276 8.64997 224.546 6.28315C226.817 3.91633 229.896 2.58667 233.108 2.58667H239.834C240.191 2.58667 240.533 2.73441 240.785 2.99739C241.038 3.26037 241.179 3.61705 241.179 3.98896C241.179 4.36087 241.038 4.71754 240.785 4.98052C240.533 5.2435 240.191 5.39124 239.834 5.39124H233.108Z" fill="#A650FF"/>
<path d="M281 19.632C281 24.8387 279.016 29.8322 275.484 33.5139C271.952 37.1956 267.161 39.264 262.166 39.264C257.171 39.264 252.38 37.1956 248.848 33.5139C245.316 29.8322 243.332 24.8387 243.332 19.632C243.332 14.4253 245.316 9.4318 248.848 5.75008C252.38 2.06837 257.171 0 262.166 0C267.161 0 271.952 2.06837 275.484 5.75008C279.016 9.4318 281 14.4253 281 19.632Z" fill="#A650FF"/>
<path d="M179.73 94.8506H177.647V82.001H184.898V83.7764H179.73V87.793H184.573V89.5771H179.73V94.8506ZM193.863 94.8506L193.573 93.5762H193.468C193.181 94.0273 192.771 94.3818 192.237 94.6396C191.71 94.8975 191.106 95.0264 190.427 95.0264C189.249 95.0264 188.37 94.7334 187.79 94.1475C187.21 93.5615 186.92 92.6738 186.92 91.4844V85.1299H189.003V91.124C189.003 91.8682 189.155 92.4277 189.46 92.8027C189.765 93.1719 190.242 93.3564 190.893 93.3564C191.76 93.3564 192.396 93.0986 192.8 92.583C193.21 92.0615 193.415 91.1914 193.415 89.9727V85.1299H195.489V94.8506H193.863ZM200.499 94.8506H198.434V81.1748H200.499V94.8506ZM205.526 94.8506H203.461V81.1748H205.526V94.8506ZM207.012 85.1299H209.262L211.239 90.6406C211.538 91.4258 211.737 92.1641 211.837 92.8555H211.907C211.96 92.5332 212.057 92.1436 212.197 91.6865C212.338 91.2236 213.082 89.0381 214.43 85.1299H216.662L212.505 96.1426C211.749 98.1641 210.489 99.1748 208.726 99.1748C208.269 99.1748 207.823 99.125 207.39 99.0254V97.3906C207.7 97.4609 208.055 97.4961 208.453 97.4961C209.449 97.4961 210.149 96.9189 210.554 95.7646L210.914 94.8506L207.012 85.1299ZM231.006 94.8506L229.723 91.2822H224.81L223.553 94.8506H221.338L226.146 81.9482H228.431L233.238 94.8506H231.006ZM229.169 89.4717L227.965 85.9736C227.877 85.7393 227.754 85.3701 227.596 84.8662C227.443 84.3623 227.338 83.9932 227.279 83.7588C227.121 84.4795 226.89 85.2676 226.585 86.123L225.425 89.4717H229.169ZM241.57 94.8506L241.28 93.5762H241.175C240.888 94.0273 240.478 94.3818 239.944 94.6396C239.417 94.8975 238.813 95.0264 238.134 95.0264C236.956 95.0264 236.077 94.7334 235.497 94.1475C234.917 93.5615 234.627 92.6738 234.627 91.4844V85.1299H236.71V91.124C236.71 91.8682 236.862 92.4277 237.167 92.8027C237.472 93.1719 237.949 93.3564 238.6 93.3564C239.467 93.3564 240.103 93.0986 240.507 92.583C240.917 92.0615 241.122 91.1914 241.122 89.9727V85.1299H243.196V94.8506H241.57ZM249.762 93.3564C250.266 93.3564 250.77 93.2773 251.273 93.1191V94.6748C251.045 94.7744 250.749 94.8564 250.386 94.9209C250.028 94.9912 249.656 95.0264 249.27 95.0264C247.312 95.0264 246.334 93.9951 246.334 91.9326V86.6943H245.007V85.7803L246.431 85.0244L247.134 82.9678H248.408V85.1299H251.177V86.6943H248.408V91.8975C248.408 92.3955 248.531 92.7646 248.777 93.0049C249.029 93.2393 249.357 93.3564 249.762 93.3564ZM261.847 89.9727C261.847 91.5605 261.439 92.7998 260.625 93.6904C259.811 94.5811 258.677 95.0264 257.224 95.0264C256.315 95.0264 255.513 94.8213 254.815 94.4111C254.118 94.001 253.582 93.4121 253.207 92.6445C252.832 91.877 252.645 90.9863 252.645 89.9727C252.645 88.3965 253.049 87.166 253.857 86.2812C254.666 85.3965 255.806 84.9541 257.276 84.9541C258.683 84.9541 259.796 85.4082 260.616 86.3164C261.437 87.2188 261.847 88.4375 261.847 89.9727ZM254.771 89.9727C254.771 92.2168 255.601 93.3389 257.259 93.3389C258.899 93.3389 259.72 92.2168 259.72 89.9727C259.72 87.752 258.894 86.6416 257.241 86.6416C256.374 86.6416 255.744 86.9287 255.352 87.5029C254.965 88.0771 254.771 88.9004 254.771 89.9727ZM272.42 94.8506H270.346V88.8564C270.346 88.1123 270.205 87.5586 269.924 87.1953C269.643 86.8262 269.203 86.6416 268.605 86.6416C267.809 86.6416 267.223 86.9023 266.848 87.4238C266.479 87.9395 266.294 88.8008 266.294 90.0078V94.8506H264.229V85.1299H265.846L266.136 86.4043H266.241C266.511 85.9414 266.9 85.584 267.41 85.332C267.926 85.0801 268.491 84.9541 269.106 84.9541C270.601 84.9541 271.591 85.4639 272.077 86.4834H272.218C272.505 86.0029 272.909 85.6279 273.431 85.3584C273.952 85.0889 274.55 84.9541 275.224 84.9541C276.384 84.9541 277.228 85.2471 277.755 85.833C278.288 86.4189 278.555 87.3125 278.555 88.5137V94.8506H276.489V88.8564C276.489 88.1123 276.346 87.5586 276.059 87.1953C275.777 86.8262 275.338 86.6416 274.74 86.6416C273.938 86.6416 273.349 86.8936 272.974 87.3975C272.604 87.8955 272.42 88.6631 272.42 89.7002V94.8506ZM287.52 94.8506L287.106 93.4971H287.036C286.567 94.0889 286.096 94.4932 285.621 94.71C285.146 94.9209 284.537 95.0264 283.793 95.0264C282.838 95.0264 282.091 94.7686 281.552 94.2529C281.019 93.7373 280.752 93.0078 280.752 92.0645C280.752 91.0625 281.124 90.3066 281.868 89.7969C282.612 89.2871 283.746 89.0088 285.27 88.9619L286.948 88.9092V88.3906C286.948 87.7695 286.802 87.3066 286.509 87.002C286.222 86.6914 285.773 86.5361 285.164 86.5361C284.666 86.5361 284.188 86.6094 283.731 86.7559C283.274 86.9023 282.835 87.0752 282.413 87.2744L281.745 85.7979C282.272 85.5225 282.85 85.3145 283.477 85.1738C284.104 85.0273 284.695 84.9541 285.252 84.9541C286.488 84.9541 287.42 85.2236 288.047 85.7627C288.68 86.3018 288.996 87.1484 288.996 88.3027V94.8506H287.52ZM284.443 93.4443C285.193 93.4443 285.794 93.2363 286.245 92.8203C286.702 92.3984 286.931 91.8096 286.931 91.0537V90.21L285.683 90.2627C284.71 90.2979 284.001 90.4619 283.556 90.7549C283.116 91.042 282.896 91.4844 282.896 92.082C282.896 92.5156 283.025 92.8525 283.283 93.0928C283.541 93.3271 283.928 93.4443 284.443 93.4443ZM295.5 93.3564C296.004 93.3564 296.508 93.2773 297.012 93.1191V94.6748C296.783 94.7744 296.487 94.8564 296.124 94.9209C295.767 94.9912 295.395 95.0264 295.008 95.0264C293.051 95.0264 292.072 93.9951 292.072 91.9326V86.6943H290.745V85.7803L292.169 85.0244L292.872 82.9678H294.146V85.1299H296.915V86.6943H294.146V91.8975C294.146 92.3955 294.27 92.7646 294.516 93.0049C294.768 93.2393 295.096 93.3564 295.5 93.3564ZM303.208 95.0264C301.696 95.0264 300.513 94.5869 299.657 93.708C298.808 92.8232 298.383 91.6074 298.383 90.0605C298.383 88.4727 298.778 87.2246 299.569 86.3164C300.36 85.4082 301.447 84.9541 302.83 84.9541C304.113 84.9541 305.127 85.3438 305.871 86.123C306.615 86.9023 306.987 87.9746 306.987 89.3398V90.4561H300.51C300.539 91.3994 300.794 92.126 301.274 92.6357C301.755 93.1396 302.432 93.3916 303.305 93.3916C303.879 93.3916 304.412 93.3389 304.904 93.2334C305.402 93.1221 305.936 92.9404 306.504 92.6885V94.3672C306 94.6074 305.49 94.7773 304.975 94.877C304.459 94.9766 303.87 95.0264 303.208 95.0264ZM302.83 86.5186C302.174 86.5186 301.646 86.7266 301.248 87.1426C300.855 87.5586 300.621 88.165 300.545 88.9619H304.957C304.945 88.1592 304.752 87.5527 304.377 87.1426C304.002 86.7266 303.486 86.5186 302.83 86.5186ZM312.612 95.0264C311.399 95.0264 310.453 94.5869 309.773 93.708C309.094 92.8291 308.754 91.5957 308.754 90.0078C308.754 88.4141 309.097 87.1748 309.782 86.29C310.474 85.3994 311.429 84.9541 312.647 84.9541C313.925 84.9541 314.897 85.4258 315.565 86.3691H315.671C315.571 85.6719 315.521 85.1211 315.521 84.7168V81.1748H317.596V94.8506H315.979L315.618 93.5762H315.521C314.859 94.543 313.89 95.0264 312.612 95.0264ZM313.166 93.3564C314.016 93.3564 314.634 93.1191 315.021 92.6445C315.407 92.1641 315.606 91.3877 315.618 90.3154V90.0254C315.618 88.8008 315.419 87.9307 315.021 87.415C314.622 86.8994 313.998 86.6416 313.148 86.6416C312.422 86.6416 311.862 86.9375 311.47 87.5293C311.077 88.1152 310.881 88.9531 310.881 90.043C310.881 91.1211 311.071 91.9443 311.452 92.5127C311.833 93.0752 312.404 93.3564 313.166 93.3564ZM183.023 115.563C183.023 114.528 183.174 113.56 183.475 112.657C183.779 111.755 184.217 110.964 184.787 110.284H185.736C185.174 111.038 184.75 111.866 184.465 112.769C184.184 113.671 184.043 114.599 184.043 115.552C184.043 116.489 184.188 117.405 184.477 118.3C184.766 119.194 185.182 120.011 185.725 120.749H184.787C184.213 120.085 183.775 119.31 183.475 118.423C183.174 117.536 183.023 116.583 183.023 115.563ZM187.271 118.851V110.284H188.268V118.851H187.271ZM194.871 118.851V114.696C194.871 114.173 194.752 113.782 194.514 113.524C194.275 113.267 193.902 113.138 193.395 113.138C192.723 113.138 192.23 113.319 191.918 113.683C191.605 114.046 191.449 114.646 191.449 115.481V118.851H190.477V112.429H191.268L191.426 113.308H191.473C191.672 112.991 191.951 112.747 192.311 112.575C192.67 112.399 193.07 112.312 193.512 112.312C194.285 112.312 194.867 112.499 195.258 112.874C195.648 113.245 195.844 113.841 195.844 114.661V118.851H194.871ZM199.922 118.165C200.094 118.165 200.26 118.153 200.42 118.13C200.58 118.103 200.707 118.075 200.801 118.048V118.792C200.695 118.843 200.539 118.884 200.332 118.915C200.129 118.95 199.945 118.968 199.781 118.968C198.539 118.968 197.918 118.313 197.918 117.005V113.185H196.998V112.716L197.918 112.312L198.328 110.94H198.891V112.429H200.754V113.185H198.891V116.964C198.891 117.351 198.982 117.647 199.166 117.854C199.35 118.062 199.602 118.165 199.922 118.165ZM204.803 118.968C203.854 118.968 203.104 118.679 202.553 118.101C202.006 117.522 201.732 116.72 201.732 115.692C201.732 114.657 201.986 113.835 202.494 113.226C203.006 112.616 203.691 112.312 204.551 112.312C205.355 112.312 205.992 112.577 206.461 113.108C206.93 113.636 207.164 114.333 207.164 115.2V115.815H202.74C202.76 116.569 202.949 117.142 203.309 117.532C203.672 117.923 204.182 118.118 204.838 118.118C205.529 118.118 206.213 117.974 206.889 117.685V118.552C206.545 118.7 206.219 118.806 205.91 118.868C205.605 118.935 205.236 118.968 204.803 118.968ZM204.539 113.126C204.023 113.126 203.611 113.294 203.303 113.63C202.998 113.966 202.818 114.431 202.764 115.024H206.121C206.121 114.411 205.984 113.942 205.711 113.618C205.438 113.29 205.047 113.126 204.539 113.126ZM214.084 112.429V113.044L212.895 113.185C213.004 113.321 213.102 113.501 213.188 113.724C213.273 113.942 213.316 114.19 213.316 114.468C213.316 115.097 213.102 115.599 212.672 115.974C212.242 116.349 211.652 116.536 210.902 116.536C210.711 116.536 210.531 116.521 210.363 116.489C209.949 116.708 209.742 116.983 209.742 117.315C209.742 117.491 209.814 117.622 209.959 117.708C210.104 117.79 210.352 117.831 210.703 117.831H211.84C212.535 117.831 213.068 117.978 213.439 118.271C213.814 118.563 214.002 118.989 214.002 119.548C214.002 120.259 213.717 120.8 213.146 121.171C212.576 121.546 211.744 121.733 210.65 121.733C209.811 121.733 209.162 121.577 208.705 121.265C208.252 120.952 208.025 120.511 208.025 119.94C208.025 119.55 208.15 119.212 208.4 118.927C208.65 118.642 209.002 118.448 209.455 118.347C209.291 118.272 209.152 118.157 209.039 118.001C208.93 117.845 208.875 117.663 208.875 117.456C208.875 117.222 208.938 117.017 209.062 116.841C209.188 116.665 209.385 116.495 209.654 116.331C209.322 116.194 209.051 115.962 208.84 115.634C208.633 115.306 208.529 114.931 208.529 114.509C208.529 113.806 208.74 113.265 209.162 112.886C209.584 112.503 210.182 112.312 210.955 112.312C211.291 112.312 211.594 112.351 211.863 112.429H214.084ZM208.963 119.929C208.963 120.276 209.109 120.54 209.402 120.72C209.695 120.899 210.115 120.989 210.662 120.989C211.479 120.989 212.082 120.866 212.473 120.62C212.867 120.378 213.064 120.048 213.064 119.63C213.064 119.282 212.957 119.04 212.742 118.903C212.527 118.771 212.123 118.704 211.529 118.704H210.363C209.922 118.704 209.578 118.81 209.332 119.021C209.086 119.231 208.963 119.534 208.963 119.929ZM209.49 114.485C209.49 114.935 209.617 115.274 209.871 115.505C210.125 115.735 210.479 115.851 210.932 115.851C211.881 115.851 212.355 115.39 212.355 114.468C212.355 113.503 211.875 113.021 210.914 113.021C210.457 113.021 210.105 113.144 209.859 113.39C209.613 113.636 209.49 114.001 209.49 114.485ZM218.332 112.312C218.617 112.312 218.873 112.335 219.1 112.382L218.965 113.284C218.699 113.226 218.465 113.196 218.262 113.196C217.742 113.196 217.297 113.407 216.926 113.829C216.559 114.251 216.375 114.776 216.375 115.405V118.851H215.402V112.429H216.205L216.316 113.618H216.363C216.602 113.2 216.889 112.878 217.225 112.651C217.561 112.425 217.93 112.312 218.332 112.312ZM224.25 118.851L224.057 117.937H224.01C223.689 118.339 223.369 118.612 223.049 118.757C222.732 118.897 222.336 118.968 221.859 118.968C221.223 118.968 220.723 118.804 220.359 118.476C220 118.147 219.82 117.681 219.82 117.075C219.82 115.778 220.857 115.099 222.932 115.036L224.021 115.001V114.603C224.021 114.099 223.912 113.728 223.693 113.489C223.479 113.247 223.133 113.126 222.656 113.126C222.121 113.126 221.516 113.29 220.84 113.618L220.541 112.874C220.857 112.702 221.203 112.567 221.578 112.47C221.957 112.372 222.336 112.323 222.715 112.323C223.48 112.323 224.047 112.493 224.414 112.833C224.785 113.173 224.971 113.718 224.971 114.468V118.851H224.25ZM222.053 118.165C222.658 118.165 223.133 117.999 223.477 117.667C223.824 117.335 223.998 116.87 223.998 116.272V115.692L223.025 115.733C222.252 115.761 221.693 115.882 221.35 116.097C221.01 116.308 220.84 116.638 220.84 117.087C220.84 117.438 220.945 117.706 221.156 117.89C221.371 118.073 221.67 118.165 222.053 118.165ZM229.055 118.165C229.227 118.165 229.393 118.153 229.553 118.13C229.713 118.103 229.84 118.075 229.934 118.048V118.792C229.828 118.843 229.672 118.884 229.465 118.915C229.262 118.95 229.078 118.968 228.914 118.968C227.672 118.968 227.051 118.313 227.051 117.005V113.185H226.131V112.716L227.051 112.312L227.461 110.94H228.023V112.429H229.887V113.185H228.023V116.964C228.023 117.351 228.115 117.647 228.299 117.854C228.482 118.062 228.734 118.165 229.055 118.165ZM233.936 118.968C232.986 118.968 232.236 118.679 231.686 118.101C231.139 117.522 230.865 116.72 230.865 115.692C230.865 114.657 231.119 113.835 231.627 113.226C232.139 112.616 232.824 112.312 233.684 112.312C234.488 112.312 235.125 112.577 235.594 113.108C236.062 113.636 236.297 114.333 236.297 115.2V115.815H231.873C231.893 116.569 232.082 117.142 232.441 117.532C232.805 117.923 233.314 118.118 233.971 118.118C234.662 118.118 235.346 117.974 236.021 117.685V118.552C235.678 118.7 235.352 118.806 235.043 118.868C234.738 118.935 234.369 118.968 233.936 118.968ZM233.672 113.126C233.156 113.126 232.744 113.294 232.436 113.63C232.131 113.966 231.951 114.431 231.896 115.024H235.254C235.254 114.411 235.117 113.942 234.844 113.618C234.57 113.29 234.18 113.126 233.672 113.126ZM242.104 117.099C242.104 117.696 241.881 118.157 241.436 118.481C240.99 118.806 240.365 118.968 239.561 118.968C238.709 118.968 238.045 118.833 237.568 118.563V117.661C237.877 117.817 238.207 117.94 238.559 118.03C238.914 118.12 239.256 118.165 239.584 118.165C240.092 118.165 240.482 118.085 240.756 117.925C241.029 117.761 241.166 117.513 241.166 117.181C241.166 116.931 241.057 116.718 240.838 116.542C240.623 116.362 240.201 116.151 239.572 115.909C238.975 115.687 238.549 115.493 238.295 115.329C238.045 115.161 237.857 114.972 237.732 114.761C237.611 114.55 237.551 114.298 237.551 114.005C237.551 113.481 237.764 113.069 238.189 112.769C238.615 112.464 239.199 112.312 239.941 112.312C240.633 112.312 241.309 112.452 241.969 112.733L241.623 113.524C240.979 113.259 240.395 113.126 239.871 113.126C239.41 113.126 239.062 113.198 238.828 113.343C238.594 113.487 238.477 113.687 238.477 113.94C238.477 114.112 238.52 114.259 238.605 114.38C238.695 114.501 238.838 114.616 239.033 114.726C239.229 114.835 239.604 114.993 240.158 115.2C240.92 115.478 241.434 115.757 241.699 116.038C241.969 116.319 242.104 116.673 242.104 117.099ZM252.053 118.851L250.875 115.083C250.801 114.853 250.662 114.329 250.459 113.513H250.412C250.256 114.196 250.119 114.724 250.002 115.095L248.789 118.851H247.664L245.912 112.429H246.932C247.346 114.042 247.66 115.271 247.875 116.114C248.094 116.958 248.219 117.526 248.25 117.819H248.297C248.34 117.597 248.408 117.31 248.502 116.958C248.6 116.603 248.684 116.321 248.754 116.114L249.932 112.429H250.986L252.135 116.114C252.354 116.786 252.502 117.351 252.58 117.808H252.627C252.643 117.667 252.684 117.45 252.75 117.157C252.82 116.864 253.229 115.288 253.975 112.429H254.982L253.207 118.851H252.053ZM257.121 118.851H256.148V112.429H257.121V118.851ZM256.066 110.688C256.066 110.466 256.121 110.304 256.23 110.202C256.34 110.097 256.477 110.044 256.641 110.044C256.797 110.044 256.932 110.097 257.045 110.202C257.158 110.308 257.215 110.47 257.215 110.688C257.215 110.907 257.158 111.071 257.045 111.181C256.932 111.286 256.797 111.339 256.641 111.339C256.477 111.339 256.34 111.286 256.23 111.181C256.121 111.071 256.066 110.907 256.066 110.688ZM261.258 118.165C261.43 118.165 261.596 118.153 261.756 118.13C261.916 118.103 262.043 118.075 262.137 118.048V118.792C262.031 118.843 261.875 118.884 261.668 118.915C261.465 118.95 261.281 118.968 261.117 118.968C259.875 118.968 259.254 118.313 259.254 117.005V113.185H258.334V112.716L259.254 112.312L259.664 110.94H260.227V112.429H262.09V113.185H260.227V116.964C260.227 117.351 260.318 117.647 260.502 117.854C260.686 118.062 260.938 118.165 261.258 118.165ZM267.82 118.851V114.696C267.82 114.173 267.701 113.782 267.463 113.524C267.225 113.267 266.852 113.138 266.344 113.138C265.668 113.138 265.174 113.321 264.861 113.688C264.553 114.056 264.398 114.657 264.398 115.493V118.851H263.426V109.733H264.398V112.493C264.398 112.825 264.383 113.101 264.352 113.319H264.41C264.602 113.011 264.873 112.769 265.225 112.593C265.58 112.413 265.984 112.323 266.438 112.323C267.223 112.323 267.811 112.511 268.201 112.886C268.596 113.257 268.793 113.849 268.793 114.661V118.851H267.82ZM274.061 110.284H276.48C277.617 110.284 278.439 110.454 278.947 110.794C279.455 111.134 279.709 111.671 279.709 112.405C279.709 112.913 279.566 113.333 279.281 113.665C279 113.993 278.588 114.206 278.045 114.304V114.362C279.346 114.585 279.996 115.269 279.996 116.413C279.996 117.179 279.736 117.776 279.217 118.206C278.701 118.636 277.979 118.851 277.049 118.851H274.061V110.284ZM275.057 113.952H276.697C277.4 113.952 277.906 113.843 278.215 113.624C278.523 113.401 278.678 113.028 278.678 112.505C278.678 112.024 278.506 111.679 278.162 111.468C277.818 111.253 277.271 111.146 276.521 111.146H275.057V113.952ZM275.057 114.796V118.001H276.844C277.535 118.001 278.055 117.868 278.402 117.603C278.754 117.333 278.93 116.913 278.93 116.343C278.93 115.812 278.75 115.421 278.391 115.171C278.035 114.921 277.492 114.796 276.762 114.796H275.057ZM287.238 115.634C287.238 116.681 286.975 117.499 286.447 118.089C285.92 118.675 285.191 118.968 284.262 118.968C283.688 118.968 283.178 118.833 282.732 118.563C282.287 118.294 281.943 117.907 281.701 117.403C281.459 116.899 281.338 116.31 281.338 115.634C281.338 114.587 281.6 113.772 282.123 113.19C282.646 112.604 283.373 112.312 284.303 112.312C285.201 112.312 285.914 112.61 286.441 113.208C286.973 113.806 287.238 114.614 287.238 115.634ZM282.346 115.634C282.346 116.454 282.51 117.079 282.838 117.509C283.166 117.938 283.648 118.153 284.285 118.153C284.922 118.153 285.404 117.94 285.732 117.515C286.064 117.085 286.23 116.458 286.23 115.634C286.23 114.817 286.064 114.198 285.732 113.776C285.404 113.351 284.918 113.138 284.273 113.138C283.637 113.138 283.156 113.347 282.832 113.765C282.508 114.183 282.346 114.806 282.346 115.634ZM294.492 115.634C294.492 116.681 294.229 117.499 293.701 118.089C293.174 118.675 292.445 118.968 291.516 118.968C290.941 118.968 290.432 118.833 289.986 118.563C289.541 118.294 289.197 117.907 288.955 117.403C288.713 116.899 288.592 116.31 288.592 115.634C288.592 114.587 288.854 113.772 289.377 113.19C289.9 112.604 290.627 112.312 291.557 112.312C292.455 112.312 293.168 112.61 293.695 113.208C294.227 113.806 294.492 114.614 294.492 115.634ZM289.6 115.634C289.6 116.454 289.764 117.079 290.092 117.509C290.42 117.938 290.902 118.153 291.539 118.153C292.176 118.153 292.658 117.94 292.986 117.515C293.318 117.085 293.484 116.458 293.484 115.634C293.484 114.817 293.318 114.198 292.986 113.776C292.658 113.351 292.172 113.138 291.527 113.138C290.891 113.138 290.41 113.347 290.086 113.765C289.762 114.183 289.6 114.806 289.6 115.634ZM297.164 115.563C297.332 115.325 297.588 115.013 297.932 114.626L300.006 112.429H301.16L298.559 115.165L301.342 118.851H300.164L297.896 115.815L297.164 116.448V118.851H296.203V109.733H297.164V114.567C297.164 114.782 297.148 115.114 297.117 115.563H297.164ZM303.48 118.851H302.508V112.429H303.48V118.851ZM302.426 110.688C302.426 110.466 302.48 110.304 302.59 110.202C302.699 110.097 302.836 110.044 303 110.044C303.156 110.044 303.291 110.097 303.404 110.202C303.518 110.308 303.574 110.47 303.574 110.688C303.574 110.907 303.518 111.071 303.404 111.181C303.291 111.286 303.156 111.339 303 111.339C302.836 111.339 302.699 111.286 302.59 111.181C302.48 111.071 302.426 110.907 302.426 110.688ZM309.938 118.851V114.696C309.938 114.173 309.818 113.782 309.58 113.524C309.342 113.267 308.969 113.138 308.461 113.138C307.789 113.138 307.297 113.319 306.984 113.683C306.672 114.046 306.516 114.646 306.516 115.481V118.851H305.543V112.429H306.334L306.492 113.308H306.539C306.738 112.991 307.018 112.747 307.377 112.575C307.736 112.399 308.137 112.312 308.578 112.312C309.352 112.312 309.934 112.499 310.324 112.874C310.715 113.245 310.91 113.841 310.91 114.661V118.851H309.938ZM318.17 112.429V113.044L316.98 113.185C317.09 113.321 317.188 113.501 317.273 113.724C317.359 113.942 317.402 114.19 317.402 114.468C317.402 115.097 317.188 115.599 316.758 115.974C316.328 116.349 315.738 116.536 314.988 116.536C314.797 116.536 314.617 116.521 314.449 116.489C314.035 116.708 313.828 116.983 313.828 117.315C313.828 117.491 313.9 117.622 314.045 117.708C314.189 117.79 314.438 117.831 314.789 117.831H315.926C316.621 117.831 317.154 117.978 317.525 118.271C317.9 118.563 318.088 118.989 318.088 119.548C318.088 120.259 317.803 120.8 317.232 121.171C316.662 121.546 315.83 121.733 314.736 121.733C313.896 121.733 313.248 121.577 312.791 121.265C312.338 120.952 312.111 120.511 312.111 119.94C312.111 119.55 312.236 119.212 312.486 118.927C312.736 118.642 313.088 118.448 313.541 118.347C313.377 118.272 313.238 118.157 313.125 118.001C313.016 117.845 312.961 117.663 312.961 117.456C312.961 117.222 313.023 117.017 313.148 116.841C313.273 116.665 313.471 116.495 313.74 116.331C313.408 116.194 313.137 115.962 312.926 115.634C312.719 115.306 312.615 114.931 312.615 114.509C312.615 113.806 312.826 113.265 313.248 112.886C313.67 112.503 314.268 112.312 315.041 112.312C315.377 112.312 315.68 112.351 315.949 112.429H318.17ZM313.049 119.929C313.049 120.276 313.195 120.54 313.488 120.72C313.781 120.899 314.201 120.989 314.748 120.989C315.564 120.989 316.168 120.866 316.559 120.62C316.953 120.378 317.15 120.048 317.15 119.63C317.15 119.282 317.043 119.04 316.828 118.903C316.613 118.771 316.209 118.704 315.615 118.704H314.449C314.008 118.704 313.664 118.81 313.418 119.021C313.172 119.231 313.049 119.534 313.049 119.929ZM313.576 114.485C313.576 114.935 313.703 115.274 313.957 115.505C314.211 115.735 314.564 115.851 315.018 115.851C315.967 115.851 316.441 115.39 316.441 114.468C316.441 113.503 315.961 113.021 315 113.021C314.543 113.021 314.191 113.144 313.945 113.39C313.699 113.636 313.576 114.001 313.576 114.485ZM234.48 140.571C234.48 141.325 234.207 141.913 233.66 142.335C233.113 142.757 232.371 142.968 231.434 142.968C230.418 142.968 229.637 142.837 229.09 142.575V141.614C229.441 141.763 229.824 141.88 230.238 141.966C230.652 142.052 231.062 142.095 231.469 142.095C232.133 142.095 232.633 141.97 232.969 141.72C233.305 141.466 233.473 141.114 233.473 140.665C233.473 140.368 233.412 140.126 233.291 139.938C233.174 139.747 232.975 139.571 232.693 139.411C232.416 139.251 231.992 139.069 231.422 138.866C230.625 138.581 230.055 138.243 229.711 137.853C229.371 137.462 229.201 136.952 229.201 136.323C229.201 135.663 229.449 135.138 229.945 134.747C230.441 134.356 231.098 134.161 231.914 134.161C232.766 134.161 233.549 134.317 234.264 134.63L233.953 135.497C233.246 135.2 232.559 135.052 231.891 135.052C231.363 135.052 230.951 135.165 230.654 135.392C230.357 135.618 230.209 135.933 230.209 136.335C230.209 136.632 230.264 136.876 230.373 137.067C230.482 137.255 230.666 137.429 230.924 137.589C231.186 137.745 231.584 137.919 232.119 138.11C233.018 138.431 233.635 138.774 233.971 139.142C234.311 139.509 234.48 139.985 234.48 140.571ZM235.066 136.429H236.109L237.516 140.091C237.824 140.927 238.016 141.53 238.09 141.901H238.137C238.188 141.702 238.293 141.362 238.453 140.882C238.617 140.397 239.148 138.913 240.047 136.429H241.09L238.33 143.741C238.057 144.464 237.736 144.976 237.369 145.276C237.006 145.581 236.559 145.733 236.027 145.733C235.73 145.733 235.438 145.7 235.148 145.634V144.854C235.363 144.901 235.604 144.925 235.869 144.925C236.537 144.925 237.014 144.55 237.299 143.8L237.656 142.886L235.066 136.429ZM246.275 141.099C246.275 141.696 246.053 142.157 245.607 142.481C245.162 142.806 244.537 142.968 243.732 142.968C242.881 142.968 242.217 142.833 241.74 142.563V141.661C242.049 141.817 242.379 141.94 242.73 142.03C243.086 142.12 243.428 142.165 243.756 142.165C244.264 142.165 244.654 142.085 244.928 141.925C245.201 141.761 245.338 141.513 245.338 141.181C245.338 140.931 245.229 140.718 245.01 140.542C244.795 140.362 244.373 140.151 243.744 139.909C243.146 139.687 242.721 139.493 242.467 139.329C242.217 139.161 242.029 138.972 241.904 138.761C241.783 138.55 241.723 138.298 241.723 138.005C241.723 137.481 241.936 137.069 242.361 136.769C242.787 136.464 243.371 136.312 244.113 136.312C244.805 136.312 245.48 136.452 246.141 136.733L245.795 137.524C245.15 137.259 244.566 137.126 244.043 137.126C243.582 137.126 243.234 137.198 243 137.343C242.766 137.487 242.648 137.687 242.648 137.94C242.648 138.112 242.691 138.259 242.777 138.38C242.867 138.501 243.01 138.616 243.205 138.726C243.4 138.835 243.775 138.993 244.33 139.2C245.092 139.478 245.605 139.757 245.871 140.038C246.141 140.319 246.275 140.673 246.275 141.099ZM249.938 142.165C250.109 142.165 250.275 142.153 250.436 142.13C250.596 142.103 250.723 142.075 250.816 142.048V142.792C250.711 142.843 250.555 142.884 250.348 142.915C250.145 142.95 249.961 142.968 249.797 142.968C248.555 142.968 247.934 142.313 247.934 141.005V137.185H247.014V136.716L247.934 136.312L248.344 134.94H248.906V136.429H250.77V137.185H248.906V140.964C248.906 141.351 248.998 141.647 249.182 141.854C249.365 142.062 249.617 142.165 249.938 142.165ZM254.818 142.968C253.869 142.968 253.119 142.679 252.568 142.101C252.021 141.522 251.748 140.72 251.748 139.692C251.748 138.657 252.002 137.835 252.51 137.226C253.021 136.616 253.707 136.312 254.566 136.312C255.371 136.312 256.008 136.577 256.477 137.108C256.945 137.636 257.18 138.333 257.18 139.2V139.815H252.756C252.775 140.569 252.965 141.142 253.324 141.532C253.688 141.923 254.197 142.118 254.854 142.118C255.545 142.118 256.229 141.974 256.904 141.685V142.552C256.561 142.7 256.234 142.806 255.926 142.868C255.621 142.935 255.252 142.968 254.818 142.968ZM254.555 137.126C254.039 137.126 253.627 137.294 253.318 137.63C253.014 137.966 252.834 138.431 252.779 139.024H256.137C256.137 138.411 256 137.942 255.727 137.618C255.453 137.29 255.062 137.126 254.555 137.126ZM267.029 142.851V138.673C267.029 138.161 266.92 137.778 266.701 137.524C266.482 137.267 266.143 137.138 265.682 137.138C265.076 137.138 264.629 137.312 264.34 137.659C264.051 138.007 263.906 138.542 263.906 139.265V142.851H262.934V138.673C262.934 138.161 262.824 137.778 262.605 137.524C262.387 137.267 262.045 137.138 261.58 137.138C260.971 137.138 260.523 137.321 260.238 137.688C259.957 138.052 259.816 138.649 259.816 139.481V142.851H258.844V136.429H259.635L259.793 137.308H259.84C260.023 136.995 260.281 136.751 260.613 136.575C260.949 136.399 261.324 136.312 261.738 136.312C262.742 136.312 263.398 136.675 263.707 137.401H263.754C263.945 137.065 264.223 136.8 264.586 136.604C264.949 136.409 265.363 136.312 265.828 136.312C266.555 136.312 267.098 136.499 267.457 136.874C267.82 137.245 268.002 137.841 268.002 138.661V142.851H267.029ZM272.051 139.563C272.051 140.591 271.898 141.548 271.594 142.435C271.293 143.321 270.857 144.093 270.287 144.749H269.35C269.893 144.015 270.309 143.2 270.598 142.306C270.887 141.407 271.031 140.489 271.031 139.552C271.031 138.599 270.889 137.671 270.604 136.769C270.322 135.866 269.9 135.038 269.338 134.284H270.287C270.861 134.968 271.299 135.763 271.6 136.669C271.9 137.571 272.051 138.536 272.051 139.563Z" fill="#A650FF"/>
<path d="M426.375 43.125C426.375 42.6277 426.573 42.1508 426.924 41.7992C427.276 41.4475 427.753 41.25 428.25 41.25H465.75C466.247 41.25 466.724 41.4475 467.076 41.7992C467.427 42.1508 467.625 42.6277 467.625 43.125C467.625 43.6223 467.427 44.0992 467.076 44.4508C466.724 44.8025 466.247 45 465.75 45H428.25C427.753 45 427.276 44.8025 426.924 44.4508C426.573 44.0992 426.375 43.6223 426.375 43.125ZM469.466 3.75L469.556 3.75375C470.257 3.80145 470.942 3.98351 471.574 4.29C472.029 4.50179 472.42 4.83046 472.706 5.2425C472.957 5.6175 473.25 6.28125 473.25 7.5V29.9663L473.246 30.0563C473.198 30.7569 473.016 31.4417 472.71 32.0738C472.498 32.5287 472.169 32.9195 471.757 33.2062C471.382 33.4575 470.719 33.75 469.5 33.75H424.534L424.444 33.7463C423.743 33.6982 423.058 33.5161 422.426 33.21C421.971 32.9981 421.581 32.6694 421.294 32.2575C421.043 31.8825 420.75 31.2188 420.75 30V7.53375L420.754 7.44375C420.801 6.74308 420.984 6.05813 421.29 5.42625C421.502 4.97128 421.831 4.58053 422.242 4.29375C422.617 4.0425 423.281 3.75 424.5 3.75H469.466ZM469.5 0H424.5C417 0 417 7.5 417 7.5V30C417 37.5 424.5 37.5 424.5 37.5H469.5C477 37.5 477 30 477 30V7.5C477 0 469.5 0 469.5 0Z" fill="#A650FF"/>
<path d="M391.015 94H388.439L382.12 83.7607H382.05L382.094 84.332C382.176 85.4219 382.217 86.418 382.217 87.3203V94H380.31V81.1504H382.858L389.16 91.3369H389.213C389.201 91.2021 389.178 90.7129 389.143 89.8691C389.107 89.0195 389.09 88.3574 389.09 87.8828V81.1504H391.015V94ZM402.81 89.1221C402.81 90.71 402.402 91.9492 401.588 92.8398C400.773 93.7305 399.64 94.1758 398.187 94.1758C397.278 94.1758 396.476 93.9707 395.778 93.5605C395.081 93.1504 394.545 92.5615 394.17 91.7939C393.795 91.0264 393.607 90.1357 393.607 89.1221C393.607 87.5459 394.012 86.3154 394.82 85.4307C395.629 84.5459 396.769 84.1035 398.239 84.1035C399.646 84.1035 400.759 84.5576 401.579 85.4658C402.399 86.3682 402.81 87.5869 402.81 89.1221ZM395.734 89.1221C395.734 91.3662 396.563 92.4883 398.222 92.4883C399.862 92.4883 400.683 91.3662 400.683 89.1221C400.683 86.9014 399.856 85.791 398.204 85.791C397.337 85.791 396.707 86.0781 396.314 86.6523C395.928 87.2266 395.734 88.0498 395.734 89.1221ZM420.792 94H418.217L411.897 83.7607H411.827L411.871 84.332C411.953 85.4219 411.994 86.418 411.994 87.3203V94H410.087V81.1504H412.636L418.938 91.3369H418.99C418.979 91.2021 418.955 90.7129 418.92 89.8691C418.885 89.0195 418.867 88.3574 418.867 87.8828V81.1504H420.792V94ZM428.21 94.1758C426.698 94.1758 425.515 93.7363 424.659 92.8574C423.81 91.9727 423.385 90.7568 423.385 89.21C423.385 87.6221 423.78 86.374 424.571 85.4658C425.362 84.5576 426.449 84.1035 427.832 84.1035C429.115 84.1035 430.129 84.4932 430.873 85.2725C431.617 86.0518 431.989 87.124 431.989 88.4893V89.6055H425.512C425.541 90.5488 425.796 91.2754 426.276 91.7852C426.757 92.2891 427.434 92.541 428.307 92.541C428.881 92.541 429.414 92.4883 429.906 92.3828C430.404 92.2715 430.938 92.0898 431.506 91.8379V93.5166C431.002 93.7568 430.492 93.9268 429.977 94.0264C429.461 94.126 428.872 94.1758 428.21 94.1758ZM427.832 85.668C427.176 85.668 426.648 85.876 426.25 86.292C425.857 86.708 425.623 87.3145 425.547 88.1113H429.959C429.947 87.3086 429.754 86.7021 429.379 86.292C429.004 85.876 428.488 85.668 427.832 85.668ZM438.581 94.1758C437.069 94.1758 435.886 93.7363 435.03 92.8574C434.181 91.9727 433.756 90.7568 433.756 89.21C433.756 87.6221 434.151 86.374 434.942 85.4658C435.733 84.5576 436.82 84.1035 438.203 84.1035C439.486 84.1035 440.5 84.4932 441.244 85.2725C441.988 86.0518 442.36 87.124 442.36 88.4893V89.6055H435.883C435.912 90.5488 436.167 91.2754 436.647 91.7852C437.128 92.2891 437.805 92.541 438.678 92.541C439.252 92.541 439.785 92.4883 440.277 92.3828C440.775 92.2715 441.309 92.0898 441.877 91.8379V93.5166C441.373 93.7568 440.863 93.9268 440.348 94.0264C439.832 94.126 439.243 94.1758 438.581 94.1758ZM438.203 85.668C437.547 85.668 437.02 85.876 436.621 86.292C436.229 86.708 435.994 87.3145 435.918 88.1113H440.33C440.318 87.3086 440.125 86.7021 439.75 86.292C439.375 85.876 438.859 85.668 438.203 85.668ZM447.985 94.1758C446.772 94.1758 445.826 93.7363 445.146 92.8574C444.467 91.9785 444.127 90.7451 444.127 89.1572C444.127 87.5635 444.47 86.3242 445.155 85.4395C445.847 84.5488 446.802 84.1035 448.021 84.1035C449.298 84.1035 450.271 84.5752 450.938 85.5186H451.044C450.944 84.8213 450.895 84.2705 450.895 83.8662V80.3242H452.969V94H451.352L450.991 92.7256H450.895C450.232 93.6924 449.263 94.1758 447.985 94.1758ZM448.539 92.5059C449.389 92.5059 450.007 92.2686 450.394 91.7939C450.78 91.3135 450.979 90.5371 450.991 89.4648V89.1748C450.991 87.9502 450.792 87.0801 450.394 86.5645C449.995 86.0488 449.371 85.791 448.521 85.791C447.795 85.791 447.235 86.0869 446.843 86.6787C446.45 87.2646 446.254 88.1025 446.254 89.1924C446.254 90.2705 446.444 91.0938 446.825 91.6621C447.206 92.2246 447.777 92.5059 448.539 92.5059ZM464.219 92.5059C464.723 92.5059 465.227 92.4268 465.73 92.2686V93.8242C465.502 93.9238 465.206 94.0059 464.843 94.0703C464.485 94.1406 464.113 94.1758 463.727 94.1758C461.77 94.1758 460.791 93.1445 460.791 91.082V85.8438H459.464V84.9297L460.888 84.1738L461.591 82.1172H462.865V84.2793H465.634V85.8438H462.865V91.0469C462.865 91.5449 462.988 91.9141 463.234 92.1543C463.486 92.3887 463.814 92.5059 464.219 92.5059ZM476.304 89.1221C476.304 90.71 475.896 91.9492 475.082 92.8398C474.268 93.7305 473.134 94.1758 471.681 94.1758C470.772 94.1758 469.97 93.9707 469.272 93.5605C468.575 93.1504 468.039 92.5615 467.664 91.7939C467.289 91.0264 467.102 90.1357 467.102 89.1221C467.102 87.5459 467.506 86.3154 468.314 85.4307C469.123 84.5459 470.263 84.1035 471.733 84.1035C473.14 84.1035 474.253 84.5576 475.073 85.4658C475.894 86.3682 476.304 87.5869 476.304 89.1221ZM469.229 89.1221C469.229 91.3662 470.058 92.4883 471.716 92.4883C473.356 92.4883 474.177 91.3662 474.177 89.1221C474.177 86.9014 473.351 85.791 471.698 85.791C470.831 85.791 470.201 86.0781 469.809 86.6523C469.422 87.2266 469.229 88.0498 469.229 89.1221ZM493.653 81.1504V89.4648C493.653 90.4141 493.448 91.2461 493.038 91.9609C492.634 92.6699 492.045 93.2178 491.271 93.6045C490.504 93.9854 489.584 94.1758 488.512 94.1758C486.918 94.1758 485.679 93.7539 484.794 92.9102C483.909 92.0664 483.467 90.9062 483.467 89.4297V81.1504H485.576V89.2803C485.576 90.3408 485.822 91.123 486.314 91.627C486.807 92.1309 487.562 92.3828 488.582 92.3828C490.562 92.3828 491.553 91.3428 491.553 89.2627V81.1504H493.653ZM503.251 91.2314C503.251 92.1807 502.905 92.9102 502.214 93.4199C501.522 93.9238 500.532 94.1758 499.243 94.1758C497.948 94.1758 496.908 93.9795 496.123 93.5869V91.8027C497.266 92.3301 498.329 92.5938 499.313 92.5938C500.585 92.5938 501.221 92.21 501.221 91.4424C501.221 91.1963 501.15 90.9912 501.01 90.8271C500.869 90.6631 500.638 90.4932 500.315 90.3174C499.993 90.1416 499.545 89.9424 498.971 89.7197C497.852 89.2861 497.093 88.8525 496.694 88.4189C496.302 87.9854 496.105 87.4229 496.105 86.7314C496.105 85.8994 496.439 85.2549 497.107 84.7979C497.781 84.335 498.695 84.1035 499.85 84.1035C500.992 84.1035 502.073 84.335 503.093 84.7979L502.425 86.3535C501.376 85.9199 500.494 85.7031 499.779 85.7031C498.689 85.7031 498.145 86.0137 498.145 86.6348C498.145 86.9395 498.285 87.1973 498.566 87.4082C498.854 87.6191 499.475 87.9092 500.43 88.2783C501.232 88.5889 501.815 88.873 502.179 89.1309C502.542 89.3887 502.812 89.6875 502.987 90.0273C503.163 90.3613 503.251 90.7627 503.251 91.2314ZM509.737 94.1758C508.226 94.1758 507.042 93.7363 506.187 92.8574C505.337 91.9727 504.912 90.7568 504.912 89.21C504.912 87.6221 505.308 86.374 506.099 85.4658C506.89 84.5576 507.977 84.1035 509.359 84.1035C510.643 84.1035 511.656 84.4932 512.4 85.2725C513.145 86.0518 513.517 87.124 513.517 88.4893V89.6055H507.039C507.068 90.5488 507.323 91.2754 507.804 91.7852C508.284 92.2891 508.961 92.541 509.834 92.541C510.408 92.541 510.941 92.4883 511.434 92.3828C511.932 92.2715 512.465 92.0898 513.033 91.8379V93.5166C512.529 93.7568 512.02 93.9268 511.504 94.0264C510.988 94.126 510.399 94.1758 509.737 94.1758ZM509.359 85.668C508.703 85.668 508.176 85.876 507.777 86.292C507.385 86.708 507.15 87.3145 507.074 88.1113H511.486C511.475 87.3086 511.281 86.7021 510.906 86.292C510.531 85.876 510.016 85.668 509.359 85.668ZM398.371 116H396.262V110.208H390.338V116H388.237V103.15H390.338V108.406H396.262V103.15H398.371V116ZM410.157 111.122C410.157 112.71 409.75 113.949 408.936 114.84C408.121 115.73 406.987 116.176 405.534 116.176C404.626 116.176 403.823 115.971 403.126 115.561C402.429 115.15 401.893 114.562 401.518 113.794C401.143 113.026 400.955 112.136 400.955 111.122C400.955 109.546 401.359 108.315 402.168 107.431C402.977 106.546 404.116 106.104 405.587 106.104C406.993 106.104 408.106 106.558 408.927 107.466C409.747 108.368 410.157 109.587 410.157 111.122ZM403.082 111.122C403.082 113.366 403.911 114.488 405.569 114.488C407.21 114.488 408.03 113.366 408.03 111.122C408.03 108.901 407.204 107.791 405.552 107.791C404.685 107.791 404.055 108.078 403.662 108.652C403.275 109.227 403.082 110.05 403.082 111.122ZM419.069 113.231C419.069 114.181 418.724 114.91 418.032 115.42C417.341 115.924 416.351 116.176 415.062 116.176C413.767 116.176 412.727 115.979 411.941 115.587V113.803C413.084 114.33 414.147 114.594 415.132 114.594C416.403 114.594 417.039 114.21 417.039 113.442C417.039 113.196 416.969 112.991 416.828 112.827C416.688 112.663 416.456 112.493 416.134 112.317C415.812 112.142 415.363 111.942 414.789 111.72C413.67 111.286 412.911 110.853 412.513 110.419C412.12 109.985 411.924 109.423 411.924 108.731C411.924 107.899 412.258 107.255 412.926 106.798C413.6 106.335 414.514 106.104 415.668 106.104C416.811 106.104 417.892 106.335 418.911 106.798L418.243 108.354C417.194 107.92 416.312 107.703 415.598 107.703C414.508 107.703 413.963 108.014 413.963 108.635C413.963 108.939 414.104 109.197 414.385 109.408C414.672 109.619 415.293 109.909 416.248 110.278C417.051 110.589 417.634 110.873 417.997 111.131C418.36 111.389 418.63 111.688 418.806 112.027C418.981 112.361 419.069 112.763 419.069 113.231ZM426.241 116.176C425.011 116.176 424.056 115.733 423.376 114.849H423.253C423.335 115.669 423.376 116.167 423.376 116.343V120.324H421.311V106.279H422.98C423.027 106.461 423.124 106.895 423.271 107.58H423.376C424.021 106.596 424.987 106.104 426.276 106.104C427.489 106.104 428.433 106.543 429.106 107.422C429.786 108.301 430.126 109.534 430.126 111.122C430.126 112.71 429.78 113.949 429.089 114.84C428.403 115.73 427.454 116.176 426.241 116.176ZM425.74 107.791C424.92 107.791 424.319 108.031 423.938 108.512C423.563 108.992 423.376 109.76 423.376 110.814V111.122C423.376 112.306 423.563 113.164 423.938 113.697C424.313 114.225 424.926 114.488 425.775 114.488C426.49 114.488 427.041 114.195 427.428 113.609C427.814 113.023 428.008 112.188 428.008 111.104C428.008 110.015 427.814 109.191 427.428 108.635C427.047 108.072 426.484 107.791 425.74 107.791ZM434.591 116H432.525V106.279H434.591V116ZM432.402 103.704C432.402 103.335 432.502 103.051 432.701 102.852C432.906 102.652 433.196 102.553 433.571 102.553C433.935 102.553 434.216 102.652 434.415 102.852C434.62 103.051 434.723 103.335 434.723 103.704C434.723 104.056 434.62 104.334 434.415 104.539C434.216 104.738 433.935 104.838 433.571 104.838C433.196 104.838 432.906 104.738 432.701 104.539C432.502 104.334 432.402 104.056 432.402 103.704ZM441.174 114.506C441.678 114.506 442.182 114.427 442.686 114.269V115.824C442.457 115.924 442.161 116.006 441.798 116.07C441.44 116.141 441.068 116.176 440.682 116.176C438.725 116.176 437.746 115.145 437.746 113.082V107.844H436.419V106.93L437.843 106.174L438.546 104.117H439.82V106.279H442.589V107.844H439.82V113.047C439.82 113.545 439.943 113.914 440.189 114.154C440.441 114.389 440.77 114.506 441.174 114.506ZM450.719 116L450.306 114.646H450.235C449.767 115.238 449.295 115.643 448.82 115.859C448.346 116.07 447.736 116.176 446.992 116.176C446.037 116.176 445.29 115.918 444.751 115.402C444.218 114.887 443.951 114.157 443.951 113.214C443.951 112.212 444.323 111.456 445.067 110.946C445.812 110.437 446.945 110.158 448.469 110.111L450.147 110.059V109.54C450.147 108.919 450.001 108.456 449.708 108.151C449.421 107.841 448.973 107.686 448.363 107.686C447.865 107.686 447.388 107.759 446.931 107.905C446.474 108.052 446.034 108.225 445.612 108.424L444.944 106.947C445.472 106.672 446.049 106.464 446.676 106.323C447.303 106.177 447.895 106.104 448.451 106.104C449.688 106.104 450.619 106.373 451.246 106.912C451.879 107.451 452.195 108.298 452.195 109.452V116H450.719ZM447.643 114.594C448.393 114.594 448.993 114.386 449.444 113.97C449.901 113.548 450.13 112.959 450.13 112.203V111.359L448.882 111.412C447.909 111.447 447.2 111.611 446.755 111.904C446.315 112.191 446.096 112.634 446.096 113.231C446.096 113.665 446.225 114.002 446.482 114.242C446.74 114.477 447.127 114.594 447.643 114.594ZM457.144 116H455.078V102.324H457.144V116ZM462.171 116H460.105V106.279H462.171V116ZM459.982 103.704C459.982 103.335 460.082 103.051 460.281 102.852C460.486 102.652 460.776 102.553 461.151 102.553C461.515 102.553 461.796 102.652 461.995 102.852C462.2 103.051 462.303 103.335 462.303 103.704C462.303 104.056 462.2 104.334 461.995 104.539C461.796 104.738 461.515 104.838 461.151 104.838C460.776 104.838 460.486 104.738 460.281 104.539C460.082 104.334 459.982 104.056 459.982 103.704ZM468.754 114.506C469.258 114.506 469.762 114.427 470.266 114.269V115.824C470.037 115.924 469.741 116.006 469.378 116.07C469.021 116.141 468.648 116.176 468.262 116.176C466.305 116.176 465.326 115.145 465.326 113.082V107.844H463.999V106.93L465.423 106.174L466.126 104.117H467.4V106.279H470.169V107.844H467.4V113.047C467.4 113.545 467.523 113.914 467.77 114.154C468.021 114.389 468.35 114.506 468.754 114.506ZM470.74 106.279H472.99L474.968 111.79C475.267 112.575 475.466 113.313 475.565 114.005H475.636C475.688 113.683 475.785 113.293 475.926 112.836C476.066 112.373 476.811 110.188 478.158 106.279H480.391L476.233 117.292C475.478 119.313 474.218 120.324 472.454 120.324C471.997 120.324 471.552 120.274 471.118 120.175V118.54C471.429 118.61 471.783 118.646 472.182 118.646C473.178 118.646 473.878 118.068 474.282 116.914L474.643 116L470.74 106.279ZM491.201 116H489.101V104.952H485.321V103.15H494.98V104.952H491.201V116ZM504.279 103.15H506.459L501.959 116H499.744L495.262 103.15H497.424L500.104 111.14C500.245 111.521 500.395 112.013 500.553 112.616C500.711 113.214 500.813 113.659 500.86 113.952C500.937 113.507 501.054 112.991 501.212 112.405C501.37 111.819 501.499 111.386 501.599 111.104L504.279 103.15Z" fill="#A650FF"/>
</svg>
