<svg width="340" height="99" viewBox="0 0 340 99" fill="none" xmlns="http://www.w3.org/2000/svg">
<path d="M22.2734 4.72437C22.2734 3.49794 22.7606 2.32174 23.6279 1.45452C24.4951 0.587297 25.6713 0.100098 26.8977 0.100098H54.6434C55.8698 0.100098 57.046 0.587297 57.9132 1.45452C58.7805 2.32174 59.2677 3.49794 59.2677 4.72437V7.65617C58.5651 7.24924 57.7674 7.03546 56.9555 7.03651V4.72437C56.9555 4.11116 56.7119 3.52306 56.2783 3.08945C55.8447 2.65584 55.2566 2.41224 54.6434 2.41224H26.8977C26.2845 2.41224 25.6964 2.65584 25.2628 3.08945C24.8292 3.52306 24.5856 4.11116 24.5856 4.72437V20.9093C24.5856 21.5226 24.8292 22.1107 25.2628 22.5443C25.6964 22.9779 26.2845 23.2215 26.8977 23.2215H45.3948V23.6354C45.3946 24.2898 45.5333 24.9368 45.8018 25.5336H26.8977C25.6713 25.5336 24.4951 25.0464 23.6279 24.1792C22.7606 23.312 22.2734 22.1358 22.2734 20.9093V4.72437ZM48.863 29.9614L47.3486 27.8458H30.3659C30.0593 27.8458 29.7653 27.9676 29.5485 28.1844C29.3317 28.4012 29.2099 28.6952 29.2099 29.0018C29.2099 29.3084 29.3317 29.6025 29.5485 29.8193C29.7653 30.0361 30.0593 30.1579 30.3659 30.1579H48.863V29.9614ZM50.0191 11.6608V16.2851C49.4059 16.2851 48.8178 16.5287 48.3842 16.9623C47.9506 17.3959 47.707 17.984 47.707 18.5972V23.6354C47.7071 24.118 47.8583 24.5886 48.1393 24.981L51.1752 29.2192V32.47C51.1752 33.0833 51.4188 33.6714 51.8524 34.105C52.286 34.5386 52.8741 34.7822 53.4873 34.7822H55.7994C56.4127 34.7822 57.0008 34.5386 57.4344 34.105C57.868 33.6714 58.1116 33.0833 58.1116 32.47V29.2192L61.1382 25.0573C61.4253 24.6622 61.5799 24.1862 61.5798 23.6978V18.5972C61.5798 17.984 61.3362 17.3959 60.9026 16.9623C60.469 16.5287 59.8809 16.2851 59.2677 16.2851V11.6608C59.2677 11.0476 59.0241 10.4595 58.5905 10.0259C58.1568 9.59225 57.5687 9.34865 56.9555 9.34865H52.3312C51.718 9.34865 51.1299 9.59225 50.6963 10.0259C50.2627 10.4595 50.0191 11.0476 50.0191 11.6608ZM56.9555 16.2851H52.3312V11.6608H56.9555V16.2851Z" fill="#A650FF"/>
<path d="M2.53143 64H1.16684V55.5821H5.917V56.7452H2.53143V59.3765H5.70396V60.5453H2.53143V64ZM11.7899 64L11.5999 63.1651H11.5308C11.3427 63.4607 11.074 63.6929 10.7247 63.8618C10.3793 64.0307 9.9839 64.1152 9.53863 64.1152C8.76709 64.1152 8.19132 63.9232 7.8113 63.5394C7.43129 63.1555 7.24128 62.574 7.24128 61.7948V57.6319H8.60588V61.5587C8.60588 62.0462 8.70568 62.4128 8.90528 62.6584C9.10488 62.9003 9.41772 63.0212 9.8438 63.0212C10.4119 63.0212 10.8284 62.8523 11.0932 62.5145C11.3619 62.1729 11.4963 61.6028 11.4963 60.8044V57.6319H12.8551V64H11.7899ZM16.137 64H14.784V55.0409H16.137V64ZM19.4305 64H18.0774V55.0409H19.4305V64ZM27.4856 64H26.1095V56.7625H23.6336V55.5821H29.9614V56.7625H27.4856V64ZM36.0532 55.5821H37.4811L34.5331 64H33.0821L30.1457 55.5821H31.5621L33.3182 60.816C33.4103 61.0655 33.5082 61.3879 33.6119 61.7833C33.7155 62.1748 33.7827 62.4665 33.8134 62.6584C33.8633 62.3667 33.9401 62.0289 34.0437 61.6451C34.1473 61.2612 34.2318 60.9772 34.297 60.7929L36.0532 55.5821ZM45.2368 56.6416C44.4461 56.6416 43.8242 56.9218 43.3713 57.4822C42.9183 58.0426 42.6919 58.8161 42.6919 59.8026C42.6919 60.8351 42.9087 61.6163 43.3425 62.146C43.7801 62.6757 44.4115 62.9406 45.2368 62.9406C45.5938 62.9406 45.9392 62.906 46.2732 62.8369C46.6071 62.764 46.9545 62.6719 47.3153 62.5606V63.7409C46.6551 63.9904 45.9066 64.1152 45.0698 64.1152C43.8377 64.1152 42.8915 63.7428 42.2312 62.9981C41.571 62.2496 41.2409 61.1806 41.2409 59.7911C41.2409 58.9159 41.4002 58.1501 41.7188 57.4937C42.0412 56.8373 42.5057 56.3345 43.1122 55.9852C43.7187 55.6359 44.4307 55.4612 45.2483 55.4612C46.1081 55.4612 46.9027 55.6416 47.632 56.0025L47.1369 57.1483C46.8528 57.0139 46.5515 56.8968 46.2329 56.797C45.9181 56.6934 45.5861 56.6416 45.2368 56.6416ZM54.6335 60.8044C54.6335 61.8447 54.3667 62.6565 53.8331 63.24C53.2996 63.8234 52.5568 64.1152 51.6049 64.1152C51.0099 64.1152 50.484 63.9808 50.0273 63.7121C49.5705 63.4434 49.2192 63.0576 48.9736 62.5548C48.7279 62.052 48.6051 61.4685 48.6051 60.8044C48.6051 59.7719 48.8699 58.9658 49.3997 58.3862C49.9294 57.8066 50.676 57.5168 51.6394 57.5168C52.5607 57.5168 53.29 57.8142 53.8274 58.4092C54.3648 59.0003 54.6335 59.7987 54.6335 60.8044ZM49.9985 60.8044C49.9985 62.2746 50.5416 63.0097 51.6279 63.0097C52.7027 63.0097 53.2401 62.2746 53.2401 60.8044C53.2401 59.3496 52.6989 58.6222 51.6164 58.6222C51.0483 58.6222 50.6357 58.8103 50.3785 59.1865C50.1251 59.5627 49.9985 60.102 49.9985 60.8044ZM61.7961 64H60.4373V60.0847C60.4373 59.5934 60.3375 59.2268 60.1379 58.985C59.9421 58.7432 59.6293 58.6222 59.1994 58.6222C58.6274 58.6222 58.209 58.7911 57.9442 59.1289C57.6793 59.4667 57.5469 60.0329 57.5469 60.8275V64H56.1938V57.6319H57.2533L57.4433 58.4668H57.5124C57.7043 58.1635 57.9768 57.9294 58.33 57.7643C58.6831 57.5993 59.0746 57.5168 59.5045 57.5168C61.0323 57.5168 61.7961 58.2941 61.7961 59.8486V64ZM66.0511 63.0212C66.3812 63.0212 66.7113 62.9694 67.0415 62.8657V63.8848C66.8918 63.9501 66.6979 64.0038 66.4599 64.0461C66.2258 64.0921 65.982 64.1152 65.7287 64.1152C64.4466 64.1152 63.8056 63.4396 63.8056 62.0884V58.6568H62.9362V58.058L63.8689 57.5628L64.3295 56.2155H65.1644V57.6319H66.9781V58.6568H65.1644V62.0654C65.1644 62.3917 65.245 62.6335 65.4062 62.7909C65.5713 62.9444 65.7863 63.0212 66.0511 63.0212ZM71.5498 57.5168C71.8223 57.5168 72.0469 57.5359 72.2234 57.5743L72.091 58.8353C71.8991 58.7892 71.6995 58.7662 71.4922 58.7662C70.951 58.7662 70.5115 58.9428 70.1737 59.2959C69.8397 59.649 69.6728 60.1077 69.6728 60.672V64H68.3197V57.6319H69.3791L69.5576 58.7547H69.6267C69.8378 58.3747 70.1123 58.0733 70.45 57.8507C70.7917 57.6281 71.1583 57.5168 71.5498 57.5168ZM79.0579 60.8044C79.0579 61.8447 78.7911 62.6565 78.2576 63.24C77.724 63.8234 76.9813 64.1152 76.0293 64.1152C75.4344 64.1152 74.9085 63.9808 74.4517 63.7121C73.9949 63.4434 73.6437 63.0576 73.398 62.5548C73.1524 62.052 73.0295 61.4685 73.0295 60.8044C73.0295 59.7719 73.2944 58.9658 73.8241 58.3862C74.3538 57.8066 75.1004 57.5168 76.0639 57.5168C76.9851 57.5168 77.7144 57.8142 78.2518 58.4092C78.7892 59.0003 79.0579 59.7987 79.0579 60.8044ZM74.4229 60.8044C74.4229 62.2746 74.9661 63.0097 76.0524 63.0097C77.1271 63.0097 77.6645 62.2746 77.6645 60.8044C77.6645 59.3496 77.1233 58.6222 76.0409 58.6222C75.4728 58.6222 75.0601 58.8103 74.8029 59.1865C74.5496 59.5627 74.4229 60.102 74.4229 60.8044ZM81.9714 64H80.6183V55.0409H81.9714V64Z" fill="#A650FF"/>
<path d="M157.932 3.87635C156.296 3.87635 154.726 4.55385 153.57 5.75981C152.413 6.96577 151.763 8.60139 151.763 10.3069V19.4933C151.763 21.1988 152.413 22.8344 153.57 24.0404C154.726 25.2464 156.296 25.9239 157.932 25.9239H166.745C168.381 25.9239 169.95 25.2464 171.107 24.0404C172.264 22.8344 172.914 21.1988 172.914 19.4933V14.9001C172.914 14.6565 173.007 14.4228 173.172 14.2505C173.337 14.0782 173.562 13.9815 173.795 13.9815C174.029 13.9815 174.253 14.0782 174.419 14.2505C174.584 14.4228 174.677 14.6565 174.677 14.9001V19.4933C174.677 21.6861 173.841 23.789 172.354 25.3396C170.866 26.8901 168.849 27.7611 166.745 27.7611H157.932C155.828 27.7611 153.811 26.8901 152.323 25.3396C150.836 23.789 150 21.6861 150 19.4933V10.3069C150 8.11411 150.836 6.01116 152.323 4.46065C153.811 2.91013 155.828 2.03906 157.932 2.03906H162.338C162.572 2.03906 162.796 2.13585 162.962 2.30813C163.127 2.48041 163.22 2.71407 163.22 2.95771C163.22 3.20135 163.127 3.43501 162.962 3.60729C162.796 3.77957 162.572 3.87635 162.338 3.87635H157.932Z" fill="#A650FF"/>
<path d="M189.307 13.2058C189.307 16.6167 188.007 19.888 185.693 22.2999C183.379 24.7118 180.241 26.0668 176.968 26.0668C173.696 26.0668 170.558 24.7118 168.244 22.2999C165.93 19.888 164.63 16.6167 164.63 13.2058C164.63 9.79481 165.93 6.52355 168.244 4.11164C170.558 1.69973 173.696 0.344727 176.968 0.344727C180.241 0.344727 183.379 1.69973 185.693 4.11164C188.007 6.52355 189.307 9.79481 189.307 13.2058Z" fill="#A650FF"/>
<path d="M123.138 62H121.774V53.5821H126.524V54.7452H123.138V57.3765H126.311V58.5453H123.138V62ZM132.397 62L132.207 61.1651H132.138C131.95 61.4607 131.681 61.6929 131.332 61.8618C130.986 62.0307 130.591 62.1152 130.146 62.1152C129.374 62.1152 128.798 61.9232 128.418 61.5394C128.038 61.1555 127.848 60.574 127.848 59.7948V55.6319H129.213V59.5587C129.213 60.0462 129.313 60.4128 129.512 60.6584C129.712 60.9003 130.025 61.0212 130.451 61.0212C131.019 61.0212 131.435 60.8523 131.7 60.5145C131.969 60.1729 132.103 59.6028 132.103 58.8044V55.6319H133.462V62H132.397ZM136.744 62H135.391V53.0409H136.744V62ZM140.038 62H138.684V53.0409H140.038V62ZM141.011 55.6319H142.485L143.78 59.242C143.976 59.7564 144.106 60.24 144.172 60.693H144.218C144.252 60.4819 144.316 60.2266 144.408 59.9272C144.5 59.624 144.987 58.1922 145.87 55.6319H147.333L144.609 62.8464C144.114 64.1707 143.289 64.8328 142.133 64.8328C141.834 64.8328 141.542 64.8002 141.258 64.7349V63.664C141.462 63.7101 141.694 63.7331 141.955 63.7331C142.607 63.7331 143.066 63.355 143.331 62.5988L143.567 62L141.011 55.6319ZM156.729 62L155.889 59.6623H152.67L151.847 62H150.396L153.545 53.5476H155.042L158.192 62H156.729ZM155.526 58.4762L154.737 56.1847C154.68 56.0311 154.599 55.7893 154.495 55.4592C154.395 55.1291 154.326 54.8872 154.288 54.7337C154.184 55.2058 154.033 55.7221 153.833 56.2825L153.073 58.4762H155.526ZM163.65 62L163.46 61.1651H163.391C163.203 61.4607 162.934 61.6929 162.585 61.8618C162.239 62.0307 161.844 62.1152 161.399 62.1152C160.627 62.1152 160.052 61.9232 159.671 61.5394C159.291 61.1555 159.101 60.574 159.101 59.7948V55.6319H160.466V59.5587C160.466 60.0462 160.566 60.4128 160.765 60.6584C160.965 60.9003 161.278 61.0212 161.704 61.0212C162.272 61.0212 162.689 60.8523 162.953 60.5145C163.222 60.1729 163.356 59.6028 163.356 58.8044V55.6319H164.715V62H163.65ZM169.016 61.0212C169.346 61.0212 169.677 60.9694 170.007 60.8657V61.8848C169.857 61.9501 169.663 62.0038 169.425 62.0461C169.191 62.0921 168.947 62.1152 168.694 62.1152C167.412 62.1152 166.771 61.4396 166.771 60.0884V56.6568H165.901V56.058L166.834 55.5628L167.295 54.2155H168.13V55.6319H169.943V56.6568H168.13V60.0654C168.13 60.3917 168.21 60.6335 168.371 60.7909C168.537 60.9444 168.751 61.0212 169.016 61.0212ZM176.933 58.8044C176.933 59.8447 176.666 60.6565 176.133 61.24C175.599 61.8234 174.857 62.1152 173.905 62.1152C173.31 62.1152 172.784 61.9808 172.327 61.7121C171.87 61.4434 171.519 61.0576 171.273 60.5548C171.028 60.052 170.905 59.4685 170.905 58.8044C170.905 57.7719 171.17 56.9658 171.699 56.3862C172.229 55.8066 172.976 55.5168 173.939 55.5168C174.86 55.5168 175.59 55.8142 176.127 56.4092C176.665 57.0003 176.933 57.7987 176.933 58.8044ZM172.298 58.8044C172.298 60.2746 172.841 61.0097 173.928 61.0097C175.002 61.0097 175.54 60.2746 175.54 58.8044C175.54 57.3496 174.999 56.6222 173.916 56.6222C173.348 56.6222 172.935 56.8103 172.678 57.1865C172.425 57.5627 172.298 58.102 172.298 58.8044ZM183.86 62H182.501V58.0732C182.501 57.5857 182.409 57.223 182.225 56.985C182.04 56.7432 181.753 56.6222 181.361 56.6222C180.839 56.6222 180.455 56.7931 180.209 57.1347C179.968 57.4725 179.847 58.0367 179.847 58.8275V62H178.494V55.6319H179.553L179.743 56.4668H179.812C179.989 56.1635 180.244 55.9294 180.578 55.7643C180.916 55.5993 181.286 55.5168 181.689 55.5168C182.668 55.5168 183.317 55.8507 183.635 56.5186H183.727C183.916 56.2038 184.18 55.9582 184.522 55.7816C184.864 55.605 185.255 55.5168 185.697 55.5168C186.457 55.5168 187.009 55.7087 187.355 56.0925C187.704 56.4764 187.879 57.0618 187.879 57.8486V62H186.526V58.0732C186.526 57.5857 186.432 57.223 186.244 56.985C186.059 56.7432 185.771 56.6222 185.38 56.6222C184.854 56.6222 184.468 56.7873 184.223 57.1174C183.981 57.4437 183.86 57.9465 183.86 58.6259V62ZM193.752 62L193.481 61.1133H193.435C193.128 61.501 192.819 61.7659 192.508 61.9079C192.197 62.0461 191.798 62.1152 191.31 62.1152C190.685 62.1152 190.195 61.9463 189.842 61.6085C189.493 61.2707 189.318 60.7928 189.318 60.1748C189.318 59.5184 189.562 59.0232 190.049 58.6893C190.537 58.3553 191.28 58.173 192.278 58.1423L193.377 58.1077V57.768C193.377 57.3612 193.281 57.0579 193.09 56.8583C192.901 56.6549 192.608 56.5532 192.209 56.5532C191.882 56.5532 191.57 56.6011 191.27 56.6971C190.971 56.7931 190.683 56.9063 190.406 57.0368L189.969 56.0695C190.314 55.8891 190.692 55.7528 191.103 55.6607C191.514 55.5647 191.902 55.5168 192.266 55.5168C193.076 55.5168 193.686 55.6933 194.097 56.0465C194.512 56.3996 194.719 56.9543 194.719 57.7105V62H193.752ZM191.736 61.0788C192.228 61.0788 192.621 60.9425 192.917 60.67C193.216 60.3936 193.366 60.0078 193.366 59.5126V58.9599L192.548 58.9944C191.911 59.0175 191.447 59.125 191.155 59.3169C190.867 59.505 190.723 59.7948 190.723 60.1863C190.723 60.4704 190.808 60.6911 190.976 60.8484C191.145 61.002 191.399 61.0788 191.736 61.0788ZM198.98 61.0212C199.31 61.0212 199.64 60.9694 199.97 60.8657V61.8848C199.82 61.9501 199.627 62.0038 199.389 62.0461C199.154 62.0921 198.911 62.1152 198.657 62.1152C197.375 62.1152 196.734 61.4396 196.734 60.0884V56.6568H195.865V56.058L196.798 55.5628L197.258 54.2155H198.093V55.6319H199.907V56.6568H198.093V60.0654C198.093 60.3917 198.174 60.6335 198.335 60.7909C198.5 60.9444 198.715 61.0212 198.98 61.0212ZM204.029 62.1152C203.039 62.1152 202.264 61.8273 201.703 61.2515C201.147 60.6719 200.868 59.8754 200.868 58.862C200.868 57.8218 201.127 57.0042 201.646 56.4092C202.164 55.8142 202.876 55.5168 203.782 55.5168C204.622 55.5168 205.286 55.772 205.774 56.2825C206.261 56.7931 206.505 57.4955 206.505 58.3899V59.1211H202.262C202.281 59.7391 202.448 60.2151 202.763 60.549C203.077 60.8792 203.521 61.0442 204.093 61.0442C204.469 61.0442 204.818 61.0097 205.141 60.9406C205.467 60.8676 205.816 60.7486 206.188 60.5836V61.6833C205.858 61.8407 205.524 61.952 205.187 62.0173C204.849 62.0825 204.463 62.1152 204.029 62.1152ZM203.782 56.5416C203.352 56.5416 203.006 56.6779 202.745 56.9504C202.488 57.223 202.335 57.6203 202.285 58.1423H205.175C205.167 57.6164 205.041 57.2191 204.795 56.9504C204.549 56.6779 204.212 56.5416 203.782 56.5416ZM210.19 62.1152C209.396 62.1152 208.776 61.8273 208.33 61.2515C207.885 60.6757 207.662 59.8677 207.662 58.8275C207.662 57.7834 207.887 56.9715 208.336 56.3919C208.789 55.8085 209.415 55.5168 210.213 55.5168C211.05 55.5168 211.687 55.8258 212.125 56.4438H212.194C212.129 55.987 212.096 55.6262 212.096 55.3613V53.0409H213.455V62H212.395L212.159 61.1651H212.096C211.662 61.7985 211.027 62.1152 210.19 62.1152ZM210.553 61.0212C211.109 61.0212 211.514 60.8657 211.768 60.5548C212.021 60.24 212.152 59.7314 212.159 59.029V58.839C212.159 58.0367 212.029 57.4667 211.768 57.1289C211.507 56.7911 211.098 56.6222 210.541 56.6222C210.065 56.6222 209.699 56.8161 209.442 57.2038C209.184 57.5876 209.056 58.1365 209.056 58.8505C209.056 59.5568 209.181 60.0961 209.43 60.4684C209.68 60.8369 210.054 61.0212 210.553 61.0212ZM107.965 75.8466C107.965 75.1685 108.063 74.5338 108.26 73.9427C108.46 73.3516 108.747 72.8334 109.12 72.3881H109.742C109.374 72.882 109.096 73.4245 108.909 74.0156C108.725 74.6068 108.633 75.2145 108.633 75.8389C108.633 76.4531 108.727 77.0532 108.917 77.6392C109.106 78.2252 109.379 78.76 109.734 79.2437H109.12C108.744 78.8086 108.457 78.3007 108.26 77.7198C108.063 77.1389 107.965 76.5145 107.965 75.8466ZM110.748 78V72.3881H111.4V78H110.748ZM115.726 78V75.2785C115.726 74.9356 115.648 74.6797 115.492 74.5108C115.336 74.3419 115.092 74.2575 114.759 74.2575C114.319 74.2575 113.996 74.3764 113.792 74.6144C113.587 74.8524 113.485 75.2452 113.485 75.7929V78H112.847V73.793H113.366L113.469 74.3688H113.5C113.63 74.1615 113.813 74.0016 114.049 73.889C114.284 73.7738 114.547 73.7162 114.836 73.7162C115.342 73.7162 115.724 73.8391 115.98 74.0847C116.236 74.3278 116.363 74.7181 116.363 75.2555V78H115.726ZM119.035 77.5509C119.148 77.5509 119.256 77.5432 119.361 77.5279C119.466 77.51 119.549 77.492 119.611 77.4741V77.9616C119.542 77.9949 119.439 78.0218 119.304 78.0422C119.171 78.0653 119.05 78.0768 118.943 78.0768C118.129 78.0768 117.722 77.6481 117.722 76.7909V74.2882H117.12V73.9811L117.722 73.7162L117.991 72.818H118.36V73.793H119.58V74.2882H118.36V76.764C118.36 77.0173 118.42 77.2118 118.54 77.3475C118.66 77.4831 118.825 77.5509 119.035 77.5509ZM122.233 78.0768C121.611 78.0768 121.119 77.8874 120.759 77.5087C120.4 77.1299 120.221 76.6041 120.221 75.931C120.221 75.2529 120.388 74.7142 120.72 74.315C121.055 73.9158 121.505 73.7162 122.068 73.7162C122.595 73.7162 123.012 73.8902 123.319 74.2383C123.626 74.5837 123.779 75.0405 123.779 75.6086V76.0117H120.881C120.894 76.5055 121.018 76.8804 121.254 77.1363C121.492 77.3922 121.826 77.5202 122.256 77.5202C122.709 77.5202 123.156 77.4255 123.599 77.2361V77.8042C123.374 77.9015 123.16 77.9706 122.958 78.0115C122.758 78.055 122.517 78.0768 122.233 78.0768ZM122.06 74.2498C121.722 74.2498 121.452 74.3598 121.25 74.5799C121.05 74.8 120.933 75.1045 120.897 75.4935H123.096C123.096 75.0917 123.007 74.7846 122.828 74.5722C122.648 74.3573 122.393 74.2498 122.06 74.2498ZM128.313 73.793V74.196L127.534 74.2882C127.605 74.3777 127.669 74.4954 127.725 74.6413C127.782 74.7846 127.81 74.9471 127.81 75.1288C127.81 75.5408 127.669 75.8696 127.388 76.1153C127.106 76.361 126.72 76.4838 126.228 76.4838C126.103 76.4838 125.985 76.4736 125.875 76.4531C125.604 76.5964 125.468 76.7768 125.468 76.9943C125.468 77.1095 125.516 77.1952 125.61 77.2515C125.705 77.3052 125.868 77.3321 126.098 77.3321H126.843C127.298 77.3321 127.647 77.4281 127.891 77.62C128.136 77.8119 128.259 78.0908 128.259 78.4568C128.259 78.9225 128.072 79.2769 127.699 79.5201C127.325 79.7657 126.78 79.8885 126.063 79.8885C125.513 79.8885 125.088 79.7862 124.789 79.5815C124.492 79.3767 124.344 79.0876 124.344 78.714C124.344 78.4581 124.426 78.2367 124.589 78.0499C124.753 77.8631 124.984 77.7364 125.28 77.6699C125.173 77.6213 125.082 77.5458 125.008 77.4434C124.936 77.3411 124.9 77.2221 124.9 77.0864C124.9 76.9329 124.941 76.7985 125.023 76.6834C125.105 76.5682 125.234 76.4569 125.411 76.3494C125.193 76.2599 125.015 76.1076 124.877 75.8927C124.742 75.6777 124.674 75.432 124.674 75.1557C124.674 74.695 124.812 74.3406 125.088 74.0924C125.365 73.8416 125.756 73.7162 126.263 73.7162C126.483 73.7162 126.681 73.7418 126.858 73.793H128.313ZM124.958 78.7063C124.958 78.934 125.054 79.1068 125.246 79.2245C125.438 79.3422 125.713 79.4011 126.071 79.4011C126.606 79.4011 127.001 79.3204 127.257 79.1592C127.516 79.0006 127.645 78.7843 127.645 78.5105C127.645 78.2828 127.574 78.1241 127.434 78.0345C127.293 77.9475 127.028 77.904 126.639 77.904H125.875C125.586 77.904 125.361 77.9731 125.2 78.1113C125.039 78.2495 124.958 78.4478 124.958 78.7063ZM125.303 75.1403C125.303 75.4346 125.387 75.6572 125.553 75.8082C125.719 75.9592 125.951 76.0347 126.248 76.0347C126.869 76.0347 127.18 75.7327 127.18 75.1288C127.18 74.4967 126.866 74.1807 126.236 74.1807C125.937 74.1807 125.706 74.2613 125.545 74.4225C125.384 74.5837 125.303 74.823 125.303 75.1403ZM131.096 73.7162C131.282 73.7162 131.45 73.7316 131.599 73.7623L131.51 74.3534C131.336 74.315 131.183 74.2958 131.05 74.2958C130.709 74.2958 130.418 74.434 130.174 74.7104C129.934 74.9868 129.814 75.331 129.814 75.743V78H129.176V73.793H129.702L129.775 74.5722H129.806C129.962 74.2984 130.15 74.0873 130.37 73.9389C130.59 73.7904 130.832 73.7162 131.096 73.7162ZM134.973 78L134.846 77.4012H134.815C134.605 77.6648 134.396 77.8439 134.186 77.9386C133.978 78.0307 133.719 78.0768 133.406 78.0768C132.989 78.0768 132.662 77.9693 132.424 77.7543C132.188 77.5394 132.071 77.2336 132.071 76.8369C132.071 75.9873 132.75 75.5421 134.109 75.5011L134.823 75.4781V75.2171C134.823 74.887 134.751 74.6439 134.608 74.4878C134.467 74.3291 134.241 74.2498 133.929 74.2498C133.578 74.2498 133.181 74.3573 132.739 74.5722L132.543 74.0847C132.75 73.9721 132.977 73.8838 133.222 73.8199C133.47 73.7559 133.719 73.7239 133.967 73.7239C134.468 73.7239 134.84 73.8352 135.08 74.0578C135.323 74.2805 135.445 74.6375 135.445 75.1288V78H134.973ZM133.533 77.5509C133.93 77.5509 134.241 77.4421 134.466 77.2246C134.694 77.0071 134.808 76.7026 134.808 76.3111V75.931L134.17 75.9579C133.664 75.9758 133.298 76.0552 133.073 76.1959C132.85 76.3341 132.739 76.5503 132.739 76.8446C132.739 77.0749 132.808 77.2502 132.946 77.3705C133.087 77.4908 133.282 77.5509 133.533 77.5509ZM138.12 77.5509C138.233 77.5509 138.342 77.5432 138.446 77.5279C138.551 77.51 138.635 77.492 138.696 77.4741V77.9616C138.627 77.9949 138.524 78.0218 138.389 78.0422C138.256 78.0653 138.136 78.0768 138.028 78.0768C137.214 78.0768 136.807 77.6481 136.807 76.7909V74.2882H136.205V73.9811L136.807 73.7162L137.076 72.818H137.445V73.793H138.665V74.2882H137.445V76.764C137.445 77.0173 137.505 77.2118 137.625 77.3475C137.745 77.4831 137.91 77.5509 138.12 77.5509ZM141.318 78.0768C140.696 78.0768 140.204 77.8874 139.844 77.5087C139.485 77.1299 139.306 76.6041 139.306 75.931C139.306 75.2529 139.473 74.7142 139.805 74.315C140.141 73.9158 140.59 73.7162 141.153 73.7162C141.68 73.7162 142.097 73.8902 142.404 74.2383C142.711 74.5837 142.865 75.0405 142.865 75.6086V76.0117H139.966C139.979 76.5055 140.103 76.8804 140.339 77.1363C140.577 77.3922 140.911 77.5202 141.341 77.5202C141.794 77.5202 142.241 77.4255 142.684 77.2361V77.8042C142.459 77.9015 142.245 77.9706 142.043 78.0115C141.844 78.055 141.602 78.0768 141.318 78.0768ZM141.145 74.2498C140.807 74.2498 140.537 74.3598 140.335 74.5799C140.135 74.8 140.018 75.1045 139.982 75.4935H142.181C142.181 75.0917 142.092 74.7846 141.913 74.5722C141.733 74.3573 141.478 74.2498 141.145 74.2498ZM146.669 76.8523C146.669 77.2438 146.523 77.5458 146.231 77.7582C145.939 77.9706 145.53 78.0768 145.003 78.0768C144.445 78.0768 144.01 77.9885 143.698 77.8119V77.2208C143.9 77.3231 144.116 77.4038 144.346 77.4626C144.579 77.5215 144.803 77.5509 145.018 77.5509C145.351 77.5509 145.607 77.4984 145.786 77.3935C145.965 77.286 146.054 77.1235 146.054 76.906C146.054 76.7422 145.983 76.6028 145.839 76.4876C145.699 76.3699 145.422 76.2317 145.01 76.0731C144.619 75.9272 144.34 75.8005 144.174 75.6931C144.01 75.583 143.887 75.4589 143.805 75.3207C143.726 75.1825 143.686 75.0175 143.686 74.8256C143.686 74.4826 143.825 74.2127 144.104 74.0156C144.383 73.816 144.766 73.7162 145.252 73.7162C145.705 73.7162 146.148 73.8083 146.58 73.9926L146.354 74.5108C145.932 74.3368 145.549 74.2498 145.206 74.2498C144.904 74.2498 144.676 74.2971 144.523 74.3918C144.369 74.4865 144.292 74.617 144.292 74.7833C144.292 74.8959 144.321 74.9919 144.377 75.0712C144.436 75.1505 144.529 75.226 144.657 75.2977C144.785 75.3693 145.031 75.473 145.394 75.6086C145.893 75.7903 146.23 75.9733 146.404 76.1575C146.58 76.3418 146.669 76.5734 146.669 76.8523ZM153.186 78L152.415 75.5318C152.366 75.3809 152.275 75.0379 152.142 74.5031H152.112C152.009 74.9509 151.92 75.2964 151.843 75.5395L151.048 78H150.311L149.164 73.793H149.831C150.103 74.8499 150.309 75.6547 150.449 76.2074C150.593 76.7602 150.675 77.1325 150.695 77.3244H150.726C150.754 77.1786 150.799 76.9905 150.86 76.7602C150.924 76.5273 150.979 76.343 151.025 76.2074L151.797 73.793H152.488L153.24 76.2074C153.383 76.6476 153.481 77.0173 153.532 77.3167H153.562C153.573 77.2246 153.6 77.0826 153.643 76.8907C153.689 76.6987 153.957 75.6662 154.445 73.793H155.106L153.943 78H153.186ZM156.507 78H155.869V73.793H156.507V78ZM155.816 72.653C155.816 72.5071 155.852 72.4009 155.923 72.3344C155.995 72.2653 156.084 72.2307 156.192 72.2307C156.294 72.2307 156.383 72.2653 156.457 72.3344C156.531 72.4035 156.568 72.5096 156.568 72.653C156.568 72.7963 156.531 72.9037 156.457 72.9754C156.383 73.0445 156.294 73.079 156.192 73.079C156.084 73.079 155.995 73.0445 155.923 72.9754C155.852 72.9037 155.816 72.7963 155.816 72.653ZM159.217 77.5509C159.329 77.5509 159.438 77.5432 159.543 77.5279C159.648 77.51 159.731 77.492 159.792 77.4741V77.9616C159.723 77.9949 159.621 78.0218 159.485 78.0422C159.352 78.0653 159.232 78.0768 159.125 78.0768C158.311 78.0768 157.904 77.6481 157.904 76.7909V74.2882H157.301V73.9811L157.904 73.7162L158.173 72.818H158.541V73.793H159.762V74.2882H158.541V76.764C158.541 77.0173 158.601 77.2118 158.721 77.3475C158.842 77.4831 159.007 77.5509 159.217 77.5509ZM163.516 78V75.2785C163.516 74.9356 163.438 74.6797 163.282 74.5108C163.126 74.3419 162.881 74.2575 162.548 74.2575C162.106 74.2575 161.782 74.3777 161.577 74.6183C161.375 74.8588 161.274 75.2529 161.274 75.8005V78H160.637V72.0273H161.274V73.8352C161.274 74.0527 161.264 74.2331 161.243 74.3764H161.282C161.407 74.1743 161.585 74.0156 161.815 73.9005C162.048 73.7828 162.313 73.7239 162.61 73.7239C163.124 73.7239 163.509 73.8467 163.765 74.0924C164.024 74.3355 164.153 74.7232 164.153 75.2555V78H163.516ZM167.604 72.3881H169.189C169.934 72.3881 170.472 72.4994 170.805 72.722C171.138 72.9447 171.304 73.2965 171.304 73.7776C171.304 74.1103 171.211 74.3854 171.024 74.6029C170.84 74.8179 170.57 74.9573 170.214 75.0213V75.0597C171.066 75.2056 171.492 75.6534 171.492 76.4032C171.492 76.9047 171.322 77.2963 170.982 77.5778C170.644 77.8593 170.17 78 169.561 78H167.604V72.3881ZM168.256 74.791H169.331C169.792 74.791 170.123 74.7194 170.325 74.576C170.527 74.4302 170.629 74.1858 170.629 73.8429C170.629 73.5281 170.516 73.3017 170.291 73.1635C170.066 73.0227 169.707 72.9524 169.216 72.9524H168.256V74.791ZM168.256 75.3437V77.4434H169.427C169.88 77.4434 170.22 77.3564 170.448 77.1824C170.678 77.0058 170.794 76.7307 170.794 76.3571C170.794 76.0091 170.676 75.7532 170.44 75.5894C170.208 75.4256 169.852 75.3437 169.373 75.3437H168.256ZM176.237 75.8927C176.237 76.5785 176.064 77.1146 175.718 77.501C175.373 77.8848 174.896 78.0768 174.287 78.0768C173.91 78.0768 173.577 77.9885 173.285 77.8119C172.993 77.6353 172.768 77.382 172.609 77.0519C172.451 76.7218 172.371 76.3354 172.371 75.8927C172.371 75.2068 172.543 74.6733 172.886 74.292C173.228 73.9081 173.704 73.7162 174.313 73.7162C174.902 73.7162 175.369 73.912 175.715 74.3035C176.063 74.695 176.237 75.2248 176.237 75.8927ZM173.031 75.8927C173.031 76.43 173.139 76.8395 173.354 77.121C173.569 77.4025 173.885 77.5432 174.302 77.5432C174.719 77.5432 175.035 77.4038 175.25 77.1248C175.468 76.8433 175.576 76.4326 175.576 75.8927C175.576 75.3578 175.468 74.9522 175.25 74.6758C175.035 74.3969 174.717 74.2575 174.294 74.2575C173.877 74.2575 173.562 74.3944 173.35 74.6682C173.138 74.942 173.031 75.3501 173.031 75.8927ZM180.989 75.8927C180.989 76.5785 180.816 77.1146 180.47 77.501C180.125 77.8848 179.648 78.0768 179.039 78.0768C178.663 78.0768 178.329 77.9885 178.037 77.8119C177.745 77.6353 177.52 77.382 177.361 77.0519C177.203 76.7218 177.123 76.3354 177.123 75.8927C177.123 75.2068 177.295 74.6733 177.638 74.292C177.981 73.9081 178.457 73.7162 179.066 73.7162C179.654 73.7162 180.121 73.912 180.467 74.3035C180.815 74.695 180.989 75.2248 180.989 75.8927ZM177.784 75.8927C177.784 76.43 177.891 76.8395 178.106 77.121C178.321 77.4025 178.637 77.5432 179.054 77.5432C179.471 77.5432 179.787 77.4038 180.002 77.1248C180.22 76.8433 180.328 76.4326 180.328 75.8927C180.328 75.3578 180.22 74.9522 180.002 74.6758C179.787 74.3969 179.469 74.2575 179.046 74.2575C178.629 74.2575 178.315 74.3944 178.102 74.6682C177.89 74.942 177.784 75.3501 177.784 75.8927ZM182.739 75.8466C182.849 75.6905 183.017 75.4858 183.242 75.2324L184.601 73.793H185.357L183.653 75.5856L185.476 78H184.704L183.219 76.0117L182.739 76.4262V78H182.11V72.0273H182.739V75.194C182.739 75.3348 182.729 75.5523 182.708 75.8466H182.739ZM186.877 78H186.24V73.793H186.877V78ZM186.186 72.653C186.186 72.5071 186.222 72.4009 186.293 72.3344C186.365 72.2653 186.455 72.2307 186.562 72.2307C186.665 72.2307 186.753 72.2653 186.827 72.3344C186.901 72.4035 186.938 72.5096 186.938 72.653C186.938 72.7963 186.901 72.9037 186.827 72.9754C186.753 73.0445 186.665 73.079 186.562 73.079C186.455 73.079 186.365 73.0445 186.293 72.9754C186.222 72.9037 186.186 72.7963 186.186 72.653ZM191.107 78V75.2785C191.107 74.9356 191.029 74.6797 190.873 74.5108C190.717 74.3419 190.472 74.2575 190.14 74.2575C189.7 74.2575 189.377 74.3764 189.172 74.6144C188.968 74.8524 188.865 75.2452 188.865 75.7929V78H188.228V73.793H188.746L188.85 74.3688H188.881C189.011 74.1615 189.194 74.0016 189.43 73.889C189.665 73.7738 189.927 73.7162 190.216 73.7162C190.723 73.7162 191.104 73.8391 191.36 74.0847C191.616 74.3278 191.744 74.7181 191.744 75.2555V78H191.107ZM196.5 73.793V74.196L195.721 74.2882C195.793 74.3777 195.857 74.4954 195.913 74.6413C195.969 74.7846 195.997 74.9471 195.997 75.1288C195.997 75.5408 195.857 75.8696 195.575 76.1153C195.294 76.361 194.907 76.4838 194.416 76.4838C194.29 76.4838 194.173 76.4736 194.063 76.4531C193.791 76.5964 193.656 76.7768 193.656 76.9943C193.656 77.1095 193.703 77.1952 193.798 77.2515C193.892 77.3052 194.055 77.3321 194.285 77.3321H195.03C195.485 77.3321 195.835 77.4281 196.078 77.62C196.324 77.8119 196.446 78.0908 196.446 78.4568C196.446 78.9225 196.26 79.2769 195.886 79.5201C195.512 79.7657 194.967 79.8885 194.251 79.8885C193.701 79.8885 193.276 79.7862 192.976 79.5815C192.679 79.3767 192.531 79.0876 192.531 78.714C192.531 78.4581 192.613 78.2367 192.777 78.0499C192.941 77.8631 193.171 77.7364 193.468 77.6699C193.36 77.6213 193.269 77.5458 193.195 77.4434C193.123 77.3411 193.088 77.2221 193.088 77.0864C193.088 76.9329 193.129 76.7985 193.21 76.6834C193.292 76.5682 193.422 76.4569 193.598 76.3494C193.381 76.2599 193.203 76.1076 193.065 75.8927C192.929 75.6777 192.861 75.432 192.861 75.1557C192.861 74.695 192.999 74.3406 193.276 74.0924C193.552 73.8416 193.944 73.7162 194.45 73.7162C194.67 73.7162 194.869 73.7418 195.045 73.793H196.5ZM193.145 78.7063C193.145 78.934 193.241 79.1068 193.433 79.2245C193.625 79.3422 193.9 79.4011 194.258 79.4011C194.793 79.4011 195.189 79.3204 195.445 79.1592C195.703 79.0006 195.832 78.7843 195.832 78.5105C195.832 78.2828 195.762 78.1241 195.621 78.0345C195.48 77.9475 195.215 77.904 194.827 77.904H194.063C193.773 77.904 193.548 77.9731 193.387 78.1113C193.226 78.2495 193.145 78.4478 193.145 78.7063ZM193.491 75.1403C193.491 75.4346 193.574 75.6572 193.74 75.8082C193.907 75.9592 194.138 76.0347 194.435 76.0347C195.057 76.0347 195.368 75.7327 195.368 75.1288C195.368 74.4967 195.053 74.1807 194.423 74.1807C194.124 74.1807 193.894 74.2613 193.733 74.4225C193.571 74.5837 193.491 74.823 193.491 75.1403ZM202.669 76.5068C202.669 77.0007 202.489 77.3858 202.131 77.6622C201.773 77.9386 201.287 78.0768 200.673 78.0768C200.007 78.0768 199.495 77.991 199.137 77.8196V77.1901C199.367 77.2873 199.618 77.3641 199.89 77.4204C200.161 77.4767 200.429 77.5048 200.696 77.5048C201.131 77.5048 201.458 77.4229 201.678 77.2592C201.898 77.0928 202.008 76.8625 202.008 76.5682C202.008 76.3738 201.969 76.2151 201.889 76.0923C201.813 75.9669 201.682 75.8517 201.498 75.7468C201.316 75.6419 201.038 75.5229 200.665 75.3898C200.143 75.203 199.769 74.9817 199.544 74.7257C199.321 74.4698 199.21 74.1359 199.21 73.7239C199.21 73.2914 199.373 72.9472 199.698 72.6913C200.023 72.4354 200.452 72.3075 200.987 72.3075C201.545 72.3075 202.058 72.4098 202.527 72.6146L202.323 73.1827C201.86 72.9882 201.41 72.8909 200.972 72.8909C200.626 72.8909 200.357 72.9652 200.162 73.1136C199.968 73.262 199.87 73.468 199.87 73.7316C199.87 73.9261 199.906 74.086 199.978 74.2114C200.049 74.3342 200.17 74.4481 200.339 74.553C200.51 74.6554 200.771 74.7693 201.122 74.8946C201.71 75.1045 202.115 75.3297 202.335 75.5702C202.557 75.8108 202.669 76.123 202.669 76.5068ZM203.052 73.793H203.736L204.657 76.1921C204.859 76.7397 204.984 77.1351 205.033 77.3782H205.064C205.097 77.2477 205.166 77.025 205.271 76.7103C205.379 76.3929 205.727 75.4205 206.315 73.793H206.998L205.19 78.5835C205.011 79.0569 204.802 79.3921 204.561 79.5891C204.323 79.7887 204.03 79.8885 203.682 79.8885C203.487 79.8885 203.296 79.8668 203.106 79.8233V79.3128C203.247 79.3435 203.404 79.3588 203.578 79.3588C204.016 79.3588 204.328 79.1132 204.515 78.6218L204.749 78.023L203.052 73.793ZM210.396 76.8523C210.396 77.2438 210.25 77.5458 209.958 77.7582C209.666 77.9706 209.257 78.0768 208.73 78.0768C208.172 78.0768 207.737 77.9885 207.424 77.8119V77.2208C207.627 77.3231 207.843 77.4038 208.073 77.4626C208.306 77.5215 208.53 77.5509 208.745 77.5509C209.078 77.5509 209.334 77.4984 209.513 77.3935C209.692 77.286 209.781 77.1235 209.781 76.906C209.781 76.7422 209.71 76.6028 209.566 76.4876C209.426 76.3699 209.149 76.2317 208.737 76.0731C208.346 75.9272 208.067 75.8005 207.9 75.6931C207.737 75.583 207.614 75.4589 207.532 75.3207C207.453 75.1825 207.413 75.0175 207.413 74.8256C207.413 74.4826 207.552 74.2127 207.831 74.0156C208.11 73.816 208.493 73.7162 208.979 73.7162C209.432 73.7162 209.875 73.8083 210.307 73.9926L210.081 74.5108C209.659 74.3368 209.276 74.2498 208.933 74.2498C208.631 74.2498 208.403 74.2971 208.25 74.3918C208.096 74.4865 208.019 74.617 208.019 74.7833C208.019 74.8959 208.048 74.9919 208.104 75.0712C208.163 75.1505 208.256 75.226 208.384 75.2977C208.512 75.3693 208.758 75.473 209.121 75.6086C209.62 75.7903 209.957 75.9733 210.131 76.1575C210.307 76.3418 210.396 76.5734 210.396 76.8523ZM212.795 77.5509C212.907 77.5509 213.016 77.5432 213.121 77.5279C213.226 77.51 213.309 77.492 213.37 77.4741V77.9616C213.301 77.9949 213.199 78.0218 213.063 78.0422C212.93 78.0653 212.81 78.0768 212.702 78.0768C211.889 78.0768 211.482 77.6481 211.482 76.7909V74.2882H210.879V73.9811L211.482 73.7162L211.75 72.818H212.119V73.793H213.34V74.2882H212.119V76.764C212.119 77.0173 212.179 77.2118 212.299 77.3475C212.42 77.4831 212.585 77.5509 212.795 77.5509ZM215.992 78.0768C215.37 78.0768 214.879 77.8874 214.518 77.5087C214.16 77.1299 213.981 76.6041 213.981 75.931C213.981 75.2529 214.147 74.7142 214.48 74.315C214.815 73.9158 215.264 73.7162 215.827 73.7162C216.354 73.7162 216.771 73.8902 217.078 74.2383C217.385 74.5837 217.539 75.0405 217.539 75.6086V76.0117H214.641C214.654 76.5055 214.778 76.8804 215.013 77.1363C215.251 77.3922 215.585 77.5202 216.015 77.5202C216.468 77.5202 216.916 77.4255 217.359 77.2361V77.8042C217.133 77.9015 216.92 77.9706 216.718 78.0115C216.518 78.055 216.276 78.0768 215.992 78.0768ZM215.819 74.2498C215.482 74.2498 215.212 74.3598 215.009 74.5799C214.81 74.8 214.692 75.1045 214.656 75.4935H216.856C216.856 75.0917 216.766 74.7846 216.587 74.5722C216.408 74.3573 216.152 74.2498 215.819 74.2498ZM223.992 78V75.2631C223.992 74.9279 223.92 74.6771 223.777 74.5108C223.633 74.3419 223.411 74.2575 223.109 74.2575C222.712 74.2575 222.419 74.3713 222.23 74.5991C222.04 74.8268 221.946 75.1774 221.946 75.6508V78H221.308V75.2631C221.308 74.9279 221.237 74.6771 221.093 74.5108C220.95 74.3419 220.726 74.2575 220.422 74.2575C220.022 74.2575 219.729 74.3777 219.543 74.6183C219.358 74.8563 219.266 75.2478 219.266 75.7929V78H218.629V73.793H219.147L219.251 74.3688H219.282C219.402 74.164 219.571 74.0041 219.788 73.889C220.008 73.7738 220.254 73.7162 220.525 73.7162C221.183 73.7162 221.613 73.9542 221.815 74.4302H221.846C221.971 74.2101 222.153 74.0361 222.391 73.9081C222.629 73.7802 222.9 73.7162 223.205 73.7162C223.681 73.7162 224.036 73.8391 224.272 74.0847C224.51 74.3278 224.629 74.7181 224.629 75.2555V78H223.992ZM228.659 76.8523C228.659 77.2438 228.513 77.5458 228.222 77.7582C227.93 77.9706 227.52 78.0768 226.993 78.0768C226.435 78.0768 226 77.9885 225.688 77.8119V77.2208C225.89 77.3231 226.107 77.4038 226.337 77.4626C226.57 77.5215 226.794 77.5509 227.009 77.5509C227.341 77.5509 227.597 77.4984 227.776 77.3935C227.955 77.286 228.045 77.1235 228.045 76.906C228.045 76.7422 227.973 76.6028 227.83 76.4876C227.689 76.3699 227.413 76.2317 227.001 76.0731C226.609 75.9272 226.33 75.8005 226.164 75.6931C226 75.583 225.878 75.4589 225.796 75.3207C225.716 75.1825 225.677 75.0175 225.677 74.8256C225.677 74.4826 225.816 74.2127 226.095 74.0156C226.374 73.816 226.757 73.7162 227.243 73.7162C227.696 73.7162 228.138 73.8083 228.571 73.9926L228.344 74.5108C227.922 74.3368 227.54 74.2498 227.197 74.2498C226.895 74.2498 226.667 74.2971 226.513 74.3918C226.36 74.4865 226.283 74.617 226.283 74.7833C226.283 74.8959 226.311 74.9919 226.368 75.0712C226.426 75.1505 226.52 75.226 226.648 75.2977C226.776 75.3693 227.021 75.473 227.385 75.6086C227.884 75.7903 228.22 75.9733 228.394 76.1575C228.571 76.3418 228.659 76.5734 228.659 76.8523ZM231.035 75.8466C231.035 76.5196 230.935 77.1466 230.736 77.7275C230.539 78.3084 230.253 78.8138 229.88 79.2437H229.266C229.621 78.7626 229.894 78.229 230.083 77.643C230.273 77.0544 230.367 76.4531 230.367 75.8389C230.367 75.2145 230.274 74.6068 230.087 74.0156C229.903 73.4245 229.626 72.882 229.258 72.3881H229.88C230.256 72.8359 230.543 73.3567 230.74 73.9504C230.937 74.5415 231.035 75.1736 231.035 75.8466Z" fill="#A650FF"/>
<path d="M279.321 28.3515C279.321 28.0258 279.45 27.7133 279.681 27.483C279.911 27.2526 280.223 27.1232 280.549 27.1232H305.116C305.441 27.1232 305.754 27.2526 305.984 27.483C306.215 27.7133 306.344 28.0258 306.344 28.3515C306.344 28.6773 306.215 28.9897 305.984 29.2201C305.754 29.4505 305.441 29.5799 305.116 29.5799H280.549C280.223 29.5799 279.911 29.4505 279.681 29.2201C279.45 28.9897 279.321 28.6773 279.321 28.3515ZM307.55 2.55674L307.609 2.5592C308.068 2.59045 308.517 2.70972 308.931 2.9105C309.229 3.04925 309.485 3.26456 309.673 3.53449C309.837 3.78016 310.029 4.21498 310.029 5.01339V19.7312L310.026 19.7901C309.995 20.2491 309.876 20.6978 309.675 21.1118C309.536 21.4099 309.321 21.6658 309.051 21.8537C308.806 22.0183 308.371 22.2099 307.572 22.2099H278.115L278.056 22.2075C277.597 22.176 277.148 22.0567 276.734 21.8562C276.436 21.7173 276.18 21.502 275.992 21.2322C275.827 20.9865 275.636 20.5517 275.636 19.7533V5.0355L275.638 4.97654C275.67 4.51753 275.789 4.06882 275.99 3.65487C276.128 3.35681 276.344 3.10083 276.614 2.91296C276.859 2.74836 277.294 2.55674 278.092 2.55674H307.55ZM307.572 0.100098H278.092C273.179 0.100098 273.179 5.01339 273.179 5.01339V19.7533C273.179 24.6666 278.092 24.6666 278.092 24.6666H307.572C312.486 24.6666 312.486 19.7533 312.486 19.7533V5.01339C312.486 0.100098 307.572 0.100098 307.572 0.100098Z" fill="#A650FF"/>
<path d="M278.906 57.4341H282.004V61.6603C281.497 61.8253 281.009 61.9424 280.541 62.0115C280.077 62.0806 279.574 62.1152 279.033 62.1152C277.758 62.1152 276.776 61.739 276.085 60.9866C275.394 60.2304 275.048 59.1653 275.048 57.7911C275.048 56.4361 275.438 55.3766 276.217 54.6128C276.996 53.8451 278.069 53.4612 279.436 53.4612C280.315 53.4612 281.148 53.6301 281.934 53.9679L281.451 55.1137C280.768 54.799 280.084 54.6416 279.401 54.6416C278.503 54.6416 277.793 54.9237 277.271 55.488C276.749 56.0522 276.488 56.8238 276.488 57.8026C276.488 58.8313 276.722 59.6144 277.19 60.1518C277.662 60.6853 278.34 60.9521 279.223 60.9521C279.668 60.9521 280.144 60.8964 280.651 60.7851V58.6144H278.906V57.4341ZM288.377 62L288.187 61.1651H288.118C287.93 61.4607 287.662 61.6929 287.312 61.8618C286.967 62.0307 286.571 62.1152 286.126 62.1152C285.355 62.1152 284.779 61.9232 284.399 61.5394C284.019 61.1555 283.829 60.574 283.829 59.7948V55.6319H285.193V59.5587C285.193 60.0462 285.293 60.4128 285.493 60.6584C285.692 60.9003 286.005 61.0212 286.431 61.0212C286.999 61.0212 287.416 60.8523 287.681 60.5145C287.949 60.1729 288.084 59.6028 288.084 58.8044V55.6319H289.443V62H288.377ZM294.152 62.1152C293.162 62.1152 292.387 61.8273 291.826 61.2515C291.27 60.6719 290.991 59.8754 290.991 58.862C290.991 57.8218 291.251 57.0042 291.769 56.4092C292.287 55.8142 292.999 55.5168 293.905 55.5168C294.746 55.5168 295.41 55.772 295.897 56.2825C296.385 56.7931 296.628 57.4955 296.628 58.3899V59.1211H292.385C292.404 59.7391 292.571 60.2151 292.886 60.549C293.201 60.8792 293.644 61.0442 294.216 61.0442C294.592 61.0442 294.941 61.0097 295.264 60.9406C295.59 60.8676 295.939 60.7486 296.312 60.5836V61.6833C295.982 61.8407 295.648 61.952 295.31 62.0173C294.972 62.0825 294.586 62.1152 294.152 62.1152ZM293.905 56.5416C293.475 56.5416 293.13 56.6779 292.868 56.9504C292.611 57.223 292.458 57.6203 292.408 58.1423H295.298C295.291 57.6164 295.164 57.2191 294.918 56.9504C294.673 56.6779 294.335 56.5416 293.905 56.5416ZM302.444 60.1863C302.444 60.8081 302.217 61.286 301.764 61.62C301.311 61.9501 300.663 62.1152 299.818 62.1152C298.97 62.1152 298.288 61.9866 297.774 61.7294V60.5606C298.523 60.906 299.219 61.0788 299.864 61.0788C300.697 61.0788 301.114 60.8273 301.114 60.3245C301.114 60.1633 301.068 60.0289 300.975 59.9214C300.883 59.814 300.732 59.7027 300.521 59.5875C300.309 59.4723 300.016 59.3418 299.64 59.196C298.906 58.9119 298.409 58.6279 298.148 58.3438C297.891 58.0598 297.763 57.6913 297.763 57.2383C297.763 56.6933 297.981 56.271 298.419 55.9716C298.86 55.6684 299.459 55.5168 300.215 55.5168C300.964 55.5168 301.672 55.6684 302.34 55.9716L301.902 56.9907C301.215 56.7067 300.638 56.5647 300.169 56.5647C299.455 56.5647 299.098 56.7681 299.098 57.175C299.098 57.3746 299.191 57.5435 299.375 57.6817C299.563 57.8199 299.97 58.0099 300.595 58.2517C301.121 58.4551 301.503 58.6413 301.741 58.8102C301.979 58.9791 302.156 59.1749 302.271 59.3975C302.386 59.6163 302.444 59.8792 302.444 60.1863ZM306.284 61.0212C306.614 61.0212 306.944 60.9694 307.274 60.8657V61.8848C307.125 61.9501 306.931 62.0038 306.693 62.0461C306.459 62.0921 306.215 62.1152 305.962 62.1152C304.68 62.1152 304.039 61.4396 304.039 60.0884V56.6568H303.169V56.058L304.102 55.5628L304.563 54.2155H305.397V55.6319H307.211V56.6568H305.397V60.0654C305.397 60.3917 305.478 60.6335 305.639 60.7909C305.804 60.9444 306.019 61.0212 306.284 61.0212ZM257.067 76H255.57L254.142 70.9792C254.08 70.7604 254.004 70.4457 253.911 70.035C253.819 69.6204 253.764 69.3325 253.744 69.1713C253.706 69.417 253.643 69.7355 253.554 70.1271C253.47 70.5186 253.399 70.8103 253.341 71.0023L251.948 76H250.451L249.363 71.7853L248.257 67.5821H249.662L250.866 72.4878C251.054 73.2747 251.188 73.9694 251.269 74.5721C251.311 74.2458 251.374 73.8811 251.459 73.4781C251.543 73.0751 251.62 72.7488 251.689 72.4993L253.059 67.5821H254.424L255.829 72.5223C255.963 72.9791 256.105 73.6623 256.255 74.5721C256.312 74.0232 256.451 73.3246 256.669 72.4762L257.867 67.5821H259.26L257.067 76ZM263.095 76.1152C262.105 76.1152 261.329 75.8273 260.769 75.2515C260.212 74.6719 259.934 73.8754 259.934 72.862C259.934 71.8218 260.193 71.0042 260.711 70.4092C261.23 69.8142 261.942 69.5168 262.848 69.5168C263.688 69.5168 264.352 69.772 264.84 70.2825C265.327 70.7931 265.571 71.4955 265.571 72.3899V73.1211H261.327C261.347 73.7391 261.514 74.2151 261.828 74.549C262.143 74.8792 262.586 75.0442 263.158 75.0442C263.535 75.0442 263.884 75.0097 264.206 74.9406C264.533 74.8676 264.882 74.7486 265.254 74.5836V75.6833C264.924 75.8407 264.59 75.952 264.252 76.0173C263.915 76.0825 263.529 76.1152 263.095 76.1152ZM262.848 70.5416C262.418 70.5416 262.072 70.6779 261.811 70.9504C261.554 71.223 261.4 71.6203 261.35 72.1423H264.241C264.233 71.6164 264.107 71.2191 263.861 70.9504C263.615 70.6779 263.277 70.5416 262.848 70.5416ZM268.461 76H267.108V67.0409H268.461V76ZM272.97 76.1152C272.006 76.1152 271.273 75.8349 270.77 75.2745C270.271 74.7103 270.022 73.9023 270.022 72.8505C270.022 71.7796 270.283 70.9562 270.805 70.3804C271.331 69.8046 272.089 69.5168 273.079 69.5168C273.751 69.5168 274.355 69.6415 274.893 69.891L274.484 70.9792C273.912 70.7566 273.44 70.6453 273.068 70.6453C271.966 70.6453 271.415 71.3765 271.415 72.839C271.415 73.5529 271.551 74.0903 271.824 74.4512C272.1 74.8081 272.503 74.9866 273.033 74.9866C273.636 74.9866 274.206 74.8369 274.743 74.5375V75.7179C274.501 75.8599 274.242 75.9616 273.966 76.023C273.693 76.0844 273.361 76.1152 272.97 76.1152ZM281.888 72.8044C281.888 73.8447 281.622 74.6565 281.088 75.24C280.555 75.8234 279.812 76.1152 278.86 76.1152C278.265 76.1152 277.739 75.9808 277.282 75.7121C276.825 75.4434 276.474 75.0576 276.229 74.5548C275.983 74.052 275.86 73.4685 275.86 72.8044C275.86 71.7719 276.125 70.9658 276.655 70.3862C277.184 69.8066 277.931 69.5168 278.894 69.5168C279.816 69.5168 280.545 69.8142 281.082 70.4092C281.62 71.0003 281.888 71.7987 281.888 72.8044ZM277.253 72.8044C277.253 74.2746 277.797 75.0097 278.883 75.0097C279.958 75.0097 280.495 74.2746 280.495 72.8044C280.495 71.3496 279.954 70.6222 278.871 70.6222C278.303 70.6222 277.891 70.8103 277.633 71.1865C277.38 71.5627 277.253 72.102 277.253 72.8044ZM288.815 76H287.456V72.0732C287.456 71.5857 287.364 71.223 287.18 70.985C286.996 70.7432 286.708 70.6222 286.316 70.6222C285.794 70.6222 285.41 70.7931 285.165 71.1347C284.923 71.4725 284.802 72.0367 284.802 72.8275V76H283.449V69.6319H284.508L284.698 70.4668H284.767C284.944 70.1635 285.199 69.9294 285.533 69.7643C285.871 69.5993 286.241 69.5168 286.644 69.5168C287.623 69.5168 288.272 69.8507 288.59 70.5186H288.683C288.871 70.2038 289.136 69.9582 289.477 69.7816C289.819 69.605 290.21 69.5168 290.652 69.5168C291.412 69.5168 291.965 69.7087 292.31 70.0925C292.659 70.4764 292.834 71.0618 292.834 71.8486V76H291.481V72.0732C291.481 71.5857 291.387 71.223 291.199 70.985C291.014 70.7432 290.727 70.6222 290.335 70.6222C289.809 70.6222 289.423 70.7873 289.178 71.1174C288.936 71.4437 288.815 71.9465 288.815 72.6259V76ZM297.504 76.1152C296.513 76.1152 295.738 75.8273 295.177 75.2515C294.621 74.6719 294.342 73.8754 294.342 72.862C294.342 71.8218 294.602 71.0042 295.12 70.4092C295.638 69.8142 296.35 69.5168 297.256 69.5168C298.097 69.5168 298.761 69.772 299.248 70.2825C299.736 70.7931 299.979 71.4955 299.979 72.3899V73.1211H295.736C295.755 73.7391 295.922 74.2151 296.237 74.549C296.552 74.8792 296.995 75.0442 297.567 75.0442C297.943 75.0442 298.292 75.0097 298.615 74.9406C298.941 74.8676 299.29 74.7486 299.663 74.5836V75.6833C299.333 75.8407 298.999 75.952 298.661 76.0173C298.323 76.0825 297.937 76.1152 297.504 76.1152ZM297.256 70.5416C296.826 70.5416 296.481 70.6779 296.22 70.9504C295.962 71.223 295.809 71.6203 295.759 72.1423H298.649C298.642 71.6164 298.515 71.2191 298.269 70.9504C298.024 70.6779 297.686 70.5416 297.256 70.5416ZM310.297 70.1271C310.297 71.0061 310.009 71.6798 309.434 72.1481C308.858 72.6164 308.038 72.8505 306.975 72.8505H306.1V76H304.724V67.5821H307.148C308.2 67.5821 308.986 67.7971 309.508 68.227C310.034 68.6569 310.297 69.2903 310.297 70.1271ZM306.1 71.6932H306.831C307.537 71.6932 308.056 71.5704 308.386 71.3247C308.716 71.079 308.881 70.6952 308.881 70.1731C308.881 69.6895 308.733 69.3287 308.438 69.0907C308.142 68.8527 307.681 68.7337 307.056 68.7337H306.1V71.6932ZM315.819 76L315.548 75.1133H315.502C315.195 75.501 314.886 75.7659 314.575 75.9079C314.264 76.0461 313.865 76.1152 313.378 76.1152C312.752 76.1152 312.263 75.9463 311.909 75.6085C311.56 75.2707 311.385 74.7928 311.385 74.1748C311.385 73.5184 311.629 73.0232 312.117 72.6893C312.604 72.3553 313.347 72.173 314.345 72.1423L315.445 72.1077V71.768C315.445 71.3612 315.349 71.0579 315.157 70.8583C314.969 70.6549 314.675 70.5532 314.276 70.5532C313.95 70.5532 313.637 70.6011 313.337 70.6971C313.038 70.7931 312.75 70.9063 312.474 71.0368L312.036 70.0695C312.382 69.8891 312.76 69.7528 313.17 69.6607C313.581 69.5647 313.969 69.5168 314.333 69.5168C315.143 69.5168 315.754 69.6933 316.164 70.0465C316.579 70.3996 316.786 70.9543 316.786 71.7105V76H315.819ZM313.804 75.0788C314.295 75.0788 314.689 74.9425 314.984 74.67C315.283 74.3936 315.433 74.0078 315.433 73.5126V72.9599L314.616 72.9944C313.978 73.0175 313.514 73.125 313.222 73.3169C312.934 73.505 312.79 73.7948 312.79 74.1863C312.79 74.4704 312.875 74.6911 313.044 74.8484C313.213 75.002 313.466 75.0788 313.804 75.0788ZM324.053 69.6319V70.3747L322.964 70.5762C323.064 70.7105 323.147 70.8756 323.212 71.0714C323.277 71.2671 323.31 71.4744 323.31 71.6932C323.31 72.3496 323.083 72.8659 322.63 73.242C322.177 73.6182 321.554 73.8063 320.759 73.8063C320.556 73.8063 320.371 73.7909 320.206 73.7602C319.915 73.9406 319.769 74.1518 319.769 74.3936C319.769 74.5394 319.836 74.6488 319.97 74.7218C320.108 74.7947 320.36 74.8312 320.725 74.8312H321.836C322.538 74.8312 323.072 74.9809 323.436 75.2803C323.801 75.5797 323.983 76.0115 323.983 76.5758C323.983 77.2974 323.686 77.854 323.091 78.2455C322.496 78.6371 321.636 78.8328 320.512 78.8328C319.644 78.8328 318.982 78.6793 318.525 78.3722C318.068 78.0651 317.84 77.6275 317.84 77.0594C317.84 76.6679 317.963 76.3378 318.208 76.0691C318.458 75.8042 318.805 75.62 319.251 75.5163C319.07 75.4396 318.92 75.3167 318.801 75.1479C318.686 74.9751 318.629 74.7947 318.629 74.6066C318.629 74.3686 318.696 74.1671 318.83 74.0021C318.965 73.837 319.164 73.6739 319.429 73.5126C319.099 73.3706 318.83 73.1403 318.623 72.8217C318.42 72.4993 318.318 72.1231 318.318 71.6932C318.318 71.0023 318.535 70.4668 318.968 70.0868C319.406 69.7068 320.028 69.5168 320.834 69.5168C321.014 69.5168 321.202 69.5302 321.398 69.5571C321.598 69.5801 321.748 69.605 321.847 69.6319H324.053ZM319.049 76.9903C319.049 77.2821 319.18 77.5066 319.441 77.664C319.705 77.8214 320.076 77.9001 320.552 77.9001C321.289 77.9001 321.838 77.7945 322.199 77.5834C322.559 77.3723 322.74 77.0921 322.74 76.7428C322.74 76.4664 322.64 76.2687 322.44 76.1497C322.245 76.0345 321.878 75.977 321.341 75.977H320.316C319.928 75.977 319.619 76.0672 319.389 76.2476C319.162 76.4318 319.049 76.6794 319.049 76.9903ZM319.631 71.6932C319.631 72.0924 319.732 72.3995 319.936 72.6144C320.143 72.8294 320.439 72.9369 320.822 72.9369C321.606 72.9369 321.997 72.5185 321.997 71.6817C321.997 71.2671 321.899 70.9485 321.703 70.7259C321.511 70.4994 321.218 70.3862 320.822 70.3862C320.431 70.3862 320.133 70.4975 319.93 70.7201C319.73 70.9428 319.631 71.2671 319.631 71.6932ZM328.02 76.1152C327.029 76.1152 326.254 75.8273 325.694 75.2515C325.137 74.6719 324.859 73.8754 324.859 72.862C324.859 71.8218 325.118 71.0042 325.636 70.4092C326.154 69.8142 326.866 69.5168 327.772 69.5168C328.613 69.5168 329.277 69.772 329.764 70.2825C330.252 70.7931 330.496 71.4955 330.496 72.3899V73.1211H326.252C326.271 73.7391 326.438 74.2151 326.753 74.549C327.068 74.8792 327.511 75.0442 328.083 75.0442C328.459 75.0442 328.808 75.0097 329.131 74.9406C329.457 74.8676 329.806 74.7486 330.179 74.5836V75.6833C329.849 75.8407 329.515 75.952 329.177 76.0173C328.839 76.0825 328.453 76.1152 328.02 76.1152ZM327.772 70.5416C327.342 70.5416 326.997 70.6779 326.736 70.9504C326.479 71.223 326.325 71.6203 326.275 72.1423H329.165C329.158 71.6164 329.031 71.2191 328.785 70.9504C328.54 70.6779 328.202 70.5416 327.772 70.5416ZM336.311 74.1863C336.311 74.8081 336.084 75.286 335.631 75.62C335.178 75.9501 334.53 76.1152 333.685 76.1152C332.837 76.1152 332.156 75.9866 331.641 75.7294V74.5606C332.39 74.906 333.087 75.0788 333.731 75.0788C334.564 75.0788 334.981 74.8273 334.981 74.3245C334.981 74.1633 334.935 74.0289 334.843 73.9214C334.75 73.814 334.599 73.7027 334.388 73.5875C334.177 73.4723 333.883 73.3418 333.507 73.196C332.774 72.9119 332.277 72.6279 332.016 72.3438C331.758 72.0598 331.63 71.6913 331.63 71.2383C331.63 70.6933 331.849 70.271 332.286 69.9716C332.728 69.6684 333.326 69.5168 334.083 69.5168C334.831 69.5168 335.539 69.6684 336.207 69.9716L335.77 70.9907C335.083 70.7067 334.505 70.5647 334.037 70.5647C333.323 70.5647 332.966 70.7681 332.966 71.175C332.966 71.3746 333.058 71.5435 333.242 71.6817C333.43 71.8199 333.837 72.0099 334.463 72.2517C334.988 72.4551 335.37 72.6413 335.608 72.8102C335.846 72.9791 336.023 73.1749 336.138 73.3975C336.253 73.6163 336.311 73.8792 336.311 74.1863Z" fill="#A650FF"/>
</svg>
