<svg width="991" height="534" viewBox="0 0 991 534" fill="none" xmlns="http://www.w3.org/2000/svg">
<path d="M84.0604 55.8692C81.7916 56.8776 80.7203 55.8692 79.7119 54.0416C75.1743 45.5336 70.4476 37.0886 65.847 28.6436C65.376 27.7128 64.6834 26.912 63.8303 26.3117V55.9953L60.7422 56.3104V17.9928C62.948 17.1735 64.0824 18.1188 65.1538 20.0725C70.0065 29.0847 75.0483 38.0339 80.5942 46.9831V17.9298H84.0604V55.8692Z" fill="white"/>
<path d="M88.661 18.056C91.434 17.2367 92.8835 17.993 94.0179 20.2618C96.2867 24.6733 98.8706 28.9589 101.518 33.5595L109.143 20.1988C110.593 17.6779 110.593 17.6779 114.248 17.9299L112.357 21.3962C109.836 25.6817 107.379 30.0302 104.732 34.2527C103.723 35.9543 103.786 37.1518 104.795 38.7903C108.198 44.3363 111.475 50.0083 114.878 55.7433C112.357 56.8778 111.097 56.1215 109.963 54.0417C107.379 49.3151 104.543 44.7144 101.518 39.4836L97.3581 46.6051C95.9716 49 94.396 51.3948 93.1986 53.9157C92.0012 56.4366 90.6777 56.7517 88.0308 55.9324C90.8668 51.1427 93.3877 46.29 96.4758 41.8154C99.5639 37.3408 99.3118 35.135 96.6018 31.3537C93.8918 27.5724 91.3709 22.6566 88.661 18.056Z" fill="white"/>
<path d="M149.1 21.2068L148.028 22.6563C144.751 21.774 141.978 20.5766 139.079 20.2615C136.18 19.9464 133.848 21.648 132.903 24.547C131.958 27.446 132.84 30.156 135.487 31.8576C138.134 33.5592 141.726 35.2608 144.688 37.1515C148.658 39.6724 150.612 43.2646 149.919 47.9913C148.911 55.1758 141.852 58.8311 134.037 56.0582C131.958 55.3649 130.13 53.9154 127.861 52.5919C128.68 51.3945 129.248 50.6382 129.5 50.1341C132.21 51.4575 134.541 52.907 137.062 53.6633C140.655 54.7347 144.499 52.9701 145.885 50.071C146.707 48.4196 146.892 46.5232 146.403 44.7443C145.915 42.9655 144.788 41.429 143.239 40.4286C140.15 38.3489 136.621 36.8994 133.533 34.8196C127.357 30.5971 127.609 22.0261 133.911 18.4969C138.638 15.7869 145.129 16.9213 149.1 21.2068Z" fill="white"/>
<path d="M4.96753 52.4659L6.98424 49.945L7.86656 50.2601C10.5765 51.4575 13.1604 53.2221 15.9334 53.7893C17.4527 54.0423 19.0128 53.7676 20.3543 53.0109C21.6958 52.2542 22.7378 51.061 23.307 49.6299C23.8967 48.111 23.9885 46.4441 23.5694 44.8696C23.1503 43.2951 22.2419 41.8945 20.9752 40.8698C19.3792 39.7082 17.6933 38.6756 15.9334 37.7817C14.2318 36.7733 12.4672 35.891 10.7656 34.8196C7.17331 32.4878 5.78682 29.0846 6.54309 24.8621C7.29936 20.6396 9.88327 18.4338 13.7276 17.4885C17.572 16.5431 22.7398 17.4255 26.4581 21.0177L25.1977 22.6563C22.0466 21.774 19.3996 20.5766 16.6267 20.2615C13.8537 19.9463 11.1437 21.5849 10.1354 24.61C9.127 27.6351 10.1984 30.156 12.7823 31.8576C15.3662 33.5592 18.2652 34.8826 20.9122 36.5212C26.2061 39.7354 28.2858 44.273 26.9623 49.3148C25.2607 55.617 18.3283 58.6421 11.1437 56.0581C9.06398 55.2389 7.23633 53.7893 4.96753 52.4659Z" fill="white"/>
<path d="M29.6094 18.0559C32.1303 17.2366 33.5168 17.8669 34.5881 20.0727C37.1721 25.3665 40.0081 30.5344 43.0331 36.2694C46.1212 30.4713 49.0203 25.2405 51.6672 19.9466C52.7386 17.8039 53.999 17.2997 56.3939 18.119C53.6209 23.2238 51.1 28.3286 48.1379 33.1813C45.1759 38.034 44.1675 41.7523 44.6717 46.7311C44.8922 49.3103 44.8922 51.9036 44.6717 54.4828C44.6087 55.1131 43.6634 55.6803 43.1592 56.2475C42.529 55.6803 41.3945 55.05 41.3945 54.4198C41.1528 51.1057 41.1317 47.7792 41.3315 44.4623C41.5836 40.9961 40.5753 38.034 38.8737 35.072C35.6595 29.526 32.7605 23.791 29.6094 18.0559Z" fill="white"/>
<path d="M120.298 17.8667H123.134V56.0582H120.298V17.8667Z" fill="white"/>
<g clip-path="url(#clip0_322_146)">
<path d="M299.553 36.425C299.537 40.5963 298.698 44.7236 297.085 48.5711C295.472 52.4186 293.116 55.9111 290.152 58.8491C287.188 61.7871 283.674 64.1131 279.81 65.6943C275.946 67.2754 271.808 68.0808 267.633 68.0644C259.089 68.0645 250.894 64.6825 244.841 58.6591C238.788 52.6357 235.371 44.4616 235.338 35.9267C235.468 27.5873 238.85 19.6275 244.765 13.7416C250.68 7.8556 258.661 4.50823 267.009 4.41187C275.564 4.37843 283.786 7.72471 289.882 13.7213C295.978 19.718 299.454 27.8788 299.553 36.425ZM286.585 36.3004C286.569 33.7707 286.052 31.2691 285.064 28.9398C284.076 26.6104 282.637 24.4993 280.829 22.7279C279.021 20.9565 276.88 19.5599 274.53 18.6184C272.18 17.6769 269.666 17.2091 267.134 17.242C264.609 17.2061 262.103 17.6848 259.77 18.6488C257.436 19.6128 255.324 21.042 253.562 22.849C251.8 24.6559 250.425 26.8028 249.521 29.1584C248.617 31.514 248.204 34.0289 248.306 36.5496C248.437 41.6268 250.565 46.4481 254.229 49.9688C257.893 53.4895 262.799 55.426 267.882 55.3588C272.887 55.2931 277.663 53.2523 281.167 49.6817C284.671 46.1111 286.619 41.3007 286.585 36.3004Z" fill="white"/>
<path d="M279.728 35.9266C271.498 45.6426 266.012 47.6357 260.775 43.0268C259.791 42.1938 258.998 41.1588 258.45 39.9922C257.903 38.8257 257.613 37.5549 257.601 36.2665C257.59 34.9781 257.856 33.7022 258.382 32.5258C258.908 31.3494 259.682 30.3001 260.65 29.4492C265.763 24.7158 270.875 26.3351 279.728 35.9266Z" fill="white"/>
<path d="M309.404 28.8262H312.645L317.01 42.6528L319.254 35.6772L321.374 28.8262H324.74L326.86 35.6772L329.104 42.6528L333.469 28.8262H336.711L334.092 36.4246L330.725 46.5144H327.359C326.735 44.2722 325.987 42.1546 325.239 39.9124L322.995 33.5596L318.631 46.5144H315.389L312.396 37.6703L309.404 28.8262Z" fill="white"/>
<path d="M346.436 28.8261C347.816 28.8021 349.183 29.1007 350.426 29.6981C351.631 30.405 352.689 31.3352 353.544 32.4385C354.376 33.5364 354.932 34.8181 355.165 36.1754C355.165 36.5491 355.289 37.0474 355.289 37.6702C355.289 38.293 355.165 38.6667 355.165 39.165H340.701C341.045 40.4079 341.79 41.5026 342.82 42.2791C343.857 43.0783 345.127 43.5158 346.436 43.5248C347.977 43.4715 349.442 42.8502 350.551 41.7809L352.421 44.1476C351.586 44.8437 350.664 45.4298 349.678 45.8915C348.643 46.2895 347.545 46.5004 346.436 46.5143C345.005 46.5099 343.596 46.1685 342.322 45.5178C341.096 44.8958 340.029 44.0009 339.204 42.9019C338.415 41.7793 337.864 40.5078 337.583 39.165C337.583 38.6667 337.459 38.1685 337.459 37.6702C337.459 37.172 337.583 36.6737 337.583 36.1754C337.816 34.8181 338.372 33.5364 339.204 32.4385C340.059 31.3352 341.117 30.405 342.322 29.6981C343.605 29.086 345.015 28.7872 346.436 28.8261ZM346.436 31.8157C345.119 31.7727 343.831 32.2161 342.82 33.0613C341.743 33.7917 340.984 34.9056 340.701 36.1754H352.047C351.764 34.9056 351.006 33.7917 349.928 33.0613C348.955 32.2347 347.713 31.7917 346.436 31.8157Z" fill="white"/>
<path d="M364.891 46.5145C363.305 46.5471 361.744 46.114 360.402 45.2689C359.129 44.4938 358.061 43.4261 357.285 42.1547C356.439 40.8141 356.005 39.2549 356.038 37.6704V22.7227H359.03V30.9439C359.87 30.2869 360.792 29.7424 361.774 29.3246C362.773 28.9678 363.83 28.7989 364.891 28.8263C366.458 28.8131 368.003 29.1989 369.38 29.9474C370.694 30.7644 371.804 31.8725 372.622 33.1861C373.371 34.5614 373.757 36.1047 373.744 37.6704C373.77 39.1982 373.382 40.7046 372.622 42.0302C371.84 43.3719 370.723 44.4878 369.38 45.2689C368.038 46.114 366.477 46.5471 364.891 46.5145ZM364.891 43.525C365.927 43.5006 366.94 43.2135 367.834 42.6905C368.728 42.1675 369.475 41.4259 370.003 40.5354C370.499 39.6624 370.757 38.6744 370.751 37.6704C370.768 36.6257 370.51 35.595 370.003 34.6809C369.497 33.7998 368.765 33.0689 367.883 32.5633C366.968 32.0572 365.937 31.7995 364.891 31.8159C363.846 31.8107 362.817 32.0677 361.898 32.5633C361.054 33.0768 360.365 33.8084 359.903 34.6809C359.3 35.5586 358.994 36.6063 359.03 37.6704C359.012 38.6934 359.318 39.6961 359.903 40.5354C360.329 41.4329 361.027 42.1737 361.898 42.653C362.784 43.2404 363.828 43.5445 364.891 43.525Z" fill="white"/>
<path d="M374.616 28.8261H377.609V30.9437C378.394 30.2161 379.317 29.6536 380.324 29.2898C381.331 28.926 382.4 28.7683 383.469 28.8261V31.8157C382.424 31.7993 381.392 32.057 380.477 32.563C379.595 33.0687 378.863 33.7995 378.357 34.6806C377.851 35.5947 377.593 36.6255 377.609 37.6702V46.5143H374.616V28.8261Z" fill="white"/>
<path d="M393.07 28.8261C394.491 28.7872 395.902 29.086 397.185 29.6981C398.352 30.4078 399.368 31.3388 400.177 32.4385C401.059 33.5067 401.621 34.8021 401.798 36.1754C401.913 36.6649 401.955 37.1685 401.923 37.6702C401.943 38.1717 401.901 38.6738 401.798 39.165H387.459C387.8 40.3777 388.495 41.4616 389.454 42.2791C390.503 43.0552 391.765 43.4901 393.07 43.5248C393.888 43.5506 394.701 43.3797 395.439 43.0265C396.117 42.7001 396.747 42.2808 397.309 41.7809L399.18 44.1476C398.344 44.8437 397.422 45.4298 396.437 45.8915C395.355 46.2779 394.218 46.4882 393.07 46.5143C391.689 46.4905 390.331 46.1529 389.099 45.527C387.868 44.9012 386.795 44.0034 385.963 42.9019C385.122 41.8091 384.565 40.5253 384.342 39.165C384.342 38.6667 384.217 38.1685 384.217 37.6702C384.197 37.1687 384.239 36.6667 384.342 36.1754C384.519 34.8021 385.081 33.5067 385.963 32.4385C386.818 31.3352 387.876 30.405 389.08 29.6981C390.324 29.1007 391.69 28.8021 393.07 28.8261ZM393.07 31.8157C391.756 31.795 390.476 32.2358 389.454 33.0613C388.448 33.8372 387.743 34.9379 387.459 36.1754H398.806C398.48 34.9243 397.731 33.8241 396.686 33.0613C395.675 32.2161 394.388 31.7727 393.07 31.8157Z" fill="white"/>
<path d="M402.796 28.8262H420.502V31.8157L407.035 43.5248H420.502V46.5144H402.796V43.5248L416.138 31.8157H402.796V28.8262Z" fill="white"/>
<path d="M430.103 28.8261C431.671 28.8128 433.215 29.1987 434.592 29.9472C435.935 30.7282 437.052 31.8442 437.834 33.1858C438.622 34.5516 439.051 36.0942 439.081 37.6702C439.07 39.2096 438.638 40.7169 437.834 42.0299C437.04 43.3786 435.912 44.4999 434.558 45.2855C433.203 46.0711 431.669 46.4943 430.103 46.5143C429.035 46.499 427.978 46.2879 426.986 45.8914C426.005 45.5493 425.111 44.9966 424.368 44.2721V52.4934H421.25V37.6702C421.245 36.0893 421.677 34.5376 422.497 33.1858C423.315 31.8723 424.424 30.7642 425.739 29.9472C427.071 29.1983 428.575 28.8117 430.103 28.8261ZM430.103 31.8156C429.093 31.8121 428.1 32.0751 427.224 32.5782C426.348 33.0813 425.621 33.8066 425.116 34.6806C424.609 35.5947 424.351 36.6255 424.368 37.6702C424.361 38.6741 424.619 39.6621 425.116 40.5352C425.588 41.4415 426.328 42.1807 427.235 42.6528C428.076 43.2378 429.079 43.543 430.103 43.5247C431.139 43.5004 432.152 43.2132 433.046 42.6903C433.941 42.1673 434.687 41.4257 435.215 40.5352C435.712 39.6621 435.97 38.6741 435.964 37.6702C435.98 36.6255 435.722 35.5947 435.215 34.6806C434.709 33.7995 433.978 33.0687 433.096 32.563C432.181 32.057 431.149 31.7993 430.103 31.8156Z" fill="white"/>
<path d="M439.829 28.8266H442.821V30.9442C443.643 30.2611 444.569 29.7143 445.564 29.3249C446.564 28.9681 447.621 28.7992 448.682 28.8266V31.8162C447.636 31.7998 446.604 32.0575 445.689 32.5635C444.835 33.1046 444.111 33.8278 443.569 34.6811C443.063 35.5952 442.805 36.626 442.821 37.6707V46.5148H439.829V28.8266Z" fill="white"/>
<path d="M458.408 28.8259C459.936 28.8115 461.441 29.1981 462.772 29.947C464.115 30.728 465.232 31.844 466.014 33.1856C466.802 34.5514 467.23 36.0941 467.261 37.67C467.249 39.2094 466.818 40.7167 466.014 42.0297C465.268 43.3985 464.142 44.5231 462.772 45.2684C461.475 46.1105 459.955 46.5444 458.408 46.5141C456.82 46.5619 455.255 46.1275 453.919 45.2684C452.549 44.5231 451.423 43.3985 450.677 42.0297C449.873 40.7167 449.441 39.2094 449.43 37.67C449.46 36.0941 449.889 34.5514 450.677 33.1856C451.459 31.844 452.576 30.728 453.919 29.947C455.289 29.1824 456.839 28.7954 458.408 28.8259ZM458.408 31.8154C457.362 31.7991 456.33 32.0568 455.415 32.5628C454.533 33.0685 453.802 33.7993 453.296 34.6804C452.789 35.5945 452.531 36.6253 452.547 37.67C452.541 38.674 452.799 39.6619 453.296 40.535C453.824 41.4255 454.57 42.1671 455.465 42.6901C456.359 43.2131 457.372 43.5002 458.408 43.5245C459.432 43.5428 460.435 43.2377 461.276 42.6526C462.183 42.1805 462.923 41.4413 463.395 40.535C463.892 39.6619 464.15 38.674 464.144 37.67C464.16 36.6253 463.902 35.5945 463.395 34.6804C462.89 33.8064 462.163 33.0811 461.287 32.578C460.411 32.0749 459.418 31.8119 458.408 31.8154Z" fill="white"/>
</g>
<path d="M568.75 36.3431C570.452 32.0576 571.523 27.4569 574.044 23.6756C576.272 20.2237 579.162 17.2479 582.547 14.9204C585.933 12.5928 589.746 10.9598 593.767 10.1158C597.788 9.27183 601.936 9.23361 605.971 10.0034C610.007 10.7732 613.85 12.3356 617.277 14.6004C619.987 16.365 620.303 16.302 623.517 12.3946L628.369 17.8145L625.218 21.1547C626.731 24.1168 628.558 26.9528 629.693 29.9778C636.058 47.6241 626.605 65.4594 607.95 71.1314C607.454 71.3585 606.971 71.611 606.501 71.8877H594.526C594.337 71.6986 594.148 71.3205 593.959 71.2575C583.182 68.9886 575.809 62.6234 571.334 52.7919C570.2 50.334 569.57 47.6241 568.75 45.0402V36.3431ZM614.252 21.5328C605.807 14.3483 589.989 14.8525 581.292 26.0074C573.603 35.9019 574.422 49.7038 583.624 58.0858C594.652 68.1694 608.643 66.5938 618.16 56.7623C627.676 46.9308 625.344 31.8685 619.42 27.0788L600.577 46.1115L584.884 29.9778L590.052 25.2512C593.455 28.9065 596.732 32.3097 599.883 35.5868L614.252 21.5328Z" fill="white"/>
<path d="M894.45 47.3298L896.53 45.187C897.223 44.4307 898.609 43.6114 898.546 42.9182C898.042 37.6873 897.349 32.5195 896.593 26.6584L888.4 45.7542C887.926 46.5956 887.355 47.3783 886.698 48.086C886.005 47.3298 884.997 46.6365 884.618 45.7542C882.034 40.2082 879.577 34.6623 877.119 29.0533C876.867 28.5491 876.552 28.0449 875.732 26.7215C875.039 32.7086 874.346 37.7504 873.968 42.8552C873.905 43.6114 875.228 44.4938 875.984 45.25L878.127 47.2037L877.623 47.96H865.712L867.98 45.25C868.674 44.4307 869.934 43.7375 870.06 42.9182C871.069 35.7967 871.825 28.6121 872.707 21.4906C872.722 21.0459 872.68 20.601 872.581 20.1671C870.753 19.915 868.422 20.1671 869.556 17.2681L869.997 17.016C877.182 16.953 877.119 17.016 880.018 23.7594C882.224 28.9903 884.555 34.1581 887.202 40.2082C889.345 35.0404 891.173 30.5028 893 26.0282C894.072 23.4443 895.017 20.8604 896.088 18.3395C896.261 18.0347 896.496 17.7703 896.778 17.5638C897.061 17.3573 897.384 17.2135 897.727 17.1421C898.641 16.9636 899.579 16.9423 900.5 17.079C901.823 17.2681 903.147 17.7093 904.47 18.0244C903.484 18.6304 902.555 19.3266 901.697 20.1041C901.086 20.8224 900.771 21.746 900.815 22.688C901.571 29.2423 902.391 35.7337 903.462 42.2249C903.651 43.3594 904.975 44.3047 905.731 45.25L908 48.023H895.08L894.45 47.3298Z" fill="white"/>
<path d="M805.777 46.5948C805.777 49.809 805.714 52.0778 805.777 54.3466C805.84 56.6154 806.408 57.4977 808.55 57.8128C809.307 57.9389 809.937 59.0103 810.63 59.6405C810.442 59.856 810.273 60.088 810.126 60.3337H796.765L796.261 59.5144C797.183 58.9416 798.067 58.31 798.908 57.6238C799.664 56.9305 800.925 56.0482 800.925 55.2289C801.114 45.5865 801.051 35.8811 801.051 26.1126L797.206 24.9152C798.026 22.5833 802.185 20.5666 805.714 20.8187V44.6412L806.471 45.0823L816.365 36.0071C815.294 34.0534 811.449 35.5659 812.71 31.9737H825.629C824.558 33.2971 824.054 34.2425 823.298 34.8097C822.541 35.3769 820.336 36.3852 819.138 37.4566C816.365 39.8515 813.781 42.4354 811.071 45.0193L828.024 59.7665C822.226 62.0353 819.642 58.443 816.617 55.9222C813.592 53.4013 809.874 50.1871 805.777 46.5948Z" fill="white"/>
<path d="M850.586 35.2922C850.586 36.9938 850.712 38.3803 850.586 39.7038C850.271 42.9809 850.649 45.5018 854.934 45.3758C855.502 45.3758 856.069 46.6993 857.077 47.9597H841.385L840.628 47.3925C841.259 46.6993 841.889 45.5018 842.582 45.3758C844.977 45.0607 845.607 43.9263 845.544 41.5945C845.418 35.4813 845.481 29.3681 845.544 23.255C845.607 21.1122 845.166 19.8517 842.708 19.8517C842.078 19.8517 841.511 18.8434 840.881 18.3392C841.574 17.8981 842.267 17.1418 842.96 17.1418C848.065 17.0157 853.233 16.9527 858.338 17.1418C863.443 17.3309 867.728 21.4273 867.539 25.9019C867.35 30.3765 863.253 35.2292 858.212 35.2922H850.586ZM850.46 19.7887V31.889C852.855 31.889 854.998 31.952 857.14 31.889C860.796 31.763 862.119 30.5025 862.434 27.1623C862.749 23.8222 861.363 21.3013 858.212 20.671C855.061 20.0408 853.107 20.0408 850.46 19.7887Z" fill="white"/>
<path d="M714.371 41.2169C714.056 30.8182 721.807 25.9025 729.181 25.8395C736.555 25.7764 743.046 30.7552 743.235 40.0195C743.424 49.2838 736.681 55.523 728.11 55.46C719.538 55.3969 713.803 49.5359 714.371 41.2169ZM729.055 51.9307C730.441 51.6156 731.891 51.4895 733.151 50.9223C737.689 48.7796 738.319 44.7462 738.193 40.4606C738.067 36.1751 736.491 32.4568 732.395 30.6292C726.03 27.7301 720.484 30.9443 719.349 37.8137C717.963 46.6368 723.635 52.3088 729.055 51.9307Z" fill="white"/>
<path d="M909.386 37.3095C909.954 38.1288 910.773 38.8851 911.151 39.8304C913.042 44.5571 917.831 46.6998 921.991 44.305C922.731 43.8357 923.359 43.2079 923.827 42.4668C924.296 41.7257 924.594 40.8898 924.701 40.0195C924.764 38.696 923.44 36.7423 922.18 36.0491C919.155 34.3475 915.752 33.2761 912.537 31.7635C909.323 30.251 908.189 27.2259 908.63 24.0118C909.071 20.7977 911.403 17.7726 915.184 16.9533C919.083 15.9882 923.204 16.5997 926.654 18.6549C928.104 19.5372 929.175 25.4613 927.852 26.5327C926.528 27.6041 925.646 26.4697 925.142 25.0832C923.503 20.7977 921.676 19.4112 917.453 20.1044C916.54 20.3184 915.682 20.7203 914.933 21.2846C914.185 21.8488 913.562 22.563 913.105 23.3816C912.096 25.5874 913.483 27.541 915.878 28.4864C918.272 29.4317 921.676 30.6291 924.512 31.9526C927.348 33.2761 929.932 37.1835 929.301 41.1539C928.671 45.1243 925.457 47.7712 921.991 48.0233C918.768 48.17 915.538 48.0012 912.348 47.5191C909.512 47.141 907.874 45.5654 908.315 42.4143C908.462 40.864 908.483 39.3044 908.378 37.7507L909.386 37.3095Z" fill="white"/>
<path d="M777.538 36.9709C776.908 31.2989 775.017 29.4082 770.794 29.4082C766.572 29.4082 762.349 33.3156 762.034 37.286C761.845 39.4288 761.719 41.7606 762.286 43.7773C764.366 51.8442 773.252 53.9869 779.429 48.1889C780.122 47.4956 781.319 47.3696 782.328 47.0545C782.075 47.9998 782.138 49.1342 781.634 49.9535C778.42 54.9953 772.748 56.7599 766.257 54.9953C761.341 53.6718 757.623 48.2519 757.245 42.769C756.614 34.261 761.152 27.4545 770.92 25.942C774.828 25.3118 780.5 27.6436 781.697 30.9208C782.138 32.2442 782.075 34.1349 781.382 35.2063C780.689 36.2777 779.05 36.3407 777.538 36.9709Z" fill="white"/>
<path d="M666.519 36.4229C665.511 31.3181 663.872 29.6165 659.965 29.4274C656.057 29.2384 652.213 31.8853 651.079 35.4776C649.892 39.0595 650.117 42.9591 651.709 46.3804C654.545 52.2415 663.305 53.1238 668.284 48.2081C669.061 47.5452 669.993 47.0899 670.994 46.8846C669.607 52.6196 665.826 55.4557 659.965 55.7077C657.209 55.8651 654.472 55.1608 652.135 53.6928C649.797 52.2247 647.974 50.0656 646.919 47.5148C643.264 38.9438 647.36 27.1586 660.091 25.8982C664.88 25.394 669.733 28.167 670.615 31.8223C671.498 35.4776 669.67 36.4859 666.519 36.4229Z" fill="white"/>
<path d="M690.762 26.5954L685.342 25.1459C688.168 22.8389 691.565 21.3367 695.173 20.7974V24.4527C695.173 34.5362 695.236 44.6198 695.173 54.7034C695.11 56.7201 695.551 57.9805 697.82 58.2956C698.64 58.4217 699.27 59.4301 700.026 59.9973L699.585 61.0056H687.422C686.917 61.0056 686.35 60.3124 685.846 59.9973C685.342 59.6821 686.665 58.5477 687.106 58.4847C690.888 58.1066 690.762 55.4596 690.762 52.8127V26.5954Z" fill="white"/>
<path d="M947.515 17.7095L951.296 17.8985V30.566H963.774C963.837 31.8895 963.9 32.8979 963.963 34.1583H951.548V46.9518H947.578V34.2213H934.595V30.6921H947.515V17.7095Z" fill="white"/>
<g clip-path="url(#clip1_322_146)">
<path d="M64.4014 187.964C66.2609 172.869 69.5423 172.65 51.0569 171.994C42.7439 171.666 34.431 172.541 26.118 172.76C17.805 172.978 17.4769 174.4 18.6801 181.62C19.8833 188.839 17.3675 191.683 10.3671 192.011C9.18529 191.887 8.07397 191.389 7.19505 190.589C1.39785 185.229 2.60105 176.26 9.92958 171.775C12.336 170.244 13.3204 168.822 13.4298 165.869C13.4868 161.591 14.8768 157.437 17.406 153.986C19.9352 150.536 23.4776 147.96 27.5399 146.618C37.0561 143.446 45.5878 146.071 51.8226 153.509C52.3722 154.134 53.0438 154.641 53.796 154.999C54.5483 155.356 55.3655 155.556 56.1978 155.587C67.9016 155.806 72.2768 159.743 74.1363 171.338C74.5395 172.94 75.5624 174.317 76.9802 175.166C81.3555 177.791 82.3399 181.838 81.5742 186.432C80.8086 191.026 77.4177 192.995 72.605 191.136L64.4014 187.964Z" fill="white"/>
<path d="M325.384 197.699C321.665 196.933 318.712 196.168 315.649 195.73C314.634 195.655 313.617 195.843 312.696 196.277C305.696 198.902 300.008 197.371 296.07 191.793C293.835 188.706 292.668 184.974 292.747 181.164C292.826 177.354 294.146 173.673 296.508 170.682C301.102 165.213 306.352 164.119 313.462 167.182L315.868 167.947V155.916H325.384V197.699ZM302.852 181.292C302.961 186.323 305.586 189.496 309.305 189.496C313.024 189.496 315.868 185.886 315.868 181.511C315.868 177.135 313.462 174.182 309.087 174.182C304.711 174.182 302.633 177.245 302.852 181.292Z" fill="white"/>
<path d="M228.91 197.043V155.916H237.661V167.947C248.708 164.01 255.052 165.869 259.1 173.963C262.053 179.87 261.178 188.183 256.584 193.214C251.99 198.246 246.521 198.027 240.614 196.058C239.63 195.73 238.317 196.605 237.223 196.605L228.91 197.043ZM251.005 181.401C251.005 177.026 249.255 174.292 244.333 174.182C239.411 174.073 237.77 176.698 237.661 181.511C237.552 186.323 240.724 189.933 244.552 189.386C248.38 188.839 251.115 185.995 251.005 181.401Z" fill="white"/>
<path d="M292.461 179.104L283.054 182.932L274.085 186.87C278.132 190.807 279.226 190.698 286.007 185.885C286.773 186.651 287.757 187.417 288.523 188.292C289.419 189.188 290.259 190.137 291.039 191.136C288.994 194.027 286.053 196.162 282.671 197.21C279.289 198.258 275.656 198.161 272.335 196.933C265.006 194.089 260.959 186.87 261.943 178.557C262.709 171.994 268.944 165.869 275.726 165.103C282.507 164.337 288.851 169.259 292.461 179.104ZM280.757 176.697C280.738 175.891 280.665 175.087 280.538 174.291C278.241 174.291 275.507 173.635 273.538 174.51C271.569 175.385 271.132 178.01 269.928 179.869L271.35 180.963L280.757 176.697Z" fill="white"/>
<path d="M218.957 169.916V156.243C222.019 155.477 224.426 154.712 224.426 158.868V197.699L217.425 194.855C208.128 200.433 202.878 197.808 198.284 193.105C193.69 188.401 192.924 178.338 197.19 172.432C201.456 166.525 208.019 165.322 218.957 169.916ZM219.066 182.385C219.066 176.697 214.363 171.119 209.441 171.119C204.518 171.119 199.487 176.15 199.487 181.948C199.487 187.745 203.972 192.776 209.441 192.667C212.062 192.526 214.527 191.378 216.321 189.461C218.114 187.545 219.098 185.01 219.066 182.385Z" fill="white"/>
<path d="M326.479 193.651L330.854 186.76C335.229 188.073 338.839 192.011 344.526 187.964L336.542 184.901C330.526 182.495 327.791 178.666 328.775 173.963C329.477 171.231 331.187 168.866 333.561 167.344C335.935 165.822 338.798 165.256 341.573 165.759C344.855 166.197 348.027 167.619 351.199 168.494C349.339 175.932 349.339 175.822 342.995 173.963C341.408 173.63 339.8 173.41 338.182 173.307C338.073 173.853 337.854 174.291 337.745 174.838C338.52 175.508 339.363 176.094 340.261 176.588L345.292 178.666C351.308 181.401 353.933 185.229 352.621 189.604C350.871 195.62 345.73 198.574 339.057 197.261C335.12 196.495 331.291 195.073 326.479 193.651Z" fill="white"/>
<path d="M0.303711 204.152C17.2578 183.261 74.136 186.323 84.7459 204.043C44.0562 194.308 39.8997 194.308 0.303711 204.152Z" fill="white"/>
<path d="M118.545 187.307L122.045 190.26C118.217 195.292 113.185 197.37 107.497 197.917C103.039 198.221 98.6083 197.016 94.9179 194.496C91.2276 191.976 88.4923 188.288 87.1523 184.025C84.199 174.181 87.6992 163.899 95.5747 159.305C105.091 153.836 114.06 155.149 121.717 163.134C121.528 163.607 121.27 164.049 120.951 164.446L118.654 166.524C107.497 159.633 100.825 159.852 94.9184 167.071C89.0118 174.291 90.7619 182.822 95.9028 187.963C101.044 193.104 109.357 194.417 118.545 187.307Z" fill="white"/>
<path d="M163.609 182.057C163.653 185.164 162.77 188.214 161.073 190.817C159.376 193.42 156.942 195.459 154.081 196.673C151.221 197.887 148.064 198.222 145.012 197.635C141.961 197.047 139.153 195.564 136.948 193.375C134.743 191.185 133.24 188.388 132.631 185.341C132.022 182.294 132.335 179.134 133.529 176.265C134.723 173.396 136.744 170.948 139.335 169.233C141.926 167.517 144.97 166.613 148.077 166.634C157.047 166.744 163.609 173.306 163.609 182.057ZM147.858 192.995C152.89 192.995 158.14 187.635 158.25 182.385C158.359 177.135 152.781 171.119 147.749 171.119C142.718 171.119 137.358 176.807 137.686 182.385C138.014 187.963 142.827 193.104 147.858 192.995Z" fill="white"/>
<path d="M166.454 167.947C170.282 166.634 171.923 167.947 171.704 171.994C171.485 176.041 171.704 180.307 171.704 184.463C171.704 188.62 173.345 192.229 178.376 192.667C183.408 193.104 186.689 189.714 187.017 184.792C187.346 179.869 187.017 173.635 187.017 168.056L188.877 166.962C190.08 168.166 192.268 169.369 192.268 170.572C192.596 177.682 192.487 184.682 192.487 191.792C192.487 193.214 192.268 194.636 192.158 197.37L186.689 195.511C182.642 196.058 179.142 197.042 175.751 197.042C170.501 197.042 167.001 193.98 166.563 188.839C166.126 183.698 166.454 175.166 166.454 167.947Z" fill="white"/>
<path d="M125.326 156.134C129.155 154.93 130.467 156.134 130.358 159.634C130.248 170.791 130.248 181.948 130.358 193.214C130.467 196.714 129.045 197.698 125.326 196.605V156.134Z" fill="white"/>
<path d="M362.793 194.089C361.043 195.73 359.839 197.59 358.636 197.699C357.433 197.808 354.917 195.621 355.136 194.965C355.333 194.097 355.719 193.285 356.268 192.585C356.816 191.885 357.513 191.316 358.308 190.917C359.183 190.589 360.824 192.668 362.793 194.089Z" fill="white"/>
</g>
<g clip-path="url(#clip2_322_146)">
<path d="M659.172 125.999C656.875 135.952 654.359 145.359 652.499 154.875C651.84 158.193 652.066 161.626 653.156 164.829C656.218 173.033 659.937 181.127 663.547 189.768C640.577 194.471 623.076 207.706 606.231 222.473L620.232 204.425C614.872 200.378 609.841 196.549 604.809 192.94C599.778 189.33 600.106 187.033 603.715 183.642C607.325 180.252 612.903 174.236 618.154 170.626C620.56 168.876 625.045 168.657 627.998 169.642C635.545 172.157 642.874 175.767 650.202 179.048C651.734 179.705 653.046 180.908 654.906 181.564C650.312 167.782 645.28 154.328 632.373 145.14L650.53 130.155C636.967 130.046 626.904 138.14 615.857 143.718C604.809 149.297 600.543 162.86 593.652 175.658C585.996 145.578 562.369 136.937 538.524 128.405L537.54 129.718L556.244 144.922C544.431 153.453 539.071 165.485 534.04 179.377L549.353 172.814L554.822 170.298C562.479 167.235 569.588 166.032 575.386 174.345C577.901 177.955 581.62 180.799 584.902 183.861C588.183 186.924 587.855 189.768 584.355 192.393C579.105 196.221 573.964 200.159 568.495 204.316L582.058 222.145C565.323 207.706 548.04 194.471 525.07 189.987C528.352 182.002 531.852 174.454 534.477 166.688C535.804 162.674 536.215 158.413 535.68 154.219C534.149 144.812 531.743 135.515 529.336 124.467C536.227 125.889 542.353 126.546 548.04 128.405C556.572 131.03 564.666 132.124 573.745 129.28C589.168 124.686 604.809 126.108 620.341 130.374C624.104 131.341 628.046 131.379 631.826 130.483C640.796 128.733 649.109 123.92 659.172 125.999Z" fill="white"/>
<path d="M601.09 217.988C601.049 218.971 600.81 219.935 600.389 220.823C599.967 221.711 599.372 222.505 598.637 223.159C597.902 223.812 597.043 224.31 596.112 224.625C595.18 224.939 594.195 225.063 593.215 224.989C589.167 224.661 585.886 221.379 586.105 217.66C586.652 211.316 591.574 213.941 594.855 213.613C598.137 213.285 601.418 213.066 601.09 217.988Z" fill="white"/>
</g>
<g clip-path="url(#clip3_322_146)">
<path d="M825.825 174.455C825.89 158.511 830.681 142.945 839.593 129.724C848.505 116.504 861.137 106.223 875.892 100.181C890.647 94.1399 906.862 92.6095 922.487 95.7836C938.112 98.9578 952.444 106.694 963.672 118.014C974.9 129.334 982.52 143.729 985.566 159.379C988.613 175.029 986.951 191.231 980.79 205.936C974.628 220.641 964.245 233.189 950.952 241.993C937.659 250.797 922.054 255.462 906.111 255.397C895.52 255.368 885.039 253.25 875.269 249.165C865.498 245.079 856.63 239.105 849.172 231.586C841.714 224.067 835.812 215.15 831.806 205.347C827.8 195.543 825.767 185.045 825.825 174.455ZM976.771 174.893C976.771 135.734 945.269 103.904 906.439 103.795C887.689 103.824 869.716 111.293 856.468 124.561C843.22 137.83 835.779 155.814 835.779 174.564C835.779 213.942 866.952 245.334 906.111 245.334C915.392 245.407 924.595 243.636 933.186 240.124C941.777 236.612 949.586 231.43 956.159 224.877C962.732 218.325 967.939 210.532 971.477 201.952C975.015 193.371 976.815 184.174 976.771 174.893Z" fill="white"/>
<path d="M914.095 160.454H897.798C898.87 162.708 899.748 165.05 900.423 167.454C900.751 169.642 900.86 172.376 899.876 174.126C898.892 175.876 894.954 175.111 894.407 174.345C893.86 173.579 892.766 169.423 893.641 167.782C896.704 161.657 896.485 156.079 893.751 149.953C892.876 148.203 893.313 145.14 894.298 143.39C895.282 141.64 899.329 142.515 899.876 143.39C900.423 144.265 900.751 147.875 900.423 150.063C900.095 152.25 898.782 154 897.579 156.844H913.877C912.892 154.219 911.689 152.141 911.47 149.953C911.252 147.766 911.252 145.031 912.345 143.39C913.439 141.75 917.268 142.625 917.814 143.5C918.361 144.375 919.236 148.312 918.361 149.953C915.846 154.657 915.846 163.079 918.361 167.673C919.236 169.314 918.799 172.376 917.814 174.126C916.83 175.876 912.892 175.111 912.345 174.236C911.798 173.361 911.142 169.861 911.47 167.673C911.799 165.485 913.002 163.407 914.095 160.454Z" fill="white"/>
<path d="M866.187 191.518C866.807 191.755 867.341 192.174 867.718 192.721C867.991 193.115 868.177 193.562 868.265 194.034C868.374 194.794 868.411 195.563 868.374 196.331V203.331H865.202V196.112C865.238 195.581 865.124 195.05 864.874 194.58C864.655 193.924 864.108 193.705 863.233 193.705C862.901 193.674 862.565 193.728 862.259 193.862C861.953 193.996 861.686 194.205 861.483 194.471C861.009 195.181 860.779 196.025 860.827 196.877V203.331H857.655V187.361H860.827V192.94C861.224 192.357 861.748 191.871 862.358 191.518C862.945 191.257 863.576 191.109 864.218 191.08C864.896 191.098 865.565 191.246 866.187 191.518Z" fill="white"/>
<path d="M881.171 201.8C880.612 202.457 879.902 202.969 879.102 203.292C878.302 203.616 877.436 203.742 876.577 203.659C875.735 203.733 874.888 203.603 874.107 203.279C873.327 202.955 872.635 202.448 872.093 201.8C871.092 200.562 870.551 199.016 870.561 197.425C870.535 195.797 871.077 194.211 872.093 192.94C872.652 192.312 873.346 191.819 874.122 191.497C874.899 191.175 875.738 191.032 876.577 191.08C877.435 191.015 878.295 191.149 879.092 191.472C879.889 191.795 880.601 192.297 881.171 192.94C882.188 194.211 882.729 195.797 882.703 197.425C882.713 199.016 882.172 200.562 881.171 201.8ZM878.656 200.159C879.216 199.362 879.486 198.397 879.421 197.425C879.515 196.45 879.242 195.475 878.656 194.69C878.426 194.358 878.113 194.092 877.749 193.919C877.384 193.746 876.98 193.673 876.577 193.706C876.178 193.693 875.781 193.775 875.419 193.946C875.058 194.118 874.742 194.373 874.499 194.69C873.954 195.495 873.686 196.454 873.734 197.425C873.721 198.391 873.987 199.34 874.499 200.159C874.742 200.477 875.058 200.731 875.419 200.903C875.781 201.074 876.178 201.156 876.577 201.143C876.98 201.177 877.384 201.103 877.749 200.93C878.113 200.757 878.426 200.491 878.656 200.159Z" fill="white"/>
<path d="M883.687 193.705V191.518H885.328V188.236H888.391V191.518H890.36V193.705H888.391V200.049C888.367 200.357 888.443 200.664 888.609 200.925C888.94 201.115 889.325 201.192 889.703 201.143H890.36V203.44H888.828C888.31 203.529 887.778 203.506 887.269 203.374C886.76 203.242 886.285 203.004 885.875 202.675C885.486 202.22 885.29 201.631 885.328 201.034V193.705H883.687Z" fill="white"/>
<path d="M899.985 191.627C900.817 192.022 901.532 192.625 902.063 193.377C902.615 194.111 902.955 194.98 903.048 195.893C903.15 196.654 903.187 197.423 903.157 198.19H894.516C894.472 198.679 894.561 199.17 894.773 199.613C894.984 200.056 895.311 200.433 895.719 200.706C896.248 201.018 896.856 201.17 897.469 201.143C898.102 201.199 898.731 201.003 899.219 200.597C899.483 200.411 899.676 200.141 899.766 199.831H902.938C902.831 200.663 902.445 201.433 901.844 202.018C901.245 202.578 900.539 203.012 899.769 203.294C898.998 203.576 898.179 203.7 897.36 203.659C895.849 203.695 894.375 203.191 893.203 202.237C892.552 201.65 892.045 200.92 891.722 200.104C891.4 199.288 891.27 198.408 891.344 197.534C891.283 196.663 891.397 195.789 891.679 194.962C891.961 194.136 892.405 193.374 892.985 192.721C893.547 192.173 894.216 191.745 894.949 191.463C895.682 191.181 896.465 191.05 897.25 191.08C898.189 191.083 899.118 191.269 899.985 191.627ZM895.391 194.362C894.941 194.882 894.672 195.535 894.625 196.221H899.876C899.897 195.874 899.84 195.525 899.707 195.203C899.574 194.881 899.37 194.593 899.11 194.362C898.593 193.919 897.93 193.685 897.25 193.706C896.569 193.674 895.902 193.91 895.391 194.362Z" fill="white"/>
<path d="M907.861 203.331H904.798V187.252H907.861V203.331Z" fill="white"/>
<path d="M909.72 193.705V191.518H911.361V188.236H914.424V191.518H916.283V193.705H914.424V200.049C914.424 200.487 914.424 200.815 914.533 200.925C914.91 201.095 915.323 201.17 915.736 201.143H916.283V203.44H914.861C914.326 203.538 913.776 203.52 913.247 203.388C912.719 203.256 912.225 203.013 911.799 202.675C911.449 202.204 911.292 201.617 911.361 201.034V193.705H909.72Z" fill="white"/>
<path d="M921.533 189.986H918.361V187.143H921.533V189.986ZM918.361 191.408H921.533V203.331H918.361V191.408Z" fill="white"/>
<path d="M939.253 191.518C939.791 191.743 940.276 192.078 940.675 192.502C941.004 192.958 941.228 193.481 941.332 194.034C941.434 194.611 941.471 195.198 941.441 195.784V203.331H938.269V195.784C938.259 195.374 938.185 194.968 938.05 194.581C937.9 194.315 937.674 194.1 937.401 193.964C937.129 193.827 936.821 193.775 936.519 193.815C936.146 193.769 935.769 193.853 935.45 194.052C935.132 194.251 934.891 194.554 934.769 194.909C934.53 195.303 934.416 195.761 934.441 196.221V203.331H931.378V196.221C931.384 195.703 931.31 195.186 931.159 194.69C931.025 194.404 930.806 194.166 930.532 194.01C930.258 193.853 929.942 193.785 929.628 193.815C929.282 193.77 928.931 193.829 928.619 193.985C928.307 194.141 928.049 194.386 927.878 194.69C927.641 195.125 927.528 195.617 927.549 196.112V203.331H924.487V191.408H927.44V193.159L928.534 191.846C929.216 191.401 930.017 191.172 930.831 191.19C931.631 191.174 932.421 191.362 933.128 191.737C933.552 192.136 933.888 192.621 934.112 193.159C934.479 192.522 935.007 191.993 935.644 191.627C936.291 191.317 937.004 191.167 937.722 191.19C938.251 191.182 938.774 191.294 939.253 191.518Z" fill="white"/>
<path d="M952.051 191.627C952.862 192.054 953.571 192.651 954.129 193.377C954.599 194.143 954.897 195.001 955.004 195.893C955.107 196.654 955.143 197.423 955.114 198.19H946.472C946.45 198.676 946.548 199.16 946.758 199.599C946.968 200.038 947.283 200.418 947.676 200.706C948.204 201.018 948.812 201.17 949.426 201.143C949.739 201.177 950.057 201.146 950.358 201.052C950.659 200.958 950.937 200.803 951.176 200.596C951.446 200.39 951.67 200.129 951.832 199.831H955.004C954.798 200.651 954.383 201.405 953.801 202.018C953.209 202.589 952.504 203.03 951.732 203.312C950.96 203.595 950.137 203.713 949.316 203.659C947.806 203.695 946.332 203.191 945.16 202.237C943.957 201.253 943.41 199.721 943.41 197.534C943.349 196.663 943.463 195.788 943.745 194.962C944.027 194.136 944.471 193.374 945.05 192.721C945.589 192.17 946.237 191.739 946.954 191.457C947.67 191.174 948.438 191.046 949.207 191.08C950.181 191.083 951.146 191.268 952.051 191.627ZM947.347 194.362C946.897 194.882 946.629 195.535 946.582 196.221H951.942C951.95 195.865 951.875 195.511 951.724 195.188C951.572 194.865 951.347 194.582 951.066 194.362C950.54 193.935 949.884 193.703 949.207 193.703C948.53 193.703 947.873 193.935 947.347 194.362Z" fill="white"/>
</g>
<g clip-path="url(#clip4_322_146)">
<path d="M84.6276 315.455C84.2495 309.405 79.3338 306.002 71.3929 305.907H49.7448C49.7448 315.455 49.5557 324.152 49.9338 332.755C50.0284 334.267 52.2972 335.591 53.6207 336.914L55.7004 335.591V311.579C61.8451 311.579 67.2335 311.107 72.4328 311.768C74.7962 312.146 76.7814 314.888 78.9556 316.59C76.6868 318.291 74.6071 320.749 72.1492 321.316C69.6913 321.883 64.6811 321.6 60.238 321.6C69.0296 333.227 74.9852 336.914 82.926 334.74L72.9055 327.083C81.0354 326.043 85.0058 322.451 84.6276 315.455Z" fill="white"/>
<path d="M102.116 309.121C96.6333 317.913 91.1504 326.705 85.762 335.496L87.369 336.82C98.1458 333.133 98.713 320.276 106.843 313.375C109.017 317.346 111.286 321.316 114.122 326.326H100.509L99.8475 328.028C101.927 329.162 103.912 330.959 106.087 331.148C111.664 331.809 117.714 329.919 121.685 336.063C122.157 336.82 124.804 336.158 127.168 336.158C121.401 326.705 116.107 317.818 110.53 309.121C107.977 305.151 104.952 304.489 102.116 309.121Z" fill="white"/>
<path d="M36.1322 307.231C28.2776 306.018 20.2935 305.89 12.4043 306.853C4.65251 307.892 -0.357763 315.455 0.398505 322.545C1.15477 329.635 7.20492 336.158 16.0911 336.442H23.3701C26.5843 336.442 29.7039 336.631 32.8235 336.442C40.2916 335.969 45.7746 330.959 46.7199 323.963C47.6652 316.968 43.6948 308.46 36.1322 307.231ZM32.5399 331.053C29.5148 331.715 26.2061 331.431 22.8029 331.526C19.3997 331.62 16.7528 331.715 13.7277 330.959C8.43385 329.73 5.12518 326.137 5.59785 320.56C6.07051 314.982 9.47372 311.768 15.0512 311.485C20.6287 311.201 25.7335 311.296 31.0274 311.39C36.3212 311.485 40.1026 314.415 40.6698 320.087C41.237 325.759 38.1174 329.73 32.5399 331.053Z" fill="white"/>
<path d="M168.101 331.715V306.285L166.021 305.435C164.981 307.042 163.09 308.554 162.996 310.161C162.618 317.157 162.901 324.152 162.807 331.148C162.712 335.307 164.792 336.631 168.668 336.442C175.002 336.252 181.335 336.631 187.669 336.252C189.749 336.158 191.734 334.645 193.814 333.795L193.247 331.715H168.101Z" fill="white"/>
<path d="M212.342 331.62C207.237 331.62 202.605 330.864 200.242 325.381C208.845 321.694 218.96 328.406 225.671 320.843L225.388 318.385H200.431L199.864 316.117C202.794 314.604 205.63 312.335 208.75 311.768C211.87 311.201 217.069 311.957 221.134 311.39C223.592 311.106 225.861 309.216 228.224 308.081L227.373 306.002C220.85 306.002 214.233 305.434 207.805 306.191C201.376 306.947 195.61 310.728 194.192 318.291C192.774 325.854 195.515 333.038 201.849 334.551C208.183 336.063 217.636 335.685 225.577 335.874C226.333 335.874 227.089 333.794 228.507 331.62H212.342Z" fill="white"/>
<path d="M141.159 311.579C145.035 311.579 149.005 311.958 152.786 311.39C155.055 311.107 157.04 309.216 159.12 308.082L158.175 306.002C151.936 306.002 145.696 305.529 139.457 306.097C128.491 307.042 122.158 316.968 125.844 326.894C129.531 336.82 151.179 340.979 157.986 334.457C158.458 334.078 158.458 333.133 158.931 331.621C152.219 331.621 146.453 331.81 140.592 331.526C134.731 331.242 129.531 326.421 130.193 320.844C130.855 315.266 134.825 311.485 141.159 311.579Z" fill="white"/>
</g>
<g clip-path="url(#clip5_322_146)">
<path d="M434.16 298.724C441.911 297.4 441.911 297.4 445.315 303.639C448.718 309.879 453.445 318.67 458.077 327.084C462.425 318.954 466.679 311.769 470.271 304.301C472.729 299.196 475.849 296.738 481.899 298.724V342.682H472.068V322.735L471.122 322.451C468.003 328.123 465.072 333.796 461.858 339.373C461.007 340.886 459.4 342.682 458.077 342.776C456.753 342.871 455.146 340.98 454.295 339.562C451.081 333.985 448.056 328.313 443.897 322.83V342.776H434.16V298.724Z" fill="white"/>
<path d="M555.068 321.884C552.516 328.974 550.625 334.835 548.167 340.601C547.695 341.736 545.52 342.87 544.102 342.87C542.684 342.87 539.565 342.114 539.187 340.979C533.987 327.083 529.166 313.186 523.872 298.25C527.464 298.25 530.395 297.967 533.136 298.439C534.271 298.534 535.405 300.33 535.878 301.559C538.619 308.649 541.077 315.928 544.008 323.963C546.844 316.022 549.207 308.932 551.949 302.031C552.516 300.519 554.123 299.479 555.257 298.25C556.297 299.479 557.715 300.519 558.282 301.842C560.835 308.743 563.198 315.644 566.696 322.64C568.586 317.157 570.572 311.768 572.557 306.285C575.771 297.494 575.771 297.494 586.075 298.628C584.184 304.111 582.294 309.5 580.403 314.794C577.473 323.207 574.353 331.526 571.611 340.034C570.761 342.681 569.248 343.154 566.79 343.059C564.332 342.964 562.347 343.154 561.402 340.034C559.795 334.362 557.526 328.879 555.068 321.884Z" fill="white"/>
<path d="M393.983 298.439H426.881V342.492C423.477 341.074 419.885 340.601 420.169 335.969C420.169 335.308 419.318 334.551 418.94 333.89L415.726 336.631C411.472 331.904 407.501 335.024 403.342 337.671C399.182 340.318 397.386 340.98 393.983 342.87V298.439Z" fill="white"/>
<path d="M499.483 334.457H521.698V342.776H489.178V298.534H521.793V307.042H499.483V315.456H517.066V324.153H499.483V334.457Z" fill="white"/>
<path d="M619.824 309.5C615.853 310.824 611.977 314.605 608.48 308.555C607.818 307.42 605.833 306.759 604.32 306.475C602.808 306.192 597.797 305.624 596.758 309.122C595.718 312.62 599.31 313.565 601.957 314.51C604.604 315.456 610.087 316.779 613.963 318.481C615.802 319.269 617.422 320.492 618.686 322.043C619.949 323.595 620.818 325.429 621.217 327.39C621.617 329.351 621.535 331.379 620.98 333.301C620.424 335.223 619.411 336.982 618.028 338.427C612.261 344.478 604.793 344.95 597.041 343.06C589.289 341.169 585.792 336.82 583.712 329.541L592.504 326.516C594.489 331.905 597.892 335.213 603.658 335.213C606.684 335.213 609.898 334.93 610.749 331.243C611.599 327.556 608.48 326.422 605.833 325.476C603.186 324.531 598.081 323.113 594.3 321.6C590.518 320.088 586.17 315.739 586.264 310.067C586.359 304.395 589.668 300.992 594.772 298.818C604.982 294.658 616.421 299.291 619.824 309.5Z" fill="white"/>
</g>
<g clip-path="url(#clip6_322_146)">
<path d="M793.523 354.026V360.076C793.523 366.315 793.24 366.598 786.433 365.18V327.651L794.279 330.014C797.21 327.651 801.653 326.044 806.285 328.691C810.917 331.337 811.768 335.875 811.863 340.791C811.928 342.784 811.802 344.778 811.484 346.746C809.688 355.538 802.882 358.374 793.523 354.026ZM793.618 341.925H793.523V343.816C793.429 347.408 795.603 349.299 798.817 349.772C802.031 350.244 803.355 347.408 803.733 344.761C804.208 342.504 804.111 340.164 803.449 337.955C802.787 336.348 800.33 333.89 799.195 334.173C798.061 334.457 795.319 336.631 793.712 338.333C792.105 340.035 793.618 340.696 793.618 341.925Z" fill="white"/>
<path d="M846.651 356.389C837.954 356.2 833.133 350.811 833.416 341.736C833.7 332.661 839.183 327.367 847.88 327.462C856.577 327.556 861.493 332.945 861.304 341.831C861.115 350.717 855.537 356.578 846.651 356.389ZM853.363 342.587C853.268 341.075 853.268 340.318 853.174 339.467C852.985 336.159 851.472 333.795 847.975 333.512C844.477 333.228 842.019 335.308 841.641 338.9C841.263 342.493 841.074 344.1 842.019 346.179C842.964 348.259 845.233 349.866 847.029 349.961C848.825 350.055 851.094 348.259 852.512 346.747C853.93 345.234 853.268 343.532 853.363 342.587Z" fill="white"/>
<path d="M888.908 344.005C889.853 351.001 891.649 351.568 904.411 349.11C905.829 352.513 905.262 354.782 901.197 355.538C899.968 355.727 898.739 356.105 897.51 356.2C892.027 356.673 886.45 356.483 883.33 351.284C880.211 346.085 880.116 339.278 883.141 333.417C886.166 327.556 892.027 326.233 898.266 328.029C904.506 329.825 906.396 333.795 906.491 339.657C906.491 342.493 905.451 344.1 902.426 344.005H888.908ZM898.928 338.617C898.834 334.835 897.321 332.661 893.634 332.945C889.948 333.228 889.002 335.403 889.002 338.617H898.928Z" fill="white"/>
<path d="M865.369 322.168C871.419 320.277 871.891 320.561 872.931 327.651C874.727 329.352 879.643 326.327 878.887 331.243C878.603 332.85 875.578 333.984 873.782 335.403L872.648 334.646C872.648 338.711 872.175 342.965 872.837 347.03C873.12 348.448 876.051 349.583 878.131 350.433C880.21 351.284 879.738 354.782 876.523 355.916C873.309 357.051 867.07 355.538 865.747 351.851C865.32 350.54 865.128 349.164 865.179 347.786C865.085 339.846 865.179 331.905 865.179 323.964C865.191 323.361 865.254 322.76 865.369 322.168Z" fill="white"/>
<path d="M917.74 355.066C911.217 356.673 910.555 356.2 910.555 350.055C910.555 340.224 910.65 330.392 910.555 320.561C910.555 317.725 910.744 315.834 914.431 315.929C918.118 316.023 918.213 317.63 918.118 320.277C918.024 331.338 918.118 342.493 918.118 353.553C918.06 354.072 917.933 354.58 917.74 355.066Z" fill="white"/>
<path d="M823.018 329.447C826.137 328.88 828.973 327.84 831.526 328.218C832.377 328.313 832.849 331.905 833.511 334.079C824.341 335.592 823.774 336.159 823.774 344.667V355.444H816.306C816.306 346.936 816.211 338.806 816.4 330.581C816.521 330.056 816.776 329.57 817.141 329.173C817.506 328.775 817.967 328.479 818.48 328.313C820.182 328.313 821.789 329.163 823.018 329.447Z" fill="white"/>
<path d="M945.911 296.455L932.865 314.038C931.542 305.908 928.328 300.236 921.899 296.455H945.911Z" fill="white"/>
<path d="M947.518 294.469C946.1 286.245 943.17 280.573 936.741 276.98H960.469L947.518 294.469Z" fill="white"/>
<path d="M962.738 313.093C961.982 305.814 958.673 300.331 952.339 296.549H976.067C971.719 302.505 967.748 307.704 963.872 312.904L962.738 313.093Z" fill="white"/>
<path d="M938.443 316.212H961.982L949.031 333.606C947.613 325.665 944.777 319.899 938.443 316.212Z" fill="white"/>
<path d="M977.391 294.469C975.878 286.339 973.042 280.667 966.519 276.98H990.058L977.391 294.469Z" fill="white"/>
</g>
<path fill-rule="evenodd" clip-rule="evenodd" d="M140.824 497.501C140.824 497.672 140.833 497.789 140.864 497.838C140.893 497.883 140.946 497.9 141.053 497.905L141.268 497.918V498.053C140.83 498.036 140.393 498.036 139.955 498.053V497.918L140.17 497.905C140.279 497.9 140.332 497.883 140.358 497.838C140.39 497.789 140.399 497.671 140.399 497.501V495.489C140.399 495.318 140.39 495.201 140.358 495.153C140.332 495.108 140.279 495.095 140.17 495.086L139.986 495.072V494.937C140.225 494.941 140.485 494.951 140.749 494.951C141.013 494.951 141.272 494.941 141.534 494.937C142.25 494.923 142.439 495.287 142.439 495.609C142.439 496.098 141.999 496.39 141.565 496.475L142.583 497.803C142.65 497.892 142.748 497.91 142.856 497.918V498.053C142.74 498.049 142.636 498.04 142.532 498.04C142.43 498.04 142.331 498.049 142.228 498.053C142.17 497.969 142.102 497.892 142.044 497.812L141.219 496.703C141.148 496.605 141.062 496.521 140.986 496.426L141.013 496.373C141.134 496.382 141.272 496.377 141.408 496.355C141.722 496.302 141.991 496.058 141.991 495.728C141.991 495.242 141.632 495.109 141.283 495.109C141.081 495.109 140.95 495.131 140.824 495.163V497.501Z" fill="white"/>
<path fill-rule="evenodd" clip-rule="evenodd" d="M141.336 499.795C142.207 499.795 143.028 499.455 143.644 498.839C144.259 498.223 144.6 497.404 144.6 496.531C144.601 496.103 144.517 495.678 144.353 495.283C144.189 494.887 143.948 494.528 143.644 494.225C143.342 493.921 142.982 493.68 142.586 493.516C142.19 493.352 141.765 493.268 141.336 493.27C140.472 493.271 139.643 493.615 139.031 494.226C138.42 494.838 138.076 495.667 138.075 496.531C138.075 497.404 138.414 498.223 139.031 498.839C139.647 499.454 140.465 499.795 141.336 499.795ZM138.714 496.531C138.714 495.831 138.987 495.172 139.483 494.678C139.977 494.183 140.637 493.909 141.336 493.909C142.036 493.909 142.696 494.182 143.191 494.678C143.435 494.921 143.629 495.21 143.761 495.528C143.892 495.846 143.96 496.187 143.958 496.531C143.958 497.227 143.682 497.893 143.19 498.385C142.698 498.877 142.032 499.153 141.336 499.153C140.992 499.154 140.651 499.087 140.333 498.955C140.015 498.824 139.726 498.63 139.483 498.386C139.239 498.143 139.045 497.854 138.913 497.536C138.781 497.217 138.713 496.876 138.714 496.531ZM11.8294 505.208C11.8294 505.726 11.8567 506.078 11.9517 506.229C12.033 506.366 12.1964 506.419 12.5231 506.433L13.1757 506.474V506.882C12.5186 506.856 11.861 506.842 11.2034 506.841C10.537 506.841 9.89733 506.856 9.18999 506.882V506.474L9.84262 506.433C10.1693 506.419 10.3327 506.366 10.414 506.229C10.5089 506.079 10.5363 505.726 10.5363 505.208V502.175C10.1604 502.153 9.78381 502.144 9.40728 502.148H6.22617C5.62748 502.148 5.26051 502.162 5.09717 502.175V505.208C5.09717 505.726 5.12452 506.078 5.22025 506.229C5.30154 506.366 5.46489 506.419 5.79083 506.433L6.44346 506.474V506.882C5.78634 506.856 5.12878 506.842 4.47113 506.841C3.80482 506.841 3.1651 506.856 2.45776 506.882V506.474L3.1104 506.433C3.43709 506.419 3.60044 506.366 3.68174 506.229C3.77671 506.079 3.80406 505.726 3.80406 505.208V499.102C3.80406 498.585 3.77671 498.231 3.68174 498.08C3.60044 497.945 3.43709 497.891 3.1104 497.877L2.45776 497.835V497.429C3.1651 497.455 3.80406 497.469 4.47113 497.469C5.09641 497.469 5.73612 497.455 6.44346 497.429V497.835L5.79083 497.877C5.46413 497.891 5.30154 497.945 5.22025 498.08C5.12452 498.23 5.09717 498.585 5.09717 499.102V501.524C5.26051 501.537 5.62748 501.55 6.22617 501.55H9.4088C10.0075 501.55 10.3745 501.537 10.5378 501.524V499.102C10.5378 498.585 10.5105 498.231 10.4155 498.08C10.3342 497.945 10.1708 497.891 9.84414 497.877L9.19151 497.835V497.429C9.89884 497.455 10.5378 497.469 11.2049 497.469C11.8302 497.469 12.4699 497.455 13.1772 497.429V497.835L12.5246 497.877C12.1979 497.891 12.0345 497.945 11.9532 498.08C11.8583 498.23 11.8309 498.585 11.8309 499.102V505.208H11.8294ZM20.0302 502.162C20.0302 499.36 21.9889 497.198 25.1442 497.198C28.0548 497.198 30.1221 498.83 30.1221 501.849C30.1221 504.774 27.8375 507.114 24.8585 507.114C22.0983 507.113 20.0302 505.208 20.0302 502.162ZM21.4859 501.659C21.4859 504.039 22.6013 506.543 25.2938 506.543C27.5655 506.543 28.6672 504.774 28.6672 502.272C28.6672 499.579 27.4569 497.77 24.9269 497.77C22.5602 497.769 21.4859 499.428 21.4859 501.659ZM49.5598 505.208C49.5598 505.726 49.5871 506.078 49.6829 506.229C49.7642 506.366 49.9275 506.419 50.2534 506.433L50.9061 506.474V506.882C50.249 506.856 49.5914 506.842 48.9337 506.841C48.2674 506.841 47.6285 506.856 47.1118 506.882V506.474L47.5738 506.433C47.9005 506.406 48.0638 506.366 48.1451 506.229C48.2401 506.079 48.2674 505.726 48.2674 505.208V499.033H48.2401C48.0365 499.401 47.8458 499.781 47.6695 500.149L45.2482 505.29C44.9898 505.848 44.7581 506.447 44.5135 507.018H44.2422L40.4746 499.033H40.4472V505.208C40.4472 505.726 40.4746 506.078 40.5696 506.229C40.6509 506.366 40.8142 506.405 41.1409 506.433L41.7396 506.474V506.882C41.1409 506.869 40.6509 506.841 40.1076 506.841C39.6176 506.841 39.0736 506.869 38.5296 506.882V506.474L39.1283 506.433C39.455 506.406 39.6183 506.366 39.6996 506.229C39.7946 506.079 39.822 505.726 39.822 505.208V499.102C39.822 498.585 39.7946 498.231 39.6996 498.08C39.6183 497.945 39.455 497.904 39.1283 497.877L38.5296 497.835V497.429C38.9513 497.442 39.3866 497.469 39.822 497.469C40.2573 497.469 40.6926 497.442 41.1143 497.429L44.7057 504.991L48.269 497.429C48.7043 497.442 49.126 497.469 49.5613 497.469C49.9967 497.469 50.432 497.442 50.8263 497.429V497.835L50.255 497.877C49.9283 497.903 49.7649 497.945 49.6844 498.08C49.5887 498.23 49.5613 498.585 49.5613 499.102V505.208H49.5598ZM59.8963 499.102C59.8963 498.585 59.869 498.231 59.774 498.08C59.6927 497.945 59.5294 497.891 59.2027 497.877L58.55 497.835V497.429C59.2976 497.442 60.0733 497.469 60.8483 497.469C62.032 497.469 63.2833 497.429 64.0583 497.429C64.6706 497.429 65.2822 497.442 65.8133 497.469C65.6636 498.067 65.5953 498.843 65.5953 499.536H65.1197V498.653C65.1197 498.476 65.106 498.325 64.9973 498.286C64.2763 498.014 63.202 497.999 62.3313 497.999C61.9636 497.999 61.5701 498.014 61.1887 498.109V501.74C61.624 501.767 62.1133 501.782 62.7667 501.782C63.5963 501.782 64.059 501.727 64.2087 501.632C64.2763 501.578 64.3037 501.456 64.3174 501.278L64.385 500.571H64.793C64.7793 501.129 64.7519 501.645 64.7519 502.148C64.7519 502.651 64.7793 503.169 64.793 503.659H64.385L64.3174 502.856C64.3037 502.679 64.2763 502.555 64.2087 502.516C64.059 502.406 63.5963 502.353 62.7667 502.353C62.114 502.353 61.6103 502.353 61.1887 502.393V506.202C61.5693 506.297 61.9636 506.311 62.3313 506.311C63.4467 506.311 64.834 506.269 65.0786 506.135C65.283 506.025 65.4593 505.427 65.5542 504.611H66.0299C65.8862 505.346 65.8135 506.092 65.8126 506.841C65.2139 506.856 64.1396 506.896 63.1329 506.883C62.0859 506.869 61.0109 506.841 60.1675 506.841C59.6509 506.841 59.2019 506.869 58.7118 506.883V506.475L59.2019 506.433C59.5286 506.407 59.6919 506.366 59.7732 506.23C59.8682 506.08 59.8956 505.727 59.8956 505.209V499.102H59.8963ZM77.9725 499.455C77.9725 498.938 77.9588 498.504 77.9178 498.096H75.811C75.403 498.096 75.2928 498.217 75.2662 498.544L75.2115 499.618H74.7899C74.7899 498.884 74.7633 498.136 74.6949 497.429C75.6742 497.429 76.6536 497.47 77.6329 497.47H79.6052C80.5846 497.47 81.5639 497.429 82.5432 497.429C82.4748 498.136 82.4482 498.884 82.4482 499.618H82.0251L81.9719 498.544C81.9438 498.217 81.8351 498.096 81.4271 498.096H79.3188C79.2785 498.504 79.2656 498.938 79.2656 499.455V505.208C79.2656 505.726 79.2922 506.078 79.3872 506.229C79.4685 506.366 79.6318 506.419 79.9585 506.433L80.6111 506.474V506.882C79.954 506.856 79.2965 506.842 78.6388 506.841C77.9725 506.841 77.3328 506.856 76.6255 506.882V506.474L77.2796 506.433C77.6048 506.419 77.7681 506.366 77.8494 506.229C77.9459 506.079 77.9725 505.726 77.9725 505.208V499.455ZM93.6121 505.208C93.6121 505.726 93.6387 506.078 93.7352 506.229C93.8165 506.366 93.9783 506.419 94.3066 506.433L94.9592 506.474V506.882C94.3016 506.856 93.6435 506.842 92.9853 506.841C92.319 506.841 91.6793 506.856 90.9735 506.882V506.474L91.6261 506.433C91.9528 506.419 92.1162 506.366 92.1975 506.229C92.2924 506.079 92.319 505.726 92.319 505.208V499.102C92.319 498.585 92.2924 498.231 92.1975 498.08C92.1162 497.945 91.9528 497.891 91.6261 497.877L90.9735 497.835V497.429C91.6438 497.455 92.3145 497.468 92.9853 497.469C93.6114 497.469 94.2511 497.455 94.9592 497.429V497.835L94.3066 497.877C93.9783 497.891 93.8165 497.945 93.7352 498.08C93.6387 498.23 93.6121 498.585 93.6121 499.102V505.208ZM115.484 505.208C115.484 505.726 115.512 506.078 115.607 506.229C115.688 506.366 115.852 506.419 116.179 506.433L116.831 506.474V506.882C116.174 506.856 115.516 506.842 114.859 506.841C114.191 506.841 113.553 506.856 113.035 506.882V506.474L113.498 506.433C113.825 506.406 113.988 506.366 114.069 506.229C114.164 506.079 114.191 505.726 114.191 505.208V499.033H114.164C113.961 499.401 113.769 499.781 113.593 500.149L111.172 505.29C110.914 505.848 110.682 506.447 110.438 507.018H110.166L106.398 499.033H106.372V505.208C106.372 505.726 106.398 506.078 106.495 506.229C106.574 506.366 106.739 506.405 107.064 506.433L107.664 506.474V506.882C107.064 506.869 106.574 506.841 106.032 506.841C105.542 506.841 104.998 506.869 104.455 506.882V506.474L105.053 506.433C105.379 506.406 105.543 506.366 105.624 506.229C105.719 506.079 105.745 505.726 105.745 505.208V499.102C105.745 498.585 105.719 498.231 105.624 498.08C105.543 497.945 105.379 497.904 105.053 497.877L104.455 497.835V497.429C104.876 497.442 105.311 497.469 105.745 497.469C106.182 497.469 106.616 497.442 107.038 497.429L110.629 504.991L114.192 497.429C114.628 497.442 115.05 497.469 115.484 497.469C115.92 497.469 116.355 497.442 116.75 497.429V497.835L116.179 497.877C115.852 497.903 115.688 497.945 115.607 498.08C115.512 498.23 115.484 498.585 115.484 499.102V505.208ZM126.637 499.102C126.637 498.585 126.61 498.231 126.514 498.08C126.434 497.945 126.27 497.891 125.944 497.877L125.29 497.835V497.429C126.039 497.442 126.814 497.469 127.589 497.469C128.772 497.469 130.023 497.429 130.799 497.429C131.411 497.429 132.023 497.442 132.554 497.469C132.405 498.067 132.337 498.843 132.337 499.536H131.861V498.653C131.861 498.476 131.847 498.325 131.738 498.286C131.017 498.014 129.942 497.999 129.072 497.999C128.705 497.999 128.31 498.014 127.93 498.109V501.74C128.364 501.767 128.854 501.782 129.507 501.782C130.337 501.782 130.799 501.727 130.949 501.632C131.016 501.578 131.044 501.456 131.058 501.278L131.126 500.571H131.534C131.52 501.129 131.492 501.645 131.492 502.148C131.492 502.651 131.52 503.169 131.534 503.659H131.126L131.058 502.856C131.044 502.679 131.016 502.555 130.949 502.516C130.799 502.406 130.336 502.353 129.507 502.353C128.854 502.353 128.351 502.353 127.93 502.393V506.202C128.31 506.297 128.705 506.311 129.072 506.311C130.187 506.311 131.574 506.269 131.819 506.135C132.024 506.025 132.2 505.427 132.295 504.611H132.772C132.635 505.263 132.554 506.107 132.554 506.841C131.956 506.856 130.881 506.896 129.875 506.883C128.828 506.869 127.753 506.899 126.909 506.899C126.393 506.899 125.944 506.869 125.455 506.883V506.475L125.945 506.433C126.272 506.407 126.435 506.366 126.515 506.23C126.612 506.08 126.638 505.727 126.638 505.209V499.102H126.637ZM45.2026 455.52L45.2747 455.476C50.8066 449.898 58.275 446.296 66.5283 445.976L66.5396 445.947L66.529 414.189C49.3835 414.404 33.8373 421.501 22.4394 432.814L22.5162 432.832L45.2026 455.52ZM64.9768 415.724L64.9852 444.496L64.9799 444.513C57.4119 445.156 50.5414 448.426 45.2071 453.379L45.1608 453.31L24.4687 432.646C35.5506 422.226 49.7892 416.281 64.9768 415.724ZM88.8978 455.933C83.2445 450.527 75.8733 447.528 68.0379 447.451L68.0462 476.852L88.8978 455.933ZM69.5924 449.046V449.063C75.8555 449.446 81.823 451.861 86.5897 455.941L69.6007 473.002L69.5924 449.064L69.5817 449.063L69.5924 449.046ZM44.1693 456.603L21.3887 433.822L21.3963 433.871C10.1473 445.555 3.20917 461.454 3.20917 478.817H35.5217L35.5779 478.846C35.5779 470.4 38.851 462.537 44.1951 456.617L44.1693 456.603ZM34.0546 477.352L34.0706 477.355H4.71425L4.72261 477.352C5.07134 462.007 10.8949 447.168 21.2603 435.887L42.0678 456.701L42.0708 456.697L42.0944 456.728L42.0678 456.702C37.3535 462.387 34.3935 469.597 34.0546 477.352ZM68.0379 447.446L68.0288 447.45L68.0379 447.451V447.446Z" fill="white"/>
<path fill-rule="evenodd" clip-rule="evenodd" d="M89.9058 454.824L89.9461 454.86L112.24 432.541C100.346 420.861 84.6924 414.364 68.0286 414.187L68.0377 445.946L68.0286 445.953C76.2446 446.028 83.9729 449.166 89.9058 454.824ZM69.58 415.72C84.7684 416.254 99.0138 422.175 110.109 432.571L89.8967 452.762L89.8534 452.673C84.1818 447.723 77.11 444.851 69.5793 444.446L69.5899 444.445L69.58 415.72ZM45.0345 457.503C39.8901 463.234 37.0745 471.151 37.0745 478.846L66.3465 478.837L45.0193 457.453L45.0345 457.503ZM45.1765 459.753L62.7262 477.355L62.6776 477.353L38.6221 477.355L38.6677 477.352C38.9784 471.059 41.2379 464.702 45.1537 459.772L45.1765 459.753ZM113.289 433.594L90.971 455.889C96.7209 461.901 99.8807 469.78 99.8807 478.851H131.498C131.449 462.216 125.006 445.654 113.289 433.594ZM93.1614 455.981L93.0854 456.05L113.325 435.811C123.737 447.117 129.588 462.133 129.98 477.352L101.387 477.353L101.407 477.352C101.097 469.07 98.2108 461.774 93.1614 455.981ZM66.5265 447.472C58.7891 447.769 51.5585 450.808 46.0533 456.313L66.5349 476.846L66.5493 476.803L66.5395 447.445L66.5265 447.472ZM64.9781 473.103L48.2969 456.443L48.2809 456.456L48.2878 456.434L48.2969 456.443C52.9626 452.247 58.7648 449.71 64.9812 449.132L64.9857 449.097L64.9926 473.052L64.9781 473.103ZM90.9368 455.923L90.971 455.889L90.9574 455.875L90.9368 455.923Z" fill="white"/>
<path fill-rule="evenodd" clip-rule="evenodd" d="M67.978 478.851H98.3828C98.3828 470.173 95.3749 462.662 89.8978 456.933L67.978 478.851ZM71.729 477.353L89.8902 459.241L89.8887 459.243C94.0833 464.161 96.4948 470.371 96.7949 477.406L71.729 477.353Z" fill="white"/>
<g clip-path="url(#clip7_322_146)">
<path d="M278.469 459.642C281.998 450.062 286.409 446.344 296.115 444.832C295.8 447.542 295.737 449.747 292.396 450.945C284.771 453.592 281.683 460.209 284.771 466.322C286.535 469.725 289.56 471.742 293.153 472.876C304.182 476.532 313.698 473.318 322.332 466.322L324.727 464.179C325.252 464.754 325.737 465.365 326.176 466.007C326.618 466.7 326.996 467.394 327.374 468.087C318.488 478.485 302.039 482.267 289.75 476.91C283.888 474.389 280.233 469.977 278.469 463.99V459.642Z" fill="white"/>
<path d="M386.174 448.55L383.716 450.755C380.187 449.621 377.035 448.109 373.758 447.73C368.401 447.163 363.801 449.306 361.154 454.222C358.507 459.137 358.885 463.486 361.847 467.771C364.809 472.057 369.914 473.948 375.397 473.254C380.88 472.561 381.006 471.868 381.006 466.763V460.398H385.859C385.859 464.494 385.922 468.528 385.796 472.561C385.735 472.957 385.592 473.336 385.375 473.673C385.157 474.01 384.871 474.297 384.535 474.515C378.548 479.242 366.889 478.926 360.713 473.948C354.536 468.969 352.646 459.642 356.49 452.142C361.784 441.869 378.107 439.664 386.174 448.55Z" fill="white"/>
<path d="M337.52 454.473C334.18 452.016 332.857 450.188 333.613 446.785C334.621 442.121 333.172 437.836 328.949 435.063C324.727 432.29 320.063 432.983 316.03 435.756C307.018 442.058 303.992 451.07 304.623 461.595C304.749 463.927 305.253 466.259 305.568 468.59C300.841 469.725 300.526 469.473 299.896 464.998C298.131 453.339 300.904 443.129 309.349 434.684C313.068 431.029 317.416 428.445 322.899 428.382C331.407 428.256 338.592 434.81 338.781 443.192C338.844 446.722 338.025 450.314 337.52 454.473Z" fill="white"/>
<path d="M307.774 484.661C311.492 482.897 313.761 482.645 316.408 484.977C320.126 488.254 324.79 489.199 329.454 486.615C334.117 484.031 335.693 479.683 334.811 474.263C332.983 462.793 325.861 455.671 315.4 451.449L313.32 450.755L311.555 450.125C312.438 445.525 313.005 445.146 317.164 446.848C329.012 451.512 337.205 459.516 339.474 472.372C340.987 480.754 338.151 487.434 331.975 490.964C325.798 494.493 318.362 493.296 311.996 487.876C310.799 486.867 309.539 485.985 307.774 484.661Z" fill="white"/>
<path d="M564.527 470.544L566.796 473.191C564.464 478.233 554.38 478.863 549.464 476.216C543.54 473.002 541.019 465.818 543.729 459.263C546.439 452.709 553.057 449.999 559.8 451.953C566.544 453.906 569.506 459.578 568.308 466.196H548.141C548.771 473.506 556.838 475.649 564.527 470.544ZM547.826 462.477H563.771C562.762 458.003 559.989 455.608 556.019 455.482C552.048 455.356 548.96 457.814 547.826 462.477Z" fill="white"/>
<path d="M435.205 451.827C428.84 450.062 422.033 453.213 419.575 459.012C417.118 464.81 419.134 472.498 424.554 475.838C429.974 479.179 439.743 478.485 442.642 473.318L440.373 470.734C432.243 475.46 424.302 473.381 423.987 466.322H444.154C445.1 459.138 441.507 453.592 435.205 451.827ZM424.05 462.541C423.798 458.822 426.697 455.923 431.046 455.608C435.394 455.293 439.049 458.129 439.301 462.541H424.05Z" fill="white"/>
<path d="M409.933 474.326C406.656 477.414 403.315 477.981 399.597 477.729C395.879 477.477 390.9 474.263 390.585 469.725C390.144 463.864 390.459 457.94 390.459 451.827H395.186C395.186 456.743 395.06 461.596 395.186 466.448C395.375 472.435 400.795 475.398 406.088 472.498C408.987 470.86 409.87 468.15 409.87 465.062C409.996 460.713 409.933 456.365 409.933 451.827H414.596V477.477C412.643 477.225 409.744 479.368 409.933 474.326Z" fill="white"/>
<path d="M514.298 451.638H518.646C518.898 452.52 519.151 453.34 519.403 454.348L520.537 453.781C524.57 451.008 528.856 450.63 533.331 452.394C536.482 453.655 538.561 456.176 538.687 459.516C539.003 465.377 538.751 471.301 538.751 477.414H534.213V469.284C534.287 466.782 534.203 464.277 533.961 461.785C533.583 458.003 531.629 456.113 528.352 455.86C523.94 455.482 520.6 457.247 519.844 460.965C519.088 464.684 519.403 467.141 519.277 470.23C519.151 473.318 519.277 474.767 519.277 477.351H514.298V451.638Z" fill="white"/>
<path d="M447.179 474.83C447.935 473.381 448.566 472.309 448.881 471.742C452.662 472.309 456.065 473.003 459.532 473.444C460.57 473.571 461.62 473.326 462.494 472.751C463.313 472.183 464.195 471.112 464.258 470.167C464.321 469.221 463.313 468.213 462.557 467.961C460.351 467.268 458.082 466.952 455.876 466.448C452.41 465.629 448.944 464.81 448.251 460.587C447.557 456.365 449.511 453.529 453.607 452.268C458.649 450.693 463.502 451.197 468.544 453.718L466.905 456.806C463.313 456.428 460.036 455.798 456.822 455.987C455.498 456.05 454.301 457.877 453.103 458.949C454.175 460.02 455.12 461.533 456.443 461.974C458.775 462.856 461.359 462.919 463.817 463.612C467.472 464.621 469.3 466.763 469.426 469.852C469.552 472.94 467.598 475.776 464.132 476.847C461.332 477.775 458.361 478.076 455.431 477.728C452.501 477.379 449.684 476.39 447.179 474.83Z" fill="white"/>
<path d="M477.367 455.923L473.082 455.545V451.827L477.115 451.449C477.241 449.684 477.43 447.982 477.556 446.092H482.094C482.157 447.856 482.283 449.495 482.346 451.512H489.593V455.545L482.283 455.86C482.283 460.713 482.157 465.377 482.346 469.977C482.409 472.624 484.237 473.822 486.82 473.507C487.84 473.357 488.851 473.147 489.845 472.876C491.799 476.09 491.295 477.162 487.577 477.666C481.022 478.611 477.43 475.523 477.367 468.906C477.304 464.683 477.367 460.461 477.367 455.923Z" fill="white"/>
<path d="M499.677 477.477H495.076V441.617H499.677V477.477Z" fill="white"/>
<path d="M505.034 451.638H509.319V477.477H505.034V451.638Z" fill="white"/>
<path d="M507.681 440.23C508.626 441.302 510.075 442.373 510.328 443.571C510.421 444.012 510.403 444.471 510.275 444.904C510.147 445.337 509.912 445.731 509.593 446.05C509.274 446.37 508.88 446.604 508.447 446.732C508.013 446.861 507.555 446.879 507.113 446.785C505.916 446.596 504.214 445.02 504.025 443.823C503.836 442.625 505.475 441.428 506.231 440.23H507.681Z" fill="white"/>
</g>
<g clip-path="url(#clip8_322_146)">
<path d="M814.914 476.342H809.557V438.466C812.519 437.457 814.41 438.34 816.175 440.672C822.288 448.801 828.59 456.868 834.892 465.061V438.34H840.249V476.153C837.539 476.972 835.901 476.468 834.136 473.821C828.338 464.746 822.036 455.986 815.923 447.1L814.914 447.541V476.342Z" fill="white"/>
<path d="M700.277 474.704L701.537 471.237C706.075 471.741 710.171 472.687 714.205 472.561C719.247 472.372 721.83 469.221 720.318 465.313C719.688 463.486 717.734 461.847 715.969 460.776C713.196 459.2 709.982 458.318 707.083 456.931C702.483 454.725 700.529 450.944 701.222 446.28C701.915 441.617 704.941 438.34 710.045 437.52C715.15 436.701 719.814 437.016 724.666 439.411L723.343 443.003C719.499 442.625 715.843 441.869 712.314 442.058C707.461 442.31 705.13 446.785 707.713 450.377C708.491 451.332 709.485 452.088 710.613 452.583C713.638 454.032 716.789 455.293 719.814 456.679C724.856 459.137 726.935 463.17 726.179 468.968C725.675 472.813 722.524 475.964 717.482 476.846C712.44 477.729 706.075 477.54 700.277 474.704Z" fill="white"/>
<path d="M971.903 447.793C974.361 447.478 976.314 447.1 978.331 447.037C985.327 446.911 989.36 450.062 990.053 456.931C990.558 462.036 990.242 467.33 990.305 472.498V476.342H985.201C985.201 473.191 985.201 470.04 985.138 466.826C985.223 463.818 985.117 460.808 984.822 457.814C984.192 453.024 981.923 451.385 977.134 451.638C972.344 451.89 972.029 451.953 972.029 457.057V476.279H966.987C966.924 475.082 966.798 474.01 966.798 472.876V438.151C966.798 433.55 966.861 433.55 971.903 434.117V447.793Z" fill="white"/>
<path d="M902.957 461.469C902.831 473.254 893.881 480.187 884.302 476.216C881.592 475.082 878.693 472.498 877.559 469.851C876.131 466.296 875.632 462.435 876.109 458.633C876.928 451.449 882.159 447.037 888.966 446.911C895.772 446.785 901.003 450.944 902.578 458.255C902.83 459.578 902.894 460.965 902.957 461.469ZM897.537 461.784C897.371 460.3 897.118 458.827 896.78 457.373C895.646 453.528 892.999 451.449 889.281 451.512C885.562 451.575 882.348 453.654 881.844 457.436C881.295 460.897 881.445 464.432 882.285 467.834C883.42 472.246 888.272 473.885 892.495 471.994C896.717 470.103 897.158 466.259 897.537 461.784Z" fill="white"/>
<path d="M769.16 458.57C769.727 453.843 767.648 451.322 762.48 451.385C760.211 451.448 757.942 451.827 755.736 452.016C754.602 448.108 754.665 448.045 758.194 447.352C758.713 447.232 759.24 447.148 759.77 447.1C769.727 446.155 774.832 448.864 774.517 459.767C774.328 464.368 774.391 468.969 774.517 473.569C774.58 475.46 774.013 476.468 771.933 476.468C767.333 476.468 762.732 476.972 758.257 476.405C753.783 475.838 752.207 472.876 751.892 468.969C751.577 465.061 753.279 461.532 757.186 460.335C761.093 459.137 764.875 459.2 769.16 458.57ZM769.853 467.645C769.412 466.511 768.908 463.801 768.152 463.738C765.215 463.367 762.233 463.603 759.392 464.431C756.997 465.124 756.682 467.645 757.564 469.914C758.446 472.183 762.921 473.569 767.648 472.75C770.799 472.12 768.845 469.725 769.853 467.645Z" fill="white"/>
<path d="M777.542 447.982C783.466 447.226 783.403 447.289 784.79 451.385C786.933 457.75 789.201 464.052 791.407 470.418H792.605C794.306 464.242 796.071 458.065 797.709 451.826C798.907 447.415 798.781 447.352 804.012 447.982C802.751 452.582 801.68 457.246 800.167 461.721C798.214 467.393 795.945 473.002 793.739 478.611C792.994 480.861 791.649 482.865 789.85 484.408C788.052 485.952 785.866 486.976 783.529 487.371C781.765 487.749 779.811 486.867 777.542 486.551C777.857 484.976 778.109 483.778 778.362 482.392C779.505 482.62 780.663 482.768 781.828 482.833C787.374 483.085 790.273 478.8 788.13 473.821C784.601 465.376 781.198 456.868 777.542 447.982Z" fill="white"/>
<path d="M909.826 447.73H914.679V454.284C914.742 458.192 914.616 462.162 914.868 466.133C915.246 471.552 922.494 475.019 926.968 471.931C927.535 471.489 927.724 470.103 927.724 469.158C927.787 463.17 927.724 457.246 927.724 451.322V447.793H932.514C932.701 448.474 932.827 449.17 932.892 449.873C932.892 457.688 932.829 465.502 932.892 473.317C932.955 475.145 932.388 476.153 930.56 476.279C926.842 476.594 923.061 477.161 919.342 477.035C914.175 476.846 910.267 473.569 909.952 468.653C909.511 461.784 909.826 454.915 909.826 447.73Z" fill="white"/>
<path d="M863.379 476.342H857.959V465.313C857.959 459.137 857.959 452.961 857.896 446.847C857.896 442.688 857.896 442.688 853.61 442.688L846.678 442.562C846.407 442.508 846.15 442.401 845.921 442.247V438.276H875.29V442.625H863.379V476.342Z" fill="white"/>
<path d="M736.83 438.592V447.478H747.67V451.953H737.145C737.145 457.814 736.956 463.423 737.271 468.969C737.397 471.679 739.792 472.687 742.313 472.624C744.158 472.453 745.99 472.158 747.796 471.742C749.497 475.586 749.371 475.838 745.464 476.783C737.082 478.8 731.977 475.271 731.725 466.826C731.473 458.381 731.662 450.125 731.599 441.806C731.599 438.151 734.435 439.474 736.83 438.592Z" fill="white"/>
<path d="M960.874 471.804C961.883 476.09 961.883 476.09 958.164 476.846C950.665 478.358 944.488 475.964 941.526 470.481C938.564 464.998 939.258 455.292 944.173 450.377C947.892 446.658 955.58 445.776 961.126 448.612L960.118 452.393C955.139 451.511 950.097 449.998 946.883 455.166C943.669 460.334 944.11 464.494 946.82 468.842C950.286 474.325 955.706 472.686 960.874 471.804Z" fill="white"/>
</g>
<defs>
<clipPath id="clip0_322_146">
<rect width="231.922" height="63.6526" fill="white" transform="translate(235.338 4.41162)"/>
</clipPath>
<clipPath id="clip1_322_146">
<rect width="362.489" height="58.847" fill="white" transform="translate(0.303711 145.305)"/>
</clipPath>
<clipPath id="clip2_322_146">
<rect width="138.477" height="100.521" fill="white" transform="translate(525.07 124.467)"/>
</clipPath>
<clipPath id="clip3_322_146">
<rect width="161.228" height="161.337" fill="white" transform="translate(825.825 94.0596)"/>
</clipPath>
<clipPath id="clip4_322_146">
<rect width="228.204" height="31.9523" fill="white" transform="translate(0.303711 305.435)"/>
</clipPath>
<clipPath id="clip5_322_146">
<rect width="226.975" height="48.2121" fill="white" transform="translate(393.983 297.305)"/>
</clipPath>
<clipPath id="clip6_322_146">
<rect width="203.625" height="88.8615" fill="white" transform="translate(786.433 276.98)"/>
</clipPath>
<clipPath id="clip7_322_146">
<rect width="290.092" height="64.5349" fill="white" transform="translate(278.469 428.382)"/>
</clipPath>
<clipPath id="clip8_322_146">
<rect width="290.092" height="53.569" fill="white" transform="translate(700.277 433.865)"/>
</clipPath>
</defs>
</svg>
