<svg width="144" height="33" viewBox="0 0 144 33" fill="none" xmlns="http://www.w3.org/2000/svg">
<g clip-path="url(#clip0_331:51)">
<path d="M28.2458 12.3248C28.2458 11.2362 27.3669 10.3506 26.2743 10.3506C25.1817 10.3506 24.2974 11.2322 24.2974 12.3275V20.5957C24.2974 21.6777 25.183 22.5726 26.2783 22.5726C27.3656 22.5726 28.2498 21.6777 28.2498 20.5957V12.3142H28.2365L28.2458 12.3248ZM5.86825 10.7286L5.8736 23.5517C5.8736 24.7338 6.81396 25.6755 7.97471 25.6755H9.3946V30.0567C9.3946 31.1521 10.2762 32.0363 11.3581 32.0363C12.4401 32.0363 13.3177 31.1547 13.335 30.0754V25.6942H15.9971V30.0754C15.9971 31.1748 16.8787 32.0563 17.9607 32.0563C19.06 32.0563 19.9402 31.1748 19.9402 30.0661V25.6849H21.3802C22.5422 25.6849 23.4813 24.7365 23.4813 23.5771V10.714L5.81082 10.726L5.86425 10.7286H5.86825ZM18.7554 6.81494C18.3414 6.81494 18.0074 6.481 18.0074 6.06693C18.0074 5.65953 18.3414 5.32158 18.7554 5.31891C19.1695 5.31891 19.5034 5.65953 19.5034 6.06693C19.5034 6.481 19.1695 6.81494 18.7554 6.81494ZM10.6609 6.81494C10.2468 6.81494 9.91286 6.481 9.91286 6.06693C9.91286 5.65685 10.2468 5.32159 10.6609 5.32159C11.075 5.32159 11.4089 5.6622 11.4089 6.08295C11.4089 6.50371 11.111 6.81494 10.6863 6.81494H10.6609ZM20.4238 0.440806C20.5039 0.300554 20.4425 0.138929 20.3223 0.0601209C20.1833 1.28144e-05 20.023 0.040085 19.9429 0.180337L18.5404 2.71824C17.381 2.17726 16.0613 1.87672 14.6801 1.87672C13.299 1.87672 11.9846 2.16391 10.8172 2.68217L9.43601 0.140265C9.36521 0.00936306 9.19557 -0.0400592 9.06467 0.0334062C8.9311 0.0935144 8.88301 0.273839 8.95781 0.394055L10.3336 2.89856C7.62208 4.29708 5.79212 6.9592 5.79212 10.018H23.5948C23.5948 6.9592 21.7582 4.3652 19.0493 2.96668L20.4238 0.440806ZM3.11263 10.3413C2.02134 10.3413 1.13574 11.2295 1.13574 12.3222V20.5931C1.13574 21.6884 2.02267 22.5699 3.11797 22.5699C4.20526 22.5699 5.09086 21.6884 5.09086 20.5931V12.3248C5.09086 11.2362 4.20927 10.3506 3.12732 10.3506L3.11263 10.3413Z" fill="white"/>
</g>
<g clip-path="url(#clip1_331:51)">
<path d="M83.6991 24.9826C83.2143 26.1027 82.6404 27.1336 81.9755 28.0815C81.0692 29.3736 80.3272 30.268 79.7553 30.7647C78.8688 31.58 77.919 31.9975 76.9019 32.0213C76.1717 32.0213 75.2911 31.8135 74.2661 31.392C73.2377 30.9725 72.2926 30.7647 71.4285 30.7647C70.5222 30.7647 69.5502 30.9725 68.5105 31.392C67.4693 31.8135 66.6305 32.0331 65.9891 32.0549C65.0138 32.0965 64.0416 31.6671 63.0712 30.7647C62.4518 30.2245 61.6771 29.2984 60.7491 27.9865C59.7533 26.5855 58.9347 24.9609 58.2934 23.1087C57.6065 21.1081 57.2622 19.1709 57.2622 17.2954C57.2622 15.147 57.7264 13.294 58.6563 11.7413C59.3871 10.494 60.3592 9.51015 61.576 8.78789C62.7928 8.06562 64.1075 7.69757 65.5233 7.67402C66.298 7.67402 67.314 7.91365 68.5764 8.38461C69.8354 8.85715 70.6437 9.09678 70.9981 9.09678C71.2631 9.09678 72.161 8.81658 73.6833 8.25796C75.1229 7.73991 76.3379 7.52541 77.3333 7.6099C80.0304 7.82757 82.0567 8.89079 83.4042 10.8063C80.9921 12.2678 79.7988 14.3149 79.8226 16.941C79.8444 18.9865 80.5864 20.6886 82.0448 22.0402C82.7057 22.6674 83.4438 23.1523 84.265 23.4966C84.0869 24.013 83.8989 24.5077 83.6991 24.9826ZM77.5133 0.641336C77.5133 2.24458 76.9276 3.74153 75.7601 5.12709C74.3512 6.77425 72.647 7.72606 70.799 7.57587C70.7755 7.38353 70.7618 7.1811 70.7618 6.96838C70.7618 5.42926 71.4319 3.7821 72.6217 2.43532C73.2158 1.75343 73.9713 1.18644 74.8874 0.734141C75.8017 0.288592 76.6664 0.0421946 77.4797 0C77.5034 0.214329 77.5133 0.428672 77.5133 0.641315V0.641336Z" fill="white"/>
</g>
<g clip-path="url(#clip2_331:51)">
<path d="M125.194 2.83739L112.142 4.55377V15.4056H125.194V2.83739ZM112.142 27.5676L125.194 29.4253V16.6521H112.142V27.5676V27.5676ZM126.633 16.8153L126.685 29.5149L144 31.9581V16.8153H126.633ZM144 0.0995483L126.737 2.57655V15.3478H144V0.0995483Z" fill="white"/>
</g>
<defs>
<clipPath id="clip0_331:51">
<rect width="29.3862" height="32.0577" fill="white"/>
</clipPath>
<clipPath id="clip1_331:51">
<rect width="27.0028" height="32.0577" fill="white" transform="translate(57.2622)"/>
</clipPath>
<clipPath id="clip2_331:51">
<rect width="31.8585" height="31.8585" fill="white" transform="translate(112.142 0.0995483)"/>
</clipPath>
</defs>
</svg>
