<svg width="414" height="185" viewBox="0 0 414 185" fill="none" xmlns="http://www.w3.org/2000/svg">
<rect x="-1" y="29" width="416" height="156" fill="#131313"/>
<path d="M115.96 97.504V95.632H138.04V97.504H115.96ZM155.784 87.2024C154.344 87.2024 153.017 87.5694 151.831 88.2753C150.631 88.9812 149.685 89.9412 148.979 91.1271C148.259 92.3271 147.906 93.64 147.906 95.08C147.906 96.5341 148.259 97.8471 148.979 99.0329C149.685 100.233 150.631 101.179 151.831 101.899C153.017 102.605 154.344 102.958 155.784 102.958C156.772 102.958 157.718 102.788 158.607 102.435C159.483 102.096 160.287 101.602 160.979 100.981V102.958H163.662V95.08C163.647 93.6118 163.28 92.2988 162.574 91.1129C161.869 89.9271 160.923 88.9812 159.737 88.2753C158.551 87.5694 157.224 87.2024 155.784 87.2024ZM155.784 89.8847C156.744 89.8847 157.619 90.1106 158.41 90.5765C159.186 91.0424 159.822 91.6776 160.287 92.4541C160.753 93.2447 160.979 94.12 160.979 95.08C160.979 96.04 160.753 96.9153 160.287 97.7059C159.822 98.4965 159.186 99.1176 158.41 99.5835C157.619 100.049 156.744 100.289 155.784 100.289C154.824 100.289 153.949 100.049 153.158 99.5835C152.367 99.1176 151.746 98.4965 151.28 97.7059C150.814 96.9153 150.589 96.04 150.589 95.08C150.589 94.12 150.814 93.2447 151.28 92.4541C151.746 91.6776 152.367 91.0424 153.158 90.5765C153.949 90.1106 154.824 89.8847 155.784 89.8847ZM181.143 102.958C182.583 102.958 183.91 102.605 185.096 101.899C186.296 101.179 187.242 100.233 187.948 99.0329C188.668 97.8471 189.021 96.5341 189.021 95.08C189.021 93.64 188.668 92.3271 187.948 91.1271C187.242 89.9412 186.296 88.9812 185.096 88.2753C183.91 87.5694 182.583 87.2024 181.143 87.2024C180.141 87.2024 179.209 87.3859 178.32 87.7247C177.43 88.0776 176.64 88.5576 175.948 89.1788V81.8518H173.266V95.0941C173.28 96.5482 173.647 97.8753 174.353 99.0612C175.044 100.233 175.99 101.179 177.19 101.899C178.376 102.605 179.703 102.958 181.143 102.958ZM181.143 100.289C180.183 100.289 179.308 100.049 178.517 99.5835C177.727 99.1176 177.106 98.4965 176.64 97.7059C176.174 96.9153 175.948 96.04 175.948 95.08C175.948 94.12 176.174 93.2447 176.64 92.4541C177.106 91.6776 177.727 91.0424 178.517 90.5765C179.308 90.1106 180.183 89.8847 181.143 89.8847C182.103 89.8847 182.979 90.1106 183.769 90.5765C184.546 91.0424 185.181 91.6776 185.647 92.4541C186.113 93.2447 186.339 94.12 186.339 95.08C186.339 96.04 186.113 96.9153 185.647 97.7059C185.181 98.4965 184.546 99.1176 183.769 99.5835C182.979 100.049 182.103 100.289 181.143 100.289ZM197.596 87.2024C196.298 87.2024 195.112 87.4988 194.011 88.0776C192.909 88.6424 191.992 89.4188 191.258 90.4071C190.538 91.3812 190.058 92.4965 189.832 93.7388C189.761 94.2188 189.719 94.6706 189.719 95.08C189.733 95.5741 189.775 96.0118 189.832 96.4212C190.058 97.6776 190.538 98.7929 191.272 99.7671C192.006 100.741 192.909 101.518 194.011 102.096C195.112 102.675 196.298 102.958 197.596 102.958C198.627 102.958 199.601 102.774 200.519 102.393C201.422 102.026 202.241 101.504 202.947 100.854L201.295 98.7506C200.829 99.2306 200.265 99.5976 199.643 99.88C199.008 100.148 198.316 100.289 197.596 100.289C196.382 100.289 195.323 99.9224 194.406 99.2024C193.488 98.4824 192.881 97.5647 192.571 96.4212H205.361C205.432 95.9835 205.474 95.5459 205.474 95.08C205.46 94.6 205.418 94.1482 205.361 93.7388C205.135 92.4965 204.655 91.3812 203.921 90.4071C203.187 89.4188 202.283 88.6424 201.182 88.0776C200.081 87.4988 198.881 87.2024 197.596 87.2024ZM197.596 89.8847C198.811 89.8847 199.869 90.2376 200.787 90.9576C201.691 91.6776 202.312 92.6094 202.622 93.7388H192.571C192.881 92.6094 193.488 91.6776 194.406 90.9576C195.323 90.2376 196.382 89.8847 197.596 89.8847ZM206.172 81.8518V95.1224C206.2 96.5765 206.553 97.8894 207.259 99.0753C207.965 100.247 208.911 101.193 210.097 101.899C211.297 102.605 212.61 102.958 214.05 102.958V100.289C213.09 100.289 212.214 100.049 211.424 99.5835C210.647 99.1176 210.026 98.4965 209.56 97.72C209.094 96.9435 208.868 96.0682 208.854 95.0941V93.7388H214.05V91.0706H208.854V81.8518H206.172ZM214.75 81.8518V95.1224C214.778 96.5765 215.131 97.8894 215.837 99.0753C216.543 100.247 217.489 101.193 218.675 101.899C219.875 102.605 221.188 102.958 222.628 102.958V100.289C221.668 100.289 220.792 100.049 220.002 99.5835C219.225 99.1176 218.604 98.4965 218.138 97.72C217.672 96.9435 217.446 96.0682 217.432 95.0941V93.7388H222.628V91.0706H217.432V81.8518H214.75ZM231.206 87.2024C229.907 87.2024 228.721 87.4988 227.62 88.0776C226.519 88.6424 225.601 89.4188 224.867 90.4071C224.147 91.3812 223.667 92.4965 223.441 93.7388C223.37 94.2188 223.328 94.6706 223.328 95.08C223.342 95.5741 223.385 96.0118 223.441 96.4212C223.667 97.6776 224.147 98.7929 224.881 99.7671C225.615 100.741 226.519 101.518 227.62 102.096C228.721 102.675 229.907 102.958 231.206 102.958C232.236 102.958 233.21 102.774 234.128 102.393C235.032 102.026 235.85 101.504 236.556 100.854L234.905 98.7506C234.439 99.2306 233.874 99.5976 233.253 99.88C232.618 100.148 231.926 100.289 231.206 100.289C229.992 100.289 228.933 99.9224 228.015 99.2024C227.098 98.4824 226.49 97.5647 226.18 96.4212H238.97C239.041 95.9835 239.083 95.5459 239.083 95.08C239.069 94.6 239.027 94.1482 238.97 93.7388C238.745 92.4965 238.265 91.3812 237.53 90.4071C236.796 89.4188 235.893 88.6424 234.792 88.0776C233.69 87.4988 232.49 87.2024 231.206 87.2024ZM231.206 89.8847C232.42 89.8847 233.479 90.2376 234.396 90.9576C235.3 91.6776 235.921 92.6094 236.232 93.7388H226.18C226.49 92.6094 227.098 91.6776 228.015 90.9576C228.933 90.2376 229.992 89.8847 231.206 89.8847ZM239.781 87.2024V102.958H242.464V95.08C242.464 94.12 242.689 93.2447 243.155 92.4541C243.621 91.6776 244.242 91.0424 245.033 90.5765C245.824 90.1106 246.699 89.8847 247.659 89.8847V87.2024C246.657 87.2024 245.725 87.3859 244.835 87.7247C243.946 88.0776 243.155 88.5576 242.464 89.1788V87.2024H239.781ZM257.266 81.8518V84.5341H264.084V102.958H266.753V84.5341H273.572V81.8518H257.266ZM274 81.8094L281.214 102.944H284.094L291.308 81.8094H288.442L282.654 99.2588L276.88 81.8094H274ZM292.023 100.007V102.675H294.706V100.007H292.023Z" fill="white"/>
<path d="M216 30L-1 0V30H216Z" fill="#131313"/>
<path d="M198 30L415 0V30H198Z" fill="#131313"/>
<g clip-path="url(#clip0_491_43)">
<path d="M157.246 136.325C157.246 135.236 156.367 134.351 155.274 134.351C154.182 134.351 153.297 135.232 153.297 136.328V144.596C153.297 145.678 154.183 146.573 155.278 146.573C156.366 146.573 157.25 145.678 157.25 144.596V136.314H157.236L157.246 136.325ZM134.868 134.729L134.874 147.552C134.874 148.734 135.814 149.676 136.975 149.676H138.395V154.057C138.395 155.152 139.276 156.036 140.358 156.036C141.44 156.036 142.318 155.155 142.335 154.075V149.694H144.997V154.075C144.997 155.175 145.879 156.056 146.961 156.056C148.06 156.056 148.94 155.175 148.94 154.066V149.685H150.38C151.542 149.685 152.481 148.737 152.481 147.577V134.714L134.811 134.726L134.864 134.729H134.868ZM147.755 130.815C147.341 130.815 147.007 130.481 147.007 130.067C147.007 129.66 147.341 129.322 147.755 129.319C148.17 129.319 148.503 129.66 148.503 130.067C148.503 130.481 148.17 130.815 147.755 130.815ZM139.661 130.815C139.247 130.815 138.913 130.481 138.913 130.067C138.913 129.657 139.247 129.322 139.661 129.322C140.075 129.322 140.409 129.662 140.409 130.083C140.409 130.504 140.111 130.815 139.686 130.815H139.661ZM149.424 124.441C149.504 124.301 149.442 124.139 149.322 124.06C149.183 124 149.023 124.04 148.943 124.18L147.54 126.718C146.381 126.177 145.061 125.877 143.68 125.877C142.299 125.877 140.985 126.164 139.817 126.682L138.436 124.14C138.365 124.009 138.196 123.96 138.065 124.033C137.931 124.094 137.883 124.274 137.958 124.394L139.334 126.899C136.622 128.297 134.792 130.959 134.792 134.018H152.595C152.595 130.959 150.758 128.365 148.049 126.967L149.424 124.441ZM132.113 134.341C131.021 134.341 130.136 135.23 130.136 136.322V144.593C130.136 145.688 131.023 146.57 132.118 146.57C133.205 146.57 134.091 145.688 134.091 144.593V136.325C134.091 135.236 133.209 134.351 132.127 134.351L132.113 134.341Z" fill="white"/>
</g>
<g clip-path="url(#clip1_491_43)">
<path d="M212.699 148.983C212.214 150.103 211.64 151.134 210.976 152.081C210.069 153.374 209.327 154.268 208.755 154.765C207.869 155.58 206.919 155.998 205.902 156.021C205.172 156.021 204.291 155.813 203.266 155.392C202.238 154.972 201.293 154.765 200.428 154.765C199.522 154.765 198.55 154.972 197.511 155.392C196.469 155.813 195.63 156.033 194.989 156.055C194.014 156.096 193.042 155.667 192.071 154.765C191.452 154.225 190.677 153.298 189.749 151.986C188.753 150.585 187.935 148.961 187.293 147.109C186.607 145.108 186.262 143.171 186.262 141.295C186.262 139.147 186.726 137.294 187.656 135.741C188.387 134.494 189.359 133.51 190.576 132.788C191.793 132.066 193.107 131.698 194.523 131.674C195.298 131.674 196.314 131.914 197.576 132.385C198.835 132.857 199.644 133.097 199.998 133.097C200.263 133.097 201.161 132.817 202.683 132.258C204.123 131.74 205.338 131.525 206.333 131.61C209.03 131.828 211.057 132.891 212.404 134.806C209.992 136.268 208.799 138.315 208.823 140.941C208.844 142.986 209.586 144.689 211.045 146.04C211.706 146.667 212.444 147.152 213.265 147.497C213.087 148.013 212.899 148.508 212.699 148.983ZM206.513 124.641C206.513 126.245 205.928 127.742 204.76 129.127C203.351 130.774 201.647 131.726 199.799 131.576C199.775 131.384 199.762 131.181 199.762 130.968C199.762 129.429 200.432 127.782 201.622 126.435C202.216 125.753 202.971 125.186 203.887 124.734C204.802 124.289 205.666 124.042 206.48 124C206.503 124.214 206.513 124.429 206.513 124.641V124.641Z" fill="white"/>
</g>
<g clip-path="url(#clip2_491_43)">
<path d="M254.194 126.837L241.142 128.554V139.406H254.194V126.837ZM241.142 151.568L254.194 153.425V140.652H241.142V151.568ZM255.633 140.815L255.685 153.515L273 155.958V140.815H255.633ZM273 124.1L255.737 126.577V139.348H273V124.1Z" fill="white"/>
</g>
<path d="M54 44.8518V65.9576H56.6824V51.1059L63.0635 65.9576H65.9859L72.3671 51.0918V65.9576H75.0494V44.8518H72.1412L64.5176 62.5976L56.9082 44.8518H54ZM83.6276 50.2024C82.1876 50.2024 80.8606 50.5694 79.6747 51.2753C78.4747 51.9812 77.5288 52.9412 76.8229 54.1271C76.1029 55.3271 75.75 56.64 75.75 58.08C75.75 59.5341 76.1029 60.8471 76.8229 62.0329C77.5288 63.2329 78.4747 64.1788 79.6747 64.8988C80.8606 65.6047 82.1876 65.9576 83.6276 65.9576C85.0676 65.9576 86.3947 65.6047 87.5806 64.8988C88.7806 64.1788 89.7265 63.2329 90.4324 62.0329C91.1524 60.8471 91.5053 59.5341 91.5053 58.08C91.5053 56.64 91.1524 55.3271 90.4324 54.1271C89.7265 52.9412 88.7806 51.9812 87.5806 51.2753C86.3947 50.5694 85.0676 50.2024 83.6276 50.2024ZM83.6276 52.8847C84.5876 52.8847 85.4629 53.1106 86.2535 53.5765C87.03 54.0424 87.6653 54.6776 88.1312 55.4541C88.5971 56.2447 88.8229 57.12 88.8229 58.08C88.8229 59.04 88.5971 59.9153 88.1312 60.7059C87.6653 61.4965 87.03 62.1176 86.2535 62.5835C85.4629 63.0494 84.5876 63.2894 83.6276 63.2894C82.6676 63.2894 81.7924 63.0494 81.0018 62.5835C80.2112 62.1176 79.59 61.4965 79.1241 60.7059C78.6582 59.9153 78.4324 59.04 78.4324 58.08C78.4324 57.12 78.6582 56.2447 79.1241 55.4541C79.59 54.6776 80.2112 54.0424 81.0018 53.5765C81.7924 53.1106 82.6676 52.8847 83.6276 52.8847ZM92.2031 50.2024V65.9576H94.8855V58.08C94.8855 57.12 95.1114 56.2447 95.5772 55.4541C96.0431 54.6776 96.6643 54.0424 97.4549 53.5765C98.2455 53.1106 99.1208 52.8847 100.081 52.8847V50.2024C99.0784 50.2024 98.1467 50.3859 97.2572 50.7247C96.3678 51.0776 95.5772 51.5576 94.8855 52.1788V50.2024H92.2031ZM106.971 50.2024C105.673 50.2024 104.487 50.4988 103.386 51.0776C102.284 51.6424 101.367 52.4188 100.633 53.4071C99.9126 54.3812 99.4326 55.4965 99.2067 56.7388C99.1361 57.2188 99.0938 57.6706 99.0938 58.08C99.1079 58.5741 99.1502 59.0118 99.2067 59.4212C99.4326 60.6776 99.9126 61.7929 100.647 62.7671C101.381 63.7412 102.284 64.5176 103.386 65.0965C104.487 65.6753 105.673 65.9576 106.971 65.9576C108.002 65.9576 108.976 65.7741 109.894 65.3929C110.797 65.0259 111.616 64.5035 112.322 63.8541L110.67 61.7506C110.204 62.2306 109.64 62.5976 109.018 62.88C108.383 63.1482 107.691 63.2894 106.971 63.2894C105.757 63.2894 104.698 62.9224 103.781 62.2024C102.863 61.4824 102.256 60.5647 101.946 59.4212H114.736C114.807 58.9835 114.849 58.5459 114.849 58.08C114.835 57.6 114.793 57.1482 114.736 56.7388C114.51 55.4965 114.03 54.3812 113.296 53.4071C112.562 52.4188 111.658 51.6424 110.557 51.0776C109.456 50.4988 108.256 50.2024 106.971 50.2024ZM106.971 52.8847C108.186 52.8847 109.244 53.2376 110.162 53.9576C111.066 54.6776 111.687 55.6094 111.997 56.7388H101.946C102.256 55.6094 102.863 54.6776 103.781 53.9576C104.698 53.2376 105.757 52.8847 106.971 52.8847ZM124.453 44.8518V58.1224C124.481 59.5765 124.834 60.8894 125.54 62.0753C126.246 63.2471 127.192 64.1929 128.378 64.8988C129.578 65.6047 130.891 65.9576 132.331 65.9576V63.2894C131.371 63.2894 130.495 63.0494 129.705 62.5835C128.928 62.1176 128.307 61.4965 127.841 60.72C127.375 59.9435 127.15 59.0682 127.135 58.0941V56.7388H132.331V54.0706H127.135V44.8518H124.453ZM133.031 44.8518V65.9576H135.699V58.0518C135.714 57.0776 135.954 56.2024 136.419 55.4259C136.885 54.6494 137.507 54.0424 138.283 53.5765C139.059 53.1106 139.935 52.8847 140.895 52.8847C141.855 52.8847 142.73 53.1106 143.521 53.5765C144.297 54.0424 144.918 54.6635 145.384 55.44C145.85 56.2165 146.09 57.0918 146.104 58.0659V66H148.772V57.9812C148.772 56.9365 148.589 55.9482 148.236 55.0165C147.883 54.0706 147.361 53.2376 146.669 52.5176C145.977 51.7976 145.144 51.2329 144.17 50.8235C143.196 50.4141 142.109 50.2024 140.909 50.2024C139.907 50.2024 138.975 50.3718 138.085 50.7247C137.196 51.0776 136.405 51.5576 135.699 52.1788V44.8518H133.031ZM157.362 50.2024C155.922 50.2024 154.595 50.5694 153.409 51.2753C152.209 51.9812 151.263 52.9412 150.557 54.1271C149.837 55.3271 149.484 56.64 149.484 58.08C149.484 59.5341 149.837 60.8471 150.557 62.0329C151.263 63.2329 152.209 64.1788 153.409 64.8988C154.595 65.6047 155.922 65.9576 157.362 65.9576C158.35 65.9576 159.296 65.7882 160.186 65.4353C161.061 65.0965 161.866 64.6024 162.557 63.9812V65.9576H165.24V58.08C165.226 56.6118 164.858 55.2988 164.153 54.1129C163.447 52.9271 162.501 51.9812 161.315 51.2753C160.129 50.5694 158.802 50.2024 157.362 50.2024ZM157.362 52.8847C158.322 52.8847 159.197 53.1106 159.988 53.5765C160.764 54.0424 161.4 54.6776 161.866 55.4541C162.331 56.2447 162.557 57.12 162.557 58.08C162.557 59.04 162.331 59.9153 161.866 60.7059C161.4 61.4965 160.764 62.1176 159.988 62.5835C159.197 63.0494 158.322 63.2894 157.362 63.2894C156.402 63.2894 155.527 63.0494 154.736 62.5835C153.946 62.1176 153.324 61.4965 152.858 60.7059C152.393 59.9153 152.167 59.04 152.167 58.08C152.167 57.12 152.393 56.2447 152.858 55.4541C153.324 54.6776 153.946 54.0424 154.736 53.5765C155.527 53.1106 156.402 52.8847 157.362 52.8847ZM165.938 50.2024V65.9576H168.62V58.08C168.62 57.12 168.846 56.2447 169.312 55.4541C169.777 54.6776 170.399 54.0424 171.189 53.5765C171.98 53.1106 172.855 52.8847 173.815 52.8847C174.775 52.8847 175.65 53.1106 176.427 53.5765C177.217 54.0424 177.839 54.6635 178.305 55.44C178.756 56.2165 178.996 57.0918 179.01 58.0518V65.9576H181.693V58.08C181.693 56.64 181.34 55.3129 180.62 54.1271C179.914 52.9412 178.954 51.9812 177.768 51.2753C176.582 50.5694 175.255 50.2024 173.815 50.2024C172.813 50.2024 171.881 50.3859 170.992 50.7247C170.102 51.0776 169.312 51.5576 168.62 52.1788V50.2024H165.938ZM196.492 50.2024V63.4447C196.492 64.4047 196.266 65.28 195.8 66.0565C195.335 66.8471 194.713 67.4682 193.923 67.9341C193.132 68.4 192.257 68.64 191.297 68.64V71.3082C192.737 71.3082 194.05 70.9553 195.25 70.2494C196.436 69.5435 197.382 68.5976 198.087 67.4118C198.793 66.24 199.146 64.9129 199.175 63.4588V50.2024H196.492ZM196.492 44.8518V47.5341H199.175V44.8518H196.492ZM215.63 65.9576V50.2024H212.948V58.08C212.934 59.0541 212.708 59.9294 212.242 60.72C211.776 61.4965 211.155 62.1176 210.379 62.5835C209.588 63.0494 208.713 63.2894 207.753 63.2894C206.793 63.2894 205.917 63.0494 205.141 62.5835C204.35 62.1318 203.729 61.5106 203.263 60.7341C202.811 59.9576 202.571 59.0824 202.557 58.1082V50.2024H199.875V58.08C199.889 59.5482 200.256 60.8753 200.948 62.0471C201.654 63.2329 202.6 64.1788 203.8 64.8988C204.986 65.6047 206.313 65.9576 207.753 65.9576C208.741 65.9576 209.687 65.7882 210.576 65.4353C211.451 65.0824 212.256 64.6024 212.948 63.9812V65.9576H215.63ZM222.328 50.2165C222.201 50.2165 222.074 50.2024 221.947 50.2024C221.368 50.2024 220.818 50.2588 220.281 50.3718C219.632 50.4988 219.039 50.7671 218.488 51.1482C217.938 51.5576 217.514 52.0659 217.218 52.6729C216.921 53.28 216.766 53.9153 216.752 54.5788C216.78 55.3694 216.992 56.0753 217.387 56.6824C217.768 57.2894 218.305 57.7553 218.968 58.0659C219.561 58.32 220.168 58.5318 220.789 58.7153C221.41 58.8988 222.003 59.0682 222.582 59.2094C222.681 59.2376 222.766 59.2659 222.865 59.28C224.248 59.6329 225.109 59.9153 225.448 60.1412C225.942 60.4659 226.182 60.9035 226.182 61.4682C226.182 62.0894 225.9 62.64 225.349 63.1059C224.799 63.5718 223.938 63.8118 222.78 63.8118C222.201 63.8118 221.679 63.7553 221.227 63.6282C220.761 63.5012 220.38 63.3035 220.083 63.0212C219.73 62.6682 219.476 62.3012 219.293 61.8918C219.109 61.4824 218.982 61.1012 218.926 60.72L216.328 61.1294C216.625 62.7247 217.274 63.9247 218.29 64.7576C218.954 65.28 219.702 65.6047 220.535 65.76C221.368 65.9153 222.074 65.9859 222.681 65.9859H222.794C223.373 65.9859 223.952 65.9294 224.516 65.8024C225.067 65.6894 225.561 65.5482 225.97 65.3647C226.465 65.1529 226.902 64.8988 227.283 64.5741C227.65 64.2494 227.933 63.9388 228.116 63.6141C228.328 63.2471 228.512 62.8235 228.653 62.3435C228.794 61.8776 228.865 61.4965 228.879 61.2C228.879 60.3247 228.667 59.5906 228.258 58.9976C227.721 58.32 226.987 57.7976 226.055 57.4447C225.123 57.0918 224.149 56.8094 223.119 56.5694C222.173 56.3576 221.326 56.1035 220.549 55.8071C219.858 55.4541 219.49 55.1294 219.434 54.8188C219.378 54.4941 219.349 54.2965 219.349 54.2118C219.349 53.76 219.575 53.3365 220.027 52.9553C220.521 52.5741 221.34 52.3906 222.498 52.3906C222.992 52.3906 223.443 52.4329 223.825 52.5318C224.206 52.6306 224.53 52.7859 224.77 53.0259C225.293 53.5624 225.618 54.1553 225.745 54.8047L228.314 54.4518C228.215 54.0282 228.102 53.6188 227.975 53.2094C227.834 52.8 227.65 52.4471 227.425 52.1224C227.015 51.5153 226.338 51.0212 225.406 50.64C224.898 50.4424 224.418 50.3153 223.966 50.2729C223.514 50.2306 223.105 50.2024 222.709 50.2024L222.328 50.2165ZM229.594 44.8518V58.1224C229.622 59.5765 229.975 60.8894 230.681 62.0753C231.387 63.2471 232.333 64.1929 233.518 64.8988C234.718 65.6047 236.031 65.9576 237.471 65.9576V63.2894C236.511 63.2894 235.636 63.0494 234.846 62.5835C234.069 62.1176 233.448 61.4965 232.982 60.72C232.516 59.9435 232.29 59.0682 232.276 58.0941V56.7388H237.471V54.0706H232.276V44.8518H229.594ZM254.956 50.2024C253.516 50.2024 252.189 50.5694 251.003 51.2753C249.803 51.9812 248.857 52.9412 248.151 54.1271C247.431 55.3271 247.078 56.64 247.078 58.08C247.078 59.5341 247.431 60.8471 248.151 62.0329C248.857 63.2329 249.803 64.1788 251.003 64.8988C252.189 65.6047 253.516 65.9576 254.956 65.9576C255.944 65.9576 256.89 65.7882 257.779 65.4353C258.655 65.0965 259.459 64.6024 260.151 63.9812V65.9576H262.833V58.08C262.819 56.6118 262.452 55.2988 261.746 54.1129C261.04 52.9271 260.095 51.9812 258.909 51.2753C257.723 50.5694 256.396 50.2024 254.956 50.2024ZM254.956 52.8847C255.916 52.8847 256.791 53.1106 257.582 53.5765C258.358 54.0424 258.993 54.6776 259.459 55.4541C259.925 56.2447 260.151 57.12 260.151 58.08C260.151 59.04 259.925 59.9153 259.459 60.7059C258.993 61.4965 258.358 62.1176 257.582 62.5835C256.791 63.0494 255.916 63.2894 254.956 63.2894C253.996 63.2894 253.12 63.0494 252.33 62.5835C251.539 62.1176 250.918 61.4965 250.452 60.7059C249.986 59.9153 249.76 59.04 249.76 58.08C249.76 57.12 249.986 56.2447 250.452 55.4541C250.918 54.6776 251.539 54.0424 252.33 53.5765C253.12 53.1106 253.996 52.8847 254.956 52.8847ZM280.315 50.2024C278.875 50.2024 277.548 50.5694 276.362 51.2753C275.162 51.9812 274.216 52.9412 273.51 54.1271C272.79 55.3271 272.438 56.64 272.438 58.08C272.438 59.5341 272.79 60.8471 273.51 62.0329C274.216 63.2329 275.162 64.1788 276.362 64.8988C277.548 65.6047 278.875 65.9576 280.315 65.9576C281.303 65.9576 282.249 65.7882 283.139 65.4353C284.014 65.0965 284.805 64.6024 285.51 63.9953L283.675 62.0612C283.223 62.4424 282.715 62.7388 282.136 62.9647C281.572 63.1765 280.965 63.2894 280.315 63.2894C279.355 63.2894 278.48 63.0494 277.689 62.5835C276.899 62.1176 276.277 61.4965 275.812 60.7059C275.346 59.9153 275.12 59.04 275.12 58.08C275.12 57.12 275.346 56.2447 275.812 55.4541C276.277 54.6776 276.899 54.0424 277.689 53.5765C278.48 53.1106 279.355 52.8847 280.315 52.8847C280.965 52.8847 281.586 52.9976 282.15 53.2094C282.729 53.4353 283.252 53.7459 283.703 54.1412L285.652 52.3059C284.946 51.6424 284.127 51.1341 283.223 50.7671C282.306 50.4 281.346 50.2024 280.315 50.2024ZM294.237 50.2024C292.797 50.2024 291.47 50.5694 290.284 51.2753C289.084 51.9812 288.138 52.9412 287.432 54.1271C286.712 55.3271 286.359 56.64 286.359 58.08C286.359 59.5341 286.712 60.8471 287.432 62.0329C288.138 63.2329 289.084 64.1788 290.284 64.8988C291.47 65.6047 292.797 65.9576 294.237 65.9576C295.225 65.9576 296.171 65.7882 297.061 65.4353C297.936 65.0965 298.741 64.6024 299.432 63.9812V65.9576H302.115V58.08C302.101 56.6118 301.733 55.2988 301.028 54.1129C300.322 52.9271 299.376 51.9812 298.19 51.2753C297.004 50.5694 295.677 50.2024 294.237 50.2024ZM294.237 52.8847C295.197 52.8847 296.072 53.1106 296.863 53.5765C297.639 54.0424 298.275 54.6776 298.741 55.4541C299.206 56.2447 299.432 57.12 299.432 58.08C299.432 59.04 299.206 59.9153 298.741 60.7059C298.275 61.4965 297.639 62.1176 296.863 62.5835C296.072 63.0494 295.197 63.2894 294.237 63.2894C293.277 63.2894 292.402 63.0494 291.611 62.5835C290.821 62.1176 290.199 61.4965 289.733 60.7059C289.268 59.9153 289.042 59.04 289.042 58.08C289.042 57.12 289.268 56.2447 289.733 55.4541C290.199 54.6776 290.821 54.0424 291.611 53.5765C292.402 53.1106 293.277 52.8847 294.237 52.8847ZM310.69 65.9576C312.13 65.9576 313.457 65.6047 314.643 64.8988C315.843 64.1788 316.789 63.2329 317.495 62.0329C318.215 60.8471 318.568 59.5341 318.568 58.08C318.568 56.64 318.215 55.3271 317.495 54.1271C316.789 52.9412 315.843 51.9812 314.643 51.2753C313.457 50.5694 312.13 50.2024 310.69 50.2024C309.688 50.2024 308.756 50.3859 307.867 50.7247C306.977 51.0776 306.187 51.5576 305.495 52.1788V44.8518H302.812V58.0941C302.827 59.5482 303.194 60.8753 303.9 62.0612C304.591 63.2329 305.537 64.1788 306.737 64.8988C307.923 65.6047 309.25 65.9576 310.69 65.9576ZM310.69 63.2894C309.73 63.2894 308.855 63.0494 308.064 62.5835C307.274 62.1176 306.652 61.4965 306.187 60.7059C305.721 59.9153 305.495 59.04 305.495 58.08C305.495 57.12 305.721 56.2447 306.187 55.4541C306.652 54.6776 307.274 54.0424 308.064 53.5765C308.855 53.1106 309.73 52.8847 310.69 52.8847C311.65 52.8847 312.525 53.1106 313.316 53.5765C314.092 54.0424 314.728 54.6776 315.194 55.4541C315.66 56.2447 315.885 57.12 315.885 58.08C315.885 59.04 315.66 59.9153 315.194 60.7059C314.728 61.4965 314.092 62.1176 313.316 62.5835C312.525 63.0494 311.65 63.2894 310.69 63.2894ZM319.266 44.8518V65.9576H321.948V44.8518H319.266ZM330.542 50.2024C329.243 50.2024 328.057 50.4988 326.956 51.0776C325.855 51.6424 324.937 52.4188 324.203 53.4071C323.483 54.3812 323.003 55.4965 322.777 56.7388C322.706 57.2188 322.664 57.6706 322.664 58.08C322.678 58.5741 322.721 59.0118 322.777 59.4212C323.003 60.6776 323.483 61.7929 324.217 62.7671C324.951 63.7412 325.855 64.5176 326.956 65.0965C328.057 65.6753 329.243 65.9576 330.542 65.9576C331.572 65.9576 332.546 65.7741 333.464 65.3929C334.368 65.0259 335.186 64.5035 335.892 63.8541L334.241 61.7506C333.775 62.2306 333.21 62.5976 332.589 62.88C331.953 63.1482 331.262 63.2894 330.542 63.2894C329.328 63.2894 328.269 62.9224 327.351 62.2024C326.433 61.4824 325.826 60.5647 325.516 59.4212H338.306C338.377 58.9835 338.419 58.5459 338.419 58.08C338.405 57.6 338.363 57.1482 338.306 56.7388C338.081 55.4965 337.601 54.3812 336.866 53.4071C336.132 52.4188 335.229 51.6424 334.128 51.0776C333.026 50.4988 331.826 50.2024 330.542 50.2024ZM330.542 52.8847C331.756 52.8847 332.815 53.2376 333.732 53.9576C334.636 54.6776 335.257 55.6094 335.568 56.7388H325.516C325.826 55.6094 326.433 54.6776 327.351 53.9576C328.269 53.2376 329.328 52.8847 330.542 52.8847Z" fill="white"/>
<defs>
<clipPath id="clip0_491_43">
<rect width="29.3862" height="32.0577" fill="white" transform="translate(129 124)"/>
</clipPath>
<clipPath id="clip1_491_43">
<rect width="27.0028" height="32.0577" fill="white" transform="translate(186.262 124)"/>
</clipPath>
<clipPath id="clip2_491_43">
<rect width="31.8585" height="31.8585" fill="white" transform="translate(241.142 124.1)"/>
</clipPath>
</defs>
</svg>
