<svg xmlns="http://www.w3.org/2000/svg" fill="none" viewBox="0 0 543 342"><path fill="#A650FF" d="M4 5h535v302H4V5Z"/><path fill="#fff" d="M97 147.78v35.13h5.98v-10.04c0-2.9.03-5.83.06-8.72.16-2.1.88-3.97 2.11-5.6a11.65 11.65 0 0 1 4.38-3.62 11.56 11.56 0 0 1 6.23-1.1c3.08.31 5.6 1.6 7.52 3.87a11.53 11.53 0 0 1 2.86 7.68v17.53h5.98v-9.98c0-2.9.03-5.82.06-8.75.16-2.08.88-3.93 2.11-5.6a11.45 11.45 0 0 1 4.38-3.65 11.42 11.42 0 0 1 6.23-1.1c3.05.31 5.57 1.6 7.52 3.87a11.66 11.66 0 0 1 2.9 7.74v17.47h5.94l.03-11.18c0-2.64-.03-5.31-.09-7.99a17.1 17.1 0 0 0-3.56-9.03 18.32 18.32 0 0 0-7.8-5.82c-2.02-.73-4-1.1-6.01-1.1a18.1 18.1 0 0 0-14.7 7.8c-2.33-3.46-4.9-5.63-7.77-6.52-2.87-.84-5.16-1.29-6.86-1.29-2.2 0-4.4.44-6.58 1.33-.44.1-.91.28-1.42.6-.5.3-1 .66-1.47 1-.45.35-.82.6-1.17.79-.31.19-.57.28-.72.28-.07 0-.13-.03-.16-.03v-3.97H97Zm83.44 0c-3.2 0-6.16.82-8.8 2.4a17.85 17.85 0 0 0-6.37 6.35 16.82 16.82 0 0 0-2.39 8.81c0 3.25.79 6.17 2.4 8.82a17.92 17.92 0 0 0 6.35 6.38 16.95 16.95 0 0 0 8.81 2.37c3.21 0 6.17-.8 8.81-2.37a17.92 17.92 0 0 0 6.36-6.38c1.6-2.65 2.4-5.57 2.4-8.81 0-3.22-.8-6.14-2.4-8.82a17.85 17.85 0 0 0-6.36-6.35 16.99 16.99 0 0 0-8.8-2.4Zm0 5.98c2.14 0 4.1.5 5.86 1.55a12.12 12.12 0 0 1 4.18 4.18 11.3 11.3 0 0 1 1.54 5.85c0 2.15-.5 4.1-1.54 5.86a11.85 11.85 0 0 1-4.18 4.18 11.32 11.32 0 0 1-5.86 1.58 11.6 11.6 0 0 1-10.04-5.76 11.3 11.3 0 0 1-1.54-5.85c0-2.14.5-4.1 1.54-5.86a11.85 11.85 0 0 1 4.19-4.18 11.3 11.3 0 0 1 5.85-1.55Zm36.68 29.14c3.21 0 6.14-.78 8.81-2.36a17.91 17.91 0 0 0 6.33-6.32 17.56 17.56 0 0 0 2.42-8.84v-29.52h-5.98v16.33a17.87 17.87 0 0 0-5.29-3.24 17.6 17.6 0 0 0-15.1 1.23 17.84 17.84 0 0 0-6.36 6.35c-1.6 2.68-2.4 5.6-2.4 8.81 0 3.25.8 6.17 2.4 8.82a17.91 17.91 0 0 0 6.36 6.38 16.95 16.95 0 0 0 8.81 2.37Zm0-5.94a11.6 11.6 0 0 1-10.04-5.76 11.3 11.3 0 0 1-1.54-5.85c0-2.14.5-4.1 1.54-5.86a11.85 11.85 0 0 1 4.19-4.18 11.3 11.3 0 0 1 5.85-1.55c2.14 0 4.1.5 5.85 1.55a12.12 12.12 0 0 1 4.19 4.18 11.31 11.31 0 0 1 1.54 5.85c0 2.15-.5 4.1-1.54 5.86a11.85 11.85 0 0 1-4.19 4.18 11.32 11.32 0 0 1-5.85 1.58Zm36.68-29.18c-2.9 0-5.54.66-8 1.96a17.47 17.47 0 0 0-9.31 18.6c.5 2.8 1.57 5.28 3.2 7.45a18.03 18.03 0 0 0 6.11 5.2 16.85 16.85 0 0 0 8 1.92c2.3 0 4.46-.41 6.51-1.26a17.98 17.98 0 0 0 5.41-3.43l-3.68-4.7a11.97 11.97 0 0 1-3.68 2.52c-1.42.6-2.96.92-4.56.92-2.71 0-5.07-.82-7.12-2.43a11.45 11.45 0 0 1-4.09-6.2h28.52c.15-.97.25-1.95.25-2.99a27.81 27.81 0 0 0-.25-2.99 17.32 17.32 0 0 0-3.22-7.42 17.36 17.36 0 0 0-6.1-5.2 16.96 16.96 0 0 0-8-1.95Zm0 5.98c2.7 0 5.06.8 7.1 2.4 2.02 1.6 3.4 3.68 4.1 6.2h-22.4c.69-2.52 2.04-4.6 4.08-6.2 2.05-1.6 4.41-2.4 7.12-2.4Zm19.11-5.98v35.13h5.98v-17.56c0-2.14.5-4.1 1.54-5.86a11.85 11.85 0 0 1 4.19-4.18 11.3 11.3 0 0 1 5.85-1.55v-5.98a17.47 17.47 0 0 0-11.58 4.4v-4.4h-5.98Zm19.13 0v35.13H298v-17.56c0-2.14.5-4.1 1.55-5.86a11.85 11.85 0 0 1 4.18-4.18 11.3 11.3 0 0 1 5.86-1.55c2.13 0 4.09.5 5.82 1.55a11.76 11.76 0 0 1 4.18 4.15 11.8 11.8 0 0 1 1.58 5.82v17.63h5.98v-17.56c0-3.22-.8-6.17-2.4-8.82a18.09 18.09 0 0 0-6.35-6.35 17.47 17.47 0 0 0-15.1-1.23 17.47 17.47 0 0 0-5.3 3.24v-4.4h-5.97Zm53.6.04a17.6 17.6 0 0 0-14.63 8.87 16.72 16.72 0 0 0-2.3 8.66c0 3.24.79 6.16 2.4 8.8a17.6 17.6 0 0 0 6.35 6.36c2.68 1.6 5.6 2.4 8.81 2.4a17.51 17.51 0 0 0 11.52-4.34 11.52 11.52 0 0 1-11.52 10.31v5.95c3.24 0 6.17-.78 8.85-2.39a18.08 18.08 0 0 0 6.35-6.36 16.84 16.84 0 0 0 2.36-8.78v-11.96c0-3.14-.75-6.04-2.3-8.65a18.36 18.36 0 0 0-6.1-6.32 17.49 17.49 0 0 0-8.62-2.55l-.6-.04-.57.04Zm.63 5.94c2.17 0 4.1.5 5.86 1.55a11.85 11.85 0 0 1 4.18 4.18 11.33 11.33 0 0 1 1.57 5.85 11.6 11.6 0 0 1-17.44 10.04 11.68 11.68 0 0 1-4.2-4.18 11.57 11.57 0 0 1-1.55-5.85c0-2.14.54-4.1 1.54-5.86a11.94 11.94 0 0 1 4.22-4.18 11.1 11.1 0 0 1 5.82-1.55Zm54.23 29.14v-35.12h-5.97v17.56a11.67 11.67 0 0 1-1.57 5.89 11.92 11.92 0 0 1-4.16 4.15 11.32 11.32 0 0 1-5.85 1.58c-2.14 0-4.1-.54-5.82-1.58a11.34 11.34 0 0 1-5.76-9.97v-17.63h-5.98v17.56c.03 3.28.85 6.24 2.39 8.85a18.08 18.08 0 0 0 6.36 6.35 16.95 16.95 0 0 0 8.8 2.37c2.21 0 4.32-.38 6.3-1.17a17.87 17.87 0 0 0 5.29-3.24v4.4h5.98Zm19.13-35.12c-2.9 0-5.54.66-8 1.96a17.47 17.47 0 0 0-9.31 18.6c.5 2.8 1.57 5.28 3.2 7.45a18.03 18.03 0 0 0 6.11 5.2 16.85 16.85 0 0 0 8 1.92c2.3 0 4.46-.41 6.51-1.26a17.98 17.98 0 0 0 5.41-3.43l-3.68-4.7a11.97 11.97 0 0 1-3.68 2.52c-1.42.6-2.96.92-4.56.92-2.71 0-5.07-.82-7.12-2.43a11.46 11.46 0 0 1-4.09-6.2h28.51c.16-.97.26-1.95.26-2.99a27.81 27.81 0 0 0-.26-2.99 17.32 17.32 0 0 0-3.2-7.42 17.36 17.36 0 0 0-6.11-5.2 16.96 16.96 0 0 0-8-1.95Zm0 5.98c2.7 0 5.06.8 7.1 2.4 2.02 1.6 3.4 3.68 4.1 6.2h-22.4a11.5 11.5 0 0 1 11.2-8.6Zm32.49-5.94c-.29 0-.57-.04-.85-.04-1.3 0-2.52.13-3.72.38-1.44.28-2.77.88-4 1.73a9.23 9.23 0 0 0-2.83 3.4c-.66 1.36-1 2.77-1.03 4.25a9.03 9.03 0 0 0 1.41 4.69 8.2 8.2 0 0 0 3.53 3.08 35.6 35.6 0 0 0 4.06 1.45 76.26 76.26 0 0 0 4.62 1.26c3.09.79 5 1.42 5.76 1.92 1.1.72 1.64 1.7 1.64 2.96a4.7 4.7 0 0 1-1.86 3.65c-1.23 1.04-3.15 1.57-5.73 1.57-1.29 0-2.45-.12-3.46-.4a5.83 5.83 0 0 1-2.55-1.36 8.3 8.3 0 0 1-1.76-2.52 9.94 9.94 0 0 1-.82-2.61l-5.79.91c.66 3.56 2.11 6.23 4.38 8.1a11.28 11.28 0 0 0 5 2.22c1.86.35 3.43.5 4.78.5h.25c1.3 0 2.59-.12 3.85-.4 1.22-.25 2.32-.57 3.24-.98 1.1-.47 2.07-1.04 2.92-1.76a8.66 8.66 0 0 0 1.86-2.14 13 13 0 0 0 1.2-2.83c.31-1.04.47-1.89.5-2.55 0-1.95-.47-3.59-1.39-4.9a11.13 11.13 0 0 0-4.9-3.47 51.15 51.15 0 0 0-6.55-1.95c-2.1-.47-4-1.04-5.73-1.7-1.54-.79-2.36-1.51-2.48-2.2-.13-.73-.2-1.17-.2-1.36 0-1 .51-1.95 1.52-2.8 1.1-.85 2.92-1.26 5.5-1.26 1.1 0 2.11.1 2.96.32.85.22 1.58.56 2.11 1.1a7.78 7.78 0 0 1 2.17 3.96l5.73-.78a39.7 39.7 0 0 0-.75-2.77 9.76 9.76 0 0 0-1.23-2.43c-.92-1.35-2.43-2.45-4.5-3.3-1.14-.44-2.2-.72-3.21-.82-1.01-.1-1.92-.16-2.8-.16l-.85.04Zm16.19-11.96v29.58a17.54 17.54 0 0 0 8.75 15.1 17.03 17.03 0 0 0 8.81 2.37v-5.95a11.3 11.3 0 0 1-5.85-1.58 11.47 11.47 0 0 1-5.73-10v-3.03h11.58v-5.94H474.3v-20.55h-5.98Z"/><g clip-path="url(#a)"><path fill="url(#b)" d="M238.06 321.8c0-1.64.1-1.74 2.05-2.04 2.74-.44 3.44-1.3 3.44-4.23v-2.44H0V0h543v313.08H298.95v2.15c0 3.04 1 4.19 4 4.58 2.44.35 2.49.4 2.49 2.05v1.7h-67.38v-1.75Zm300.45-167.25V5.48H4.5v298.13h534V154.55Z"/><path fill="url(#c)" d="M99.82 323.06h342.37V342H99.82z"/></g><defs><linearGradient id="b" x1="271.5" x2="271.5" y1="0" y2="323.55" gradientUnits="userSpaceOnUse"><stop stop-color="#7B7B7B"/><stop offset="1" stop-color="#393939"/></linearGradient><linearGradient id="c" x1="271" x2="271" y1="323.06" y2="342" gradientUnits="userSpaceOnUse"><stop stop-color="#7B7B7B"/><stop offset="1" stop-color="#393939"/></linearGradient><clipPath id="a"><path fill="#fff" d="M0 0h543v342H0z"/></clipPath></defs></svg>