<svg xmlns="http://www.w3.org/2000/svg" fill="none" viewBox="0 0 389 60"><path fill="#fff" d="M0 12.8v35.1h6V29.1a11.7 11.7 0 0 1 11.4-10.4l1.4.1a11.5 11.5 0 0 1 10.4 11.5V48h6V29.2c.1-2.1.9-4 2-5.6a11.5 11.5 0 0 1 9.4-4.8h1.3a11.7 11.7 0 0 1 10.4 11.6V48h6V36.7l-.1-8c-.3-3.3-1.5-6.3-3.6-9a17.6 17.6 0 0 0-19.3-6 18.5 18.5 0 0 0-9.2 6.9 15 15 0 0 0-7.7-6.5 17.4 17.4 0 0 0-17.5 2.4l-.8.3H6v-4H0Zm83.4 0a17.8 17.8 0 0 0-17.6 17.6 18 18 0 0 0 8.7 15.2 17 17 0 0 0 9 2.3 17 17 0 0 0 8.8-2.4 18 18 0 0 0 8.7-15.2 17.8 17.8 0 0 0-17.6-17.6Zm0 6a11.3 11.3 0 0 1 10 5.7c1.1 1.8 1.6 3.7 1.6 5.8a11.3 11.3 0 0 1-5.7 10 11.3 11.3 0 0 1-11.7 0 11.6 11.6 0 0 1 5.8-21.5Zm36.7 29.1a17 17 0 0 0 8.8-2.4 18 18 0 0 0 8.8-15.1V.9h-6v16.3a17.9 17.9 0 0 0-11.6-4.4 17.8 17.8 0 0 0-17.6 17.6c0 3.2.8 6.1 2.5 8.8a18 18 0 0 0 6.3 6.3 17 17 0 0 0 8.8 2.4Zm0-6c-2.1 0-4-.5-5.8-1.5A11.6 11.6 0 1 1 120 42Zm36.7-29.1c-2.9 0-5.5.6-8 2a17.5 17.5 0 0 0 0 31.2 17 17 0 0 0 8 2 19 19 0 0 0 11.9-4.8l-3.7-4.7a11.7 11.7 0 0 1-19.4-5.2H174a18.5 18.5 0 0 0 0-6 17.4 17.4 0 0 0-17.3-14.6Zm0 6a11.6 11.6 0 0 1 11.2 8.6h-22.4a11.6 11.6 0 0 1 11.2-8.6Zm19.1-6v35.1h6V30.3a11.3 11.3 0 0 1 5.7-10c1.8-1 3.7-1.5 5.9-1.5v-6a17.5 17.5 0 0 0-11.6 4.4v-4.4h-6Zm19.1 0v35.1h6V30.3a11.3 11.3 0 0 1 5.7-10 12 12 0 0 1 11.7 0 11.8 11.8 0 0 1 5.8 10v17.6h6V30.3c0-3.2-.8-6.1-2.4-8.8a18 18 0 0 0-6.4-6.3 17.5 17.5 0 0 0-20.4 2v-4.4h-6Zm53.6 0a17.6 17.6 0 0 0-8.1 32.7c2.6 1.6 5.6 2.4 8.8 2.4a17.5 17.5 0 0 0 11.5-4.3 11.5 11.5 0 0 1-11.5 10.3v6a18 18 0 0 0 15.2-8.7c1.5-2.8 2.3-5.7 2.3-8.9v-12c0-3.1-.7-6-2.3-8.6a17.5 17.5 0 0 0-14.7-8.9h-1.2Zm.7 6a11.3 11.3 0 0 1 10 5.7 11.3 11.3 0 0 1 0 11.7 11.6 11.6 0 1 1-10-17.4Zm54.2 29.1V12.8h-6v17.5a11.7 11.7 0 0 1-5.7 10 11.1 11.1 0 0 1-11.7 0 11.4 11.4 0 0 1-5.7-9.9V12.8h-6v17.5A17.5 17.5 0 0 0 285.9 48a17 17 0 0 0 11.6-4.4V48h6Zm19.1-35.1c-2.9 0-5.5.6-8 2a17.5 17.5 0 0 0 0 31.2 17 17 0 0 0 8 2 19.5 19.5 0 0 0 12-4.8l-3.7-4.7a11.7 11.7 0 0 1-19.4-5.2h28.4a18.5 18.5 0 0 0 0-6 17.4 17.4 0 0 0-17.3-14.6Zm0 6a11.6 11.6 0 0 1 11.2 8.6h-22.4a11.6 11.6 0 0 1 11.2-8.6Zm32.5-6h-.8a18 18 0 0 0-3.7.4 9.2 9.2 0 0 0-6.8 5.1 10 10 0 0 0-1.1 4.2 9 9 0 0 0 1.4 4.7 8 8 0 0 0 3.5 3.1 36.6 36.6 0 0 0 8 2.6l.7.1c3.1.8 5 1.4 5.8 2 1 .7 1.6 1.6 1.6 2.9 0 1.4-.6 2.6-1.8 3.6a9.3 9.3 0 0 1-5.8 1.6c-1.3 0-2.4-.1-3.4-.4-1-.3-2-.7-2.6-1.3a10 10 0 0 1-2.6-5.1l-5.8.8a13 13 0 0 0 4.4 8.1c1.5 1.2 3.2 2 5 2.3 1.9.3 3.4.5 4.8.5h.3a17.5 17.5 0 0 0 10-3.2c.8-.7 1.4-1.4 1.8-2.1a13 13 0 0 0 1.7-5.4 9 9 0 0 0-1.4-5 11.1 11.1 0 0 0-4.9-3.4c-2-.8-4.2-1.4-6.5-2-2.1-.4-4-1-5.7-1.6-1.6-.8-2.4-1.5-2.5-2.2l-.2-1.4c0-1 .5-2 1.5-2.8 1-.8 3-1.2 5.5-1.2 1.1 0 2.1 0 3 .3.8.2 1.5.5 2 1a7.8 7.8 0 0 1 2.2 4l5.8-.7-.8-2.8c-.3-1-.7-1.7-1.2-2.4a9.6 9.6 0 0 0-4.5-3.3 12 12 0 0 0-3.2-.9l-2.8-.1h-.9Zm16.2-12v29.6A17.5 17.5 0 0 0 389 48v-6c-2.2 0-4.1-.5-5.9-1.5a11.5 11.5 0 0 1-5.7-10v-3H389v-6h-11.6V1h-6Z"/></svg>