<svg width="269" height="32" viewBox="0 0 269 32" fill="none" xmlns="http://www.w3.org/2000/svg">
<path d="M0.44 23.756V20.948H33.56V23.756H0.44ZM60.1758 8.30353C58.0158 8.30353 56.0253 8.85412 54.2464 9.91294C52.4464 10.9718 51.0276 12.4118 49.9688 14.1906C48.8888 15.9906 48.3594 17.96 48.3594 20.12C48.3594 22.3012 48.8888 24.2706 49.9688 26.0494C51.0276 27.8494 52.4464 29.2682 54.2464 30.3482C56.0253 31.4071 58.0158 31.9365 60.1758 31.9365C61.6582 31.9365 63.077 31.6824 64.4111 31.1529C65.7241 30.6447 66.9311 29.9035 67.9688 28.9718V31.9365H71.9923V20.12C71.9711 17.9176 71.4206 15.9482 70.3617 14.1694C69.3029 12.3906 67.8841 10.9718 66.1053 9.91294C64.3264 8.85412 62.3358 8.30353 60.1758 8.30353ZM60.1758 12.3271C61.6158 12.3271 62.9288 12.6659 64.1147 13.3647C65.2794 14.0635 66.2323 15.0165 66.9311 16.1812C67.63 17.3671 67.9688 18.68 67.9688 20.12C67.9688 21.56 67.63 22.8729 66.9311 24.0588C66.2323 25.2447 65.2794 26.1765 64.1147 26.8753C62.9288 27.5741 61.6158 27.9341 60.1758 27.9341C58.7358 27.9341 57.4229 27.5741 56.237 26.8753C55.0511 26.1765 54.1194 25.2447 53.4206 24.0588C52.7217 22.8729 52.3829 21.56 52.3829 20.12C52.3829 18.68 52.7217 17.3671 53.4206 16.1812C54.1194 15.0165 55.0511 14.0635 56.237 13.3647C57.4229 12.6659 58.7358 12.3271 60.1758 12.3271ZM98.2149 31.9365C100.375 31.9365 102.365 31.4071 104.144 30.3482C105.944 29.2682 107.363 27.8494 108.422 26.0494C109.502 24.2706 110.031 22.3012 110.031 20.12C110.031 17.96 109.502 15.9906 108.422 14.1906C107.363 12.4118 105.944 10.9718 104.144 9.91294C102.365 8.85412 100.375 8.30353 98.2149 8.30353C96.7114 8.30353 95.3137 8.57882 93.9796 9.08706C92.6455 9.61647 91.4596 10.3365 90.422 11.2682V0.277649H86.3984V20.1412C86.4196 22.3224 86.9702 24.3129 88.029 26.0918C89.0667 27.8494 90.4855 29.2682 92.2855 30.3482C94.0643 31.4071 96.0549 31.9365 98.2149 31.9365ZM98.2149 27.9341C96.7749 27.9341 95.462 27.5741 94.2761 26.8753C93.0902 26.1765 92.1584 25.2447 91.4596 24.0588C90.7608 22.8729 90.422 21.56 90.422 20.12C90.422 18.68 90.7608 17.3671 91.4596 16.1812C92.1584 15.0165 93.0902 14.0635 94.2761 13.3647C95.462 12.6659 96.7749 12.3271 98.2149 12.3271C99.6549 12.3271 100.968 12.6659 102.154 13.3647C103.318 14.0635 104.271 15.0165 104.97 16.1812C105.669 17.3671 106.008 18.68 106.008 20.12C106.008 21.56 105.669 22.8729 104.97 24.0588C104.271 25.2447 103.318 26.1765 102.154 26.8753C100.968 27.5741 99.6549 27.9341 98.2149 27.9341ZM122.895 8.30353C120.946 8.30353 119.168 8.74824 117.516 9.61647C115.864 10.4635 114.488 11.6282 113.386 13.1106C112.306 14.5718 111.586 16.2447 111.248 18.1082C111.142 18.8282 111.078 19.5059 111.078 20.12C111.099 20.8612 111.163 21.5176 111.248 22.1318C111.586 24.0165 112.306 25.6894 113.408 27.1506C114.509 28.6118 115.864 29.7765 117.516 30.6447C119.168 31.5129 120.946 31.9365 122.895 31.9365C124.44 31.9365 125.902 31.6612 127.278 31.0894C128.633 30.5388 129.862 29.7553 130.92 28.7812L128.443 25.6259C127.744 26.3459 126.897 26.8965 125.965 27.32C125.012 27.7224 123.975 27.9341 122.895 27.9341C121.073 27.9341 119.485 27.3835 118.109 26.3035C116.732 25.2235 115.822 23.8471 115.356 22.1318H134.542C134.648 21.4753 134.711 20.8188 134.711 20.12C134.69 19.4 134.626 18.7224 134.542 18.1082C134.203 16.2447 133.483 14.5718 132.382 13.1106C131.28 11.6282 129.925 10.4635 128.273 9.61647C126.622 8.74824 124.822 8.30353 122.895 8.30353ZM122.895 12.3271C124.716 12.3271 126.304 12.8565 127.68 13.9365C129.036 15.0165 129.968 16.4141 130.433 18.1082H115.356C115.822 16.4141 116.732 15.0165 118.109 13.9365C119.485 12.8565 121.073 12.3271 122.895 12.3271ZM135.758 0.277649V20.1835C135.8 22.3647 136.33 24.3341 137.388 26.1129C138.447 27.8706 139.866 29.2894 141.645 30.3482C143.445 31.4071 145.414 31.9365 147.574 31.9365V27.9341C146.134 27.9341 144.821 27.5741 143.635 26.8753C142.471 26.1765 141.539 25.2447 140.84 24.08C140.141 22.9153 139.803 21.6024 139.781 20.1412V18.1082H147.574V14.1059H139.781V0.277649H135.758ZM148.625 0.277649V20.1835C148.667 22.3647 149.197 24.3341 150.256 26.1129C151.314 27.8706 152.733 29.2894 154.512 30.3482C156.312 31.4071 158.281 31.9365 160.441 31.9365V27.9341C159.001 27.9341 157.689 27.5741 156.503 26.8753C155.338 26.1765 154.406 25.2447 153.707 24.08C153.009 22.9153 152.67 21.6024 152.649 20.1412V18.1082H160.441V14.1059H152.649V0.277649H148.625ZM173.309 8.30353C171.36 8.30353 169.582 8.74824 167.93 9.61647C166.278 10.4635 164.902 11.6282 163.8 13.1106C162.72 14.5718 162 16.2447 161.662 18.1082C161.556 18.8282 161.492 19.5059 161.492 20.12C161.513 20.8612 161.577 21.5176 161.662 22.1318C162 24.0165 162.72 25.6894 163.822 27.1506C164.923 28.6118 166.278 29.7765 167.93 30.6447C169.582 31.5129 171.36 31.9365 173.309 31.9365C174.855 31.9365 176.316 31.6612 177.692 31.0894C179.047 30.5388 180.276 29.7553 181.335 28.7812L178.857 25.6259C178.158 26.3459 177.311 26.8965 176.379 27.32C175.426 27.7224 174.389 27.9341 173.309 27.9341C171.487 27.9341 169.899 27.3835 168.523 26.3035C167.146 25.2235 166.236 23.8471 165.77 22.1318H184.956C185.062 21.4753 185.125 20.8188 185.125 20.12C185.104 19.4 185.04 18.7224 184.956 18.1082C184.617 16.2447 183.897 14.5718 182.796 13.1106C181.695 11.6282 180.339 10.4635 178.687 9.61647C177.036 8.74824 175.236 8.30353 173.309 8.30353ZM173.309 12.3271C175.13 12.3271 176.718 12.8565 178.095 13.9365C179.45 15.0165 180.382 16.4141 180.847 18.1082H165.77C166.236 16.4141 167.146 15.0165 168.523 13.9365C169.899 12.8565 171.487 12.3271 173.309 12.3271ZM186.172 8.30353V31.9365H190.195V20.12C190.195 18.68 190.534 17.3671 191.233 16.1812C191.932 15.0165 192.864 14.0635 194.05 13.3647C195.235 12.6659 196.548 12.3271 197.988 12.3271V8.30353C196.485 8.30353 195.087 8.57882 193.753 9.08706C192.419 9.61647 191.233 10.3365 190.195 11.2682V8.30353H186.172ZM212.398 0.277649V4.30118H222.627V31.9365H226.629V4.30118H236.857V0.277649H212.398ZM237.5 0.214119L248.321 31.9153H252.641L263.462 0.214119H259.164L250.481 26.3882L241.82 0.214119H237.5ZM264.535 27.5106V31.5129H268.559V27.5106H264.535Z" fill="white"/>
</svg>
