<svg width="414" height="274" viewBox="0 0 414 274" fill="none" xmlns="http://www.w3.org/2000/svg">
<path d="M-1 42.9514H415V274H-1V42.9514Z" fill="#131313"/>
<path d="M216 43L-1 0V43H216Z" fill="#131313"/>
<path d="M198 43L415 0V43H198Z" fill="#131313"/>
<g clip-path="url(#clip0_606_28)">
<path d="M163.998 235.303C163.998 234.216 163.131 233.332 162.052 233.332C160.974 233.332 160.101 234.212 160.101 235.305V243.559C160.101 244.639 160.975 245.532 162.056 245.532C163.129 245.532 164.002 244.639 164.002 243.559V235.292H163.989L163.998 235.303ZM141.914 233.709L141.92 246.509C141.92 247.689 142.848 248.629 143.993 248.629H145.394V253.003C145.394 254.096 146.264 254.979 147.332 254.979C148.4 254.979 149.266 254.099 149.283 253.021V248.648H151.91V253.021C151.91 254.119 152.78 254.999 153.848 254.999C154.933 254.999 155.802 254.119 155.802 253.012V248.639H157.223C158.369 248.639 159.296 247.692 159.296 246.535V233.695L141.858 233.707L141.911 233.709H141.914ZM154.632 229.803C154.224 229.803 153.894 229.469 153.894 229.056C153.894 228.649 154.224 228.312 154.632 228.309C155.041 228.309 155.37 228.649 155.37 229.056C155.37 229.469 155.041 229.803 154.632 229.803ZM146.644 229.803C146.235 229.803 145.906 229.469 145.906 229.056C145.906 228.647 146.235 228.312 146.644 228.312C147.053 228.312 147.382 228.652 147.382 229.072C147.382 229.492 147.088 229.803 146.669 229.803H146.644ZM156.279 223.44C156.358 223.3 156.297 223.139 156.179 223.06C156.041 223 155.883 223.04 155.804 223.18L154.42 225.713C153.276 225.173 151.974 224.873 150.611 224.873C149.248 224.873 147.95 225.16 146.798 225.677L145.435 223.14C145.365 223.009 145.198 222.96 145.069 223.033C144.937 223.093 144.89 223.273 144.963 223.393L146.321 225.893C143.645 227.289 141.839 229.947 141.839 233H159.408C159.408 229.947 157.596 227.357 154.922 225.961L156.279 223.44ZM139.195 233.323C138.118 233.323 137.244 234.209 137.244 235.3V243.556C137.244 244.649 138.119 245.529 139.2 245.529C140.273 245.529 141.147 244.649 141.147 243.556V235.303C141.147 234.216 140.277 233.332 139.21 233.332L139.195 233.323Z" fill="white"/>
</g>
<path d="M219.434 247.938C218.949 249.056 218.376 250.085 217.711 251.031C216.805 252.321 216.063 253.214 215.491 253.709C214.604 254.523 213.655 254.94 212.638 254.964C211.908 254.964 211.027 254.756 210.002 254.336C208.974 253.917 208.029 253.709 207.165 253.709C206.259 253.709 205.287 253.917 204.247 254.336C203.206 254.756 202.367 254.976 201.726 254.997C200.751 255.039 199.779 254.61 198.808 253.709C198.189 253.17 197.414 252.246 196.486 250.936C195.491 249.538 194.672 247.916 194.031 246.067C193.344 244.07 193 242.136 193 240.264C193 238.12 193.464 236.27 194.394 234.72C195.125 233.475 196.097 232.493 197.313 231.772C198.53 231.051 199.845 230.684 201.26 230.66C202.035 230.66 203.051 230.899 204.313 231.37C205.572 231.841 206.38 232.08 206.734 232.08C206.999 232.08 207.897 231.801 209.419 231.243C210.859 230.726 212.074 230.512 213.069 230.596C215.766 230.813 217.792 231.875 219.139 233.787C216.727 235.246 215.534 237.289 215.558 239.911C215.58 241.952 216.322 243.651 217.78 245.001C218.441 245.627 219.179 246.111 220 246.454C219.822 246.97 219.634 247.464 219.434 247.938ZM213.249 223.64C213.249 225.241 212.663 226.735 211.496 228.118C210.087 229.762 208.383 230.712 206.535 230.562C206.512 230.37 206.498 230.168 206.498 229.956C206.498 228.419 207.168 226.775 208.358 225.431C208.952 224.75 209.707 224.184 210.623 223.733C211.538 223.288 212.402 223.042 213.215 223C213.239 223.214 213.249 223.428 213.249 223.64V223.64Z" fill="white"/>
<g clip-path="url(#clip1_606_28)">
<path d="M260.986 225.75L247.876 227.474V238.374H260.986V225.75ZM247.876 250.59L260.986 252.456V239.626H247.876V250.59ZM262.432 239.79L262.484 252.546L279.876 255V239.79H262.432ZM279.876 223L262.536 225.488V238.316H279.876V223Z" fill="white"/>
</g>
<path d="M43.085 111.565V137.947H46.4379V119.382L54.4144 137.947H58.0673L66.0438 119.365V137.947H69.3967V111.565H65.7614L56.232 133.747L46.7203 111.565H43.085ZM80.1195 118.253C78.3195 118.253 76.6607 118.712 75.1783 119.594C73.6783 120.476 72.496 121.676 71.6136 123.159C70.7136 124.659 70.2725 126.3 70.2725 128.1C70.2725 129.918 70.7136 131.559 71.6136 133.041C72.496 134.541 73.6783 135.724 75.1783 136.624C76.6607 137.506 78.3195 137.947 80.1195 137.947C81.9195 137.947 83.5783 137.506 85.0607 136.624C86.5607 135.724 87.743 134.541 88.6254 133.041C89.5254 131.559 89.9666 129.918 89.9666 128.1C89.9666 126.3 89.5254 124.659 88.6254 123.159C87.743 121.676 86.5607 120.476 85.0607 119.594C83.5783 118.712 81.9195 118.253 80.1195 118.253ZM80.1195 121.606C81.3195 121.606 82.4136 121.888 83.4019 122.471C84.3725 123.053 85.1666 123.847 85.7489 124.818C86.3313 125.806 86.6136 126.9 86.6136 128.1C86.6136 129.3 86.3313 130.394 85.7489 131.382C85.1666 132.371 84.3725 133.147 83.4019 133.729C82.4136 134.312 81.3195 134.612 80.1195 134.612C78.9195 134.612 77.8254 134.312 76.8372 133.729C75.8489 133.147 75.0725 132.371 74.4901 131.382C73.9078 130.394 73.6254 129.3 73.6254 128.1C73.6254 126.9 73.9078 125.806 74.4901 124.818C75.0725 123.847 75.8489 123.053 76.8372 122.471C77.8254 121.888 78.9195 121.606 80.1195 121.606ZM90.8389 118.253V137.947H94.1918V128.1C94.1918 126.9 94.4742 125.806 95.0565 124.818C95.6389 123.847 96.4153 123.053 97.4036 122.471C98.3918 121.888 99.4859 121.606 100.686 121.606V118.253C99.433 118.253 98.2683 118.482 97.1565 118.906C96.0447 119.347 95.0565 119.947 94.1918 120.724V118.253H90.8389ZM109.299 118.253C107.676 118.253 106.193 118.624 104.817 119.347C103.44 120.053 102.293 121.024 101.376 122.259C100.476 123.476 99.8757 124.871 99.5933 126.424C99.5051 127.024 99.4521 127.588 99.4521 128.1C99.4698 128.718 99.5227 129.265 99.5933 129.776C99.8757 131.347 100.476 132.741 101.393 133.959C102.311 135.176 103.44 136.147 104.817 136.871C106.193 137.594 107.676 137.947 109.299 137.947C110.587 137.947 111.805 137.718 112.952 137.241C114.082 136.782 115.105 136.129 115.987 135.318L113.923 132.688C113.34 133.288 112.635 133.747 111.858 134.1C111.064 134.435 110.199 134.612 109.299 134.612C107.782 134.612 106.458 134.153 105.311 133.253C104.164 132.353 103.405 131.206 103.017 129.776H119.005C119.093 129.229 119.146 128.682 119.146 128.1C119.129 127.5 119.076 126.935 119.005 126.424C118.723 124.871 118.123 123.476 117.205 122.259C116.287 121.024 115.158 120.053 113.782 119.347C112.405 118.624 110.905 118.253 109.299 118.253ZM109.299 121.606C110.817 121.606 112.14 122.047 113.287 122.947C114.417 123.847 115.193 125.012 115.582 126.424H103.017C103.405 125.012 104.164 123.847 105.311 122.947C106.458 122.047 107.782 121.606 109.299 121.606ZM131.151 111.565V128.153C131.187 129.971 131.628 131.612 132.51 133.094C133.393 134.559 134.575 135.741 136.057 136.624C137.557 137.506 139.198 137.947 140.998 137.947V134.612C139.798 134.612 138.704 134.312 137.716 133.729C136.745 133.147 135.969 132.371 135.387 131.4C134.804 130.429 134.522 129.335 134.504 128.118V126.424H140.998V123.088H134.504V111.565H131.151ZM141.874 111.565V137.947H145.209V128.065C145.227 126.847 145.527 125.753 146.109 124.782C146.692 123.812 147.468 123.053 148.439 122.471C149.409 121.888 150.503 121.606 151.703 121.606C152.903 121.606 153.998 121.888 154.986 122.471C155.956 123.053 156.733 123.829 157.315 124.8C157.898 125.771 158.198 126.865 158.215 128.082V138H161.55V127.976C161.55 126.671 161.321 125.435 160.88 124.271C160.439 123.088 159.786 122.047 158.921 121.147C158.056 120.247 157.015 119.541 155.798 119.029C154.58 118.518 153.221 118.253 151.721 118.253C150.468 118.253 149.303 118.465 148.192 118.906C147.08 119.347 146.092 119.947 145.209 120.724V111.565H141.874ZM172.287 118.253C170.487 118.253 168.829 118.712 167.346 119.594C165.846 120.476 164.664 121.676 163.782 123.159C162.882 124.659 162.44 126.3 162.44 128.1C162.44 129.918 162.882 131.559 163.782 133.041C164.664 134.541 165.846 135.724 167.346 136.624C168.829 137.506 170.487 137.947 172.287 137.947C173.523 137.947 174.705 137.735 175.817 137.294C176.911 136.871 177.917 136.253 178.782 135.476V137.947H182.135V128.1C182.117 126.265 181.658 124.624 180.776 123.141C179.893 121.659 178.711 120.476 177.229 119.594C175.746 118.712 174.087 118.253 172.287 118.253ZM172.287 121.606C173.487 121.606 174.582 121.888 175.57 122.471C176.54 123.053 177.335 123.847 177.917 124.818C178.499 125.806 178.782 126.9 178.782 128.1C178.782 129.3 178.499 130.394 177.917 131.382C177.335 132.371 176.54 133.147 175.57 133.729C174.582 134.312 173.487 134.612 172.287 134.612C171.087 134.612 169.993 134.312 169.005 133.729C168.017 133.147 167.24 132.371 166.658 131.382C166.076 130.394 165.793 129.3 165.793 128.1C165.793 126.9 166.076 125.806 166.658 124.818C167.24 123.847 168.017 123.053 169.005 122.471C169.993 121.888 171.087 121.606 172.287 121.606ZM183.007 118.253V137.947H186.36V128.1C186.36 126.9 186.642 125.806 187.224 124.818C187.807 123.847 188.583 123.053 189.572 122.471C190.56 121.888 191.654 121.606 192.854 121.606C194.054 121.606 195.148 121.888 196.119 122.471C197.107 123.053 197.883 123.829 198.466 124.8C199.03 125.771 199.33 126.865 199.348 128.065V137.947H202.701V128.1C202.701 126.3 202.26 124.641 201.36 123.159C200.477 121.676 199.277 120.476 197.795 119.594C196.313 118.712 194.654 118.253 192.854 118.253C191.601 118.253 190.436 118.482 189.324 118.906C188.213 119.347 187.224 119.947 186.36 120.724V118.253H183.007ZM221.2 118.253V134.806C221.2 136.006 220.918 137.1 220.335 138.071C219.753 139.059 218.977 139.835 217.988 140.418C217 141 215.906 141.3 214.706 141.3V144.635C216.506 144.635 218.147 144.194 219.647 143.312C221.13 142.429 222.312 141.247 223.194 139.765C224.077 138.3 224.518 136.641 224.553 134.824V118.253H221.2ZM221.2 111.565V114.918H224.553V111.565H221.2ZM245.123 137.947V118.253H241.77V128.1C241.752 129.318 241.47 130.412 240.888 131.4C240.305 132.371 239.529 133.147 238.558 133.729C237.57 134.312 236.476 134.612 235.276 134.612C234.076 134.612 232.982 134.312 232.011 133.729C231.023 133.165 230.246 132.388 229.664 131.418C229.099 130.447 228.799 129.353 228.782 128.135V118.253H225.429V128.1C225.446 129.935 225.905 131.594 226.77 133.059C227.652 134.541 228.835 135.724 230.335 136.624C231.817 137.506 233.476 137.947 235.276 137.947C236.511 137.947 237.693 137.735 238.805 137.294C239.899 136.853 240.905 136.253 241.77 135.476V137.947H245.123ZM253.495 118.271C253.336 118.271 253.177 118.253 253.019 118.253C252.295 118.253 251.607 118.324 250.936 118.465C250.125 118.624 249.383 118.959 248.695 119.435C248.007 119.947 247.477 120.582 247.107 121.341C246.736 122.1 246.542 122.894 246.525 123.724C246.56 124.712 246.825 125.594 247.319 126.353C247.795 127.112 248.466 127.694 249.295 128.082C250.036 128.4 250.795 128.665 251.572 128.894C252.348 129.124 253.089 129.335 253.813 129.512C253.936 129.547 254.042 129.582 254.166 129.6C255.895 130.041 256.972 130.394 257.395 130.676C258.013 131.082 258.313 131.629 258.313 132.335C258.313 133.112 257.96 133.8 257.272 134.382C256.583 134.965 255.507 135.265 254.06 135.265C253.336 135.265 252.683 135.194 252.119 135.035C251.536 134.876 251.06 134.629 250.689 134.276C250.248 133.835 249.93 133.376 249.701 132.865C249.472 132.353 249.313 131.876 249.242 131.4L245.995 131.912C246.366 133.906 247.177 135.406 248.448 136.447C249.277 137.1 250.213 137.506 251.254 137.7C252.295 137.894 253.177 137.982 253.936 137.982H254.077C254.801 137.982 255.525 137.912 256.23 137.753C256.919 137.612 257.536 137.435 258.048 137.206C258.666 136.941 259.213 136.624 259.689 136.218C260.148 135.812 260.501 135.424 260.73 135.018C260.995 134.559 261.225 134.029 261.401 133.429C261.577 132.847 261.666 132.371 261.683 132C261.683 130.906 261.419 129.988 260.907 129.247C260.236 128.4 259.319 127.747 258.154 127.306C256.989 126.865 255.772 126.512 254.483 126.212C253.301 125.947 252.242 125.629 251.272 125.259C250.407 124.818 249.948 124.412 249.877 124.024C249.807 123.618 249.772 123.371 249.772 123.265C249.772 122.7 250.054 122.171 250.619 121.694C251.236 121.218 252.26 120.988 253.707 120.988C254.325 120.988 254.889 121.041 255.366 121.165C255.842 121.288 256.248 121.482 256.548 121.782C257.201 122.453 257.607 123.194 257.766 124.006L260.977 123.565C260.854 123.035 260.713 122.524 260.554 122.012C260.377 121.5 260.148 121.059 259.866 120.653C259.354 119.894 258.507 119.276 257.342 118.8C256.707 118.553 256.107 118.394 255.542 118.341C254.977 118.288 254.466 118.253 253.972 118.253L253.495 118.271ZM262.577 111.565V128.153C262.612 129.971 263.054 131.612 263.936 133.094C264.818 134.559 266.001 135.741 267.483 136.624C268.983 137.506 270.624 137.947 272.424 137.947V134.612C271.224 134.612 270.13 134.312 269.142 133.729C268.171 133.147 267.395 132.371 266.812 131.4C266.23 130.429 265.948 129.335 265.93 128.118V126.424H272.424V123.088H265.93V111.565H262.577ZM294.28 118.253C292.48 118.253 290.821 118.712 289.338 119.594C287.838 120.476 286.656 121.676 285.774 123.159C284.874 124.659 284.433 126.3 284.433 128.1C284.433 129.918 284.874 131.559 285.774 133.041C286.656 134.541 287.838 135.724 289.338 136.624C290.821 137.506 292.48 137.947 294.28 137.947C295.515 137.947 296.697 137.735 297.809 137.294C298.903 136.871 299.891 136.253 300.774 135.494L298.48 133.076C297.915 133.553 297.28 133.924 296.556 134.206C295.85 134.471 295.091 134.612 294.28 134.612C293.08 134.612 291.986 134.312 290.997 133.729C290.009 133.147 289.233 132.371 288.65 131.382C288.068 130.394 287.786 129.3 287.786 128.1C287.786 126.9 288.068 125.806 288.65 124.818C289.233 123.847 290.009 123.053 290.997 122.471C291.986 121.888 293.08 121.606 294.28 121.606C295.091 121.606 295.868 121.747 296.574 122.012C297.297 122.294 297.95 122.682 298.515 123.176L300.95 120.882C300.068 120.053 299.044 119.418 297.915 118.959C296.768 118.5 295.568 118.253 294.28 118.253ZM311.682 118.253C309.882 118.253 308.223 118.712 306.741 119.594C305.241 120.476 304.058 121.676 303.176 123.159C302.276 124.659 301.835 126.3 301.835 128.1C301.835 129.918 302.276 131.559 303.176 133.041C304.058 134.541 305.241 135.724 306.741 136.624C308.223 137.506 309.882 137.947 311.682 137.947C312.917 137.947 314.1 137.735 315.211 137.294C316.306 136.871 317.311 136.253 318.176 135.476V137.947H321.529V128.1C321.511 126.265 321.053 124.624 320.17 123.141C319.288 121.659 318.106 120.476 316.623 119.594C315.141 118.712 313.482 118.253 311.682 118.253ZM311.682 121.606C312.882 121.606 313.976 121.888 314.964 122.471C315.935 123.053 316.729 123.847 317.311 124.818C317.894 125.806 318.176 126.9 318.176 128.1C318.176 129.3 317.894 130.394 317.311 131.382C316.729 132.371 315.935 133.147 314.964 133.729C313.976 134.312 312.882 134.612 311.682 134.612C310.482 134.612 309.388 134.312 308.4 133.729C307.411 133.147 306.635 132.371 306.053 131.382C305.47 130.394 305.188 129.3 305.188 128.1C305.188 126.9 305.47 125.806 306.053 124.818C306.635 123.847 307.411 123.053 308.4 122.471C309.388 121.888 310.482 121.606 311.682 121.606ZM332.248 137.947C334.048 137.947 335.707 137.506 337.19 136.624C338.69 135.724 339.872 134.541 340.754 133.041C341.654 131.559 342.095 129.918 342.095 128.1C342.095 126.3 341.654 124.659 340.754 123.159C339.872 121.676 338.69 120.476 337.19 119.594C335.707 118.712 334.048 118.253 332.248 118.253C330.995 118.253 329.831 118.482 328.719 118.906C327.607 119.347 326.619 119.947 325.754 120.724V111.565H322.401V128.118C322.419 129.935 322.878 131.594 323.76 133.076C324.625 134.541 325.807 135.724 327.307 136.624C328.79 137.506 330.448 137.947 332.248 137.947ZM332.248 134.612C331.048 134.612 329.954 134.312 328.966 133.729C327.978 133.147 327.201 132.371 326.619 131.382C326.037 130.394 325.754 129.3 325.754 128.1C325.754 126.9 326.037 125.806 326.619 124.818C327.201 123.847 327.978 123.053 328.966 122.471C329.954 121.888 331.048 121.606 332.248 121.606C333.448 121.606 334.543 121.888 335.531 122.471C336.501 123.053 337.295 123.847 337.878 124.818C338.46 125.806 338.743 126.9 338.743 128.1C338.743 129.3 338.46 130.394 337.878 131.382C337.295 132.371 336.501 133.147 335.531 133.729C334.543 134.312 333.448 134.612 332.248 134.612ZM342.968 111.565V137.947H346.321V111.565H342.968ZM357.063 118.253C355.439 118.253 353.957 118.624 352.581 119.347C351.204 120.053 350.057 121.024 349.139 122.259C348.239 123.476 347.639 124.871 347.357 126.424C347.269 127.024 347.216 127.588 347.216 128.1C347.233 128.718 347.286 129.265 347.357 129.776C347.639 131.347 348.239 132.741 349.157 133.959C350.075 135.176 351.204 136.147 352.581 136.871C353.957 137.594 355.439 137.947 357.063 137.947C358.351 137.947 359.569 137.718 360.716 137.241C361.845 136.782 362.869 136.129 363.751 135.318L361.686 132.688C361.104 133.288 360.398 133.747 359.622 134.1C358.828 134.435 357.963 134.612 357.063 134.612C355.545 134.612 354.222 134.153 353.075 133.253C351.928 132.353 351.169 131.206 350.781 129.776H366.769C366.857 129.229 366.91 128.682 366.91 128.1C366.892 127.5 366.839 126.935 366.769 126.424C366.486 124.871 365.886 123.476 364.969 122.259C364.051 121.024 362.922 120.053 361.545 119.347C360.169 118.624 358.669 118.253 357.063 118.253ZM357.063 121.606C358.581 121.606 359.904 122.047 361.051 122.947C362.181 123.847 362.957 125.012 363.345 126.424H350.781C351.169 125.012 351.928 123.847 353.075 122.947C354.222 122.047 355.545 121.606 357.063 121.606ZM99.4363 176.13V173.79H127.036V176.13H99.4363ZM149.216 163.253C147.416 163.253 145.757 163.712 144.275 164.594C142.775 165.476 141.593 166.676 140.71 168.159C139.81 169.659 139.369 171.3 139.369 173.1C139.369 174.918 139.81 176.559 140.71 178.041C141.593 179.541 142.775 180.724 144.275 181.624C145.757 182.506 147.416 182.947 149.216 182.947C150.451 182.947 151.634 182.735 152.746 182.294C153.84 181.871 154.846 181.253 155.71 180.476V182.947H159.063V173.1C159.046 171.265 158.587 169.624 157.704 168.141C156.822 166.659 155.64 165.476 154.157 164.594C152.675 163.712 151.016 163.253 149.216 163.253ZM149.216 166.606C150.416 166.606 151.51 166.888 152.499 167.471C153.469 168.053 154.263 168.847 154.846 169.818C155.428 170.806 155.71 171.9 155.71 173.1C155.71 174.3 155.428 175.394 154.846 176.382C154.263 177.371 153.469 178.147 152.499 178.729C151.51 179.312 150.416 179.612 149.216 179.612C148.016 179.612 146.922 179.312 145.934 178.729C144.946 178.147 144.169 177.371 143.587 176.382C143.004 175.394 142.722 174.3 142.722 173.1C142.722 171.9 143.004 170.806 143.587 169.818C144.169 168.847 144.946 168.053 145.934 167.471C146.922 166.888 148.016 166.606 149.216 166.606ZM180.915 182.947C182.715 182.947 184.374 182.506 185.857 181.624C187.357 180.724 188.539 179.541 189.421 178.041C190.321 176.559 190.762 174.918 190.762 173.1C190.762 171.3 190.321 169.659 189.421 168.159C188.539 166.676 187.357 165.476 185.857 164.594C184.374 163.712 182.715 163.253 180.915 163.253C179.662 163.253 178.498 163.482 177.386 163.906C176.274 164.347 175.286 164.947 174.421 165.724V156.565H171.068V173.118C171.086 174.935 171.545 176.594 172.427 178.076C173.292 179.541 174.474 180.724 175.974 181.624C177.457 182.506 179.115 182.947 180.915 182.947ZM180.915 179.612C179.715 179.612 178.621 179.312 177.633 178.729C176.645 178.147 175.868 177.371 175.286 176.382C174.704 175.394 174.421 174.3 174.421 173.1C174.421 171.9 174.704 170.806 175.286 169.818C175.868 168.847 176.645 168.053 177.633 167.471C178.621 166.888 179.715 166.606 180.915 166.606C182.115 166.606 183.21 166.888 184.198 167.471C185.168 168.053 185.962 168.847 186.545 169.818C187.127 170.806 187.41 171.9 187.41 173.1C187.41 174.3 187.127 175.394 186.545 176.382C185.962 177.371 185.168 178.147 184.198 178.729C183.21 179.312 182.115 179.612 180.915 179.612ZM201.482 163.253C199.858 163.253 198.376 163.624 196.999 164.347C195.623 165.053 194.476 166.024 193.558 167.259C192.658 168.476 192.058 169.871 191.776 171.424C191.688 172.024 191.635 172.588 191.635 173.1C191.652 173.718 191.705 174.265 191.776 174.776C192.058 176.347 192.658 177.741 193.576 178.959C194.494 180.176 195.623 181.147 196.999 181.871C198.376 182.594 199.858 182.947 201.482 182.947C202.77 182.947 203.988 182.718 205.135 182.241C206.264 181.782 207.288 181.129 208.17 180.318L206.105 177.688C205.523 178.288 204.817 178.747 204.041 179.1C203.247 179.435 202.382 179.612 201.482 179.612C199.964 179.612 198.641 179.153 197.494 178.253C196.347 177.353 195.588 176.206 195.199 174.776H211.188C211.276 174.229 211.329 173.682 211.329 173.1C211.311 172.5 211.258 171.935 211.188 171.424C210.905 169.871 210.305 168.476 209.388 167.259C208.47 166.024 207.341 165.053 205.964 164.347C204.588 163.624 203.088 163.253 201.482 163.253ZM201.482 166.606C202.999 166.606 204.323 167.047 205.47 167.947C206.599 168.847 207.376 170.012 207.764 171.424H195.199C195.588 170.012 196.347 168.847 197.494 167.947C198.641 167.047 199.964 166.606 201.482 166.606ZM212.201 156.565V173.153C212.236 174.971 212.678 176.612 213.56 178.094C214.442 179.559 215.625 180.741 217.107 181.624C218.607 182.506 220.248 182.947 222.048 182.947V179.612C220.848 179.612 219.754 179.312 218.766 178.729C217.795 178.147 217.019 177.371 216.436 176.4C215.854 175.429 215.572 174.335 215.554 173.118V171.424H222.048V168.088H215.554V156.565H212.201ZM222.924 156.565V173.153C222.959 174.971 223.4 176.612 224.283 178.094C225.165 179.559 226.347 180.741 227.83 181.624C229.33 182.506 230.971 182.947 232.771 182.947V179.612C231.571 179.612 230.477 179.312 229.489 178.729C228.518 178.147 227.741 177.371 227.159 176.4C226.577 175.429 226.294 174.335 226.277 173.118V171.424H232.771V168.088H226.277V156.565H222.924ZM243.494 163.253C241.87 163.253 240.388 163.624 239.011 164.347C237.635 165.053 236.488 166.024 235.57 167.259C234.67 168.476 234.07 169.871 233.788 171.424C233.699 172.024 233.646 172.588 233.646 173.1C233.664 173.718 233.717 174.265 233.788 174.776C234.07 176.347 234.67 177.741 235.588 178.959C236.505 180.176 237.635 181.147 239.011 181.871C240.388 182.594 241.87 182.947 243.494 182.947C244.782 182.947 245.999 182.718 247.146 182.241C248.276 181.782 249.299 181.129 250.182 180.318L248.117 177.688C247.535 178.288 246.829 178.747 246.052 179.1C245.258 179.435 244.394 179.612 243.494 179.612C241.976 179.612 240.652 179.153 239.505 178.253C238.358 177.353 237.599 176.206 237.211 174.776H253.199C253.288 174.229 253.341 173.682 253.341 173.1C253.323 172.5 253.27 171.935 253.199 171.424C252.917 169.871 252.317 168.476 251.399 167.259C250.482 166.024 249.352 165.053 247.976 164.347C246.599 163.624 245.099 163.253 243.494 163.253ZM243.494 166.606C245.011 166.606 246.335 167.047 247.482 167.947C248.611 168.847 249.388 170.012 249.776 171.424H237.211C237.599 170.012 238.358 168.847 239.505 167.947C240.652 167.047 241.976 166.606 243.494 166.606ZM254.213 163.253V182.947H257.566V173.1C257.566 171.9 257.848 170.806 258.431 169.818C259.013 168.847 259.789 168.053 260.778 167.471C261.766 166.888 262.86 166.606 264.06 166.606V163.253C262.807 163.253 261.642 163.482 260.531 163.906C259.419 164.347 258.431 164.947 257.566 165.724V163.253H254.213ZM276.068 156.565V159.918H284.592V182.947H287.927V159.918H296.451V156.565H276.068ZM296.986 156.512L306.004 182.929H309.604L318.622 156.512H315.039L307.804 178.324L300.586 156.512H296.986ZM319.516 179.259V182.594H322.869V179.259H319.516Z" fill="white"/>
<defs>
<clipPath id="clip0_606_28">
<rect width="29" height="32" fill="white" transform="translate(136.124 223)"/>
</clipPath>
<clipPath id="clip1_606_28">
<rect width="32" height="32" fill="white" transform="translate(247.876 223)"/>
</clipPath>
</defs>
</svg>
