<svg xmlns="http://www.w3.org/2000/svg" fill="none" viewBox="0 0 1179 416"><rect width="1179" height="416" fill="#A650FF" rx="30"/><g fill="#fff" clip-path="url(#a)"><path d="M94.9 92.6v39.7s-.7 6.2-5.7 6.2h-2.8v2h19.7v-2.2h-3.3s-5.3-1.1-5.5-6.2c-.1-5.1 0-36.5 0-36.5l28 44.3h15.2v-42s.3-8 5.5-8.4h3.3v-2h-19.1V90h3.5s4.3-.2 4.6 6.7c.3 7 0 21.2 0 21.2L119 88H87.7v1.6l4.7.2s2.4 0 2.5 2.8Z"/><path d="M187.7 97s-5.7-10.3-23.6-8c-8.5 1.1.3 11.2 14 14 5.9 1.2 26.2 7.7 21.2 25.8-5 18.2-30 11-32 10.4a92 92 0 0 1-9.8-5.3l-8.5 6.6v-22.9h1.2s3.3 12.3 10.4 16.4c7 4.1 14.4 7.4 24.2 4.8 9.9-2.7-1.8-13-18.6-14.6-16.8-1.5-25.2-25.6-9.4-34 15.9-8.4 29.5 2.5 30.5 3.4a37 37 0 0 1 1.8 1.8l-1.4 1.4Z"/><path d="M194.5 138.4v1.7h17.2v-1.5h-3.9s-3.3-.6-3.2-3.2c0-2.5 3.8-11.6 3.8-11.6l7.5-18.4 11.5 33.4h-6.6v1.4H257v-1.6h-4.6l-19.2-50.7h-12.4l-18.3 45.3s-1 3.6-4.8 5.2h-3.2M168.6 157c2.5-1.1 5-2.2 7.5-3.5a48 48 0 0 0 6.6-4.5c1-1 2-2 3.2-2.9 1-1 2.1-1.7 3.1-2.6 2-1.7 4-3.5 5.3-5.8a10.6 10.6 0 0 0 1.3-7.6c-.5-3-1.8-6-3.6-8.6a31.1 31.1 0 0 0-15.5-11c-6.5-2.2-13.6-3-20.4-2.1-6.2.8-12.2 3-17.4 6.7-4.8 3.4-9 8-11.5 13.3a17 17 0 0 0-2 9.9 10 10 0 0 0 4.5 7c2.8 1.8 6.3 1.6 9.4 1.2a41 41 0 0 0 26.8-15c.2-.3.3-.7 0-1-.3-.3-.7-.3-1 0a40 40 0 0 1-30.3 15c-1.5-.2-3-.5-4.3-1.3-1-.7-2-1.7-2.6-2.8a11.3 11.3 0 0 1-.8-8.6 25 25 0 0 1 4-8.2 37.2 37.2 0 0 1 21-14 42.2 42.2 0 0 1 19.8 0c6 1.4 12 4 16.5 8.5a22 22 0 0 1 5 7.4 13 13 0 0 1 1 8 13 13 0 0 1-3.7 5.9c-1.9 1.8-4 3.4-6 5.1-2 1.7-4 3.7-6.3 5.2-2 1.4-4.2 2.4-6.4 3.4L168 156c-.3.1-.4.6-.2.9.2.2.6.3.9.2Z"/><path d="M201.5 74A14.3 14.3 0 0 0 189 95.5l-26 33.7 4.7 3.8 29.4-30.8-.1-.2c1.4.5 2.9.8 4.4.8 7.9 0 14.2-6.5 14.2-14.4 0-8-6.3-14.4-14.2-14.4Z"/><path fill-rule="evenodd" d="M222.1 123.4h-13.7v-1.7H222v1.7Zm34.4 27.9H86.2v-1.7h170.3v1.7Z" clip-rule="evenodd"/><path d="M86.7 170.3v-8.7h1.4l3 5.8v-5.8h1.3v8.7h-1.5l-2.8-5.7v5.7h-1.4Zm13.3 0h-1.5l-.7-2H95l-.6 2H93l2.8-8.7h1.5l2.8 8.7Zm-2.6-3.5-1-3.2-1 3.2h2Zm4 3.5V163h-2.1v-1.4h5.6v1.4h-2v7.3h-1.5Zm4.2 0v-8.7h1.4v8.7h-1.4Zm2.2-4.3c0-1 .2-2 .5-2.6a3 3 0 0 1 3-2c1 0 1.8.4 2.4 1.2.7.8 1 1.9 1 3.3 0 1.5-.3 2.6-1 3.4-.7.8-1.4 1.1-2.4 1.1a3 3 0 0 1-2.5-1c-.6-.8-1-2-1-3.4Zm1.5 0c0 1 .2 1.7.6 2.2.3.5.8.7 1.4.7.5 0 1-.2 1.4-.7.3-.5.5-1.3.5-2.3 0-1-.2-1.8-.5-2.3a1.7 1.7 0 0 0-1.4-.7c-.6 0-1 .3-1.4.7-.4.5-.6 1.3-.6 2.3Zm6.3 4.3v-8.7h1.4l2.9 5.8v-5.8h1.3v8.7h-1.4l-2.9-5.7v5.7h-1.3Zm13.3 0h-1.6l-.6-2h-2.8l-.6 2h-1.5l2.7-8.7h1.5l2.9 8.7Zm-2.7-3.5-1-3.2-.9 3.2h2Zm3.2 3.5v-8.7h1.5v7.2h3.5v1.5h-5Zm7.8-2.9 1.4-.1c.1 1 .6 1.6 1.5 1.6.4 0 .8 0 1-.3a1 1 0 0 0 .4-.9l-.1-.5a1 1 0 0 0-.4-.3l-1.3-.5c-.7-.2-1-.3-1.3-.6-.3-.2-.6-.5-.7-.8a2.7 2.7 0 0 1 0-2.4c.3-.4.6-.7 1-.9a3 3 0 0 1 1.3-.3c.9 0 1.5.2 2 .7.4.5.7 1.1.7 2h-1.4c0-.4-.2-.8-.4-1l-1-.2c-.3 0-.6 0-.8.2l-.3.6a.7.7 0 0 0 .3.6c.2.2.6.4 1.3.5.7.2 1.2.5 1.5.7.4.2.6.5.8.9l.2 1.3c0 .8-.2 1.4-.7 2-.4.5-1.1.7-2.1.7-1.8 0-2.7-1-3-3Zm6.7 2.9v-8.7h4c.4.2.7.5 1 1 .3.4.4 1 .4 1.6 0 .7-.1 1.2-.3 1.6a2 2 0 0 1-1 1l-1.8.2h-.9v3.3H144Zm1.4-7.3v2.5h.8l1-.1c.3 0 .5-.2.6-.4a1.5 1.5 0 0 0 0-1.5.9.9 0 0 0-.5-.4h-1.9Zm5 7.3v-8.7h5.2v1.4h-3.8v2h3.5v1.4h-3.5v2.4h4v1.5h-5.4Zm12.7 0h-1.6l-.6-2H158l-.6 2H156l2.7-8.7h1.6l2.8 8.7Zm-2.6-3.5-1-3.2-1 3.2h2Zm3.1 3.5v-8.7h1.5v3.8l2.8-3.8h2L167 165l2.8 5.3H168l-2-4.1-1.1 1.4v2.7h-1.5Zm6.9 0v-8.7h5.3v1.4h-3.9v2h3.6v1.4h-3.6v2.4h4v1.5h-5.4Zm6.4 0v-8.7h3c.8 0 1.3 0 1.6.2.4.1.6.4.9.8.2.4.3.9.3 1.4 0 .7-.2 1.2-.5 1.6-.3.5-.8.7-1.4.8l.8.8.8 1.4.8 1.7h-1.7l-1-2-.8-1.2a1 1 0 0 0-.4-.4h-1v3.6h-1.4Zm1.4-5h1l1.3-.1.4-.4.2-.7c0-.3 0-.5-.2-.7a.9.9 0 0 0-.4-.3h-2.3v2.1Zm5.1 2.1 1.4-.1c.2 1 .7 1.6 1.6 1.6.4 0 .7 0 1-.3a1 1 0 0 0 .3-.9v-.5a1 1 0 0 0-.5-.3l-1.3-.5c-.6-.2-1-.3-1.3-.6l-.7-.8a2.7 2.7 0 0 1 0-2.4c.3-.4.6-.7 1-.9a3 3 0 0 1 1.4-.3c.8 0 1.5.2 2 .7.4.5.6 1.1.7 2h-1.5c0-.4-.2-.8-.4-1l-.9-.2c-.3 0-.6 0-.8.2a.7.7 0 0 0-.4.6.7.7 0 0 0 .3.6c.2.2.6.4 1.3.5l1.6.7c.3.2.6.5.7.9.2.4.3.8.3 1.3 0 .8-.3 1.4-.7 2-.5.5-1.2.7-2.2.7-1.7 0-2.7-1-2.9-3Zm15.3 2.9H197l-.6-2h-2.8l-.6 2h-1.5l2.7-8.7h1.5l2.9 8.7Zm-2.7-3.5-1-3.2-.9 3.2h2Zm2.8.6 1.4-.1c.2 1 .7 1.6 1.6 1.6.4 0 .7 0 1-.3a1 1 0 0 0 .4-.9c0-.1 0-.3-.2-.5a1 1 0 0 0-.4-.3l-1.3-.5c-.6-.2-1-.3-1.3-.6l-.7-.8a2.7 2.7 0 0 1 .1-2.4c.2-.4.5-.7.9-.9a3 3 0 0 1 1.4-.3c.8 0 1.5.2 2 .7.4.5.7 1.1.7 2h-1.4c-.1-.4-.2-.8-.5-1l-.8-.2c-.4 0-.7 0-1 .2l-.3.6a.8.8 0 0 0 .3.6c.2.2.7.4 1.3.5l1.6.7c.3.2.6.5.7.9.2.4.3.8.3 1.3 0 .8-.2 1.4-.7 2-.5.5-1.2.7-2.2.7-1.7 0-2.7-1-2.9-3Zm6.3 0 1.5-.1c.1 1 .7 1.6 1.5 1.6.5 0 .8 0 1-.3a1 1 0 0 0 .4-.9l-.1-.5a1 1 0 0 0-.4-.3l-1.3-.5a4 4 0 0 1-1.3-.6c-.3-.2-.6-.5-.7-.8a2.7 2.7 0 0 1 0-2.4c.3-.4.6-.7 1-.9a3 3 0 0 1 1.3-.3c.9 0 1.5.2 2 .7.5.4.7 1.1.7 2h-1.4c0-.4-.2-.8-.4-1l-.9-.2c-.4 0-.7 0-.9.2a.8.8 0 0 0-.2 1l.2.2c.2.2.6.4 1.3.5l1.6.7c.3.2.5.5.7.9.2.4.2.8.2 1.3 0 .8-.2 1.4-.6 2-.5.5-1.2.7-2.2.7-1.8 0-2.7-1-3-3Zm6.5-1.4c0-1 .2-2 .5-2.6a3 3 0 0 1 3-2c1 0 1.8.4 2.4 1.2.7.8 1 1.9 1 3.3 0 1.5-.4 2.6-1 3.4-.7.8-1.4 1.1-2.4 1.1a3 3 0 0 1-2.5-1c-.6-.8-1-2-1-3.4Zm1.5 0c0 1 .2 1.7.6 2.2.3.5.8.7 1.4.7.5 0 1-.2 1.4-.7.3-.5.5-1.3.5-2.3 0-1-.2-1.8-.5-2.3-.4-.4-.9-.7-1.4-.7-.6 0-1.1.3-1.5.7-.3.5-.5 1.3-.5 2.3Zm10.8 1 1.4.6a4 4 0 0 1-1 2.1c-.6.5-1.2.7-2 .7-.9 0-1.6-.3-2.2-1-.6-.9-1-2-1-3.4s.4-2.7 1-3.5c.6-.7 1.4-1 2.3-1 .8 0 1.5.2 2 .7.4.4.7 1 .9 1.8l-1.4.4a2 2 0 0 0-.6-1.1c-.2-.3-.6-.4-1-.4-.5 0-.9.2-1.2.7-.3.5-.5 1.2-.5 2.3 0 1 .2 1.9.5 2.3a1.5 1.5 0 0 0 1.8.6l.4-.3c.3-.3.5-.8.6-1.4Zm2.3 3.3v-8.7h1.5v8.7H226Zm8.9 0h-1.5l-.6-2h-2.8l-.6 2H228l2.7-8.7h1.5l2.9 8.7Zm-2.6-3.5-1-3.2-.9 3.2h2Zm4.1 3.5V163h-2.2v-1.4h5.7v1.4h-2.1v7.3h-1.4Zm4.1 0v-8.7h1.4v8.7h-1.4Zm2.3-4.3c0-1 .1-2 .4-2.6a3 3 0 0 1 1.2-1.5c.5-.3 1.1-.5 1.8-.5 1 0 1.9.4 2.5 1.2.6.8 1 1.9 1 3.3 0 1.5-.4 2.6-1 3.4a3 3 0 0 1-2.5 1.1 3 3 0 0 1-2.4-1c-.6-.8-1-2-1-3.4Zm1.5 0c0 1 .1 1.7.5 2.2.4.5.9.7 1.4.7.6 0 1-.2 1.4-.7.4-.5.6-1.3.6-2.3 0-1-.2-1.8-.6-2.3-.3-.4-.8-.7-1.4-.7-.5 0-1 .3-1.4.7-.4.5-.5 1.3-.5 2.3Zm6.3 4.3v-8.7h1.3l3 5.8v-5.8h1.3v8.7h-1.5l-2.8-5.7v5.7h-1.3Z"/></g><g fill="#fff" clip-path="url(#b)"><path d="M414.7 98.3h-24.5a38.3 38.3 0 0 0-9.9-10.3l2.1-7-9.2 17.4H347s10.7 4 20.7 10.3l-17.4 32.8 31.3-21c9 12.3 14.2 20.5 14.2 20.5s3.6-14.7 0-30l18.9-12.7ZM380.2 89c2.1 1.2 5.5 9.3 5.5 9.3l-8.7.1 3.2-9.4Zm-32 9.5c3.5 0 23.2 2.2 23.2 2.2l-2.7 5c-2.7-2.9-20.5-7.2-20.5-7.2Zm19 25 4.8-12c4.5 2.5 6 5.1 6 5.1l-10.7 7Zm6.4-16 2.4-6.4 10.6.3c1 1.3 2.5 8.2 2.5 8.2l-7 3.8c-1.2-1.5-8.5-6-8.5-6Zm13 9.6 3.6-2.4.6 7.9c-.4-2.1-4.2-5.5-4.2-5.5Zm6-15.9 8 1-6 4-2-5Zm38.7 6.7h-10.6c1.1-5.5 3.2-9.6 6.1-11.7 3-2 7.2-3.1 13-3.1 5.2 0 9 .6 11.6 1.9 2.5 1.2 4.3 2.8 5.4 4.8 1 2 1.5 5.5 1.5 10.7l-.1 14c0 4 .2 6.9.6 8.7a26 26 0 0 0 2 6h-11.5a48.5 48.5 0 0 1-1.5-4.8 21 21 0 0 1-6.4 4.4c-2.3 1-4.8 1.5-7.3 1.5-4.5 0-8-1.2-10.7-3.8-2.6-2.5-4-5.7-4-9.5 0-2.6.7-4.9 1.9-6.9 1.1-2 2.8-3.5 5-4.6 2.1-1 5.2-2 9.2-2.8 5.5-1 9.3-2 11.4-2.9v-1.2c0-2.3-.6-4-1.7-4.9-1.1-1-3.2-1.5-6.3-1.5-2 0-3.6.5-4.8 1.3a8.7 8.7 0 0 0-2.8 4.4Zm15.6 9.7c-1.5.5-3.9 1.1-7.1 1.8a21 21 0 0 0-6.4 2.1 5 5 0 0 0-2.3 4.2 6.3 6.3 0 0 0 6.5 6.2 10 10 0 0 0 6-2.1 7.4 7.4 0 0 0 2.8-4c.3-1 .5-3 .5-5.8v-2.4Zm17.1 8.8 11.7-1.8a8.8 8.8 0 0 0 3 5.3 10 10 0 0 0 6.4 1.8c3 0 5.3-.6 6.8-1.7a4 4 0 0 0 1.6-3.2 3 3 0 0 0-.9-2.3c-.5-.6-1.8-1-3.9-1.5a61.2 61.2 0 0 1-17.8-5.9 11.7 11.7 0 0 1-5.3-10.1c0-4 1.5-7.3 4.5-10 3-2.6 7.7-4 14-4 6.1 0 10.6 1 13.5 3.1 3 2 5 5 6 9l-11 2a7 7 0 0 0-2.6-4 9.6 9.6 0 0 0-5.6-1.4c-3.1 0-5.3.4-6.6 1.3-.9.6-1.3 1.4-1.3 2.4s.3 1.6 1.1 2.2c1 .8 4.7 2 10.9 3.4a32 32 0 0 1 13 5.3c2.4 2.1 3.7 5 3.7 8.9 0 4.1-1.7 7.7-5 10.6-3.5 3-8.5 4.5-15 4.5a24 24 0 0 1-14.3-3.7 17.4 17.4 0 0 1-6.9-10.2Zm58.4-18.5-10.6-2c1.2-4.3 3.2-7.6 6.1-9.7 3-2 7.3-3.1 13-3.1 5.2 0 9 .6 11.6 1.9 2.5 1.2 4.3 2.8 5.4 4.8 1 2 1.5 5.5 1.5 10.7v14a26.1 26.1 0 0 0 2.7 14.9h-11.7a42.8 42.8 0 0 1-1.5-5c-2 2-4.1 3.4-6.4 4.4a18 18 0 0 1-7.3 1.5c-4.5 0-8-1.2-10.7-3.8a12.7 12.7 0 0 1-3.9-9.5c0-2.6.6-4.9 1.8-6.9 1.2-2 2.8-3.5 5-4.6 2.1-1 5.2-2 9.3-2.8 5.4-1 9.2-2 11.3-2.9v-1.2c0-2.3-.6-4-1.7-4.9-1-1-3.2-1.5-6.2-1.5-2.1 0-3.7.5-4.9 1.3a8.8 8.8 0 0 0-2.8 4.4Zm15.6 9.7c-1.5.5-3.9 1.1-7.1 1.8a21 21 0 0 0-6.4 2.1 5 5 0 0 0-2.2 4.2c0 1.7.6 3.1 1.8 4.4a6.3 6.3 0 0 0 4.6 1.8 10 10 0 0 0 6-2.1 7 7 0 0 0 2.8-4c.3-1 .5-3 .5-5.8v-2.4Zm46.8 7.4 11.6 2a19.6 19.6 0 0 1-7.1 9.9 20.5 20.5 0 0 1-12.1 3.4c-7.7 0-13.3-2.6-17-7.7-3-4.1-4.4-9.3-4.4-15.6 0-7.4 2-13.3 5.8-17.6 3.8-4.2 8.6-6.3 14.4-6.3 6.6 0 11.8 2.2 15.6 6.6 3.8 4.5 5.6 11.3 5.4 20.4h-29.2c0 3.6 1 6.4 2.8 8.3 1.8 2 4 3 6.7 3a7 7 0 0 0 4.6-1.6c1.3-1 2.2-2.6 2.9-4.9Zm.6-12.2c0-3.4-1-6-2.6-7.9a8 8 0 0 0-6-2.7 8 8 0 0 0-6.4 2.9 11.6 11.6 0 0 0-2.4 7.7h17.4ZM436 160.7l6.2-11.1h1.7l1.8 11.1h-1.4l-.6-3.2h-4.4l-1.7 3.2H436Zm4-4.4h3.6l-.5-2.8-.3-2.7-1 2.2-1.8 3.3Zm7 1.7 1.4-.1c0 .4 0 .7.2 1 .1.3.3.5.6.7l1.2.2c.6 0 1-.1 1.3-.3.3-.3.4-.6.4-.9 0-.2 0-.5-.2-.7l-1.4-.8-1.3-.6c-.4-.2-.6-.5-.8-.8l-.2-1c0-.6.2-1.1.7-1.6a3 3 0 0 1 2-.7c1 0 1.8.3 2.4.8.5.4.7 1 .8 1.8h-1.4c0-.4-.1-.8-.5-1a2 2 0 0 0-1.3-.5c-.5 0-.8.1-1 .3-.3.3-.5.5-.5.7 0 .3.1.5.4.7l1.1.6c1 .5 1.7.8 2 1.1.4.4.6 1 .6 1.5 0 .4-.1.8-.4 1.2-.2.4-.6.7-1 1a4 4 0 0 1-1.8.3c-1 0-1.7-.2-2.3-.7-.7-.5-1-1.2-1-2.3Zm7.7 0 1.3-.1c0 .4 0 .7.2 1 .1.3.3.5.6.7l1.2.2c.6 0 1-.1 1.3-.3.3-.3.4-.6.4-.9 0-.2 0-.5-.2-.7l-1.4-.8-1.3-.6c-.4-.2-.6-.5-.8-.8l-.2-1c0-.6.2-1.1.7-1.6a3 3 0 0 1 2-.7c1 0 1.8.3 2.3.8.6.4.8 1 .9 1.8h-1.4c0-.4-.1-.8-.5-1a2 2 0 0 0-1.3-.5c-.5 0-.8.1-1 .3-.3.3-.5.5-.5.7 0 .3.1.5.4.7l1.1.6c1 .5 1.7.8 2 1.1.4.4.6 1 .6 1.5 0 .4-.1.8-.4 1.2-.2.4-.6.7-1 1a4 4 0 0 1-1.8.3c-1 0-1.7-.2-2.3-.7-.7-.5-1-1.2-1-2.3Zm7.7-.4a6 6 0 0 1 1.3-3.9c.8-.8 1.8-1.3 3-1.3 1 0 1.7.3 2.3 1 .5.6.8 1.4.8 2.4s-.1 1.8-.5 2.6a4.1 4.1 0 0 1-3.7 2.5c-.6 0-1.2-.1-1.7-.4-.5-.3-.9-.7-1.1-1.2-.3-.4-.4-1-.4-1.7Zm1.3-.1c0 .8.2 1.3.6 1.7.3.4.8.6 1.3.6a2.2 2.2 0 0 0 1.6-.7l.7-.8.4-1 .2-1.5c0-.7-.2-1.3-.5-1.7-.4-.4-.8-.6-1.4-.6a2 2 0 0 0-1.1.3c-.4.2-.7.5-1 1-.3.3-.5.8-.6 1.3l-.2 1.4Zm12.3.3 1.4.1c-.4 1-.8 1.8-1.5 2.3-.6.4-1.3.7-2 .7-1 0-1.6-.3-2.2-.9-.5-.5-.8-1.3-.8-2.3 0-1 .2-1.8.6-2.6.3-.9.8-1.5 1.4-2 .7-.4 1.4-.7 2.2-.7.8 0 1.5.3 2 .8s.8 1.1.8 2h-1.4c0-.5-.1-.9-.4-1.2-.3-.3-.7-.4-1.1-.4a2 2 0 0 0-1.4.5c-.4.4-.7.9-1 1.6l-.3 2c0 .7.2 1.3.4 1.6.3.3.7.5 1.1.5.5 0 .9-.1 1.3-.5.4-.3.7-.8 1-1.5Zm4.1-6.7.3-1.5h1.4l-.4 1.5h-1.3Zm-2 9.6 1.7-8h1.3l-1.6 8H478Zm8.8-1-1.4 1-1.3.2a2.4 2.4 0 0 1-2.5-2.4 2.4 2.4 0 0 1 1.1-2c.4-.2.8-.4 1.3-.4.3-.1.8-.2 1.7-.2a6 6 0 0 0 1.8-.3l.1-.9a1 1 0 0 0-.3-.8c-.3-.2-.8-.3-1.4-.3-.5 0-1 .1-1.4.4-.3.2-.6.6-.7 1h-1.4c.3-.9.7-1.5 1.3-2 .6-.3 1.4-.6 2.3-.6 1 0 1.7.3 2.3.8.5.3.7.8.7 1.3s0 1-.2 1.5l-.5 2-.2 1.6c0 .3 0 .6.2 1.1H487l-.1-1Zm.5-3h-.6l-1.1.2c-.8 0-1.3.2-1.7.3l-.7.5-.2.8c0 .4.1.7.4 1 .2.2.6.3 1 .3.5 0 1-.1 1.4-.3l1-1c.2-.5.4-1 .5-1.9Zm5.8 2.9-.3 1.1-.9.1c-.5 0-1 0-1.3-.4a1 1 0 0 1-.3-.8l.2-1.2 1-4.7h-1.1l.2-1h1l.5-2 1.5-1-.6 3h1.3l-.2 1h-1.3l-1 4.5-.1 1 .1.3.5.2.8-.1Zm3-8.5.3-1.5h1.3l-.3 1.5h-1.3Zm-2 9.6 1.7-8h1.3l-1.6 8h-1.4Zm3.7-3.1a6 6 0 0 1 1.3-3.9c.8-.8 1.8-1.3 3-1.3 1 0 1.7.3 2.3 1 .6.6.8 1.4.8 2.4s-.1 1.8-.5 2.6a4.2 4.2 0 0 1-3.7 2.5c-.6 0-1.2-.1-1.7-.4-.5-.3-.9-.7-1.1-1.2-.3-.4-.4-1-.4-1.7Zm1.3-.1c0 .8.2 1.3.6 1.7.3.4.8.6 1.3.6a2.2 2.2 0 0 0 1.7-.7l.6-.8.4-1 .2-1.5c0-.7-.2-1.3-.5-1.7-.4-.4-.8-.6-1.4-.6a2 2 0 0 0-1.1.3c-.4.2-.7.5-1 1l-.6 1.3a6 6 0 0 0-.2 1.4Zm6.9 3.2 1.7-8h1.2l-.3 1.3c.5-.5 1-1 1.5-1.2.4-.2.9-.4 1.4-.4a2 2 0 0 1 1.5.6c.3.3.5.8.5 1.4 0 .3 0 .8-.2 1.4l-1 5h-1.3l1-5.2.2-1.1a1 1 0 0 0-.3-.7l-.8-.2c-.7 0-1.3.2-1.8.7a5 5 0 0 0-1.2 2.6l-.8 3.8h-1.3Zm12.8 0 2.3-11.1h1.4l-2 9.8h5.7l-.3 1.3h-7.1ZM533 158l1.3.1a4 4 0 0 1-1.3 1.9 3.5 3.5 0 0 1-4 .5c-.5-.3-.8-.7-1-1.2a4 4 0 0 1-.5-1.8c0-1 .2-1.8.6-2.6.4-.8 1-1.4 1.6-1.8a3 3 0 0 1 2-.7c1 0 1.7.3 2.3 1 .5.5.8 1.4.8 2.4v1.2h-5.9v.4c0 .8.2 1.4.5 1.8.3.4.8.6 1.2.6.5 0 1-.2 1.4-.5a3 3 0 0 0 1-1.3Zm-3.9-2h4.5v-.3c0-.7-.2-1.3-.5-1.6-.4-.4-.8-.6-1.3-.6-.6 0-1.1.2-1.6.6-.5.4-.8 1-1 1.9Zm11.9 3.7-1.3 1-1.4.2c-.7 0-1.3-.2-1.8-.7-.4-.4-.6-1-.6-1.7a2.4 2.4 0 0 1 1-2c.4-.2.8-.4 1.3-.4l1.7-.2a6 6 0 0 0 1.8-.3l.2-.9a1 1 0 0 0-.4-.8c-.3-.2-.7-.3-1.3-.3-.6 0-1 .1-1.4.4-.4.2-.6.6-.8 1h-1.4c.3-.9.8-1.5 1.4-2 .6-.3 1.3-.6 2.2-.6 1 0 1.8.3 2.3.8.5.3.7.8.7 1.3s0 1-.2 1.5l-.4 2c-.2.7-.2 1.2-.2 1.6l.1 1.1h-1.3a5 5 0 0 1-.2-1Zm.5-3h-.6l-1 .2c-.9 0-1.4.2-1.7.3l-.8.5-.2.8c0 .4.1.7.4 1 .3.2.6.3 1.1.3a3 3 0 0 0 1.3-.3l1-1c.2-.5.4-1 .5-1.9Zm8 2.8c-.8 1-1.6 1.4-2.4 1.4-.8 0-1.4-.3-1.9-.9-.5-.5-.7-1.3-.7-2.4 0-1 .2-1.9.5-2.7.4-.8 1-1.4 1.5-1.8.6-.5 1.2-.7 1.8-.7 1 0 1.7.5 2.2 1.5l1-4.3h1.2l-2.2 11.1h-1.3l.3-1.2Zm-3.7-2.2c0 .6 0 1 .2 1.4 0 .3.3.5.5.8.3.2.6.3 1 .3.6 0 1.1-.3 1.6-1 .7-.9 1-2 1-3.2 0-.6-.2-1.1-.5-1.5-.3-.3-.7-.5-1.2-.5-.3 0-.6 0-.9.2-.3.1-.5.4-.8.8-.2.3-.5.7-.6 1.3l-.3 1.4Zm12.6.7 1.3.1a4 4 0 0 1-1.3 1.9 3.5 3.5 0 0 1-4 .5c-.5-.3-.9-.7-1.1-1.2a4 4 0 0 1-.4-1.8 5.5 5.5 0 0 1 2.1-4.4c.7-.5 1.4-.7 2.1-.7 1 0 1.7.3 2.3 1 .5.5.8 1.4.8 2.4l-.1 1.2h-5.8v.4c0 .8.1 1.4.5 1.8.3.4.7.6 1.2.6s1-.2 1.4-.5a3 3 0 0 0 1-1.3Zm-3.9-2h4.4v-.3c0-.7-.1-1.3-.5-1.6-.3-.4-.7-.6-1.3-.6-.5 0-1 .2-1.5.6-.5.4-.9 1-1 1.9Zm6.5 4.7 1.7-8h1.2l-.3 1.6c.4-.6.8-1.1 1.2-1.4a2 2 0 0 1 1.2-.5l1 .3-.6 1.3c-.2-.2-.5-.2-.8-.2-.4 0-1 .2-1.4.8-.5.5-.9 1.5-1.2 2.9l-.6 3.2H561Zm5.3-2.7 1.3-.1c0 .4 0 .7.2 1 .1.3.3.5.6.7l1.2.2c.6 0 1-.1 1.3-.3.3-.3.4-.6.4-.9 0-.2 0-.5-.2-.7l-1.4-.8-1.3-.6c-.4-.2-.6-.5-.8-.8l-.2-1c0-.6.2-1.1.7-1.6a3 3 0 0 1 2-.7c1 0 1.8.3 2.3.8.6.4.8 1 .9 1.8h-1.4c0-.4-.1-.8-.5-1a2 2 0 0 0-1.3-.5c-.5 0-.8.1-1 .3-.3.3-.5.5-.5.7 0 .3.1.5.4.7l1.1.6c1 .5 1.7.8 2 1.1.4.4.6 1 .6 1.5 0 .4-.1.8-.4 1.2-.2.4-.6.7-1 1a4 4 0 0 1-1.8.3c-1 0-1.7-.2-2.3-.7-.7-.5-1-1.2-1-2.3Zm7.4 2.7 2.3-11.1h1.4l-1 4.2a5.6 5.6 0 0 1 2.8-1.4 2 2 0 0 1 1.5.6c.4.3.6.8.6 1.4l-.3 1.5-1 4.8h-1.3l1-4.9.2-1.3c0-.3 0-.5-.2-.7l-.8-.2c-.5 0-1 .1-1.4.4-.4.2-.8.6-1 1a7 7 0 0 0-.7 2.2l-.7 3.5h-1.4Zm10.4-9.6.3-1.5h1.4l-.4 1.5h-1.3Zm-2 9.6 1.7-8h1.3l-1.6 8H582Zm2.9 3.1 2.2-11.2h1.2l-.2 1.2a5 5 0 0 1 1.2-1 2 2 0 0 1 1.2-.4c.7 0 1.4.3 1.9.9.5.5.7 1.3.7 2.4 0 .8-.1 1.6-.4 2.3l-1 1.7-1.2.9c-.4.2-.8.3-1.3.3-.9 0-1.6-.5-2.1-1.5l-1 4.4H585Zm2.6-6.4.1 1.3a1.6 1.6 0 0 0 1.6 1.1c.8 0 1.4-.5 1.9-1.4.4-.9.7-1.8.7-2.7 0-.7-.2-1.2-.5-1.6-.3-.4-.7-.5-1.2-.5-.3 0-.7 0-1 .2l-.8.9a5 5 0 0 0-.6 1.3l-.2 1.4Z"/></g><g fill="#fff" clip-path="url(#c)"><path d="M725.2 132.5a37 37 0 0 1-6.5 1 120.2 120.2 0 0 1-7.8.4c-3.8 0-7.2-.3-10.2-1.1-3-.8-5.4-2-7.4-4a18 18 0 0 1-4.7-7.5 37 37 0 0 1-1.6-11.9v-6c0-4.8.5-8.7 1.6-11.9a17.2 17.2 0 0 1 12.1-11.4 41.4 41.4 0 0 1 13.9-1 118.6 118.6 0 0 1 10.6 1.4v9.4l-2.9-.2-3.3-.2-3.5-.2h-3.4c-1.9 0-3.6.2-5 .6a7.6 7.6 0 0 0-3.7 2.1c-1 1-1.7 2.5-2.2 4.3a28 28 0 0 0-.7 7v6.1c0 3 .2 5.3.7 7.1.5 1.9 1.2 3.3 2.2 4.4 1 1 2.2 1.8 3.6 2.2 1.5.4 3.2.6 5.2.6h3.4l3.4-.2 3.3-.2 3-.2v9.4Zm11.1.2V80.1h36.2v9.7h-22.8v11.4H771v9.2h-21.3v12.8h22.8v9.5h-36.2Zm89.1 0v-28.3l.1-2.1v-2l.2-2.3h-.1l-1.7 3.5-1.7 3.3-6.8 12.3h-7.8l-6.7-12.3-1.7-3.3a102 102 0 0 1-1.7-3.5h-.1v2.2l.1 2v30.5h-12.8V80.1h13l10.4 18.7a55.2 55.2 0 0 1 3.2 6.5h.2l1.7-3.4c.5-1.1 1-2.2 1.7-3.2l10.3-18.6h13.1v52.6h-12.9Zm59.6 0-3.8-13.2h-15l-4 13.2h-13.6l14.8-52.6H884l14.9 52.6h-14ZM875.6 96a87.2 87.2 0 0 1-1.7-8h-.5a252.2 252.2 0 0 1-1.6 8l-3.8 14h11.4l-3.8-14Zm-176 57-2 .2a5 5 0 0 1-1.1-.1l-1-.3-.7-.7a3 3 0 0 1-.5-1l-.2-1.6V148c0-.7.1-1.3.3-1.9.1-.4.4-.8.7-1.1a3 3 0 0 1 1.1-.6l1.4-.1c.7 0 1.3 0 2 .2v.8h-2c-.8 0-1.4.1-1.8.5-.4.5-.6 1.2-.6 2.2v1.4c0 1 .2 1.7.6 2.1.4.4 1 .7 1.8.7l2-.1v.8Zm8.8-3.6c0 1.2-.3 2.2-.9 2.8a3 3 0 0 1-2.4 1 3 3 0 0 1-2.5-1c-.6-.6-.9-1.6-.9-2.8v-1.2c0-1.2.3-2.2.9-2.8.6-.7 1.4-1 2.5-1 1 0 1.9.3 2.4 1 .6.6.9 1.6.9 2.8v1.2Zm-1 0v-1.2c0-2-.8-2.9-2.3-2.9-1.5 0-2.3 1-2.3 2.9v1.2c0 2 .8 2.9 2.3 2.9 1.5 0 2.2-1 2.2-3Zm10 3.6H716l-2-3.3h-1.8v3.3h-1.1v-8.5h3.2l1 .3c.2 0 .5.2.7.5l.5.7.2 1.1c0 1.2-.5 2-1.6 2.4l2.2 3.5Zm-1.7-5.9c0-.7-.2-1.1-.6-1.3-.3-.2-1-.3-1.9-.3h-1v3.3h1c1 0 1.6-.1 2-.4.3-.2.5-.6.5-1.3Zm9.6.1c0 .4 0 .8-.2 1.2l-.6.8-1 .4a9 9 0 0 1-1.3.1h-1.4v3.3h-1v-8.5h3.3l.8.2.5.3.5.5c.2.2.3.5.3.7l.1 1Zm-1 0a2.4 2.4 0 0 0-.3-1.1l-.3-.3-.4-.2a2 2 0 0 0-.5-.1h-2v3.3h2.1l.6-.2.4-.3.3-.5v-.6Zm9.9 2.2c0 1.2-.3 2.2-.9 2.8-.5.7-1.4 1-2.4 1-1.1 0-2-.3-2.5-1-.6-.6-.9-1.6-.9-2.8v-1.2c0-1.2.3-2.2.9-2.8.6-.7 1.4-1 2.5-1 1 0 1.9.3 2.4 1 .6.6.9 1.6.9 2.8v1.2Zm-1 0v-1.2c0-2-.8-2.9-2.3-2.9-1.5 0-2.3 1-2.3 2.9v1.2c0 2 .8 2.9 2.3 2.9 1.5 0 2.2-1 2.2-3Zm9.9 3.6H742l-2-3.3h-2v3.3h-1v-8.5h3.2l1 .3a2 2 0 0 1 1.2 1.2l.2 1.1c0 1.2-.5 2-1.6 2.4l2.1 3.5Zm-1.6-5.9c0-.7-.2-1.1-.6-1.3-.4-.2-1-.3-1.9-.3h-1v3.3h1c1 0 1.5-.1 2-.4.3-.2.5-.6.5-1.3ZM752 153h-1.2l-1-2.7h-3l-1 2.7h-1l2.8-8.5h1.5l2.8 8.5Zm-2.4-3.7-.8-2.5-.4-1.4h-.1c0 .5-.2 1-.4 1.4l-.8 2.5h2.5Zm10.4-3.8h-2.6v7.5h-1v-7.5h-2.7v-1h6.4v1Zm7.7 7.5h-5.1v-8.5h5v1h-4v2.6h3.8v1h-3.8v3h4v1Zm11.3 0h-5.2v-8.5h5.1v1h-4v2.6h3.8v1h-3.8v3h4v1Zm9.2-8.5-2.9 8.5H784l-2.8-8.5h1.1l2 6.3.4 1.4.4-1.4 2-6.3h1.2Zm7.6 8.5h-5.1v-8.5h5v1h-4v2.6h3.8v1h-3.8v3h4v1Zm9 0h-1.6l-3-6a21 21 0 0 1-.7-1.5v7.5h-1v-8.5h1.6l3 6 .7 1.4v-7.4h1v8.5Zm8.8-7.5H811v7.5h-1.1v-7.5h-2.7v-1h6.4v1ZM702 168.8h-1.1v-7.1l-.6 1.3-1.4 3h-1.4l-1.4-3-.6-1.3v7.1h-1v-8.5h1.4l1.8 3.9.5 1.1.5-1.2 1.8-3.8h1.4v8.5Zm9.5 0h-1.2l-.8-2.7h-3.1l-1 2.7h-1l2.8-8.5h1.5l2.8 8.5Zm-2.4-3.7-.8-2.5-.3-1.4h-.2c0 .5-.2 1-.3 1.4l-.8 2.5h2.4Zm10.9 3.7h-1.2l-2-3.3H715v3.3h-1v-8.5h3l1 .3.8.4.5.8c.2.4.2.7.2 1.1 0 1.2-.5 2-1.6 2.4l2.2 3.5Zm-1.6-5.9c0-.7-.2-1.1-.5-1.3a4 4 0 0 0-2-.4h-1v3.4h1c1 0 1.6-.1 2-.4.4-.2.5-.6.5-1.3Zm10.2 5.9h-1.4l-3.6-4v4h-1.1v-8.5h1v4l3.8-4h1.3l-3.9 4.2 4 4.3Zm7.4 0h-5v-8.5h5v1h-4v2.6h3.8v1H732v3h4v1Zm8.6-7.6h-2.7v7.6h-1v-7.6h-2.7v-.9h6.4v1Zm3.5 7.6h-1v-8.5h1v8.5Zm9.4 0h-1.6l-3-6-.7-1.5v7.5h-1v-8.5h1.6l3 6 .7 1.4v-7.4h1v8.5Zm8.7 0-2.5.2c-2.3 0-3.5-1.2-3.5-3.7v-1.5c0-2.4 1.2-3.6 3.5-3.6.8 0 1.7 0 2.5.2v.8a25.4 25.4 0 0 0-3.4 0 2 2 0 0 0-.8.4l-.5.8-.2 1.4v1.5c0 1 .2 1.8.6 2.2.4.4 1 .5 1.9.5h1.3v-3.6h1.1v4.4Zm12.7 0h-1.2l-.9-2.7h-3l-1 2.7h-1l2.8-8.5h1.4l2.9 8.5Zm-2.4-3.7-.8-2.5-.3-1.4h-.2c0 .5-.2 1-.3 1.4l-.8 2.5h2.4Zm10 1.6c0 .7-.3 1.3-.8 1.7-.4.4-1.1.6-2 .6-1 0-2 0-2.6-.2v-.9l2.5.2c.6 0 1-.1 1.3-.4.3-.2.5-.5.5-1l-.3-.9-1-.6-1.4-.7c-.6-.2-1-.5-1.3-.9a2 2 0 0 1-.5-1.4c0-1.3 1-2 2.9-2 .8 0 1.6 0 2.3.2v.8l-2.3-.1c-.6 0-1 0-1.3.2-.3.2-.5.5-.5 1l.3.8c.1.2.4.4.9.6l1.5.6c.6.3 1 .6 1.3 1 .3.4.5.9.5 1.4Zm7.9 0c0 .7-.3 1.3-.7 1.7-.5.4-1.2.6-2.2.6-.9 0-1.8 0-2.4-.2v-.9l2.4.2c.6 0 1-.1 1.4-.4.3-.2.4-.5.4-1 0-.3 0-.6-.3-.9-.1-.2-.4-.4-.9-.6l-1.4-.7c-.6-.2-1-.5-1.4-.9a2 2 0 0 1-.4-1.4c0-1.3 1-2 2.8-2 .8 0 1.6 0 2.4.2v.8l-2.4-.1c-.6 0-1 0-1.3.2-.3.2-.4.5-.4 1 0 .2 0 .5.2.8l1 .6 1.4.6c.5.2 1 .5 1.4 1 .3.4.4.9.4 1.4Zm9.1-1.5c0 1.2-.3 2.2-.9 2.8a3 3 0 0 1-2.4 1c-1.1 0-2-.3-2.5-1-.6-.7-.9-1.6-.9-2.8V164c0-1.2.3-2.2.9-2.8.5-.7 1.4-1 2.5-1 1 0 1.8.3 2.4 1 .6.6.9 1.6.9 2.8v1.2Zm-1.1 0V164c0-2-.8-2.9-2.2-2.9-1.5 0-2.3 1-2.3 2.9v1.2c0 1.9.7 2.9 2.3 2.9 1.5 0 2.2-1 2.2-2.9Zm9 3.6a12 12 0 0 1-3.1.1c-.4 0-.7-.2-1-.3l-.8-.7-.4-1-.2-1.6v-1.4c0-.7 0-1.3.3-1.9a2.6 2.6 0 0 1 1.8-1.7l1.4-.1c.6 0 1.3 0 2 .2v.8h-2c-.9 0-1.5.1-1.8.5-.4.4-.6 1.2-.6 2.2v1.4c0 1 .2 1.7.6 2.1.3.4 1 .6 1.8.6h2v.8Zm3.6 0h-1.1v-8.5h1v8.5Zm9.5 0h-1.2l-.9-2.7h-3l-1 2.7h-1l2.8-8.5h1.4l2.9 8.5Zm-2.4-3.7-.8-2.5-.3-1.4h-.2c0 .5-.2 1-.3 1.4l-.8 2.5h2.4Zm10.5-3.9H830v7.6h-1v-7.6h-2.7v-.9h6.3v1Zm3.6 7.6h-1v-8.5h1v8.5Zm9.4-3.6c0 1.2-.3 2.2-.8 2.8-.6.7-1.4 1-2.5 1-1 0-1.9-.3-2.5-1-.5-.7-.8-1.6-.8-2.8V164c0-1.2.3-2.2.8-2.8.6-.7 1.4-1 2.5-1 1 0 1.9.3 2.5 1 .5.6.8 1.6.8 2.8v1.2Zm-1 0V164c0-2-.8-2.9-2.3-2.9-1.5 0-2.3 1-2.3 2.9v1.2c0 1.9.8 2.9 2.3 2.9 1.5 0 2.2-1 2.2-2.9Zm10 3.6h-1.5l-3-6-.7-1.5v7.5h-1v-8.5h1.5l3 6 .7 1.4v-7.4h1v8.5Z"/></g><g fill="#fff" clip-path="url(#d)"><path d="M1108 74h-94c-13.8 0-25 11-25 24.4V174s3.8-12.1 25-11.9h94c13.8 0 25-11 25-24.4V98.4a24.8 24.8 0 0 0-25-24.4Zm-78.5 28.6h-22.3V115h19.3v4.8h-19.3V138h-5.4V97.9h27.7v4.7Zm12.2 35.4h-5.4V97.9h5.4v40Zm37-2.8c-3 2.3-6.6 3.5-10.9 3.5-4.2 0-8-1-10.7-2.7a16.4 16.4 0 0 1-6.3-7.6 27 27 0 0 1 .2-21.7c1.7-3.1 4-5.5 7-7 3-1.7 6.3-2.5 10-2.5 4 0 7.5 1 10.3 3 2.8 2 4.7 5 5.8 8.7l-5.3 1.2c-1-3-2.4-5-4.2-6.4-1.8-1.3-4-2-6.8-2-3.1 0-5.8.8-7.9 2.3a11.7 11.7 0 0 0-4.4 6 24.1 24.1 0 0 0 .2 16.6 11 11 0 0 0 4.7 5.6c2.1 1.3 4.5 2 7 2 3 0 5.6-1 7.7-2.6a13 13 0 0 0 4.3-7.7l5.4 1.4a18 18 0 0 1-6.1 10Zm39.6-17c-2.2 2.3-6.2 3.5-12 3.5h-10.5V138h-5.5V97.9h15.5c2.7 0 4.8.1 6.3.4 2 .3 3.7 1 5 1.8a10 10 0 0 1 3.3 4 11 11 0 0 1 1.2 5.4c0 3.4-1 6.3-3.3 8.6Z"/><path d="M1111.3 103c-.9-.3-2.6-.4-5-.4h-10.5V117h10.6c3.5 0 6-.7 7.4-2 1.5-1.2 2.3-3 2.3-5.4 0-1.6-.5-3-1.4-4.3-.8-1.1-2-2-3.4-2.3Z"/></g><g fill="#fff" clip-path="url(#e)"><path d="M193.6 253h-52.8v59.6h52.8V253Z" opacity=".1"/><path d="m157.3 289 3.3-9.8 14-41h-34.1l14 41.8 2.8 9Z"/><path d="M178.3 297.8v-51.2l-17.8 51.2h-7.3l-17.6-52v52h-2 46.8-2.1Zm10-59.6V298h59.9v-59.7h-60Zm42.2 54.6c-4.3 3.3-9.6 5-15 4.9-6.2 0-11.2-1.3-15-3.8-4-2.6-7.1-6.4-8.9-10.9a39.5 39.5 0 0 1 .4-31c2.1-4.3 5.5-7.8 9.7-10 4.3-2.4 9-3.6 14-3.5a24 24 0 0 1 14.3 4.4c4 3 7 7.4 8.1 12.3l-7.4 1.7a17 17 0 0 0-5.7-9c-2.8-2-6.2-3-9.6-3-3.9 0-7.8 1-11 3.2-3 2.1-5.1 5.1-6.2 8.6a35 35 0 0 0 .3 23.7c1.2 3.3 3.5 6.2 6.6 8.1 3 1.8 6.3 2.7 9.7 2.7a16 16 0 0 0 10.8-3.6c3-2.5 5-6.1 6-11l7.6 2a26 26 0 0 1-8.7 14.2Zm-117.8-21.3-6.6-17.7a183 183 0 0 1-4.6-13.3c-.8 4.2-2 8.3-3.5 12.2l-7 18.8h21.7Zm13.2 10.3v-43.6H108l17.8 43.6Z"/><path d="m122.8 297.8-7.5-19.4H88.6l-7 19.4h-9l22.8-59.6H66.3V298h59.6v-.1h-3Zm-56.8 7v33h182.7v-33H66Zm13 25.4h-3.6v-18h3.7v18Zm22.5 0H98l-7.3-11.7v11.7h-3.3v-18h3.5l7.3 12v-12h3.4v18ZM123 328a5 5 0 0 1-2.4 2 9 9 0 0 1-4 .6c-1.8.1-3.7-.4-5.2-1.6a6.8 6.8 0 0 1-2.2-4.5l3.6-.3c.1 1 .6 1.9 1.3 2.6a5 5 0 0 0 5.2 0 2.2 2.2 0 0 0 1-1.7 1.4 1.4 0 0 0-.4-1c-.4-.4-.8-.7-1.3-.8l-3-.8a12 12 0 0 1-4-1.8 4.5 4.5 0 0 1-1.7-3.6 4.8 4.8 0 0 1 3-4.5 10 10 0 0 1 3.6-.6c1.8-.1 3.6.4 5 1.5a5.3 5.3 0 0 1 1.9 4h-3.7a2.5 2.5 0 0 0-1-1.9c-.6-.5-1.4-.7-2.2-.6-1 0-1.8.1-2.6.6a1.4 1.4 0 0 0-.5 1.1 1.2 1.2 0 0 0 .5 1c.5.5 1.6.9 3.4 1.3 1.3.3 2.6.7 3.9 1.3a5 5 0 0 1 2 1.8c.5 1 .7 2 .7 3s-.3 2-.9 2.9Zm21.7-12.6h-5.4v15h-3.6v-15h-5.4v-3h14.4v3Zm10.5 15h-3.6v-18h3.6v18Zm21.1-15H171v15h-3.6v-15H162v-3h14.2v3Zm21.4 6.4c0 1.5 0 3-.2 4.5-.2.9-.6 1.6-1.2 2.3-.5.7-1.2 1.2-2 1.5-1.2.4-2.4.6-3.5.5-1.3 0-2.7-.1-3.9-.5a5 5 0 0 1-3.1-3.6c-.3-1.5-.4-3-.4-4.5v-9.6h3.6v9.7c0 1 0 2 .2 3a3 3 0 0 0 1.1 1.8 4 4 0 0 0 2.4.7c.8 0 1.6-.2 2.3-.7.5-.4.8-1 1-1.5v-13h3.7v9.4Zm21.6-6.4H214v15h-3.7v-15H205v-3h14.3v3Zm20.7 15h-13.7v-18h13.3v3h-9.7v4h9v3h-9v4.9h10v3Z"/></g><g clip-path="url(#f)"><path fill="#fff" d="M369.3 333.7s-6.8 12.9-18.6 12.1c-11.8-.8-26.4-8.8-28.8-17 0 0-4.3 11 7 17.3 11.2 6.4 22.2 6 28.9 2.1 6.6-3.8 13.7-10 15.3-17.9 0 0 .3-3 .1-4.4l-2.9 6.4-1 1.4Zm19.9-83.2v2.3a38 38 0 0 1-62.4 28.9 37.9 37.9 0 0 0 66.3-31.2"/><path fill="#fff" d="M365.5 284.3c3.2 0 5.8-2.8 5.8-6.3s-2.6-6.3-5.8-6.3c-3.3 0-5.9 2.8-5.9 6.3s2.6 6.3 5.9 6.3Zm24.3-59.3 2.4 7.7 8 .2-6.6 4.6 2.3 7.8-6.4-5-6.7 4.7 2.7-7.7-6.4-4.8 8 .1 2.7-7.6Z"/><path fill="#BABABA" d="M338.1 305.8s.1 7.5 15.5 10.6c15.4 3 18 14 15.7 17.3 0 0 6.5-4 2.6-12.4-4-8.4-19.2-4.8-24.9-13.5 0 0-2.1-2.6-2.3-4.2 0-1.7-6.6 2.2-6.6 2.2Z"/><path fill="#FDFDFD" d="M338.1 305.8s8.2-4 20.2-3.4c12 .6 22-7.3 27-12.2 5-5 7.9-14.1 7.9-14.1s-10.6 19.4-26.5 21.1c-16 1.8-18.7-.3-28.6 8.6Z"/><path fill="#fff" fill-rule="evenodd" d="M306.3 296h31v2.2h-28.8v38.2h29v2.2h-31.2v-42.5Z" clip-rule="evenodd"/><path fill="#fff" fill-rule="evenodd" d="M307.4 315.2h27.5v2.2h-27.5v-2.2Zm72.3-19h24.7v1-1h.5a10.3 10.3 0 0 1 4.5 1.7c2.6 1.6 5 4.8 5 10.6 0 2.9-.7 5.2-1.8 6.9a9.1 9.1 0 0 1-4 3.6 13 13 0 0 1-5.4 1.5h-.1v-1 1h-21.2V339h-2.2v-42.8Zm2.2 22.1h21.5a10.5 10.5 0 0 0 4.3-1.2 8 8 0 0 0 3-2.9 9.7 9.7 0 0 0 1.5-5.7c0-5.1-2-7.6-4-8.8a8.7 8.7 0 0 0-3.8-1.3h-22.5v20Zm48.9-24.7 19.6 45-2 .9-17.7-40.6-18.8 39.6-2-.9 20.9-44Z" clip-rule="evenodd"/><path fill="#fff" fill-rule="evenodd" d="M442 324.4h-23.7v-2.1h23.8v2.1Z" clip-rule="evenodd"/><path fill="#fff" d="M455.4 308.4v-7.1h5.2v.8h-4.2v2.2h4v.8h-4v2.4h4.4v.9h-5.4Zm7.8 0-2-5.2h1l1 3.1.4 1 .3-1 1.2-3h.9l-2 5h-.8Zm6.8-1.7 1 .1c-.1.5-.4 1-.8 1.3-.4.3-1 .4-1.5.4-.7 0-1.3-.2-1.8-.7-.4-.4-.6-1.1-.6-2 0-.8.2-1.5.6-2 .5-.5 1-.7 1.8-.7a2.2 2.2 0 0 1 1.7.7c.4.5.6 1.1.6 2v.2h-3.8c0 .6.2 1 .4 1.3a1.4 1.4 0 0 0 1.1.5c.3 0 .6 0 .8-.3.3-.2.5-.5.6-.8Zm-2.8-1.4h2.9c0-.4-.2-.8-.3-1a1.5 1.5 0 0 0-1.6-.4c-.2 0-.4.2-.5.3-.3.3-.5.7-.5 1.1Zm4.7 3.1v-5.2h.8v.8a2 2 0 0 1 1.6-.9c.3 0 .6 0 .9.2.2 0 .4.2.6.4l.2.7c0 .2.1.5 0 .8v3.2h-.8v-3.9l-.5-.5-.6-.1c-.3 0-.7 0-1 .3-.2.3-.3.7-.3 1.4v2.8h-.9Zm7.2-.8.2.8a3 3 0 0 1-.7 0l-.7-.1a.9.9 0 0 1-.4-.4l-.1-1v-3h-.6v-.7h.6V302l.9-.6v1.8h.8v.7h-.8v3.5l.2.2h.6Zm-24 8.9.9-.1.3.9.7.5c.4.2.7.2 1.1.2l1-.1.6-.5a1 1 0 0 0 0-1.2l-.7-.4-1.2-.3a6 6 0 0 1-1.4-.5 2 2 0 0 1-.8-.6l-.2-1c0-.3 0-.6.3-1 .2-.3.5-.5.9-.7l1.3-.2c.5 0 1 0 1.4.3a2 2 0 0 1 1.3 1.8l-1 .1c0-.4-.1-.8-.4-1a2 2 0 0 0-1.3-.4c-.5 0-1 .1-1.2.4a1 1 0 0 0-.3 1c0 .2 0 .3.2.3.1.2.6.4 1.4.5l1.6.5c.3.2.7.4.9.7a2 2 0 0 1 0 2.1c-.3.4-.6.6-1 .8a3 3 0 0 1-1.3.3c-.6 0-1.2-.1-1.7-.3-.4-.2-.7-.5-1-.9-.3-.3-.4-.8-.4-1.2Zm10.2.6 1 .1c-.2.5-.5 1-.9 1.2-.4.3-1 .5-1.5.5-.7 0-1.3-.3-1.8-.7a3 3 0 0 1-.6-2c0-.8.2-1.5.6-2 .5-.5 1-.7 1.8-.7a2.2 2.2 0 0 1 1.7.7 2.8 2.8 0 0 1 .6 2.2h-3.8c0 .6.2 1 .5 1.3a1.4 1.4 0 0 0 1 .5l.9-.3.5-.8Zm-2.9-1.4h3c-.1-.5-.2-.8-.4-1a1.4 1.4 0 0 0-1-.5 1.5 1.5 0 0 0-1.1.4c-.3.3-.5.7-.5 1Zm4.7 3.1v-5.2h.8v.8l.5-.8.6-.1c.3 0 .6 0 1 .3l-.4.8c-.2-.2-.4-.2-.6-.2-.2 0-.4 0-.6.2l-.3.4-.1 1v2.8h-.9Z"/><path fill="#fff" d="m471.7 318.8-2-5.2h1l1 3 .4 1.1.3-1 1.1-3.1h1l-2 5.2h-.8Zm3.3-6.2v-1h.9v1h-.9Zm0 6.2v-5.2h.9v5.2h-.9Zm5.4-1.9h.9c-.1.7-.4 1.1-.8 1.5-.4.3-.9.5-1.4.5-.7 0-1.3-.3-1.7-.7a3 3 0 0 1-.6-2c0-.5 0-1 .2-1.5.2-.4.5-.7.9-1l1.2-.2c.6 0 1 .1 1.4.4.4.3.6.7.7 1.2l-.9.1c0-.3-.2-.5-.4-.7a1 1 0 0 0-.7-.3 1.4 1.4 0 0 0-1.1.5c-.3.3-.4.8-.4 1.5s.1 1.2.4 1.5a1.3 1.3 0 0 0 1 .5c.3 0 .6-.2.9-.4.2-.2.3-.5.4-1Zm4.9.2 1 .1c-.2.5-.4 1-.8 1.2-.4.3-1 .5-1.5.5-.6 0-1.4-.3-1.8-.7-.5-.5-.7-1.1-.7-2 0-.8.2-1.5.7-2 .4-.5 1-.7 1.7-.7a2.2 2.2 0 0 1 1.7.7c.5.5.7 1.1.7 2v.2h-3.9c0 .6.2 1 .5 1.3a1.4 1.4 0 0 0 1 .5c.4 0 .7-.1 1-.3l.4-.8Zm-2.8-1.4h2.9c0-.5-.2-.8-.4-1a1.4 1.4 0 0 0-1-.5 1.4 1.4 0 0 0-1 .4c-.4.3-.5.6-.5 1Zm-27.1 13.4V322h3.8l.9.4.6.7.2 1c0 .5-.2 1-.6 1.5-.4.4-1 .6-2 .6h-2v3h-.9Zm1-3.7h1.8c.6 0 1-.1 1.3-.4.3-.2.4-.5.4-1 0-.2 0-.5-.2-.7a1 1 0 0 0-.6-.4 4 4 0 0 0-.9 0h-1.8v2.5Zm5.4 3.7V324h.7v.7l.6-.7.6-.2.9.3-.3.8-.7-.2-.5.2a1 1 0 0 0-.3.5l-.2 1v2.7h-.8Zm2.8-2.6c0-1 .2-1.6.8-2a2 2 0 0 1 1.6-.7c.7 0 1.3.3 1.7.7.5.5.7 1.1.7 2a3 3 0 0 1-.3 1.5c-.2.4-.5.7-.9 1l-1.2.2c-.7 0-1.3-.2-1.8-.7-.4-.4-.6-1.1-.6-2Zm.9 0c0 .7.1 1.2.4 1.5a1.4 1.4 0 0 0 1 .5 1.3 1.3 0 0 0 1.2-.5c.3-.3.4-.8.4-1.5s-.1-1.1-.4-1.4a1.4 1.4 0 0 0-1.1-.5 1.4 1.4 0 0 0-1.1.5c-.3.3-.4.8-.4 1.4Zm4.9 2.6v-4.5h-.7v-.6h.7v-.6l.1-.8.5-.5c.2-.2.5-.2.9-.2h.8l-.1.8a3 3 0 0 0-.6 0l-.5.1-.2.7v.5h1v.6h-1v4.5h-.9Zm5.9-1.6h1c-.2.6-.5 1-.9 1.3-.3.3-.8.4-1.4.4-.6 0-1.4-.2-1.8-.7-.5-.4-.7-1-.7-2 0-.8.2-1.5.7-2 .4-.4 1-.7 1.7-.7a2.2 2.2 0 0 1 1.7.7 2.8 2.8 0 0 1 .7 2.3h-3.9c0 .5.2 1 .5 1.3a1.4 1.4 0 0 0 1 .4c.4 0 .7 0 .9-.2l.5-.8Zm-2.8-1.5h2.8c0-.4-.1-.7-.3-1a1.4 1.4 0 0 0-1-.4 1.4 1.4 0 0 0-1 .4c-.4.3-.5.6-.5 1Zm4.3 1.6.9-.2c0 .3.1.6.4.8.2.2.5.3.9.3s.7 0 .9-.2l.2-.3v-.3a.5.5 0 0 0-.2-.5l-.9-.3c-.4 0-.9-.2-1.3-.4l-.6-.5-.2-.7c0-.2 0-.4.2-.6l.4-.5.6-.3h.7l1.1.1.7.5.3.8-.9.1a.9.9 0 0 0-.3-.6c-.2-.2-.5-.2-.8-.2-.4 0-.7 0-.9.2l-.1.2-.1.2v.3l.4.3.8.2 1.3.4c.2 0 .4.2.6.4l.2.8c0 .3-.1.6-.3.8-.2.3-.4.5-.7.6-.4.2-.7.2-1.1.2-.7 0-1.2-.1-1.5-.4a2 2 0 0 1-.7-1.2Zm4.8 0 .8-.2a1.2 1.2 0 0 0 .4.8c.3.2.6.3 1 .3s.7 0 .9-.2l.2-.3v-.3a.5.5 0 0 0-.2-.5l-.9-.3c-.4 0-.9-.2-1.3-.4a1 1 0 0 1-.6-.5l-.2-.7c0-.2 0-.4.2-.6 0-.2.2-.4.4-.5l.6-.3h.7l1 .1c.4.1.6.3.8.5l.3.8-.9.1a1 1 0 0 0-.3-.6c-.2-.2-.5-.2-.8-.2-.4 0-.7 0-.9.2l-.2.2v.5l.4.3.8.2 1.3.4c.2 0 .4.2.6.4l.2.8c0 .3-.1.6-.3.8-.2.3-.4.5-.7.6-.4.2-.7.2-1.1.2-.7 0-1.2-.1-1.6-.4a2 2 0 0 1-.6-1.2Zm5.1-4.6v-1h.9v1h-.9Zm0 6.1V324h.9v5.1h-.9Zm1.7-2.6c0-1 .3-1.6.8-2a2 2 0 0 1 1.6-.7c.7 0 1.3.3 1.8.7.4.5.6 1.1.6 2a3 3 0 0 1-.3 1.5l-.8 1-1.3.2c-.7 0-1.3-.2-1.7-.7-.5-.4-.7-1.1-.7-2Zm.9 0c0 .7.1 1.2.4 1.5a1.4 1.4 0 0 0 2.2 0c.3-.3.4-.8.4-1.5s-.1-1.1-.4-1.4a1.4 1.4 0 0 0-1.7-.4c-.2 0-.3.2-.5.4-.3.3-.4.8-.4 1.4Zm4.7 2.6V324h.9v.7c.3-.6.9-.9 1.6-.9.3 0 .6 0 .9.2l.5.4c.2.2.3.5.3.7v4h-.8V326l-.1-.8a1 1 0 0 0-.4-.4c-.2-.2-.4-.2-.6-.2a2 2 0 0 0-1 .3c-.2.3-.4.7-.4 1.4v2.8h-.8Zm8.8-.6-1 .6-1 .1c-.5 0-1-.1-1.2-.4a1.4 1.4 0 0 1-.5-1 1.4 1.4 0 0 1 .6-1.2c.2-.2.4-.3.7-.3l.7-.2c.6 0 1-.1 1.6-.3v-.2c0-.3 0-.6-.2-.7-.2-.2-.6-.3-1-.3-.5 0-.8 0-1 .2l-.4.7h-.8c0-.4.1-.7.3-1l.8-.5 1.2-.2c.4 0 .7 0 1 .2.3 0 .5.2.7.4l.2.6c0 .2.1.5 0 .8v1.2l.1 1.5.3.6h-1l-.1-.6Zm-.1-2-1.4.4-.8.1-.3.3a.8.8 0 0 0 .1 1c.2.2.4.2.8.2.3 0 .6 0 .9-.2l.6-.6.1-.9v-.3Zm2 2.6V322h.9v7.1h-.9Zm1.7-1.5.9-.2a1.2 1.2 0 0 0 .4.8c.2.2.5.3 1 .3.3 0 .6 0 .8-.2l.2-.3.1-.3a.5.5 0 0 0-.3-.5l-.9-.3c-.4 0-.9-.2-1.3-.4l-.6-.5-.1-.7.1-.6.4-.5.6-.3h.8l1 .1.7.5c.2.2.3.5.3.8l-.8.1a1 1 0 0 0-.4-.6c-.2-.2-.4-.2-.8-.2s-.7 0-.8.2c-.1 0-.2 0-.2.2l-.1.2.1.3.3.3.8.2 1.3.4c.2 0 .4.2.6.4l.2.8c0 .3 0 .6-.3.8-.1.3-.4.5-.7.6-.3.2-.7.2-1 .2-.8 0-1.3-.1-1.6-.4a2 2 0 0 1-.7-1.2Zm-52.7 11.9 2.7-7.1h1l3 7h-1.1l-.9-2h-3l-.7 2h-1Zm2-3h2.4l-.7-2-.5-1.4-.4 1.4-.8 2Zm4.7 1.5.9-.2c0 .3.2.6.4.8.2.2.5.3 1 .3.3 0 .6-.1.8-.3a.7.7 0 0 0 .3-.5.5.5 0 0 0-.3-.5l-.8-.3-1.4-.4-.5-.5c-.2-.2-.2-.5-.2-.7l.1-.6.5-.5c.1-.2.3-.2.5-.3l.8-.1c.3 0 .7 0 1 .2.3 0 .5.2.7.5.2.2.3.5.3.8h-.8a.9.9 0 0 0-.4-.6l-.8-.2c-.4 0-.7 0-.8.2a.6.6 0 0 0-.3.5l.1.3.4.2.7.2 1.3.5c.3 0 .5.2.6.4l.2.8c0 .3 0 .5-.2.8-.2.2-.5.5-.8.6l-1 .2c-.7 0-1.3-.1-1.6-.4-.4-.3-.6-.7-.7-1.3Zm4.8 0 .9-.2c0 .3.1.6.4.8.2.2.5.3.9.3s.7-.1.9-.3a.7.7 0 0 0 .3-.5v-.3l-.3-.2-.9-.3-1.3-.4-.6-.5-.2-.7.2-.6.4-.5.6-.3.8-.1c.3 0 .7 0 1 .2.3 0 .5.2.7.5.2.2.3.5.3.8h-.9a1 1 0 0 0-.3-.6l-.8-.2c-.4 0-.7 0-.8.2a.6.6 0 0 0-.3.5l.1.3.3.2.8.2 1.3.5c.2 0 .4.2.6.4l.2.8c0 .3-.1.5-.3.8-.1.3-.4.5-.7.6l-1 .2c-.8 0-1.3-.1-1.6-.4a2 2 0 0 1-.7-1.3Zm4.8-1.1c0-1 .3-1.7.8-2.1.5-.4 1-.6 1.6-.6.7 0 1.3.2 1.8.7.4.5.7 1.1.7 2 0 .7-.1 1.1-.4 1.5-.1.4-.4.7-.8.9-.4.2-.8.3-1.3.3-.7 0-1.3-.2-1.7-.7-.5-.5-.7-1.1-.7-2Zm1 0c0 .7 0 1.2.3 1.5a1.3 1.3 0 0 0 1.1.5 1.4 1.4 0 0 0 1.1-.5c.3-.3.4-.9.4-1.5 0-.7-.1-1.2-.4-1.5a1.4 1.4 0 0 0-1.7-.3c-.2 0-.3.2-.5.3-.2.3-.4.8-.4 1.5Zm8 .7 1 .1c-.2.6-.4 1-.8 1.4-.4.3-1 .5-1.4.5-.8 0-1.3-.2-1.7-.7-.5-.5-.7-1.1-.7-2 0-.5 0-1 .3-1.4.2-.4.5-.8.8-1 .4-.2.8-.3 1.3-.3s1 .1 1.3.4c.4.3.7.8.7 1.2l-.8.2c0-.3-.2-.6-.5-.8a1 1 0 0 0-.7-.3 1.4 1.4 0 0 0-1 .5c-.4.3-.5.8-.5 1.5s.1 1.2.4 1.5a1.3 1.3 0 0 0 1 .5c.4 0 .7-.1 1-.3.1-.3.3-.6.3-1Zm1.5-4.2v-1h.8v1h-.8Zm0 6v-5h.8v5h-.8Zm5.3-.6c-.2.3-.5.5-.9.6l-1 .2a2 2 0 0 1-1.3-.4 1.4 1.4 0 0 1-.4-1 1.4 1.4 0 0 1 .6-1.3l.6-.3.8-.1 1.6-.3v-.2c0-.4-.1-.6-.3-.8-.2-.1-.5-.3-1-.3l-.9.2-.4.8-.9-.1c0-.3.2-.6.4-.9l.8-.5 1.2-.2c.3 0 .7 0 1 .2.3 0 .5.2.6.3l.3.6v2l.1 1.6.2.6h-.9l-.2-.7Zm0-2c-.5.2-1 .4-1.5.4l-.7.2a.7.7 0 0 0-.5.7.8.8 0 0 0 .3.6l.7.2c.4 0 .7 0 1-.2l.5-.6.2-.9v-.3Zm3.9 1.9.1.8a3 3 0 0 1-.6 0l-.7-.1a.9.9 0 0 1-.4-.4l-.1-1v-3h-.7v-.7h.7V333l.8-.5v1.8h1v.7h-1v3.5l.2.2h.7Zm.7-5.3v-1h.9v1h-1Zm0 6v-5h.9v5h-1Zm1.6-2.5c0-1 .3-1.7.9-2.1.4-.4 1-.6 1.6-.6.7 0 1.3.2 1.7.7.5.5.7 1.1.7 2 0 .7 0 1.1-.3 1.5a2 2 0 0 1-.9.9c-.3.2-.8.3-1.2.3-.7 0-1.3-.2-1.8-.7a3 3 0 0 1-.6-2Zm1 0c0 .7.1 1.2.4 1.5a1.3 1.3 0 0 0 1 .5 1.4 1.4 0 0 0 1.2-.5c.3-.3.4-.9.4-1.5 0-.7-.1-1.2-.4-1.5a1.4 1.4 0 0 0-1.7-.3c-.2 0-.4.2-.5.3-.3.3-.4.8-.4 1.5Zm4.7 2.6v-5.2h.8v.8a2 2 0 0 1 1.7-.9c.3 0 .6 0 .8.2.3 0 .5.2.6.4.2.2.2.4.3.7v4h-.8v-3.2l-.1-.8-.4-.4-.6-.1c-.4 0-.7 0-1 .3-.3.3-.4.7-.4 1.4v2.8h-.9Z"/><path fill="#fff" fill-rule="evenodd" d="M511 347.7H303.7v-2.2H511v2.2Z" clip-rule="evenodd"/></g><g fill="#fff" clip-path="url(#g)"><path d="m566.7 283 11.4.3a8.4 8.4 0 0 0 3 5 10 10 0 0 0 6.3 1.8c3 0 5.1-.5 6.6-1.6 1-.8 1.5-1.8 1.5-3a3 3 0 0 0-.8-2.2c-.5-.6-1.8-1-3.8-1.5a60 60 0 0 1-17.5-5.6 11.1 11.1 0 0 1-5.1-9.7 12 12 0 0 1 4.4-9.4c3-2.5 7.5-3.8 13.7-3.8a24 24 0 0 1 13.2 2.9c2.9 1.9 4.8 4.7 5.9 8.5l-10.8 2c-.4-1.7-1.3-3-2.6-3.9a9.6 9.6 0 0 0-5.5-1.3c-3 0-5.1.4-6.4 1.2-.9.6-1.3 1.4-1.3 2.4 0 .8.4 1.5 1.1 2 1 .8 4.6 1.9 10.7 3.2 6 1.4 10.3 3.1 12.7 5.1 2.4 2 3.6 4.9 3.6 8.5 0 4-1.7 7.3-5 10.2-3.3 2.8-8.2 4.2-14.6 4.2a24 24 0 0 1-14-3.5 14 14 0 0 1-6.7-11.9Zm48.6 14.4v-43.1h11.4v43h-11.4Zm41.2-43.1v9h-7.8v17.4c0 3.6 0 5.6.2 6.2.2.6.5 1 1 1.4.6.4 1.2.6 2 .6 1 0 2.6-.4 4.6-1.1l1 8.8a23 23 0 0 1-9 1.7c-2.1 0-4-.3-5.6-1a8.3 8.3 0 0 1-3.7-2.7c-.7-1-1.3-2.5-1.6-4.4a54 54 0 0 1-.3-8v-18.8H632v-9.1h5.3v-16.8h11.4v16.8h7.8Zm31.2 29.4h11.4a18 18 0 0 1-7 11.4c-3.1 2.2-7 3.2-11.8 3.2-7.5 0-13-2.4-16.6-7.3-2.9-4-4.3-8.9-4.3-14.9 0-7.1 1.9-12.7 5.6-16.7 3.8-4 8.5-6.1 14.2-6.1 6.4 0 11.5 2.1 15.2 6.3 3.7 4.3 5.5 10.8 5.3 19.5H671c0 3.4 1 6 2.8 8 1.7 1.8 4 2.7 6.5 2.7a7 7 0 0 0 4.5-1.4 9 9 0 0 0 2.8-4.7Zm.7-11.6a11 11 0 0 0-2.6-7.5 7.8 7.8 0 0 0-6-2.6c-2.2 0-4.5 1-6.1 2.7a10.5 10.5 0 0 0-2.4 7.4h17Zm-67.9-21.5a6.6 6.6 0 1 0 0-13.1 6.6 6.6 0 0 0 0 13.1ZM585 315c0 .4 0 .8.3 1 .3.6 1 1 1.9 1a2 2 0 0 0 1-.3c.7-.2 1-.6 1-1.2s0-.8-.4-1a4 4 0 0 0-1.3-.5l-1-.3a5 5 0 0 1-1.6-.5c-.5-.4-.7-.9-.7-1.6a2.4 2.4 0 0 1 .7-1.8 3 3 0 0 1 2.2-.7c.9 0 1.5.2 2.1.6.6.4 1 1.1 1 2H589c0-.4-.1-.8-.3-1-.3-.4-.9-.6-1.7-.6-.6 0-1 .1-1.4.4a1.4 1.4 0 0 0-.4 1c0 .4.2.7.5.8l1.5.5 1.1.3c.6 0 1 .3 1.3.5.5.4.8 1 .8 1.7 0 1-.4 1.6-1 2-.7.4-1.5.6-2.3.6-1 0-1.8-.3-2.4-.8-.5-.6-.8-1.3-.8-2.2h1Zm11-2.8c.5.5.8 1.2.8 2.2a4 4 0 0 1-.7 2.5c-.5.6-1.2 1-2.2 1-.9 0-1.5-.4-2-1-.5-.5-.7-1.2-.7-2.2 0-1 .2-1.8.7-2.4.6-.6 1.2-1 2.1-1a2.7 2.7 0 0 1 2 .9Zm-.7 4c.3-.6.4-1.1.4-1.7 0-.6 0-1-.3-1.4-.2-.6-.7-.8-1.4-.8s-1 .2-1.4.7c-.2.5-.4 1-.4 1.7s.1 1.2.4 1.6c.3.4.8.6 1.4.6.6 0 1-.2 1.3-.7Zm6.5-4.3c.4.3.7.9.8 1.7h-1c0-.4-.2-.7-.4-1-.2-.2-.6-.3-1-.3-.7 0-1.2.3-1.5 1l-.2 1.5c0 .6.1 1 .4 1.5.2.4.6.6 1.2.6a1.4 1.4 0 0 0 1-.4l.5-1h1c-.1.8-.4 1.4-.9 1.7-.4.4-1 .6-1.7.6s-1.4-.3-1.9-.9c-.5-.6-.7-1.3-.7-2.2 0-1 .2-1.9.8-2.4a2.5 2.5 0 0 1 2-1c.6 0 1.2.2 1.6.6Zm1.6-2.6h1v1.1h-1v-1.1Zm0 2.3h1v6h-1v-6Zm6.1.1a2.3 2.3 0 0 1 1.3 1.9v1.3h-4.3c0 .6.1 1.1.4 1.5.3.4.7.5 1.2.5a1.6 1.6 0 0 0 1.3-.5l.4-.7h1c0 .3-.1.5-.3.8l-.5.6c-.3.3-.7.5-1.1.6l-.8.1a2.5 2.5 0 0 1-2-.8c-.5-.5-.7-1.3-.7-2.3 0-1 .2-1.8.8-2.4.5-.6 1.2-.9 2-.9.4 0 .9.1 1.3.3Zm.3 2.4c0-.4 0-.7-.3-1-.2-.6-.7-.8-1.4-.8a1.5 1.5 0 0 0-1.1.5c-.3.4-.5.8-.5 1.3h3.3Zm2.3-4.3h1v1.7h1v.9h-1v4l.3.4h.7v.8h-.3l-.4.1c-.5 0-.8-.1-1-.4-.2-.2-.3-.6-.3-1v-4h-.8v-.8h.8v-1.7Zm6.6 1.7h1.1a152.3 152.3 0 0 0-1.8 5.3c-.6 1.5-1 2.5-1.3 2.8-.2.3-.7.5-1.2.5h-.7v-1h.4l.2.1h.5c0-.2.1-.2.2-.3l.2-.5.2-.6-2.2-6.3h1.1l1.7 5 1.6-5Zm5.3-1.8c.2-.4.7-.5 1.3-.5h.5v.9h-.4c-.3 0-.5 0-.6.2v1.3h1v.8h-1v5.2h-1v-5.2h-.9v-.8h.8v-1c0-.4.1-.7.3-1Zm6.9 2.5c.5.5.8 1.2.8 2.2a4 4 0 0 1-.7 2.5c-.5.6-1.2 1-2.2 1-.9 0-1.5-.4-2-1-.5-.5-.7-1.2-.7-2.2 0-1 .2-1.8.7-2.4.5-.6 1.2-1 2.1-1a2.7 2.7 0 0 1 2 .9Zm-.7 4c.3-.6.4-1.1.4-1.7 0-.6 0-1-.3-1.4-.2-.6-.7-.8-1.4-.8s-1 .2-1.4.7a3 3 0 0 0-.4 1.7c0 .6.1 1.1.4 1.6.3.4.8.6 1.4.6.6 0 1-.2 1.3-.7Zm2.5-4.7h1v1.1c0-.2.3-.5.6-.8.3-.2.6-.4 1-.4h.4v1.1h-.4c-.5 0-.9.1-1.1.5-.3.3-.5.7-.5 1.1v3.5h-1v-6Zm7-2.2h1.1v8.3h-1v-8.3Zm2.6 2.2h1v.9c.2-.3.5-.6.9-.8l1-.2c1 0 1.5.3 1.8 1 .2.2.3.7.3 1.3v4h-1v-4l-.3-.8c-.1-.4-.5-.6-1-.6l-.5.1c-.3 0-.6.3-.8.5l-.3.6v4.1h-1v-6Zm10.2.4c.5.3.7.9.8 1.7h-1a2 2 0 0 0-.4-1c-.2-.2-.6-.3-1-.3-.7 0-1.2.3-1.4 1-.2.4-.3 1-.3 1.5 0 .6.1 1 .4 1.5.3.4.6.6 1.2.6.5 0 .8-.1 1-.4.3-.3.4-.6.5-1h1c-.1.8-.4 1.4-.8 1.7-.5.4-1 .6-1.8.6-.7 0-1.4-.3-1.9-.9-.5-.6-.7-1.3-.7-2.2 0-1 .3-1.9.8-2.4a2.5 2.5 0 0 1 2-1c.6 0 1.2.2 1.6.6Zm5.3-.2 1 .8.4 1v1.4h-4.4c0 .6.2 1.1.5 1.5.2.4.7.5 1.2.5.6 0 1-.1 1.3-.5l.4-.7h1c0 .3-.2.5-.3.8l-.5.6c-.3.3-.7.5-1.1.6l-.9.1a2.5 2.5 0 0 1-1.9-.8c-.5-.5-.7-1.3-.7-2.3 0-1 .2-1.8.7-2.4.6-.6 1.3-.9 2.1-.9.4 0 .9.1 1.2.3Zm.4 2.4c0-.4-.1-.7-.3-1-.3-.6-.7-.8-1.4-.8a1.5 1.5 0 0 0-1.1.5 2 2 0 0 0-.5 1.3h3.3Zm2.1-2.6h1v.9c.2-.3.5-.6.9-.8l1-.2c1 0 1.5.3 1.8 1 .2.2.3.7.3 1.3v4h-1v-4l-.2-.8c-.2-.4-.6-.6-1-.6l-.6.1c-.3 0-.6.3-.8.5l-.3.6v4.1h-1v-6Zm6.4-1.7h1v1.7h1v.9h-1v4l.3.4h.7v.8h-.3l-.4.1c-.5 0-.8-.1-1-.4-.2-.2-.3-.6-.3-1v-4h-.8v-.8h.8v-1.7Zm2.8-.5h1v1.1h-1v-1.1Zm0 2.3h1v6h-1v-6Zm2.9-.1 1.6 5 1.7-5h1.1l-2.3 6.1h-1l-2.3-6h1.2Zm8.8.2c.4.2.7.5.9.8.2.3.4.7.4 1l.1 1.4h-4.4c0 .6.2 1.1.4 1.5.3.4.7.5 1.3.5a1.6 1.6 0 0 0 1.2-.5l.4-.7h1l-.2.8-.5.6-1.2.6-.8.1a2.5 2.5 0 0 1-2-.8c-.4-.5-.7-1.3-.7-2.3 0-1 .3-1.8.8-2.4.5-.6 1.2-.9 2-.9.5 0 .9.1 1.3.3Zm.4 2.4c0-.4-.2-.7-.3-1-.3-.6-.8-.8-1.4-.8a1.5 1.5 0 0 0-1.2.5 2 2 0 0 0-.5 1.3h3.4Zm-85.1 10.5v1h-2.8v7.3h-1.2v-7.3h-2.8v-1h6.8Zm.2 2.3h1v1c0-.2.3-.5.6-.7a1.5 1.5 0 0 1 1-.5h.4v1.1h-.4c-.5 0-.9.2-1.1.5-.3.3-.5.7-.5 1.1v3.5h-1v-6Zm6.9 2.4c.2 0 .4-.2.5-.3v-.4c0-.4-.1-.6-.4-.8a2 2 0 0 0-1-.2c-.5 0-1 .1-1.1.4-.3.3-.2.4-.3.7h-1c0-.7.3-1.3.8-1.6a3 3 0 0 1 1.6-.4c.7 0 1.3.1 1.7.4.5.3.7.7.7 1.3v3.7l.4.1h.3v.8h-.7c-.4 0-.6 0-.8-.3l-.2-.6c-.2.3-.5.6-.8.7a3 3 0 0 1-1.3.3 2 2 0 0 1-1.4-.5 1.7 1.7 0 0 1-.6-1.3c0-.5.2-1 .6-1.3a2 2 0 0 1 1.4-.5l1.6-.2Zm-2.2 2.7c.3.2.5.3.8.3.4 0 .7-.1 1-.3.6-.3.9-.7.9-1.3v-.9l-.5.2-.6.1-.6.1c-.3 0-.6.1-.8.3a1 1 0 0 0-.5.8.8.8 0 0 0 .3.7Zm5.6-5.1 1.7 4.9 1.7-5h1l-2.2 6.1H608l-2.2-6h1.2Zm8.9.1a2.3 2.3 0 0 1 1.3 1.9v1.3H613c0 .6.1 1.1.4 1.5.3.4.7.6 1.3.6a1.6 1.6 0 0 0 1.2-.6l.4-.7h1c0 .3-.1.5-.3.8 0 .2-.3.4-.5.6-.3.3-.7.6-1.1.6l-.8.1a2.5 2.5 0 0 1-2-.8c-.5-.5-.7-1.3-.7-2.3 0-1 .2-1.8.8-2.4.5-.6 1.2-.9 2-.9.5 0 .9.1 1.3.3Zm.3 2.4c0-.4 0-.7-.3-1-.2-.5-.7-.8-1.3-.8a1.5 1.5 0 0 0-1.2.5 2 2 0 0 0-.5 1.3h3.3Zm2.2-4.8h1v8.3h-1v-8.3Zm5.6 0h6v1h-5v2.5h4.6v1H625v2.8h5v1h-6v-8.3Zm6.6 2.3h1.3l1.4 2 1.4-2h1.3l-2 3 2 3h-1.2l-1.5-2.3-1.5 2.3h-1.3l2.1-3-2-3Zm10.2.3c.4.3.6.9.7 1.7h-1c0-.3-.1-.7-.4-1-.2-.2-.5-.3-1-.3-.7 0-1.1.3-1.4 1-.2.4-.3.9-.3 1.5s.2 1 .4 1.5c.3.4.7.6 1.2.6.6 0 .8-.1 1-.4.3-.2.4-.6.5-1h1c0 .8-.4 1.4-.8 1.7-.5.4-1 .6-1.8.6a2.3 2.3 0 0 1-1.9-.9c-.4-.5-.7-1.3-.7-2.1 0-1.1.3-2 .8-2.5a2.5 2.5 0 0 1 2-1c.7 0 1.2.2 1.7.6Zm5.2-.2a2.3 2.3 0 0 1 1.4 1.9v1.3h-4.3c0 .6.1 1.1.4 1.5.3.4.7.6 1.3.6a1.6 1.6 0 0 0 1.2-.6l.4-.7h1c0 .3-.1.5-.3.8l-.5.6c-.3.3-.7.6-1.1.6l-.8.1a2.5 2.5 0 0 1-2-.8c-.5-.5-.7-1.3-.7-2.3 0-1 .2-1.8.8-2.4.5-.6 1.2-.9 2-.9.5 0 .9.1 1.3.3Zm.4 2.4c0-.4 0-.7-.3-1-.2-.5-.7-.8-1.3-.8a1.5 1.5 0 0 0-1.2.5 2 2 0 0 0-.5 1.3h3.3Zm2.2-4.8h1v8.3h-1v-8.3Zm2.4 0h1v8.3h-1v-8.3Zm6 2.4a2.3 2.3 0 0 1 1.3 1.9v1.3H654c0 .6.1 1.1.4 1.5.3.4.7.6 1.3.6a1.6 1.6 0 0 0 1.6-1.3h1c0 .3-.1.5-.3.8 0 .2-.3.4-.5.6-.3.3-.7.6-1 .6a3.2 3.2 0 0 1-2 0l-.8-.7c-.5-.5-.8-1.3-.8-2.3 0-1 .3-1.8.8-2.4.5-.6 1.2-.9 2-.9.5 0 .9.1 1.3.3Zm.3 2.4c0-.4 0-.7-.2-1-.3-.5-.8-.8-1.4-.8a1.5 1.5 0 0 0-1.2.5 2 2 0 0 0-.5 1.3h3.3Zm2.1-2.5h1v.8l1-.8 1-.2c.9 0 1.4.3 1.8 1l.2 1.3v4h-1v-4c0-.2 0-.5-.2-.8-.2-.4-.5-.6-1-.6l-.6.1a1.6 1.6 0 0 0-1 1.1l-.1 1v3.1h-1v-6Zm10.3.3c.4.3.7.9.8 1.7h-1c0-.4-.2-.7-.5-1-.2-.2-.5-.3-1-.3-.6 0-1.1.3-1.4 1-.2.4-.3.9-.3 1.5s.2 1 .4 1.5c.3.4.7.6 1.2.6a1.3 1.3 0 0 0 1-.4c.3-.3.5-.6.6-1h1c-.2.8-.4 1.4-.9 1.7-.5.4-1 .6-1.7.6s-1.5-.3-2-.9c-.4-.5-.6-1.3-.6-2.1 0-1.1.2-2 .7-2.5a2.5 2.5 0 0 1 2-1c.7 0 1.2.2 1.7.6Zm5.3-.2c.4.2.7.5.9.8.2.3.4.7.4 1l.1 1.4H672c0 .6.2 1.1.4 1.5.3.4.7.6 1.3.6a1.6 1.6 0 0 0 1.6-1.3h1c0 .3-.1.5-.3.8 0 .2-.2.4-.4.6-.4.3-.8.6-1.2.6a3.2 3.2 0 0 1-1.9 0l-.8-.7c-.5-.5-.8-1.3-.8-2.3 0-1 .3-1.8.8-2.4.5-.6 1.2-.9 2-.9.5 0 .9.1 1.3.3Zm.4 2.4c0-.4-.2-.7-.3-1-.3-.5-.8-.8-1.4-.8a1.5 1.5 0 0 0-1.2.5c-.3.4-.5.8-.5 1.3h3.4Z"/></g><g clip-path="url(#h)"><path fill="#fff" d="m780.4 270.9 4.6 2.3 77-.1 4.1-2.2h-85.7Z"/><path fill="#fff" d="M785 273.2v1.1h76.4v-1.2H785Zm0 1.1v1.9h76.3v-1.9H785Z"/><path fill="#fff" d="m785 276.2 3.1 2.1.3 14.4h2l.2-14.6-2.7-2h-3Zm12.5 0 3.2 2.1.2 14.4h2l.3-14.6-2.7-2h-3Zm13.2 0 3.1 2.1.3 14.4h2l.3-14.6-2.8-2h-2.9Zm12.9 0 3.2 2.1.2 14.4h2l.3-14.6-2.7-2h-3Zm13.9 0 3.1 2.1.2 14.4h2l.3-14.6-2.7-2h-3Zm12.1 0 3.2 2.1.2 14.4h2l.3-14.6-2.7-2h-3Zm31.2 3.8h-21.1v1.7h21v-1.8Zm-7.9 4h-13.2v1.2h13.2V284Z"/><path fill="#fff" d="M788.3 277h-21.1v1.8h21V277Zm0 3.3H775v1.2h13.2v-1.2Z"/><path fill="#CCC" d="M780 313.4v-7.3s-6.9-2.2-11.4 3.2l11.3 4.1Z"/><path fill="#E5E5E5" d="M754.7 307s11.7-6.5 14-6.6v8.9l11.2 4.1s-16.3 3-24.6 9.3c0 0 4.5-8.3 8.7-12.5 0 0-4.7-2.8-9.3-3.2Z"/><path fill="#fff" d="M768.6 300.4V293s17.4-5.7 40-4.2c22.6 1.6 42.5 3.2 53 1a97 97 0 0 0 15-3.7v16s-14.5 5.3-31.5 4.8-45.3-3.5-60.8-1.4c-15.4 2.1-15.7 3.8-15.7 3.8v-9Z"/><path fill="#CCC" d="M876.5 286s-9.5 3-10.9 3v-7s8 3.8 11 4Z"/><path fill="#E5E5E5" d="M890.7 272.3s-17 9.7-25.1 9.7c0 0 7.9 4 11 4v9s11.6-4.3 14-6.4c0 0-6.2-1.6-9.2-3.3 0 0 8.4-9.7 9.3-13Z"/><path fill="#fff" d="M779.8 277.4h-3.4V243l3.4-2.3v36.7Zm5.4.2h-3.4V241l3.4-2.3v38.9Zm5.3-2.3H787v-36.6l3.4-2.2v38.8Zm5.3-5.6h-3.4v-33.2l3.4-2.3v35.5Zm52.1 5.7h-3.4L844 247l3.4-2.3.5 30.7Zm5.1.6h-3.4v-31l3.4-2.3V276Zm5.3.1h-3.4v-33.4l3.4-2.2V276Zm5.3-4.1h-3.4v-31.5l3.4-2.3V272Zm5.5 2.6h-3.4V238l3.4-2.3v38.9ZM807.2 260h-3.4v-36.6l3.4-2.2V260Zm5.4-2.6h-3.4v-36.6l3.4-2.3v38.9Zm5.4-2.6h-3.4v-36.6l3.4-2.3v38.9Zm5.4-2.7H820v-36.6l3.4-2.2V252Zm5.4-2.6h-3.4v-36.6l3.4-2.3v38.9Zm5.4-2.6h-3.4v-36.6l3.4-2.3v38.9Z"/><path fill="#A650FF" d="m821.2 222.5-2.6 11.1-4 1v5.4s-16.9 3.4-22.3 29h-12v1.9h85.9v-2h-14.4s-5.6-20.8-24.4-29l-.9-5.5-3.4-1.8-2-10.1Z"/><path fill="#fff" d="M792.3 269h2.5c27.2-23.8 55-2 55-2-26.7-22.3-53.2-3.7-53.2-3.7a34.5 34.5 0 0 1 19.5-22.6l.1-5.1 3.4-1.3 1.6-11.8-2.6 11.1-4 1v5.4s-19.5 4.7-22.3 29Zm6.7 55h-1.7v-6.7c-.6.6-1.4 1-2.3 1.3V317a5 5 0 0 0 1.6-.8c.5-.4.8-1 1-1.5h1.5v9.2Zm2.5-2.2 1.7-.2c0 .3.2.6.3.8a1 1 0 0 0 .7.2 1.1 1.1 0 0 0 1-.5c.2-.3.4-1 .5-2a2 2 0 0 1-1.7.7 2.4 2.4 0 0 1-1.9-.8 3 3 0 0 1-.8-2.2c0-.9.3-1.6.9-2.2.5-.6 1.2-.9 2-.9a2.9 2.9 0 0 1 2.4 1c.6.8.9 2 .9 3.6 0 1.7-.3 3-1 3.7a3 3 0 0 1-2.4 1c-.7 0-1.3-.1-1.7-.5-.5-.3-.8-1-.9-1.7Zm4-3.8c0-.6-.1-1-.4-1.4a1.2 1.2 0 0 0-.9-.4 1 1 0 0 0-.8.3c-.2.3-.3.7-.3 1.3 0 .6 0 1 .3 1.3a1.1 1.1 0 0 0 1.8 0c.2-.2.3-.6.3-1.1Zm4.4 1c-.4-.2-.8-.5-1-.8a2.2 2.2 0 0 1 .4-2.8c.5-.5 1.2-.7 2-.7 1 0 1.6.2 2 .7a2.2 2.2 0 0 1 .8 1.7c0 .4-.1.8-.3 1.1a2 2 0 0 1-1 .8c.5.2 1 .5 1.2.9.3.4.4.8.4 1.3 0 .9-.3 1.6-.8 2.1a3 3 0 0 1-2.2.8c-.9 0-1.5-.2-2-.7-.6-.4-1-1.2-1-2 0-.6 0-1 .3-1.5a4 4 0 0 1 1.2-1Zm.2 2.1c0 .5.1.9.4 1.2a1.2 1.2 0 0 0 .9.4 1.2 1.2 0 0 0 .9-.4c.2-.3.4-.7.4-1.1 0-.4-.2-.8-.4-1a1.2 1.2 0 0 0-1-.5 1.1 1.1 0 0 0-.9.5c-.2.2-.3.6-.3 1Zm.1-3.9a1 1 0 0 0 .3.8 1 1 0 0 0 .8.3 1.1 1.1 0 0 0 .9-.3 1.2 1.2 0 0 0 0-1.6 1.2 1.2 0 0 0-1.7 0 1 1 0 0 0-.3.8Zm9.6 6.8H818v-6.7a6 6 0 0 1-2.3 1.3V317c.6-.2 1-.5 1.5-.8.5-.4 1-1 1.2-1.5h1.4v9.2Zm2.5-2.5v-1.8h3.5v1.8h-3.5Zm9.9.8v1.6H826c0-.6.2-1.2.6-1.7.3-.6 1-1.3 2-2.2a14 14 0 0 0 1.4-1.5c.2-.4.4-.7.4-1.1a1.2 1.2 0 0 0-.3-1 1.2 1.2 0 0 0-1-.2c-.2 0-.6 0-.8.3-.2.2-.3.6-.4 1.1l-1.7-.2c0-1 .4-1.6 1-2 .5-.5 1.2-.7 2-.7.9 0 1.6.3 2.2.7a2.4 2.4 0 0 1 .8 1.9l-.3 1.2-.7 1.1-1.1 1.2a18.9 18.9 0 0 0-1.5 1.5h3.6Zm3.8-7.6c1 0 1.7.3 2.2 1 .5.6.9 2 .9 3.7 0 1.7-.3 3-1 3.8-.5.7-1.1.9-2 .9a2.7 2.7 0 0 1-2.2-1c-.6-.7-.8-2-.8-3.7 0-1.8.3-3 .9-3.8.6-.7 1.2-.9 2-.9Zm0 1.5c-.1 0-.3 0-.5.2l-.4.7a10 10 0 0 0-.2 2.3c0 1 0 1.8.2 2.2.1.4.2.7.4.8.2.2.4.2.6.2.2 0 .4 0 .5-.2.2-.1.3-.4.4-.7l.2-2.3-.1-2.2c-.1-.4-.3-.7-.5-.8a.8.8 0 0 0-.5-.2Zm10 6.1v1.6h-6.2c0-.6.2-1.2.6-1.7.3-.6 1-1.3 2-2.2l1.4-1.5c.2-.4.4-.7.4-1.1a2 2 0 0 0-.3-1 1.4 1.4 0 0 0-1.8.1c-.2.2-.4.6-.4 1.1l-1.7-.2c0-1 .4-1.6 1-2 .5-.5 1.2-.7 2-.7s1.7.3 2.2.7a2.4 2.4 0 0 1 .7 1.9c0 .4 0 .8-.2 1.2l-.7 1.1-1.1 1.2a15 15 0 0 0-1.5 1.5h3.5Zm5.4 1.7h-1.8v-6.7c-.6.6-1.4 1-2.2 1.3V317c.4-.1.9-.4 1.5-.8.5-.4.8-1 1-1.5h1.5v9.2Z"/><path fill="#000" d="m783.7 298.3.8.2a2 2 0 0 1-.5 1c-.3.4-.7.5-1.1.5a1.8 1.8 0 0 1-1.5-.5c-.4-.3-.6-.9-.7-1.5 0-.7.1-1.3.5-1.7a1.9 1.9 0 0 1 1.4-.7c.5 0 1 0 1.3.3l.5.8-.8.3c0-.2-.2-.4-.4-.5a1 1 0 0 0-1.4.3l-.2 1c0 .5.2 1 .4 1.2a1 1 0 0 0 .8.3l.6-.3c.2-.2.3-.4.3-.7Zm3.3.4h.8c0 .3-.2.6-.4.8l-.9.3c-.5 0-1-.1-1.2-.5-.2-.3-.4-.7-.4-1 0-.6.1-1 .4-1.3a1.3 1.3 0 0 1 1-.5 1.4 1.4 0 0 1 1 .4c.4.3.5.8.5 1.4l-2 .1a.8.8 0 0 0 .2.6.6.6 0 0 0 .5.1h.3l.2-.4Zm0-.9c0-.2 0-.4-.2-.5a.6.6 0 0 0-.5-.2.6.6 0 0 0-.4.3c-.1.1-.2.3-.1.5h1.2Zm1.5 1.8-.3-4.3h.9l.2 4.2h-.8Zm3.3-1.2.8.1c0 .3-.2.6-.5.7-.2.2-.5.3-.8.3-.6 0-1-.1-1.2-.5-.3-.3-.4-.6-.4-1 0-.5 0-1 .3-1.3a1.3 1.3 0 0 1 1-.4 1.4 1.4 0 0 1 1.2.4c.3.3.4.7.4 1.4h-2c0 .3 0 .5.2.6a.6.6 0 0 0 .8 0l.2-.3Zm0-.8-.2-.5a.6.6 0 0 0-.5-.2.6.6 0 0 0-.4.2l-.2.5h1.3Zm1.4 1.8-.2-4.3h.9v1.5a1.2 1.2 0 0 1 1-.5 1.2 1.2 0 0 1 .9.4c.2.2.4.6.4 1.1 0 .6-.1 1-.3 1.3a1.2 1.2 0 0 1-2 0v.4h-.7Zm.8-1.7.1.7a.7.7 0 0 0 .6.3.6.6 0 0 0 .5-.2l.1-.8c0-.3 0-.6-.2-.7a.6.6 0 0 0-1 0 1 1 0 0 0-.1.7Zm3.6 1.5h-.9v-3l.7-.1v.4l.4-.4.3-.1.6.1-.3.8a.7.7 0 0 0-.4-.2l-.3.1-.1.4v2Zm2-2.2-.8-.1c0-.3.2-.6.4-.7.2-.2.5-.2 1-.3.2 0 .5 0 .8.2l.4.3v1.7l.1.6.2.4h-.8l-.1-.2v-.1l-.5.3-.5.1a1 1 0 0 1-.8-.2.9.9 0 0 1-.2-.7v-.5l.4-.3.7-.2.8-.2a.4.4 0 0 0-.2-.4l-.4-.1h-.4l-.1.4Zm1 .6-.4.2-.5.1a.3.3 0 0 0-.1.3v.2l.1.1a.4.4 0 0 0 .4.1l.4-.1.2-.3v-.6Zm3-1.6v.6h-.6v1.3l.1.4v.1a.2.2 0 0 0 .2 0h.3l.1.6c-.2.1-.4.2-.6.1h-.4a.7.7 0 0 1-.3-.2 1 1 0 0 1-.1-.3v-2h-.5v-.6h.4v-.7l.8-.4v1h.6Zm.4-.5v-.7h.9v.7h-.8Zm.1 3.6V296h.8v3h-.8Zm4.4-.1h-.8v-1.5l-.1-.7s0-.2-.2-.2l-.2-.1-.4.1-.3.3v2.1h-.9v-3h.8v.4a1.3 1.3 0 0 1 1-.5h.5l.4.3.2.4v2.5Zm.6.3h1v.4c.2 0 .3.1.4 0h.5l.2-.2v-.8a1.1 1.1 0 0 1-1.5.3l-.4-.4a2 2 0 0 1-.3-1c0-.6.1-1 .4-1.2a1.2 1.2 0 0 1 1-.4 1.1 1.1 0 0 1 .9.5v-.5h.8v2.8l-.1.9-.3.4-.4.2-.7.1c-.6 0-1 0-1.1-.3a.8.8 0 0 1-.4-.6v-.1Zm.8-1.9c0 .4 0 .6.2.8a.6.6 0 0 0 .4.2.7.7 0 0 0 .5-.2c.2-.2.3-.4.3-.7 0-.4 0-.6-.2-.8a.6.6 0 0 0-.5-.2.6.6 0 0 0-.5.2c-.2.2-.2.4-.2.7Zm5.8 1.7v-.8H814v-.8l2-2.7h.6v2.8h.5v.7h-.5v.8h-.9Zm0-1.6.1-1.4-1 1.4h1Zm3.2-2.6c.4 0 .7.2 1 .5.2.3.3 1 .3 1.8s-.2 1.3-.5 1.7a1.2 1.2 0 0 1-1 .4 1.2 1.2 0 0 1-1-.5c-.2-.4-.3-1-.3-1.8s.2-1.3.5-1.7a1.2 1.2 0 0 1 1-.4Zm0 .7h-.3l-.2.4-.1 1v1.1l.2.4.3.1h.2l.2-.4.1-1V296c0-.2 0-.3-.2-.4l-.2-.1Zm4.4 3.8.1-1.8-1.4-2.6h1l.9 1.8 1-1.6h1l-1.6 2.5-.1 1.8h-.9Zm4.3-.7.8.2-.5.6c-.3.2-.6.2-.9.2-.5 0-1-.2-1.2-.6-.2-.3-.3-.7-.2-1.1 0-.5.2-1 .5-1.2a1.3 1.3 0 0 1 1-.4 1.4 1.4 0 0 1 1 .6c.3.3.4.8.4 1.4l-2-.1v.5a.6.6 0 0 0 .5.3l.4-.1.2-.3Zm.1-.9c0-.2 0-.4-.2-.5l-.1-.2a.6.6 0 0 0-.7.1c-.2.2-.2.4-.2.6h1.2Zm2-.2-.7-.2c0-.2.2-.4.4-.6l1-.2.8.2c.1.1.3.2.3.4l.1.7v2h-.8v-.3l-.5.2h-.5a1 1 0 0 1-.8-.2.9.9 0 0 1-.2-.7.9.9 0 0 1 .5-.8l.7-.1.8-.2v-.2l-.1-.2a.8.8 0 0 0-.5-.1h-.3l-.2.3Zm1 .8h-.5l-.4.2a.4.4 0 0 0-.2.3l.1.3.3.1.5-.1.2-.3v-.5Zm2.3 1.6h-.9l.2-3.2h.8v.5l.3-.4h.4l.5.1-.3.7a.7.7 0 0 0-.4-.1h-.3l-.2.4v1l-.1 1Zm1.1-.8.9-.1c0 .1 0 .2.2.3l.4.2.5-.1v-.1l.1-.1a.2.2 0 0 0 0-.2l-.3-.1-1.3-.5a.8.8 0 0 1-.3-.7.9.9 0 0 1 .4-.6c.2-.2.5-.3 1-.3.4 0 .7.1.9.3.2.1.4.4.4.6l-.8.1s0-.2-.2-.3a.6.6 0 0 0-.4 0 1 1 0 0 0-.4 0 .2.2 0 0 0-.1.1v.2l.8.3c.5 0 .8.2 1 .4a.8.8 0 0 1 .1.6 1 1 0 0 1-.3.7 2 2 0 0 1-1.1.3c-.5 0-.8-.1-1-.3-.3-.2-.4-.5-.5-.7Zm6 1.1.1-3.6H839v-.8l3.5.1v.8H841l-.1 3.5h-.9Zm1.9-1.6.3-.8c.1-.2.3-.4.6-.5a1.8 1.8 0 0 1 1.4-.1c.2 0 .4.2.6.4a1.6 1.6 0 0 1 .4 1.1 1.6 1.6 0 0 1-1 1.5l-.6.1c-.3 0-.6 0-.8-.2a1 1 0 0 1-.6-.5 2 2 0 0 1-.2-1Zm1 0c-.1.3 0 .6.1.8a.7.7 0 0 0 .6.3.7.7 0 0 0 .5-.3c.2-.2.3-.4.3-.7a1 1 0 0 0-.3-.7.7.7 0 0 0-.5-.3.7.7 0 0 0-.5.3 1 1 0 0 0-.3.7Zm2.7 1.9 1 .1v.2l.4.1h.5l.2-.3v-.8a1 1 0 0 1-.9.5 1.2 1.2 0 0 1-1-.5 2 2 0 0 1-.3-1c0-.6.1-1 .4-1.3a1.2 1.2 0 0 1 1-.4 1.1 1.1 0 0 1 .9.5v-.4h.8v2.8l-.1.8c0 .2-.2.3-.3.4a1 1 0 0 1-.4.3h-.7c-.6 0-1 0-1.1-.2a.8.8 0 0 1-.4-.7v-.1Zm.8-1.8.1.7a.6.6 0 0 0 .5.2.7.7 0 0 0 .5-.2c.2-.2.3-.4.3-.7l-.2-.7-.3-.2a.7.7 0 0 0-.5 0l-.3.2-.1.7Zm4.6.6.9.1-.5.7-.9.3c-.5 0-1-.2-1.2-.6a2 2 0 0 1-.3-1c0-.6.1-1 .4-1.3a1.3 1.3 0 0 1 1-.4 1.4 1.4 0 0 1 1.1.4c.3.3.4.8.4 1.4h-2l.1.6a.6.6 0 0 0 .5.2h.3l.2-.4Zm0-.9a.7.7 0 0 0-.3-.6h-.2a.6.6 0 0 0-.5.1l-.2.6h1.3Zm2.9-1.3v.6h-.6v1.8h.1v.1h.5v.6h-.6c-.1.1-.3 0-.4 0a.5.5 0 0 1-.3-.2v-.3l-.1-.6V298h-.4v-.7h.3v-.6l.8-.5v1h.6Zm1-1.2.1 1.5a1.2 1.2 0 0 1 1.5-.4.8.8 0 0 1 .5.6l.1.7v1.8h-.8v-1.6l-.1-.6c0-.1 0-.2-.2-.3h-.3l-.3.1-.3.3v2.2h-.8l-.1-4.3h.8Zm4.7 3 .8.1c0 .3-.2.6-.4.8l-.9.3c-.5 0-1-.2-1.2-.5-.2-.3-.4-.7-.4-1 0-.6.1-1 .4-1.3a1.4 1.4 0 0 1 1-.5c.4 0 .8 0 1 .4.4.3.5.7.6 1.4l-2.1.1c0 .2 0 .4.2.6a.6.6 0 0 0 .5.1l.3-.1.2-.4Zm0-.8c0-.2 0-.4-.2-.5a.6.6 0 0 0-.9 0l-.1.6h1.2Zm2.3 1.7h-.9l-.2-3 .8-.1v.4l.3-.4.4-.1h.5l-.2.8a.7.7 0 0 0-.4-.1l-.3.1-.1.4v2Z"/><path fill="#fff" d="M787 335.2a13.6 13.6 0 0 0-3.1-4.7 9 9 0 0 0-2.4-1.6c-.9-.4-1.8-.6-2.9-.6a7 7 0 0 0-3.7.9c-1 .5-1.4 1.5-1.4 3 0 .8.2 1.5.6 2.1.4.7 1 1.2 1.7 1.7l2.5 1.3a225.5 225.5 0 0 1 5.7 2.5 9.2 9.2 0 0 1 4.2 4c.5.9.7 2 .7 3.1a6.6 6.6 0 0 1-2.7 5.7 8 8 0 0 1-2.8 1.4 12.8 12.8 0 0 1-5.5.2l-2-.4a222.4 222.4 0 0 0-3.1-.6l-.8.2-.9.3a71.6 71.6 0 0 0-1.8-8.9l.5-.2 1.7 2.9c.7 1 1.5 1.9 2.3 2.7a13 13 0 0 0 2.8 2 7 7 0 0 0 3.3 1c.8 0 1.5-.2 2.3-.3.7-.2 1.3-.5 1.8-.8a4 4 0 0 0 1.3-1.5c.3-.6.5-1.3.5-2.2 0-1.2-.4-2.3-1.1-3-.8-1-1.8-1.7-3-2.3-1-.6-2.3-1.2-3.6-1.7a28 28 0 0 1-3.7-1.8 11 11 0 0 1-2.9-2.3 5 5 0 0 1-1.1-3.4 6.5 6.5 0 0 1 4.5-6.4c.9-.3 1.8-.4 2.8-.4a53.1 53.1 0 0 1 7.2 1.1l2.4.2a152.3 152.3 0 0 0 .3 6.8h-.5Zm29.7 1c-.5-1-1-2-1.7-3-.5-1-1.2-1.8-1.9-2.5a8.8 8.8 0 0 0-2.6-1.8c-1-.4-2-.7-3.4-.7a7 7 0 0 0-4 1.2 10 10 0 0 0-3 2.8 14.4 14.4 0 0 0-2.6 8.5c0 1.6.3 3.2.7 4.7.4 1.5 1 2.8 1.9 4a10 10 0 0 0 3 2.6c1.2.6 2.5 1 4 1 1.3 0 2.6-.2 3.8-.4a9 9 0 0 0 3.4-1.5V346c0-1.8-1.4-2.8-4-2.9v-.4a76.2 76.2 0 0 1 5.5.1h3l3-.1v.4l-1.6.2c-.5.1-1 .3-1.3.6-.3.2-.5.5-.8 1l-.2 1.5v5.5l-5.5 1.7a16 16 0 0 1-10.4 0 13.4 13.4 0 0 1-7.8-7 13.6 13.6 0 0 1 7.9-18.5c1.7-.7 3.4-1 5.2-1a24.5 24.5 0 0 1 7.2 1c.6 0 1.2.2 1.7.3a24.3 24.3 0 0 0 .4 4 431.7 431.7 0 0 0 .6 3.8h-.5Zm29.5-8.5a101.1 101.1 0 0 0 10.7 0v.5a5 5 0 0 0-2.7 1c-.7.4-1 1.3-1 2.5 0 .7 0 1.7.2 3.2l.8 5 1 5.2a123.7 123.7 0 0 0 1.3 6l.7 1c.3.3.7.5 1.2.7a8 8 0 0 0 2.1.5v.5a129.7 129.7 0 0 0-12.2 0v-.5l1.6-.3 1.3-.5c.4-.3.7-.6.9-1 .2-.4.3-1 .3-1.7a27.3 27.3 0 0 0-.3-3l-2.7-16a151 151 0 0 1-4.8 11.2 281 281 0 0 0-4.4 11.6c-1.4-4-2.8-8-4.4-11.8l-5.1-11.4h-.1a187 187 0 0 0-1.6 20c0 .6.3 1.1.7 1.5.3.5.8.8 1.4 1l2.3.4v.5a146.8 146.8 0 0 0-11.4 0v-.5a8.5 8.5 0 0 0 3.1-1 4 4 0 0 0 1.2-1c.3-.4.5-.8.5-1.3a74.4 74.4 0 0 0 .9-6l1.9-14c-.6-.5-1.2-1-2-1.2-.8-.3-1.5-.5-2.3-.6v-.5a145.8 145.8 0 0 0 11.7 0v.5a4 4 0 0 0-1.4.6c-.4.3-.7.8-.7 1.5l.2 1.3.6 1.3 5.6 13.7a234.6 234.6 0 0 0 7.1-17l-1-1a7 7 0 0 0-1.2-.4v-.5Zm27.4 26.1a116.8 116.8 0 0 0-12 0v-.5c1-.1 1.8-.2 2.4-.5.6-.2 1-.5 1.3-1 .3-.4.4-1 .5-1.7l.1-2.8v-13.2l-.1-2.7a3 3 0 0 0-.5-1.8c-.3-.5-.7-.8-1.3-1-.5-.2-1.3-.4-2.2-.4v-.5a85 85 0 0 0 12.7-.2 9.6 9.6 0 0 1 6 2.1c1 .6 1.7 1.4 2.2 2.4.6 1 .9 2 .9 3.3 0 1.2-.3 2.3-.9 3.2-.6.8-1.3 1.6-2.2 2.1-.9.5-1.8 1-3 1.2a26.5 26.5 0 0 1-5.6.2l-2.4-.6v8.7c.1.7.3 1.3.6 1.8.3.4.7.7 1.2 1l2.3.4v.5Zm-4.1-13.8a7 7 0 0 0 2 .7l2 .1c.8 0 1.6 0 2.3-.3.8-.3 1.5-.6 2-1 .6-.6 1-1.1 1.3-1.8.4-.7.5-1.5.5-2.4a7.4 7.4 0 0 0-1.8-5 6 6 0 0 0-2.1-1.3 7 7 0 0 0-2.7-.4h-1.7l-1.8.6V340Z"/></g><g clip-path="url(#i)"><path fill="#000" d="m1067.4 250 18.2 18.1c.8.8 1.1 1.6 1.1 2.8v57.4h9.3l.2-.6v-54c0-.6-.3-1-.6-1.4a2421 2421 0 0 0-14.4-13.2l-8.8-8 13.2-12.4c.3.5.6.9 1 1.2l17.3 17.3a6 6 0 0 1 2 4.8v66h9.4v-63.2c0-2-.6-3.2-2-4.5l-14.9-13.5-11-10.3-1.3-1-14.1 15.3-3-3c-.7-.6-1-.7-1.7 0l-13.3 14.9-8 8.8.3.4 21-22Z"/><path fill="#fff" d="m1067.4 250-21 21.9-.5-.4 8-8.8 13.4-14.8c.7-.8 1-.7 1.7 0 .9 1 2 1.8 3 2.8l14.1-15.2c.4.3 1 .6 1.3 1l11 10.3 14.8 13.5a5.5 5.5 0 0 1 2.1 4.6v63h-9.5V262a6 6 0 0 0-1.9-4.8l-17.3-17.3a4 4 0 0 1-1-1.2l-13.2 12.4 8.8 8 14.4 13.2c.3.4.5.8.6 1.4a19510.6 19510.6 0 0 1-.2 54.6h-9.3v-57.4c0-1.2-.3-2-1.1-2.8l-18.2-18.1Zm-109.1 43h8.4l12.5 35.3h-8l-2.3-7.3h-13l-2.5 7.3h-7.7l12.6-35.4Zm-.5 22h9.1l-4.5-14-4.6 14Zm27.9 13.3v-35.4h7.4v13.5h13.7V293h7.4v35.4h-7.4v-15.8h-13.7v15.8h-7.4Zm36.1-35.3h7.3v29h17.7v6.3h-25v-35.4Z"/><path fill="#fff" d="M1062.3 293h8.4l12.5 35.3h-8l-2.3-7.3h-13l-2.5 7.3h-7.7l12.6-35.4Zm-.4 22h9l-4.4-14-4.6 14Zm-116.1 25.4 2-5.3h.6l2 5.3h-.5l-.6-1.7H947l-.6 1.7h-.5Zm1.3-2.1h2l-1-2.8-1 2.8Zm4.4 2.1V335h.8l1.7 4.6 1.7-4.6h.8v5.3h-.5v-4.8l-1.8 4.8h-.4l-1.8-4.8v4.8h-.5Zm6.5 0V335h3.5v.4h-3v2h2.8v.3h-2.8v2.1h3.1v.5H958Zm5.4-2.4v2.4h-.5V335h2c.6 0 1 .1 1.4.3.3.2.5.6.5 1s-.1.6-.3.9a1 1 0 0 1-.6.5c.1 0 .3 0 .4.2l.2.4v.8l.1.5a4.4 4.4 0 0 0 .1.5v.1h-.5v-.3l-.1-.5v-.9l-.2-.3-.3-.2a1 1 0 0 0-.3-.1h-1.9Zm1.5-.5h.6l.4-.2a.9.9 0 0 0 .4-.8l-.1-.5-.3-.3-.5-.2h-2v2h1.5Zm3.4 2.9V335h.5v5.3h-.5Zm6-3.8c0-.4-.2-.7-.5-1a2 2 0 0 0-1.1-.3 1.6 1.6 0 0 0-1.4.8l-.4.7v1.8l.3.7.6.6 1 .2.5-.1.5-.3.4-.5.2-.6h.5c0 .3-.1.5-.3.7 0 .3-.2.5-.4.6-.2.2-.4.4-.7.4-.3.2-.6.2-.9.2-.4 0-.7 0-1-.2a2 2 0 0 1-.7-.6c-.2-.3-.4-.6-.4-1a4.4 4.4 0 0 1 0-2.3l.5-.8.8-.5a3 3 0 0 1 1.8 0l.6.2.4.6.3.7h-.6Zm1.5 3.8 2-5.3h.6l2 5.3h-.5l-.6-1.7H977l-.6 1.7h-.5Zm1.3-2.1h2l-1-2.8-1 2.8Zm4.9-2.6v4.7h-.5V335h.6l3 4.6V335h.5v5.3h-.5l-3-4.7Zm7.6 4.7V335h.5v2.2h3.2V335h.4v5.3h-.4v-2.6H990v2.6h-.5Zm5.4-2.7.2-1 .5-1a2.3 2.3 0 0 1 1.8-.8l1.1.2.8.6.5 1a4 4 0 0 1 0 2.1l-.5.9-.8.6a2.7 2.7 0 0 1-2.1 0 2.3 2.3 0 0 1-1.3-1.5l-.1-1Zm2.6 2.4c.3 0 .6 0 .8-.2.3-.1.5-.3.6-.5l.4-.8.1-.9-.1-1a2 2 0 0 0-.4-.7l-.6-.5-.9-.2a1.8 1.8 0 0 0-1.4.8 2.8 2.8 0 0 0-.5 1.6l.1 1 .4.7c.1.2.3.4.6.5l.9.2Zm3.3-5.1h3.9v.5h-1.7v4.9h-.5v-4.9h-1.7v-.4Zm4.9 5.4V335h3.6v.4h-3v2h2.7v.3h-2.8v2.1h3.1v.5h-3.6Zm4.9 0V335h.5v4.8h2.8v.5h-3.3Zm9.9-1.4.1-.5v-.5h.5v.7l-.4.6 1 1h-.7l-.5-.6-.7.6a2.3 2.3 0 0 1-1.6 0 1.4 1.4 0 0 1-.9-.7 1.7 1.7 0 0 1 0-1.2c0-.2.1-.3.3-.5l.4-.3.4-.3-.4-.6a1.2 1.2 0 0 1 0-1l.2-.4.4-.2a1.8 1.8 0 0 1 .9 0l.4.3.2.3v.9l-.2.3-.4.3-.4.2 1.4 1.6Zm-1.8-1.4-.4.2-.3.4a1.3 1.3 0 0 0-.3.8v.4l.3.4a1.3 1.3 0 0 0 .9.3c.2 0 .5 0 .7-.2.3-.1.4-.3.6-.5l-1.5-1.8Zm1-1.2v-.6l-.3-.2-.4-.1h-.2l-.3.1-.1.2v.6l.1.2.2.3.2.2.4-.3.4-.4Zm5.5 4V335h.5v4.8h2.8v.5h-3.3Zm4.2-2.7c0-.3 0-.7.2-1a2.5 2.5 0 0 1 1.2-1.6l1-.2 1.1.2.8.6.5 1a4.1 4.1 0 0 1 0 2.1l-.5.9-.8.6a2.7 2.7 0 0 1-2.1 0l-.8-.6-.4-.9-.2-1Zm2.5 2.4c.3 0 .6 0 .9-.2l.6-.5c.1-.3.3-.5.3-.8a3.3 3.3 0 0 0 0-1.9l-.4-.7-.6-.5-.8-.2a1.8 1.8 0 0 0-1.5.8l-.4.7-.1 1 .1.8c0 .3.2.5.4.8.1.2.3.4.6.5l.9.2Zm3.8.3V335h2.7l.4.1.3.3.5.4.3.6v.6l.1.6v.5l-.1.6-.2.5-.3.4-.4.3-.5.2-.5.1h-2.3Zm.5-.5h1.8l.6-.2c.2 0 .4-.2.5-.4l.2-.5a2.7 2.7 0 0 0 .2-1v-.7l-.1-.5a2 2 0 0 0-.3-.5 1.4 1.4 0 0 0-1-.6h-1.9v4.4Zm7.4-1.9v-.4h2.3v2.8h-.4v-1l-.3.5-.5.3-.5.2a3 3 0 0 1-1.6 0l-.8-.6-.5-.9a4 4 0 0 1 0-2.3l.5-.9.7-.6 1.1-.2.8.1a2.2 2.2 0 0 1 1.2.9l.2.7h-.5c0-.2 0-.4-.2-.5a1.7 1.7 0 0 0-1.4-.8 2 2 0 0 0-1 .2c-.2.2-.4.3-.5.6a2 2 0 0 0-.4.8l-.1 1a2.6 2.6 0 0 0 .5 1.5c.1.2.3.4.6.5l.8.2.9-.2a1.8 1.8 0 0 0 .7-.7l.2-.6v-.5h-1.8Zm4 2.4V335h.5v5.3h-.5Zm2.8-4.7v4.7h-.5V335h.5l3 4.6h.1V335h.5v5.3h-.6l-3-4.7Zm7.5 2.3v-.4h2.2v2.8h-.5v-1c0 .2-.2.4-.3.5l-.4.3-.5.2a3 3 0 0 1-1.7 0 2 2 0 0 1-.7-.6l-.5-.9a4.3 4.3 0 0 1 0-2.3c0-.3.3-.6.5-.9l.7-.6 1.1-.2.8.1a2 2 0 0 1 1.1.9c.2.2.3.4.3.7h-.5a1.7 1.7 0 0 0-1-1.2h-.7a2 2 0 0 0-.9.1l-.6.6c-.1.2-.3.5-.3.8a3.9 3.9 0 0 0 0 1.8 2 2 0 0 0 1 1.2l.8.2h.4l.5-.2.4-.3.3-.4a2.4 2.4 0 0 0 .2-1.1h-1.8Zm5.7 2.4 2-5.3h.6l2 5.3h-.5l-.6-1.7h-2.4l-.6 1.7h-.5Zm1.3-2.1h2l-1-2.8-1 2.8Zm4.7.5.1.6.3.4.5.2h1.2l.4-.2.2-.4a1 1 0 0 0 0-1l-.4-.2-.5-.2-.6-.2-.6-.1-.5-.3a1.2 1.2 0 0 1-.5-1v-.6a1.5 1.5 0 0 1 1-.8h1.6l.5.4c.2.1.3.3.3.5l.2.6h-.5l-.1-.5a1 1 0 0 0-.3-.4l-.4-.2h-1.2a1 1 0 0 0-.4.3l-.2.4v.4c0 .2 0 .3.2.4l.4.3.5.2h.6l.6.2.4.3.4.4a1.5 1.5 0 0 1-.4 1.8c-.3.3-.8.4-1.4.4l-.8-.1-.6-.3-.4-.6-.1-.7h.5Zm4.8 0c0 .2 0 .4.2.6l.3.4.5.2h1.1l.5-.2a1 1 0 0 0 .3-.8c0-.2 0-.4-.2-.5a1 1 0 0 0-.3-.3 2 2 0 0 0-.6-.2l-.5-.2-.6-.1-.5-.3a1 1 0 0 1-.4-.4c-.1-.2-.2-.4-.1-.6v-.6l.4-.4.6-.4h1.5l.6.4.3.5.1.6h-.5v-.5l-.4-.4-.4-.2h-1.1l-.4.3-.2.4v.4l.1.4.4.3.6.2h.5l.6.2.5.3.4.5v.6a1.4 1.4 0 0 1-.4 1c-.4.4-.9.5-1.5.5l-.7-.1c-.3 0-.5-.2-.6-.3l-.4-.6-.2-.7h.5Zm4.5-1.1.1-1a2.5 2.5 0 0 1 1.2-1.6l1.1-.2 1 .2.9.6.4 1 .2 1c0 .4 0 .8-.2 1.1 0 .3-.2.6-.4.9l-.8.6a2.7 2.7 0 0 1-2.2 0l-.7-.6a3 3 0 0 1-.6-2Zm2.4 2.4c.3 0 .6 0 1-.2l.5-.5.4-.8a3.3 3.3 0 0 0 0-1.9 2 2 0 0 0-.4-.7l-.7-.5a2 2 0 0 0-1.7 0 2 2 0 0 0-.6.6l-.3.7a3.9 3.9 0 0 0 0 1.8c0 .3.2.5.3.8l.6.5 1 .2Zm7.3-3.4c-.1-.5-.3-.8-.6-1a2 2 0 0 0-1-.3c-.4 0-.6 0-.9.2l-.6.5-.3.8a3.8 3.8 0 0 0 .3 2.5l.6.5.9.3.6-.1.5-.4.3-.4.3-.6h.5l-.3.7a2 2 0 0 1-1 1l-1 .2c-.4 0-.7 0-1-.2l-.8-.7-.4-.8a4.3 4.3 0 0 1 0-2.4l.6-.9.8-.4a2.9 2.9 0 0 1 1.7 0c.2 0 .4 0 .6.2l.5.6.2.7h-.5Zm2.4 3.7V335h.5v5.3h-.5Zm1.8 0 2-5.3h.6l2 5.3h-.5l-.6-1.7h-2.4l-.6 1.7h-.5Zm1.3-2.1h2l-1-2.8-1 2.8Zm3.9-3.3h3.9v.5h-1.7v4.9h-.5v-4.9h-1.7v-.4Zm5.2 5.4V335h.4v5.3h-.5Zm2-2.7.1-1 .5-1a2.3 2.3 0 0 1 1.8-.8l1.1.2.8.6.5 1a3.8 3.8 0 0 1 0 2.1l-.5.9a2.3 2.3 0 0 1-1.9.8c-.3 0-.7 0-1-.2l-.8-.6-.5-.9-.1-1Zm2.4 2.4c.3 0 .7 0 1-.2l.5-.5.4-.8.1-.9-.1-1a2 2 0 0 0-.4-.7l-.6-.5-.9-.2c-.3 0-.6.1-.8.3-.3 0-.5.3-.7.5l-.3.7a4 4 0 0 0 0 1.8c0 .3.2.5.3.8l.7.5.8.2Zm4.3-4.4v4.7h-.5V335h.6l3 4.6h.1V335h.5v5.3h-.6l-3-4.7Z"/></g><defs><clipPath id="a"><path fill="#fff" d="M0 0h171v100H0z" transform="translate(86 74)"/></clipPath><clipPath id="b"><path fill="#fff" d="M0 0h250v86H0z" transform="translate(347 81)"/></clipPath><clipPath id="c"><path fill="#fff" d="M0 0h212v90H0z" transform="translate(687 79)"/></clipPath><clipPath id="d"><path fill="#fff" d="M0 0h144v100H0z" transform="translate(989 74)"/></clipPath><clipPath id="e"><path fill="#fff" d="M0 0h182.7v99.5H0z" transform="translate(66 238.2)"/></clipPath><clipPath id="f"><path fill="#fff" d="M0 0h208v126H0z" transform="translate(303.7 225)"/></clipPath><clipPath id="g"><path fill="#fff" d="M0 0h133v101H0z" transform="translate(566.7 237.5)"/></clipPath><clipPath id="h"><path fill="#fff" d="M0 0h136v160H0z" transform="translate(754.7 208)"/></clipPath><clipPath id="i"><path fill="#fff" d="M0 0h170v105H0z" transform="translate(945.7 235.5)"/></clipPath></defs></svg>