<svg width="1067" height="534" viewBox="0 0 1067 534" fill="none" xmlns="http://www.w3.org/2000/svg">
<g clip-path="url(#clip0_521_83)">
<path d="M64.215 37.8098C64.1987 41.9811 63.3601 46.1083 61.7471 49.9559C60.134 53.8034 57.7782 57.2959 54.8141 60.2339C51.8501 63.1719 48.3357 65.4979 44.4718 67.079C40.6079 68.6602 36.47 69.4656 32.2945 69.4492C23.7511 69.4493 15.5557 66.0673 9.50282 60.0439C3.44999 54.0204 0.0329864 45.8464 0 37.3115C0.129385 28.972 3.51157 21.0123 9.4267 15.1263C15.3418 9.24037 23.3228 5.89299 31.6711 5.79663C40.2264 5.76319 48.448 9.10948 54.5441 15.1061C60.6402 21.1028 64.1164 29.2636 64.215 37.8098V37.8098ZM51.2473 37.6852C51.2311 35.1555 50.7141 32.6539 49.7262 30.3246C48.7383 27.9952 47.299 25.8841 45.4911 24.1127C43.6831 22.3413 41.5424 20.9447 39.1919 20.0032C36.8415 19.0617 34.3279 18.5939 31.7958 18.6268C29.2708 18.5909 26.7651 19.0696 24.4315 20.0336C22.098 20.9976 19.9856 22.4268 18.2235 24.2337C16.4614 26.0407 15.0866 28.1875 14.1829 30.5432C13.2792 32.8988 12.8657 35.4137 12.9677 37.9343C13.0984 43.0116 15.2265 47.8329 18.8908 51.3536C22.555 54.8743 27.4604 56.8108 32.5439 56.7436C37.5488 56.6779 42.3245 54.637 45.8286 51.0664C49.3327 47.4958 51.2807 42.6854 51.2473 37.6852V37.6852Z" fill="white"/>
<path d="M44.3896 37.3113C36.1601 47.0274 30.6737 49.0204 25.4368 44.4115C24.4528 43.5786 23.66 42.5436 23.1124 41.377C22.5647 40.2104 22.2751 38.9397 22.2633 37.6513C22.2515 36.3628 22.5177 35.087 23.0438 33.9106C23.5699 32.7342 24.3436 31.6848 25.3121 30.834C30.4244 26.1005 35.5366 27.7199 44.3896 37.3113Z" fill="white"/>
<path d="M74.0654 30.2109H77.3074L81.6715 44.0376L83.9159 37.062L86.0356 30.2109H89.4022L91.5219 37.062L93.7663 44.0376L98.1305 30.2109H101.372L98.7539 37.8094L95.3873 47.8991H92.0207C91.3973 45.657 90.6491 43.5394 89.901 41.2972L87.6566 34.9444L83.2924 47.8991H80.0505L77.058 39.055L74.0654 30.2109Z" fill="white"/>
<path d="M111.098 30.2109C112.478 30.1869 113.844 30.4855 115.088 31.0828C116.293 31.7898 117.351 32.7199 118.206 33.8233C119.038 34.9212 119.594 36.2028 119.826 37.5602C119.826 37.9339 119.951 38.4322 119.951 39.055C119.951 39.6778 119.826 40.0515 119.826 40.5498H105.363C105.707 41.7927 106.452 42.8874 107.482 43.6639C108.519 44.463 109.789 44.9006 111.098 44.9095C112.638 44.8563 114.104 44.235 115.213 43.1656L117.083 45.5324C116.247 46.2285 115.325 46.8146 114.34 47.2763C113.305 47.6743 112.207 47.8852 111.098 47.8991C109.667 47.8946 108.258 47.5532 106.983 46.9026C105.758 46.2806 104.691 45.3856 103.866 44.2867C103.077 43.1641 102.526 41.8925 102.245 40.5498C102.245 40.0515 102.121 39.5532 102.121 39.055C102.121 38.5567 102.245 38.0585 102.245 37.5602C102.478 36.2028 103.034 34.9212 103.866 33.8233C104.721 32.7199 105.779 31.7898 106.983 31.0828C108.267 30.4708 109.677 30.1719 111.098 30.2109ZM111.098 33.2004C109.781 33.1574 108.493 33.6009 107.482 34.4461C106.404 35.1765 105.646 36.2903 105.363 37.5602H116.709C116.426 36.2903 115.667 35.1765 114.59 34.4461C113.617 33.6195 112.375 33.1765 111.098 33.2004V33.2004Z" fill="white"/>
<path d="M129.553 47.8993C127.967 47.9319 126.406 47.4988 125.064 46.6536C123.791 45.8786 122.722 44.8109 121.947 43.5395C121.101 42.1989 120.667 40.6397 120.7 39.0552V24.1074H123.692V32.3287C124.532 31.6716 125.454 31.1272 126.435 30.7093C127.435 30.3526 128.492 30.1837 129.553 30.2111C131.12 30.1979 132.665 30.5837 134.041 31.3322C135.356 32.1492 136.466 33.2573 137.283 34.5709C138.033 35.9462 138.419 37.4895 138.406 39.0552C138.432 40.583 138.044 42.0894 137.283 43.4149C136.502 44.7566 135.384 45.8726 134.041 46.6536C132.699 47.4988 131.139 47.9319 129.553 47.8993ZM129.553 44.9097C130.589 44.8854 131.601 44.5983 132.496 44.0753C133.39 43.5523 134.136 42.8107 134.665 41.9202C135.161 41.0471 135.419 40.0592 135.413 39.0552C135.429 38.0105 135.171 36.9797 134.665 36.0656C134.159 35.1845 133.427 34.4537 132.545 33.948C131.63 33.442 130.598 33.1843 129.553 33.2006C128.508 33.1954 127.479 33.4524 126.56 33.948C125.716 34.4616 125.027 35.1932 124.565 36.0656C123.962 36.9434 123.656 37.9911 123.692 39.0552C123.674 40.0782 123.979 41.0808 124.565 41.9202C124.991 42.8177 125.689 43.5585 126.56 44.0378C127.446 44.6251 128.49 44.9293 129.553 44.9097V44.9097Z" fill="white"/>
<path d="M139.278 30.2109H142.271V32.3285C143.056 31.6008 143.979 31.0383 144.986 30.6745C145.992 30.3107 147.062 30.1531 148.131 30.2109V33.2004C147.086 33.1841 146.054 33.4418 145.139 33.9478C144.257 34.4535 143.525 35.1843 143.019 36.0654C142.512 36.9795 142.254 38.0103 142.271 39.055V47.8991H139.278V30.2109Z" fill="white"/>
<path d="M157.732 30.2109C159.153 30.1719 160.564 30.4708 161.847 31.0828C163.013 31.7926 164.03 32.7236 164.839 33.8233C165.721 34.8915 166.283 36.1869 166.46 37.5602C166.575 38.0496 166.617 38.5533 166.585 39.055C166.605 39.5565 166.563 40.0585 166.46 40.5498H152.121C152.462 41.7624 153.157 42.8464 154.116 43.6639C155.165 44.44 156.427 44.8749 157.732 44.9095C158.55 44.9353 159.363 44.7645 160.101 44.4113C160.779 44.0849 161.409 43.6656 161.971 43.1656L163.842 45.5324C163.006 46.2285 162.084 46.8146 161.098 47.2763C160.017 47.6627 158.88 47.8729 157.732 47.8991C156.35 47.8753 154.993 47.5377 153.761 46.9118C152.53 46.2859 151.457 45.3882 150.625 44.2867C149.784 43.1939 149.227 41.91 149.004 40.5498C149.004 40.0515 148.879 39.5532 148.879 39.055C148.859 38.5535 148.901 38.0515 149.004 37.5602C149.181 36.1869 149.743 34.8915 150.625 33.8233C151.48 32.7199 152.538 31.7898 153.742 31.0828C154.986 30.4855 156.352 30.1869 157.732 30.2109V30.2109ZM157.732 33.2004C156.418 33.1798 155.138 33.6206 154.116 34.4461C153.11 35.222 152.405 36.3227 152.121 37.5602H163.468C163.142 36.309 162.393 35.2089 161.348 34.4461C160.337 33.6009 159.05 33.1574 157.732 33.2004V33.2004Z" fill="white"/>
<path d="M167.458 30.2109H185.164V33.2005L171.697 44.9096H185.164V47.8991H167.458V44.9096L180.8 33.2005H167.458V30.2109Z" fill="white"/>
<path d="M194.765 30.2108C196.332 30.1976 197.877 30.5834 199.254 31.3319C200.597 32.113 201.714 33.2289 202.496 34.5706C203.283 35.9364 203.712 37.479 203.743 39.0549C203.731 40.5944 203.3 42.1016 202.496 43.4147C201.702 44.7634 200.574 45.8847 199.219 46.6703C197.865 47.4558 196.331 47.879 194.765 47.899C193.697 47.8838 192.64 47.6727 191.648 47.2762C190.667 46.9341 189.773 46.3813 189.029 45.6569V53.8781H185.912V39.0549C185.907 37.474 186.339 35.9224 187.159 34.5706C187.977 33.257 189.086 32.1489 190.401 31.3319C191.732 30.5831 193.237 30.1965 194.765 30.2108V30.2108ZM194.765 33.2004C193.755 33.1968 192.762 33.4599 191.886 33.963C191.01 34.4661 190.283 35.1913 189.778 36.0654C189.271 36.9795 189.013 38.0102 189.029 39.0549C189.023 40.0589 189.281 41.0469 189.778 41.9199C190.25 42.8262 190.99 43.5655 191.897 44.0375C192.737 44.6226 193.741 44.9278 194.765 44.9095C195.801 44.8852 196.814 44.598 197.708 44.075C198.602 43.5521 199.349 42.8104 199.877 41.9199C200.374 41.0469 200.632 40.0589 200.625 39.0549C200.642 38.0102 200.384 36.9795 199.877 36.0654C199.371 35.1843 198.64 34.4534 197.758 33.9478C196.843 33.4417 195.811 33.184 194.765 33.2004V33.2004Z" fill="white"/>
<path d="M204.49 30.2114H207.483V32.329C208.305 31.6458 209.231 31.0991 210.226 30.7096C211.226 30.3529 212.282 30.184 213.343 30.2114V33.2009C212.298 33.1846 211.266 33.4423 210.351 33.9483C209.497 34.4894 208.773 35.2125 208.231 36.0659C207.725 36.98 207.467 38.0108 207.483 39.0555V47.8996H204.49V30.2114Z" fill="white"/>
<path d="M223.07 30.2107C224.598 30.1963 226.102 30.5829 227.434 31.3317C228.777 32.1128 229.894 33.2287 230.676 34.5704C231.463 35.9362 231.892 37.4788 231.923 39.0547C231.911 40.5942 231.48 42.1015 230.676 43.4145C229.93 44.7833 228.804 45.9078 227.434 46.6532C226.137 47.4953 224.616 47.9292 223.07 47.8988C221.482 47.9466 219.917 47.5123 218.581 46.6532C217.211 45.9078 216.085 44.7833 215.339 43.4145C214.534 42.1015 214.103 40.5942 214.092 39.0547C214.122 37.4788 214.551 35.9362 215.339 34.5704C216.121 33.2287 217.238 32.1128 218.581 31.3317C219.951 30.5671 221.5 30.1802 223.07 30.2107V30.2107ZM223.07 33.2002C222.024 33.1838 220.992 33.4415 220.077 33.9476C219.195 34.4533 218.464 35.1841 217.957 36.0652C217.451 36.9793 217.193 38.01 217.209 39.0547C217.203 40.0587 217.461 41.0467 217.957 41.9197C218.486 42.8103 219.232 43.5519 220.127 44.0749C221.021 44.5978 222.034 44.885 223.07 44.9093C224.094 44.9276 225.097 44.6224 225.938 44.0373C226.845 43.5653 227.585 42.826 228.057 41.9197C228.554 41.0467 228.812 40.0587 228.805 39.0547C228.822 38.01 228.564 36.9793 228.057 36.0652C227.552 35.1911 226.825 34.4659 225.949 33.9628C225.073 33.4597 224.08 33.1966 223.07 33.2002V33.2002Z" fill="white"/>
</g>
<path d="M719.052 40.5641H703.524V37.2807H719.052V21.616H722.609V37.2807H738.137V40.5641H722.609V56.2972H719.052V40.5641V40.5641ZM365.125 67.1052C348.776 67.1052 335.505 53.8347 335.505 37.4859C335.505 21.1371 348.776 7.86656 365.125 7.86656C371.897 7.86656 378.122 10.1239 383.115 13.9546L365.125 31.9451L352.47 19.2902L346.929 24.831L365.125 43.0267L388.656 19.4954C392.487 24.489 394.744 30.7138 394.744 37.4859C394.812 53.8347 381.542 67.1052 365.125 67.1052ZM394.265 13.8862L398.848 9.30307L393.308 3.76227L388.724 8.34541C382.294 3.14663 374.086 0 365.125 0C344.466 0 327.707 16.7592 327.707 37.4859C327.707 58.1442 344.466 74.9034 365.125 74.9034C385.783 74.9034 402.542 58.1442 402.542 37.4859C402.611 28.5248 399.464 20.3162 394.265 13.8862ZM435.513 53.9031C441.054 53.9031 443.79 51.7825 446.595 48.1571L448.237 48.7043C446.458 53.6295 442.149 58.0074 434.282 58.0074C423.816 58.0074 418.139 50.2776 418.139 41.4534C418.139 30.3034 425.389 23.2577 435.855 23.2577C443.38 23.2577 447.279 26.7463 447.279 30.9874C447.279 32.7659 446.458 34.134 445.158 34.7497H442.628V33.45C442.628 28.7301 439.618 26.2675 434.145 26.2675C427.715 26.2675 422.653 31.3978 422.653 39.538C422.653 47.6782 427.1 53.9031 435.513 53.9031ZM460.208 51.8509C460.208 54.7923 462.67 55.1344 465.68 55.4764V57.3233H450.152V55.4764C453.093 55.066 455.624 54.7923 455.624 51.8509V15.5279L450.494 14.5018V13.2705L458.703 9.78189H460.276V51.8509H460.208ZM497.078 41.727C497.078 32.2187 492.289 26.6095 483.944 26.6095C476.762 26.6095 473.068 32.4923 473.068 39.4696C473.068 48.9779 477.856 54.5871 486.201 54.5871C493.384 54.5871 497.078 48.7043 497.078 41.727ZM467.937 41.2482C467.937 30.1666 476.42 23.1893 485.586 23.1893C495.368 23.1893 502.14 30.0982 502.14 39.8801C502.14 50.9616 493.658 57.939 484.491 57.939C474.709 57.939 467.937 51.0301 467.937 41.2482ZM523.14 53.9031C528.681 53.9031 531.417 51.7825 534.222 48.1571L535.863 48.7043C534.085 53.6295 529.775 58.0074 521.909 58.0074C511.443 58.0074 505.765 50.2776 505.765 41.4534C505.765 30.3034 513.016 23.2577 523.482 23.2577C531.007 23.2577 534.906 26.7463 534.906 30.9874C534.906 32.7659 534.085 34.134 532.785 34.7497H530.254V33.45C530.254 28.7301 527.244 26.2675 521.772 26.2675C515.342 26.2675 510.28 31.3978 510.28 39.538C510.212 47.6782 514.658 53.9031 523.14 53.9031ZM560.421 29.4141C560.9 28.9353 561.31 28.4564 561.31 27.9092C561.31 26.4043 560.216 26.1991 556.864 25.7202V23.8733H571.16V25.7202C568.561 26.4043 567.603 26.5411 566.235 27.7724L553.717 39.1276L573.349 55.9552V57.3917H567.945L548.245 40.5641L560.421 29.4141ZM547.766 51.8509C547.766 54.7923 550.228 55.1344 553.17 55.4764V57.3233H537.71V55.4764C540.652 55.066 543.114 54.7923 543.114 51.8509V15.5279L537.984 14.5018V13.2705L546.124 9.78189H547.766V51.8509V51.8509ZM600.711 23.4629H607.073C613.229 23.4629 616.308 26.0623 616.308 31.2611C616.308 36.8018 613.571 39.0592 606.936 39.0592H600.643V23.4629H600.711ZM607.483 20.5899H590.382V22.9156H590.793C594.486 23.0525 596.128 23.5997 596.128 26.3359V51.5773C596.128 54.3135 594.486 54.8607 590.793 54.9975H590.382V57.3233H607.62V54.9975H607.21C603.242 54.7923 600.643 54.3819 600.643 51.5773V41.8638H608.509C617.949 41.8638 621.301 36.2546 621.301 30.919C621.301 28.5249 620.343 20.5899 607.483 20.5899ZM664.807 52.2613L661.523 26.2675C661.523 23.9417 662.07 23.1209 665.491 22.9841H665.901V20.6583H657.145V21.0687C657.077 22.1632 656.803 22.7788 656.461 23.6681L645.722 49.7304L634.161 23.6681C633.751 22.7104 633.546 22.1632 633.477 21.0687V20.6583H624.448V22.9841H624.858C628.278 23.1209 628.826 23.9417 628.826 26.2675L625.542 52.3298C625.269 54.3819 624.516 54.9291 621.575 55.066H621.164V57.3917H633.819V55.066H633.409C629.715 54.8607 628.826 54.3135 628.826 52.1929C628.826 51.9877 628.894 51.3721 628.894 51.0301L631.493 29.3457L644.012 57.4601H645.653L657.282 29.6877L659.95 51.0985C660.018 51.4405 660.018 52.1245 660.018 52.2613C660.018 54.3819 659.129 54.9291 655.435 55.1344H655.025V57.4601H669.116V55.1344H668.706C665.901 54.8607 665.08 54.3135 664.807 52.2613ZM687.517 37.2807L681.703 35.0917C678.077 33.7236 676.299 32.4239 676.299 28.9353C676.299 25.3098 679.035 22.9841 683.208 22.9841C688.68 22.9841 691.143 25.2414 692.442 31.3978L692.511 31.7399H694.563V23.3945L694.426 23.2577C691.895 21.2055 687.928 19.9742 683.686 19.9742C676.641 19.9742 672.058 23.7365 672.058 29.6193C672.058 35.5021 676.367 37.8279 680.129 39.196L685.328 41.1114C689.364 42.5479 691.827 44.258 691.827 48.0203C691.827 52.193 688.68 54.6555 683.481 54.6555C678.351 54.6555 674.931 51.5089 673.699 45.4893L673.631 45.1472H671.579L671.921 54.3819L672.058 54.5187C674.315 56.4341 678.693 57.6653 683.139 57.6653C691.074 57.6653 696.205 53.6294 696.205 47.4046C696.205 41.3166 691.827 38.854 687.517 37.2807Z" fill="white"/>
<g clip-path="url(#clip1_521_83)">
<path d="M932.445 42.0051H947.517L939.547 29.1382L924.92 52.402H918.264L936.055 24.457C936.828 23.3282 938.117 22.646 939.547 22.646C940.93 22.646 942.219 23.3045 942.97 24.4101L960.831 52.402H954.174L951.034 47.2036H935.774L932.445 42.0051H932.445ZM1001.59 47.2031V22.9281H995.945V49.5793C995.945 50.3084 996.226 51.0143 996.765 51.5553C997.304 52.0962 998.031 52.402 998.828 52.402H1024.59L1027.92 47.2036H1001.59L1001.59 47.2031ZM908.137 42.8514C913.622 42.8514 918.076 38.4058 918.076 32.9016C918.076 27.3969 913.622 22.9276 908.137 22.9276H883.424V52.4025H889.071V28.127H907.762C910.388 28.127 912.497 30.268 912.497 32.9025C912.497 35.5366 910.388 37.6771 907.762 37.6771L891.837 37.6539L908.7 52.4025H916.904L905.559 42.8523H908.137L908.137 42.8514ZM848.662 52.402C840.554 52.4025 833.974 45.8159 833.974 37.6771C833.974 29.5379 840.554 22.9285 848.662 22.9285H865.734C873.844 22.9285 880.419 29.5379 880.419 37.6771C880.419 45.8159 873.844 52.402 865.733 52.402H848.662ZM865.354 47.2036C870.607 47.2036 874.862 42.9458 874.862 37.6767C874.862 32.4081 870.607 28.127 865.354 28.127H849.04C843.789 28.127 839.532 32.4081 839.532 37.6771C839.532 42.9458 843.789 47.2036 849.039 47.2036H865.354H865.354ZM972.622 52.402C964.512 52.402 957.925 45.8159 957.925 37.6771C957.925 29.5379 964.512 22.9285 972.622 22.9285H992.898L989.593 28.127H972.997C967.746 28.127 963.48 32.4081 963.48 37.6771C963.48 42.9458 967.746 47.2036 972.997 47.2036H993.367L990.038 52.402H972.622ZM1041.7 47.2036C1037.36 47.2036 1033.68 44.2869 1032.56 40.2643H1056.7L1060.03 35.0658H1032.56C1033.68 31.0669 1037.36 28.127 1041.7 28.127H1058.27L1061.62 22.9276H1041.33C1033.22 22.9276 1026.63 29.5375 1026.63 37.6762C1026.63 45.8155 1033.22 52.4016 1041.33 52.4016H1058.74L1062.07 47.2036H1041.7H1041.7Z" fill="white"/>
</g>
<g clip-path="url(#clip2_521_83)">
<path d="M0.000124215 190.049C0.0469133 178.586 3.49424 167.394 9.90617 157.888C16.3181 148.383 25.4067 140.991 36.0225 136.647C46.6384 132.304 58.3048 131.203 69.5465 133.485C80.7881 135.768 91.1001 141.33 99.1784 149.469C107.257 157.608 112.739 167.957 114.931 179.21C117.123 190.462 115.927 202.111 111.494 212.684C107.061 223.257 99.5903 232.279 90.0265 238.609C80.4626 244.939 69.2352 248.293 57.764 248.246C50.1444 248.226 42.6037 246.703 35.574 243.765C28.5442 240.827 22.1636 236.532 16.7976 231.126C11.4317 225.72 7.1859 219.309 4.30348 212.26C1.42107 205.212 -0.0413149 197.664 0.000124215 190.049V190.049ZM108.603 190.364C108.603 162.209 85.9377 139.324 58.0001 139.245C44.5097 139.266 31.5789 144.636 22.0471 154.176C12.5152 163.716 7.16157 176.647 7.16159 190.128C7.16159 218.44 29.5904 241.011 57.764 241.011C64.4415 241.063 71.0629 239.79 77.2442 237.265C83.4255 234.74 89.0436 231.014 93.7728 226.303C98.5019 221.591 102.248 215.989 104.794 209.819C107.339 203.65 108.634 197.037 108.603 190.364V190.364Z" fill="white"/>
<path d="M63.5089 179.982H51.783C52.5544 181.603 53.1862 183.287 53.6717 185.015C53.9078 186.588 53.9865 188.554 53.2782 189.813C52.5699 191.071 49.7368 190.521 49.3433 189.97C48.9498 189.42 48.1629 186.431 48.7925 185.251C50.996 180.847 50.8386 176.836 48.8711 172.432C48.2416 171.174 48.5564 168.972 49.2646 167.714C49.9729 166.455 52.8847 167.085 53.2782 167.714C53.6717 168.343 53.9078 170.938 53.6717 172.511C53.4356 174.084 52.4912 175.342 51.6256 177.387H63.3515C62.6432 175.5 61.7775 174.005 61.6201 172.432C61.4627 170.86 61.4627 168.893 62.2497 167.714C63.0367 166.534 65.7911 167.163 66.1846 167.792C66.5781 168.422 67.2076 171.253 66.5781 172.432C64.768 175.814 64.768 181.87 66.5781 185.173C67.2076 186.352 66.8929 188.554 66.1846 189.813C65.4763 191.071 62.6432 190.521 62.2497 189.891C61.8562 189.262 61.384 186.746 61.6201 185.173C61.8562 183.6 62.7219 182.106 63.5089 179.982Z" fill="white"/>
<path d="M29.0395 202.317C29.4859 202.487 29.8701 202.789 30.1413 203.182C30.3377 203.465 30.4718 203.787 30.5348 204.126C30.6137 204.673 30.6401 205.226 30.6135 205.777V210.811H28.3312V205.62C28.3572 205.238 28.2754 204.857 28.0952 204.519C27.9378 204.047 27.5443 203.89 26.9147 203.89C26.6753 203.867 26.4341 203.906 26.2138 204.002C25.9935 204.099 25.8014 204.249 25.6555 204.44C25.3147 204.951 25.149 205.558 25.1833 206.171V210.811H22.9011V199.329H25.1833V203.339C25.4692 202.92 25.8458 202.571 26.2851 202.317C26.7075 202.13 27.1613 202.023 27.623 202.003C28.1111 202.015 28.5921 202.122 29.0395 202.317V202.317Z" fill="white"/>
<path d="M39.8206 209.71C39.418 210.182 38.9073 210.55 38.3319 210.783C37.7564 211.016 37.1332 211.106 36.5153 211.047C35.9095 211.1 35.2998 211.006 34.7381 210.773C34.1763 210.541 33.6791 210.176 33.2887 209.71C32.569 208.82 32.1797 207.708 32.1869 206.564C32.1679 205.394 32.5575 204.254 33.2887 203.34C33.691 202.888 34.1901 202.534 34.7488 202.302C35.3076 202.07 35.9114 201.968 36.5153 202.003C37.1321 201.956 37.7513 202.052 38.3247 202.284C38.898 202.516 39.41 202.877 39.8206 203.34C40.5518 204.254 40.9414 205.394 40.9224 206.564C40.9296 207.708 40.5403 208.82 39.8206 209.71V209.71ZM38.0106 208.53C38.4135 207.957 38.6079 207.263 38.5614 206.564C38.6289 205.863 38.4325 205.162 38.0106 204.598C37.8455 204.359 37.6204 204.168 37.3579 204.044C37.0954 203.919 36.8048 203.866 36.5153 203.89C36.2277 203.881 35.9421 203.94 35.682 204.063C35.422 204.186 35.195 204.37 35.0201 204.598C34.6282 205.176 34.4348 205.866 34.4692 206.564C34.4601 207.259 34.6513 207.941 35.0201 208.53C35.195 208.758 35.422 208.942 35.682 209.065C35.9421 209.188 36.2277 209.247 36.5153 209.238C36.8048 209.262 37.0954 209.209 37.3579 209.085C37.6204 208.96 37.8455 208.769 38.0106 208.53V208.53Z" fill="white"/>
<path d="M41.6309 203.89V202.317H42.8113V199.958H45.0148V202.317H46.4314V203.89H45.0148V208.452C44.9976 208.673 45.0528 208.894 45.1722 209.081C45.4104 209.218 45.6867 209.273 45.9592 209.238H46.4314V210.89H45.3296C44.9566 210.953 44.5744 210.937 44.2081 210.842C43.8419 210.747 43.4999 210.576 43.2048 210.339C42.9249 210.012 42.7837 209.589 42.8113 209.159V203.89H41.6309Z" fill="white"/>
<path d="M53.3566 202.396C53.9549 202.68 54.4699 203.113 54.8519 203.654C55.2485 204.181 55.4935 204.807 55.5601 205.463C55.6339 206.01 55.6602 206.563 55.6388 207.114H49.4217C49.3904 207.466 49.4542 207.819 49.6065 208.137C49.7588 208.456 49.994 208.727 50.2874 208.923C50.6678 209.148 51.1052 209.257 51.5466 209.238C52.0018 209.278 52.4544 209.137 52.8057 208.845C52.9956 208.711 53.1344 208.517 53.1992 208.294H55.4814C55.4041 208.892 55.1267 209.446 54.6945 209.867C54.2631 210.269 53.7552 210.581 53.2009 210.784C52.6467 210.987 52.0573 211.076 51.4679 211.047C50.381 211.073 49.3206 210.71 48.4774 210.024C48.0085 209.602 47.6437 209.077 47.4116 208.49C47.1795 207.904 47.0864 207.271 47.1395 206.643C47.096 206.016 47.1781 205.388 47.3808 204.793C47.5835 204.199 47.9028 203.652 48.32 203.182C48.7249 202.788 49.2057 202.48 49.7333 202.277C50.2609 202.075 50.8243 201.981 51.3892 202.003C52.0643 202.005 52.7326 202.138 53.3566 202.396V202.396ZM50.0513 204.362C49.7274 204.736 49.5341 205.205 49.5004 205.699H53.2779C53.2936 205.449 53.2521 205.199 53.1567 204.967C53.0612 204.735 52.9143 204.528 52.727 204.362C52.3553 204.044 51.8783 203.876 51.3892 203.89C50.8988 203.868 50.419 204.037 50.0513 204.362V204.362Z" fill="white"/>
<path d="M59.0231 210.811H56.8196V199.25H59.0231V210.811Z" fill="white"/>
<path d="M60.3611 203.89V202.317H61.5415V199.958H63.7451V202.317H65.0829V203.89H63.7451V208.452C63.7451 208.766 63.7451 209.002 63.8238 209.081C64.095 209.204 64.3923 209.258 64.6894 209.238H65.0829V210.89H64.0599C63.6745 210.96 63.2786 210.947 62.8987 210.852C62.5187 210.757 62.1633 210.582 61.8563 210.339C61.6045 210 61.4918 209.578 61.5415 209.159V203.89H60.3611Z" fill="white"/>
<path d="M68.8604 201.217H66.5781V199.172H68.8604V201.217ZM66.5781 202.239H68.8604V210.811H66.5781V202.239Z" fill="white"/>
<path d="M81.6095 202.317C81.9964 202.479 82.345 202.72 82.6326 203.025C82.8689 203.353 83.0301 203.729 83.1047 204.126C83.1784 204.541 83.2048 204.963 83.1834 205.384V210.811H80.9012V205.384C80.8942 205.089 80.8411 204.798 80.7438 204.519C80.6359 204.328 80.4734 204.174 80.2771 204.076C80.0808 203.978 79.8597 203.94 79.6421 203.969C79.3738 203.936 79.1024 203.996 78.8733 204.139C78.6441 204.282 78.471 204.5 78.3829 204.755C78.2112 205.039 78.1289 205.368 78.1468 205.699V210.811H75.9433V205.699C75.9479 205.326 75.8948 204.955 75.7859 204.598C75.6896 204.392 75.532 204.221 75.3348 204.109C75.1375 203.996 74.9103 203.947 74.6841 203.969C74.4354 203.936 74.1827 203.979 73.9583 204.091C73.734 204.203 73.5483 204.38 73.425 204.598C73.2551 204.911 73.1734 205.264 73.1889 205.62V210.811H70.9854V202.238H73.1102V203.497L73.8972 202.553C74.388 202.233 74.964 202.069 75.5498 202.081C76.1252 202.07 76.694 202.205 77.2024 202.474C77.5077 202.762 77.749 203.11 77.9107 203.497C78.1742 203.039 78.5543 202.659 79.0125 202.396C79.4785 202.173 79.9913 202.065 80.5077 202.081C80.8881 202.076 81.2648 202.156 81.6095 202.317Z" fill="white"/>
<path d="M90.817 202.396C91.4005 202.702 91.9106 203.132 92.3123 203.654C92.6501 204.205 92.8648 204.822 92.9419 205.463C93.0156 206.01 93.0419 206.563 93.0206 207.114H86.8035C86.7875 207.464 86.8582 207.812 87.0092 208.127C87.1602 208.443 87.3869 208.716 87.6691 208.923C88.0495 209.148 88.487 209.257 88.9283 209.238C89.1539 209.262 89.3822 209.24 89.5988 209.172C89.8155 209.104 90.0158 208.993 90.1875 208.845C90.382 208.696 90.5429 208.509 90.6596 208.294H92.9419C92.7934 208.884 92.4952 209.426 92.0762 209.867C91.6502 210.277 91.1431 210.594 90.5875 210.797C90.0319 211 89.44 211.085 88.8496 211.047C87.7627 211.073 86.7023 210.71 85.8591 210.024C84.9934 209.316 84.5999 208.215 84.5999 206.642C84.5565 206.016 84.6385 205.388 84.8412 204.793C85.0439 204.199 85.3632 203.651 85.7804 203.182C86.1677 202.786 86.6342 202.476 87.1496 202.273C87.6649 202.07 88.2174 201.978 88.7709 202.002C89.4716 202.004 90.1657 202.138 90.817 202.396V202.396ZM87.433 204.362C87.1092 204.736 86.9158 205.205 86.8822 205.699H90.7383C90.7445 205.442 90.6908 205.188 90.5815 204.956C90.4722 204.724 90.3104 204.521 90.1088 204.362C89.7303 204.055 89.258 203.888 88.7709 203.888C88.2838 203.888 87.8115 204.055 87.433 204.362V204.362Z" fill="white"/>
</g>
<g clip-path="url(#clip3_521_83)">
<path d="M415.167 189.459C415.552 188.318 415.752 187.123 415.757 185.919C415.783 183.939 415.415 181.974 414.676 180.138C413.936 178.301 412.839 176.63 411.449 175.221C410.058 173.812 408.401 172.694 406.575 171.93C404.748 171.167 402.788 170.774 400.809 170.774C398.996 170.797 397.2 171.13 395.498 171.757C393.331 167.575 389.823 164.24 385.535 162.288C381.248 160.336 376.43 159.878 371.852 160.989C367.274 162.099 363.201 164.714 360.285 168.413C357.369 172.113 355.778 176.684 355.768 181.395C355.801 182.779 355.933 184.159 356.161 185.525C353.364 185.908 350.802 187.298 348.955 189.434C347.109 191.57 346.104 194.306 346.13 197.13C346.107 199.161 346.6 201.165 347.564 202.954C348.527 204.743 349.929 206.258 351.638 207.357C354.778 205.578 358.156 204.254 361.669 203.424C361.669 203.424 357.341 188.475 362.455 187.492C367.569 186.509 368.946 188.082 381.534 186.705C389.794 185.902 398.123 186.166 406.316 187.492C408.676 187.492 408.479 192.409 408.086 195.95C407.901 198.309 407.371 200.628 406.513 202.833C410.869 203.835 415.047 205.493 418.904 207.751C420.292 206.818 421.43 205.559 422.219 204.085C423.007 202.611 423.422 200.965 423.428 199.293C423.593 196.903 422.825 194.542 421.284 192.707C419.743 190.873 417.55 189.708 415.167 189.459" fill="white"/>
<path d="M385.074 211.291C402.382 211.291 417.92 213.651 427.951 219.945C421.461 211.291 404.742 205.194 385.074 205.194C365.405 205.194 348.491 211.094 342 219.749C352.228 213.651 367.766 211.291 385.074 211.291" fill="white"/>
<path d="M628.963 201.063C627.8 202.548 626.322 203.757 624.636 204.604C623.032 205.398 621.187 205.555 619.472 205.044C617.757 204.534 616.299 203.392 615.392 201.85L635.06 193.786C634.773 193.093 634.574 192.366 634.47 191.623C630.93 183.558 623.653 178.051 614.408 181.985C612.51 182.793 610.795 183.976 609.364 185.463C607.934 186.95 606.818 188.71 606.083 190.638C605.349 192.566 605.011 194.622 605.09 196.684C605.168 198.746 605.662 200.77 606.541 202.637V202.637C607.313 204.594 608.475 206.373 609.955 207.868C611.436 209.363 613.204 210.541 615.153 211.332C617.103 212.123 619.193 212.509 621.296 212.468C623.399 212.428 625.472 211.96 627.39 211.094C629.952 209.966 632.236 208.287 634.077 206.177L628.963 201.063ZM616.769 188.279C620.309 186.902 623.456 188.476 625.423 192.016L613.228 196.933C612.441 192.999 613.425 189.852 616.769 188.279" fill="white"/>
<path d="M428.738 192.213C428.659 189.555 429.114 186.908 430.077 184.429C431.04 181.951 432.491 179.691 434.343 177.783C436.196 175.875 438.413 174.359 440.862 173.324C443.311 172.289 445.944 171.756 448.603 171.758C451.459 171.665 454.303 172.178 456.947 173.263C459.591 174.348 461.976 175.98 463.944 178.052L460.797 181.395C459.231 179.663 457.319 178.277 455.185 177.329C453.051 176.38 450.742 175.89 448.406 175.888C439.752 175.888 433.262 182.969 433.262 192.016C433.183 194.073 433.513 196.125 434.234 198.053C434.955 199.981 436.052 201.747 437.461 203.247C438.87 204.748 440.563 205.953 442.442 206.794C444.321 207.635 446.348 208.094 448.406 208.144C450.775 208.171 453.122 207.693 455.292 206.744C457.462 205.794 459.406 204.394 460.994 202.637L463.944 205.391C461.995 207.631 459.572 209.411 456.851 210.602C454.13 211.792 451.178 212.364 448.21 212.275C445.61 212.249 443.041 211.709 440.651 210.684C438.262 209.66 436.099 208.171 434.289 206.306C432.478 204.44 431.055 202.234 430.102 199.815C429.149 197.396 428.686 194.812 428.738 192.213" fill="white"/>
<path d="M472.008 170.578H467.681V211.744H472.008V170.578Z" fill="white"/>
<path d="M475.352 197.13C475.326 195.125 475.699 193.134 476.448 191.274C477.197 189.414 478.309 187.721 479.718 186.294C481.127 184.866 482.805 183.733 484.655 182.96C486.506 182.186 488.491 181.788 490.497 181.788C492.493 181.762 494.474 182.136 496.324 182.887C498.173 183.639 499.853 184.754 501.265 186.165C502.676 187.577 503.791 189.257 504.543 191.106C505.294 192.956 505.668 194.937 505.642 196.933C505.642 200.95 504.046 204.802 501.206 207.642C498.366 210.482 494.513 212.078 490.497 212.078C486.48 212.078 482.628 210.482 479.788 207.642C476.948 204.802 475.352 200.95 475.352 196.933V197.13ZM501.118 196.933C501.171 195.48 500.93 194.031 500.41 192.673C499.89 191.314 499.102 190.075 498.092 189.028C497.082 187.982 495.872 187.15 494.533 186.582C493.194 186.013 491.754 185.721 490.3 185.722C488.872 185.721 487.458 186.008 486.143 186.567C484.828 187.125 483.639 187.942 482.647 188.971C481.656 189.999 480.882 191.217 480.372 192.551C479.862 193.885 479.626 195.309 479.679 196.736V196.736C479.472 198.266 479.594 199.822 480.037 201.301C480.481 202.779 481.236 204.145 482.251 205.308C483.266 206.47 484.519 207.402 485.924 208.041C487.329 208.679 488.855 209.009 490.398 209.009C491.942 209.009 493.468 208.679 494.873 208.041C496.278 207.402 497.531 206.47 498.546 205.308C499.561 204.145 500.316 202.779 500.76 201.301C501.203 199.822 501.325 198.266 501.118 196.736" fill="white"/>
<path d="M508.985 200.67V182.575H513.509V199.49C513.509 204.997 516.263 208.341 521.573 208.341C522.77 208.374 523.96 208.153 525.064 207.692C526.169 207.231 527.163 206.54 527.981 205.667C528.799 204.793 529.422 203.755 529.809 202.623C530.197 201.49 530.339 200.288 530.227 199.097V182.575H534.554V211.685H530.227V206.571C529.246 208.356 527.789 209.834 526.019 210.841C524.248 211.848 522.232 212.344 520.196 212.275C513.116 212.275 508.985 207.554 508.985 200.67Z" fill="white"/>
<path d="M537.505 197.13C537.505 187.689 544.192 181.985 551.273 181.985C553.501 181.987 555.694 182.546 557.652 183.611C559.61 184.675 561.271 186.213 562.484 188.083V170.578H566.811V211.881H562.484V205.981C561.347 207.95 559.713 209.586 557.746 210.725C555.778 211.864 553.546 212.466 551.273 212.471C544.192 212.275 537.505 206.768 537.505 197.13ZM562.484 197.13C562.563 195.703 562.354 194.274 561.868 192.93C561.383 191.586 560.631 190.353 559.657 189.306C558.684 188.259 557.509 187.42 556.204 186.838C554.898 186.256 553.489 185.943 552.059 185.919C546.355 185.919 541.832 190.049 541.832 196.933C541.832 203.817 546.355 208.144 552.059 208.144C553.48 208.094 554.877 207.763 556.17 207.172C557.463 206.581 558.627 205.741 559.595 204.7C560.564 203.659 561.317 202.437 561.813 201.104C562.308 199.771 562.536 198.354 562.484 196.933" fill="white"/>
<path d="M579.988 207.751V211.685H571.531V170.578H579.988V185.919C580.99 184.341 582.391 183.056 584.048 182.192C585.706 181.329 587.562 180.918 589.429 181.002C596.51 181.002 603.197 186.509 603.197 196.54C603.197 206.571 596.707 212.078 589.429 212.078C587.614 212.101 585.817 211.705 584.18 210.92C582.542 210.136 581.108 208.984 579.988 207.554V207.751ZM594.74 196.54C594.74 191.426 591.2 187.886 587.266 187.886C586.215 187.935 585.184 188.195 584.235 188.65C583.286 189.105 582.438 189.746 581.741 190.535C581.044 191.323 580.513 192.244 580.178 193.242C579.843 194.239 579.712 195.294 579.792 196.343C579.711 197.383 579.844 198.428 580.181 199.414C580.517 200.401 581.052 201.309 581.752 202.082C582.451 202.855 583.301 203.477 584.249 203.911C585.197 204.345 586.223 204.58 587.266 204.604C588.299 204.554 589.313 204.3 590.248 203.857C591.184 203.415 592.022 202.792 592.717 202.024C593.411 201.257 593.947 200.36 594.294 199.385C594.641 198.411 594.793 197.377 594.74 196.343" fill="white"/>
<path d="M636.634 196.737C636.634 186.509 643.124 181.002 650.205 181.002C652.028 180.931 653.841 181.306 655.486 182.094C657.131 182.883 658.559 184.06 659.646 185.526V170.578H668.103V211.881H659.646V207.554C658.593 209.069 657.177 210.294 655.528 211.119C653.878 211.944 652.048 212.341 650.205 212.275C643.321 212.275 636.634 206.768 636.634 196.737ZM659.843 196.737C659.843 191.623 656.499 188.083 652.369 188.083C648.238 188.083 645.091 191.426 645.091 196.54C644.916 197.609 644.975 198.704 645.265 199.749C645.555 200.793 646.069 201.761 646.771 202.587C647.472 203.413 648.345 204.077 649.329 204.532C650.312 204.987 651.383 205.222 652.467 205.222C653.551 205.222 654.621 204.987 655.605 204.532C656.589 204.077 657.461 203.413 658.163 202.587C658.865 201.761 659.378 200.793 659.668 199.749C659.958 198.704 660.018 197.609 659.843 196.54" fill="white"/>
<path d="M671.054 207.751L674.594 202.047C677.368 204.186 680.732 205.421 684.232 205.587C686.789 205.587 687.772 204.8 687.772 203.424C687.772 201.457 685.018 200.867 681.478 199.883C677.938 198.9 672.431 196.736 672.431 190.836C672.431 184.739 677.348 181.395 683.445 181.395C687.424 181.417 691.315 182.577 694.656 184.739L691.509 190.639C689.028 189.048 686.188 188.101 683.248 187.886C681.281 187.886 680.298 188.672 680.298 189.852C680.298 191.426 683.051 192.409 686.395 193.393C689.739 194.376 695.639 196.933 695.639 202.44C695.639 209.128 690.526 212.078 684.035 212.078C679.343 211.953 674.807 210.372 671.054 207.554" fill="white"/>
<path d="M698.393 209.521C698.393 208.686 698.724 207.885 699.314 207.295C699.904 206.705 700.705 206.374 701.54 206.374C702.359 206.42 703.132 206.767 703.713 207.347C704.293 207.928 704.64 208.701 704.686 209.521C704.636 210.321 704.283 211.071 703.698 211.62C703.113 212.168 702.341 212.472 701.54 212.471C701.136 212.498 700.731 212.441 700.35 212.305C699.969 212.169 699.62 211.956 699.325 211.679C699.03 211.403 698.795 211.068 698.634 210.697C698.474 210.325 698.392 209.925 698.393 209.521V209.521ZM704.096 209.521C704.096 208.79 703.806 208.09 703.29 207.573C702.774 207.057 702.073 206.767 701.343 206.767C700.981 206.767 700.623 206.838 700.289 206.977C699.955 207.115 699.651 207.318 699.396 207.573C699.14 207.829 698.937 208.133 698.799 208.467C698.661 208.801 698.589 209.159 698.589 209.521C698.589 209.882 698.661 210.24 698.799 210.574C698.937 210.908 699.14 211.212 699.396 211.468C699.651 211.723 699.955 211.926 700.289 212.064C700.623 212.203 700.981 212.274 701.343 212.274C702.073 212.274 702.774 211.984 703.29 211.468C703.806 210.951 704.096 210.251 704.096 209.521V209.521ZM700.163 207.947H702.523C702.72 208.144 702.72 208.34 702.72 208.734C702.72 209.127 702.523 209.717 702.13 209.717L702.72 210.701H701.933L701.146 209.717H700.556V210.701H699.966L700.163 207.947ZM701.54 209.521C701.696 209.521 701.846 209.458 701.957 209.348C702.067 209.237 702.13 209.087 702.13 208.93C702.13 208.774 702.067 208.624 701.957 208.513C701.846 208.403 701.696 208.34 701.54 208.34H700.753V209.324H701.54" fill="white"/>
</g>
<g clip-path="url(#clip4_521_83)">
<path d="M1054.45 145.162C1052.32 154.371 1050 163.074 1048.28 171.878C1047.67 174.948 1047.88 178.124 1048.88 181.087C1051.72 188.677 1055.15 196.166 1058.49 204.16C1037.26 208.512 1021.08 220.756 1005.51 234.418L1018.45 217.721C1013.5 213.976 1008.85 210.434 1004.2 207.095C999.545 203.755 999.849 201.63 1003.19 198.493C1006.52 195.356 1011.68 189.79 1016.53 186.451C1018.76 184.832 1022.9 184.629 1025.63 185.54C1032.61 187.867 1039.38 191.207 1046.16 194.243C1047.57 194.85 1048.78 195.963 1050.5 196.57C1046.26 183.82 1041.61 171.372 1029.67 162.872L1046.46 149.008C1033.92 148.907 1024.62 156.395 1014.41 161.556C1004.2 166.717 1000.25 179.266 993.883 191.106C986.806 163.277 964.967 155.282 942.926 147.389L942.016 148.603L959.305 162.669C948.386 170.563 943.432 181.694 938.781 194.546L952.935 188.475L957.991 186.147C965.068 183.314 971.64 182.2 976.999 189.891C979.324 193.231 982.762 195.862 985.795 198.696C988.828 201.529 988.525 204.16 985.289 206.589C980.436 210.131 975.684 213.774 970.629 217.619L983.166 234.114C967.697 220.756 951.722 208.512 930.49 204.363C933.523 196.975 936.759 189.993 939.185 182.808C940.411 179.093 940.791 175.152 940.297 171.271C938.882 162.568 936.657 153.966 934.433 143.746C940.803 145.061 946.465 145.668 951.722 147.389C959.608 149.817 967.09 150.829 975.482 148.198C989.738 143.948 1004.2 145.264 1018.55 149.21C1022.03 150.105 1025.67 150.14 1029.17 149.311C1037.46 147.692 1045.14 143.24 1054.45 145.162Z" fill="white"/>
<path d="M1000.76 230.269C1000.72 231.178 1000.5 232.07 1000.11 232.891C999.721 233.713 999.17 234.448 998.491 235.052C997.812 235.657 997.018 236.118 996.157 236.409C995.296 236.7 994.385 236.814 993.479 236.746C989.738 236.442 986.705 233.406 986.907 229.965C987.413 224.096 991.962 226.525 994.995 226.221C998.029 225.918 1001.06 225.715 1000.76 230.269Z" fill="white"/>
</g>
<g clip-path="url(#clip5_521_83)">
<path d="M114.637 353.206H109.281V315.329C112.243 314.321 114.133 315.203 115.898 317.535C122.011 325.665 128.313 333.732 134.616 341.925V315.203H139.972V353.016C137.262 353.836 135.624 353.332 133.859 350.685C128.061 341.609 121.759 332.849 115.646 323.963L114.637 324.404V353.206Z" fill="white"/>
<path d="M0 351.567L1.26045 348.101C5.79805 348.605 9.89451 349.55 13.9279 349.424C18.9697 349.235 21.5536 346.084 20.0411 342.176C19.4109 340.349 17.4572 338.71 15.6926 337.639C12.9196 336.063 9.70544 335.181 6.80641 333.794C2.20578 331.589 0.252089 327.807 0.945335 323.144C1.63858 318.48 4.66365 315.203 9.76846 314.384C14.8733 313.564 19.5369 313.879 24.3896 316.274L23.0662 319.867C19.2218 319.488 15.5665 318.732 12.0373 318.921C7.18455 319.173 4.85272 323.648 7.43663 327.24C8.21404 328.195 9.20782 328.951 10.3357 329.446C13.3607 330.895 16.5118 332.156 19.5369 333.542C24.5787 336 26.6584 340.034 25.9022 345.832C25.398 349.676 22.2469 352.827 17.2051 353.71C12.1633 354.592 5.79805 354.403 0 351.567Z" fill="white"/>
<path d="M271.626 324.656C274.084 324.341 276.038 323.963 278.054 323.9C285.05 323.774 289.083 326.925 289.776 333.795C290.281 338.9 289.966 344.193 290.029 349.361V353.206H284.924C284.924 350.054 284.924 346.903 284.861 343.689C284.946 340.682 284.84 337.671 284.546 334.677C283.915 329.887 281.647 328.249 276.857 328.501C272.067 328.753 271.752 328.816 271.752 333.921V353.143H266.71C266.647 351.945 266.521 350.874 266.521 349.739V315.014C266.521 310.413 266.584 310.413 271.626 310.981V324.656Z" fill="white"/>
<path d="M202.68 338.332C202.554 350.118 193.604 357.05 184.025 353.08C181.315 351.945 178.416 349.361 177.282 346.714C175.854 343.159 175.355 339.298 175.832 335.496C176.651 328.312 181.882 323.9 188.689 323.774C195.495 323.648 200.726 327.808 202.302 335.118C202.554 336.442 202.617 337.828 202.68 338.332ZM197.26 338.648C197.094 337.163 196.842 335.69 196.503 334.236C195.369 330.392 192.722 328.312 189.004 328.375C185.286 328.438 182.071 330.518 181.567 334.299C181.018 337.76 181.168 341.296 182.008 344.698C183.143 349.109 187.995 350.748 192.218 348.857C196.44 346.966 196.882 343.122 197.26 338.648Z" fill="white"/>
<path d="M68.8833 335.433C69.4505 330.707 67.3708 328.186 62.203 328.249C59.9342 328.312 57.6653 328.69 55.4596 328.879C54.3252 324.972 54.3882 324.908 57.9174 324.215C58.4363 324.096 58.9627 324.011 59.493 323.963C69.4505 323.018 74.5553 325.728 74.2402 336.631C74.0512 341.231 74.1142 345.832 74.2402 350.433C74.3032 352.323 73.736 353.332 71.6563 353.332C67.0557 353.332 62.455 353.836 57.9805 353.269C53.5059 352.701 51.9303 349.739 51.6152 345.832C51.3001 341.925 53.0017 338.395 56.9091 337.198C60.8165 336 64.5978 336.063 68.8833 335.433ZM69.5766 344.508C69.1354 343.374 68.6312 340.664 67.875 340.601C64.9383 340.23 61.9566 340.466 59.1149 341.294C56.72 341.988 56.4049 344.508 57.2872 346.777C58.1695 349.046 62.6441 350.433 67.3708 349.613C70.5219 348.983 68.5682 346.588 69.5766 344.508V344.508Z" fill="white"/>
<path d="M77.2654 324.845C83.1895 324.089 83.1265 324.152 84.513 328.248C86.6557 334.614 88.9245 340.916 91.1303 347.281H92.3277C94.0293 341.105 95.794 334.929 97.4325 328.689C98.63 324.278 98.5039 324.215 103.735 324.845C102.474 329.446 101.403 334.109 99.8904 338.584C97.9367 344.256 95.6679 349.865 93.4621 355.474C92.7167 357.724 91.3723 359.728 89.5736 361.271C87.7748 362.815 85.5895 363.839 83.2525 364.234C81.4879 364.612 79.5342 363.73 77.2654 363.415C77.5805 361.839 77.8326 360.642 78.0847 359.255C79.2283 359.484 80.3866 359.631 81.5509 359.696C87.0969 359.949 89.9959 355.663 87.8531 350.684C84.3239 342.239 80.9207 333.731 77.2654 324.845Z" fill="white"/>
<path d="M209.549 324.593H214.402V331.148C214.465 335.055 214.339 339.025 214.591 342.996C214.969 348.416 222.217 351.882 226.691 348.794C227.258 348.353 227.448 346.966 227.448 346.021C227.511 340.034 227.448 334.11 227.448 328.186V324.656H232.237C232.424 325.337 232.551 326.033 232.615 326.736C232.615 334.551 232.552 342.366 232.615 350.18C232.678 352.008 232.111 353.016 230.284 353.142C226.565 353.457 222.784 354.025 219.066 353.899C213.898 353.71 209.99 350.432 209.675 345.517C209.234 338.647 209.549 331.778 209.549 324.593Z" fill="white"/>
<path d="M163.102 353.205H157.682V342.176C157.682 336 157.682 329.824 157.619 323.711C157.619 319.551 157.619 319.551 153.333 319.551L146.401 319.425C146.13 319.371 145.873 319.264 145.645 319.11V315.14H175.013V319.488H163.102V353.205Z" fill="white"/>
<path d="M36.5529 315.455V324.341H47.3928V328.816H36.868C36.868 334.677 36.679 340.286 36.9941 345.832C37.1201 348.542 39.515 349.55 42.0359 349.487C43.8812 349.316 45.713 349.021 47.5188 348.605C49.2204 352.449 49.0944 352.701 45.187 353.647C36.805 355.663 31.7002 352.134 31.4481 343.689C31.196 335.244 31.3851 326.988 31.3221 318.669C31.3221 315.014 34.1581 316.337 36.5529 315.455Z" fill="white"/>
<path d="M260.597 348.667C261.606 352.953 261.606 352.953 257.887 353.709C250.388 355.222 244.212 352.827 241.25 347.344C238.287 341.861 238.981 332.156 243.896 327.24C247.615 323.521 255.303 322.639 260.849 325.475L259.841 329.257C254.862 328.374 249.821 326.862 246.606 332.029C243.392 337.197 243.833 341.357 246.543 345.705C250.01 351.188 255.43 349.55 260.597 348.667Z" fill="white"/>
</g>
<g clip-path="url(#clip6_521_83)">
<path d="M418.092 336.505C421.621 326.926 426.033 323.207 435.738 321.695C435.423 324.405 435.36 326.611 432.02 327.808C424.394 330.455 421.306 337.072 424.394 343.185C426.159 346.589 429.184 348.605 432.776 349.74C443.805 353.395 453.321 350.181 461.955 343.185L464.35 341.043C464.876 341.617 465.36 342.228 465.8 342.87C466.241 343.564 466.619 344.257 466.997 344.95C458.111 355.349 441.662 359.13 429.373 353.773C423.512 351.252 419.856 346.841 418.092 340.854V336.505Z" fill="white"/>
<path d="M525.797 325.413L523.339 327.619C519.81 326.484 516.659 324.972 513.382 324.594C508.025 324.026 503.424 326.169 500.777 331.085C498.13 336.001 498.508 340.349 501.47 344.635C504.432 348.92 509.537 350.811 515.02 350.118C520.503 349.424 520.629 348.731 520.629 343.626V337.261H525.482C525.482 341.358 525.545 345.391 525.419 349.424C525.359 349.821 525.215 350.2 524.998 350.536C524.781 350.873 524.495 351.16 524.158 351.378C518.171 356.105 506.512 355.79 500.336 350.811C494.16 345.832 492.269 336.505 496.113 329.005C501.407 318.733 517.73 316.527 525.797 325.413Z" fill="white"/>
<path d="M477.144 331.337C473.803 328.879 472.48 327.051 473.236 323.648C474.245 318.984 472.795 314.699 468.573 311.926C464.35 309.153 459.686 309.846 455.653 312.619C446.641 318.921 443.616 327.933 444.246 338.458C444.372 340.79 444.876 343.122 445.191 345.454C440.465 346.588 440.15 346.336 439.519 341.861C437.755 330.202 440.528 319.993 448.973 311.548C452.691 307.892 457.04 305.308 462.522 305.245C471.03 305.119 478.215 311.674 478.404 320.056C478.467 323.585 477.648 327.177 477.144 331.337Z" fill="white"/>
<path d="M447.397 361.525C451.116 359.76 453.384 359.508 456.031 361.84C459.75 365.117 464.413 366.062 469.077 363.478C473.741 360.895 475.316 356.546 474.434 351.126C472.606 339.656 465.485 332.534 455.023 328.312L452.943 327.619L451.179 326.989C452.061 322.388 452.628 322.01 456.788 323.711C468.636 328.375 476.829 336.379 479.097 349.235C480.61 357.617 477.774 364.298 471.598 367.827C465.422 371.356 457.985 370.159 451.62 364.739C450.422 363.731 449.162 362.848 447.397 361.525Z" fill="white"/>
<path d="M704.15 347.407L706.419 350.054C704.087 355.096 694.004 355.726 689.088 353.08C683.164 349.865 680.643 342.681 683.353 336.126C686.063 329.572 692.68 326.862 699.423 328.816C706.167 330.77 709.129 336.442 707.931 343.059H687.764C688.395 350.37 696.461 352.512 704.15 347.407ZM687.449 339.341H703.394C702.385 334.866 699.612 332.471 695.642 332.345C691.672 332.219 688.584 334.677 687.449 339.341Z" fill="white"/>
<path d="M574.828 328.69C568.463 326.926 561.657 330.077 559.199 335.875C556.741 341.673 558.758 349.362 564.178 352.702C569.597 356.042 579.366 355.349 582.265 350.181L579.996 347.597C571.866 352.324 563.925 350.244 563.61 343.185H583.777C584.723 336.001 581.131 330.455 574.828 328.69ZM563.673 339.404C563.421 335.686 566.32 332.787 570.669 332.472C575.017 332.157 578.673 334.993 578.925 339.404H563.673Z" fill="white"/>
<path d="M549.556 351.189C546.279 354.277 542.939 354.845 539.22 354.593C535.502 354.341 530.523 351.126 530.208 346.589C529.767 340.728 530.082 334.804 530.082 328.69H534.809C534.809 333.606 534.683 338.459 534.809 343.312C534.998 349.299 540.418 352.261 545.712 349.362C548.611 347.723 549.493 345.013 549.493 341.925C549.619 337.577 549.556 333.228 549.556 328.69H554.22V354.341C552.266 354.088 549.367 356.231 549.556 351.189Z" fill="white"/>
<path d="M653.921 328.501H658.27C658.522 329.384 658.774 330.203 659.026 331.211L660.16 330.644C664.194 327.871 668.479 327.493 672.954 329.257C676.105 330.518 678.185 333.039 678.311 336.379C678.626 342.24 678.374 348.164 678.374 354.277H673.836V346.147C673.911 343.645 673.827 341.14 673.584 338.648C673.206 334.866 671.252 332.976 667.975 332.724C663.564 332.346 660.223 334.11 659.467 337.829C658.711 341.547 659.026 344.005 658.9 347.093C658.774 350.181 658.9 351.63 658.9 354.214H653.921V328.501V328.501Z" fill="white"/>
<path d="M586.802 351.694C587.559 350.244 588.189 349.173 588.504 348.605C592.285 349.173 595.689 349.866 599.155 350.307C600.193 350.434 601.243 350.189 602.117 349.614C602.936 349.047 603.819 347.975 603.882 347.03C603.945 346.085 602.936 345.076 602.18 344.824C599.974 344.131 597.705 343.816 595.5 343.312C592.033 342.492 588.567 341.673 587.874 337.451C587.181 333.228 589.134 330.392 593.231 329.132C598.273 327.556 603.125 328.06 608.167 330.581L606.528 333.669C602.936 333.291 599.659 332.661 596.445 332.85C595.121 332.913 593.924 334.741 592.727 335.812C593.798 336.883 594.743 338.396 596.067 338.837C598.399 339.719 600.983 339.782 603.44 340.476C607.096 341.484 608.923 343.627 609.049 346.715C609.175 349.803 607.222 352.639 603.755 353.71C600.955 354.639 597.984 354.939 595.054 354.591C592.124 354.242 589.307 353.253 586.802 351.694V351.694Z" fill="white"/>
<path d="M616.99 332.787L612.705 332.408V328.69L616.738 328.312C616.864 326.547 617.053 324.846 617.179 322.955H621.717C621.78 324.72 621.906 326.358 621.969 328.375H629.217V332.408L621.906 332.724C621.906 337.576 621.78 342.24 621.969 346.841C622.032 349.487 623.86 350.685 626.444 350.37C627.464 350.22 628.474 350.01 629.469 349.74C631.422 352.954 630.918 354.025 627.2 354.529C620.646 355.475 617.053 352.387 616.99 345.769C616.927 341.547 616.99 337.324 616.99 332.787Z" fill="white"/>
<path d="M639.3 354.34H634.699V318.48H639.3V354.34Z" fill="white"/>
<path d="M644.657 328.501H648.943V354.34H644.657V328.501Z" fill="white"/>
<path d="M647.304 317.094C648.249 318.165 649.699 319.237 649.951 320.434C650.045 320.876 650.027 321.334 649.898 321.767C649.77 322.2 649.536 322.594 649.216 322.914C648.897 323.233 648.503 323.467 648.07 323.596C647.637 323.724 647.178 323.742 646.737 323.648C645.539 323.459 643.838 321.883 643.649 320.686C643.46 319.489 645.098 318.291 645.854 317.094H647.304Z" fill="white"/>
</g>
<g clip-path="url(#clip7_521_83)">
<path d="M1052.15 340.437C1051.42 335.598 1045.61 335.32 1041.78 335.111C1041.78 335.111 1025.94 334.693 1024.27 334.623C1022.81 334.554 1021.1 334.275 1020.93 332.639C1020.75 330.933 1022.32 330.133 1023.71 329.82C1026.53 329.228 1029.35 329.158 1032.14 329.158C1038.26 329.158 1043.9 329.82 1049.89 330.933L1050.55 326.164V326.13C1046.06 325.294 1039.83 324.319 1033.22 324.319C1030.33 324.319 1027.4 324.493 1024.55 324.842C1021.41 325.259 1017.97 325.99 1016.3 328.183C1014.87 330.063 1014.73 333.231 1015.6 335.389C1017.1 339.114 1022.39 339.253 1025.66 339.393C1025.66 339.393 1041.61 339.845 1043.28 339.915C1044.74 339.984 1046.44 340.263 1046.62 341.969C1046.76 343.466 1045.75 344.58 1043.69 344.997C1040.98 345.554 1038.09 345.624 1035.3 345.624C1028.52 345.624 1022.53 344.928 1015.67 343.849L1015.11 348.687C1021.41 349.975 1027.85 350.602 1034.29 350.672H1034.4C1037.32 350.672 1040.28 350.672 1043.17 350.254C1045.71 349.871 1048.39 349.314 1050.41 347.573C1052.33 345.833 1052.5 342.874 1052.15 340.437ZM866.017 344.162L850.178 324.459H843.424V350.497H849.377V332.465L862.571 348.861C864.416 351.194 867.583 351.194 869.428 348.861L882.622 332.465V350.497H888.575V324.459H881.821L866.017 344.162ZM938.39 324.493H903.752V350.532H938.668L939.538 345.276H909.705V340.158H937.206V334.902H909.705V329.785H938.355V324.493H938.39ZM995.863 350.497L1006.72 324.493H1000.56L992.243 344.405L982.461 326.861C981.103 324.493 978.075 323.693 975.707 325.05C974.942 325.468 974.315 326.095 973.897 326.861L964.115 344.405L955.795 324.493H949.669L960.53 350.497H966.831L978.179 329.959L989.528 350.497H995.863Z" fill="white"/>
</g>
<g clip-path="url(#clip8_521_83)">
<path d="M17.7506 484.615C13.7994 484.615 10.497 486.826 8.55094 488.477V487.062C8.54332 486.548 8.33584 486.058 7.97252 485.694C7.6092 485.331 7.11863 485.124 6.60487 485.116H1.94607C1.43231 485.124 0.94174 485.331 0.578418 485.694C0.215095 486.058 0.0076125 486.548 0 487.062V526.131C0.0076125 526.645 0.215095 527.135 0.578418 527.499C0.94174 527.862 1.43231 528.069 1.94607 528.077H6.60487C7.11863 528.069 7.6092 527.862 7.97252 527.499C8.33584 527.135 8.54332 526.645 8.55094 526.131V513.216C10.8508 515.722 14.4187 517.108 18.8416 517.108C25.24 517.108 29.1616 508.528 29.1616 499.505C29.1616 490.482 24.0311 484.615 17.7506 484.615ZM20.4928 503.869C19.5787 509.353 16.748 510.621 14.5366 510.621C13.0328 510.621 10.497 508.646 8.55094 505.815V495.849C9.75986 494.257 12.3251 491.455 15.6571 491.455C20.2864 491.455 21.4068 498.414 20.4928 503.869Z" fill="white"/>
<path d="M52.2197 485.175C51.63 484.88 50.598 484.585 48.7699 484.526C45.7623 484.438 43.6393 487.21 42.7547 488.655V486.885C42.7547 486.408 42.5652 485.951 42.2279 485.614C41.8906 485.276 41.4331 485.087 40.9561 485.087H36.3563C35.8792 485.087 35.4217 485.276 35.0844 485.614C34.7471 485.951 34.5576 486.408 34.5576 486.885V515.044C34.5576 515.279 34.6043 515.512 34.695 515.728C34.7858 515.945 34.9187 516.141 35.0862 516.306C35.2536 516.471 35.4521 516.6 35.6702 516.688C35.8882 516.775 36.1215 516.818 36.3563 516.814H40.9561C41.428 516.814 41.8811 516.628 42.2176 516.297C42.5541 515.966 42.747 515.516 42.7547 515.044V496.822C43.5206 494.985 44.9684 493.516 46.7943 492.724C48.2391 492.045 50.0378 492.281 51.3057 492.635C51.5021 492.696 51.7101 492.709 51.9127 492.674C52.1152 492.638 52.3065 492.555 52.4706 492.431C52.6348 492.308 52.7671 492.147 52.8568 491.962C52.9465 491.776 52.9909 491.573 52.9864 491.367V486.414C52.9861 486.156 52.9143 485.904 52.7789 485.686C52.6435 485.467 52.4498 485.29 52.2197 485.175V485.175Z" fill="white"/>
<path d="M70.7958 484.261H68.9972C67.0586 484.261 65.1391 484.644 63.3485 485.386C61.5578 486.129 59.9313 487.218 58.5619 488.59C57.1925 489.962 56.1071 491.591 55.3679 493.383C54.6288 495.175 54.2503 497.095 54.2542 499.034V502.602C54.2503 504.54 54.6288 506.46 55.3679 508.252C56.1071 510.045 57.1925 511.673 58.5619 513.045C59.9313 514.418 61.5578 515.506 63.3485 516.249C65.1391 516.992 67.0586 517.374 68.9972 517.374H70.7958C72.7358 517.374 74.6567 516.992 76.449 516.25C78.2413 515.507 79.8698 514.419 81.2415 513.047C82.6133 511.675 83.7014 510.047 84.4438 508.255C85.1862 506.462 85.5683 504.541 85.5683 502.602V499.034C85.5683 495.116 84.0119 491.358 81.2415 488.588C78.4712 485.818 74.7137 484.261 70.7958 484.261ZM77.3712 504.046C77.3712 505.861 76.6505 507.601 75.3676 508.883C74.0847 510.166 72.3447 510.887 70.5304 510.887H69.2626C67.4534 510.879 65.721 510.155 64.4445 508.873C63.1679 507.591 62.4513 505.856 62.4513 504.046V498.031C62.4513 497.137 62.6275 496.251 62.9698 495.425C63.3121 494.598 63.8138 493.847 64.4463 493.215C65.0787 492.582 65.8296 492.081 66.656 491.738C67.4824 491.396 68.3681 491.22 69.2626 491.22H70.5304C71.4274 491.216 72.3163 491.389 73.1461 491.73C73.9758 492.07 74.7302 492.572 75.3658 493.204C76.0014 493.837 76.5058 494.589 76.8499 495.418C77.194 496.246 77.3712 497.134 77.3712 498.031V504.046Z" fill="white"/>
<path d="M104.144 485.441H97.4807V479.19C97.4807 478.702 97.2891 478.234 96.947 477.886C96.605 477.539 96.1401 477.34 95.6525 477.332H91.1707C90.6831 477.34 90.2182 477.539 89.8762 477.886C89.5341 478.234 89.3425 478.702 89.3425 479.19V510.71C89.3425 512.384 90.0073 513.989 91.1907 515.172C92.374 516.355 93.979 517.02 95.6525 517.02H95.8884C96.7435 516.961 99.6921 516.755 101.933 516.755H102.022C102.796 516.732 103.531 516.408 104.07 515.852C104.61 515.296 104.911 514.551 104.911 513.777V510.238C104.911 510.128 104.886 510.018 104.836 509.92C104.786 509.821 104.714 509.735 104.625 509.669C104.536 509.603 104.433 509.559 104.324 509.54C104.215 509.521 104.103 509.528 103.997 509.56C102.78 509.91 101.518 510.079 100.252 510.061C98.2473 510.061 97.6576 507.732 97.4807 506.169V491.898H104.144C104.442 491.898 104.727 491.78 104.937 491.57C105.147 491.36 105.265 491.075 105.265 490.778V486.561C105.265 486.264 105.147 485.979 104.937 485.769C104.727 485.559 104.442 485.441 104.144 485.441V485.441Z" fill="white"/>
<path d="M123.694 484.261H121.895C117.977 484.261 114.22 485.818 111.449 488.588C108.679 491.358 107.123 495.116 107.123 499.034V502.602C107.123 504.541 107.505 506.462 108.247 508.255C108.989 510.047 110.078 511.675 111.449 513.047C112.821 514.419 114.45 515.507 116.242 516.25C118.034 516.992 119.955 517.374 121.895 517.374H123.694C126.104 517.375 128.478 516.785 130.607 515.653C132.735 514.522 134.553 512.886 135.901 510.887C136 510.749 136.058 510.586 136.069 510.416C136.08 510.247 136.044 510.078 135.964 509.928C135.885 509.778 135.765 509.653 135.618 509.567C135.472 509.481 135.304 509.438 135.134 509.442H131.36C130.21 510.356 124.991 510.887 123.428 510.887H122.16C120.346 510.887 118.606 510.166 117.323 508.883C116.04 507.601 115.32 505.861 115.32 504.046V503.545H138.407C138.437 503.221 138.437 502.926 138.437 502.602V499.034C138.441 497.095 138.062 495.175 137.323 493.383C136.584 491.591 135.498 489.962 134.129 488.59C132.76 487.218 131.133 486.129 129.342 485.386C127.552 484.644 125.632 484.261 123.694 484.261V484.261ZM122.16 491.22H123.428C125.17 491.217 126.847 491.882 128.114 493.078C129.381 494.273 130.142 495.909 130.24 497.648H115.349C115.447 495.909 116.208 494.273 117.475 493.078C118.742 491.882 120.418 491.217 122.16 491.22V491.22Z" fill="white"/>
<path d="M147.518 471.317H143.449C142.326 471.317 141.415 472.228 141.415 473.351V514.788C141.415 515.912 142.326 516.823 143.449 516.823H147.518C148.642 516.823 149.553 515.912 149.553 514.788V473.351C149.553 472.228 148.642 471.317 147.518 471.317Z" fill="white"/>
<path d="M161.878 432.159L161.731 432.572C162.135 432.884 162.558 433.17 162.999 433.427C169.574 436.671 173.112 442.067 174.233 449.202C174.365 449.817 174.553 450.419 174.793 451.001L175.383 451.207L176.798 449.379C180.366 444.543 183.934 439.737 187.472 434.872C187.944 434.223 188.121 433.398 188.445 432.69C187.678 432.484 186.912 432.1 186.116 432.1C178.597 432.041 171.048 432.071 163.5 432.071C162.94 432.071 162.409 432.13 161.878 432.159Z" fill="white"/>
<path d="M163.411 476.654C163.352 476.801 163.323 476.948 163.264 477.096C163.831 477.402 164.382 477.736 164.915 478.098C167.038 479.72 169.368 481.136 171.196 483.023C173.849 485.794 175.029 489.333 175.737 493.077C175.884 493.903 176.267 494.729 176.533 495.554H177.152C177.312 495.278 177.489 495.012 177.683 494.758C181.486 489.598 185.319 484.497 189.094 479.337C189.536 478.688 189.713 477.863 190.008 477.125C189.241 476.919 188.474 476.565 187.678 476.565C180.159 476.506 172.611 476.536 165.063 476.536C164.502 476.565 163.972 476.624 163.411 476.654Z" fill="white"/>
<path d="M208.23 451.089H208.879C209.372 450.617 209.834 450.115 210.265 449.585C213.98 444.602 217.695 439.619 221.351 434.606C221.735 434.076 221.794 433.368 222.03 432.719C221.322 432.513 220.644 432.13 219.936 432.13C212.24 432.071 204.574 432.1 196.878 432.1C196.336 432.11 195.794 432.149 195.256 432.218L194.961 432.601C203.188 436.051 207.198 442.509 208.23 451.089Z" fill="white"/>
<path d="M144.688 454.51C147.135 456.161 149.406 457.429 151.322 459.08C155.008 462.235 156.63 466.54 157.544 471.169C157.662 471.818 158.045 472.408 158.31 473.027C158.812 472.643 159.49 472.378 159.844 471.877C163.559 466.982 167.235 462.058 170.871 457.104C171.314 456.485 171.432 455.63 171.697 454.922C170.989 454.745 170.282 454.392 169.544 454.392H146.693C146.133 454.392 145.572 454.451 144.688 454.51Z" fill="white"/>
<path d="M192.131 473.616C193.074 472.791 193.782 472.378 194.224 471.788C197.881 466.933 201.498 462.048 205.075 457.134C205.517 456.515 205.635 455.659 205.901 454.922C205.193 454.745 204.456 454.421 203.748 454.392H181.103C180.513 454.392 179.924 454.48 179.334 454.51C179.215 454.67 179.107 454.837 179.01 455.011C187.148 458.372 191.069 464.712 192.131 473.616Z" fill="white"/>
<path d="M161.878 432.159C162.409 432.13 162.94 432.071 163.5 432.071C171.048 432.071 178.597 432.041 186.116 432.1C186.912 432.1 187.678 432.484 188.445 432.69C188.121 433.398 187.944 434.223 187.472 434.872C183.934 439.737 180.366 444.543 176.798 449.379L175.383 451.207L174.793 451.001C174.553 450.419 174.365 449.817 174.233 449.202C173.112 442.067 169.574 436.671 162.999 433.427C162.558 433.17 162.135 432.884 161.731 432.572L161.878 432.159Z" fill="white"/>
<path d="M163.411 476.654C163.972 476.624 164.502 476.565 165.063 476.565C172.611 476.565 180.159 476.536 187.678 476.595C188.474 476.595 189.241 476.949 190.008 477.155C189.713 477.892 189.536 478.718 189.094 479.367C185.319 484.527 181.486 489.628 177.683 494.788C177.489 495.042 177.312 495.307 177.152 495.584H176.533C176.267 494.758 175.884 493.933 175.737 493.107C175.029 489.362 173.849 485.824 171.196 483.052C169.368 481.165 167.038 479.75 164.915 478.128C164.382 477.766 163.831 477.432 163.264 477.126C163.323 476.949 163.352 476.801 163.411 476.654Z" fill="white"/>
<path d="M208.23 451.089C207.198 442.509 203.188 436.051 194.961 432.572L195.256 432.189C195.794 432.12 196.336 432.081 196.878 432.071C204.574 432.071 212.24 432.041 219.936 432.1C220.644 432.1 221.322 432.484 222.03 432.69C221.794 433.339 221.735 434.046 221.351 434.577C217.695 439.59 213.98 444.573 210.265 449.556C209.834 450.086 209.372 450.588 208.879 451.06L208.23 451.089Z" fill="white"/>
<path d="M144.688 454.51C145.572 454.451 146.133 454.392 146.693 454.392H169.544C170.282 454.392 170.989 454.745 171.697 454.922C171.432 455.63 171.314 456.485 170.871 457.104C167.254 462.058 163.578 466.982 159.844 471.877C159.49 472.378 158.812 472.643 158.31 473.027C158.045 472.408 157.662 471.818 157.544 471.169C156.63 466.54 155.008 462.235 151.322 459.08C149.406 457.429 147.135 456.161 144.688 454.51Z" fill="white"/>
<path d="M192.131 473.616C191.069 464.712 187.148 458.372 179.01 455.011C179.107 454.837 179.215 454.67 179.334 454.51C179.924 454.48 180.513 454.392 181.103 454.392H203.748C204.456 454.421 205.193 454.745 205.901 454.922C205.635 455.659 205.517 456.515 205.075 457.134C201.517 462.028 197.9 466.913 194.224 471.788C193.782 472.378 193.074 472.791 192.131 473.616Z" fill="white"/>
</g>
<path fill-rule="evenodd" clip-rule="evenodd" d="M601.521 513.257C601.521 513.427 601.53 513.544 601.562 513.593C601.59 513.638 601.643 513.655 601.75 513.66L601.965 513.674V513.809C601.528 513.791 601.09 513.791 600.652 513.809V513.674L600.867 513.66C600.976 513.655 601.029 513.638 601.056 513.593C601.087 513.544 601.096 513.427 601.096 513.257V511.245C601.096 511.074 601.087 510.957 601.056 510.908C601.029 510.863 600.976 510.85 600.867 510.841L600.683 510.828V510.692C600.922 510.697 601.182 510.706 601.446 510.706C601.71 510.706 601.97 510.697 602.231 510.692C602.947 510.679 603.136 511.043 603.136 511.365C603.136 511.853 602.697 512.145 602.262 512.23L603.28 513.558C603.347 513.647 603.445 513.665 603.553 513.674V513.809C603.437 513.804 603.333 513.795 603.229 513.795C603.127 513.795 603.029 513.804 602.925 513.809C602.868 513.725 602.799 513.647 602.741 513.567L601.916 512.459C601.845 512.361 601.759 512.276 601.683 512.181L601.71 512.128C601.831 512.137 601.97 512.133 602.105 512.111C602.419 512.058 602.688 511.814 602.688 511.483C602.688 510.998 602.329 510.865 601.98 510.865C601.778 510.865 601.647 510.887 601.521 510.918V513.257V513.257Z" fill="white"/>
<path fill-rule="evenodd" clip-rule="evenodd" d="M602.034 515.551C602.904 515.551 603.726 515.211 604.341 514.595C604.956 513.979 605.297 513.16 605.297 512.287C605.298 511.859 605.214 511.434 605.05 511.039C604.886 510.643 604.645 510.283 604.341 509.981C604.039 509.677 603.679 509.436 603.283 509.272C602.887 509.108 602.462 509.024 602.034 509.026C601.169 509.027 600.34 509.371 599.728 509.982C599.117 510.594 598.773 511.423 598.772 512.287C598.772 513.16 599.111 513.979 599.728 514.595C600.344 515.21 601.162 515.551 602.034 515.551ZM599.412 512.287C599.412 511.587 599.684 510.928 600.18 510.434C600.674 509.939 601.334 509.665 602.034 509.665C602.733 509.665 603.393 509.938 603.888 510.434C604.132 510.677 604.326 510.966 604.458 511.284C604.589 511.602 604.657 511.943 604.655 512.287C604.655 512.983 604.379 513.649 603.887 514.141C603.395 514.633 602.729 514.909 602.034 514.909C601.689 514.91 601.348 514.843 601.03 514.711C600.712 514.58 600.423 514.386 600.18 514.142C599.936 513.899 599.742 513.61 599.61 513.292C599.478 512.973 599.41 512.632 599.412 512.287V512.287ZM472.525 520.964C472.525 521.482 472.552 521.835 472.647 521.985C472.728 522.122 472.892 522.175 473.218 522.189L473.871 522.23V522.638C473.214 522.612 472.556 522.598 471.899 522.597C471.232 522.597 470.593 522.612 469.885 522.638V522.23L470.538 522.189C470.865 522.175 471.028 522.122 471.109 521.985C471.204 521.835 471.232 521.482 471.232 520.964V517.931C470.856 517.909 470.479 517.9 470.103 517.904H466.922C466.323 517.904 465.956 517.918 465.793 517.931V520.964C465.793 521.482 465.82 521.835 465.916 521.985C465.997 522.122 466.16 522.175 466.486 522.189L467.139 522.23V522.638C466.482 522.612 465.824 522.598 465.166 522.597C464.5 522.597 463.86 522.612 463.153 522.638V522.23L463.806 522.189C464.132 522.175 464.296 522.122 464.377 521.985C464.472 521.835 464.499 521.482 464.499 520.964V514.858C464.499 514.341 464.472 513.987 464.377 513.836C464.296 513.701 464.132 513.647 463.806 513.633L463.153 513.591V513.185C463.86 513.211 464.499 513.225 465.166 513.225C465.792 513.225 466.431 513.211 467.139 513.185V513.591L466.486 513.633C466.159 513.647 465.997 513.701 465.916 513.836C465.82 513.986 465.793 514.341 465.793 514.858V517.28C465.956 517.293 466.323 517.306 466.922 517.306H470.104C470.703 517.306 471.07 517.293 471.233 517.28V514.858C471.233 514.341 471.206 513.987 471.111 513.836C471.03 513.701 470.866 513.647 470.54 513.633L469.887 513.591V513.185C470.594 513.211 471.233 513.225 471.9 513.225C472.526 513.225 473.165 513.211 473.873 513.185V513.591L473.22 513.633C472.893 513.647 472.73 513.701 472.649 513.836C472.554 513.986 472.526 514.341 472.526 514.858V520.964H472.525V520.964ZM480.726 517.918C480.726 515.116 482.684 512.954 485.84 512.954C488.75 512.954 490.818 514.586 490.818 517.605C490.818 520.53 488.533 522.87 485.554 522.87C482.794 522.869 480.726 520.964 480.726 517.918V517.918ZM482.181 517.415C482.181 519.795 483.297 522.299 485.989 522.299C488.261 522.299 489.363 520.53 489.363 518.028C489.363 515.335 488.153 513.526 485.622 513.526C483.256 513.525 482.181 515.184 482.181 517.415V517.415ZM510.256 520.964C510.256 521.482 510.283 521.835 510.379 521.985C510.46 522.122 510.623 522.175 510.949 522.189L511.602 522.23V522.638C510.945 522.612 510.287 522.598 509.63 522.597C508.963 522.597 508.324 522.612 507.808 522.638V522.23L508.27 522.189C508.596 522.162 508.76 522.122 508.841 521.985C508.936 521.835 508.963 521.482 508.963 520.964V514.789H508.936C508.732 515.157 508.542 515.537 508.365 515.905L505.944 521.046C505.686 521.604 505.454 522.203 505.209 522.774H504.938L501.17 514.789H501.143V520.964C501.143 521.482 501.17 521.835 501.265 521.985C501.347 522.122 501.51 522.161 501.837 522.189L502.435 522.23V522.638C501.837 522.625 501.347 522.597 500.803 522.597C500.313 522.597 499.769 522.625 499.225 522.638V522.23L499.824 522.189C500.151 522.162 500.314 522.122 500.395 521.985C500.49 521.835 500.518 521.482 500.518 520.964V514.858C500.518 514.341 500.49 513.987 500.395 513.836C500.314 513.701 500.151 513.66 499.824 513.633L499.225 513.591V513.185C499.647 513.198 500.082 513.225 500.518 513.225C500.953 513.225 501.388 513.198 501.81 513.185L505.402 520.747L508.965 513.185C509.4 513.198 509.822 513.225 510.257 513.225C510.693 513.225 511.128 513.198 511.522 513.185V513.591L510.951 513.633C510.624 513.659 510.461 513.701 510.38 513.836C510.285 513.986 510.257 514.341 510.257 514.858V520.964H510.256ZM520.592 514.858C520.592 514.341 520.565 513.987 520.47 513.836C520.389 513.701 520.225 513.647 519.899 513.633L519.246 513.591V513.185C519.994 513.198 520.769 513.225 521.544 513.225C522.728 513.225 523.979 513.185 524.754 513.185C525.367 513.185 525.978 513.198 526.509 513.225C526.36 513.823 526.291 514.599 526.291 515.292H525.816V514.409C525.816 514.232 525.802 514.081 525.693 514.042C524.972 513.77 523.898 513.755 523.027 513.755C522.66 513.755 522.266 513.77 521.885 513.865V517.496C522.32 517.523 522.809 517.538 523.463 517.538C524.292 517.538 524.755 517.483 524.905 517.388C524.972 517.334 525 517.212 525.013 517.034L525.081 516.327H525.489C525.475 516.885 525.448 517.401 525.448 517.904C525.448 518.407 525.475 518.925 525.489 519.415H525.081L525.013 518.612C525 518.435 524.972 518.312 524.905 518.272C524.755 518.162 524.292 518.109 523.463 518.109C522.81 518.109 522.306 518.109 521.885 518.149V521.958C522.265 522.053 522.66 522.067 523.027 522.067C524.143 522.067 525.53 522.025 525.775 521.891C525.979 521.781 526.155 521.183 526.25 520.367H526.726C526.582 521.102 526.51 521.849 526.509 522.597C525.91 522.613 524.836 522.652 523.829 522.639C522.782 522.625 521.707 522.597 520.864 522.597C520.347 522.597 519.898 522.625 519.408 522.639V522.231L519.898 522.189C520.225 522.163 520.388 522.123 520.469 521.986C520.564 521.836 520.592 521.483 520.592 520.965V514.858H520.592V514.858ZM538.669 515.211C538.669 514.694 538.655 514.26 538.614 513.852H536.507C536.099 513.852 535.989 513.973 535.962 514.3L535.908 515.374H535.486C535.486 514.64 535.46 513.892 535.391 513.185C536.37 513.185 537.35 513.226 538.329 513.226H540.302C541.281 513.226 542.26 513.185 543.24 513.185C543.171 513.892 543.145 514.64 543.145 515.374H542.721L542.668 514.3C542.64 513.973 542.531 513.852 542.123 513.852H540.015C539.975 514.26 539.962 514.694 539.962 515.211V520.964C539.962 521.482 539.988 521.835 540.083 521.985C540.165 522.122 540.328 522.175 540.655 522.189L541.307 522.23V522.638C540.65 522.612 539.993 522.598 539.335 522.597C538.669 522.597 538.029 522.612 537.322 522.638V522.23L537.976 522.189C538.301 522.175 538.464 522.122 538.546 521.985C538.642 521.835 538.669 521.482 538.669 520.964V515.211ZM554.309 520.964C554.309 521.482 554.335 521.835 554.432 521.985C554.513 522.122 554.675 522.175 555.003 522.189L555.656 522.23V522.638C554.998 522.612 554.34 522.598 553.682 522.597C553.015 522.597 552.376 522.612 551.67 522.638V522.23L552.323 522.189C552.649 522.175 552.813 522.122 552.894 521.985C552.989 521.835 553.015 521.482 553.015 520.964V514.858C553.015 514.341 552.989 513.987 552.894 513.836C552.813 513.701 552.649 513.647 552.323 513.633L551.67 513.591V513.185C552.34 513.211 553.011 513.224 553.682 513.225C554.308 513.225 554.948 513.211 555.656 513.185V513.591L555.003 513.633C554.675 513.647 554.513 513.701 554.432 513.836C554.335 513.986 554.309 514.341 554.309 514.858V520.964ZM576.181 520.964C576.181 521.482 576.209 521.835 576.304 521.985C576.385 522.122 576.549 522.175 576.875 522.189L577.528 522.23V522.638C576.871 522.612 576.213 522.598 575.556 522.597C574.888 522.597 574.25 522.612 573.732 522.638V522.23L574.195 522.189C574.522 522.162 574.685 522.122 574.766 521.985C574.861 521.835 574.888 521.482 574.888 520.964V514.789H574.861C574.658 515.157 574.466 515.537 574.29 515.905L571.869 521.046C571.611 521.604 571.379 522.203 571.134 522.774H570.862L567.095 514.789H567.068V520.964C567.068 521.482 567.095 521.835 567.191 521.985C567.271 522.122 567.436 522.161 567.761 522.189L568.361 522.23V522.638C567.761 522.625 567.271 522.597 566.729 522.597C566.239 522.597 565.695 522.625 565.151 522.638V522.23L565.749 522.189C566.076 522.162 566.239 522.122 566.321 521.985C566.416 521.835 566.442 521.482 566.442 520.964V514.858C566.442 514.341 566.416 513.987 566.321 513.836C566.239 513.701 566.076 513.66 565.749 513.633L565.151 513.591V513.185C565.573 513.198 566.008 513.225 566.442 513.225C566.878 513.225 567.313 513.198 567.734 513.185L571.326 520.747L574.888 513.185C575.325 513.198 575.746 513.225 576.181 513.225C576.617 513.225 577.052 513.198 577.447 513.185V513.591L576.875 513.633C576.549 513.659 576.385 513.701 576.304 513.836C576.209 513.986 576.181 514.341 576.181 514.858V520.964V520.964ZM587.334 514.858C587.334 514.341 587.307 513.987 587.21 513.836C587.131 513.701 586.967 513.647 586.641 513.633L585.986 513.591V513.185C586.736 513.198 587.511 513.225 588.286 513.225C589.469 513.225 590.72 513.185 591.496 513.185C592.108 513.185 592.72 513.198 593.251 513.225C593.102 513.823 593.034 514.599 593.034 515.292H592.558V514.409C592.558 514.232 592.544 514.081 592.435 514.042C591.714 513.77 590.639 513.755 589.769 513.755C589.402 513.755 589.007 513.77 588.627 513.865V517.496C589.061 517.523 589.551 517.538 590.204 517.538C591.034 517.538 591.496 517.483 591.646 517.388C591.713 517.334 591.741 517.212 591.755 517.034L591.823 516.327H592.231C592.217 516.885 592.189 517.401 592.189 517.904C592.189 518.407 592.217 518.925 592.231 519.415H591.823L591.755 518.612C591.741 518.435 591.713 518.312 591.646 518.272C591.496 518.162 591.033 518.109 590.204 518.109C589.551 518.109 589.048 518.109 588.627 518.149V521.958C589.007 522.053 589.402 522.067 589.769 522.067C590.884 522.067 592.271 522.025 592.516 521.891C592.721 521.781 592.897 521.183 592.992 520.367H593.469C593.332 521.019 593.251 521.863 593.251 522.597C592.653 522.613 591.578 522.652 590.572 522.639C589.525 522.625 588.45 522.655 587.606 522.655C587.09 522.655 586.641 522.625 586.152 522.639V522.231L586.642 522.189C586.969 522.163 587.132 522.123 587.212 521.986C587.308 521.836 587.335 521.483 587.335 520.965V514.858H587.334V514.858ZM505.898 471.275L505.971 471.232C511.502 465.653 518.971 462.051 527.224 461.732L527.236 461.702L527.225 429.944C510.079 430.159 494.533 437.256 483.135 448.569L483.212 448.588L505.898 471.275V471.275ZM525.673 431.479L525.681 460.252L525.676 460.268C518.108 460.912 511.237 464.181 505.903 469.135L505.857 469.066L485.164 448.401C496.246 437.981 510.485 432.036 525.673 431.479V431.479ZM549.594 471.688C543.941 466.283 536.57 463.284 528.734 463.206L528.742 492.608L549.594 471.688V471.688ZM530.289 464.802V464.818C536.552 465.201 542.519 467.616 547.286 471.697L530.297 488.757L530.289 464.819L530.278 464.818L530.289 464.802V464.802ZM504.865 472.358L482.084 449.578L482.092 449.626C470.843 461.311 463.904 477.21 463.904 494.573H496.217L496.274 494.602C496.274 486.156 499.547 478.292 504.891 472.373L504.865 472.358ZM494.75 493.108L494.766 493.111H465.41L465.418 493.108C465.767 477.763 471.59 462.923 481.956 451.642L502.764 472.456L502.767 472.453L502.79 472.484L502.764 472.457C498.049 478.143 495.089 485.353 494.75 493.108V493.108ZM528.734 463.202L528.725 463.205L528.734 463.206V463.202Z" fill="white"/>
<path fill-rule="evenodd" clip-rule="evenodd" d="M550.603 470.58L550.643 470.615L572.937 448.296C561.043 436.616 545.389 430.119 528.725 429.942L528.734 461.701L528.725 461.709C536.941 461.783 544.67 464.921 550.603 470.58V470.58ZM530.276 431.475C545.465 432.008 559.711 437.93 570.806 448.326L550.593 468.517L550.55 468.428C544.878 463.478 537.807 460.606 530.276 460.201L530.286 460.2L530.276 431.475V431.475ZM505.731 473.259C500.586 478.99 497.771 486.906 497.771 494.602L527.043 494.593L505.715 473.208L505.731 473.259ZM505.873 475.508L523.423 493.111L523.374 493.109L499.318 493.111L499.364 493.108C499.674 486.814 501.934 480.457 505.85 475.527L505.873 475.508V475.508ZM573.986 449.349L551.668 471.645C557.418 477.656 560.578 485.536 560.578 494.607H592.195C592.146 477.971 585.703 461.409 573.986 449.349ZM553.858 471.736L553.782 471.805L574.022 451.566C584.434 462.873 590.285 477.889 590.677 493.108L562.083 493.109L562.104 493.108C561.794 484.826 558.908 477.529 553.858 471.736V471.736ZM527.223 463.227C519.485 463.524 512.255 466.564 506.749 472.069L527.231 492.602L527.246 492.558L527.236 463.201L527.223 463.227V463.227ZM525.675 488.858L508.993 472.198L508.977 472.212L508.984 472.19L508.993 472.199C513.659 468.003 519.461 465.466 525.678 464.887L525.682 464.853L525.689 488.808L525.675 488.858V488.858ZM551.634 471.678L551.668 471.645L551.654 471.63L551.634 471.678Z" fill="white"/>
<path fill-rule="evenodd" clip-rule="evenodd" d="M528.675 494.607H559.08C559.08 485.929 556.072 478.418 550.595 472.689L528.675 494.607V494.607ZM532.426 493.109L550.587 474.997L550.586 474.999C554.78 479.917 557.192 486.127 557.492 493.162L532.426 493.109Z" fill="white"/>
<g clip-path="url(#clip9_521_83)">
<path d="M872.218 486.287C872.276 488.171 871.844 490.037 870.964 491.703C870.086 493.191 868.9 494.473 867.486 495.466C865.916 496.482 864.179 497.215 862.356 497.632C860.317 498.094 858.232 498.324 856.142 498.316C853.79 498.386 851.439 498.195 849.129 497.746C848.216 497.579 847.319 497.331 846.45 497.005V492.786L847.419 493.015L849.585 493.357L852.55 493.585C853.63 493.68 854.715 493.718 855.8 493.699C859.277 493.699 861.9 493.186 863.724 492.102C865.548 491.019 866.46 489.138 866.46 486.458C866.484 485.594 866.308 484.736 865.947 483.95C865.584 483.262 865.079 482.66 864.465 482.183C863.72 481.655 862.917 481.215 862.071 480.871L858.878 479.674L854.659 478.078C853.321 477.549 852.071 476.819 850.954 475.912C849.874 475.057 848.981 473.99 848.331 472.776C847.653 471.313 847.322 469.713 847.362 468.101C847.307 466.225 847.718 464.364 848.559 462.685C849.345 461.201 850.48 459.929 851.866 458.98C853.348 457.954 855.012 457.219 856.769 456.813C858.767 456.342 860.815 456.112 862.869 456.129C864.99 456.069 867.112 456.241 869.197 456.642C869.977 456.823 870.74 457.071 871.477 457.384V461.431C870.637 461.205 869.778 461.053 868.912 460.975C867.112 460.803 865.304 460.726 863.496 460.747C860.974 460.661 858.464 461.128 856.142 462.115C854.203 463.084 853.234 464.738 853.234 467.132C853.197 468.098 853.332 469.064 853.633 469.983C853.934 470.711 854.38 471.37 854.944 471.921C855.585 472.481 856.318 472.925 857.111 473.232C857.966 473.574 858.992 473.973 860.132 474.315C861.272 474.657 863.268 475.399 864.75 475.969C866.12 476.506 867.406 477.235 868.57 478.135C869.715 478.983 870.635 480.099 871.249 481.385C871.965 482.916 872.297 484.599 872.218 486.287V486.287Z" fill="white"/>
<path d="M1066.39 486.287C1066.45 488.171 1066.02 490.037 1065.14 491.703C1064.26 493.191 1063.07 494.473 1061.66 495.466C1060.09 496.482 1058.35 497.215 1056.53 497.632C1054.49 498.097 1052.41 498.327 1050.32 498.316C1047.96 498.386 1045.61 498.195 1043.3 497.746C1042.39 497.579 1041.49 497.331 1040.62 497.005V492.786L1041.65 493.015L1043.76 493.357L1046.72 493.585C1047.8 493.68 1048.89 493.718 1049.97 493.699C1053.45 493.699 1056.07 493.186 1057.9 492.102C1059.72 491.019 1060.63 489.138 1060.63 486.458C1060.66 485.594 1060.48 484.736 1060.12 483.95C1059.76 483.262 1059.25 482.66 1058.64 482.183C1057.9 481.643 1057.1 481.202 1056.25 480.871C1055.33 480.472 1054.25 480.073 1053.05 479.674L1048.83 478.078C1047.5 477.549 1046.25 476.819 1045.13 475.912C1044.05 475.057 1043.16 473.99 1042.51 472.776C1041.83 471.313 1041.5 469.713 1041.54 468.101C1041.48 466.225 1041.89 464.364 1042.73 462.685C1043.54 461.213 1044.67 459.945 1046.04 458.98C1047.52 457.954 1049.19 457.219 1050.94 456.813C1052.94 456.342 1054.99 456.112 1057.04 456.129C1059.16 456.069 1061.29 456.241 1063.37 456.642C1064.15 456.811 1064.92 457.06 1065.65 457.384V461.431C1064.81 461.205 1063.95 461.053 1063.09 460.975C1061.29 460.803 1059.48 460.726 1057.67 460.747C1055.15 460.661 1052.64 461.128 1050.32 462.115C1048.38 463.084 1047.41 464.738 1047.41 467.132C1047.39 468.102 1047.54 469.068 1047.86 469.983C1048.12 470.718 1048.55 471.383 1049.12 471.921C1049.76 472.481 1050.49 472.925 1051.29 473.232C1052.14 473.574 1053.17 473.973 1054.31 474.315C1055.45 474.657 1057.44 475.399 1058.92 475.969C1060.31 476.518 1061.61 477.246 1062.8 478.135C1063.91 479.002 1064.81 480.114 1065.42 481.385C1066.14 482.916 1066.47 484.599 1066.39 486.287V486.287Z" fill="white"/>
<path d="M898.215 500.141C897.221 502.843 896.079 505.488 894.794 508.065C893.796 510.122 892.531 512.039 891.031 513.766C889.818 515.166 888.322 516.293 886.642 517.072C884.98 517.838 883.17 518.227 881.34 518.213L879.516 518.099L878.09 517.871L876.779 517.472V513.082L878.204 513.253H881.397C883.051 513.298 884.674 512.797 886.015 511.828C887.365 510.827 888.524 509.591 889.435 508.179C890.489 506.667 891.368 505.042 892.058 503.333C892.856 501.566 893.483 499.856 894.11 498.259L881.34 457.44H887.725L897.417 489.822L907.906 457.44H914.063L898.215 500.141Z" fill="white"/>
<path d="M954.084 499.228V471.408C954.084 467.873 953.571 465.479 952.545 464.225C951.519 462.913 949.865 462.286 947.585 462.286C946.086 462.291 944.6 462.562 943.195 463.084C941.823 463.615 940.536 464.345 939.376 465.251C938.227 466.172 937.21 467.246 936.354 468.443C935.519 469.616 934.901 470.929 934.53 472.32V499.228H928.601V457.554H934.53V464.51C935.567 463.179 936.774 461.99 938.121 460.975C939.48 459.999 940.931 459.159 942.454 458.467C944.251 457.684 946.195 457.295 948.155 457.326C950.892 457.326 953.001 457.668 954.597 458.353C956.01 458.886 957.224 459.842 958.075 461.089C958.92 462.388 959.43 463.877 959.557 465.422C959.797 467.312 959.911 469.217 959.899 471.123V499.228H954.084Z" fill="white"/>
<path d="M934.473 457.612H921.303V461.238H934.473V457.612Z" fill="white"/>
<path d="M1022.55 499V457.896H1028.37V499H1022.55Z" fill="white"/>
<path d="M1028.42 457.668H1015.26V461.294H1028.42V457.668Z" fill="white"/>
<path d="M1025.46 449.516C1027.57 449.516 1029.28 447.806 1029.28 445.697C1029.28 443.587 1027.57 441.877 1025.46 441.877C1023.35 441.877 1021.64 443.587 1021.64 445.697C1021.64 447.806 1023.35 449.516 1025.46 449.516Z" fill="white"/>
<path d="M967.595 446.951V450.428H973.98L985.838 472.035L976.831 446.951C976.831 446.951 967.253 447.236 967.595 446.951Z" fill="white"/>
<path d="M1008.93 508.179V504.702H1002.6L990.684 483.038L999.692 508.179C999.692 508.179 1009.27 507.837 1008.93 508.179Z" fill="white"/>
<path d="M992.109 475.228L1007.1 449.345L1012.12 448.718L1011.38 453.336L992.109 475.228Z" fill="white"/>
<path d="M984.242 480.358L969.249 506.184L964.232 506.811L964.973 502.193L984.242 480.358Z" fill="white"/>
</g>
<defs>
<clipPath id="clip0_521_83">
<rect width="231.922" height="63.6526" fill="white" transform="translate(0 5.79639)"/>
</clipPath>
<clipPath id="clip1_521_83">
<rect width="228.2" height="29.9532" fill="white" transform="translate(833.922 22.646)"/>
</clipPath>
<clipPath id="clip2_521_83">
<rect width="116" height="116" fill="white" transform="translate(0 132.246)"/>
</clipPath>
<clipPath id="clip3_521_83">
<rect width="362.49" height="59.3988" fill="white" transform="translate(342 160.546)"/>
</clipPath>
<clipPath id="clip4_521_83">
<rect width="128" height="93" fill="white" transform="translate(930.49 143.746)"/>
</clipPath>
<clipPath id="clip5_521_83">
<rect width="290.092" height="53.569" fill="white" transform="translate(0 310.729)"/>
</clipPath>
<clipPath id="clip6_521_83">
<rect width="290.092" height="64.5349" fill="white" transform="translate(418.092 305.246)"/>
</clipPath>
<clipPath id="clip7_521_83">
<rect width="226.97" height="26.4566" fill="white" transform="translate(836.184 324.285)"/>
</clipPath>
<clipPath id="clip8_521_83">
<rect width="222" height="96.0064" fill="white" transform="translate(0 432.042)"/>
</clipPath>
<clipPath id="clip9_521_83">
<rect width="220" height="76.3358" fill="white" transform="translate(846.45 441.877)"/>
</clipPath>
</defs>
</svg>
