<svg xmlns="http://www.w3.org/2000/svg" fill="none" viewBox="0 0 344 268"><rect width="344" height="268" fill="#A650FF" rx="8.8"/><g fill="#fff" clip-path="url(#a)"><path d="M21.2 28.3V45s-.3 2.6-2.3 2.6h-1.2v.9H26v-1h-1.4s-2.3-.5-2.3-2.6V29.6L34 48.2h6.5V30.6s0-3.4 2.2-3.6h1.4v-.8h-8v1h1.5s1.8 0 2 2.8v9l-8.2-12.6H18.2v.7h2s1 0 1 1.2Z"/><path d="M60.3 30.1S58 26 50.4 26.8c-3.6.5.1 4.7 5.8 5.9 2.5.5 11.1 3.2 9 10.9-2 7.6-12.6 4.6-13.5 4.3-.9-.2-4-2.2-4-2.2L44 48.5v-9.6h.5S46 44 49 45.8c3 1.7 6 3 10.2 2 4.2-1.2-.7-5.5-7.8-6.2-7-.6-10.7-10.7-4-14.3a11.7 11.7 0 0 1 12.8 1.5l.8.7-.6.6Z"/><path d="M63.2 47.5v.8h7.2v-.6h-1.6s-1.4-.3-1.4-1.4c0-1 1.6-4.9 1.6-4.9l3.2-7.7 4.8 14h-2.7v.6h15.2v-.7h-2l-8-21.3h-5.2l-7.8 19s-.3 1.6-2 2.2h-1.3m-10.9 7.9 3.1-1.5c1-.5 2-1.2 2.8-2l1.4-1.1 1.3-1.1c.8-.7 1.6-1.5 2.2-2.4a4.5 4.5 0 0 0 .5-3.2 8.8 8.8 0 0 0-1.5-3.6 13 13 0 0 0-6.5-4.6c-2.7-1-5.7-1.3-8.6-1a16.5 16.5 0 0 0-12.2 8.4c-.6 1.3-1 2.8-.8 4.2.2 1.2.9 2.3 1.9 3 1.2.7 2.6.6 4 .4A17.3 17.3 0 0 0 51 44.6c.1-.1.2-.3 0-.4h-.3A16.8 16.8 0 0 1 38 50.5a3.3 3.3 0 0 1-3-1.7 5 5 0 0 1-.3-3.6 11 11 0 0 1 1.7-3.5 15.7 15.7 0 0 1 8.9-6c2.7-.5 5.6-.5 8.3.2 2.5.6 5 1.7 7 3.5.8 1 1.6 2 2 3.1.4 1 .7 2.3.5 3.4-.3 1-1 1.8-1.6 2.5L59 50.5c-.8.7-1.7 1.6-2.7 2.2-.8.6-1.7 1-2.7 1.5l-1.6.7c-.1 0-.2.3-.1.4 0 .1.2.2.4.1Z"/><path d="M66.1 20.5a6 6 0 0 0-5.2 9L50 43.7l2 1.6 12.3-13a6 6 0 0 0 7.9-5.7 6 6 0 0 0-6-6.1Z"/><path fill-rule="evenodd" d="M74.8 41.2H69v-.7h5.8v.7ZM89.3 53H17.6v-.7h71.7v.7Z" clip-rule="evenodd"/><path d="M17.8 61v-3.7h.6l1.2 2.4v-2.4h.6v3.6h-.6l-1.2-2.4V61h-.6Zm5.6 0h-.7l-.2-.9h-1.2l-.3.8h-.6l1.2-3.6h.6l1.2 3.6Zm-1.1-1.5-.4-1.4-.4 1.4h.8ZM24 61v-3.1h-1v-.6h2.4v.6h-1v3H24Zm1.7 0v-3.7h.6v3.6h-.6Zm1-1.9c0-.4 0-.8.2-1l.5-.7.7-.2c.5 0 .8.2 1 .5.3.3.5.8.5 1.4 0 .6-.2 1.1-.4 1.4-.3.4-.6.5-1 .5-.5 0-.8-.2-1-.5a2 2 0 0 1-.5-1.4Zm.6 0c0 .4 0 .7.2 1l.6.3c.3 0 .5-.1.6-.3.2-.3.3-.6.3-1s-.1-.7-.3-1a.7.7 0 0 0-.6-.3c-.2 0-.4.1-.6.4l-.2.9ZM30 61v-3.7h.5l1.3 2.4v-2.4h.5v3.6h-.6l-1.2-2.4V61H30Zm5.6 0h-.7l-.3-.9h-1.2l-.2.8h-.6l1.1-3.6h.7l1.2 3.6Zm-1.2-1.5L34 58l-.4 1.4h.8Zm1.4 1.5v-3.7h.6v3h1.5v.6h-2.1Zm3.2-1.3h.6c.1.4.3.7.7.7.2 0 .3 0 .4-.2a.5.5 0 0 0 .2-.3v-.2l-.3-.2-.5-.2-.6-.2a1 1 0 0 1-.2-.4 1.1 1.1 0 0 1 0-1c0-.2.2-.3.4-.4h.5c.4 0 .7 0 .9.2.2.2.3.5.3.8h-.6l-.2-.4H40l-.2.3a.3.3 0 0 0 .1.2l.6.3.7.2.3.4v.6c0 .3 0 .6-.2.8-.2.2-.5.3-1 .3-.7 0-1-.4-1.2-1.3Zm2.9 1.3v-3.7h1.6c.2 0 .4.2.5.4l.2.7c0 .3 0 .5-.2.7 0 .1-.2.3-.4.3a2 2 0 0 1-.7.2h-.4v1.3h-.6Zm.6-3.1v1h.8l.2-.2a.6.6 0 0 0 0-.6l-.2-.2h-.8Zm2.1 3.1v-3.7h2.2v.6h-1.6v.8h1.5v.6h-1.5v1h1.6v.6h-2.2Zm5.4 0h-.7l-.3-1h-1.2l-.2.8h-.7l1.2-3.6h.6l1.2 3.6Zm-1.2-1.5-.4-1.4-.4 1.4h.8Zm1.3 1.5v-3.7h.6v1.6l1.3-1.6h.8l-1.2 1.4 1.2 2.2h-.7l-.9-1.7-.5.6V61h-.6Zm2.9 0v-3.7h2.3v.6h-1.7v.8h1.5v.6h-1.5v1h1.7v.6H53Zm2.7 0v-3.7h2l.3.4.2.6-.2.7a1 1 0 0 1-.6.3l.3.3.3.6.4.7h-.7l-.5-.8-.3-.5-.2-.2h-.3v1.5h-.7Zm.6-2.2h1l.2-.2v-.5l-.2-.2h-1v1Zm2.2.9h.6c0 .4.2.7.6.7.2 0 .3 0 .4-.2a.5.5 0 0 0 .2-.3v-.2l-.2-.2-.6-.2c-.3 0-.4-.1-.5-.2a1 1 0 0 1-.3-.4 1.1 1.1 0 0 1 0-1l.4-.4h.6c.3 0 .6 0 .8.2.2.2.3.5.3.8h-.6c0-.1 0-.3-.2-.4h-.7a.3.3 0 0 0-.1.3.3.3 0 0 0 0 .2l.6.3.7.2.3.4.1.6c0 .3-.1.6-.3.8-.2.2-.5.3-1 .3-.6 0-1-.4-1.1-1.3Zm6.4 1.3h-.7l-.2-1h-1.2l-.3.8H62l1.2-3.6h.6l1.2 3.6Zm-1.1-1.5-.4-1.4-.4 1.4h.8Zm1.2.2h.6c0 .4.2.7.6.7.2 0 .3 0 .4-.2a.5.5 0 0 0 .2-.3v-.2l-.2-.2-.6-.2c-.3 0-.4-.1-.5-.2a1 1 0 0 1-.3-.4 1.1 1.1 0 0 1 0-1c0-.2.2-.3.4-.4h.6c.3 0 .6 0 .8.2.2.2.3.5.3.8h-.6c0-.1 0-.3-.2-.4h-.7l-.2.3a.3.3 0 0 0 .2.2l.5.3.7.2.3.4v.6c0 .3 0 .6-.2.8-.2.2-.5.3-1 .3-.6 0-1-.4-1.1-1.3Zm2.6 0h.6c.1.4.3.7.7.7.2 0 .3 0 .4-.2a.5.5 0 0 0 .2-.3v-.2l-.3-.2-.5-.2-.6-.2a1 1 0 0 1-.2-.4 1.1 1.1 0 0 1 0-1c0-.2.2-.3.4-.4h.5c.4 0 .7 0 .9.2.2.2.3.5.3.8h-.6l-.2-.4h-.7a.3.3 0 0 0-.2.3.3.3 0 0 0 .1.2l.6.3.6.2.4.4v.6c0 .3 0 .6-.2.8-.2.2-.5.3-1 .3-.7 0-1-.4-1.2-1.3Zm2.8-.6.1-1 .5-.7.8-.2c.4 0 .8.2 1 .5.3.3.4.8.4 1.4 0 .6-.1 1.1-.4 1.4-.3.4-.6.5-1 .5s-.8-.2-1-.5c-.3-.3-.4-.8-.4-1.4Zm.6 0c0 .4 0 .7.2 1l.6.3.6-.3.2-1c0-.4 0-.7-.2-1a.7.7 0 0 0-.6-.3c-.2 0-.4.1-.6.4-.2.2-.2.5-.2.9Zm4.5.5.6.2c0 .4-.2.7-.4 1l-.8.2c-.4 0-.7-.2-1-.5-.3-.3-.4-.8-.4-1.4 0-.6.1-1 .4-1.4.3-.3.6-.5 1-.5.3 0 .6.1.8.4.2.1.3.4.4.7l-.6.2-.2-.5a.6.6 0 0 0-.4-.2l-.6.3-.2 1 .2 1a.6.6 0 0 0 .8.2l.2-.1.2-.6Zm1 1.4v-3.7h.6v3.6h-.6Zm3.8 0h-.7l-.2-.9h-1.2l-.3.8h-.6l1.1-3.6h.7l1.2 3.6Zm-1.1-1.5-.5-1.4-.4 1.4h.9Zm1.6 1.5v-3.1H80v-.6h2.3v.6h-.8v3h-.7Zm1.8 0v-3.7h.6v3.6h-.6Zm1-1.9.1-1 .6-.7.7-.2c.4 0 .8.2 1 .5.3.3.4.8.4 1.4 0 .6 0 1.1-.4 1.4-.3.4-.6.5-1 .5s-.8-.2-1-.5c-.3-.3-.4-.8-.4-1.4Zm.6 0c0 .4 0 .7.2 1l.6.3.6-.3c.2-.3.2-.6.2-1s0-.7-.2-1a.7.7 0 0 0-.6-.3c-.2 0-.4.1-.6.4l-.2.9Zm2.6 1.9v-3.7h.6l1.2 2.4v-2.4h.6v3.6h-.6l-1.2-2.4V61h-.6Z"/></g><g fill="#fff" clip-path="url(#b)"><path d="M150 30.7h-10.4c-1.9-2.8-4-4.3-4-4.3l.8-2.9-3.9 7.3h-11s4.5 1.7 8.7 4.3L123 48.8l13-8.8c3.8 5.2 6 8.6 6 8.6s1.5-6.1 0-12.5l8-5.4Zm-14.6-3.9c1 .6 2.4 4 2.4 4H134l1.3-4Zm-13.4 4c1.5 0 9.7 1 9.7 1l-1 2c-1.2-1.2-8.7-3-8.7-3Zm8 10.5 2-5c1.9 1 2.5 2.1 2.5 2.1l-4.5 3Zm2.7-6.7 1-2.7 4.4.2c.5.5 1 3.4 1 3.4l-2.8 1.6c-.6-.6-3.6-2.5-3.6-2.5Zm5.4 4 1.5-1 .3 3.3c-.2-.9-1.8-2.3-1.8-2.3Zm2.5-6.6 3.4.3-2.5 1.7-.9-2Zm16.3 2.8h-4.5c.5-2.4 1.4-4 2.6-5 1.3-.8 3-1.2 5.5-1.2 2.1 0 3.8.2 4.8.8 1.1.5 1.9 1.1 2.3 2 .4.8.7 2.3.7 4.4l-.1 5.9c0 1.7 0 2.9.2 3.7.2.8.5 1.6 1 2.5h-5a20.5 20.5 0 0 1-.6-2 8 8 0 0 1-5.7 2.4c-2 0-3.4-.5-4.5-1.6a5.3 5.3 0 0 1-1.7-4c0-1 .3-2 .8-2.8a5 5 0 0 1 2-2c1-.4 2.3-.8 4-1.1l4.7-1.2V35c0-1-.2-1.7-.7-2.1-.4-.4-1.3-.6-2.6-.6-.9 0-1.5.2-2 .5-.5.4-1 1-1.2 1.9Zm6.5 4-3 .8c-1.3.3-2.2.6-2.6.9-.6.4-1 1-1 1.7s.3 1.3.8 1.8 1.2.8 2 .8 1.7-.3 2.5-.9c.6-.4 1-1 1.2-1.6l.1-2.5v-1Zm7.2 3.7 5-.8a4 4 0 0 0 1.2 2.3c.7.5 1.6.7 2.7.7 1.3 0 2.2-.2 2.9-.7.4-.3.6-.8.6-1.3 0-.4-.1-.7-.3-1-.3-.2-.8-.4-1.7-.6-4-1-6.4-1.7-7.5-2.5a5 5 0 0 1-2.2-4.2c0-1.7.7-3 2-4.2 1.2-1 3.1-1.6 5.8-1.6 2.5 0 4.4.4 5.7 1.2a7 7 0 0 1 2.5 3.8l-4.6.8a3 3 0 0 0-1.1-1.7 4 4 0 0 0-2.4-.5c-1.3 0-2.2.1-2.8.5-.3.3-.5.6-.5 1s.1.7.5 1c.4.3 2 .7 4.5 1.3a13 13 0 0 1 5.5 2.3c1 .9 1.5 2.1 1.5 3.7a6 6 0 0 1-2.1 4.5c-1.4 1.2-3.5 1.8-6.3 1.8-2.5 0-4.5-.5-6-1.5a7.3 7.3 0 0 1-2.9-4.3Zm24.6-7.7-4.5-.9a7 7 0 0 1 2.6-4c1.2-.9 3-1.3 5.4-1.3 2.2 0 3.8.2 5 .8a5 5 0 0 1 2.2 2c.4.8.6 2.3.6 4.4v5.9a10.9 10.9 0 0 0 1.1 6.2h-4.9a18.3 18.3 0 0 1-.6-2 8 8 0 0 1-5.7 2.4c-2 0-3.4-.5-4.5-1.6a5.3 5.3 0 0 1-1.7-4c0-1 .3-2 .8-2.8a5 5 0 0 1 2-2c1-.4 2.3-.8 4-1.1l4.7-1.2V35c0-1-.2-1.7-.7-2.1-.4-.4-1.3-.6-2.6-.6-.9 0-1.6.2-2 .5-.5.4-1 1-1.2 1.9Zm6.5 4-3 .8c-1.3.3-2.2.6-2.6.9-.7.4-1 1-1 1.7s.3 1.3.8 1.8 1.1.8 2 .8c.8 0 1.7-.3 2.5-.9.5-.4 1-1 1.1-1.6l.2-2.5v-1Zm19.7 3.1 4.8.8a8.2 8.2 0 0 1-3 4.2 8 8 0 0 1-5 1.4c-3.2 0-5.6-1-7.2-3.2a11 11 0 0 1-1.8-6.5c0-3.1.8-5.6 2.4-7.4a7.8 7.8 0 0 1 6-2.6c2.8 0 5 .9 6.6 2.7 1.6 2 2.4 4.8 2.3 8.6h-12.3a5 5 0 0 0 1.2 3.4c.8.9 1.7 1.3 2.8 1.3a3 3 0 0 0 2-.7 4 4 0 0 0 1.2-2Zm.2-5c0-1.5-.4-2.6-1-3.4a3.3 3.3 0 0 0-2.6-1.1c-1 0-2 .4-2.7 1.2-.7.8-1 1.9-1 3.2h7.3Zm-62.7 20 2.6-4.7h.7l.7 4.7h-.5l-.3-1.4h-1.8l-.8 1.4h-.6Zm1.6-1.9h1.6l-.2-1.1-.2-1.2c0 .3-.2.6-.4 1l-.8 1.3Zm3 .7h.6v.4l.3.3.5.1c.3 0 .4 0 .6-.2l.2-.3c0-.1 0-.2-.2-.3l-.5-.3-.6-.3a1 1 0 0 1-.3-.3l-.1-.4c0-.3.1-.5.3-.7.2-.2.5-.3.9-.3s.7.1 1 .3c.1.2.3.5.3.8h-.6c0-.2 0-.4-.2-.5a.8.8 0 0 0-.6-.1h-.4l-.2.4s0 .2.2.3l.4.2.9.5.2.6-.1.5a1 1 0 0 1-.5.4l-.7.1c-.4 0-.7 0-1-.2-.3-.2-.4-.6-.4-1Zm3.2 0h.6v.4l.3.3.5.1c.3 0 .4 0 .6-.2l.2-.3c0-.1 0-.2-.2-.3l-.5-.3-.6-.3a1 1 0 0 1-.3-.3l-.1-.4c0-.3 0-.5.3-.7.2-.2.5-.3.9-.3s.7.1 1 .3l.3.8h-.6c0-.2 0-.4-.2-.5a.8.8 0 0 0-.6-.1h-.4l-.2.4s0 .2.2.3l.4.2.9.5.2.6-.1.5a1 1 0 0 1-.5.4l-.7.1c-.4 0-.7 0-1-.2-.3-.2-.4-.6-.4-1Zm3.3-.1c0-.7.1-1.2.5-1.7.3-.3.8-.5 1.3-.5.4 0 .7.1 1 .4.2.2.3.6.3 1s0 .8-.2 1.1a1.7 1.7 0 0 1-1.6 1l-.7-.1-.5-.5-.1-.7Zm.5 0 .2.7.6.2a1 1 0 0 0 .7-.3l.3-.4.1-.4.1-.6c0-.3 0-.5-.2-.7a.7.7 0 0 0-.6-.2 1 1 0 0 0-.4 0l-.4.5c-.2.1-.2.3-.3.5v.6Zm5.2 0h.6a2 2 0 0 1-.6 1c-.3.2-.6.3-1 .3-.3 0-.6 0-.8-.3-.2-.3-.3-.6-.3-1s0-.7.2-1.1c.1-.4.3-.6.6-.8l.9-.3c.4 0 .6.1.8.3.3.2.4.5.4.8h-.6c0-.1 0-.3-.2-.4a.6.6 0 0 0-.5-.2c-.2 0-.4 0-.5.2-.2.1-.3.4-.4.7l-.2.8c0 .3 0 .5.2.7l.5.2c.2 0 .3 0 .5-.2l.4-.7Zm1.7-2.8.1-.6h.6l-.1.6h-.6Zm-.8 4 .7-3.3h.5l-.7 3.4h-.5Zm3.7-.4-.6.4-.6.1a1 1 0 0 1-.7-.2 1 1 0 0 1-.3-.7 1 1 0 0 1 .5-.9l.5-.2h.7c.3 0 .6 0 .7-.2l.1-.3-.1-.4-.6-.1a1 1 0 0 0-.6.1 1 1 0 0 0-.3.5h-.6c.1-.4.3-.6.6-.8.2-.2.5-.3 1-.3.3 0 .7.1.9.3.2.2.3.3.3.6l-.1.6-.2.9v1.1h-.6v-.5Zm.2-1.2h-.7l-.7.2c-.2 0-.3.1-.3.2l-.1.3.1.4.5.2c.2 0 .3 0 .5-.2.2 0 .3-.2.4-.4l.3-.7Zm2.4 1.2-.1.5h-.4l-.5-.1a.4.4 0 0 1-.2-.4l.1-.5.4-2h-.4v-.4h.5l.2-.8.6-.4-.2 1.2h.5v.4h-.6l-.4 1.9v.6h.5Zm1.3-3.6v-.6h.6v.6h-.6Zm-.9 4 .7-3.3h.6l-.7 3.4h-.6Zm1.6-1.2c0-.7.2-1.2.5-1.7.4-.3.8-.5 1.3-.5.4 0 .7.1 1 .4.2.2.3.6.3 1s0 .8-.2 1.1a1.7 1.7 0 0 1-1.6 1l-.7-.1-.5-.5-.1-.7Zm.5 0c0 .2.1.5.3.7l.5.2h.4l.3-.3.3-.4.2-.4v-.6c0-.3 0-.5-.2-.7a.7.7 0 0 0-.5-.2 1 1 0 0 0-.5 0l-.4.5-.3.5v.6Zm2.9 1.3.7-3.4h.5v.6c.1-.3.3-.4.5-.5l.6-.2c.3 0 .5 0 .7.2l.2.6-.1.6-.4 2h-.6l.5-2v-.5l-.1-.3-.3-.1c-.3 0-.6 0-.8.3a2 2 0 0 0-.5 1L189 57h-.6Zm5.4 0 1-4.7h.6l-.9 4.1h2.4l-.1.6h-3Zm5.9-1.2h.6c0 .4-.3.6-.6.9-.2.2-.6.3-1 .3l-.7-.1-.4-.5-.2-.8c0-.4.1-.7.3-1 .1-.4.4-.7.6-.8l.9-.3c.4 0 .7.1 1 .4.2.2.3.6.3 1v.5h-2.5v.2c0 .3 0 .6.2.7.1.2.3.3.5.3s.4 0 .6-.2l.4-.6ZM198 55h1.9v-.1c0-.3-.1-.6-.3-.7a.7.7 0 0 0-.5-.2 1 1 0 0 0-.7.2l-.4.8Zm5 1.4-.6.4-.6.1a1 1 0 0 1-.7-.2 1 1 0 0 1-.3-.7 1 1 0 0 1 .5-.9l.5-.2h.7c.4 0 .6 0 .8-.2v-.3l-.1-.4-.6-.1a1 1 0 0 0-.6.1 1 1 0 0 0-.3.5h-.5c0-.4.3-.6.5-.8.3-.2.6-.3 1-.3s.7.1 1 .3l.2.6v.6l-.3.9v1.1h-.5l-.1-.5Zm.2-1.2h-.7l-.7.2-.3.2-.1.3.1.4.5.2c.2 0 .4 0 .6-.2l.4-.4.2-.7Zm3.3 1.2c-.3.4-.6.5-1 .5a1 1 0 0 1-.8-.3c-.2-.3-.3-.6-.3-1 0-.5.1-.8.3-1.2.1-.3.4-.6.6-.7l.7-.3c.5 0 .8.2 1 .6l.4-1.8h.5l-1 4.7h-.5l.1-.5Zm-1.5-1v.6l.3.3.4.2.7-.4c.3-.4.4-.8.4-1.4 0-.2 0-.4-.2-.6a.7.7 0 0 0-.5-.2h-.4l-.3.4a2 2 0 0 0-.3.5l-.1.6Zm5.3.3h.5c0 .4-.2.6-.5.9-.3.2-.6.3-1 .3l-.7-.1-.5-.5-.1-.8c0-.4 0-.7.2-1 .2-.4.4-.7.7-.8.2-.2.5-.3.8-.3.4 0 .8.1 1 .4.2.2.3.6.3 1v.5h-2.4v.2c0 .3 0 .6.2.7.1.2.3.3.5.3s.4 0 .6-.2l.4-.6Zm-1.6-.8h1.8v-.1c0-.3 0-.6-.2-.7a.7.7 0 0 0-.5-.2 1 1 0 0 0-.7.2l-.4.8Zm2.7 2 .7-3.4h.5l-.1.7c.1-.3.3-.5.5-.6l.5-.2.4.1-.3.6a.5.5 0 0 0-.3-.1c-.2 0-.4 0-.6.3-.2.2-.4.6-.5 1.2L212 57h-.5Zm2.2-1.2h.6v.4l.3.3.5.1c.2 0 .4 0 .5-.2.2 0 .2-.2.2-.3v-.3l-.7-.3-.5-.3a.8.8 0 0 1-.4-.7c0-.3 0-.5.3-.7.2-.2.5-.3.8-.3.5 0 .8.1 1 .3.2.2.3.5.3.8h-.5l-.2-.5a.8.8 0 0 0-.6-.1h-.5l-.1.4.1.3.5.2.8.5c.2.1.3.4.3.6 0 .2 0 .3-.2.5a1 1 0 0 1-.4.4l-.8.1c-.3 0-.7 0-1-.2-.2-.2-.3-.6-.3-1Zm3.1 1.2 1-4.7h.5L218 54l.6-.5h.5l.7.1.2.6-.1.7-.4 2h-.6l.4-2 .1-.6V54l-.4-.1-.6.1-.4.5-.3 1-.3 1.4h-.6Zm4.3-4.1.2-.6h.6l-.2.6h-.5Zm-.7 4 .7-3.3h.5l-.7 3.4h-.5Zm1.1 1.4 1-4.7h.5v.5c.1-.3.3-.4.4-.5h.5c.3 0 .6 0 .8.3.2.2.3.5.3 1 0 .3 0 .6-.2 1 0 .2-.2.5-.4.6l-.5.4-.5.1c-.4 0-.7-.2-1-.6l-.3 1.9h-.6Zm1.1-2.7v.5a.7.7 0 0 0 .8.5c.3 0 .5-.2.7-.6.2-.4.3-.7.3-1.1 0-.3 0-.5-.2-.7a.6.6 0 0 0-.5-.2h-.4c0 .2-.2.3-.3.4l-.3.6v.6Z"/></g><g fill="#fff" clip-path="url(#c)"><path d="M312.2 19h-42.4c-6.2 0-11.3 5-11.3 11v34s1.7-5.5 11.3-5.3h42.4c6.2 0 11.3-5 11.3-11V30c0-6-5-11-11.3-11Zm-35.4 12.9h-10v5.6h8.6v2.1h-8.7v8.2h-2.4v-18h12.5v2Zm5.5 15.9h-2.5v-18h2.5v18Zm16.7-1.2c-1.4 1-3 1.5-5 1.5-1.8 0-3.5-.4-4.8-1.2-1.2-.8-2.2-2-2.8-3.4a12 12 0 0 1 .1-9.8 7.4 7.4 0 0 1 3.1-3.2c1.4-.7 2.9-1 4.5-1 1.9 0 3.4.4 4.7 1.3 1.3 1 2.1 2.2 2.6 3.9l-2.4.6c-.4-1.4-1-2.3-1.8-3a5 5 0 0 0-3.1-.8 6 6 0 0 0-3.6 1c-1 .6-1.6 1.5-2 2.7a10.8 10.8 0 0 0 .1 7.5 5 5 0 0 0 2.1 2.5 6 6 0 0 0 6.7-.3c1-.8 1.6-2 1.9-3.4l2.5.6a8 8 0 0 1-2.8 4.5Zm17.9-7.7c-1 1-2.8 1.6-5.5 1.6h-4.7v7.3h-2.5v-18h7l2.8.1a5 5 0 0 1 4.4 5.1c0 1.5-.5 2.8-1.5 3.9Z"/><path d="m313.7 32-2.3-.1h-4.7v6.4h4.8c1.6 0 2.7-.3 3.4-.8a3 3 0 0 0 1-2.5 3 3 0 0 0-.6-1.9c-.4-.5-1-.9-1.6-1Z"/></g><g fill="#fff" clip-path="url(#d)"><path d="M35.4 128.8a16.5 16.5 0 0 1-2.9.4 54.4 54.4 0 0 1-3.4.2c-1.7 0-3.2-.1-4.5-.5-1.3-.3-2.4-1-3.3-1.8a8 8 0 0 1-2-3.3c-.6-1.4-.8-3.2-.8-5.3v-2.7c0-2 .2-3.8.7-5.2a7.7 7.7 0 0 1 2-3.3 7 7 0 0 1 3.4-1.8 18.3 18.3 0 0 1 6.1-.4 53 53 0 0 1 4.7.6v4.1h-1.2l-1.5-.1-1.6-.1h-1.5c-.8 0-1.6 0-2.2.2-.6.2-1.2.5-1.6 1-.5.4-.8 1-1 1.9a13 13 0 0 0-.3 3.1v2.7c0 1.3 0 2.4.3 3.2.2.8.5 1.4 1 2 .4.4 1 .7 1.6.9.6.2 1.4.3 2.3.3h1.5l1.5-.1 1.5-.1 1.2-.1v4.2Zm5 .1v-23.4h16v4.3H46.3v5h9.4v4.1h-9.4v5.7h10.1v4.3h-16Zm39.5 0v-11.6a47.5 47.5 0 0 1 0-2v-.9l.1-1-.8 1.6-.8 1.5-3 5.4H72l-3-5.4-.8-1.5-.7-1.5v15.4h-5.7v-23.4h5.8l4.6 8.3a24.3 24.3 0 0 1 1.4 2.9h.1l.7-1.5.8-1.4 4.6-8.3h5.8v23.4h-5.7Zm26.4 0-1.7-5.9H98l-1.7 5.9h-6l6.5-23.4h9.2l6.6 23.4h-6.2Zm-4.2-16.3a38.9 38.9 0 0 1-.7-3.6h-.2a109.3 109.3 0 0 1-.8 3.6l-1.6 6.2h5l-1.7-6.2ZM24 137.9a6 6 0 0 1-.8 0h-.5l-.4-.1a1 1 0 0 1-.3-.3l-.3-.5v-2l.4-.5.5-.3h1.5v.4h-.9c-.4 0-.6 0-.8.2-.2.2-.3.5-.3 1v.6c0 .5.1.8.3 1 .2.2.4.3.8.3h.9v.3Zm4-1.6c0 .5-.1 1-.4 1.2-.3.3-.6.5-1 .5-.6 0-1-.2-1.2-.5-.2-.3-.4-.7-.4-1.2v-.6c0-.5.2-1 .4-1.2.3-.3.6-.4 1.1-.4.5 0 .9.1 1.1.4.3.3.4.7.4 1.2v.6Zm-.5 0v-.6c0-.8-.3-1.2-1-1.2s-1 .4-1 1.2v.6c0 .8.3 1.3 1 1.3s1-.5 1-1.3ZM32 138h-.6l-1-1.6h-.7v1.5h-.5v-3.8h1.4l.5.1.3.2.2.4.1.5c0 .5-.2.9-.7 1l1 1.6Zm-.8-2.7c0-.3 0-.5-.2-.6l-.9-.2h-.4v1.5h.4l.9-.1.2-.6Zm4.3 0-.1.5c0 .2-.2.3-.3.4l-.4.2h-1.2v1.5H33v-3.8h1.5l.3.1.3.2s.2 0 .2.2l.1.3.1.4Zm-.5 0a1 1 0 0 0 0-.5l-.2-.1-.2-.1h-1.1v1.4h1.2l.2-.2v-.2l.1-.3Zm4.4 1c0 .5-.1 1-.4 1.2-.2.3-.6.5-1 .5-.5 0-.9-.2-1.1-.5-.3-.3-.4-.7-.4-1.2v-.6c0-.5.1-1 .4-1.2.2-.3.6-.4 1-.4.5 0 .9.1 1.1.4.3.3.4.7.4 1.2v.6Zm-.5 0v-.6c0-.8-.3-1.2-1-1.2-.6 0-1 .4-1 1.2v.6c0 .8.4 1.3 1 1.3.7 0 1-.5 1-1.3Zm4.5 1.7h-.6l-.9-1.6h-.8v1.5h-.4v-3.8H42l.4.1a1 1 0 0 1 .6.6v.5c0 .5-.2.9-.7 1l1 1.6Zm-.7-2.7c0-.3-.1-.5-.3-.6l-.8-.2H41v1.5h.5l.8-.1c.2-.1.3-.3.3-.6Zm4.6 2.7h-.5l-.4-1.3H45l-.4 1.2h-.5l1.3-3.8h.6l1.3 3.8Zm-1-1.8-.4-1-.2-.7-.2.6-.3 1.1h1Zm4.7-1.7h-1.3v3.4h-.4v-3.4H48v-.4h2.8v.4Zm3.3 3.5H52v-4h2.3v.4h-1.8v1.2h1.7v.5h-1.7v1.3h1.8v.4Zm5 0H57v-4h2.3v.4h-1.8v1.2H59v.5h-1.6v1.3h1.8v.4Zm4.1-3.9L62 138h-.6l-1.3-3.8h.5l1 2.8v.7h.1c0-.4.1-.6.2-.7l.9-2.8h.5Zm3.3 3.9h-2.2v-4h2.2v.4H65v1.2h1.7v.5H65v1.3h1.8v.4Zm4 0H70l-1.3-2.8a9 9 0 0 1-.3-.7v3.5H68v-3.8h.6l1.4 2.7.3.6v-3.3h.4v3.8Zm3.9-3.5h-1.1v3.4H73v-3.4h-1.2v-.4h2.8v.4ZM25.1 145h-.4v-3.2l-.3.5-.6 1.4h-.6l-.7-1.4-.2-.5v3.1h-.5v-3.8h.6l.8 1.7.3.6.2-.6.8-1.7h.6v3.8Zm4.3 0h-.6l-.3-1.3H27l-.4 1.2h-.5l1.2-3.8h.7l1.3 3.8Zm-1-1.7-.5-1.1-.1-.7-.2.7-.4 1h1.1Zm4.8 1.7h-.6l-.9-1.6h-.8v1.5h-.5v-3.8h1.4l.5.2c.1 0 .2 0 .3.2l.2.3.1.5c0 .5-.2.9-.7 1l1 1.6Zm-.8-2.7c0-.3 0-.5-.2-.6l-.9-.1H31v1.4h.4l.9-.1c.2-.1.2-.3.2-.6ZM37 145h-.7l-1.6-1.9v1.8h-.5v-3.8h.5v1.8l1.7-1.8h.6l-1.8 1.9 1.8 2Zm3.2 0H38v-4h2.2v.5h-1.7v1.2H40v.4h-1.6v1.3h1.7v.4Zm3.8-3.4h-1.2v3.3h-.4v-3.3h-1.2v-.5H44v.5Zm1.6 3.4h-.5v-4h.5v3.8Zm4.1 0h-.6l-1.4-2.8-.3-.6v3.3H47v-3.8h.7l1.3 2.7.3.6v-3.3h.4v3.8Zm3.9-.1-1.1.1c-1 0-1.5-.5-1.5-1.6v-.7c0-1 .5-1.6 1.5-1.6h1.1v.5a11.4 11.4 0 0 0-1.5 0 1 1 0 0 0-.3.1c-.2.1-.2.2-.3.4v1.3c0 .4 0 .7.2 1l.8.2h.6V143h.5v1.9Zm5.6.1h-.5l-.4-1.3H57l-.4 1.2H56l1.2-3.8h.7l1.2 3.8Zm-1-1.7-.4-1.1-.1-.7-.2.7-.4 1h1Zm4.4.7c0 .3-.1.6-.3.7-.2.2-.5.3-1 .3l-1-.1v-.4h1.6c.2-.2.2-.3.2-.5l-.1-.4a1 1 0 0 0-.4-.3l-.7-.3-.5-.4a1 1 0 0 1-.2-.6c0-.6.4-1 1.2-1l1 .2v.4l-1-.1-.6.1-.2.4.1.4.4.2.7.3.6.4.2.7Zm3.5 0c0 .3 0 .6-.3.7-.2.2-.5.3-1 .3l-1-.1v-.4h1.6c.2-.2.2-.3.2-.5v-.4l-.5-.3-.6-.3c-.3-.1-.5-.2-.6-.4a1 1 0 0 1-.2-.6c0-.6.4-1 1.2-1l1 .2v.4l-1-.1-.6.1-.1.4v.4l.5.2.6.3c.3.1.5.2.6.4.2.2.2.4.2.7Zm4-.7c0 .5 0 1-.3 1.3-.3.2-.7.4-1.1.4-.5 0-.9-.1-1.1-.4-.3-.3-.4-.8-.4-1.3v-.5c0-.6.1-1 .4-1.3.2-.3.6-.4 1-.4.6 0 1 .1 1.2.4.2.3.3.7.3 1.3v.5Zm-.4 0v-.5c0-.9-.4-1.3-1-1.3-.7 0-1 .4-1 1.3v.5c0 .9.3 1.3 1 1.3.6 0 1-.4 1-1.3Zm3.9 1.7a5.2 5.2 0 0 1-1.3 0l-.5-.2-.3-.3-.2-.5v-2l.4-.5.5-.3h1.4v.4h-.8c-.4 0-.7 0-.8.3-.2.1-.3.5-.3 1v.5c0 .5 0 .8.3 1 .1.2.4.3.8.3h.8v.3Zm1.6 0h-.4v-4h.4v3.8Zm4.3 0H79l-.4-1.3h-1.4l-.4 1.2h-.5l1.3-3.8h.6l1.3 3.8Zm-1-1.7-.5-1.1-.1-.7-.2.7-.4 1h1.1Zm4.5-1.7h-1v3.3h-.5v-3.3h-1.2v-.5h2.9v.5Zm1.6 3.4h-.4v-4h.4v3.8Zm4.2-1.7c0 .5-.1 1-.4 1.3-.2.2-.6.4-1 .4-.5 0-.9-.1-1.1-.4-.3-.3-.4-.8-.4-1.3v-.5c0-.6.1-1 .4-1.3.2-.3.6-.4 1-.4.5 0 .9.1 1.2.4.2.3.3.7.3 1.3v.5Zm-.4 0v-.5c0-.9-.4-1.3-1-1.3-.7 0-1 .4-1 1.3v.5c0 .9.3 1.3 1 1.3.6 0 1-.4 1-1.3Zm4.4 1.7h-.7l-1.3-2.8a14 14 0 0 1-.3-.6v3.3h-.4v-3.8h.6l1.4 2.7.3.6v-3.3h.4v3.8Z"/></g><g fill="#fff" clip-path="url(#e)"><path d="m154.5 122.3 6.2.2a5 5 0 0 0 1.6 2.7c.8.6 2 1 3.4 1a6 6 0 0 0 3.6-1c.5-.3.8-.9.8-1.6 0-.4-.1-.8-.4-1.1-.3-.3-1-.6-2.1-.8-5-1.1-8.1-2.1-9.5-3a6 6 0 0 1-2.7-5.2c0-2 .8-3.7 2.4-5 1.6-1.4 4-2 7.4-2 3.2 0 5.5.5 7.1 1.5 1.6 1 2.6 2.5 3.2 4.5l-5.8 1.1c-.3-.9-.7-1.6-1.4-2-.7-.5-1.7-.8-3-.8-1.6 0-2.8.2-3.5.7-.5.3-.7.7-.7 1.2s.2.8.6 1.1c.6.4 2.5 1 5.8 1.8 3.3.7 5.6 1.6 6.9 2.7 1.3 1 1.9 2.6 1.9 4.5a7 7 0 0 1-2.7 5.5c-1.8 1.5-4.4 2.2-8 2.2-3 0-5.6-.6-7.5-1.9a7.5 7.5 0 0 1-3.6-6.3Zm26.3 7.7v-23h6.2v23h-6.2Zm22.3-23v4.8H199v9.3l.1 3.3c0 .3.3.6.6.8.2.2.6.3 1 .3a8 8 0 0 0 2.5-.6l.5 4.7c-1.4.6-3 1-4.9 1-1 0-2-.2-3-.6-.9-.4-1.5-.9-2-1.5-.4-.5-.6-1.3-.8-2.3l-.2-4.3v-10H190v-5h2.8V98h6.2v9h4.2Zm16.9 15.7h6.2c-.6 2.8-2 5-3.8 6a11.1 11.1 0 0 1-6.4 1.8c-4 0-7-1.3-9-3.9a13 13 0 0 1-2.3-8c0-3.8 1-6.8 3-9a10 10 0 0 1 7.7-3.2c3.5 0 6.2 1.2 8.2 3.4 2 2.3 3 5.8 2.9 10.4H211c0 1.9.6 3.3 1.5 4.3a5 5 0 0 0 3.6 1.5c1 0 1.8-.3 2.4-.8.7-.5 1.2-1.4 1.5-2.5Zm.4-6.2c0-1.8-.5-3.1-1.4-4-.9-1-2-1.4-3.2-1.4-1.3 0-2.5.5-3.4 1.5-.9 1-1.3 2.2-1.3 4h9.3ZM183.6 105c2 0 3.6-1.6 3.6-3.5 0-2-1.6-3.5-3.6-3.5s-3.5 1.6-3.5 3.5c0 2 1.6 3.5 3.5 3.5Zm-19.2 34.4c0 .2 0 .5.2.6.1.3.5.5 1 .5l.6-.1c.3-.2.5-.4.5-.7 0-.3 0-.4-.2-.5l-.7-.3-.6-.1-.8-.3a1 1 0 0 1-.4-.9 1.3 1.3 0 0 1 .4-1c.2-.2.6-.3 1.1-.3.5 0 .9 0 1.2.3.3.2.5.6.5 1h-.6c0-.2 0-.3-.2-.5s-.5-.3-.9-.3c-.3 0-.6 0-.7.2l-.2.3v.2c0 .3 0 .4.2.5l.8.3.6.1c.3 0 .5.2.7.3.3.2.4.5.4.9 0 .5-.2.8-.5 1-.4.3-.8.4-1.3.4s-1-.2-1.2-.5c-.3-.2-.5-.6-.5-1.1h.6Zm5.9-1.4c.3.2.5.6.5 1.1 0 .6-.1 1-.4 1.3-.3.4-.7.5-1.2.5-.4 0-.8-.1-1-.4-.3-.3-.5-.7-.5-1.2s.2-1 .5-1.3c.2-.3.6-.5 1-.5a1.5 1.5 0 0 1 1.1.4Zm-.3 2 .2-.8-.1-.8a1 1 0 0 0-.8-.4c-.4 0-.6.1-.8.4l-.2.9c0 .3 0 .6.2.8.2.3.4.4.8.4.3 0 .6-.2.7-.4Zm3.5-2.2c.2.1.4.4.4.9h-.5a1 1 0 0 0-.2-.5c-.2-.2-.3-.2-.6-.2s-.6.2-.8.5a2 2 0 0 0-.1.8c0 .3 0 .6.2.8.1.2.4.4.7.4a.7.7 0 0 0 .5-.2l.3-.6h.5c0 .4-.2.7-.4 1l-1 .2c-.4 0-.8-.1-1-.4-.3-.3-.4-.7-.4-1.2 0-.6.2-1 .4-1.3a1.4 1.4 0 0 1 1.1-.5c.4 0 .7 0 .9.3Zm.9-1.4h.5v.6h-.5v-.6Zm0 1.2h.5v3.2h-.5v-3.2Zm3.2.1a1.3 1.3 0 0 1 .8 1v.7H176c0 .3.1.6.3.8.1.2.3.3.6.3a.9.9 0 0 0 .7-.3l.2-.4h.6l-.2.4-.2.4-.7.3h-.4a1.4 1.4 0 0 1-1-.4c-.3-.3-.5-.7-.5-1.2 0-.6.2-1 .5-1.3.2-.3.6-.5 1-.5.3 0 .5 0 .7.2Zm.2 1.3-.1-.6c-.2-.3-.4-.4-.8-.4a.8.8 0 0 0-.6.3 1 1 0 0 0-.3.7h1.8Zm1.3-2.3h.6v.9h.5v.4h-.5v2.4h.5v.4h-.4l-.6-.1a.9.9 0 0 1-.1-.5V138h-.4v-.4h.4v-1Zm3.6.9h.6a80.7 80.7 0 0 0-1.7 4.3 1 1 0 0 1-.7.3h-.3v-.6h.6l.1-.3.2-.4-1.2-3.3h.6l.9 2.6.9-2.6Zm2.8-1c.1-.2.4-.3.7-.3h.3v.5h-.2l-.3.1v.7h.5v.4h-.6v2.8h-.5V138h-.5v-.4h.5v-1Zm3.7 1.4c.3.2.5.6.5 1.1 0 .6-.2 1-.4 1.3-.3.4-.7.5-1.2.5-.4 0-.8-.1-1-.4-.3-.3-.5-.7-.5-1.2s.2-1 .5-1.3c.2-.3.6-.5 1-.5a1.5 1.5 0 0 1 1.1.4Zm-.3 2 .2-.8c0-.3 0-.6-.2-.8-.1-.3-.4-.4-.7-.4-.4 0-.6.1-.8.4l-.2.9c0 .3 0 .6.2.8.2.3.4.4.7.4.4 0 .7-.2.8-.4Zm1.3-2.4h.6v.6c0-.2.1-.3.3-.5l.6-.2h.1v.6h-.1c-.3 0-.5 0-.7.3a1 1 0 0 0-.2.6v1.8h-.6v-3.2Zm3.8-1.2h.6v4.4h-.6v-4.4Zm1.4 1.2h.6v.4l.4-.4h.6c.5 0 .8 0 1 .4l.1.7v2.1h-.6v-2.5c-.1-.2-.3-.3-.6-.3a1 1 0 0 0-.3 0c-.2 0-.3.2-.4.3l-.2.3v2.2h-.6v-3.2Zm5.6.2c.2.1.3.4.4.9h-.6a1 1 0 0 0-.2-.5c0-.2-.3-.2-.5-.2-.4 0-.6.2-.8.5a2 2 0 0 0-.1.8c0 .3 0 .6.2.8.1.2.3.4.6.4l.6-.2.2-.6h.6c0 .4-.2.7-.5 1l-1 .2c-.3 0-.7-.1-1-.4-.2-.3-.3-.7-.3-1.2 0-.6.1-1 .4-1.3a1.4 1.4 0 0 1 1-.5c.4 0 .7 0 1 .3Zm2.8-.1a1.3 1.3 0 0 1 .8 1v.7h-2.4c0 .3.1.6.3.8 0 .2.3.3.6.3s.5-.1.7-.3l.2-.4h.6l-.2.4-.3.4-.6.3h-.4a1.4 1.4 0 0 1-1-.4c-.3-.3-.5-.7-.5-1.2 0-.6.2-1 .5-1.3.2-.3.6-.5 1-.5.3 0 .5 0 .7.2Zm.2 1.3-.1-.6c-.2-.3-.4-.4-.8-.4a.8.8 0 0 0-.6.3 1 1 0 0 0-.3.7h1.8Zm1.2-1.4h.5v.4l.5-.4h.6c.4 0 .8 0 1 .4v2.8h-.5v-2l-.1-.5c0-.2-.3-.3-.5-.3a1 1 0 0 0-.3 0c-.2 0-.3.2-.4.3l-.2.3v2.2h-.6v-3.2Zm3.5-.9h.5v.9h.5v.4h-.5v2.2l.1.2h.4v.4h-.4l-.5-.1a.9.9 0 0 1-.1-.5V138h-.5v-.4h.5v-1Zm1.5-.3h.5v.6h-.5v-.6Zm0 1.2h.5v3.2h-.5v-3.2Zm1.5 0 .9 2.6.9-2.6h.6l-1.2 3.2h-.6l-1.2-3.2h.6Zm4.8.1a1.3 1.3 0 0 1 .7 1v.7H215c0 .3 0 .6.2.8.1.2.4.3.7.3a.9.9 0 0 0 .7-.3l.2-.4h.5l-.1.4-.3.4-.6.3h-.5a1.4 1.4 0 0 1-1-.4c-.3-.3-.4-.7-.4-1.2 0-.6.1-1 .4-1.3a1.5 1.5 0 0 1 1.8-.3Zm.2 1.3c0-.2 0-.4-.2-.6-.1-.3-.4-.4-.7-.4a.8.8 0 0 0-.7.3 1 1 0 0 0-.2.7h1.8Zm-46.1 5.6v.5h-1.5v4h-.6v-4H167v-.5h3.6Zm.2 1.2h.5v.5l.3-.4a.8.8 0 0 1 .6-.2h.2v.6h-.2c-.3 0-.5 0-.7.2a1 1 0 0 0-.2.7v1.8h-.5v-3.2Zm3.7 1.2.2-.1v-.2l-.1-.4a1 1 0 0 0-.6-.1c-.3 0-.5 0-.6.2l-.2.4h-.5c0-.4.2-.7.4-.9l.9-.2c.4 0 .7 0 1 .2.2.2.3.4.3.7v2h.4v.4h-.4l-.4-.1-.1-.3-.5.4-.7.1a1 1 0 0 1-.8-.2.9.9 0 0 1-.2-.7c0-.3 0-.6.2-.7.2-.2.5-.3.8-.3l.9-.1Zm-1.2 1.5.4.2c.2 0 .4 0 .6-.2.3-.1.4-.4.4-.7v-.4h-.2a2 2 0 0 1-.3.1h-.4l-.4.2a.5.5 0 0 0-.3.5.5.5 0 0 0 .2.3Zm3-2.7 1 2.6.8-2.6h.6l-1.2 3.2h-.6l-1.2-3.2h.6Zm4.8.1a1.3 1.3 0 0 1 .7 1v.7h-2.3c0 .3 0 .6.2.8.2.2.4.3.7.3a.9.9 0 0 0 .9-.7h.5l-.1.4-.3.4-.6.3h-.4a1.4 1.4 0 0 1-1-.4c-.4-.3-.5-.7-.5-1.2 0-.6.1-1 .4-1.3.3-.3.7-.5 1.1-.5.3 0 .5 0 .7.2Zm.2 1.2-.1-.5c-.2-.3-.4-.4-.8-.4a.8.8 0 0 0-.6.2 1 1 0 0 0-.3.7h1.8Zm1.2-2.5h.5v4.4h-.5v-4.4Zm3 0h3.2v.5h-2.6v1.4h2.4v.5h-2.4v1.5h2.7v.5h-3.3v-4.4Zm3.5 1.2h.8l.8 1.1.7-1.1h.7l-1.1 1.6 1.2 1.6h-.8l-.8-1.2-.8 1.2h-.7l1.2-1.6-1.1-1.6Zm5.6.2c.2.1.4.4.4.9h-.5a1 1 0 0 0-.2-.5c-.2-.2-.4-.2-.6-.2-.4 0-.6.1-.8.5a2 2 0 0 0-.1.8c0 .3 0 .6.2.8.1.2.4.3.7.3.2 0 .4 0 .5-.2l.3-.5h.5c0 .4-.2.7-.4 1l-1 .2a1.3 1.3 0 0 1-1-.5c-.3-.3-.4-.7-.4-1.1 0-.6.1-1 .4-1.3a1.4 1.4 0 0 1 1-.5c.5 0 .8 0 1 .2Zm2.9-.1a1.3 1.3 0 0 1 .7 1v.7h-2.4c0 .3.1.6.3.8.1.2.3.3.7.3a.9.9 0 0 0 .8-.7h.6c0 .1 0 .3-.2.4l-.2.4-.6.3h-.5a1.4 1.4 0 0 1-1-.4c-.3-.3-.5-.7-.5-1.2 0-.6.2-1 .5-1.3.3-.3.6-.5 1-.5.3 0 .6 0 .8.2Zm.2 1.2-.2-.5c-.1-.3-.4-.4-.7-.4a.8.8 0 0 0-.7.2 1 1 0 0 0-.2.7h1.8Zm1.1-2.5h.6v4.4h-.6v-4.4Zm1.2 0h.6v4.4h-.5v-4.4Zm3.4 1.3a1.3 1.3 0 0 1 .7 1v.7h-2.4c0 .3.1.6.3.8.1.2.4.3.7.3a.9.9 0 0 0 .8-.7h.6c0 .1 0 .3-.2.4l-.2.4-.6.3h-.5a1.4 1.4 0 0 1-1-.4c-.3-.3-.4-.7-.4-1.2 0-.6.1-1 .4-1.3.3-.3.6-.5 1.1-.5.2 0 .5 0 .7.2Zm.2 1.2c0-.2 0-.4-.2-.5-.1-.3-.4-.4-.7-.4a.8.8 0 0 0-.7.2 1 1 0 0 0-.2.7h1.8Zm1.1-1.3h.5v.4l.5-.4.6-.1c.5 0 .8.2 1 .5v2.8h-.5v-2.5c-.2-.2-.3-.3-.6-.3a.9.9 0 0 0-.9.6v2.2h-.6v-3.2Zm5.5.2c.3.1.4.4.5.9h-.6a1 1 0 0 0-.2-.5c-.1-.2-.3-.2-.6-.2s-.6.1-.7.5a2 2 0 0 0-.2.8c0 .3.1.6.3.8 0 .2.3.3.6.3a.7.7 0 0 0 .6-.2l.2-.5h.6c0 .4-.2.7-.5 1l-1 .2c-.3 0-.7-.1-1-.5a2 2 0 0 1-.3-1.1c0-.6 0-1 .4-1.3a1.4 1.4 0 0 1 1-.5c.4 0 .7 0 1 .2Zm2.9-.1a1.3 1.3 0 0 1 .7 1v.7h-2.3c0 .3 0 .6.2.8.2.2.4.3.7.3a.9.9 0 0 0 .9-.7h.5l-.1.4-.3.4-.6.3h-.4a1.4 1.4 0 0 1-1-.4c-.4-.3-.5-.7-.5-1.2 0-.6.1-1 .4-1.3.3-.3.7-.5 1.1-.5.3 0 .5 0 .7.2Zm.2 1.2-.1-.5c-.2-.3-.4-.4-.8-.4a.8.8 0 0 0-.6.2 1 1 0 0 0-.3.7h1.8Z"/></g><g clip-path="url(#f)"><path fill="#fff" d="m278.7 118.1 1.8 1h30.6l1.7-1h-34.1Z"/><path fill="#fff" d="M280.5 119v.5H311v-.5h-30.4Zm0 .5v.8h30.3v-.8h-30.3Z"/><path fill="#fff" d="m280.5 120.3 1.3.8v5.8h.9V121l-1-.8h-1.2Zm5 0 1.2.8.1 5.8h.8l.1-5.9-1-.8h-1.2Zm5.2 0 1.3.8v5.8h.9V121l-1-.8h-1.2Zm5.2 0 1.2.8.1 5.8h.8l.1-5.9-1-.8h-1.2Zm5.5 0 1.2.8.1 5.8h.8l.1-5.9-1-.8h-1.2Zm4.8 0 1.2.8.1 5.8h.8l.1-5.9-1-.8h-1.2Zm12.4 1.5h-8.4v.7h8.4v-.7Zm-3.2 1.6h-5.2v.5h5.2v-.5Z"/><path fill="#fff" d="M281.8 120.6h-8.3v.7h8.3v-.7Zm0 1.3h-5.2v.5h5.2v-.5Z"/><path fill="#CCC" d="M278.5 135.2v-3s-2.7-.8-4.5 1.3l4.5 1.7Z"/><path fill="#E5E5E5" d="M268.5 132.6s4.6-2.6 5.5-2.6v3.5l4.5 1.7s-6.5 1.2-9.8 3.7c0 0 1.8-3.3 3.5-5 0 0-1.9-1.1-3.7-1.3Z"/><path fill="#fff" d="M274 130v-3s7-2.3 15.9-1.7c9 .6 16.9 1.3 21 .4 4.3-.8 6-1.5 6-1.5v6.4s-5.8 2.2-12.5 2c-6.7-.2-18-1.4-24.1-.6-6.2.9-6.3 1.5-6.3 1.5V130Z"/><path fill="#CCC" d="M316.9 124.2s-3.8 1.2-4.4 1.2v-2.8s3.2 1.5 4.4 1.6Z"/><path fill="#E5E5E5" d="M322.5 118.7s-6.8 3.9-10 3.9c0 0 3.2 1.6 4.4 1.6v3.6s4.6-1.7 5.6-2.6c0 0-2.5-.6-3.7-1.3 0 0 3.4-3.9 3.7-5.2Z"/><path fill="#fff" d="M278.5 120.8H277V107l1.4-1v14.8Zm2.1 0h-1.3v-14.6l1.3-1v15.6Zm2.1-.8h-1.3v-14.7l1.3-1V120Zm2.1-2.3h-1.3v-13.3l1.3-1v14.3Zm20.7 2.3H304l-.1-11.4 1.3-1 .2 12.3Zm2 .2h-1.3v-12.4l1.3-1v13.4Zm2.1.1h-1.3v-13.4l1.3-1v14.3Zm2.1-1.7h-1.3V106l1.3-1v13.6Zm2.3 1h-1.4V105l1.3-1v15.6Zm-24.7-5.8H288V99.2l1.3-1v15.6Zm2.2-1H290V98l1.4-.9v15.6Zm2.1-1.1h-1.3V97.1l1.3-1v15.6Zm2.2-1.1h-1.4V96l1.4-.9v15.5Zm2.2-1h-1.4V95l1.3-1v15.6Zm2-1.1h-1.3V94l1.4-.9v15.5Z"/><path fill="#A650FF" d="m294.9 98.8-1 4.5-1.6.3v2.2s-6.7 1.4-8.9 11.6h-4.7v.7h34v-.7H307s-2.2-8.4-9.6-11.7l-.4-2.1-1.3-.8-.8-4Z"/><path fill="#fff" d="M283.4 117.4h1c10.8-9.5 21.9-.8 21.9-.8-10.6-9-21.1-1.5-21.1-1.5 1.9-7 7.7-9 7.7-9v-2l1.4-.6.6-4.7-1 4.5-1.6.3v2.2s-7.7 1.9-8.9 11.6Zm2.7 22h-.7v-2.7c-.2.3-.5.4-.9.6v-.7l.6-.3.5-.6h.5v3.7Zm.9-.9h.8l.1.3a.4.4 0 0 0 .3 0 .4.4 0 0 0 .3-.1l.2-.9a.8.8 0 0 1-.6.3 1 1 0 0 1-.8-.3c-.2-.2-.3-.5-.3-.9l.3-.9c.3-.2.5-.3.9-.3a1.1 1.1 0 0 1 .9.4c.2.3.4.8.4 1.4 0 .7-.2 1.2-.4 1.5a1.2 1.2 0 0 1-1 .4 1 1 0 0 1-.7-.2c-.1-.1-.3-.4-.3-.7Zm1.7-1.5c0-.2 0-.4-.2-.5a.5.5 0 0 0-.3-.2.4.4 0 0 0-.4.1v1.1a.5.5 0 0 0 .4.1.5.5 0 0 0 .3-.1l.2-.5Zm1.7.4a.8.8 0 0 1-.4-.3l-.1-.5a.9.9 0 0 1 .3-.6c.2-.2.4-.3.8-.3.3 0 .6 0 .8.3a.9.9 0 0 1 .2 1l-.4.4c.2 0 .3.2.4.3.2.2.2.4.2.6 0 .3-.1.6-.3.8-.2.2-.5.3-.9.3-.3 0-.6 0-.8-.2a1 1 0 0 1-.4-.9l.1-.5.5-.4Zm0 .9.2.4a.5.5 0 0 0 .4.2h.2l.2-.2.1-.4-.1-.5a.5.5 0 0 0-.4-.1h-.2l-.2.2-.1.4Zm.2-1.6v.2a.4.4 0 0 0 .2.2h.2a.4.4 0 0 0 .3 0 .5.5 0 0 0 0-.7.5.5 0 0 0-.6 0 .4.4 0 0 0-.1.3Zm3.7 2.7h-.7v-2.7c-.2.3-.5.4-.9.6v-.7c.3 0 .5-.2.6-.3l.5-.6h.5v3.7Zm1.1-1v-.7h1.3v.7h-1.3Zm3.9.3v.7h-2.5l.2-.7.8-1 .6-.5.2-.4a.5.5 0 0 0-.2-.4.5.5 0 0 0-.3-.1l-.4.1-.1.4h-.7c0-.4.2-.7.4-.9l.8-.2c.3 0 .6 0 .8.3a1 1 0 0 1 .4.7l-.1.5-.3.4-.5.5a7.7 7.7 0 0 0-.5.6h1.4Zm1.5-3c.4 0 .6.1.8.4.2.2.4.8.4 1.5s-.1 1.2-.4 1.5c-.2.3-.4.3-.8.3a1 1 0 0 1-.9-.4c-.2-.3-.3-.7-.3-1.4 0-.8.1-1.2.4-1.5.2-.3.5-.4.8-.4Zm0 .6h-.2l-.2.3v1.8l.2.4h.4l.2-.3v-1.8l-.2-.4h-.2Zm3.9 2.4v.7h-2.4c0-.3 0-.5.2-.7.1-.3.4-.5.8-1l.6-.5.1-.4-.1-.4a.5.5 0 0 0-.7 0l-.1.4h-.7c0-.4.1-.7.3-.9l.9-.2c.3 0 .6 0 .8.3a1 1 0 0 1 .3.7v.5l-.3.4-.5.5a6.4 6.4 0 0 0-.6.6h1.4Zm2.2.7h-.7v-2.7c-.3.3-.6.4-1 .6v-.7c.3 0 .5-.2.7-.3l.4-.6h.6v3.7Z"/><path fill="#000" d="m280 129.1.4.1c0 .2-.2.3-.3.4l-.4.2a.7.7 0 0 1-.6-.2.9.9 0 0 1-.3-.6c0-.3 0-.5.2-.7a.7.7 0 0 1 .6-.3c.2 0 .3 0 .5.2l.2.3h-.3l-.2-.1h-.2a.4.4 0 0 0-.3 0l-.1.5.1.5a.4.4 0 0 0 .6 0l.1-.3Zm1.3.2h.4l-.2.3-.4.1c-.2 0-.3 0-.5-.2l-.1-.4.1-.5a.5.5 0 0 1 .4-.2.6.6 0 0 1 .5.2l.2.5h-.9v.2h.1l.1.1h.3v-.1Zm0-.4v-.2a.2.2 0 0 0-.2 0h-.2v.3h.4Zm.7.7-.2-1.7h.3l.1 1.7h-.3Zm1.2-.4h.3l-.1.3-.4.1c-.2 0-.3 0-.5-.2l-.1-.4.1-.5a.5.5 0 0 1 .4-.2.5.5 0 0 1 .5.2l.2.5h-.9l.1.3h.3l.1-.1Zm0-.4v-.2h-.4v.3h.4Zm.6.7v-1.7h.3v.6a.5.5 0 0 1 .3-.2.5.5 0 0 1 .4.2l.2.5c0 .2 0 .3-.2.5h-.1a.5.5 0 0 1-.4.1c-.1 0-.2 0-.2-.2v.2h-.3Zm.3-.6v.3h.2a.2.2 0 0 0 .3 0v-.6h-.1l-.1-.1h-.2v.1l-.1.3Zm1.4.6h-.3v-1.3h.3v.2l.1-.2h.4l-.1.3h-.3v.2c-.1.1-.1.3 0 .4v.4Zm.8-.9h-.3c0-.2.1-.3.2-.3l.3-.1h.4l.1.2v.6l.1.3v.1h-1v-.1l-.1-.2v-.2h.2l.2-.2h.3v-.2h-.3Zm.5.2-.2.1h-.2v.1a.2.2 0 0 0 0 .2h.3v-.3Zm1.2-.6v.2h-.3v.7h.2v.3h-.2a.3.3 0 0 1-.3 0v-.9h-.2v-.3h.2v-.3l.3-.2v.5h.2Zm.1-.2v-.3h.3v.3h-.3Zm0 1.4v-1.2h.3v1.2h-.3Zm1.8 0h-.4v-.9l-.2-.1h-.1l-.1.2v.8h-.4v-1.2h.3v.2a.5.5 0 0 1 .4-.3h.2l.2.2v1.1Zm.2.1h.4v.1h.4v-.4a.5.5 0 0 1-.6.2l-.1-.2-.1-.4.1-.5a.5.5 0 0 1 .6-.1l.2.2v-.2h.3v1.4l-.2.2-.1.1h-.8v-.4Zm.3-.7v.3h.4l.2-.3-.1-.3h-.1l-.1-.1h-.2v.4Zm2.3.7v-.4h-.7v-.3l.8-1h.3v1h.2v.3h-.2v.4h-.4Zm0-.7v-.6l-.3.6h.4Zm1.3-1c.2 0 .3 0 .4.2l.1.7c0 .3 0 .5-.2.7a.5.5 0 0 1-.4.1.5.5 0 0 1-.4-.2l-.1-.7c0-.3 0-.5.2-.7a.5.5 0 0 1 .4-.1Zm0 .2h-.1l-.1.2v1h.2l.1-.1v-1h-.1Zm1.7 1.6v-.8l-.5-1h.4l.4.7.4-.6h.4l-.7 1v.7h-.4Zm1.7-.3h.4c0 .2-.2.2-.3.3h-.3c-.2 0-.4 0-.5-.2v-.4l.1-.5.2-.1h.5l.2.2.1.6-.8-.1v.2a.2.2 0 0 0 .2.1h.2v-.1Zm0-.4v-.2h-.4l-.1.2h.5Zm.9 0-.3-.1c0-.1 0-.2.2-.3h.7l.1.2v1.1h-.3v-.2l-.2.1h-.5v-.4a.3.3 0 0 1 .1-.3l.3-.1h.3v-.2h-.2c0-.1-.1 0-.1 0h-.1Zm.4.2h-.2l-.2.1v.4h.3v-.1l.1-.2Zm.9.7h-.4l.1-1.3h.3v.2l.2-.1h.2l-.1.3h-.4v.9Zm.4-.3h.4l.2.1h.2v-.2l-.6-.2a.3.3 0 0 1 0-.3.4.4 0 0 1 0-.2l.4-.1h.4l.2.3h-.4s-.1-.1-.2 0c0-.1 0 0-.1 0l.2.2.4.1v.1s.1.1 0 .2a.4.4 0 0 1 0 .3h-.9l-.2-.3Zm2.4.5v-1.5h-.5v-.3h1.4v.3h-.5v1.4h-.4Zm.8-.7v-.3l.3-.3a.7.7 0 0 1 .6 0l.2.2a.6.6 0 0 1 .2.4.6.6 0 0 1-.2.5.6.6 0 0 1-.5.2l-.3-.1a.6.6 0 0 1-.2-.2l-.1-.4Zm.3 0 .1.3h.1l.1.1a.3.3 0 0 0 .2 0l.1-.4v-.3a.3.3 0 0 0-.3 0h-.2v.3Zm1.1.7h.4v.1l.2.1h.2v-.4s-.1.2-.3.2a.5.5 0 0 1-.4-.3l-.1-.4.1-.5a.5.5 0 0 1 .4-.1.5.5 0 0 1 .4.2v-.2h.3v1.5l-.1.1-.2.1h-.7l-.1-.2v-.1Zm.3-.7.1.3h.4v-.6a.3.3 0 0 0-.3 0l-.2.3Zm1.9.3h.3c0 .1 0 .2-.2.3h-.3l-.5-.1-.1-.5.1-.4a.5.5 0 0 1 .4-.2.5.5 0 0 1 .5.2l.1.5h-.8v.3a.2.2 0 0 0 .3 0h.1v-.1Zm0-.4a.3.3 0 0 0 0-.2.2.2 0 0 0-.2 0h-.2v.2h.4Zm1.1-.5v.2h-.2v.7h.2v.3h-.4l-.1-.2v-.7h-.2v-.3h.1v-.3l.4-.2v.5h.2Zm.5-.5v.6l.2-.2h.4l.1.2v.1l.1.2v.8h-.3v-.9l-.1-.1h-.3v.1l-.1.3v.6h-.3v-1.7h.3Zm1.8 1.2h.3c0 .2 0 .3-.2.3l-.3.2c-.2 0-.4 0-.5-.2l-.1-.4.1-.5a.5.5 0 0 1 .4-.2l.4.1c.2.1.2.3.2.6h-.8l.1.2v.1h.4v-.2Zm0-.3v-.2h-.3a.2.2 0 0 0-.1 0s-.1.1 0 .2h.4Zm.8.7h-.2l-.1-1.3h.3v.2l.1-.2h.4l-.1.3h-.2l-.1.1v.9Z"/><path fill="#fff" d="M281.4 143.9a5.4 5.4 0 0 0-1.3-1.9 2 2 0 0 0-1-.6 2 2 0 0 0-1.1-.3 3 3 0 0 0-1.5.4c-.4.2-.6.6-.6 1.2 0 .3.1.6.3.8l.7.7 1 .5a96.8 96.8 0 0 1 3.2 1.7l.7 1c.2.3.3.7.3 1.2s-.1 1-.3 1.3l-.8 1-1.1.5a5 5 0 0 1-2.2 0h-.8a73.5 73.5 0 0 0-1.6-.2h-.3a27.9 27.9 0 0 0-.7-3.5h.2l.7 1a5.2 5.2 0 0 0 2 2c.4.2.8.3 1.3.3h.9l.7-.4c.3-.1.4-.3.6-.5l.2-1a2 2 0 0 0-.5-1.2l-1.1-.8-1.5-.7-1.5-.8c-.4-.2-.8-.5-1.1-.9a2 2 0 0 1-.5-1.4 2.6 2.6 0 0 1 1.8-2.5l1.1-.2 1 .1 1 .2.9.2h1a63.3 63.3 0 0 0 0 2.8h-.1Zm11.7.4-.6-1.2-.8-1c-.3-.3-.6-.6-1-.7-.4-.2-.9-.3-1.4-.3a3 3 0 0 0-1.6.4l-1.2 1.2a5.8 5.8 0 0 0-1 3.4c0 .6.1 1.3.3 1.9.1.6.4 1 .7 1.5.4.5.8.8 1.2 1 .5.4 1 .5 1.6.5.5 0 1 0 1.5-.2.5 0 1-.3 1.4-.6v-2c0-.7-.6-1.1-1.7-1.1v-.2a31.9 31.9 0 0 1 2.3 0 41.3 41.3 0 0 0 2.3 0v.2h-.6l-.5.2a1 1 0 0 0-.3.4l-.1.7v2.2a44.6 44.6 0 0 1-4.2 1c-.7 0-1.4-.2-2-.4-.8-.2-1.4-.6-1.9-1-.5-.5-1-1-1.3-1.8a5.5 5.5 0 0 1 3.1-7.3c.7-.3 1.4-.5 2-.5a9.8 9.8 0 0 1 3 .4l.6.2a9.9 9.9 0 0 0 .2 1.5 164.5 164.5 0 0 0 .2 1.6h-.2Zm11.7-3.4a43.2 43.2 0 0 0 4.3 0v.2c-.4 0-.8.2-1 .3-.4.2-.5.6-.5 1v1.4a98 98 0 0 0 1.3 6.4c0 .2.2.3.3.4.1.2.3.3.5.3l.8.2v.2a53.1 53.1 0 0 0-4.8 0v-.2l.6-.1.5-.2.4-.4.1-.7a10.1 10.1 0 0 0-.1-1.2l-1.1-6.4a62.6 62.6 0 0 1-2 4.5 117.8 117.8 0 0 0-1.7 4.6 49 49 0 0 0-3.7-9.2 77 77 0 0 0-.7 8l.3.6.5.4 1 .1v.2a60.6 60.6 0 0 0-4.6 0v-.2a3.4 3.4 0 0 0 1.3-.4l.4-.4.2-.5.2-1.2.2-1.2.7-5.6c-.2-.2-.4-.4-.8-.5a5 5 0 0 0-.9-.2v-.2a62.1 62.1 0 0 0 4.7 0v.2l-.6.2c-.2.2-.2.3-.2.6v.5l.2.6 2.3 5.4a94.1 94.1 0 0 0 2.8-6.8l-.4-.3-.5-.2v-.2Zm10.9 10.4a47.8 47.8 0 0 0-4.7 0v-.2c.4 0 .7 0 .9-.2.2 0 .4-.2.5-.4l.2-.7v-7.4c0-.3 0-.6-.2-.8a1 1 0 0 0-.5-.4l-.9-.1v-.2a36 36 0 0 0 5-.1c.5 0 .9 0 1.3.2l1.2.6.8 1c.3.4.4.8.4 1.3s-.1 1-.4 1.3l-.8.8a3 3 0 0 1-1.2.5l-1.3.1h-1l-1-.2v2.3l.1 1.1.2.7c.1.2.3.4.5.4l1 .2v.2Zm-1.6-5.5.7.3h.9l.9-.1.8-.4.5-.7.2-1c0-.4 0-.8-.2-1a2.4 2.4 0 0 0-1.4-1.5l-1-.2h-.7l-.7.3v4.3Z"/></g><g clip-path="url(#g)"><path fill="#000" d="m76.1 198.5 9 8.8c.4.4.6.8.6 1.3v28h4.6V210a1 1 0 0 0-.2-.7L83 203l-4.4-3.9 6.5-6 .5.6 8.6 8.4a3 3 0 0 1 1 2.3v32.1h4.6v-30.7c0-1-.3-1.6-1-2.2l-7.3-6.6-5.5-5-.6-.4-7 7.4-1.5-1.4c-.3-.3-.5-.4-.8 0l-6.6 7.2-4 4.2.2.2 10.4-10.6Z"/><path fill="#fff" d="M76.1 198.5 65.7 209l-.2-.2 4-4.3 6.6-7.1c.3-.4.5-.3.8 0l1.5 1.4 7-7.4.6.4 5.5 5 7.3 6.6c.7.6 1 1.3 1 2.2v30.6H95v-32a3 3 0 0 0-1-2.3l-8.5-8.4a6 6 0 0 1-.5-.6l-6.5 6 4.4 4 7 6.3c.2.2.3.4.3.7a8219.4 8219.4 0 0 1 0 26.5h-4.6v-27.9c0-.5-.2-.9-.6-1.3l-9-8.8Zm-53.9 20.8h4.2l6.2 17.2h-4l-1.2-3.5H21l-1.2 3.5H16l6.2-17.2ZM22 230h4.5l-2.2-6.7L22 230Zm13.8 6.5v-17.2h3.6v6.6h6.8v-6.6h3.6v17.2h-3.6V229h-6.8v7.6h-3.6Zm17.8-17.2h3.6v14.1H66v3.1H53.6v-17.2Z"/><path fill="#fff" d="M73.6 219.3h4.2l6.2 17.2h-4l-1.2-3.5h-6.4l-1.2 3.5h-3.8l6.2-17.2Zm-.2 10.7h4.5l-2.2-6.7-2.3 6.7ZM16 242.4l1-2.6h.3l1 2.6h-.2l-.3-.8h-1.2l-.3.8H16Zm.7-1h1l-.5-1.4-.5 1.4Zm2.2 1v-2.6h.4l.8 2.3.9-2.3h.3v2.6h-.2v-2.3l-.9 2.3H20l-.9-2.3v2.3H19Zm3.1 0v-2.6h1.8v.2h-1.5v1h1.4v.2h-1.4v1H24v.2h-2Zm2.7-1.2v1.2h-.2v-2.6h1c.3 0 .5 0 .7.2l.2.5-.1.4-.3.2.2.1v.2l.1.2v.5a2 2 0 0 0 0 .2h.1v.1h-.2l-.1-.2v-.7l-.1-.1-.2-.1h-1.1Zm.8-.2h.3l.2-.1a.4.4 0 0 0 .2-.4v-.2l-.2-.2h-1.3v1h.8Zm1.7 1.4v-2.6h.2v2.6h-.2Zm3-1.8c0-.2-.2-.4-.3-.5a1 1 0 0 0-.6-.1.8.8 0 0 0-.7.3l-.1.4v.8l.1.4.3.3h.7l.3-.1.2-.3v-.3h.3a1.3 1.3 0 0 1-.3.7 1 1 0 0 1-.3.2h-1a1 1 0 0 1-.4-.3l-.2-.5a2.1 2.1 0 0 1 0-1.1l.3-.4.4-.3a1.5 1.5 0 0 1 .9 0s.2 0 .3.2l.2.2.1.4h-.2Zm.7 1.8 1-2.6h.3l1 2.6h-.3l-.3-.8h-1.2l-.3.8H31Zm.6-1h1L32 240l-.5 1.4Zm2.5-1.2v2.2h-.3v-2.6h.3l1.5 2.3v-2.3h.2v2.6h-.2l-1.6-2.3Zm3.7 2.2v-2.6h.2v1.1h1.6v-1h.2v2.5h-.2v-1.3h-1.6v1.3h-.2Zm2.7-1.3v-.5l.3-.4c.1-.2.2-.3.4-.3l.5-.1h.5l.4.3.3.5a1.8 1.8 0 0 1 0 1c0 .2-.2.3-.3.5l-.3.3a1.4 1.4 0 0 1-1.1 0 1.1 1.1 0 0 1-.6-.8l-.1-.5Zm1.2 1.2.5-.1.3-.3.1-.4.1-.4v-.5a1 1 0 0 0-.3-.3l-.3-.3h-.4a.9.9 0 0 0-.7.3 1.3 1.3 0 0 0-.3.8l.1.4.2.4a.9.9 0 0 0 .7.4Zm1.7-2.5h1.9v.2h-.8v2.4H44V240h-.8v-.2Zm2.4 2.6v-2.6h1.8v.2H46v1h1.3v.2H46v1h1.5v.2h-1.8Zm2.4 0v-2.6h.3v2.4h1.4v.2H48Zm4.9-.7v-.2l.1-.3h.2v.4l-.2.3.5.5h-.3l-.3-.3-.4.3a1.1 1.1 0 0 1-.7 0l-.3-.1-.2-.3v-.6l.2-.2.2-.2.2-.1-.2-.3a.6.6 0 0 1 0-.5v-.1l.3-.1h.2a.5.5 0 0 1 .4 0 .5.5 0 0 1 .1.4v.2l-.1.2-.2.1-.2.2.7.7Zm-.9-.6H52l-.1.2-.1.2v.6l.3.1h.5l.3-.3-.8-.8Zm.5-.6v-.3l-.1-.1H52a.3.3 0 0 0 0 .3v.2l.1.1.1.1.2-.1.2-.2Zm2.7 1.9v-2.6h.3v2.4H57v.2h-1.7Zm2.1-1.3v-.5l.3-.4c.1-.2.3-.3.4-.3l.5-.1h.6l.3.3.3.5a1.8 1.8 0 0 1 0 1c0 .2-.2.3-.3.5a1 1 0 0 1-.3.3 1.4 1.4 0 0 1-1.1 0 1.1 1.1 0 0 1-.6-.8v-.5Zm1.2 1.2.5-.1.3-.3.1-.4.1-.4v-.5l-.3-.3-.3-.3h-.4a.9.9 0 0 0-.7.3l-.2.4v.8l.2.4a.9.9 0 0 0 .7.4Zm1.9.1v-2.6h1.3l.2.1.2.1.2.2.2.3a1.7 1.7 0 0 1 0 .6v.5l-.1.3-.2.2-.2.1-.2.1h-.2l-.3.1h-.9Zm.3-.2h.9l.3-.1.2-.2.1-.2a1.3 1.3 0 0 0 .1-.6v-.6l-.2-.2a.7.7 0 0 0-.5-.2h-.9v2Zm3.6-.9v-.2h1.2v1.3h-.3v-.4l-.1.2-.2.1-.3.1a1.4 1.4 0 0 1-.8 0 1 1 0 0 1-.4-.3l-.2-.4v-1.1l.2-.5.4-.2.5-.1h.4a1 1 0 0 1 .6.4l.1.4h-.2l-.1-.3a.9.9 0 0 0-.5-.3h-.2a1 1 0 0 0-.5 0l-.3.3-.2.4v.5a1.3 1.3 0 0 0 .2.7l.3.3h.9l.2-.2.1-.2v-.2l.1-.3h-.9Zm2 1.1v-2.6h.3v2.6h-.3Zm1.4-2.2v2.2h-.3v-2.6h.3l1.5 2.3v-2.3h.3v2.6h-.3l-1.5-2.3Zm3.6 1.1v-.2h1.2v1.3h-.2v-.4l-.2.2-.2.1-.3.1H71a1 1 0 0 1-.3-.3c-.2-.1-.2-.2-.3-.4v-1.1l.2-.5.4-.2.5-.1h.4a1 1 0 0 1 .6.4l.1.4h-.2a.8.8 0 0 0-.6-.6h-.2a1 1 0 0 0-.5 0l-.3.3-.2.4v.5a1.3 1.3 0 0 0 .2.7l.3.3h.9l.2-.2a.8.8 0 0 0 .2-.4v-.3h-.9Zm2.9 1.1 1-2.6h.3l1 2.6h-.2l-.3-.8h-1.2l-.4.8h-.2Zm.6-1h1l-.4-1.4-.6 1.4Zm2.3.2.1.3.2.2.2.1h.6l.2-.1.1-.2v-.4l-.2-.2h-.2l-.3-.1-.3-.1-.3-.1-.2-.2v-.6a.7.7 0 0 1 .5-.4h.7l.3.2.2.2v.3h-.2v-.2l-.2-.2-.2-.1h-.6a.5.5 0 0 0-.3.3v.2l.1.2.2.2h.3l.3.1h.2l.3.2.1.2a.7.7 0 0 1-.1.9l-.8.2h-.3l-.3-.2-.2-.3-.1-.4h.2Zm2.4 0 .1.3.2.2.2.1h.6l.2-.1.1-.2v-.4l-.2-.2h-.2l-.3-.1-.3-.1-.3-.1-.2-.2v-.6a.7.7 0 0 1 .5-.4h.7l.3.2.2.2v.3H81v-.2l-.2-.2-.2-.1h-.2a.7.7 0 0 0-.6.2v.1c-.1.1-.1.2 0 .2v.2l.2.2h.3l.3.1h.2l.3.2a.6.6 0 0 1 .2.5.7.7 0 0 1-.2.6l-.7.2H80l-.3-.2-.2-.3-.1-.4h.2Zm2.2-.5a1.5 1.5 0 0 1 .4-1l.3-.2.6-.1h.5l.4.3.2.5v1l-.2.5a1 1 0 0 1-.4.3 1.4 1.4 0 0 1-1 0 1 1 0 0 1-.4-.3 1.4 1.4 0 0 1-.4-1Zm1.3 1.2.4-.1.3-.3.2-.4v-.9a1 1 0 0 0-.2-.3l-.3-.3a1 1 0 0 0-.4 0 1 1 0 0 0-.5 0 1 1 0 0 0-.3.3l-.2.4a1.8 1.8 0 0 0 0 .8l.2.4.3.3h.5Zm3.6-1.7c0-.2-.2-.4-.3-.5a1 1 0 0 0-.6-.1l-.4.1-.3.2-.1.4v.9l.1.3.3.3h.8l.2-.1.2-.2v-.3h.3v.3a1 1 0 0 1-.6.5l-.5.1-.5-.1a1 1 0 0 1-.4-.3l-.2-.4a2.1 2.1 0 0 1 0-1.2l.3-.4.4-.2a1.4 1.4 0 0 1 .9 0l.3.1.2.3.1.3h-.2Zm1.1 1.8v-2.6h.3v2.6h-.3Zm.9 0 1-2.6h.3l1 2.6h-.2l-.3-.8h-1.2l-.3.8h-.3Zm.7-1h1l-.5-1.4-.5 1.4Zm1.9-1.6h2v.2h-1v2.4h-.1V240h-.9v-.2Zm2.5 2.6v-2.6h.3v2.6h-.3Zm1-1.3.1-.5c0-.2.2-.3.3-.4 0-.2.2-.3.3-.3l.6-.1h.5l.4.3.2.5a1.8 1.8 0 0 1 0 1l-.2.5-.4.3a1.4 1.4 0 0 1-1 0l-.4-.3-.3-.5v-.5Zm1.3 1.2.4-.1.3-.3.2-.4v-.9a1 1 0 0 0-.2-.3l-.3-.3a1 1 0 0 0-.4 0 1 1 0 0 0-.8.3l-.1.4a1.8 1.8 0 0 0 0 .8l.1.4a.9.9 0 0 0 .8.4Zm2.1-2.1v2.2h-.3v-2.6h.3l1.5 2.3v-2.3h.3v2.6h-.3l-1.5-2.3Z"/></g><g clip-path="url(#h)"><path fill="#fff" d="M156.4 234.7s-3 5.8-8.4 5.4c-5.2-.3-11.8-4-12.8-7.6 0 0-2 5 3 7.8 5.1 2.8 10 2.6 13 1 3-1.8 6.2-4.6 6.9-8.1v-2l-1.2 2.9-.5.6Zm8.9-37.3v1a17 17 0 0 1-28 13 17 17 0 0 0 13 6 17 17 0 0 0 16.7-20"/><path fill="#fff" d="M154.7 212.6c1.4 0 2.6-1.3 2.6-2.8 0-1.6-1.2-2.9-2.6-2.9-1.5 0-2.6 1.3-2.6 2.9 0 1.5 1.1 2.8 2.6 2.8Zm10.9-26.6 1 3.5h3.7l-3 2.1 1 3.5-2.9-2.2-3 2 1.3-3.4-3-2.2 3.7.1 1.2-3.4Z"/><path fill="#BABABA" d="M142.4 222.2s0 3.4 7 4.7c6.9 1.4 8 6.3 7 7.8 0 0 3-1.8 1.2-5.5-1.8-3.8-8.6-2.2-11.2-6.1 0 0-1-1.1-1-1.9 0-.7-3 1-3 1Z"/><path fill="#FDFDFD" d="M142.4 222.2s3.7-1.8 9-1.5c5.5.3 10-3.3 12.2-5.5 2.2-2.2 3.5-6.3 3.5-6.3s-4.7 8.7-11.9 9.5c-7.1.7-8.4-.2-12.8 3.8Z"/><path fill="#fff" fill-rule="evenodd" d="M128.2 217.8H142v1h-13V236h13v1h-14v-19Z" clip-rule="evenodd"/><path fill="#fff" fill-rule="evenodd" d="M128.6 226.4H141v1h-12.4v-1Zm32.4-8.5h11.1v.5-.5h.4a4.7 4.7 0 0 1 2 .8c1.1.7 2.2 2.1 2.2 4.7 0 1.3-.3 2.3-.8 3.1-.5.8-1.1 1.3-1.8 1.6a5.8 5.8 0 0 1-2.4.7v-.5.5H162v8.3h-1v-19.2Zm1 10h9.5a3.5 3.5 0 0 0 .7-.2c.4 0 .9-.2 1.4-.4.5-.3 1-.7 1.4-1.3.3-.6.6-1.4.6-2.6 0-2.3-1-3.4-1.8-4a3.9 3.9 0 0 0-1.6-.5H162v9Zm22-11.1 8.7 20.1-.9.4-7.9-18.2-8.4 17.8-.9-.4 9.3-19.7Z" clip-rule="evenodd"/><path fill="#fff" fill-rule="evenodd" d="M189 230.6h-10.6v-1H189v1Z" clip-rule="evenodd"/><path fill="#fff" d="M195 223.4v-3.2h2.3v.4h-1.9v1h1.8v.3h-1.8v1h2v.5H195Zm3.5 0-1-2.3h.5l.5 1.3.2.5.1-.4.5-1.4h.4l-.9 2.3h-.3Zm3.1-.8h.4c0 .3-.2.5-.4.6-.2.2-.4.2-.7.2a1 1 0 0 1-.8-.3c-.2-.2-.3-.5-.3-.9 0-.3.1-.7.3-.9.2-.2.5-.3.8-.3a1 1 0 0 1 .8.3 1.3 1.3 0 0 1 .3 1h-1.7c0 .3 0 .5.2.6a.6.6 0 0 0 .5.2l.3-.1.3-.4Zm-1.3-.6h1.3l-.2-.5a.6.6 0 0 0-.4-.2h-.3l-.2.2-.2.5Zm2.1 1.4V221h.3v.3c.2-.3.4-.4.8-.4h.3l.3.3.1.3v1.8h-.3v-1.7l-.3-.2h-.2l-.5.1-.1.6v1.3h-.4Zm3.2-.4v.4h-.6l-.1-.2v-1.8h-.3v-.3h.2v-.6l.4-.3v.9h.4v.3h-.4v1.5l.1.1h.3Zm-10.8 4h.4l.2.3c0 .2.2.2.3.3h.9c.1 0 .2 0 .3-.2v-.5l-.3-.2-.6-.2-.6-.2a.9.9 0 0 1-.3-.3l-.1-.4.1-.4c.1-.2.2-.3.4-.3l.6-.1h.6a1 1 0 0 1 .6 1h-.4c0-.3-.1-.4-.2-.5a.9.9 0 0 0-.6-.2 1 1 0 0 0-.5.2l-.2.1v.2a.4.4 0 0 0 .1.3l.6.2.8.2.4.4s.1.3 0 .4v.5a1 1 0 0 1-.5.3l-.6.2c-.2 0-.5 0-.7-.2a1 1 0 0 1-.5-.3 1 1 0 0 1-.2-.6Zm4.6.3h.4l-.3.6-.7.2a1 1 0 0 1-.8-.3c-.2-.3-.3-.6-.3-1 0-.3.1-.6.3-.8.2-.2.5-.4.8-.4a1 1 0 0 1 .7.4 1.3 1.3 0 0 1 .3 1h-1.7c0 .2 0 .4.2.5a.6.6 0 0 0 .5.2h.4l.2-.4Zm-1.3-.7h1.3l-.1-.4a.6.6 0 0 0-.5-.2.6.6 0 0 0-.5.1l-.2.5Zm2.1 1.4v-2.3h.4v.4l.2-.4h.7l-.2.4h-.5l-.1.2v1.7h-.5Z"/><path fill="#fff" d="m202.3 228-1-2.3h.5l.5 1.4.1.4.2-.4.5-1.4h.4l-.9 2.3h-.3Zm1.5-2.7v-.5h.4v.5h-.4Zm0 2.7v-2.3h.4v2.3h-.4Zm2.4-.8h.4c0 .3-.2.5-.4.6a1 1 0 0 1-.6.3 1 1 0 0 1-.8-.3c-.2-.3-.3-.6-.3-1 0-.2 0-.4.2-.6 0-.2.2-.3.4-.4l.5-.2.6.2.3.6h-.4l-.1-.3-.4-.1a.6.6 0 0 0-.5.2l-.1.7.1.6a.6.6 0 0 0 .5.2l.4-.1.2-.4Zm2.2.1h.4c0 .2-.2.4-.4.6a1 1 0 0 1-.6.2c-.3 0-.6-.1-.8-.3-.2-.3-.3-.6-.3-1 0-.3 0-.6.3-.8.2-.2.4-.4.8-.4a1 1 0 0 1 .7.4c.2.2.3.5.3.9h-1.7c0 .3 0 .5.2.6a.6.6 0 0 0 .5.2h.4l.2-.4Zm-1.3-.7h1.3l-.1-.4-.3-.2h-.2a.6.6 0 0 0-.5.1l-.2.5Zm-12.1 6.1v-3.2h1.7l.4.1.2.4.1.4c0 .2 0 .5-.2.7-.2.2-.5.3-1 .3h-.8v1.3h-.4Zm.4-1.7h.8c.3 0 .5 0 .6-.2l.2-.4-.1-.3-.3-.2h-1.2v1Zm2.4 1.7v-2.4h.4v.4c0-.2.2-.3.2-.3l.3-.1.4.1-.2.4-.2-.1h-.3l-.1.3v1.7h-.5Zm1.2-1.2c0-.4.2-.7.4-1l.8-.2c.3 0 .5 0 .8.3.2.2.3.5.3.9 0 .3 0 .5-.2.7l-.4.4-.5.1a1 1 0 0 1-.8-.3c-.2-.2-.3-.5-.3-.9Zm.5 0c0 .3 0 .5.2.7l.2.1h.3a.6.6 0 0 0 .5-.1l.1-.7-.1-.7a.6.6 0 0 0-.5-.2.6.6 0 0 0-.5.2l-.2.7Zm2.2 1.2v-2h-.3v-.4h.3v-.5l.3-.3h.7v.3h-.5v.5h.4v.3h-.5v2h-.4Zm2.7-.7h.4c0 .2-.2.4-.4.5a1 1 0 0 1-.7.2c-.2 0-.6-.1-.8-.3-.2-.2-.3-.5-.3-.9s.1-.7.3-.9c.2-.2.5-.3.8-.3a1 1 0 0 1 .8.3c.2.2.3.5.3.9v.1H203c0 .3 0 .5.2.6a.6.6 0 0 0 .5.2l.3-.1.3-.4Zm-1.3-.7h1.3l-.2-.5-.2-.1h-.3a.6.6 0 0 0-.4 0l-.2.6Zm1.9.7.4-.1c0 .1 0 .3.2.4h.8a.3.3 0 0 0 .1-.3.2.2 0 0 0 0-.2l-.5-.1-.6-.2a.6.6 0 0 1-.2-.2.6.6 0 0 1 .1-.8l.3-.2h.8l.3.3.1.3h-.3a.4.4 0 0 0-.2-.2h-.8v.3l.2.2h.3l.6.2.2.2.1.4v.3l-.4.3-.5.1c-.3 0-.5 0-.7-.2a.9.9 0 0 1-.3-.5Zm2.2 0 .3-.1a.5.5 0 0 0 .2.4h.8a.3.3 0 0 0 .2-.3.2.2 0 0 0-.1-.2l-.4-.1-.6-.2a.6.6 0 0 1-.3-.2v-.6l.2-.2.2-.2h.9l.3.3v.3h-.3l-.1-.2h-.8l-.1.2v.1l.2.2h.3l.6.2.3.2v.7c-.1.2-.2.3-.4.3l-.5.1c-.3 0-.5 0-.6-.2a.9.9 0 0 1-.3-.5Zm2.3-2v-.5h.4v.4h-.4Zm0 2.7v-2.4h.4v2.4h-.4Zm.7-1.2c0-.4.1-.7.4-1l.7-.2c.3 0 .6 0 .8.3.2.2.3.5.3.9 0 .3 0 .5-.2.7l-.3.4-.6.1a1 1 0 0 1-.8-.3c-.2-.2-.3-.5-.3-.9Zm.4 0c0 .3 0 .5.2.7a.6.6 0 0 0 .5.2.6.6 0 0 0 .5-.2l.2-.7c0-.3 0-.5-.2-.7a.7.7 0 0 0-.5-.2.6.6 0 0 0-.5.2l-.2.7Zm2.2 1.2v-2.4h.3v.4c.2-.3.4-.4.7-.4h.4l.3.3.1.3v1.8h-.4v-1.8s0-.2-.2-.2h-.7l-.2.7v1.3h-.3Zm3.9-.3-.5.2-.4.1c-.3 0-.4 0-.6-.2a.6.6 0 0 1-.2-.5.6.6 0 0 1 .3-.5l.3-.1h.3l.7-.2v-.5h-.9l-.2.4-.4-.1c0-.1 0-.3.2-.4l.3-.2.5-.1h.5l.3.2.1.3v1.6l.1.3h-.4v-.3Zm0-.9-.7.1-.4.1-.1.1a.4.4 0 0 0 0 .4c.1.2.2.2.4.2l.4-.1.3-.3v-.5Zm.8 1.2v-3.2h.4v3.2h-.4Zm.8-.7.4-.1a.5.5 0 0 0 .2.4h.8a.3.3 0 0 0 .1-.3v-.1h-.1l-.4-.2-.6-.2a.6.6 0 0 1-.3-.2v-.6a.7.7 0 0 1 .5-.4h.8l.3.3.1.3h-.4l-.1-.2h-.8a.3.3 0 0 0 0 .2v.1l.1.2h.4l.6.2.2.2.1.4-.1.3c0 .2-.2.3-.3.3l-.5.1a1 1 0 0 1-.7-.2.9.9 0 0 1-.3-.5Zm-23.7 5.3 1.3-3.2h.4l1.3 3.2h-.4l-.4-1h-1.4l-.3 1h-.5Zm1-1.3h1l-.3-.9-.2-.7-.2.7-.3.9Zm2.1.6h.4l.1.3.5.1h.4a.3.3 0 0 0 0-.3.2.2 0 0 0 0-.2l-.4-.2c-.2 0-.4 0-.6-.2a.6.6 0 0 1-.3-.2v-.3a.6.6 0 0 1 .2-.5l.3-.1h.8l.3.2.1.4h-.4a.4.4 0 0 0-.1-.2l-.4-.1h-.4a.3.3 0 0 0 0 .3l.1.2.4.1.5.2c.1 0 .2 0 .3.2l.1.3-.1.4-.3.3h-.5l-.7-.1a.8.8 0 0 1-.3-.6Zm2.1 0h.4s0 .2.2.3l.4.1h.4a.3.3 0 0 0 .1-.3v-.2l-.5-.2c-.2 0-.4 0-.6-.2a.6.6 0 0 1-.2-.2l-.1-.3v-.3l.2-.2.3-.1h.8l.3.2.2.4h-.4l-.2-.2-.3-.1h-.4a.3.3 0 0 0-.1.3l.2.2.3.1.6.2s.2 0 .2.2l.1.3v.4l-.4.3h-.5l-.7-.1a.9.9 0 0 1-.3-.6Zm2.2-.5c0-.4 0-.7.3-1l.8-.2c.3 0 .5.1.7.3.2.3.3.5.3 1v.6l-.5.4-.5.2a1 1 0 0 1-.8-.4c-.2-.2-.3-.5-.3-.9Zm.4 0c0 .3 0 .6.2.7a.6.6 0 0 0 .5.2.6.6 0 0 0 .4-.2c.2-.1.2-.4.2-.7 0-.3 0-.5-.2-.6a.6.6 0 0 0-.4-.2.6.6 0 0 0-.5.2c-.2.1-.2.3-.2.6Zm3.6.4h.4c0 .3-.1.5-.3.6a1 1 0 0 1-.7.3 1 1 0 0 1-.7-.4c-.2-.2-.3-.5-.3-.8l.1-.7c0-.2.2-.3.4-.4l.5-.2.7.2.3.6h-.4l-.2-.3-.3-.1a.6.6 0 0 0-.5.2l-.2.6c0 .3 0 .6.2.7a.6.6 0 0 0 .4.2l.4-.1.2-.4Zm.7-1.9v-.5h.4v.5h-.4Zm0 2.7V235h.4v2.3h-.4Zm2.3-.3-.3.3h-.5l-.6-.1a.6.6 0 0 1-.2-.5.6.6 0 0 1 .3-.5l.3-.2h.3l.7-.2v-.4l-.5-.1h-.4l-.2.4h-.4c0-.2 0-.3.2-.4 0-.2.2-.2.3-.3h1l.3.2.1.2v1.6l.2.3h-.5v-.3Zm0-.9-.6.2h-.3a.3.3 0 0 0-.3.4.3.3 0 0 0 .2.2l.3.1h.4l.3-.3v-.7Zm1.8.9v.3h-.5l-.1-.2v-1.8h-.4v-.3h.3v-.6l.4-.2v.8h.4v.3h-.4v1.6h.4Zm.3-2.4v-.5h.4v.5h-.4Zm0 2.7V235h.4v2.3h-.4Zm.8-1.2c0-.4 0-.7.3-1l.7-.2c.4 0 .6.1.8.3.2.3.3.5.3 1l-.1.6c0 .2-.2.3-.4.4l-.6.2a1 1 0 0 1-.7-.4c-.2-.2-.3-.5-.3-.9Zm.4 0c0 .3 0 .6.2.7a.6.6 0 0 0 .4.2.6.6 0 0 0 .5-.2c.2-.1.2-.4.2-.7 0-.3 0-.5-.2-.6a.6.6 0 0 0-.7-.2l-.2.2c-.2.1-.2.3-.2.6Zm2.1 1.2V235h.4v.3c.1-.2.4-.4.7-.4l.4.1.2.2.2.3v1.8h-.4v-1.8l-.2-.2h-.3l-.4.1-.2.6v1.3h-.4Z"/><path fill="#fff" fill-rule="evenodd" d="M219.9 241H127v-1h92.9v1Z" clip-rule="evenodd"/></g><g fill="#fff" clip-path="url(#i)"><path d="M301.5 206.4h-22.4v25.4h22.4v-25.4Z" opacity=".1"/><path d="m286 221.7 1.5-4.2 6-17.4h-14.6l6 17.8 1.2 3.8Z"/><path d="M295 225.4v-21.7l-7.5 21.7h-3.2l-7.5-22.1v22.1h-.8 20-1Zm4.3-25.4v25.5h25.5V200h-25.5Zm18 23.3a10.1 10.1 0 0 1-6.5 2.1c-2.6 0-4.7-.6-6.4-1.6a10 10 0 0 1-3.7-4.6 16.8 16.8 0 0 1 .1-13.2 10 10 0 0 1 4.2-4.3c1.8-1 3.9-1.5 6-1.5s4.3.6 6 1.9c1.8 1.3 3 3.1 3.5 5.2l-3.2.7a7 7 0 0 0-2.4-3.8 6.5 6.5 0 0 0-4-1.2 8 8 0 0 0-4.8 1.3 7.3 7.3 0 0 0-2.6 3.6 15 15 0 0 0 .1 10 6.7 6.7 0 0 0 2.9 3.6 8 8 0 0 0 4 1.2c1.7 0 3.4-.5 4.6-1.6a8 8 0 0 0 2.6-4.7l3.2.9a11 11 0 0 1-3.6 6Zm-50.3-9-2.7-7.6a69 69 0 0 1-2-5.6c-.3 1.7-.8 3.5-1.5 5.2l-3 8h9.3Zm5.7 4.3v-18.5h-7.6l7.6 18.5Z"/><path d="m271.4 225.4-3.2-8.2h-11.4l-3 8.2H250l9.7-25.3h-12.4v25.4h25.4-1.3Zm-24.2 3v14H325v-14h-77.8Zm5.6 10.9h-1.6v-7.7h1.6v7.7Zm9.5 0h-1.5l-3.1-5v5h-1.4v-7.7h1.5l3 5.1v-5h1.5v7.6Zm9.1-1c-.2.4-.6.7-1 .8-.5.2-1.1.3-1.7.3-.8 0-1.6-.2-2.2-.7-.5-.5-.9-1.2-1-2h1.6c0 .4.2.7.5 1a2.1 2.1 0 0 0 2.3 0 1 1 0 0 0 .4-.7.6.6 0 0 0-.2-.4 1 1 0 0 0-.6-.3l-1.2-.4c-.6-.1-1.2-.4-1.7-.8a2 2 0 0 1-.7-1.5c0-.4 0-.8.3-1.1a2 2 0 0 1 1-.8c.4-.2 1-.2 1.5-.2.7 0 1.5.1 2.1.6a2.3 2.3 0 0 1 .8 1.7H270a1 1 0 0 0-.4-.8c-.3-.2-.6-.3-1-.3-.3 0-.7 0-1 .3a.6.6 0 0 0-.2.5v.2l.2.2c.2.2.6.3 1.4.5l1.7.6c.3.2.6.4.8.8.2.3.3.8.3 1.2 0 .4-.1.9-.4 1.3Zm9.3-5.4h-2.3v6.4h-1.6v-6.4h-2.2v-1.3h6v1.3Zm4.5 6.4h-1.6v-7.7h1.6v7.7Zm9-6.4h-2.3v6.4h-1.5v-6.4H288v-1.3h6v1.3Zm9 2.7v2l-.5 1-1 .6a4 4 0 0 1-1.4.2c-.6 0-1.1 0-1.7-.2a2.1 2.1 0 0 1-1.3-1.6c-.1-.6-.2-1.3-.1-1.9v-4h1.5v5.3l.5.8c.3.2.7.3 1 .3.4 0 .7-.1 1-.3.3-.2.4-.4.5-.7v-5.5h1.6v4Zm9.2-2.7h-2.2v6.4h-1.6v-6.4h-2.3v-1.3h6.1v1.3Zm8.8 6.4h-5.8v-7.7h5.7v1.3H317v1.7h3.8v1.3H317v2h4.2v1.4Z"/></g><defs><clipPath id="a"><path fill="#fff" d="M0 0h72v42H0z" transform="translate(17.5 20.5)"/></clipPath><clipPath id="b"><path fill="#fff" d="M0 0h105v36H0z" transform="translate(121.5 23.5)"/></clipPath><clipPath id="c"><path fill="#fff" d="M0 0h65v45H0z" transform="translate(258.5 19)"/></clipPath><clipPath id="d"><path fill="#fff" d="M0 0h94v40H0z" transform="translate(18.5 105)"/></clipPath><clipPath id="e"><path fill="#fff" d="M0 0h72v54H0z" transform="translate(154.5 98)"/></clipPath><clipPath id="f"><path fill="#fff" d="M0 0h54v64H0z" transform="translate(268.5 93)"/></clipPath><clipPath id="g"><path fill="#fff" d="M0 0h84v51H0z" transform="translate(16 191.5)"/></clipPath><clipPath id="h"><path fill="#fff" d="M0 0h93.2v56.5H0z" transform="translate(127 186)"/></clipPath><clipPath id="i"><path fill="#fff" d="M0 0h77.8v42.4H0z" transform="translate(247.2 200)"/></clipPath></defs></svg>