<svg width="1064" height="534" viewBox="0 0 1064 534" fill="none" xmlns="http://www.w3.org/2000/svg">
<g clip-path="url(#clip0_521_83)">
<path d="M64.215 37.8098C64.1987 41.9811 63.3601 46.1083 61.7471 49.9559C60.134 53.8034 57.7782 57.2959 54.8141 60.2339C51.8501 63.1719 48.3357 65.4979 44.4718 67.079C40.6079 68.6602 36.47 69.4656 32.2945 69.4492C23.7511 69.4493 15.5557 66.0673 9.50282 60.0439C3.44999 54.0204 0.0329864 45.8464 0 37.3115C0.129385 28.972 3.51157 21.0123 9.4267 15.1263C15.3418 9.24037 23.3228 5.89299 31.6711 5.79663C40.2264 5.76319 48.448 9.10948 54.5441 15.1061C60.6402 21.1028 64.1164 29.2636 64.215 37.8098ZM51.2473 37.6852C51.2311 35.1555 50.7141 32.6539 49.7262 30.3246C48.7383 27.9952 47.299 25.8841 45.4911 24.1127C43.6831 22.3413 41.5424 20.9447 39.1919 20.0032C36.8415 19.0617 34.3279 18.5939 31.7958 18.6268C29.2708 18.5909 26.7651 19.0696 24.4315 20.0336C22.098 20.9976 19.9856 22.4268 18.2235 24.2337C16.4614 26.0407 15.0866 28.1875 14.1829 30.5432C13.2792 32.8988 12.8657 35.4137 12.9677 37.9343C13.0984 43.0116 15.2265 47.8329 18.8908 51.3536C22.555 54.8743 27.4604 56.8108 32.5439 56.7436C37.5488 56.6779 42.3245 54.637 45.8286 51.0664C49.3327 47.4958 51.2807 42.6854 51.2473 37.6852Z" fill="white"/>
<path d="M44.3896 37.3113C36.1601 47.0274 30.6737 49.0204 25.4368 44.4115C24.4528 43.5786 23.66 42.5436 23.1124 41.377C22.5647 40.2104 22.2751 38.9397 22.2633 37.6513C22.2515 36.3628 22.5177 35.087 23.0438 33.9106C23.5699 32.7342 24.3436 31.6848 25.3121 30.834C30.4244 26.1005 35.5366 27.7199 44.3896 37.3113Z" fill="white"/>
<path d="M74.0654 30.2109H77.3074L81.6715 44.0376L83.9159 37.062L86.0356 30.2109H89.4022L91.5219 37.062L93.7663 44.0376L98.1305 30.2109H101.372L98.7539 37.8094L95.3873 47.8991H92.0207C91.3973 45.657 90.6491 43.5394 89.901 41.2972L87.6566 34.9444L83.2924 47.8991H80.0505L77.058 39.055L74.0654 30.2109Z" fill="white"/>
<path d="M111.098 30.2109C112.478 30.1869 113.844 30.4855 115.088 31.0828C116.293 31.7898 117.351 32.7199 118.206 33.8233C119.038 34.9212 119.594 36.2028 119.826 37.5602C119.826 37.9339 119.951 38.4322 119.951 39.055C119.951 39.6778 119.826 40.0515 119.826 40.5498H105.363C105.707 41.7927 106.452 42.8874 107.482 43.6639C108.519 44.463 109.789 44.9006 111.098 44.9095C112.638 44.8563 114.104 44.235 115.213 43.1656L117.083 45.5324C116.247 46.2285 115.325 46.8146 114.34 47.2763C113.305 47.6743 112.207 47.8852 111.098 47.8991C109.667 47.8946 108.258 47.5532 106.983 46.9026C105.758 46.2806 104.691 45.3856 103.866 44.2867C103.077 43.1641 102.526 41.8925 102.245 40.5498C102.245 40.0515 102.121 39.5532 102.121 39.055C102.121 38.5567 102.245 38.0585 102.245 37.5602C102.478 36.2028 103.034 34.9212 103.866 33.8233C104.721 32.7199 105.779 31.7898 106.983 31.0828C108.267 30.4708 109.677 30.1719 111.098 30.2109ZM111.098 33.2004C109.781 33.1574 108.493 33.6009 107.482 34.4461C106.404 35.1765 105.646 36.2903 105.363 37.5602H116.709C116.426 36.2903 115.667 35.1765 114.59 34.4461C113.617 33.6195 112.375 33.1765 111.098 33.2004Z" fill="white"/>
<path d="M129.553 47.8993C127.967 47.9319 126.406 47.4988 125.064 46.6536C123.791 45.8786 122.722 44.8109 121.947 43.5395C121.101 42.1989 120.667 40.6397 120.7 39.0552V24.1074H123.692V32.3287C124.532 31.6716 125.454 31.1272 126.435 30.7093C127.435 30.3526 128.492 30.1837 129.553 30.2111C131.12 30.1979 132.665 30.5837 134.041 31.3322C135.356 32.1492 136.466 33.2573 137.283 34.5709C138.033 35.9462 138.419 37.4895 138.406 39.0552C138.432 40.583 138.044 42.0894 137.283 43.4149C136.502 44.7566 135.384 45.8726 134.041 46.6536C132.699 47.4988 131.139 47.9319 129.553 47.8993ZM129.553 44.9097C130.589 44.8854 131.601 44.5983 132.496 44.0753C133.39 43.5523 134.136 42.8107 134.665 41.9202C135.161 41.0471 135.419 40.0592 135.413 39.0552C135.429 38.0105 135.171 36.9797 134.665 36.0656C134.159 35.1845 133.427 34.4537 132.545 33.948C131.63 33.442 130.598 33.1843 129.553 33.2006C128.508 33.1954 127.479 33.4524 126.56 33.948C125.716 34.4616 125.027 35.1932 124.565 36.0656C123.962 36.9434 123.656 37.9911 123.692 39.0552C123.674 40.0782 123.979 41.0808 124.565 41.9202C124.991 42.8177 125.689 43.5585 126.56 44.0378C127.446 44.6251 128.49 44.9293 129.553 44.9097Z" fill="white"/>
<path d="M139.278 30.2109H142.271V32.3285C143.056 31.6008 143.979 31.0383 144.986 30.6745C145.992 30.3107 147.062 30.1531 148.131 30.2109V33.2004C147.086 33.1841 146.054 33.4418 145.139 33.9478C144.257 34.4535 143.525 35.1843 143.019 36.0654C142.512 36.9795 142.254 38.0103 142.271 39.055V47.8991H139.278V30.2109Z" fill="white"/>
<path d="M157.732 30.2109C159.153 30.1719 160.564 30.4708 161.847 31.0828C163.013 31.7926 164.03 32.7236 164.839 33.8233C165.721 34.8915 166.283 36.1869 166.46 37.5602C166.575 38.0496 166.617 38.5533 166.585 39.055C166.605 39.5565 166.563 40.0585 166.46 40.5498H152.121C152.462 41.7624 153.157 42.8464 154.116 43.6639C155.165 44.44 156.427 44.8749 157.732 44.9095C158.55 44.9353 159.363 44.7645 160.101 44.4113C160.779 44.0849 161.409 43.6656 161.971 43.1656L163.842 45.5324C163.006 46.2285 162.084 46.8146 161.098 47.2763C160.017 47.6627 158.88 47.8729 157.732 47.8991C156.35 47.8753 154.993 47.5377 153.761 46.9118C152.53 46.2859 151.457 45.3882 150.625 44.2867C149.784 43.1939 149.227 41.91 149.004 40.5498C149.004 40.0515 148.879 39.5532 148.879 39.055C148.859 38.5535 148.901 38.0515 149.004 37.5602C149.181 36.1869 149.743 34.8915 150.625 33.8233C151.48 32.7199 152.538 31.7898 153.742 31.0828C154.986 30.4855 156.352 30.1869 157.732 30.2109ZM157.732 33.2004C156.418 33.1798 155.138 33.6206 154.116 34.4461C153.11 35.222 152.405 36.3227 152.121 37.5602H163.468C163.142 36.309 162.393 35.2089 161.348 34.4461C160.337 33.6009 159.05 33.1574 157.732 33.2004Z" fill="white"/>
<path d="M167.458 30.2109H185.164V33.2005L171.697 44.9096H185.164V47.8991H167.458V44.9096L180.8 33.2005H167.458V30.2109Z" fill="white"/>
<path d="M194.765 30.2108C196.332 30.1976 197.877 30.5834 199.254 31.3319C200.597 32.113 201.714 33.2289 202.496 34.5706C203.283 35.9364 203.712 37.479 203.743 39.0549C203.731 40.5944 203.3 42.1016 202.496 43.4147C201.702 44.7634 200.574 45.8847 199.219 46.6703C197.865 47.4558 196.331 47.879 194.765 47.899C193.697 47.8838 192.64 47.6727 191.648 47.2762C190.667 46.9341 189.773 46.3813 189.029 45.6569V53.8781H185.912V39.0549C185.907 37.474 186.339 35.9224 187.159 34.5706C187.977 33.257 189.086 32.1489 190.401 31.3319C191.732 30.5831 193.237 30.1965 194.765 30.2108ZM194.765 33.2004C193.755 33.1968 192.762 33.4599 191.886 33.963C191.01 34.4661 190.283 35.1913 189.778 36.0654C189.271 36.9795 189.013 38.0102 189.029 39.0549C189.023 40.0589 189.281 41.0469 189.778 41.9199C190.25 42.8262 190.99 43.5655 191.897 44.0375C192.737 44.6226 193.741 44.9278 194.765 44.9095C195.801 44.8852 196.814 44.598 197.708 44.075C198.602 43.5521 199.349 42.8104 199.877 41.9199C200.374 41.0469 200.632 40.0589 200.625 39.0549C200.642 38.0102 200.384 36.9795 199.877 36.0654C199.371 35.1843 198.64 34.4534 197.758 33.9478C196.843 33.4417 195.811 33.184 194.765 33.2004Z" fill="white"/>
<path d="M204.49 30.2114H207.483V32.329C208.305 31.6458 209.231 31.0991 210.226 30.7096C211.226 30.3529 212.282 30.184 213.343 30.2114V33.2009C212.298 33.1846 211.266 33.4423 210.351 33.9483C209.497 34.4894 208.773 35.2125 208.231 36.0659C207.725 36.98 207.467 38.0108 207.483 39.0555V47.8996H204.49V30.2114Z" fill="white"/>
<path d="M223.07 30.2107C224.598 30.1963 226.102 30.5829 227.434 31.3317C228.777 32.1128 229.894 33.2287 230.676 34.5704C231.463 35.9362 231.892 37.4788 231.923 39.0547C231.911 40.5942 231.48 42.1015 230.676 43.4145C229.93 44.7833 228.804 45.9078 227.434 46.6532C226.137 47.4953 224.616 47.9292 223.07 47.8988C221.482 47.9466 219.917 47.5123 218.581 46.6532C217.211 45.9078 216.085 44.7833 215.339 43.4145C214.534 42.1015 214.103 40.5942 214.092 39.0547C214.122 37.4788 214.551 35.9362 215.339 34.5704C216.121 33.2287 217.238 32.1128 218.581 31.3317C219.951 30.5671 221.5 30.1802 223.07 30.2107ZM223.07 33.2002C222.024 33.1838 220.992 33.4415 220.077 33.9476C219.195 34.4533 218.464 35.1841 217.957 36.0652C217.451 36.9793 217.193 38.01 217.209 39.0547C217.203 40.0587 217.461 41.0467 217.957 41.9197C218.486 42.8103 219.232 43.5519 220.127 44.0749C221.021 44.5978 222.034 44.885 223.07 44.9093C224.094 44.9276 225.097 44.6224 225.938 44.0373C226.845 43.5653 227.585 42.826 228.057 41.9197C228.554 41.0467 228.812 40.0587 228.805 39.0547C228.822 38.01 228.564 36.9793 228.057 36.0652C227.552 35.1911 226.825 34.4659 225.949 33.9628C225.073 33.4597 224.08 33.1966 223.07 33.2002Z" fill="white"/>
</g>
<path d="M719.052 40.5641H703.524V37.2807H719.052V21.616H722.609V37.2807H738.137V40.5641H722.609V56.2972H719.052V40.5641ZM365.125 67.1052C348.776 67.1052 335.505 53.8347 335.505 37.4859C335.505 21.1371 348.776 7.86656 365.125 7.86656C371.897 7.86656 378.122 10.1239 383.115 13.9546L365.125 31.9451L352.47 19.2902L346.929 24.831L365.125 43.0267L388.656 19.4954C392.487 24.489 394.744 30.7138 394.744 37.4859C394.812 53.8347 381.542 67.1052 365.125 67.1052ZM394.265 13.8862L398.848 9.30307L393.308 3.76227L388.724 8.34541C382.294 3.14663 374.086 0 365.125 0C344.466 0 327.707 16.7592 327.707 37.4859C327.707 58.1442 344.466 74.9034 365.125 74.9034C385.783 74.9034 402.542 58.1442 402.542 37.4859C402.611 28.5248 399.464 20.3162 394.265 13.8862ZM435.513 53.9031C441.054 53.9031 443.79 51.7825 446.595 48.1571L448.237 48.7043C446.458 53.6295 442.149 58.0074 434.282 58.0074C423.816 58.0074 418.139 50.2776 418.139 41.4534C418.139 30.3034 425.389 23.2577 435.855 23.2577C443.38 23.2577 447.279 26.7463 447.279 30.9874C447.279 32.7659 446.458 34.134 445.159 34.7497H442.628V33.45C442.628 28.7301 439.618 26.2675 434.145 26.2675C427.715 26.2675 422.653 31.3978 422.653 39.538C422.653 47.6782 427.1 53.9031 435.513 53.9031ZM460.208 51.8509C460.208 54.7923 462.67 55.1344 465.68 55.4764V57.3233H450.152V55.4764C453.093 55.066 455.624 54.7923 455.624 51.8509V15.5279L450.494 14.5018V13.2705L458.703 9.78189H460.276V51.8509H460.208ZM497.078 41.727C497.078 32.2187 492.289 26.6095 483.944 26.6095C476.762 26.6095 473.068 32.4923 473.068 39.4696C473.068 48.9779 477.856 54.5871 486.201 54.5871C493.384 54.5871 497.078 48.7043 497.078 41.727ZM467.937 41.2481C467.937 30.1666 476.42 23.1893 485.586 23.1893C495.368 23.1893 502.14 30.0982 502.14 39.8801C502.14 50.9616 493.658 57.939 484.491 57.939C474.709 57.939 467.937 51.0301 467.937 41.2481ZM523.14 53.9031C528.681 53.9031 531.417 51.7825 534.222 48.1571L535.863 48.7043C534.085 53.6295 529.775 58.0074 521.909 58.0074C511.443 58.0074 505.765 50.2776 505.765 41.4534C505.765 30.3034 513.016 23.2577 523.482 23.2577C531.007 23.2577 534.906 26.7463 534.906 30.9874C534.906 32.7659 534.085 34.134 532.785 34.7497H530.254V33.45C530.254 28.7301 527.244 26.2675 521.772 26.2675C515.342 26.2675 510.28 31.3978 510.28 39.538C510.212 47.6782 514.658 53.9031 523.14 53.9031ZM560.421 29.4141C560.9 28.9353 561.31 28.4564 561.31 27.9092C561.31 26.4043 560.216 26.1991 556.864 25.7202V23.8733H571.16V25.7202C568.561 26.4043 567.603 26.5411 566.235 27.7724L553.717 39.1276L573.349 55.9552V57.3917H567.945L548.245 40.5641L560.421 29.4141ZM547.766 51.8509C547.766 54.7923 550.228 55.1344 553.17 55.4764V57.3233H537.71V55.4764C540.652 55.066 543.114 54.7923 543.114 51.8509V15.5279L537.984 14.5018V13.2705L546.124 9.78189H547.766V51.8509ZM600.711 23.4629H607.073C613.229 23.4629 616.308 26.0623 616.308 31.2611C616.308 36.8018 613.571 39.0592 606.936 39.0592H600.643V23.4629H600.711ZM607.483 20.5899H590.382V22.9156H590.793C594.486 23.0525 596.128 23.5997 596.128 26.3359V51.5773C596.128 54.3135 594.486 54.8607 590.793 54.9975H590.382V57.3233H607.62V54.9975H607.21C603.242 54.7923 600.643 54.3819 600.643 51.5773V41.8638H608.509C617.949 41.8638 621.301 36.2546 621.301 30.919C621.301 28.5249 620.343 20.5899 607.483 20.5899ZM664.807 52.2613L661.523 26.2675C661.523 23.9417 662.07 23.1209 665.491 22.9841H665.901V20.6583H657.145V21.0687C657.077 22.1632 656.803 22.7788 656.461 23.6681L645.722 49.7304L634.161 23.6681C633.751 22.7104 633.546 22.1632 633.477 21.0687V20.6583H624.448V22.9841H624.858C628.278 23.1209 628.826 23.9417 628.826 26.2675L625.542 52.3298C625.269 54.3819 624.516 54.9291 621.575 55.0659H621.164V57.3917H633.819V55.0659H633.409C629.715 54.8607 628.826 54.3135 628.826 52.1929C628.826 51.9877 628.894 51.3721 628.894 51.0301L631.493 29.3457L644.012 57.4601H645.653L657.282 29.6877L659.95 51.0985C660.018 51.4405 660.018 52.1245 660.018 52.2613C660.018 54.3819 659.129 54.9291 655.435 55.1344H655.025V57.4601H669.116V55.1344H668.706C665.901 54.8607 665.08 54.3135 664.807 52.2613ZM687.517 37.2807L681.703 35.0917C678.077 33.7236 676.299 32.4239 676.299 28.9353C676.299 25.3098 679.035 22.9841 683.208 22.9841C688.68 22.9841 691.143 25.2414 692.442 31.3978L692.511 31.7399H694.563V23.3945L694.426 23.2577C691.895 21.2055 687.928 19.9742 683.686 19.9742C676.641 19.9742 672.058 23.7365 672.058 29.6193C672.058 35.5021 676.367 37.8279 680.129 39.196L685.328 41.1114C689.364 42.5479 691.827 44.258 691.827 48.0203C691.827 52.193 688.68 54.6555 683.481 54.6555C678.351 54.6555 674.931 51.5089 673.699 45.4893L673.631 45.1472H671.579L671.921 54.3819L672.058 54.5187C674.315 56.4341 678.693 57.6653 683.139 57.6653C691.074 57.6653 696.205 53.6294 696.205 47.4046C696.205 41.3166 691.827 38.854 687.517 37.2807Z" fill="white"/>
<g clip-path="url(#clip1_521_83)">
<path d="M932.445 42.0051H947.517L939.547 29.1382L924.92 52.402H918.264L936.055 24.457C936.828 23.3282 938.117 22.646 939.547 22.646C940.93 22.646 942.219 23.3045 942.97 24.4101L960.831 52.402H954.174L951.034 47.2036H935.774L932.445 42.0051H932.445ZM1001.59 47.2031V22.9281H995.945V49.5793C995.945 50.3084 996.226 51.0143 996.765 51.5553C997.304 52.0962 998.031 52.402 998.828 52.402H1024.59L1027.92 47.2036H1001.59L1001.59 47.2031ZM908.137 42.8514C913.622 42.8514 918.076 38.4058 918.076 32.9016C918.076 27.3969 913.622 22.9276 908.137 22.9276H883.424V52.4025H889.071V28.127H907.762C910.388 28.127 912.497 30.268 912.497 32.9025C912.497 35.5366 910.388 37.6771 907.762 37.6771L891.837 37.6539L908.7 52.4025H916.904L905.559 42.8523H908.137L908.137 42.8514ZM848.662 52.402C840.554 52.4025 833.974 45.8159 833.974 37.6771C833.974 29.5379 840.554 22.9285 848.662 22.9285H865.734C873.844 22.9285 880.419 29.5379 880.419 37.6771C880.419 45.8159 873.844 52.402 865.733 52.402H848.662ZM865.354 47.2036C870.607 47.2036 874.862 42.9458 874.862 37.6767C874.862 32.4081 870.607 28.127 865.354 28.127H849.04C843.789 28.127 839.532 32.4081 839.532 37.6771C839.532 42.9458 843.789 47.2036 849.039 47.2036H865.354H865.354ZM972.622 52.402C964.512 52.402 957.925 45.8159 957.925 37.6771C957.925 29.5379 964.512 22.9285 972.622 22.9285H992.898L989.593 28.127H972.997C967.746 28.127 963.48 32.4081 963.48 37.6771C963.48 42.9458 967.746 47.2036 972.997 47.2036H993.367L990.038 52.402H972.622ZM1041.7 47.2036C1037.36 47.2036 1033.68 44.2869 1032.56 40.2643H1056.7L1060.03 35.0658H1032.56C1033.68 31.0669 1037.36 28.127 1041.7 28.127H1058.27L1061.62 22.9276H1041.33C1033.22 22.9276 1026.63 29.5375 1026.63 37.6762C1026.63 45.8155 1033.22 52.4016 1041.33 52.4016H1058.74L1062.07 47.2036H1041.7H1041.7Z" fill="white"/>
</g>
<g clip-path="url(#clip2_521_83)">
<path d="M0.000124215 190.049C0.0469133 178.586 3.49424 167.394 9.90617 157.888C16.3181 148.383 25.4067 140.991 36.0225 136.647C46.6384 132.304 58.3048 131.203 69.5465 133.485C80.7881 135.768 91.1001 141.33 99.1784 149.469C107.257 157.608 112.739 167.957 114.931 179.21C117.123 190.462 115.927 202.111 111.494 212.684C107.061 223.257 99.5903 232.279 90.0265 238.609C80.4626 244.939 69.2352 248.293 57.764 248.246C50.1444 248.226 42.6037 246.703 35.574 243.765C28.5442 240.827 22.1636 236.532 16.7976 231.126C11.4317 225.72 7.1859 219.309 4.30348 212.26C1.42107 205.212 -0.0413149 197.664 0.000124215 190.049ZM108.603 190.364C108.603 162.209 85.9377 139.324 58.0001 139.245C44.5097 139.266 31.5789 144.636 22.0471 154.176C12.5152 163.716 7.16157 176.647 7.16159 190.128C7.16159 218.44 29.5904 241.011 57.764 241.011C64.4415 241.063 71.0629 239.79 77.2442 237.265C83.4255 234.74 89.0436 231.014 93.7728 226.303C98.5019 221.591 102.248 215.989 104.794 209.819C107.339 203.65 108.634 197.037 108.603 190.364Z" fill="white"/>
<path d="M63.5089 179.982H51.783C52.5544 181.603 53.1862 183.287 53.6717 185.015C53.9078 186.588 53.9865 188.554 53.2782 189.813C52.5699 191.071 49.7368 190.521 49.3433 189.97C48.9498 189.42 48.1629 186.431 48.7925 185.251C50.996 180.847 50.8386 176.836 48.8711 172.432C48.2416 171.174 48.5564 168.972 49.2646 167.714C49.9729 166.455 52.8847 167.085 53.2782 167.714C53.6717 168.343 53.9078 170.938 53.6717 172.511C53.4356 174.084 52.4912 175.342 51.6256 177.387H63.3515C62.6432 175.5 61.7775 174.005 61.6201 172.432C61.4627 170.86 61.4627 168.893 62.2497 167.714C63.0367 166.534 65.7911 167.163 66.1846 167.792C66.5781 168.422 67.2076 171.253 66.5781 172.432C64.768 175.814 64.768 181.87 66.5781 185.173C67.2076 186.352 66.8929 188.554 66.1846 189.813C65.4763 191.071 62.6432 190.521 62.2497 189.891C61.8562 189.262 61.384 186.746 61.6201 185.173C61.8562 183.6 62.7219 182.106 63.5089 179.982Z" fill="white"/>
<path d="M29.0395 202.317C29.4859 202.487 29.8701 202.789 30.1413 203.182C30.3377 203.465 30.4718 203.787 30.5348 204.126C30.6137 204.673 30.6401 205.226 30.6135 205.777V210.811H28.3312V205.62C28.3572 205.238 28.2754 204.857 28.0952 204.519C27.9378 204.047 27.5443 203.89 26.9147 203.89C26.6753 203.867 26.4341 203.906 26.2138 204.002C25.9935 204.099 25.8014 204.249 25.6555 204.44C25.3147 204.951 25.149 205.558 25.1833 206.171V210.811H22.9011V199.329H25.1833V203.339C25.4692 202.92 25.8458 202.571 26.2851 202.317C26.7075 202.13 27.1613 202.023 27.623 202.003C28.1111 202.015 28.5921 202.122 29.0395 202.317Z" fill="white"/>
<path d="M39.8206 209.71C39.418 210.182 38.9073 210.55 38.3319 210.783C37.7564 211.016 37.1332 211.106 36.5153 211.047C35.9095 211.1 35.2998 211.006 34.7381 210.773C34.1763 210.541 33.6791 210.176 33.2887 209.71C32.569 208.82 32.1797 207.708 32.1869 206.564C32.1679 205.394 32.5575 204.254 33.2887 203.34C33.691 202.888 34.1901 202.534 34.7488 202.302C35.3076 202.07 35.9114 201.968 36.5153 202.003C37.1321 201.956 37.7513 202.052 38.3247 202.284C38.898 202.516 39.41 202.877 39.8206 203.34C40.5518 204.254 40.9414 205.394 40.9224 206.564C40.9296 207.708 40.5403 208.82 39.8206 209.71ZM38.0106 208.53C38.4135 207.957 38.6079 207.263 38.5614 206.564C38.6289 205.863 38.4325 205.162 38.0106 204.598C37.8455 204.359 37.6205 204.168 37.3579 204.044C37.0954 203.919 36.8048 203.866 36.5153 203.89C36.2277 203.881 35.9421 203.94 35.682 204.063C35.422 204.186 35.195 204.37 35.0201 204.598C34.6282 205.176 34.4348 205.866 34.4692 206.564C34.4601 207.259 34.6513 207.941 35.0201 208.53C35.195 208.758 35.422 208.942 35.682 209.065C35.9421 209.188 36.2277 209.247 36.5153 209.238C36.8048 209.262 37.0954 209.209 37.3579 209.085C37.6205 208.96 37.8455 208.769 38.0106 208.53Z" fill="white"/>
<path d="M41.6309 203.89V202.317H42.8113V199.958H45.0148V202.317H46.4314V203.89H45.0148V208.452C44.9976 208.673 45.0528 208.894 45.1722 209.081C45.4104 209.218 45.6867 209.273 45.9592 209.238H46.4314V210.89H45.3296C44.9566 210.953 44.5744 210.937 44.2081 210.842C43.8419 210.747 43.4999 210.576 43.2048 210.339C42.9249 210.012 42.7837 209.589 42.8113 209.159V203.89H41.6309Z" fill="white"/>
<path d="M53.3566 202.396C53.9549 202.68 54.4699 203.113 54.8519 203.654C55.2485 204.181 55.4935 204.807 55.5601 205.463C55.6339 206.01 55.6602 206.563 55.6388 207.114H49.4217C49.3904 207.466 49.4542 207.819 49.6065 208.137C49.7588 208.456 49.994 208.727 50.2874 208.923C50.6678 209.148 51.1052 209.257 51.5466 209.238C52.0018 209.278 52.4544 209.137 52.8057 208.845C52.9956 208.711 53.1344 208.517 53.1992 208.294H55.4814C55.4041 208.892 55.1267 209.446 54.6945 209.867C54.2631 210.269 53.7552 210.581 53.2009 210.784C52.6467 210.987 52.0573 211.076 51.4679 211.047C50.381 211.073 49.3206 210.71 48.4774 210.024C48.0085 209.602 47.6437 209.077 47.4116 208.49C47.1795 207.904 47.0864 207.271 47.1395 206.643C47.096 206.016 47.1781 205.388 47.3808 204.793C47.5835 204.199 47.9028 203.652 48.32 203.182C48.7249 202.788 49.2057 202.48 49.7333 202.277C50.2609 202.075 50.8243 201.981 51.3892 202.003C52.0643 202.005 52.7326 202.138 53.3566 202.396ZM50.0513 204.362C49.7274 204.736 49.5341 205.205 49.5004 205.699H53.2779C53.2936 205.449 53.2521 205.199 53.1567 204.967C53.0612 204.735 52.9143 204.528 52.727 204.362C52.3553 204.044 51.8783 203.876 51.3892 203.89C50.8988 203.868 50.419 204.037 50.0513 204.362Z" fill="white"/>
<path d="M59.0231 210.811H56.8196V199.25H59.0231V210.811Z" fill="white"/>
<path d="M60.3611 203.89V202.317H61.5415V199.958H63.7451V202.317H65.0829V203.89H63.7451V208.452C63.7451 208.766 63.7451 209.002 63.8238 209.081C64.095 209.203 64.3923 209.258 64.6894 209.238H65.0829V210.89H64.0599C63.6745 210.96 63.2786 210.947 62.8987 210.852C62.5187 210.757 62.1633 210.582 61.8563 210.339C61.6045 210 61.4918 209.578 61.5415 209.159V203.89H60.3611Z" fill="white"/>
<path d="M68.8604 201.217H66.5781V199.172H68.8604V201.217ZM66.5781 202.239H68.8604V210.811H66.5781V202.239Z" fill="white"/>
<path d="M81.6095 202.317C81.9964 202.479 82.345 202.72 82.6326 203.025C82.8689 203.353 83.0301 203.729 83.1047 204.126C83.1784 204.541 83.2048 204.963 83.1834 205.384V210.811H80.9012V205.384C80.8942 205.089 80.8411 204.798 80.7438 204.519C80.6359 204.328 80.4734 204.174 80.2771 204.076C80.0808 203.978 79.8597 203.94 79.6421 203.969C79.3738 203.936 79.1024 203.996 78.8733 204.139C78.6441 204.282 78.471 204.5 78.3829 204.755C78.2112 205.039 78.1289 205.368 78.1468 205.699V210.811H75.9433V205.699C75.9479 205.326 75.8948 204.955 75.7859 204.598C75.6896 204.392 75.532 204.221 75.3348 204.109C75.1375 203.996 74.9103 203.947 74.6841 203.969C74.4354 203.936 74.1827 203.979 73.9583 204.091C73.734 204.203 73.5483 204.38 73.425 204.598C73.2551 204.911 73.1734 205.264 73.1889 205.62V210.811H70.9854V202.238H73.1102V203.497L73.8972 202.553C74.388 202.233 74.964 202.069 75.5498 202.081C76.1252 202.07 76.694 202.205 77.2024 202.474C77.5077 202.762 77.749 203.11 77.9107 203.497C78.1742 203.039 78.5543 202.659 79.0125 202.396C79.4785 202.173 79.9913 202.065 80.5077 202.081C80.8881 202.076 81.2648 202.156 81.6095 202.317Z" fill="white"/>
<path d="M90.817 202.396C91.4005 202.702 91.9106 203.132 92.3123 203.654C92.6501 204.205 92.8648 204.822 92.9419 205.463C93.0156 206.01 93.0419 206.563 93.0206 207.114H86.8035C86.7875 207.464 86.8582 207.812 87.0092 208.127C87.1602 208.443 87.3869 208.716 87.6691 208.923C88.0495 209.148 88.487 209.257 88.9283 209.238C89.1539 209.262 89.3822 209.24 89.5988 209.172C89.8155 209.104 90.0158 208.993 90.1875 208.845C90.382 208.696 90.5429 208.509 90.6596 208.294H92.9419C92.7934 208.884 92.4952 209.426 92.0762 209.867C91.6502 210.277 91.1431 210.594 90.5875 210.797C90.0319 211 89.44 211.085 88.8496 211.047C87.7627 211.073 86.7023 210.71 85.8591 210.024C84.9934 209.316 84.5999 208.215 84.5999 206.642C84.5565 206.016 84.6385 205.388 84.8412 204.793C85.0439 204.199 85.3632 203.651 85.7804 203.182C86.1677 202.786 86.6342 202.476 87.1496 202.273C87.6649 202.07 88.2174 201.978 88.7709 202.002C89.4716 202.004 90.1657 202.138 90.817 202.396ZM87.433 204.362C87.1092 204.736 86.9158 205.205 86.8822 205.699H90.7383C90.7445 205.442 90.6908 205.188 90.5815 204.956C90.4722 204.724 90.3104 204.521 90.1088 204.362C89.7303 204.055 89.258 203.888 88.7709 203.888C88.2838 203.888 87.8115 204.055 87.433 204.362Z" fill="white"/>
</g>
<g clip-path="url(#clip3_521_83)">
<path d="M415.167 189.459C415.552 188.318 415.752 187.123 415.757 185.919C415.783 183.939 415.415 181.974 414.676 180.138C413.936 178.301 412.839 176.63 411.449 175.221C410.058 173.812 408.401 172.694 406.575 171.93C404.748 171.167 402.788 170.774 400.809 170.774C398.996 170.797 397.2 171.13 395.498 171.757C393.331 167.575 389.823 164.24 385.535 162.288C381.248 160.336 376.43 159.878 371.852 160.989C367.274 162.099 363.201 164.714 360.285 168.413C357.369 172.113 355.778 176.684 355.768 181.395C355.801 182.779 355.933 184.159 356.161 185.525C353.364 185.908 350.802 187.298 348.955 189.434C347.109 191.57 346.104 194.306 346.13 197.13C346.107 199.161 346.6 201.165 347.564 202.954C348.527 204.743 349.929 206.258 351.638 207.357C354.778 205.578 358.156 204.254 361.669 203.424C361.669 203.424 357.341 188.475 362.455 187.492C367.569 186.509 368.946 188.082 381.534 186.705C389.794 185.902 398.123 186.166 406.316 187.492C408.676 187.492 408.479 192.409 408.086 195.95C407.901 198.309 407.371 200.628 406.513 202.833C410.869 203.835 415.047 205.493 418.904 207.751C420.292 206.818 421.43 205.559 422.219 204.085C423.007 202.611 423.422 200.965 423.428 199.293C423.593 196.903 422.825 194.542 421.284 192.707C419.743 190.873 417.55 189.708 415.167 189.459Z" fill="white"/>
<path d="M385.074 211.291C402.382 211.291 417.92 213.651 427.951 219.945C421.461 211.291 404.742 205.194 385.074 205.194C365.405 205.194 348.491 211.094 342 219.749C352.228 213.651 367.766 211.291 385.074 211.291Z" fill="white"/>
<path d="M628.963 201.063C627.8 202.548 626.322 203.757 624.636 204.604C623.032 205.398 621.187 205.555 619.472 205.044C617.757 204.534 616.299 203.392 615.392 201.85L635.06 193.786C634.773 193.093 634.574 192.366 634.47 191.623C630.93 183.558 623.653 178.051 614.408 181.985C612.51 182.793 610.795 183.976 609.364 185.463C607.934 186.95 606.818 188.71 606.083 190.638C605.349 192.566 605.011 194.622 605.09 196.684C605.168 198.746 605.662 200.77 606.541 202.637C607.313 204.594 608.475 206.373 609.955 207.868C611.436 209.363 613.204 210.541 615.153 211.332C617.103 212.123 619.193 212.509 621.296 212.468C623.399 212.428 625.472 211.96 627.39 211.094C629.952 209.966 632.236 208.287 634.077 206.177L628.963 201.063ZM616.769 188.279C620.309 186.902 623.456 188.476 625.423 192.016L613.228 196.933C612.441 192.999 613.425 189.852 616.769 188.279Z" fill="white"/>
<path d="M428.738 192.213C428.659 189.555 429.114 186.908 430.077 184.429C431.04 181.951 432.491 179.691 434.343 177.783C436.196 175.875 438.413 174.359 440.862 173.324C443.311 172.289 445.944 171.756 448.603 171.758C451.459 171.665 454.303 172.178 456.947 173.263C459.591 174.348 461.976 175.98 463.944 178.052L460.797 181.395C459.231 179.663 457.319 178.277 455.185 177.329C453.051 176.38 450.742 175.89 448.406 175.888C439.752 175.888 433.262 182.969 433.262 192.016C433.183 194.073 433.513 196.125 434.234 198.053C434.955 199.981 436.052 201.747 437.461 203.247C438.87 204.748 440.563 205.953 442.442 206.794C444.321 207.635 446.348 208.094 448.406 208.144C450.775 208.171 453.122 207.693 455.292 206.744C457.462 205.794 459.406 204.394 460.994 202.637L463.944 205.391C461.995 207.631 459.572 209.411 456.851 210.602C454.13 211.792 451.178 212.364 448.21 212.275C445.61 212.249 443.041 211.709 440.651 210.684C438.262 209.66 436.099 208.171 434.289 206.306C432.478 204.44 431.055 202.234 430.102 199.815C429.149 197.396 428.686 194.812 428.738 192.213Z" fill="white"/>
<path d="M472.008 170.578H467.681V211.744H472.008V170.578Z" fill="white"/>
<path d="M475.352 197.13C475.326 195.125 475.699 193.134 476.448 191.274C477.197 189.414 478.309 187.721 479.718 186.294C481.127 184.866 482.805 183.733 484.655 182.96C486.506 182.186 488.491 181.788 490.497 181.788C492.493 181.762 494.474 182.136 496.324 182.887C498.173 183.639 499.853 184.754 501.265 186.165C502.676 187.577 503.791 189.257 504.543 191.106C505.294 192.956 505.668 194.937 505.642 196.933C505.642 200.95 504.046 204.802 501.206 207.642C498.366 210.482 494.513 212.078 490.497 212.078C486.48 212.078 482.628 210.482 479.788 207.642C476.948 204.802 475.352 200.95 475.352 196.933V197.13ZM501.118 196.933C501.171 195.48 500.93 194.031 500.41 192.673C499.89 191.314 499.102 190.075 498.092 189.028C497.082 187.982 495.872 187.15 494.533 186.582C493.194 186.013 491.754 185.721 490.3 185.722C488.872 185.721 487.458 186.008 486.143 186.567C484.828 187.125 483.639 187.942 482.647 188.971C481.656 189.999 480.882 191.217 480.372 192.551C479.862 193.885 479.626 195.309 479.679 196.736C479.472 198.266 479.594 199.822 480.037 201.301C480.481 202.779 481.236 204.145 482.251 205.308C483.266 206.47 484.519 207.402 485.924 208.041C487.329 208.679 488.855 209.009 490.398 209.009C491.942 209.009 493.468 208.679 494.873 208.041C496.278 207.402 497.531 206.47 498.546 205.308C499.561 204.145 500.316 202.779 500.76 201.301C501.203 199.822 501.325 198.266 501.118 196.736" fill="white"/>
<path d="M508.985 200.67V182.575H513.509V199.49C513.509 204.997 516.263 208.341 521.573 208.341C522.77 208.374 523.96 208.153 525.064 207.692C526.169 207.231 527.163 206.54 527.981 205.667C528.799 204.793 529.422 203.755 529.809 202.623C530.197 201.49 530.339 200.288 530.227 199.097V182.575H534.554V211.685H530.227V206.571C529.246 208.356 527.789 209.834 526.019 210.841C524.248 211.848 522.232 212.344 520.196 212.275C513.116 212.275 508.985 207.554 508.985 200.67Z" fill="white"/>
<path d="M537.505 197.13C537.505 187.689 544.192 181.985 551.273 181.985C553.501 181.987 555.694 182.546 557.652 183.611C559.61 184.675 561.271 186.213 562.484 188.083V170.578H566.811V211.881H562.484V205.981C561.347 207.95 559.713 209.586 557.746 210.725C555.778 211.864 553.546 212.466 551.273 212.471C544.192 212.275 537.505 206.768 537.505 197.13ZM562.484 197.13C562.563 195.703 562.354 194.274 561.868 192.93C561.383 191.586 560.631 190.353 559.657 189.306C558.684 188.259 557.509 187.42 556.204 186.838C554.898 186.256 553.489 185.943 552.059 185.919C546.355 185.919 541.832 190.049 541.832 196.933C541.832 203.817 546.355 208.144 552.059 208.144C553.48 208.094 554.877 207.763 556.17 207.172C557.463 206.581 558.627 205.741 559.595 204.7C560.564 203.659 561.317 202.437 561.813 201.104C562.308 199.771 562.536 198.354 562.484 196.933" fill="white"/>
<path d="M579.988 207.751V211.685H571.531V170.578H579.988V185.919C580.99 184.341 582.391 183.056 584.048 182.192C585.706 181.329 587.562 180.918 589.429 181.002C596.51 181.002 603.197 186.509 603.197 196.54C603.197 206.571 596.707 212.078 589.429 212.078C587.614 212.101 585.817 211.705 584.18 210.92C582.542 210.136 581.108 208.984 579.988 207.554V207.751ZM594.74 196.54C594.74 191.426 591.2 187.886 587.266 187.886C586.215 187.935 585.184 188.195 584.235 188.65C583.286 189.105 582.438 189.746 581.741 190.535C581.044 191.323 580.513 192.244 580.178 193.242C579.843 194.239 579.712 195.294 579.792 196.343C579.711 197.383 579.844 198.428 580.181 199.414C580.517 200.401 581.052 201.309 581.752 202.082C582.451 202.855 583.301 203.477 584.249 203.911C585.197 204.345 586.223 204.58 587.266 204.604C588.299 204.554 589.313 204.3 590.248 203.857C591.184 203.415 592.022 202.792 592.717 202.024C593.411 201.257 593.947 200.36 594.294 199.385C594.641 198.411 594.793 197.377 594.74 196.343" fill="white"/>
<path d="M636.634 196.737C636.634 186.509 643.124 181.002 650.205 181.002C652.028 180.931 653.841 181.306 655.486 182.094C657.131 182.883 658.559 184.06 659.646 185.526V170.578H668.103V211.881H659.646V207.554C658.593 209.069 657.177 210.294 655.528 211.119C653.878 211.944 652.048 212.341 650.205 212.275C643.321 212.275 636.634 206.768 636.634 196.737ZM659.843 196.737C659.843 191.623 656.499 188.083 652.369 188.083C648.238 188.083 645.091 191.426 645.091 196.54C644.916 197.609 644.975 198.704 645.265 199.749C645.555 200.793 646.069 201.761 646.771 202.587C647.472 203.413 648.345 204.077 649.329 204.532C650.312 204.987 651.383 205.222 652.467 205.222C653.551 205.222 654.621 204.987 655.605 204.532C656.589 204.077 657.461 203.413 658.163 202.587C658.865 201.761 659.378 200.793 659.668 199.749C659.958 198.704 660.018 197.609 659.843 196.54" fill="white"/>
<path d="M671.054 207.751L674.594 202.047C677.368 204.186 680.732 205.421 684.232 205.587C686.789 205.587 687.772 204.8 687.772 203.424C687.772 201.457 685.018 200.867 681.478 199.883C677.938 198.9 672.431 196.736 672.431 190.836C672.431 184.739 677.348 181.395 683.445 181.395C687.424 181.417 691.315 182.577 694.656 184.739L691.509 190.639C689.028 189.048 686.188 188.101 683.248 187.886C681.281 187.886 680.298 188.672 680.298 189.852C680.298 191.426 683.051 192.409 686.395 193.393C689.739 194.376 695.639 196.933 695.639 202.44C695.639 209.128 690.526 212.078 684.035 212.078C679.343 211.953 674.807 210.372 671.054 207.554" fill="white"/>
<path d="M698.393 209.521C698.393 208.686 698.724 207.885 699.314 207.295C699.904 206.705 700.705 206.374 701.54 206.374C702.359 206.42 703.132 206.767 703.713 207.347C704.293 207.928 704.64 208.701 704.686 209.521C704.636 210.321 704.283 211.071 703.698 211.62C703.113 212.168 702.341 212.472 701.54 212.471C701.136 212.498 700.731 212.441 700.35 212.305C699.969 212.169 699.62 211.956 699.325 211.679C699.03 211.403 698.795 211.068 698.634 210.697C698.474 210.325 698.392 209.925 698.393 209.521ZM704.096 209.521C704.096 208.79 703.806 208.09 703.29 207.573C702.774 207.057 702.073 206.767 701.343 206.767C700.981 206.767 700.623 206.838 700.289 206.977C699.955 207.115 699.651 207.318 699.396 207.573C699.14 207.829 698.937 208.133 698.799 208.467C698.661 208.801 698.589 209.159 698.589 209.521C698.589 209.882 698.661 210.24 698.799 210.574C698.937 210.908 699.14 211.212 699.396 211.468C699.651 211.723 699.955 211.926 700.289 212.064C700.623 212.203 700.981 212.274 701.343 212.274C702.073 212.274 702.774 211.984 703.29 211.468C703.806 210.951 704.096 210.251 704.096 209.521ZM700.163 207.947H702.523C702.72 208.144 702.72 208.34 702.72 208.734C702.72 209.127 702.523 209.717 702.13 209.717L702.72 210.701H701.933L701.146 209.717H700.556V210.701H699.966L700.163 207.947ZM701.54 209.521C701.696 209.521 701.846 209.458 701.957 209.348C702.067 209.237 702.13 209.087 702.13 208.93C702.13 208.774 702.067 208.624 701.957 208.513C701.846 208.403 701.696 208.34 701.54 208.34H700.753V209.324H701.54" fill="white"/>
</g>
<g clip-path="url(#clip4_521_83)">
<path d="M1054.45 145.162C1052.32 154.371 1050 163.074 1048.28 171.878C1047.67 174.948 1047.88 178.124 1048.88 181.087C1051.72 188.677 1055.15 196.166 1058.49 204.16C1037.26 208.512 1021.08 220.756 1005.51 234.418L1018.45 217.721C1013.5 213.976 1008.85 210.434 1004.2 207.095C999.545 203.755 999.849 201.63 1003.19 198.493C1006.52 195.356 1011.68 189.79 1016.53 186.451C1018.76 184.832 1022.9 184.629 1025.63 185.54C1032.61 187.867 1039.38 191.207 1046.16 194.243C1047.57 194.85 1048.78 195.963 1050.5 196.57C1046.26 183.82 1041.61 171.372 1029.67 162.872L1046.46 149.008C1033.92 148.907 1024.62 156.395 1014.41 161.556C1004.2 166.717 1000.25 179.266 993.883 191.106C986.806 163.277 964.967 155.282 942.926 147.389L942.016 148.603L959.305 162.669C948.386 170.563 943.432 181.694 938.781 194.546L952.935 188.475L957.991 186.147C965.068 183.314 971.64 182.2 976.999 189.891C979.324 193.231 982.762 195.862 985.795 198.696C988.828 201.529 988.525 204.16 985.289 206.589C980.436 210.131 975.684 213.774 970.629 217.619L983.166 234.114C967.697 220.756 951.722 208.512 930.49 204.363C933.523 196.975 936.759 189.993 939.185 182.808C940.411 179.093 940.791 175.152 940.297 171.271C938.882 162.568 936.657 153.966 934.433 143.746C940.803 145.061 946.465 145.668 951.722 147.389C959.608 149.817 967.09 150.829 975.482 148.198C989.738 143.948 1004.2 145.264 1018.55 149.21C1022.03 150.105 1025.67 150.14 1029.17 149.311C1037.46 147.692 1045.14 143.24 1054.45 145.162Z" fill="white"/>
<path d="M1000.76 230.269C1000.72 231.178 1000.5 232.07 1000.11 232.891C999.721 233.713 999.17 234.448 998.491 235.052C997.812 235.657 997.018 236.118 996.157 236.409C995.296 236.7 994.385 236.814 993.479 236.746C989.738 236.442 986.705 233.406 986.907 229.965C987.413 224.096 991.962 226.525 994.995 226.221C998.029 225.918 1001.06 225.715 1000.76 230.269Z" fill="white"/>
</g>
<g clip-path="url(#clip5_521_83)">
<path d="M114.637 353.206H109.281V315.329C112.243 314.321 114.133 315.203 115.898 317.535C122.011 325.665 128.313 333.732 134.616 341.925V315.203H139.972V353.016C137.262 353.836 135.624 353.332 133.859 350.685C128.061 341.609 121.759 332.849 115.646 323.963L114.637 324.404V353.206Z" fill="white"/>
<path d="M0 351.567L1.26045 348.101C5.79805 348.605 9.89451 349.55 13.9279 349.424C18.9697 349.235 21.5536 346.084 20.0411 342.176C19.4109 340.349 17.4572 338.71 15.6926 337.639C12.9196 336.063 9.70544 335.181 6.80641 333.794C2.20578 331.589 0.252089 327.807 0.945335 323.144C1.63858 318.48 4.66365 315.203 9.76846 314.384C14.8733 313.564 19.5369 313.879 24.3896 316.274L23.0662 319.867C19.2218 319.488 15.5665 318.732 12.0373 318.921C7.18455 319.173 4.85272 323.648 7.43663 327.24C8.21404 328.195 9.20782 328.951 10.3357 329.446C13.3607 330.895 16.5119 332.156 19.5369 333.542C24.5787 336 26.6584 340.034 25.9022 345.832C25.398 349.676 22.2469 352.827 17.2051 353.71C12.1633 354.592 5.79805 354.403 0 351.567Z" fill="white"/>
<path d="M271.626 324.656C274.084 324.341 276.038 323.963 278.054 323.9C285.05 323.774 289.083 326.925 289.776 333.795C290.281 338.9 289.966 344.193 290.029 349.361V353.206H284.924C284.924 350.054 284.924 346.903 284.861 343.689C284.946 340.682 284.84 337.671 284.546 334.677C283.915 329.887 281.647 328.249 276.857 328.501C272.067 328.753 271.752 328.816 271.752 333.921V353.143H266.71C266.647 351.945 266.521 350.874 266.521 349.739V315.014C266.521 310.413 266.584 310.413 271.626 310.981V324.656Z" fill="white"/>
<path d="M202.68 338.332C202.554 350.118 193.604 357.05 184.025 353.08C181.315 351.945 178.416 349.361 177.282 346.714C175.854 343.159 175.355 339.298 175.832 335.496C176.651 328.312 181.882 323.9 188.689 323.774C195.495 323.648 200.726 327.808 202.302 335.118C202.554 336.442 202.617 337.828 202.68 338.332ZM197.26 338.648C197.094 337.163 196.842 335.69 196.503 334.236C195.369 330.392 192.722 328.312 189.004 328.375C185.286 328.438 182.071 330.518 181.567 334.299C181.018 337.76 181.168 341.296 182.008 344.698C183.143 349.109 187.995 350.748 192.218 348.857C196.44 346.966 196.882 343.122 197.26 338.648Z" fill="white"/>
<path d="M68.8833 335.433C69.4505 330.707 67.3708 328.186 62.203 328.249C59.9342 328.312 57.6653 328.69 55.4596 328.879C54.3252 324.972 54.3882 324.908 57.9174 324.215C58.4363 324.096 58.9627 324.011 59.493 323.963C69.4505 323.018 74.5553 325.728 74.2402 336.631C74.0512 341.231 74.1142 345.832 74.2402 350.433C74.3032 352.323 73.736 353.332 71.6563 353.332C67.0557 353.332 62.455 353.836 57.9805 353.269C53.5059 352.701 51.9303 349.739 51.6152 345.832C51.3001 341.925 53.0017 338.395 56.9091 337.198C60.8165 336 64.5978 336.063 68.8833 335.433ZM69.5766 344.508C69.1354 343.374 68.6312 340.664 67.875 340.601C64.9383 340.23 61.9566 340.466 59.1149 341.294C56.72 341.988 56.4049 344.508 57.2872 346.777C58.1695 349.046 62.6441 350.433 67.3708 349.613C70.5219 348.983 68.5682 346.588 69.5766 344.508Z" fill="white"/>
<path d="M77.2654 324.845C83.1895 324.089 83.1265 324.152 84.513 328.248C86.6557 334.614 88.9245 340.916 91.1303 347.281H92.3277C94.0293 341.105 95.794 334.929 97.4325 328.689C98.63 324.278 98.5039 324.215 103.735 324.845C102.474 329.446 101.403 334.109 99.8904 338.584C97.9367 344.256 95.6679 349.865 93.4621 355.474C92.7167 357.724 91.3723 359.728 89.5736 361.271C87.7748 362.815 85.5895 363.839 83.2525 364.234C81.4879 364.612 79.5342 363.73 77.2654 363.415C77.5805 361.839 77.8326 360.642 78.0847 359.255C79.2283 359.484 80.3866 359.631 81.5509 359.696C87.0969 359.949 89.9959 355.663 87.8531 350.684C84.3239 342.239 80.9207 333.731 77.2654 324.845Z" fill="white"/>
<path d="M209.549 324.593H214.402V331.148C214.465 335.055 214.339 339.025 214.591 342.996C214.969 348.416 222.217 351.882 226.691 348.794C227.258 348.353 227.448 346.966 227.448 346.021C227.511 340.034 227.448 334.11 227.448 328.186V324.656H232.237C232.424 325.337 232.551 326.033 232.615 326.736C232.615 334.551 232.552 342.366 232.615 350.18C232.678 352.008 232.111 353.016 230.284 353.142C226.565 353.457 222.784 354.025 219.066 353.899C213.898 353.71 209.99 350.432 209.675 345.517C209.234 338.647 209.549 331.778 209.549 324.593Z" fill="white"/>
<path d="M163.102 353.205H157.682V342.176C157.682 336 157.682 329.824 157.619 323.711C157.619 319.551 157.619 319.551 153.333 319.551L146.401 319.425C146.13 319.371 145.873 319.264 145.645 319.11V315.14H175.013V319.488H163.102V353.205Z" fill="white"/>
<path d="M36.5529 315.455V324.341H47.3928V328.816H36.868C36.868 334.677 36.679 340.286 36.9941 345.832C37.1201 348.542 39.515 349.55 42.0359 349.487C43.8812 349.316 45.713 349.021 47.5188 348.605C49.2204 352.449 49.0944 352.701 45.187 353.647C36.805 355.663 31.7002 352.134 31.4481 343.689C31.196 335.244 31.3851 326.988 31.3221 318.669C31.3221 315.014 34.1581 316.337 36.5529 315.455Z" fill="white"/>
<path d="M260.597 348.667C261.606 352.953 261.606 352.953 257.887 353.709C250.388 355.222 244.212 352.827 241.25 347.344C238.287 341.861 238.981 332.156 243.896 327.24C247.615 323.521 255.303 322.639 260.849 325.475L259.841 329.257C254.862 328.374 249.821 326.862 246.606 332.029C243.392 337.197 243.833 341.357 246.543 345.705C250.01 351.188 255.43 349.55 260.597 348.667Z" fill="white"/>
</g>
<g clip-path="url(#clip6_521_83)">
<path d="M418.092 336.505C421.621 326.926 426.033 323.207 435.738 321.695C435.423 324.405 435.36 326.611 432.02 327.808C424.394 330.455 421.306 337.072 424.394 343.185C426.159 346.589 429.184 348.605 432.776 349.74C443.805 353.395 453.321 350.181 461.955 343.185L464.35 341.043C464.876 341.617 465.36 342.228 465.8 342.87C466.241 343.564 466.619 344.257 466.997 344.95C458.111 355.349 441.662 359.13 429.373 353.773C423.512 351.252 419.856 346.841 418.092 340.854V336.505Z" fill="white"/>
<path d="M525.797 325.413L523.339 327.619C519.81 326.484 516.659 324.972 513.382 324.594C508.025 324.026 503.424 326.169 500.777 331.085C498.13 336.001 498.508 340.349 501.47 344.635C504.432 348.92 509.537 350.811 515.02 350.118C520.503 349.424 520.629 348.731 520.629 343.626V337.261H525.482C525.482 341.358 525.545 345.391 525.419 349.424C525.359 349.821 525.215 350.2 524.998 350.536C524.781 350.873 524.495 351.16 524.158 351.378C518.171 356.105 506.512 355.79 500.336 350.811C494.16 345.832 492.269 336.505 496.113 329.005C501.407 318.733 517.73 316.527 525.797 325.413Z" fill="white"/>
<path d="M477.144 331.337C473.803 328.879 472.48 327.051 473.236 323.648C474.245 318.984 472.795 314.699 468.573 311.926C464.35 309.153 459.686 309.846 455.653 312.619C446.641 318.921 443.616 327.933 444.246 338.458C444.372 340.79 444.876 343.122 445.191 345.454C440.465 346.588 440.15 346.336 439.519 341.861C437.755 330.202 440.528 319.993 448.973 311.548C452.691 307.892 457.04 305.308 462.522 305.245C471.03 305.119 478.215 311.674 478.404 320.056C478.467 323.585 477.648 327.177 477.144 331.337Z" fill="white"/>
<path d="M447.397 361.525C451.116 359.76 453.384 359.508 456.031 361.84C459.75 365.117 464.413 366.062 469.077 363.478C473.741 360.895 475.316 356.546 474.434 351.126C472.606 339.656 465.485 332.534 455.023 328.312L452.943 327.619L451.179 326.989C452.061 322.388 452.628 322.01 456.788 323.711C468.636 328.375 476.829 336.379 479.097 349.235C480.61 357.617 477.774 364.298 471.598 367.827C465.422 371.356 457.985 370.159 451.62 364.739C450.422 363.731 449.162 362.848 447.397 361.525Z" fill="white"/>
<path d="M704.15 347.407L706.419 350.054C704.087 355.096 694.004 355.726 689.088 353.08C683.164 349.865 680.643 342.681 683.353 336.126C686.063 329.572 692.68 326.862 699.423 328.816C706.167 330.77 709.129 336.442 707.931 343.059H687.764C688.395 350.37 696.461 352.512 704.15 347.407ZM687.449 339.341H703.394C702.385 334.866 699.612 332.471 695.642 332.345C691.672 332.219 688.584 334.677 687.449 339.341Z" fill="white"/>
<path d="M574.828 328.69C568.463 326.926 561.657 330.077 559.199 335.875C556.741 341.673 558.758 349.362 564.178 352.702C569.597 356.042 579.366 355.349 582.265 350.181L579.996 347.597C571.866 352.324 563.925 350.244 563.61 343.185H583.777C584.723 336.001 581.131 330.455 574.828 328.69ZM563.673 339.404C563.421 335.686 566.32 332.787 570.669 332.472C575.017 332.157 578.673 334.993 578.925 339.404H563.673Z" fill="white"/>
<path d="M549.556 351.189C546.279 354.277 542.939 354.845 539.22 354.593C535.502 354.341 530.523 351.126 530.208 346.589C529.767 340.728 530.082 334.804 530.082 328.69H534.809C534.809 333.606 534.683 338.459 534.809 343.312C534.998 349.299 540.418 352.261 545.712 349.362C548.611 347.723 549.493 345.013 549.493 341.925C549.619 337.577 549.556 333.228 549.556 328.69H554.22V354.341C552.266 354.088 549.367 356.231 549.556 351.189Z" fill="white"/>
<path d="M653.921 328.501H658.27C658.522 329.384 658.774 330.203 659.026 331.211L660.16 330.644C664.194 327.871 668.479 327.493 672.954 329.257C676.105 330.518 678.185 333.039 678.311 336.379C678.626 342.24 678.374 348.164 678.374 354.277H673.836V346.147C673.911 343.645 673.827 341.14 673.584 338.648C673.206 334.866 671.252 332.976 667.975 332.724C663.564 332.346 660.223 334.11 659.467 337.829C658.711 341.547 659.026 344.005 658.9 347.093C658.774 350.181 658.9 351.63 658.9 354.214H653.921V328.501Z" fill="white"/>
<path d="M586.802 351.694C587.559 350.244 588.189 349.173 588.504 348.605C592.285 349.173 595.689 349.866 599.155 350.307C600.193 350.434 601.243 350.189 602.117 349.614C602.936 349.047 603.819 347.975 603.882 347.03C603.945 346.085 602.936 345.076 602.18 344.824C599.974 344.131 597.705 343.816 595.5 343.312C592.033 342.492 588.567 341.673 587.874 337.451C587.181 333.228 589.134 330.392 593.231 329.132C598.273 327.556 603.125 328.06 608.167 330.581L606.528 333.669C602.936 333.291 599.659 332.661 596.445 332.85C595.121 332.913 593.924 334.741 592.727 335.812C593.798 336.883 594.743 338.396 596.067 338.837C598.399 339.719 600.983 339.782 603.44 340.476C607.096 341.484 608.923 343.627 609.049 346.715C609.175 349.803 607.222 352.639 603.755 353.71C600.955 354.639 597.984 354.939 595.054 354.591C592.124 354.242 589.307 353.253 586.802 351.694Z" fill="white"/>
<path d="M616.99 332.787L612.705 332.408V328.69L616.738 328.312C616.864 326.547 617.053 324.846 617.179 322.955H621.717C621.78 324.72 621.906 326.358 621.969 328.375H629.217V332.408L621.906 332.724C621.906 337.576 621.78 342.24 621.969 346.841C622.032 349.487 623.86 350.685 626.444 350.37C627.464 350.22 628.474 350.01 629.469 349.74C631.422 352.954 630.918 354.025 627.2 354.529C620.646 355.475 617.053 352.387 616.99 345.769C616.927 341.547 616.99 337.324 616.99 332.787Z" fill="white"/>
<path d="M639.3 354.34H634.699V318.48H639.3V354.34Z" fill="white"/>
<path d="M644.657 328.501H648.943V354.34H644.657V328.501Z" fill="white"/>
<path d="M647.304 317.094C648.249 318.165 649.699 319.237 649.951 320.434C650.045 320.876 650.027 321.334 649.898 321.767C649.77 322.2 649.536 322.594 649.216 322.914C648.897 323.233 648.503 323.467 648.07 323.596C647.637 323.724 647.178 323.742 646.737 323.648C645.539 323.459 643.838 321.883 643.649 320.686C643.46 319.489 645.098 318.291 645.854 317.094H647.304Z" fill="white"/>
</g>
<g clip-path="url(#clip7_521_83)">
<path d="M1052.15 340.437C1051.42 335.598 1045.61 335.32 1041.78 335.111C1041.78 335.111 1025.94 334.693 1024.27 334.623C1022.81 334.554 1021.1 334.275 1020.93 332.639C1020.75 330.933 1022.32 330.133 1023.71 329.82C1026.53 329.228 1029.35 329.158 1032.14 329.158C1038.26 329.158 1043.9 329.82 1049.89 330.933L1050.55 326.164V326.13C1046.06 325.294 1039.83 324.319 1033.22 324.319C1030.33 324.319 1027.4 324.493 1024.55 324.842C1021.41 325.259 1017.97 325.99 1016.3 328.183C1014.87 330.063 1014.73 333.231 1015.6 335.389C1017.1 339.114 1022.39 339.253 1025.66 339.393C1025.66 339.393 1041.61 339.845 1043.28 339.915C1044.74 339.984 1046.44 340.263 1046.62 341.969C1046.76 343.466 1045.75 344.58 1043.69 344.997C1040.98 345.554 1038.09 345.624 1035.3 345.624C1028.52 345.624 1022.53 344.928 1015.67 343.849L1015.11 348.687C1021.41 349.975 1027.85 350.602 1034.29 350.672H1034.4C1037.32 350.672 1040.28 350.672 1043.17 350.254C1045.71 349.871 1048.39 349.314 1050.41 347.573C1052.33 345.833 1052.5 342.874 1052.15 340.437ZM866.017 344.162L850.178 324.459H843.424V350.497H849.377V332.465L862.571 348.861C864.416 351.194 867.583 351.194 869.428 348.861L882.622 332.465V350.497H888.575V324.459H881.821L866.017 344.162ZM938.39 324.493H903.752V350.532H938.668L939.538 345.276H909.705V340.158H937.206V334.902H909.705V329.785H938.355V324.493H938.39ZM995.863 350.497L1006.72 324.493H1000.56L992.243 344.405L982.461 326.861C981.103 324.493 978.075 323.693 975.707 325.05C974.942 325.468 974.315 326.095 973.897 326.861L964.115 344.405L955.795 324.493H949.669L960.53 350.497H966.831L978.179 329.959L989.528 350.497H995.863Z" fill="white"/>
</g>
<g clip-path="url(#clip8_521_83)">
<path fill-rule="evenodd" clip-rule="evenodd" d="M10.0464 515.031H11.8719V505.204L14.3819 515.031H15.9031L18.4132 505.204V515.031H20.2387V502.995H17.4244L15.2186 512.06L13.0889 502.995H10.0464V515.031ZM27.3124 508.023C27.3124 506.499 25.9433 505.814 24.4221 505.814C21.912 505.814 21.2275 506.88 21.2275 508.86H22.9008C22.9008 507.87 23.129 507.031 24.2699 507.031C25.2587 507.031 25.639 507.49 25.639 508.327C25.639 509.013 25.1066 509.393 24.4221 509.546L23.129 509.85C21.912 510.232 20.9232 510.689 20.9232 512.745C20.9232 514.574 21.912 515.411 23.2811 515.411C24.4221 515.411 25.1066 514.878 25.639 514.041C25.639 514.878 26.2475 515.26 27.0842 515.26C27.4645 515.26 27.7688 515.03 28.1491 515.03V513.887H27.7688C27.4645 513.887 27.3124 513.584 27.3124 513.202V508.023ZM25.639 511.909C25.639 513.203 24.9545 514.042 23.9657 514.042C23.129 514.042 22.7487 513.356 22.7487 512.519C22.7487 511.91 22.9008 511.376 23.5854 511.071C24.1178 510.843 25.1066 510.691 25.639 510.234V511.909ZM28.3012 515.031H30.1267V512.212L31.1155 511.07L33.3213 515.031H35.2989L32.3325 509.547L34.9946 506.041H33.017L30.1267 509.851V502.995H28.3012V515.031ZM35.2989 515.031H37.2004V506.041H35.2989V515.031ZM35.2989 504.822H37.2004V502.995H35.2989V504.822ZM38.1892 515.031H40.0147V509.013C40.0147 507.87 40.8514 507.183 41.536 507.183C42.3726 507.183 42.829 507.716 42.829 508.859V515.03H44.5024V508.326C44.5024 506.496 43.6657 505.813 42.3726 505.813C41.3838 505.813 40.5471 506.346 40.0147 507.183V506.04H38.1892V515.031ZM45.7193 515.945C45.7193 516.555 45.8715 518.231 48.7618 518.231C51.0437 518.231 52.1085 516.937 52.1085 514.727V506.041H50.4352V507.184H50.207C50.0549 506.499 49.3703 505.814 48.2294 505.814C45.7193 505.814 45.4151 508.557 45.4151 510.536C45.4151 512.898 46.0236 515.031 48.0783 515.031C49.0671 515.031 49.9038 514.574 50.208 513.888V515.261C50.208 516.403 49.5996 516.937 48.7629 516.937C47.9262 516.937 47.3938 516.403 47.3938 515.944H45.7193V515.945ZM47.2406 510.384C47.2406 508.708 47.3927 507.185 48.7608 507.185C50.0549 507.185 50.2059 508.861 50.2059 510.384C50.2059 511.909 50.0538 513.585 48.7608 513.585C47.3927 513.585 47.2406 511.909 47.2406 510.384ZM56.5962 515.031H63.2896V513.585H58.5738V509.699H62.8332V508.023H58.5738V504.671H63.1375V502.995H56.5962V515.031ZM63.822 515.031H65.6475V502.995H63.822V515.031ZM73.0255 510.842V509.85C73.0255 507.337 72.341 505.814 69.8309 505.814C67.0166 505.814 66.4842 508.327 66.4842 510.689C66.4842 514.878 68.3097 515.411 69.8309 515.411C71.8085 515.411 73.0255 514.041 73.0255 512.059H71.3522C71.3522 512.518 71.2 514.041 69.8309 514.041C68.4618 514.041 68.3097 512.518 68.3097 511.374V510.841H73.0255V510.842ZM68.3097 509.547V509.393C68.3097 508.175 68.69 507.032 69.8309 507.032C70.8197 507.032 71.2 507.871 71.2 509.014V509.547H68.3097ZM78.1977 511.909C78.1977 513.203 77.6653 514.042 76.6765 514.042C75.3834 514.042 75.1552 512.519 75.1552 510.537C75.1552 508.558 75.3834 507.185 76.6765 507.185C77.8935 507.185 78.0456 508.176 78.0456 509.015H79.8711C79.8711 507.872 79.4147 505.816 76.6765 505.816C74.1664 505.816 73.3298 507.72 73.3298 510.538C73.3298 513.357 74.1664 515.413 76.6765 515.413C79.0344 515.413 79.719 514.043 79.8711 511.91H78.1977V511.909Z" fill="white"/>
<path fill-rule="evenodd" clip-rule="evenodd" d="M79.5669 507.338H80.8599V513.051C80.8599 514.879 81.3924 515.261 82.7615 515.261C83.2179 515.261 83.7503 515.261 84.0545 515.031V513.735H83.5982C82.9136 513.735 82.7615 513.584 82.7615 512.898V507.337H84.0545V506.04H82.7615V503.527H80.8599V506.04H79.5669V507.338ZM84.2067 515.031H86.1082V509.699C86.1082 508.023 87.097 507.717 87.9337 507.717H88.7704V505.814H88.2379C87.2491 505.814 86.5646 506.497 86.1082 507.49V506.041H84.2067V515.031Z" fill="white"/>
<path fill-rule="evenodd" clip-rule="evenodd" d="M88.3899 510.536C88.3899 513.355 89.2266 515.411 91.7366 515.411C94.2466 515.411 95.0833 513.355 95.0833 510.536C95.0833 507.718 94.4748 505.814 91.7366 505.814C89.0744 505.814 88.3899 507.718 88.3899 510.536ZM90.2914 510.536C90.2914 508.557 90.4436 507.184 91.7366 507.184C93.1057 507.184 93.41 508.557 93.41 510.536C93.41 512.898 93.1057 514.041 91.7366 514.041C90.4436 514.042 90.2914 512.899 90.2914 510.536ZM95.7679 515.031H97.6694V509.013C97.6694 507.87 98.2779 507.183 98.9625 507.183C99.9513 507.183 100.332 507.716 100.332 508.859V515.03H102.157V508.326C102.157 506.496 101.32 505.813 99.7992 505.813C98.8093 505.813 97.9737 506.346 97.4412 507.183V506.04H95.7679V515.031ZM103.147 515.031H104.971V506.041H103.147V515.031ZM103.147 504.823H104.971V502.995H103.147V504.823ZM110.373 511.909C110.373 513.203 109.991 514.042 109.003 514.042C107.711 514.042 107.482 512.519 107.482 510.537C107.482 508.558 107.712 507.185 109.003 507.185C109.991 507.185 110.373 508.176 110.373 509.015H112.199C112.199 507.872 111.665 505.816 109.004 505.816C106.343 505.816 105.657 507.72 105.657 510.538C105.657 513.357 106.342 515.413 109.004 515.413C111.209 515.413 112.047 514.043 112.199 511.91H110.373V511.909ZM118.433 504.519H119.879C121.553 504.519 122.237 505.662 122.237 509.014C122.237 512.518 121.553 513.736 119.879 513.736H118.433V504.519ZM116.381 515.031H119.879C123.605 515.031 124.062 512.746 124.062 509.013C124.062 505.508 123.605 502.994 119.879 502.994H116.381V515.031ZM131.138 510.842V509.85C131.138 507.337 130.453 505.814 127.942 505.814C125.128 505.814 124.595 508.327 124.595 510.689C124.595 514.878 126.422 515.411 127.942 515.411C129.997 515.411 131.138 514.041 131.138 512.059H129.464C129.464 512.518 129.311 514.041 127.942 514.041C126.574 514.041 126.422 512.518 126.422 511.374V510.841H131.138V510.842ZM126.421 509.547V509.394C126.421 508.175 126.8 507.032 127.941 507.032C128.932 507.032 129.463 507.871 129.463 509.014V509.547H126.421ZM137.526 508.708V508.328C137.526 507.185 136.993 505.815 134.635 505.815C132.811 505.815 131.67 506.652 131.67 508.328C131.67 509.7 132.126 510.384 133.495 510.843L135.017 511.376C135.625 511.68 136.006 512.06 136.006 512.747C136.006 513.586 135.473 514.043 134.485 514.043C133.495 514.043 133.115 513.586 133.115 512.52V512.214H131.442V512.52C131.442 514.196 132.126 515.413 134.485 515.413C136.31 515.413 137.679 514.576 137.679 512.52C137.679 511.224 137.147 510.385 135.852 510.005L134.635 509.548C133.647 509.168 133.343 509.015 133.343 508.176C133.343 507.339 133.8 507.033 134.635 507.033C135.473 507.033 135.852 507.719 135.852 508.558V508.709H137.526V508.708ZM138.364 515.031H140.188V506.041H138.364V515.031ZM138.364 504.823H140.188V502.995H138.364V504.823ZM141.328 515.945C141.328 516.555 141.709 518.231 144.371 518.231C146.729 518.231 147.718 516.937 147.718 514.727V506.041H146.045V507.184H145.892C145.74 506.499 145.056 505.814 143.991 505.814C141.328 505.814 141.024 508.557 141.024 510.536C141.024 512.898 141.708 515.031 143.838 515.031C144.674 515.031 145.511 514.574 145.891 513.888V515.261C145.891 516.404 145.208 516.937 144.37 516.937C143.533 516.937 143 516.404 143 515.944H141.328V515.945ZM142.851 510.384C142.851 508.708 143.002 507.185 144.371 507.185C145.74 507.185 145.892 508.861 145.892 510.384C145.892 511.909 145.74 513.585 144.371 513.585C143.002 513.585 142.851 511.909 142.851 510.384ZM148.556 515.031H150.38V509.013C150.38 507.87 151.065 507.183 151.75 507.183C152.739 507.183 153.042 507.716 153.042 508.859V515.03H154.945V508.326C154.945 506.496 153.88 505.813 152.587 505.813C151.598 505.813 150.763 506.346 150.231 507.183V506.04H148.558V515.031H148.556ZM159.584 515.031H166.125V513.585H161.41V509.699H165.822V508.023H161.41V504.671H166.125V502.995H159.584V515.031ZM172.665 508.023C172.665 506.499 171.524 505.814 169.851 505.814C167.495 505.814 166.657 506.881 166.657 508.86H168.331C168.331 507.87 168.484 507.031 169.625 507.031C170.69 507.031 170.993 507.49 170.993 508.327C170.993 509.013 170.461 509.394 170.004 509.546L168.484 509.85C167.343 510.232 166.505 510.689 166.505 512.745C166.505 514.574 167.343 515.411 168.787 515.411C169.852 515.411 170.461 514.878 170.993 514.041C171.146 514.878 171.831 515.26 172.515 515.26C172.972 515.26 173.198 515.03 173.504 515.03V513.887H173.199C172.82 513.887 172.666 513.584 172.666 513.202V508.023H172.665ZM170.992 511.909C170.992 513.203 170.46 514.042 169.319 514.042C168.636 514.042 168.178 513.356 168.178 512.519C168.178 511.91 168.483 511.376 169.015 511.071C169.472 510.843 170.46 510.691 170.992 510.234V511.909Z" fill="white"/>
<path fill-rule="evenodd" clip-rule="evenodd" d="M179.359 508.708V508.328C179.359 507.185 178.902 505.815 176.545 505.815C174.644 505.815 173.503 506.652 173.503 508.328C173.503 509.7 174.036 510.384 175.33 510.843L176.85 511.376C177.534 511.68 177.839 512.06 177.839 512.747C177.839 513.586 177.382 514.043 176.318 514.043C175.33 514.043 175.024 513.586 175.024 512.52V512.214H173.351V512.52C173.351 514.196 174.036 515.413 176.318 515.413C178.219 515.413 179.512 514.576 179.512 512.52C179.512 511.224 179.056 510.385 177.535 510.005L176.545 509.548C175.48 509.168 175.176 509.015 175.176 508.176C175.176 507.339 175.709 507.033 176.545 507.033C177.382 507.033 177.685 507.719 177.685 508.558V508.709H179.359V508.708ZM179.359 506.041L181.87 515.411L181.717 516.097C181.564 516.554 181.032 516.782 180.576 516.782H179.891V518.229H180.576C182.554 518.229 183.087 517.925 183.695 515.41L186.204 506.04H184.378L182.858 512.897L181.414 506.04H179.359V506.041ZM186.89 506.041H187.575V502.995H188.715V502.46H185.901V502.995H186.89V506.041ZM192.596 506.041H193.28V502.46H192.289L191.224 504.975L190.389 502.46H189.398V506.041H190.082V503.147L191.071 506.041H191.606L192.595 503.147V506.041H192.596ZM21.1842 441.859H41.6067C46.911 441.859 50.3602 443.452 52.2163 446.375C53.8073 449.297 54.0735 453.017 53.0118 457.798C50.6253 468.425 43.4639 473.738 31.7937 473.738H26.7546L22.2459 493.132H8.98364L21.1842 441.859ZM29.1411 464.174H31.7927C35.7711 464.174 38.1586 462.049 39.4844 457.798C40.2799 453.548 38.9541 451.423 34.9756 451.423H32.0578L29.1411 464.174ZM55.9296 454.345H69.4559L67.865 460.455H68.1301C69.4559 458.064 71.3131 456.205 73.4344 455.142C75.5556 454.08 77.678 453.282 79.7993 453.282H82.1867L79.2689 465.502C77.9431 465.237 76.6163 465.237 75.5556 465.237C72.903 465.237 70.7817 465.502 68.9256 466.565C67.3336 467.627 66.0078 469.487 65.4775 471.877L59.908 493.13H45.8504L55.9296 454.345ZM117.728 454.345H122.239L125.156 442.921H138.418L135.766 454.345H141.334L139.213 463.111H133.643L128.868 481.443C128.603 483.567 129.4 484.365 131.521 484.365H133.909L131.785 493.132C129.134 493.396 126.481 493.396 124.096 493.396C120.115 493.396 117.465 492.865 115.874 491.803C114.281 490.474 114.016 487.818 115.077 483.567L120.116 463.111H115.341L117.728 454.345ZM149.823 475.863L148.762 480.911C148.229 483.036 148.229 484.365 149.026 485.161C149.556 485.959 150.353 486.223 151.414 486.223C152.74 486.223 154.065 485.692 155.126 484.896C156.189 483.834 156.983 481.974 157.779 479.582L169.716 479.317C167.592 489.148 160.963 493.927 149.824 493.927C137.623 494.194 133.379 487.552 137.091 473.738C138.948 466.299 141.602 461.252 145.049 458.064C148.763 454.876 153.535 453.281 159.901 453.281C165.471 453.281 169.186 454.609 171.307 457.266C173.428 460.188 173.694 464.97 172.103 471.877L171.041 475.863H149.823ZM160.696 467.362C161.757 463.111 160.962 461.252 158.045 461.252C155.125 461.252 153.004 463.111 151.944 467.362L151.678 468.956H160.166L160.696 467.362ZM181.385 441.859H194.646L182.179 493.132H168.652L181.385 441.859ZM90.4099 475.598C90.675 475.066 90.675 474.27 90.9402 473.739C92.266 468.956 93.3277 465.769 94.3883 463.909C95.449 462.315 96.7748 461.517 98.3668 461.517C100.223 461.517 101.019 462.314 101.285 463.909C101.285 465.768 100.754 468.956 99.4285 473.739C99.4285 474.27 99.1633 475.066 98.8982 475.598H112.427C112.691 475.066 112.691 474.27 112.957 473.739L114.548 465.769C114.812 463.378 114.548 461.253 113.751 459.394C112.957 457.534 111.63 455.94 109.509 454.877C107.385 453.814 104.202 453.283 100.224 453.283C96.2455 453.283 93.0625 453.814 90.4099 455.143C87.7572 456.206 85.6359 457.799 84.0439 459.659C82.453 461.518 81.1261 463.91 80.0655 466.3C79.0048 468.691 78.2094 471.083 77.4128 473.739C77.4128 474.27 77.1477 475.066 77.1477 475.598H90.4099ZM97.8365 479.582C97.3061 481.443 96.5107 482.505 96.2455 483.567C95.1849 485.161 93.8591 485.959 92.0019 485.692C90.4109 485.959 89.3492 485.161 89.3492 483.567C89.3492 482.505 89.3492 481.443 89.6144 479.582H76.3532C76.3532 480.378 76.3532 480.911 76.087 481.443C76.087 483.834 76.087 486.223 76.8836 488.082C77.679 489.942 79.0048 491.271 81.1272 492.334C83.2495 493.396 86.4314 493.927 90.4109 494.194C94.1242 493.927 97.5724 493.396 100.225 492.334C102.878 491.005 104.999 489.678 106.59 487.818C108.183 485.691 109.51 483.566 110.57 481.176C110.835 480.645 111.101 480.114 111.101 479.582H97.8365ZM188.281 490.74H187.751V492.334H186.954L187.221 488.88H188.281C189.342 488.88 189.608 489.147 189.608 489.942C189.608 490.209 189.608 490.209 189.342 490.474C189.342 490.74 189.078 490.74 188.812 490.74L189.608 492.334H189.078L188.281 490.74ZM188.281 490.209H188.812C189.078 490.209 189.078 489.942 189.078 489.678C189.078 489.678 189.078 489.411 188.812 489.411H187.751V490.209H188.281ZM188.281 492.865C188.812 492.865 189.342 492.6 189.872 492.067C190.403 491.803 190.403 491.271 190.403 490.474C190.403 489.942 190.403 489.411 189.872 488.88C189.608 488.349 189.078 488.082 188.281 488.082C187.751 488.082 187.221 488.349 186.954 488.88C186.424 489.411 186.16 489.942 186.16 490.474C186.16 491.271 186.424 491.803 186.69 492.067C187.221 492.6 187.751 492.865 188.281 492.865ZM185.363 490.474C185.363 489.678 185.894 488.88 186.424 488.349C186.954 487.818 187.485 487.551 188.281 487.551C189.342 487.551 189.872 487.818 190.403 488.349C190.933 488.88 191.199 489.678 191.199 490.474C191.199 491.271 190.933 492.067 190.403 492.6C189.872 493.132 189.078 493.396 188.281 493.396C187.485 493.396 186.954 493.132 186.16 492.6C185.63 492.067 185.363 491.271 185.363 490.474Z" fill="white"/>
</g>
<path fill-rule="evenodd" clip-rule="evenodd" d="M587.151 513.257C587.151 513.427 587.16 513.544 587.191 513.593C587.22 513.638 587.273 513.655 587.38 513.66L587.595 513.674V513.809C587.157 513.791 586.719 513.791 586.282 513.809V513.674L586.497 513.66C586.606 513.655 586.659 513.638 586.685 513.593C586.717 513.544 586.726 513.427 586.726 513.257V511.245C586.726 511.074 586.717 510.957 586.685 510.908C586.659 510.863 586.606 510.85 586.497 510.841L586.313 510.828V510.692C586.552 510.697 586.812 510.706 587.076 510.706C587.34 510.706 587.599 510.697 587.861 510.692C588.577 510.679 588.766 511.043 588.766 511.365C588.766 511.853 588.326 512.145 587.892 512.23L588.91 513.558C588.977 513.647 589.075 513.665 589.183 513.674V513.809C589.067 513.804 588.963 513.795 588.859 513.795C588.757 513.795 588.659 513.804 588.555 513.809C588.497 513.725 588.429 513.647 588.371 513.567L587.546 512.459C587.475 512.361 587.389 512.276 587.313 512.181L587.34 512.128C587.461 512.137 587.599 512.133 587.735 512.111C588.049 512.058 588.318 511.814 588.318 511.483C588.318 510.998 587.959 510.865 587.61 510.865C587.408 510.865 587.277 510.887 587.151 510.918V513.257Z" fill="white"/>
<path fill-rule="evenodd" clip-rule="evenodd" d="M587.663 515.551C588.534 515.551 589.355 515.211 589.971 514.595C590.586 513.979 590.927 513.16 590.927 512.287C590.928 511.859 590.844 511.434 590.68 511.039C590.516 510.643 590.275 510.283 589.971 509.981C589.669 509.677 589.309 509.436 588.913 509.272C588.517 509.108 588.092 509.024 587.663 509.026C586.799 509.027 585.97 509.371 585.358 509.982C584.747 510.594 584.403 511.423 584.402 512.287C584.402 513.16 584.741 513.979 585.357 514.595C585.974 515.21 586.792 515.551 587.663 515.551ZM585.041 512.287C585.041 511.587 585.314 510.928 585.81 510.434C586.304 509.939 586.964 509.665 587.663 509.665C588.363 509.665 589.023 509.938 589.518 510.434C589.762 510.677 589.956 510.966 590.088 511.284C590.219 511.602 590.287 511.943 590.285 512.287C590.285 512.983 590.009 513.649 589.517 514.141C589.025 514.633 588.359 514.909 587.663 514.909C587.319 514.91 586.978 514.843 586.66 514.711C586.342 514.58 586.053 514.386 585.81 514.142C585.566 513.899 585.372 513.61 585.24 513.292C585.108 512.973 585.04 512.632 585.041 512.287ZM458.155 520.964C458.155 521.482 458.182 521.835 458.277 521.985C458.358 522.122 458.522 522.175 458.848 522.189L459.501 522.23V522.638C458.844 522.612 458.186 522.598 457.529 522.597C456.862 522.597 456.223 522.612 455.515 522.638V522.23L456.168 522.189C456.495 522.175 456.658 522.122 456.739 521.985C456.834 521.835 456.862 521.482 456.862 520.964V517.931C456.486 517.909 456.109 517.9 455.733 517.904H452.551C451.953 517.904 451.586 517.918 451.422 517.931V520.964C451.422 521.482 451.45 521.835 451.545 521.985C451.627 522.122 451.79 522.175 452.116 522.189L452.769 522.23V522.638C452.112 522.612 451.454 522.598 450.796 522.597C450.13 522.597 449.49 522.612 448.783 522.638V522.23L449.436 522.189C449.762 522.175 449.926 522.122 450.007 521.985C450.102 521.835 450.129 521.482 450.129 520.964V514.858C450.129 514.341 450.102 513.987 450.007 513.836C449.926 513.701 449.762 513.647 449.436 513.633L448.783 513.591V513.185C449.49 513.211 450.129 513.225 450.796 513.225C451.422 513.225 452.061 513.211 452.769 513.185V513.591L452.116 513.633C451.789 513.647 451.627 513.701 451.545 513.836C451.45 513.986 451.422 514.341 451.422 514.858V517.28C451.586 517.293 451.953 517.306 452.551 517.306H455.734C456.333 517.306 456.7 517.293 456.863 517.28V514.858C456.863 514.341 456.836 513.987 456.741 513.836C456.659 513.701 456.496 513.647 456.169 513.633L455.517 513.591V513.185C456.224 513.211 456.863 513.225 457.53 513.225C458.155 513.225 458.795 513.211 459.503 513.185V513.591L458.85 513.633C458.523 513.647 458.36 513.701 458.279 513.836C458.184 513.986 458.156 514.341 458.156 514.858V520.964H458.155ZM466.356 517.918C466.356 515.116 468.314 512.954 471.47 512.954C474.38 512.954 476.448 514.586 476.448 517.605C476.448 520.53 474.163 522.87 471.184 522.87C468.424 522.869 466.356 520.964 466.356 517.918ZM467.811 517.415C467.811 519.795 468.927 522.299 471.619 522.299C473.891 522.299 474.993 520.53 474.993 518.028C474.993 515.335 473.782 513.526 471.252 513.526C468.886 513.525 467.811 515.184 467.811 517.415ZM495.886 520.964C495.886 521.482 495.913 521.835 496.009 521.985C496.09 522.122 496.253 522.175 496.579 522.189L497.232 522.23V522.638C496.575 522.612 495.917 522.598 495.26 522.597C494.593 522.597 493.954 522.612 493.438 522.638V522.23L493.9 522.189C494.226 522.162 494.39 522.122 494.471 521.985C494.566 521.835 494.593 521.482 494.593 520.964V514.789H494.566C494.362 515.157 494.172 515.537 493.995 515.905L491.574 521.046C491.316 521.604 491.084 522.203 490.839 522.774H490.568L486.8 514.789H486.773V520.964C486.773 521.482 486.8 521.835 486.895 521.985C486.977 522.122 487.14 522.161 487.467 522.189L488.065 522.23V522.638C487.467 522.625 486.977 522.597 486.433 522.597C485.943 522.597 485.399 522.625 484.855 522.638V522.23L485.454 522.189C485.781 522.162 485.944 522.122 486.025 521.985C486.12 521.835 486.148 521.482 486.148 520.964V514.858C486.148 514.341 486.12 513.987 486.025 513.836C485.944 513.701 485.781 513.66 485.454 513.633L484.855 513.591V513.185C485.277 513.198 485.712 513.225 486.148 513.225C486.583 513.225 487.018 513.198 487.44 513.185L491.031 520.747L494.595 513.185C495.03 513.198 495.452 513.225 495.887 513.225C496.322 513.225 496.758 513.198 497.152 513.185V513.591L496.581 513.633C496.254 513.659 496.091 513.701 496.01 513.836C495.914 513.986 495.887 514.341 495.887 514.858V520.964H495.886ZM506.222 514.858C506.222 514.341 506.195 513.987 506.1 513.836C506.019 513.701 505.855 513.647 505.529 513.633L504.876 513.591V513.185C505.624 513.198 506.399 513.225 507.174 513.225C508.358 513.225 509.609 513.185 510.384 513.185C510.997 513.185 511.608 513.198 512.139 513.225C511.99 513.823 511.921 514.599 511.921 515.292H511.446V514.409C511.446 514.232 511.432 514.081 511.323 514.042C510.602 513.77 509.528 513.755 508.657 513.755C508.29 513.755 507.896 513.77 507.515 513.865V517.496C507.95 517.523 508.439 517.538 509.093 517.538C509.922 517.538 510.385 517.483 510.535 517.388C510.602 517.334 510.63 517.212 510.643 517.034L510.711 516.327H511.119C511.105 516.885 511.078 517.401 511.078 517.904C511.078 518.407 511.105 518.925 511.119 519.415H510.711L510.643 518.612C510.63 518.435 510.602 518.312 510.535 518.272C510.385 518.162 509.922 518.109 509.093 518.109C508.44 518.109 507.936 518.109 507.515 518.149V521.958C507.895 522.053 508.29 522.067 508.657 522.067C509.773 522.067 511.16 522.025 511.405 521.891C511.609 521.781 511.785 521.183 511.88 520.367H512.356C512.212 521.102 512.139 521.849 512.139 522.597C511.54 522.613 510.466 522.652 509.459 522.639C508.412 522.625 507.337 522.597 506.493 522.597C505.977 522.597 505.528 522.625 505.038 522.639V522.231L505.528 522.189C505.855 522.163 506.018 522.123 506.099 521.986C506.194 521.836 506.221 521.483 506.221 520.965V514.858H506.222ZM524.299 515.211C524.299 514.694 524.285 514.26 524.244 513.852H522.137C521.729 513.852 521.619 513.973 521.592 514.3L521.538 515.374H521.116C521.116 514.64 521.089 513.892 521.021 513.185C522 513.185 522.98 513.226 523.959 513.226H525.931C526.911 513.226 527.89 513.185 528.869 513.185C528.801 513.892 528.774 514.64 528.774 515.374H528.351L528.298 514.3C528.27 513.973 528.161 513.852 527.753 513.852H525.645C525.605 514.26 525.592 514.694 525.592 515.211V520.964C525.592 521.482 525.618 521.835 525.713 521.985C525.795 522.122 525.958 522.175 526.285 522.189L526.937 522.23V522.638C526.28 522.612 525.623 522.598 524.965 522.597C524.299 522.597 523.659 522.612 522.952 522.638V522.23L523.606 522.189C523.931 522.175 524.094 522.122 524.176 521.985C524.272 521.835 524.299 521.482 524.299 520.964V515.211ZM539.938 520.964C539.938 521.482 539.965 521.835 540.062 521.985C540.143 522.122 540.305 522.175 540.633 522.189L541.286 522.23V522.638C540.628 522.612 539.97 522.598 539.312 522.597C538.645 522.597 538.006 522.612 537.3 522.638V522.23L537.952 522.189C538.279 522.175 538.443 522.122 538.524 521.985C538.619 521.835 538.645 521.482 538.645 520.964V514.858C538.645 514.341 538.619 513.987 538.524 513.836C538.443 513.701 538.279 513.647 537.952 513.633L537.3 513.591V513.185C537.97 513.211 538.641 513.224 539.312 513.225C539.938 513.225 540.577 513.211 541.286 513.185V513.591L540.633 513.633C540.305 513.647 540.143 513.701 540.062 513.836C539.965 513.986 539.938 514.341 539.938 514.858V520.964ZM561.811 520.964C561.811 521.482 561.839 521.835 561.934 521.985C562.015 522.122 562.178 522.175 562.505 522.189L563.158 522.23V522.638C562.501 522.612 561.843 522.598 561.185 522.597C560.518 522.597 559.879 522.612 559.362 522.638V522.23L559.825 522.189C560.151 522.162 560.315 522.122 560.396 521.985C560.491 521.835 560.518 521.482 560.518 520.964V514.789H560.491C560.287 515.157 560.096 515.537 559.92 515.905L557.499 521.046C557.241 521.604 557.009 522.203 556.764 522.774H556.492L552.725 514.789H552.698V520.964C552.698 521.482 552.725 521.835 552.821 521.985C552.901 522.122 553.066 522.161 553.391 522.189L553.99 522.23V522.638C553.391 522.625 552.901 522.597 552.358 522.597C551.868 522.597 551.324 522.625 550.781 522.638V522.23L551.379 522.189C551.706 522.162 551.869 522.122 551.95 521.985C552.045 521.835 552.072 521.482 552.072 520.964V514.858C552.072 514.341 552.045 513.987 551.95 513.836C551.869 513.701 551.706 513.66 551.379 513.633L550.781 513.591V513.185C551.203 513.198 551.637 513.225 552.072 513.225C552.508 513.225 552.943 513.198 553.364 513.185L556.956 520.747L560.518 513.185C560.954 513.198 561.376 513.225 561.811 513.225C562.247 513.225 562.681 513.198 563.077 513.185V513.591L562.505 513.633C562.178 513.659 562.015 513.701 561.934 513.836C561.839 513.986 561.811 514.341 561.811 514.858V520.964ZM572.963 514.858C572.963 514.341 572.937 513.987 572.84 513.836C572.761 513.701 572.597 513.647 572.27 513.633L571.616 513.591V513.185C572.365 513.198 573.14 513.225 573.916 513.225C575.099 513.225 576.35 513.185 577.126 513.185C577.738 513.185 578.35 513.198 578.88 513.225C578.732 513.823 578.664 514.599 578.664 515.292H578.188V514.409C578.188 514.232 578.174 514.081 578.064 514.042C577.343 513.77 576.269 513.755 575.399 513.755C575.031 513.755 574.636 513.77 574.257 513.865V517.496C574.691 517.523 575.181 517.538 575.834 517.538C576.663 517.538 577.126 517.483 577.276 517.388C577.343 517.334 577.371 517.212 577.384 517.034L577.453 516.327H577.861C577.847 516.885 577.819 517.401 577.819 517.904C577.819 518.407 577.847 518.925 577.861 519.415H577.453L577.384 518.612C577.371 518.435 577.343 518.312 577.276 518.272C577.126 518.162 576.663 518.109 575.834 518.109C575.181 518.109 574.678 518.109 574.257 518.149V521.958C574.636 522.053 575.031 522.067 575.399 522.067C576.514 522.067 577.901 522.025 578.146 521.891C578.351 521.781 578.527 521.183 578.622 520.367H579.099C578.962 521.019 578.88 521.863 578.88 522.597C578.283 522.613 577.208 522.652 576.202 522.639C575.155 522.625 574.08 522.655 573.236 522.655C572.719 522.655 572.271 522.625 571.782 522.639V522.231L572.272 522.189C572.599 522.163 572.762 522.123 572.842 521.986C572.938 521.836 572.965 521.483 572.965 520.965V514.858H572.963ZM491.528 471.275L491.6 471.232C497.132 465.653 504.601 462.051 512.854 461.732L512.866 461.702L512.855 429.944C495.709 430.159 480.163 437.256 468.765 448.569L468.842 448.588L491.528 471.275ZM511.303 431.479L511.311 460.252L511.306 460.268C503.738 460.912 496.867 464.181 491.533 469.135L491.487 469.066L470.794 448.401C481.876 437.981 496.115 432.036 511.303 431.479ZM535.224 471.688C529.571 466.283 522.199 463.284 514.364 463.206L514.372 492.608L535.224 471.688ZM515.918 464.802V464.818C522.182 465.201 528.149 467.616 532.916 471.697L515.927 488.757L515.918 464.819L515.908 464.818L515.918 464.802ZM490.495 472.358L467.714 449.578L467.722 449.626C456.473 461.311 449.534 477.21 449.534 494.573H481.847L481.904 494.602C481.904 486.156 485.177 478.292 490.521 472.373L490.495 472.358ZM480.38 493.108L480.396 493.111H451.039L451.048 493.108C451.397 477.763 457.22 462.923 467.586 451.642L488.394 472.456L488.397 472.453L488.42 472.484L488.394 472.457C483.679 478.143 480.719 485.353 480.38 493.108ZM514.364 463.202L514.355 463.205L514.364 463.206V463.202Z" fill="white"/>
<path fill-rule="evenodd" clip-rule="evenodd" d="M536.232 470.58L536.273 470.615L558.567 448.296C546.673 436.616 531.019 430.119 514.355 429.942L514.364 461.701L514.355 461.709C522.571 461.783 530.299 464.921 536.232 470.58ZM515.906 431.475C531.095 432.008 545.341 437.93 556.436 448.326L536.223 468.517L536.18 468.428C530.508 463.478 523.436 460.606 515.906 460.201L515.916 460.2L515.906 431.475ZM491.36 473.259C486.216 478.99 483.4 486.906 483.4 494.602L512.673 494.593L491.345 473.208L491.36 473.259ZM491.503 475.508L509.052 493.111L509.004 493.109L484.948 493.111L484.994 493.108C485.304 486.814 487.564 480.457 491.48 475.527L491.503 475.508ZM559.616 449.349L537.298 471.645C543.048 477.656 546.207 485.536 546.207 494.607H577.825C577.776 477.971 571.333 461.409 559.616 449.349ZM539.488 471.736L539.412 471.805L559.652 451.566C570.064 462.873 575.915 477.889 576.307 493.108L547.713 493.109L547.734 493.108C547.424 484.826 544.537 477.529 539.488 471.736ZM512.853 463.227C505.115 463.524 497.885 466.564 492.379 472.069L512.861 492.602L512.876 492.558L512.866 463.201L512.853 463.227ZM511.304 488.858L494.623 472.198L494.607 472.212L494.614 472.19L494.623 472.199C499.289 468.003 505.091 465.466 511.307 464.887L511.312 464.853L511.319 488.808L511.304 488.858ZM537.263 471.678L537.298 471.645L537.284 471.63L537.263 471.678Z" fill="white"/>
<path fill-rule="evenodd" clip-rule="evenodd" d="M514.305 494.607H544.71C544.71 485.929 541.702 478.418 536.225 472.689L514.305 494.607ZM518.056 493.109L536.217 474.997L536.216 474.999C540.41 479.917 542.822 486.127 543.122 493.162L518.056 493.109Z" fill="white"/>
<g clip-path="url(#clip9_521_83)">
<path d="M861.848 486.287C861.906 488.171 861.474 490.037 860.594 491.703C859.716 493.191 858.53 494.473 857.117 495.466C855.546 496.482 853.809 497.215 851.986 497.632C849.947 498.094 847.862 498.324 845.772 498.316C843.42 498.386 841.069 498.195 838.76 497.746C837.846 497.579 836.95 497.331 836.08 497.005V492.786L837.049 493.015L839.216 493.357L842.18 493.585C843.261 493.68 844.345 493.718 845.43 493.699C848.907 493.699 851.53 493.186 853.354 492.102C855.178 491.019 856.09 489.138 856.09 486.458C856.114 485.594 855.938 484.736 855.577 483.95C855.214 483.262 854.709 482.66 854.095 482.183C853.35 481.655 852.547 481.215 851.701 480.871L848.508 479.674L844.289 478.078C842.951 477.549 841.701 476.819 840.584 475.912C839.504 475.057 838.611 473.99 837.961 472.776C837.283 471.313 836.952 469.713 836.992 468.101C836.937 466.225 837.348 464.364 838.189 462.685C838.975 461.201 840.11 459.929 841.496 458.98C842.979 457.954 844.642 457.219 846.399 456.813C848.397 456.342 850.445 456.112 852.499 456.129C854.621 456.069 856.743 456.241 858.827 456.642C859.607 456.823 860.37 457.071 861.107 457.384V461.431C860.267 461.205 859.409 461.053 858.542 460.975C856.742 460.803 854.934 460.726 853.126 460.747C850.604 460.661 848.094 461.128 845.772 462.115C843.833 463.084 842.864 464.738 842.864 467.132C842.827 468.098 842.962 469.064 843.263 469.983C843.564 470.711 844.011 471.37 844.575 471.921C845.215 472.481 845.948 472.925 846.741 473.232C847.596 473.574 848.622 473.973 849.762 474.315C850.903 474.657 852.898 475.399 854.38 475.969C855.75 476.506 857.036 477.235 858.2 478.135C859.345 478.983 860.265 480.099 860.879 481.385C861.595 482.916 861.927 484.599 861.848 486.287Z" fill="white"/>
<path d="M1056.02 486.287C1056.08 488.171 1055.65 490.037 1054.77 491.703C1053.89 493.191 1052.7 494.473 1051.29 495.466C1049.72 496.482 1047.98 497.215 1046.16 497.632C1044.12 498.097 1042.04 498.327 1039.95 498.316C1037.59 498.386 1035.24 498.195 1032.93 497.746C1032.02 497.579 1031.12 497.331 1030.25 497.005V492.786L1031.28 493.015L1033.39 493.357L1036.35 493.585C1037.44 493.68 1038.52 493.718 1039.6 493.699C1043.08 493.699 1045.7 493.186 1047.53 492.102C1049.35 491.019 1050.26 489.138 1050.26 486.458C1050.29 485.594 1050.11 484.736 1049.75 483.95C1049.39 483.262 1048.88 482.66 1048.27 482.183C1047.53 481.643 1046.73 481.202 1045.88 480.871C1044.96 480.472 1043.88 480.073 1042.68 479.674L1038.46 478.078C1037.13 477.549 1035.88 476.819 1034.76 475.912C1033.68 475.057 1032.79 473.99 1032.14 472.776C1031.46 471.313 1031.13 469.713 1031.17 468.101C1031.11 466.225 1031.52 464.364 1032.36 462.685C1033.17 461.213 1034.3 459.945 1035.67 458.98C1037.15 457.954 1038.82 457.219 1040.57 456.813C1042.57 456.342 1044.62 456.112 1046.67 456.129C1048.8 456.069 1050.92 456.241 1053 456.642C1053.78 456.811 1054.55 457.06 1055.28 457.384V461.431C1054.44 461.205 1053.58 461.053 1052.72 460.975C1050.92 460.803 1049.11 460.726 1047.3 460.747C1044.78 460.661 1042.27 461.128 1039.95 462.115C1038.01 463.084 1037.04 464.738 1037.04 467.132C1037.02 468.102 1037.17 469.068 1037.49 469.983C1037.75 470.718 1038.18 471.383 1038.75 471.921C1039.39 472.481 1040.12 472.925 1040.92 473.232C1041.77 473.574 1042.8 473.973 1043.94 474.315C1045.08 474.657 1047.07 475.399 1048.55 475.969C1049.94 476.518 1051.24 477.246 1052.43 478.135C1053.54 479.002 1054.44 480.114 1055.05 481.385C1055.77 482.916 1056.1 484.599 1056.02 486.287Z" fill="white"/>
<path d="M887.845 500.141C886.851 502.843 885.709 505.488 884.424 508.065C883.426 510.122 882.161 512.039 880.662 513.766C879.448 515.166 877.952 516.293 876.272 517.072C874.61 517.838 872.8 518.227 870.97 518.213L869.146 518.099L867.72 517.871L866.409 517.472V513.082L867.834 513.253H871.027C872.681 513.298 874.304 512.797 875.645 511.828C876.995 510.827 878.154 509.591 879.065 508.179C880.119 506.667 880.998 505.042 881.688 503.333C882.486 501.566 883.113 499.856 883.74 498.259L870.97 457.44H877.355L887.047 489.822L897.536 457.44H903.693L887.845 500.141Z" fill="white"/>
<path d="M943.714 499.228V471.408C943.714 467.873 943.201 465.479 942.175 464.225C941.149 462.913 939.496 462.286 937.215 462.286C935.716 462.291 934.23 462.562 932.825 463.084C931.453 463.615 930.166 464.345 929.006 465.251C927.857 466.172 926.841 467.246 925.984 468.443C925.149 469.616 924.531 470.929 924.16 472.32V499.228H918.231V457.554H924.16V464.51C925.197 463.179 926.404 461.99 927.752 460.975C929.11 459.999 930.561 459.159 932.084 458.467C933.882 457.684 935.825 457.295 937.785 457.326C940.522 457.326 942.631 457.668 944.227 458.353C945.64 458.886 946.854 459.842 947.705 461.089C948.55 462.388 949.06 463.877 949.187 465.422C949.427 467.312 949.541 469.217 949.529 471.123V499.228H943.714Z" fill="white"/>
<path d="M924.103 457.612H910.934V461.238H924.103V457.612Z" fill="white"/>
<path d="M1012.18 499V457.896H1018V499H1012.18Z" fill="white"/>
<path d="M1018.05 457.668H1004.89V461.294H1018.05V457.668Z" fill="white"/>
<path d="M1015.09 449.516C1017.2 449.516 1018.91 447.806 1018.91 445.697C1018.91 443.587 1017.2 441.877 1015.09 441.877C1012.98 441.877 1011.27 443.587 1011.27 445.697C1011.27 447.806 1012.98 449.516 1015.09 449.516Z" fill="white"/>
<path d="M957.226 446.951V450.428H963.611L975.469 472.035L966.461 446.951C966.461 446.951 956.883 447.236 957.226 446.951Z" fill="white"/>
<path d="M998.557 508.179V504.702H992.229L980.314 483.038L989.322 508.179C989.322 508.179 998.9 507.837 998.557 508.179Z" fill="white"/>
<path d="M981.74 475.228L996.733 449.345L1001.75 448.718L1001.01 453.336L981.74 475.228Z" fill="white"/>
<path d="M973.872 480.358L958.879 506.184L953.862 506.811L954.603 502.193L973.872 480.358Z" fill="white"/>
</g>
<defs>
<clipPath id="clip0_521_83">
<rect width="231.922" height="63.6526" fill="white" transform="translate(0 5.79639)"/>
</clipPath>
<clipPath id="clip1_521_83">
<rect width="228.2" height="29.9532" fill="white" transform="translate(833.922 22.646)"/>
</clipPath>
<clipPath id="clip2_521_83">
<rect width="116" height="116" fill="white" transform="translate(0 132.246)"/>
</clipPath>
<clipPath id="clip3_521_83">
<rect width="362.49" height="59.3988" fill="white" transform="translate(342 160.546)"/>
</clipPath>
<clipPath id="clip4_521_83">
<rect width="128" height="93" fill="white" transform="translate(930.49 143.746)"/>
</clipPath>
<clipPath id="clip5_521_83">
<rect width="290.092" height="53.569" fill="white" transform="translate(0 310.729)"/>
</clipPath>
<clipPath id="clip6_521_83">
<rect width="290.092" height="64.5349" fill="white" transform="translate(418.092 305.246)"/>
</clipPath>
<clipPath id="clip7_521_83">
<rect width="226.97" height="26.4566" fill="white" transform="translate(836.184 324.285)"/>
</clipPath>
<clipPath id="clip8_521_83">
<rect width="203.63" height="76.3613" fill="white" transform="translate(0 441.864)"/>
</clipPath>
<clipPath id="clip9_521_83">
<rect width="220" height="76.3358" fill="white" transform="translate(836.08 441.877)"/>
</clipPath>
</defs>
</svg>
