<svg xmlns="http://www.w3.org/2000/svg" fill="none" viewBox="0 0 344 300"><rect width="344" height="300" fill="#A650FF" rx="8.8"/><g fill="#fff" clip-path="url(#a)"><path d="M22.7 40.3V57s-.3 2.6-2.4 2.6h-1.2v.9h8.3v-1H26s-2.2-.5-2.3-2.6V41.6l11.8 18.6h6.4V42.6s.1-3.4 2.3-3.6h1.4v-.8h-8v1H39s1.8 0 2 2.8v9l-8.2-12.6H19.6v.7h2s1 0 1 1.2Z"/><path d="M61.8 42.1s-2.5-4.2-10-3.3c-3.6.5.2 4.7 5.9 5.9 2.5.5 11 3.2 9 10.9-2.2 7.6-12.7 4.6-13.6 4.3-.8-.2-4-2.2-4-2.2l-3.6 2.8v-9.6h.4s1.4 5.1 4.4 6.9c3 1.7 6.1 3 10.2 2 4.2-1.2-.7-5.5-7.8-6.2-7-.6-10.6-10.7-4-14.3 6.7-3.5 12.5 1.1 12.9 1.5l.7.7-.5.6Z"/><path d="M64.6 59.5v.8h7.3v-.6h-1.7s-1.4-.3-1.3-1.4c0-1 1.6-4.9 1.6-4.9l3.1-7.7 4.9 14h-2.8v.6h15.2v-.7h-2l-8-21.3h-5.2l-7.7 19s-.4 1.6-2 2.2h-1.4m-10.9 7.9 3.2-1.5c1-.5 1.9-1.2 2.7-2l1.4-1.1 1.3-1.1a10 10 0 0 0 2.2-2.4 4.5 4.5 0 0 0 .6-3.2 8.8 8.8 0 0 0-1.5-3.6c-1.6-2.3-4-3.7-6.6-4.6a19 19 0 0 0-8.5-1c-2.7.4-5.2 1.3-7.4 2.9a15 15 0 0 0-4.8 5.5 7 7 0 0 0-.8 4.2c.1 1.2.8 2.3 1.8 3 1.2.7 2.7.6 4 .4a17.3 17.3 0 0 0 11.3-6.3v-.4h-.4a16.8 16.8 0 0 1-12.8 6.3 4 4 0 0 1-1.8-.5c-.5-.3-.9-.7-1.1-1.2a4.5 4.5 0 0 1-.4-3.6 11 11 0 0 1 1.7-3.5 15.7 15.7 0 0 1 8.9-6c2.7-.5 5.6-.5 8.3.2a15 15 0 0 1 7 3.5c.9 1 1.6 2 2 3.1a5 5 0 0 1 .5 3.4c-.2 1-.9 1.8-1.6 2.5-.7.8-1.6 1.4-2.5 2.1-.8.7-1.7 1.6-2.6 2.2L55 66.2l-1.7.7c-.1 0-.1.3 0 .4 0 .1.2.2.3.1Z"/><path d="M67.6 32.5a6 6 0 0 0-5.3 9L51.4 55.7l2 1.6 12.4-13h-.1a6 6 0 0 0 7.9-5.7 6 6 0 0 0-6-6.1Z"/><path fill-rule="evenodd" d="M76.3 53.2h-5.8v-.7h5.8v.7ZM90.7 65H19v-.7h71.7v.7Z" clip-rule="evenodd"/><path d="M19.2 73v-3.7h.6l1.3 2.4v-2.4h.5v3.6H21l-1.2-2.4V73h-.6Zm5.6 0h-.6l-.3-.9h-1.2l-.2.8h-.7l1.2-3.6h.6l1.2 3.6Zm-1-1.5-.5-1.4-.4 1.4h.8Zm1.6 1.5v-3.1h-.9v-.6H27v.6h-1v3h-.6Zm1.8 0v-3.7h.6v3.6h-.6Zm.9-1.9c0-.4 0-.8.2-1l.5-.7.8-.2c.4 0 .7.2 1 .5.3.3.4.8.4 1.4 0 .6-.1 1.1-.4 1.4-.3.4-.6.5-1 .5-.5 0-.8-.2-1-.5a2 2 0 0 1-.5-1.4Zm.6 0c0 .4.1.7.3 1 .1.2.3.3.6.3l.6-.3.2-1c0-.4 0-.7-.2-1a.7.7 0 0 0-.6-.3c-.3 0-.5.1-.6.4-.2.2-.3.5-.3.9Zm2.7 1.9v-3.7h.6l1.2 2.4v-2.4h.6v3.6h-.6L32 70.5V73h-.6Zm5.6 0h-.7l-.2-.9h-1.2l-.3.8H34l1.2-3.6h.6l1.2 3.6Zm-1.1-1.5-.4-1.4-.4 1.4h.8Zm1.3 1.5v-3.7h.6v3h1.5v.6h-2Zm3.3-1.3h.6c0 .4.2.7.6.7.2 0 .3 0 .4-.2a.5.5 0 0 0 .2-.3v-.2l-.2-.2-.6-.2-.5-.2a1 1 0 0 1-.3-.4 1.1 1.1 0 0 1 0-1l.4-.4h.6c.3 0 .6 0 .8.2.2.2.3.5.3.8h-.6c0-.1 0-.3-.2-.4h-.7l-.1.3a.3.3 0 0 0 0 .2l.6.3.7.2.3.4.1.6c0 .3 0 .6-.3.8-.2.2-.5.3-.9.3-.7 0-1.1-.4-1.2-1.3Zm2.8 1.3v-3.7H45c.2 0 .3.2.4.4l.2.7c0 .3 0 .5-.2.7l-.3.3a2 2 0 0 1-.8.2h-.4v1.3h-.6Zm.6-3.1v1h.8l.2-.2a.6.6 0 0 0 0-.6l-.2-.2h-.8ZM46 73v-3.7h2.2v.6h-1.6v.8H48v.6h-1.5v1h1.7v.6H46Zm5.4 0h-.7l-.3-.9h-1.2l-.2.8h-.6l1.1-3.6h.7l1.2 3.6Zm-1.2-1.5-.4-1.4-.4 1.4h.8Zm1.4 1.5v-3.7h.6v1.6l1.2-1.6h.8l-1.1 1.4 1.2 2.2h-.8l-.8-1.7-.5.6V73h-.6Zm2.9 0v-3.7h2.2v.6H55v.8h1.5v.6H55v1h1.6v.6h-2.2Zm2.7 0v-3.7H59l.4.4.1.6c0 .3 0 .5-.2.7a1 1 0 0 1-.6.3l.3.3.4.6.3.7H59l-.4-.8-.3-.5-.2-.2h-.4v1.5h-.6Zm.6-2.2h.9c.1 0 .2 0 .2-.2v-.5l-.2-.2h-.9v1Zm2.2.9h.5c0 .4.3.7.6.7.2 0 .4 0 .5-.2a.5.5 0 0 0 .1-.3v-.2l-.2-.2-.5-.2-.6-.2a1 1 0 0 1-.3-.4 1.1 1.1 0 0 1 0-1l.4-.4h.6c.4 0 .6 0 .8.2.2.2.3.5.3.8h-.6l-.1-.4h-.8a.3.3 0 0 0-.1.3.3.3 0 0 0 .1.2l.6.3.6.2.3.4.1.6c0 .3 0 .6-.3.8-.2.2-.5.3-.9.3-.7 0-1.1-.4-1.2-1.3Zm6.3 1.3h-.6l-.3-.9h-1.2l-.2.8h-.7l1.2-3.6h.6l1.2 3.6Zm-1-1.5-.5-1.4-.4 1.4h.8Zm1.1.2h.6c0 .4.3.7.6.7.2 0 .4 0 .5-.2a.5.5 0 0 0 .1-.3v-.2l-.2-.2s-.3 0-.5-.2l-.6-.2a1 1 0 0 1-.3-.4 1.1 1.1 0 0 1 0-1l.4-.4h.6c.4 0 .6 0 .8.2.2.2.3.5.3.8h-.6L68 70h-.8l-.1.3a.3.3 0 0 0 .1.2l.5.3.7.2.3.4.1.6c0 .3 0 .6-.3.8-.2.2-.5.3-.9.3-.7 0-1.1-.4-1.2-1.3Zm2.6 0h.7c0 .4.2.7.6.7.2 0 .3 0 .4-.2a.5.5 0 0 0 .2-.3v-.2l-.2-.2-.6-.2-.5-.2a1 1 0 0 1-.3-.4 1.1 1.1 0 0 1 0-1l.4-.4h.6c.3 0 .6 0 .8.2.2.2.3.5.3.8h-.6c0-.1 0-.3-.2-.4H70a.3.3 0 0 0-.1.3.3.3 0 0 0 0 .2l.6.3.7.2.3.4.1.6c0 .3-.1.6-.3.8-.2.2-.5.3-.9.3-.7 0-1.1-.4-1.2-1.3Zm2.8-.6c0-.4 0-.8.2-1l.5-.7.7-.2c.5 0 .8.2 1 .5.3.3.5.8.5 1.4a2 2 0 0 1-.5 1.4c-.2.4-.5.5-1 .5-.4 0-.7-.2-1-.5-.2-.3-.4-.8-.4-1.4Zm.6 0c0 .4 0 .7.2 1l.6.3c.3 0 .5-.1.6-.3.2-.3.3-.6.3-1s-.1-.7-.3-1a.7.7 0 0 0-.6-.3c-.2 0-.4.1-.6.4l-.2.9Zm4.6.5.5.2c0 .4-.2.7-.4 1l-.8.2c-.4 0-.7-.2-1-.5-.2-.3-.4-.8-.4-1.4 0-.6.2-1 .5-1.4.2-.3.5-.5 1-.5.3 0 .6.1.8.4.1.1.3.4.3.7l-.6.2c0-.2 0-.4-.2-.5a.6.6 0 0 0-.4-.2c-.2 0-.4.1-.5.3-.2.2-.2.5-.2 1 0 .4 0 .8.2 1a.6.6 0 0 0 .7.2l.2-.1.3-.6Zm1 1.4v-3.7h.5v3.6H78Zm3.7 0H81l-.2-.9h-1.2l-.3.8h-.6l1.2-3.6h.6l1.2 3.6Zm-1.1-1.5-.4-1.4-.4 1.4h.8Zm1.7 1.5v-3.1h-.9v-.6h2.4v.6h-1v3h-.5Zm1.7 0v-3.7h.6v3.6H84Zm1-1.9c0-.4 0-.8.2-1l.5-.7.7-.2c.5 0 .8.2 1 .5.3.3.5.8.5 1.4 0 .6-.2 1.1-.4 1.4-.3.4-.6.5-1 .5-.5 0-.8-.2-1-.5a2 2 0 0 1-.5-1.4Zm.6 0c0 .4 0 .7.3 1 .1.2.3.3.5.3.3 0 .5-.1.6-.3.2-.3.3-.6.3-1s-.1-.7-.3-1a.7.7 0 0 0-.6-.3c-.2 0-.4.1-.6.4l-.2.9Zm2.7 1.9v-3.7h.5l1.3 2.4v-2.4h.5v3.6H90l-1.2-2.4V73h-.5Z"/></g><g fill="#fff" clip-path="url(#b)"><path d="M151.4 42.7H141c-2-2.8-4.2-4.3-4.2-4.3l1-2.9-4 7.3h-11s4.5 1.7 8.7 4.3l-7.3 13.7 13.2-8.8c3.8 5.2 6 8.6 6 8.6s1.4-6.1-.1-12.5l8-5.4Zm-14.5-3.9c.9.6 2.3 4 2.3 4h-3.7l1.4-4Zm-13.5 4c1.5 0 9.8 1 9.8 1l-1.1 2c-1.2-1.2-8.7-3-8.7-3Zm8 10.5 2-5a6 6 0 0 1 2.6 2.1l-4.6 3Zm2.7-6.7 1-2.7 4.5.2c.4.5 1 3.4 1 3.4l-3 1.6c-.4-.6-3.5-2.5-3.5-2.5Zm5.5 4 1.5-1 .2 3.3c-.2-.9-1.7-2.3-1.7-2.3ZM142 44l3.4.3L143 46l-1-2Zm16.3 2.8H154c.5-2.4 1.3-4 2.6-5 1.2-.8 3-1.2 5.4-1.2 2.2 0 3.8.2 4.9.8 1 .5 1.8 1.1 2.2 2 .5.8.7 2.3.7 4.4v5.9c0 1.7 0 2.9.2 3.7.1.8.4 1.6.8 2.5H166a21 21 0 0 1-.6-2 8 8 0 0 1-5.7 2.4c-2 0-3.5-.5-4.6-1.6a5.3 5.3 0 0 1-1.6-4 5 5 0 0 1 2.8-4.8c1-.4 2.2-.8 4-1.1l4.7-1.2V47c0-1-.3-1.7-.7-2.1-.5-.4-1.4-.6-2.6-.6-1 0-1.6.2-2 .5-.6.4-1 1-1.3 1.9Zm6.6 4-3 .8a8 8 0 0 0-2.7.9c-.6.4-1 1-1 1.7s.3 1.3.8 1.8 1.2.8 2 .8a4 4 0 0 0 2.5-.9c.6-.4 1-1 1.2-1.6l.2-2.5v-1Zm7.1 3.7 5-.8c.2 1 .6 1.8 1.3 2.3.6.5 1.5.7 2.6.7 1.3 0 2.3-.2 3-.7.3-.3.5-.8.5-1.3 0-.4 0-.7-.3-1-.2-.2-.8-.4-1.6-.6-4-1-6.5-1.7-7.5-2.5a5 5 0 0 1-2.2-4.2c0-1.7.6-3 1.9-4.2 1.2-1 3.2-1.6 5.8-1.6 2.6 0 4.5.4 5.7 1.2a7 7 0 0 1 2.5 3.8l-4.6.8a3 3 0 0 0-1.1-1.7 4 4 0 0 0-2.4-.5c-1.3 0-2.2.1-2.7.5-.4.3-.6.6-.6 1s.2.7.5 1c.4.3 2 .7 4.6 1.3 2.6.6 4.4 1.4 5.4 2.3 1 .9 1.6 2.1 1.6 3.7 0 1.7-.7 3.2-2.2 4.5-1.4 1.2-3.5 1.8-6.3 1.8-2.5 0-4.5-.5-6-1.5a7.3 7.3 0 0 1-2.8-4.3Zm24.6-7.7-4.4-.9a7 7 0 0 1 2.5-4c1.3-.9 3-1.3 5.5-1.3 2.2 0 3.8.2 4.8.8a5 5 0 0 1 2.3 2c.4.8.7 2.3.7 4.4l-.1 5.9a10.9 10.9 0 0 0 1.1 6.2h-4.8a18 18 0 0 1-.7-2 8 8 0 0 1-5.7 2.4c-2 0-3.4-.5-4.5-1.6a5.3 5.3 0 0 1-1.7-4c0-1 .3-2 .8-2.8a5 5 0 0 1 2-2c1-.4 2.3-.8 4-1.1l4.7-1.2V47c0-1-.2-1.7-.6-2.1-.5-.4-1.4-.6-2.7-.6-.9 0-1.5.2-2 .5-.5.4-.9 1-1.2 1.9Zm6.5 4-3 .8c-1.3.3-2.2.6-2.6.9-.6.4-1 1-1 1.7s.3 1.3.8 1.8 1.2.8 2 .8 1.7-.3 2.5-.9c.6-.4 1-1 1.2-1.6l.1-2.5v-1Zm19.7 3.1 4.9.8a8.2 8.2 0 0 1-3 4.2c-1.4 1-3 1.4-5 1.4-3.3 0-5.7-1-7.2-3.2a11 11 0 0 1-1.9-6.5c0-3.1.8-5.6 2.4-7.4a7.8 7.8 0 0 1 6.1-2.6c2.8 0 5 .9 6.5 2.7 1.6 2 2.4 4.8 2.3 8.6h-12.2a5 5 0 0 0 1.1 3.4c.8.9 1.7 1.3 2.9 1.3a3 3 0 0 0 1.9-.7 4 4 0 0 0 1.2-2Zm.3-5a5 5 0 0 0-1.1-3.4 3.3 3.3 0 0 0-2.6-1.1c-1 0-2 .4-2.6 1.2-.7.8-1 1.9-1 3.2h7.3Zm-62.8 20 2.6-4.7h.7l.8 4.7h-.6l-.2-1.4h-1.9L161 69h-.7ZM162 67h1.5l-.2-1.1-.1-1.2-.5 1-.7 1.3Zm3 .7h.5l.1.4.3.3.4.1c.3 0 .5 0 .6-.2l.2-.3-.1-.3-.6-.3-.6-.3a1 1 0 0 1-.3-.3v-.4c0-.3 0-.5.2-.7.2-.2.5-.3 1-.3l.9.3c.2.2.3.5.3.8h-.6c0-.2 0-.4-.2-.5a.8.8 0 0 0-.5-.1h-.5l-.1.4v.3l.6.2.8.5c.2.1.3.4.3.6 0 .2 0 .3-.2.5a1 1 0 0 1-.5.4l-.7.1c-.4 0-.7 0-1-.2-.2-.2-.4-.6-.3-1Zm3.2 0h.5v.4l.4.3.4.1c.3 0 .5 0 .6-.2l.2-.3-.1-.3-.6-.3-.6-.3a1 1 0 0 1-.3-.3v-.4c0-.3 0-.5.2-.7.2-.2.5-.3.9-.3s.7.1 1 .3c.2.2.3.5.3.8h-.6c0-.2 0-.4-.2-.5a.8.8 0 0 0-.5-.1h-.5l-.2.4s0 .2.2.3l.5.2.8.5c.2.1.3.4.3.6l-.2.5a1 1 0 0 1-.5.4l-.7.1c-.4 0-.7 0-1-.2-.2-.2-.4-.6-.3-1Zm3.2-.1c0-.7.2-1.2.6-1.7.3-.3.7-.5 1.2-.5.4 0 .7.1 1 .4.2.2.3.6.3 1s0 .8-.2 1.1a1.7 1.7 0 0 1-1.6 1l-.7-.1-.4-.5c-.2-.2-.2-.4-.2-.7Zm.6 0c0 .2 0 .5.2.7l.6.2a1 1 0 0 0 .6-.3l.3-.4.2-.4v-.6c0-.3 0-.5-.2-.7a.7.7 0 0 0-.5-.2 1 1 0 0 0-.5 0l-.4.5-.3.5v.6Zm5.1 0h.6a2 2 0 0 1-.6 1l-.9.3c-.4 0-.7 0-.9-.3-.2-.3-.3-.6-.3-1s0-.7.2-1.1c.1-.4.4-.6.6-.8.3-.2.6-.3 1-.3.3 0 .6.1.8.3.2.2.3.5.3.8h-.6l-.1-.4a.6.6 0 0 0-.5-.2c-.2 0-.4 0-.6.2-.2.1-.3.4-.4.7l-.1.8.1.7.5.2c.2 0 .4 0 .5-.2l.4-.7Zm1.7-2.8.2-.6h.5l-.1.6h-.6Zm-.8 4 .7-3.3h.6l-.7 3.4h-.6Zm3.7-.4-.6.4-.6.1a1 1 0 0 1-.7-.2 1 1 0 0 1-.3-.7 1 1 0 0 1 .5-.9l.5-.2h.7c.4 0 .6 0 .8-.2v-.3l-.1-.4-.6-.1a1 1 0 0 0-.6.1 1 1 0 0 0-.3.5h-.6c.2-.4.3-.6.6-.8.3-.2.6-.3 1-.3s.7.1 1 .3l.2.6v.6l-.3.9v1.1h-.5l-.1-.5Zm.2-1.2h-.7l-.7.2-.3.2-.1.3.1.4.5.2c.2 0 .4 0 .6-.2l.4-.4.2-.7Zm2.4 1.2v.5h-.5l-.5-.1a.4.4 0 0 1-.1-.4V68l.4-2h-.4v-.4h.5l.2-.8.6-.4-.2 1.2h.5v.4h-.6l-.4 1.9v.5h.5Zm1.3-3.6.1-.6h.6l-.2.6h-.5Zm-.8 4 .7-3.3h.5l-.7 3.4h-.5Zm1.5-1.2c0-.7.2-1.2.6-1.7.3-.3.7-.5 1.2-.5.4 0 .7.1 1 .4.2.2.3.6.3 1s0 .8-.2 1.1a1.7 1.7 0 0 1-1.5 1l-.7-.1c-.3-.1-.4-.3-.5-.5l-.2-.7Zm.6 0c0 .2 0 .5.2.7l.6.2h.3l.4-.3.2-.4.2-.4v-.6l-.1-.7a.7.7 0 0 0-.6-.2 1 1 0 0 0-.5 0l-.4.5-.2.5-.1.6Zm2.9 1.3.6-3.4h.6l-.2.6.7-.5.6-.2c.2 0 .4 0 .6.2l.2.6v.6l-.5 2h-.6l.5-2V66l-.4-.1c-.3 0-.5 0-.8.3a2 2 0 0 0-.5 1l-.3 1.7h-.5Zm5.3 0 1-4.7h.6l-.8 4.1h2.3v.6h-3Zm5.9-1.2h.6c0 .4-.2.6-.5.9a1.5 1.5 0 0 1-1.7.2l-.5-.5-.1-.8c0-.4 0-.7.2-1 .2-.4.4-.7.7-.8.2-.2.5-.3.8-.3.4 0 .7.1 1 .4.2.2.3.6.3 1v.5h-2.5v.2l.2.7.6.3c.2 0 .3 0 .5-.2s.4-.3.5-.6Zm-1.6-.8h1.9v-.1c0-.3 0-.6-.2-.7a.7.7 0 0 0-.6-.2 1 1 0 0 0-.6.2c-.2.2-.4.4-.5.8Zm5 1.5-.5.4-.6.1a1 1 0 0 1-.8-.2 1 1 0 0 1-.2-.7 1 1 0 0 1 .4-.9l.5-.2h.8c.3 0 .6 0 .7-.2V66l-.6-.1a1 1 0 0 0-.6.1 1 1 0 0 0-.3.5h-.6c.1-.4.3-.6.5-.8.3-.2.6-.3 1-.3s.7.1 1 .3l.2.6v.6l-.2.9-.1.6v.5h-.5v-.5Zm.2-1.2h-.7l-.7.2-.3.2v.7l.5.2c.2 0 .4 0 .6-.2.2 0 .3-.2.4-.4l.2-.7Zm3.4 1.2c-.3.4-.7.5-1 .5a1 1 0 0 1-.8-.3c-.2-.3-.3-.6-.3-1 0-.5 0-.8.2-1.2l.6-.7c.3-.2.5-.3.8-.3.4 0 .7.2 1 .6l.3-1.8h.5l-1 4.7h-.4v-.5Zm-1.6-1 .1.6.2.3.4.2c.3 0 .5-.2.7-.4.3-.4.4-.8.4-1.4 0-.2 0-.4-.2-.6a.7.7 0 0 0-.5-.2h-.4l-.3.4a2 2 0 0 0-.3.5v.6Zm5.3.3h.6c-.1.4-.3.6-.6.9-.3.2-.6.3-1 .3l-.7-.1-.4-.5-.2-.8c0-.4.1-.7.3-1 .1-.4.3-.7.6-.8l.9-.3c.4 0 .7.1 1 .4.2.2.3.6.3 1v.5H210v.2c0 .3 0 .6.2.7.1.2.3.3.5.3s.4 0 .6-.2l.4-.6Zm-1.6-.8h1.8v-.1c0-.3 0-.6-.2-.7a.7.7 0 0 0-.5-.2 1 1 0 0 0-.7.2l-.4.8Zm2.7 2 .7-3.4h.5l-.1.7.5-.6.5-.2.4.1-.2.6a.5.5 0 0 0-.3-.1c-.2 0-.4 0-.6.3-.3.2-.4.6-.5 1.2l-.3 1.4h-.6Zm2.2-1.2h.6v.4l.3.3.5.1c.3 0 .4 0 .6-.2l.2-.3c0-.1 0-.2-.2-.3l-.5-.3-.6-.3a1 1 0 0 1-.3-.3l-.1-.4c0-.3 0-.5.3-.7.2-.2.5-.3.9-.3s.7.1 1 .3c.1.2.3.5.3.8h-.6c0-.2 0-.4-.2-.5a.8.8 0 0 0-.6-.1h-.4l-.2.4s0 .2.2.3l.4.2.9.5.2.6-.1.5a1 1 0 0 1-.5.4l-.7.1c-.4 0-.7 0-1-.2-.3-.2-.4-.6-.4-1Zm3.2 1.2 1-4.7h.5l-.4 1.8.6-.5h.6l.6.1c.2.2.2.4.2.6v.7l-.5 2h-.5l.4-2V66l-.4-.1-.6.1-.4.5-.3 1-.3 1.4h-.5Zm4.3-4.1.2-.6h.5l-.1.6h-.6Zm-.8 4 .7-3.3h.5l-.6 3.4h-.6Zm1.2 1.4 1-4.7h.4v.5c.1-.3.3-.4.5-.5h.4c.4 0 .6 0 .8.3.2.2.3.5.3 1l-.1 1-.5.6-.5.4-.5.1c-.4 0-.7-.2-.9-.6l-.4 1.9h-.5Zm1-2.7.1.5.3.3.4.2c.3 0 .6-.2.8-.6.2-.4.3-.7.3-1.1 0-.3 0-.5-.2-.7a.6.6 0 0 0-.5-.2h-.4l-.4.4-.2.6-.1.6Z"/></g><g fill="#fff" clip-path="url(#c)"><path d="M313.7 31h-42.5C265 31 260 36 260 42v34s1.8-5.5 11.3-5.3h42.5c6.2 0 11.2-5 11.2-11V42c0-6-5-11-11.2-11Zm-35.5 12.9h-10v5.6h8.7v2.1h-8.7v8.2h-2.5v-18h12.5v2Zm5.5 15.9h-2.4v-18h2.4v18Zm16.7-1.2a8 8 0 0 1-4.9 1.5c-2 0-3.6-.4-4.8-1.2a8 8 0 0 1-2.9-3.4 12 12 0 0 1 .1-9.8 7.4 7.4 0 0 1 3.2-3.2c1.3-.7 2.8-1 4.5-1 1.8 0 3.4.4 4.6 1.3 1.3 1 2.2 2.2 2.7 3.9l-2.4.6a6.1 6.1 0 0 0-2-3 5 5 0 0 0-3-.8 6 6 0 0 0-3.6 1c-1 .6-1.6 1.5-2 2.7a10.8 10.8 0 0 0 .1 7.5 5 5 0 0 0 2.2 2.5c1 .6 2 .9 3.1.9 1.4 0 2.6-.4 3.5-1.2 1-.8 1.6-2 2-3.4l2.4.6a8 8 0 0 1-2.8 4.5Zm18-7.7c-1.1 1-2.9 1.6-5.5 1.6H308v7.3h-2.4v-18h7l2.8.1c.9.2 1.6.4 2.3.9a5.4 5.4 0 0 1 2 4.2c0 1.5-.5 2.8-1.5 3.9Z"/><path d="M315.1 44H308v6.4h4.8c1.6 0 2.7-.3 3.4-.8a3 3 0 0 0 1-2.5 3 3 0 0 0-.6-1.9c-.4-.5-1-.9-1.6-1Z"/></g><g fill="#fff" clip-path="url(#d)"><path d="M36.9 140.8a16.5 16.5 0 0 1-3 .4 54.4 54.4 0 0 1-3.4.2c-1.7 0-3.2-.1-4.5-.5-1.3-.3-2.4-1-3.3-1.8a8 8 0 0 1-2-3.3 16 16 0 0 1-.8-5.3v-2.7c0-2 .3-3.8.7-5.2a7.7 7.7 0 0 1 2.1-3.3c1-.9 2-1.5 3.3-1.8a18.3 18.3 0 0 1 6.2-.4 52.9 52.9 0 0 1 4.7.6v4.1h-1.3l-1.5-.1-1.5-.1H31c-.9 0-1.6 0-2.3.2-.6.2-1.2.5-1.6 1-.4.4-.8 1-1 1.9a13 13 0 0 0-.3 3.1v2.7c0 1.3.1 2.4.3 3.2l1 2c.4.4 1 .7 1.6.9a8 8 0 0 0 2.3.3h1.5l1.5-.1 1.5-.1 1.3-.1v4.2Zm4.9.1v-23.4h16v4.3h-10v5h9.4v4.1h-9.5v5.7h10.1v4.3h-16Zm39.5 0v-11.6a46.8 46.8 0 0 1 0-2v-.9l.1-1-.8 1.6-.7 1.5-3 5.4h-3.5l-3-5.4-.7-1.5-.8-1.5v15.4h-5.6v-23.4H69l4.5 8.3a24.2 24.2 0 0 1 1.5 2.9l.8-1.5.7-1.4 4.6-8.3H87v23.4h-5.7Zm26.4 0L106 135h-6.6l-1.8 5.9h-6l6.5-23.4h9.2l6.6 23.4h-6.2Zm-4.2-16.3a38.9 38.9 0 0 1-.7-3.6h-.2a109.3 109.3 0 0 1-.7 3.6l-1.7 6.2h5l-1.7-6.2Zm-78 25.3a6 6 0 0 1-.9 0h-.5l-.4-.1a1 1 0 0 1-.3-.3l-.2-.5-.1-.7v-.6l.1-.8c0-.2.2-.4.3-.5l.5-.3h1.6v.4h-1c-.3 0-.6 0-.8.2l-.2 1v.6c0 .5 0 .8.2 1 .2.2.5.3.8.3h1v.3Zm3.9-1.6c0 .5-.1 1-.4 1.2-.2.3-.6.5-1 .5-.5 0-.9-.2-1.1-.5-.3-.3-.4-.7-.4-1.2v-.6c0-.5.1-1 .4-1.2.2-.3.6-.4 1-.4.5 0 .9.1 1.1.4.3.3.4.7.4 1.2v.6Zm-.5 0v-.6c0-.8-.3-1.2-1-1.2-.6 0-1 .4-1 1.2v.6c0 .8.4 1.3 1 1.3.7 0 1-.5 1-1.3Zm4.5 1.7h-.6l-.9-1.6h-.8v1.5h-.4v-3.8H32l.4.1.3.2.3.4v.5c0 .5-.2.9-.7 1l1 1.6Zm-.7-2.7c0-.3-.1-.5-.3-.6l-.8-.2H31v1.5h.5l.8-.1c.2-.1.3-.3.3-.6Zm4.3 0-.2.5-.2.4-.5.2h-1.2v1.5h-.5v-3.8H36l.4.1.2.2c.1 0 .2 0 .3.2v.3l.1.4Zm-.5 0a1.1 1.1 0 0 0-.2-.5v-.1l-.3-.1h-1v1.4h1.2l.2-.2.1-.2v-.3Zm4.4 1c0 .5-.2 1-.4 1.2-.3.3-.6.5-1.1.5-.5 0-.9-.2-1.1-.5-.3-.3-.4-.7-.4-1.2v-.6c0-.5.1-1 .4-1.2.2-.3.6-.4 1-.4.6 0 1 .1 1.2.4.2.3.4.7.4 1.2v.6Zm-.5 0v-.6c0-.8-.4-1.2-1-1.2-.7 0-1 .4-1 1.2v.6c0 .8.3 1.3 1 1.3s1-.5 1-1.3Zm4.4 1.7h-.5l-1-1.6h-.7v1.5H42v-3.8h1.4l.4.1a1 1 0 0 1 .6.6v.5c0 .5-.2.9-.6 1l1 1.6Zm-.7-2.7c0-.3 0-.5-.3-.6l-.8-.2h-.4v1.5h.4l.8-.1c.2-.1.3-.3.3-.6Zm4.6 2.7h-.5l-.4-1.3h-1.3l-.5 1.2h-.4l1.2-3.8h.7l1.2 3.8Zm-1-1.8-.4-1-.1-.7-.2.6-.4 1.1h1Zm4.6-1.7h-1.1v3.4h-.5v-3.4h-1.2v-.4h2.8v.4Zm3.4 3.5h-2.3v-4h2.3v.4h-1.8v1.2h1.7v.5h-1.7v1.3h1.8v.4Zm5 0h-2.3v-4h2.3v.4h-1.8v1.2h1.7v.5h-1.7v1.3h1.8v.4Zm4.1-3.9-1.3 3.8H63l-1.3-3.8h.5l1 2.8.1.7.2-.7 1-2.8h.4Zm3.4 3.9h-2.3v-4h2.3v.4h-1.8v1.2H68v.5h-1.6v1.3h1.8v.4Zm3.9 0h-.6l-1.4-2.8-.3-.7v3.5h-.4v-3.8h.7l1.3 2.7.3.6v-3.3h.4v3.8Zm3.9-3.5h-1v3.4h-.5v-3.4h-1.2v-.4h2.9v.4ZM26.6 157H26v-3.2l-.3.5-.6 1.4h-.6l-.6-1.4-.3-.5v3.1h-.4v-3.8h.6l.8 1.7.2.6.2-.6.8-1.7h.7v3.8Zm4.2 0h-.5l-.4-1.3h-1.4l-.4 1.2h-.5l1.3-3.8h.6l1.3 3.8Zm-1-1.7-.4-1.1-.2-.7-.2.7-.3 1h1Zm4.8 1.7H34l-.9-1.6h-.8v1.5H32v-3.8h1.4l.4.2.4.2.2.3v.5c0 .5-.2.9-.7 1l1 1.6Zm-.7-2.7c0-.3-.1-.5-.3-.6l-.8-.1h-.5v1.4h.5l.8-.1c.2-.1.3-.3.3-.6Zm4.5 2.7h-.7l-1.6-1.9v1.8h-.4v-3.8h.4v1.8l1.7-1.8h.6l-1.7 1.9 1.7 2Zm3.3 0h-2.3v-4h2.3v.5h-1.8v1.2h1.7v.4h-1.7v1.3h1.8v.4Zm3.8-3.4h-1.2v3.3h-.5v-3.3h-1.2v-.5h2.9v.5ZM47 157h-.4v-4h.4v3.8Zm4.2 0h-.7l-1.3-2.8a14 14 0 0 1-.4-.6v3.3h-.4v-3.8h.7l1.3 2.7.3.6v-3.3h.5v3.8Zm3.8-.1-1 .1c-1 0-1.6-.5-1.6-1.6v-.7c0-1 .5-1.6 1.5-1.6H55v.5a11.4 11.4 0 0 0-1.5 0 1 1 0 0 0-.3.1l-.2.4-.1.6v.7c0 .4 0 .7.3 1l.8.2h.6V155h.4v1.9Zm5.7.1h-.5l-.4-1.3h-1.4l-.4 1.2h-.5l1.3-3.8h.6l1.3 3.8Zm-1-1.7-.4-1.1-.2-.7-.2.7-.4 1h1.1Zm4.3.7c0 .3 0 .6-.3.7-.2.2-.5.3-1 .3l-1-.1v-.4h1.7l.1-.5v-.4a1 1 0 0 0-.5-.3l-.6-.3c-.3-.1-.5-.2-.6-.4a1 1 0 0 1-.2-.6c0-.6.4-1 1.2-1l1 .2v.4l-1-.1-.5.1c-.2 0-.2.2-.2.4v.4l.5.2.6.3.6.4c.2.2.2.4.2.7Zm3.5 0c0 .3 0 .6-.3.7-.2.2-.5.3-1 .3l-1-.1v-.4h1.7l.2-.5-.1-.4-.5-.3-.6-.3c-.3-.1-.5-.2-.6-.4a1 1 0 0 1-.2-.6c0-.6.4-1 1.3-1l1 .2v.4l-1-.1-.6.1-.2.4v.4l.5.2.7.3.6.4c0 .2.2.4.1.7Zm4.1-.7c0 .5-.2 1-.4 1.3-.3.2-.6.4-1 .4-.6 0-1-.1-1.2-.4-.2-.3-.4-.8-.4-1.3v-.5c0-.6.2-1 .4-1.3.3-.3.6-.4 1.1-.4.5 0 .8.1 1.1.4.3.3.4.7.4 1.3v.5Zm-.5 0v-.5c0-.9-.3-1.3-1-1.3s-1 .4-1 1.3v.5c0 .9.3 1.3 1 1.3s1-.4 1-1.3ZM75 157a5.2 5.2 0 0 1-1.3 0l-.4-.2c-.2 0-.3-.2-.4-.3l-.2-.5v-2l.4-.5.5-.3H75v.4h-.9c-.4 0-.6 0-.8.3-.2.1-.3.5-.3 1v.5c0 .5.1.8.3 1 .2.2.4.3.8.3h.9v.3Zm1.7 0h-.5v-4h.5v3.8Zm4.2 0h-.5l-.4-1.3h-1.4l-.4 1.2h-.5l1.3-3.8h.6L81 157Zm-1-1.7-.4-1.1-.2-.7-.2.7-.3 1h1Zm4.6-1.7h-1.2v3.3H83v-3.3h-1.2v-.5h2.8v.5ZM86 157h-.4v-4h.5v3.8Zm4.3-1.7c0 .5-.2 1-.4 1.3-.3.2-.6.4-1.1.4-.5 0-.8-.1-1.1-.4-.3-.3-.4-.8-.4-1.3v-.5c0-.6.1-1 .4-1.3.2-.3.6-.4 1-.4.6 0 1 .1 1.2.4.2.3.4.7.4 1.3v.5Zm-.5 0v-.5c0-.9-.3-1.3-1-1.3s-1 .4-1 1.3v.5c0 .9.3 1.3 1 1.3s1-.4 1-1.3Zm4.5 1.7h-.7l-1.4-2.8-.3-.6v3.3h-.4v-3.8h.7l1.3 2.7.3.6v-3.3h.5v3.8Z"/></g><g fill="#fff" clip-path="url(#e)"><path d="m156 134.3 6.1.2a5 5 0 0 0 1.6 2.7c.8.6 2 1 3.4 1a6 6 0 0 0 3.6-1c.6-.3.8-.9.8-1.6 0-.4-.1-.8-.4-1.1-.3-.3-1-.6-2-.8-5-1.1-8.2-2.1-9.5-3a6 6 0 0 1-2.8-5.2c0-2 .8-3.7 2.4-5 1.6-1.4 4-2 7.4-2 3.2 0 5.6.5 7.1 1.5 1.6 1 2.7 2.5 3.2 4.5l-5.8 1.1a3 3 0 0 0-1.4-2c-.7-.5-1.7-.8-3-.8-1.6 0-2.8.2-3.5.7-.4.3-.7.7-.7 1.2s.2.8.6 1.1c.6.4 2.5 1 5.8 1.8 3.3.7 5.6 1.6 6.9 2.7 1.3 1 2 2.6 2 4.5a7 7 0 0 1-2.7 5.5c-1.8 1.5-4.5 2.2-8 2.2-3.2 0-5.7-.6-7.5-1.9a7.5 7.5 0 0 1-3.7-6.3Zm26.2 7.7v-23h6.2v23h-6.2Zm22.3-23v4.8h-4.2v9.3l.1 3.3c.1.3.3.6.6.8.3.2.6.3 1 .3a8 8 0 0 0 2.5-.6l.6 4.7c-1.5.6-3.1 1-5 1-1 0-2-.2-3-.6-.8-.4-1.5-.9-2-1.5-.3-.5-.6-1.3-.8-2.3l-.2-4.3v-10h-2.8v-5h2.8V110h6.2v9h4.2Zm16.9 15.7h6.2c-.5 2.8-2 5-3.8 6a11.1 11.1 0 0 1-6.4 1.8c-4 0-7-1.3-9-3.9a13 13 0 0 1-2.3-8c0-3.8 1-6.8 3-9a10 10 0 0 1 7.7-3.2 11 11 0 0 1 8.3 3.4c2 2.3 3 5.8 2.8 10.4h-15.4c0 1.9.5 3.3 1.5 4.3.9 1 2 1.5 3.5 1.5 1 0 1.8-.3 2.4-.8.7-.5 1.2-1.4 1.5-2.5Zm.4-6.2c0-1.8-.5-3.1-1.4-4-.9-1-2-1.4-3.2-1.4-1.3 0-2.5.5-3.3 1.5-1 1-1.3 2.2-1.3 4h9.2ZM185 117c2 0 3.6-1.6 3.6-3.5a3.5 3.5 0 0 0-7 0c0 2 1.5 3.5 3.5 3.5Zm-19.2 34.4c0 .2 0 .5.2.6.2.3.5.5 1 .5l.6-.1c.4-.2.5-.4.5-.7 0-.3 0-.4-.2-.5l-.7-.3-.6-.1-.8-.3a1 1 0 0 1-.4-.9 1.3 1.3 0 0 1 .4-1c.3-.2.7-.3 1.2-.3.4 0 .8 0 1.1.3.3.2.5.6.5 1h-.6c0-.2 0-.3-.2-.5-.1-.2-.4-.3-.9-.3-.3 0-.6 0-.7.2l-.2.3v.2c0 .3 0 .4.2.5l.8.3.6.1c.3 0 .6.2.7.3.3.2.4.5.4.9 0 .5-.1.8-.5 1a2 2 0 0 1-1.2.4c-.6 0-1-.2-1.3-.5-.3-.2-.5-.6-.5-1.1h.6Zm6-1.4c.3.2.4.6.4 1.1 0 .6-.1 1-.4 1.3-.2.4-.6.5-1.2.5-.4 0-.8-.1-1-.4-.3-.3-.4-.7-.4-1.2s.1-1 .4-1.3c.3-.3.6-.5 1.1-.5a1.5 1.5 0 0 1 1 .4Zm-.4 2c.2-.2.2-.5.2-.8l-.1-.8c-.2-.3-.4-.4-.8-.4s-.6.1-.7.4c-.2.2-.3.5-.3.9 0 .3.1.6.3.8.1.3.4.4.7.4.3 0 .6-.2.7-.4Zm3.6-2.2c.2.1.3.4.4.9h-.6a1 1 0 0 0-.2-.5c-.1-.2-.3-.2-.6-.2s-.6.2-.7.5a2 2 0 0 0-.2.8l.2.8c.2.2.4.4.7.4a.7.7 0 0 0 .5-.2l.3-.6h.6l-.5 1-1 .2c-.3 0-.7-.1-1-.4-.2-.3-.4-.7-.4-1.2 0-.6.2-1 .5-1.3a1.4 1.4 0 0 1 1-.5c.4 0 .7 0 1 .3Zm.8-1.4h.5v.6h-.5v-.6Zm0 1.2h.5v3.2h-.5v-3.2Zm3.2.1a1.3 1.3 0 0 1 .8 1v.7h-2.3c0 .3 0 .6.2.8.1.2.4.3.7.3a.9.9 0 0 0 .7-.3l.2-.4h.5l-.1.4-.3.4-.6.3h-.5a1.4 1.4 0 0 1-1-.4c-.3-.3-.4-.7-.4-1.2 0-.6.1-1 .4-1.3.3-.3.6-.5 1.1-.5.2 0 .5 0 .7.2Zm.3 1.3c0-.2 0-.4-.2-.6-.1-.3-.4-.4-.7-.4a.8.8 0 0 0-.7.3 1 1 0 0 0-.2.7h1.8Zm1.2-2.3h.6v.9h.5v.4h-.5v2.2l.1.2h.4v.4h-.4l-.5-.1a.9.9 0 0 1-.2-.5V150h-.4v-.4h.4v-1Zm3.5.9h.7a80.7 80.7 0 0 0-1.7 4.3c-.1.2-.4.3-.7.3h-.3v-.6h.7v-.3l.2-.4-1.2-3.3h.6l.9 2.6.9-2.6Zm3-1c0-.2.3-.3.7-.3h.2v.5h-.2l-.3.1v.7h.5v.4h-.5v2.8h-.6V150h-.4v-.4h.4v-.5l.1-.5Zm3.7 1.4c.3.2.4.6.4 1.1 0 .6-.1 1-.4 1.3-.2.4-.6.5-1.2.5-.4 0-.8-.1-1-.4-.3-.3-.4-.7-.4-1.2s.1-1 .4-1.3c.3-.3.6-.5 1.1-.5a1.5 1.5 0 0 1 1 .4Zm-.4 2c.2-.2.2-.5.2-.8l-.1-.8c-.2-.3-.4-.4-.8-.4s-.6.1-.7.4c-.2.2-.3.5-.3.9 0 .3.1.6.3.8.1.3.4.4.7.4.3 0 .6-.2.7-.4Zm1.4-2.4h.5v.6c0-.2.1-.3.3-.5l.6-.2h.2v.6h-.2c-.3 0-.5 0-.7.3a1 1 0 0 0-.2.6v1.8h-.5v-3.2Zm3.8-1.2h.6v4.4h-.6v-4.4Zm1.4 1.2h.5v.4l.5-.4h.6c.4 0 .7 0 1 .4v2.8h-.5v-2l-.1-.5a.5.5 0 0 0-.5-.3 1 1 0 0 0-.4 0l-.4.3-.1.3v2.2h-.6v-3.2Zm5.5.2c.2.1.4.4.4.9h-.5a1 1 0 0 0-.2-.5c-.2-.2-.3-.2-.6-.2-.4 0-.6.2-.8.5a2 2 0 0 0-.1.8c0 .3 0 .6.2.8.1.2.4.4.7.4.3 0 .4-.1.5-.2l.3-.6h.5c0 .4-.2.7-.4 1l-1 .2c-.4 0-.8-.1-1-.4-.3-.3-.4-.7-.4-1.2 0-.6.1-1 .4-1.3a1.4 1.4 0 0 1 1.1-.5c.4 0 .7 0 .9.3Zm2.9-.1a1.3 1.3 0 0 1 .7 1v.7h-2.3c0 .3 0 .6.2.8.1.2.4.3.7.3.3 0 .5-.1.6-.3l.3-.4h.5l-.1.4-.3.4-.6.3h-.5a1.4 1.4 0 0 1-1-.4c-.3-.3-.4-.7-.4-1.2 0-.6.1-1 .4-1.3a1.5 1.5 0 0 1 1.8-.3Zm.2 1.3c0-.2 0-.4-.2-.6-.1-.3-.4-.4-.7-.4a.8.8 0 0 0-.7.3 1 1 0 0 0-.2.7h1.8Zm1.1-1.4h.5v.4l.5-.4h.6c.5 0 .8 0 1 .4v2.8h-.5v-2.5c-.2-.2-.3-.3-.6-.3a1 1 0 0 0-.3 0c-.2 0-.3.2-.4.3l-.2.3v2.2h-.6v-3.2Zm3.4-.9h.6v.9h.6v.4h-.6v2.2l.2.2h.4v.4h-.4l-.6-.1a.9.9 0 0 1-.1-.5V150h-.5v-.4h.5v-1Zm1.6-.3h.6v.6h-.6v-.6Zm0 1.2h.6v3.2h-.6v-3.2Zm1.5 0 1 2.6.8-2.6h.6l-1.2 3.2h-.6l-1.2-3.2h.6Zm4.9.1a1.3 1.3 0 0 1 .6 1v.7h-2.3c0 .3 0 .6.2.8.2.2.4.3.7.3a.9.9 0 0 0 .7-.3l.2-.4h.5l-.1.4-.3.4-.6.3h-.4a1.4 1.4 0 0 1-1-.4c-.4-.3-.5-.7-.5-1.2 0-.6.1-1 .4-1.3.3-.3.7-.5 1.1-.5.3 0 .5 0 .7.2Zm.1 1.3-.1-.6c-.2-.3-.4-.4-.8-.4a.8.8 0 0 0-.6.3 1 1 0 0 0-.3.7h1.8Zm-46.1 5.6v.5h-1.5v4h-.6v-4h-1.5v-.5h3.6Zm.2 1.2h.5v.5l.3-.4a.8.8 0 0 1 .6-.2h.2v.6h-.1c-.4 0-.6 0-.7.2a1 1 0 0 0-.3.7v1.8h-.5v-3.2Zm3.7 1.2.3-.1v-.2c0-.2 0-.3-.2-.4a1 1 0 0 0-.6-.1c-.2 0-.5 0-.6.2l-.1.4h-.5c0-.4.1-.7.4-.9l.8-.2c.4 0 .7 0 1 .2.2.2.3.4.3.7v2h.3v.4h-.2l-.4-.1-.1-.3-.5.4-.7.1a1 1 0 0 1-.7-.2.9.9 0 0 1-.3-.7c0-.3 0-.6.3-.7.2-.2.4-.3.7-.3l.9-.1Zm-1.2 1.5.5.2c.2 0 .3 0 .5-.2.3-.1.5-.4.5-.7v-.4h-.3a2 2 0 0 1-.3.1h-.3l-.5.2a.5.5 0 0 0-.2.5.5.5 0 0 0 .1.3Zm3.1-2.7.9 2.6.9-2.6h.6l-1.3 3.2h-.6l-1.2-3.2h.7Zm4.8.1a1.3 1.3 0 0 1 .7 1v.7H181c0 .3.1.6.3.8.1.2.3.3.6.3a.9.9 0 0 0 1-.7h.5l-.2.4-.2.4-.7.3h-.4a1.4 1.4 0 0 1-1-.4c-.3-.3-.5-.7-.5-1.2 0-.6.2-1 .5-1.3.2-.3.6-.5 1-.5.3 0 .5 0 .8.2Zm.1 1.2-.1-.5c-.2-.3-.4-.4-.8-.4a.8.8 0 0 0-.6.2 1 1 0 0 0-.3.7h1.8Zm1.3-2.5h.5v4.4h-.6v-4.4Zm3 0h3.2v.5h-2.7v1.4h2.5v.5h-2.5v1.5h2.7v.5H187v-4.4Zm3.5 1.2h.7l.8 1.1.8-1.1h.6l-1 1.6 1 1.6h-.6l-.8-1.2-.8 1.2h-.7l1.1-1.6-1-1.6Zm5.5.2c.3.1.4.4.4.9h-.5a1 1 0 0 0-.2-.5c-.1-.2-.3-.2-.6-.2s-.6.1-.7.5a2 2 0 0 0-.2.8c0 .3 0 .6.2.8.2.2.4.3.7.3.3 0 .4 0 .5-.2.2-.1.3-.3.3-.5h.5c0 .4-.2.7-.4 1l-1 .2a1.3 1.3 0 0 1-1-.5c-.2-.3-.4-.7-.4-1.1 0-.6.2-1 .5-1.3a1.4 1.4 0 0 1 1-.5c.4 0 .7 0 1 .2Zm2.9-.1a1.3 1.3 0 0 1 .7 1v.7h-2.3c0 .3 0 .6.2.8.2.2.4.3.7.3a.9.9 0 0 0 .9-.7h.5l-.1.4-.3.4-.6.3h-.5a1.4 1.4 0 0 1-1-.4c-.3-.3-.4-.7-.4-1.2 0-.6.1-1 .4-1.3.3-.3.7-.5 1.1-.5.3 0 .5 0 .7.2Zm.2 1.2c0-.2 0-.4-.2-.5-.1-.3-.4-.4-.7-.4a.8.8 0 0 0-.6.2 1 1 0 0 0-.3.7h1.8Zm1.2-2.5h.5v4.4h-.5v-4.4Zm1.2 0h.6v4.4h-.6v-4.4Zm3.3 1.3a1.3 1.3 0 0 1 .7 1v.7h-2.3c0 .3 0 .6.2.8.2.2.4.3.7.3a.9.9 0 0 0 .9-.7h.5l-.1.4-.3.4-.6.3h-.4a1.4 1.4 0 0 1-1-.4c-.4-.3-.5-.7-.5-1.2 0-.6.1-1 .4-1.3.3-.3.7-.5 1.1-.5.3 0 .5 0 .7.2Zm.2 1.2-.1-.5c-.2-.3-.4-.4-.8-.4a.8.8 0 0 0-.6.2 1 1 0 0 0-.3.7h1.8Zm1.1-1.3h.6v.4l.5-.4.5-.1c.5 0 .8.2 1 .5l.1.7v2.1h-.5v-2l-.1-.5c-.1-.2-.3-.3-.6-.3a.9.9 0 0 0-.9.6v2.2h-.6v-3.2Zm5.6.2c.2.1.4.4.4.9h-.5a1 1 0 0 0-.3-.5c0-.2-.3-.2-.5-.2-.4 0-.6.1-.8.5a2 2 0 0 0-.1.8c0 .3 0 .6.2.8.1.2.3.3.6.3a.7.7 0 0 0 .6-.2l.3-.5h.5c0 .4-.2.7-.5 1l-.9.2c-.4 0-.8-.1-1-.5-.3-.3-.4-.7-.4-1.1 0-.6.1-1 .4-1.3a1.4 1.4 0 0 1 1-.5c.5 0 .7 0 1 .2Zm2.9-.1c.2 0 .3.2.5.4l.2.6v.7H213c0 .3.1.6.3.8.1.2.3.3.6.3a.9.9 0 0 0 1-.7h.5c0 .1 0 .3-.2.4l-.2.4-.7.3h-.4a1.4 1.4 0 0 1-1-.4c-.3-.3-.5-.7-.5-1.2 0-.6.2-1 .5-1.3.3-.3.6-.5 1-.5.3 0 .5 0 .8.2Zm.2 1.2-.2-.5c-.1-.3-.4-.4-.8-.4a.8.8 0 0 0-.6.2 1 1 0 0 0-.3.7h1.9Z"/></g><g clip-path="url(#f)"><path fill="#fff" d="m280.1 130.1 1.9 1h30.5l1.7-1h-34Z"/><path fill="#fff" d="M282 131v.5h30.3v-.5H282Zm0 .5v.8h30.3v-.8H282Z"/><path fill="#fff" d="m282 132.3 1.2.8.1 5.8h.8V133l-1-.8H282Zm5 0 1.2.8v5.8h.9V133l-1-.8h-1.2Zm5.2 0 1.2.8.1 5.8h.8l.1-5.9-1-.8h-1.2Zm5.1 0 1.3.8v5.8h.9V133l-1-.8h-1.2Zm5.5 0 1.2.8.1 5.8h.8l.1-5.9-1-.8h-1.2Zm4.8 0 1.3.8v5.8h.9V133l-1-.8h-1.2Zm12.4 1.5h-8.4v.7h8.4v-.7Zm-3.1 1.6h-5.3v.5h5.3v-.5Z"/><path fill="#fff" d="M283.3 132.6h-8.4v.7h8.4v-.7Zm0 1.3H278v.5h5.3v-.5Z"/><path fill="#CCC" d="M280 147.2v-3s-2.8-.8-4.5 1.3l4.5 1.7Z"/><path fill="#E5E5E5" d="M270 144.6s4.6-2.6 5.5-2.6v3.5l4.5 1.7s-6.5 1.2-9.8 3.7c0 0 1.8-3.3 3.4-5 0 0-1.8-1.1-3.7-1.3Z"/><path fill="#fff" d="M275.5 142v-3s6.9-2.3 15.8-1.7c9 .6 17 1.3 21.1.4 4.2-.8 5.9-1.5 5.9-1.5v6.4s-5.7 2.2-12.5 2c-6.7-.2-18-1.4-24.1-.6-6.1.9-6.2 1.5-6.2 1.5V142Z"/><path fill="#CCC" d="M318.3 136.2s-3.8 1.2-4.3 1.2v-2.8s3.2 1.5 4.3 1.6Z"/><path fill="#E5E5E5" d="M324 130.7s-6.8 3.9-10 3.9c0 0 3.1 1.6 4.3 1.6v3.6s4.6-1.7 5.6-2.6c0 0-2.5-.6-3.7-1.3 0 0 3.4-3.9 3.7-5.2Z"/><path fill="#fff" d="M280 132.8h-1.4V119l1.3-1v14.8Zm2 0h-1.3v-14.6l1.4-1v15.6Zm2.1-.8h-1.3v-14.7l1.3-1V132Zm2.1-2.3H285v-13.3l1.3-1v14.3ZM307 132h-1.4l-.2-11.4 1.3-1 .2 12.3Zm2 .2h-1.4v-12.4l1.4-1v13.4Zm2 .1h-1.3v-13.4l1.4-1v14.3Zm2.2-1.7h-1.4V118l1.4-1v13.6Zm2.2 1H314V117l1.4-1v15.6Zm-24.6-5.8h-1.4v-14.6l1.4-1v15.6Zm2.2-1h-1.4V110l1.3-.9v15.6Zm2-1.1h-1.3v-14.6l1.4-1v15.6Zm2.2-1.1H296V108l1.3-.9v15.5Zm2.2-1H298V107l1.4-1v15.6Zm2.1-1.1h-1.4V106l1.4-.9v15.5Z"/><path fill="#A650FF" d="m296.3 110.8-1 4.5-1.6.3v2.2s-6.7 1.4-8.8 11.6H280v.7h34v-.7h-5.6s-2.2-8.4-9.7-11.7l-.3-2.1-1.4-.8-.8-4Z"/><path fill="#fff" d="M284.9 129.4h1c10.8-9.5 21.8-.8 21.8-.8-10.6-9-21.1-1.5-21.1-1.5 2-7 7.7-9 7.7-9v-2l1.4-.6.6-4.7-1 4.5-1.6.3v2.2s-7.7 1.9-8.8 11.6Zm2.7 22h-.7v-2.7c-.3.3-.6.4-1 .6v-.7c.3 0 .5-.2.7-.3l.4-.6h.6v3.7Zm.9-.9h.7l.1.3a.4.4 0 0 0 .3 0 .4.4 0 0 0 .4-.1l.2-.9a.8.8 0 0 1-.7.3 1 1 0 0 1-.7-.3c-.2-.2-.3-.5-.3-.9 0-.3 0-.6.3-.9.2-.2.5-.3.8-.3a1.1 1.1 0 0 1 1 .4c.2.3.3.8.3 1.4 0 .7-.1 1.2-.4 1.5a1.2 1.2 0 0 1-1 .4 1 1 0 0 1-.6-.2c-.2-.1-.3-.4-.4-.7Zm1.6-1.5-.1-.5a.5.5 0 0 0-.4-.2.4.4 0 0 0-.3.1l-.2.5c0 .3 0 .4.2.6h.1a.4.4 0 0 0 .4 0h.2l.1-.5Zm1.7.4a.9.9 0 0 1-.4-.3v-.5a.9.9 0 0 1 .2-.6c.2-.2.5-.3.8-.3.4 0 .6 0 .8.3a.9.9 0 0 1 .2 1l-.4.4c.2 0 .4.2.5.3l.1.6c0 .3 0 .6-.3.8-.2.2-.5.3-.8.3-.4 0-.7 0-.9-.2a1 1 0 0 1-.4-.9c0-.2 0-.4.2-.5 0-.2.3-.3.4-.4Zm.1.9c0 .1 0 .3.2.4a.5.5 0 0 0 .3.2h.2l.2-.2.1-.4-.1-.5a.5.5 0 0 0-.4-.1.4.4 0 0 0-.3.2l-.2.4Zm0-1.6a.4.4 0 0 0 .4.4h.1a.4.4 0 0 0 .3 0 .5.5 0 0 0 0-.7.5.5 0 0 0-.6 0 .4.4 0 0 0-.1.3Zm3.9 2.7h-.7v-2.7c-.3.3-.6.4-1 .6v-.7c.3 0 .5-.2.7-.3l.4-.6h.6v3.7Zm1-1v-.7h1.4v.7h-1.4Zm3.9.3v.7h-2.5c0-.3.1-.5.3-.7.1-.3.4-.5.8-1l.5-.5.2-.4a.5.5 0 0 0-.1-.4.5.5 0 0 0-.4-.1l-.3.1-.2.4h-.7c0-.4.2-.7.4-.9l.8-.2c.4 0 .7 0 .9.3a1 1 0 0 1 .3.7l-.1.5-.3.4-.4.5a8.1 8.1 0 0 0-.6.6h1.4Zm1.5-3c.4 0 .7.1.9.4.2.2.3.8.3 1.5s0 1.2-.3 1.5c-.3.3-.5.3-.9.3a1 1 0 0 1-.8-.4c-.2-.3-.3-.7-.3-1.4 0-.8 0-1.2.3-1.5.3-.3.5-.4.8-.4Zm0 .6h-.2l-.1.3-.1 1v.8l.2.4h.5l.1-.3.1-1v-.8l-.2-.4h-.3Zm4 2.4v.7h-2.5l.2-.7.8-1 .6-.5.2-.4c0-.2 0-.3-.2-.4a.5.5 0 0 0-.7 0l-.1.4h-.7c0-.4.2-.7.4-.9l.8-.2c.3 0 .6 0 .9.3a1 1 0 0 1 .3.7l-.1.5-.3.4-.5.5a6.4 6.4 0 0 0-.5.6h1.4Zm2.1.7h-.7v-2.7c-.2.3-.5.4-.9.6v-.7l.6-.3.5-.6h.5v3.7Z"/><path fill="#000" d="m281.4 141.1.4.1-.2.4-.5.2a.7.7 0 0 1-.6-.2.9.9 0 0 1-.2-.6l.1-.7a.7.7 0 0 1 .6-.3c.2 0 .4 0 .5.2l.2.3h-.3l-.1-.1h-.3a.4.4 0 0 0-.3 0v1a.4.4 0 0 0 .6 0l.1-.3Zm1.4.2h.3l-.2.3-.3.1c-.2 0-.4 0-.5-.2l-.2-.4c0-.2 0-.4.2-.5a.5.5 0 0 1 .4-.2.5.5 0 0 1 .4.2l.2.5h-.8v.2l.2.1h.2v-.1Zm0-.4-.1-.2a.2.2 0 0 0-.2 0h-.1l-.1.3h.5Zm.5.7V140h.3v1.7h-.3Zm1.4-.4h.3l-.2.3-.3.1c-.3 0-.4 0-.5-.2l-.2-.4c0-.2 0-.4.2-.5a.5.5 0 0 1 .4-.2.5.5 0 0 1 .4.2l.2.5h-.8v.3h.4l.2-.1Zm0-.4-.1-.2h-.3l-.1.3h.5Zm.5.7v-1.7h.3v.6a.5.5 0 0 1 .4-.2.5.5 0 0 1 .3.2l.2.5-.1.5h-.2a.5.5 0 0 1-.4.1l-.2-.2v.2h-.3Zm.3-.6v.3a.3.3 0 0 0 .3 0 .2.2 0 0 0 .2 0v-.6a.2.2 0 0 0-.2-.1h-.1l-.1.1v.3Zm1.5.6h-.4v-1.3h.3v.2l.1-.2h.4l-.1.3h-.2l-.1.2v.8Zm.7-.9h-.3c0-.2.1-.3.2-.3l.4-.1h.3l.2.2v.9l.1.1h-1.1a.4.4 0 0 1 0-.3v-.2h.1l.3-.2h.3v-.2h-.4Zm.5.2-.2.1h-.2v.4h.4v-.1l.1-.2Zm1.2-.6v.2h-.3v.7h.3v.3h-.3a.3.3 0 0 1-.2 0v-.4l-.1-.5h-.1v-.3h.1v-.3l.3-.2v.5h.3Zm.1-.2v-.3h.4v.3h-.4Zm0 1.4v-1.2h.4v1.2h-.3Zm1.8 0h-.3v-.9h-.1l-.1-.1h-.2v.2l-.1.3v.5h-.3v-1.2h.3v.2a.5.5 0 0 1 .4-.3h.2l.1.2v.1l.1.2v.8Zm.2.1h.4v.1h.4v-.4a.5.5 0 0 1-.5.2l-.2-.2-.1-.4c0-.2 0-.4.2-.5a.5.5 0 0 1 .5-.1c.1 0 .2 0 .2.2v-.2h.3v1.4l-.1.2-.2.1h-.7l-.1-.2v-.2Zm.3-.7.1.3h.4v-.6l-.2-.1h-.2v.4Zm2.4.7v-.4h-.7v-.3l.8-1h.2v1h.2v.3h-.2v.4h-.3Zm0-.7v-.6l-.4.6h.4Zm1.2-1c.2 0 .3 0 .4.2 0 0 .2.3.1.7l-.1.7a.5.5 0 0 1-.4.1.5.5 0 0 1-.4-.2l-.2-.7.2-.7a.5.5 0 0 1 .4-.1Zm0 .2h-.1v.2l-.1.4v.6h.2l.2-.1v-1h-.2Zm1.8 1.6v-.8l-.6-1h.4l.4.7.4-.6h.4l-.6 1v.7h-.4Zm1.7-.3h.3c0 .2-.1.2-.2.3h-.4c-.2 0-.3 0-.4-.2l-.1-.4c0-.2 0-.4.2-.5l.2-.1h.4l.2.2c.1.1.2.3.1.6l-.8-.1v.2a.2.2 0 0 0 .3.1l.2-.1Zm0-.4v-.2a.2.2 0 0 0-.2 0h-.1l-.2.2h.5Zm.8 0-.3-.1.2-.3h.7l.1.2v1.1h-.2v-.2l-.3.1h-.5v-.4a.3.3 0 0 1 .2-.3l.2-.1h.3v-.2h-.2c0-.1 0 0-.1 0Zm.4.2h-.2l-.1.1h-.1v.4h.3l.1-.1v-.2Zm.9.7h-.3v-1.3h.3v.2l.2-.1h.3v.3h-.4v.9Zm.5-.3h.3l.3.1h.2v-.1l-.1-.1c-.3 0-.5-.1-.5-.2a.3.3 0 0 1-.2-.3.4.4 0 0 1 .2-.2l.4-.1h.4l.1.3h-.3c-.1 0-.2-.1-.2 0 0-.1-.2 0-.2 0l.3.2.3.1.1.1v.2a.4.4 0 0 1-.1.3h-.8l-.2-.3Zm2.4.5v-1.5h-.5v-.3h1.4v.3h-.6v1.4h-.3Zm.7-.7.1-.3.2-.3a.7.7 0 0 1 .6 0l.2.2a.6.6 0 0 1 .2.4.6.6 0 0 1-.4.6h-.5a.5.5 0 0 1-.2-.2v-.4Zm.4 0v.3h.1l.2.1h.2v-.7h-.4l-.1.3Zm1 .7h.4v.1l.2.1h.2l.1-.1v-.3l-.4.2a.5.5 0 0 1-.4-.3v-.9a.5.5 0 0 1 .7 0h.4v1.5l-.3.1h-.7v-.2l-.1-.1Zm.4-.7v.3h.4l.1-.3v-.3a.3.3 0 0 0-.4 0l-.1.3Zm1.8.3h.4l-.2.3h-.4l-.5-.1v-.5c-.1-.2 0-.3 0-.4l.2-.2h.3a.5.5 0 0 1 .4.2l.2.5h-.9l.1.3a.2.2 0 0 0 .2 0h.1l.1-.1Zm0-.4a.3.3 0 0 0 0-.2.2.2 0 0 0-.2 0h-.1l-.2.2h.5Zm1.1-.5v.2h-.2v.7h.4v.3h-.5v-.2l-.1-.2v-.5h-.2v-.3h.2v-.3l.3-.2v.5h.2Zm.5-.5v.6l.3-.2h.3l.1.2.1.1v1h-.3v-1h-.4v1h-.4v-1.7h.3Zm1.8 1.2h.4c0 .2-.1.3-.2.3l-.4.2c-.2 0-.3 0-.4-.2l-.2-.4.1-.5a.5.5 0 0 1 .4-.2l.5.1.2.6h-.9l.1.2.1.1h.3v-.2Zm0-.3v-.2h-.2a.2.2 0 0 0-.2 0v.2h.4Zm.9.7h-.3l-.1-1.3h.3v.2l.1-.2h.4v.3h-.4l-.1.1v.9Z"/><path fill="#fff" d="M282.8 155.9a5.4 5.4 0 0 0-1.3-1.9 2 2 0 0 0-1-.6 2 2 0 0 0-1-.3 3 3 0 0 0-1.6.4c-.3.2-.5.6-.5 1.2 0 .3 0 .6.2.8l.7.7 1 .5a96.8 96.8 0 0 1 3.3 1.7c.2.3.5.6.6 1 .2.3.3.7.3 1.2s0 1-.3 1.3l-.7 1-1.2.5a5 5 0 0 1-2.1 0h-.9a73.5 73.5 0 0 0-1.5-.2h-.3a29.4 29.4 0 0 0-.8-3.5h.2l.7 1c.3.5.6.9 1 1.2l1 .8c.4.2.9.4 1.4.4l.8-.1.8-.4.5-.5.2-1a2 2 0 0 0-.5-1.2l-1.1-.8-1.5-.7-1.5-.8c-.4-.2-.8-.5-1-.9a2 2 0 0 1-.5-1.4 2.6 2.6 0 0 1 1.8-2.5l1-.2 1.1.1 1 .2.8.2h1a63.3 63.3 0 0 0 .1 2.8h-.2Zm11.7.4a16 16 0 0 0-.6-1.2 5 5 0 0 0-.8-1c-.3-.3-.6-.6-1-.7-.4-.2-.8-.3-1.3-.3a3 3 0 0 0-1.6.4c-.5.3-1 .7-1.2 1.2a5.8 5.8 0 0 0-1 3.4 5 5 0 0 0 1 3.5c.3.4.7.7 1.2 1 .4.3 1 .4 1.6.4.5 0 1 0 1.4-.2.5 0 1-.3 1.4-.6v-2c0-.7-.5-1.1-1.6-1.1v-.2a31.9 31.9 0 0 1 2.2 0 41.3 41.3 0 0 0 2.3 0v.2h-.6l-.5.2a1 1 0 0 0-.3.4v2.9a44.3 44.3 0 0 1-4.3 1c-.7 0-1.4-.2-2-.4a7 7 0 0 1-1.9-1c-.5-.5-1-1-1.2-1.8a5.5 5.5 0 0 1 3-7.3c.7-.3 1.4-.5 2.1-.5a9.8 9.8 0 0 1 2.9.4l.7.2a9.8 9.8 0 0 0 0 1.5 164.5 164.5 0 0 0 .3 1.6h-.2Zm11.8-3.4a43 43 0 0 0 4.2 0v.2c-.4 0-.8.2-1 .3-.3.2-.5.6-.5 1l.1 1.4.3 2 .4 2a47.7 47.7 0 0 0 .8 2.8c.1.2.3.3.5.3l.8.2v.2a53.1 53.1 0 0 0-4.8 0v-.2l.6-.1.5-.2.4-.4.1-.7a10.1 10.1 0 0 0 0-1.2l-1.2-6.4a62.6 62.6 0 0 1-1.9 4.5 111.8 111.8 0 0 0-1.7 4.6 49 49 0 0 0-3.8-9.2 77 77 0 0 0-.7 8l.3.6.6.4.9.1v.2a60.6 60.6 0 0 0-4.5 0v-.2a3.4 3.4 0 0 0 1.2-.4c.2 0 .3-.2.4-.4.2-.1.3-.3.3-.5l.2-1.2.1-1.2.8-5.6-.8-.5a5 5 0 0 0-1-.2v-.2a62.1 62.1 0 0 0 4.7 0v.2l-.6.2-.2.6v.5l.3.6 2.2 5.4a94.1 94.1 0 0 0 2.9-6.8l-.5-.3-.4-.2v-.2Zm10.8 10.4a47.8 47.8 0 0 0-4.7 0v-.2c.4 0 .7 0 1-.2.2 0 .3-.2.4-.4.2-.1.2-.4.2-.7v-7.4c0-.3 0-.6-.2-.8a1 1 0 0 0-.5-.4l-.9-.1v-.2a36 36 0 0 0 5.1-.1c.4 0 .8 0 1.2.2.5.1.8.3 1.2.6l.9 1c.2.4.3.8.3 1.3s-.1 1-.3 1.3l-1 .8a2 2 0 0 1-1 .5l-1.3.1h-1l-1-.2v3.4l.2.7c.2.2.3.4.5.4l1 .2v.2Zm-1.6-5.5.8.3h.8l1-.1.7-.4.5-.7c.2-.3.2-.6.2-1s0-.8-.2-1a2.4 2.4 0 0 0-1.3-1.5l-1-.2a6 6 0 0 0-.8 0l-.7.3v4.3Z"/></g><g clip-path="url(#g)"><path fill="#000" d="m76.1 210.5 9 8.8c.4.4.6.8.6 1.3v28h4.6V222a1 1 0 0 0-.2-.7L83 215l-4.4-3.9 6.5-6 .5.6 8.6 8.4a3 3 0 0 1 1 2.3v32.1h4.6v-30.7c0-1-.3-1.6-1-2.2l-7.3-6.6-5.5-5-.6-.4-7 7.4-1.5-1.4c-.3-.3-.5-.4-.8 0l-6.6 7.2-4 4.2.2.2 10.4-10.6Z"/><path fill="#fff" d="M76.1 210.5 65.7 221l-.2-.2 4-4.3 6.6-7.1c.3-.4.5-.3.8 0l1.5 1.4 7-7.4.6.4 5.5 5 7.3 6.6c.7.6 1 1.3 1 2.2v30.6H95v-32a3 3 0 0 0-1-2.3l-8.5-8.4a6 6 0 0 1-.5-.6l-6.5 6 4.4 4 7 6.3c.2.2.3.4.3.7a8219.4 8219.4 0 0 1 0 26.5h-4.6v-27.9c0-.5-.2-.9-.6-1.3l-9-8.8Zm-53.9 20.8h4.2l6.2 17.2h-4l-1.2-3.5H21l-1.2 3.5H16l6.2-17.2ZM22 242h4.5l-2.2-6.7L22 242Zm13.8 6.5v-17.2h3.6v6.6h6.8v-6.6h3.6v17.2h-3.6V241h-6.8v7.6h-3.6Zm17.8-17.2h3.6v14.1H66v3.1H53.6v-17.2Z"/><path fill="#fff" d="M73.6 231.3h4.2l6.2 17.2h-4l-1.2-3.5h-6.4l-1.2 3.5h-3.8l6.2-17.2Zm-.2 10.7h4.5l-2.2-6.7-2.3 6.7ZM16 254.4l1-2.6h.3l1 2.6h-.2l-.3-.8h-1.2l-.3.8H16Zm.7-1h1l-.5-1.4-.5 1.4Zm2.2 1v-2.6h.4l.8 2.3.9-2.3h.3v2.6h-.2v-2.3l-.9 2.3H20l-.9-2.3v2.3H19Zm3.1 0v-2.6h1.8v.2h-1.5v1h1.4v.2h-1.4v1H24v.2h-2Zm2.7-1.2v1.2h-.2v-2.6h1c.3 0 .5 0 .7.2l.2.5-.1.4-.3.2.2.1v.2l.1.2v.5a2 2 0 0 0 0 .2h.1v.1h-.2l-.1-.2v-.7l-.1-.1-.2-.1h-1.1Zm.8-.2h.3l.2-.1a.4.4 0 0 0 .2-.4v-.2l-.2-.2h-1.3v1h.8Zm1.7 1.4v-2.6h.2v2.6h-.2Zm3-1.8c0-.2-.2-.4-.3-.5a1 1 0 0 0-.6-.1.8.8 0 0 0-.7.3l-.1.4v.8l.1.4.3.3h.7l.3-.1.2-.3v-.3h.3a1.3 1.3 0 0 1-.3.7 1 1 0 0 1-.3.2h-1a1 1 0 0 1-.4-.3l-.2-.5a2.1 2.1 0 0 1 0-1.1l.3-.4.4-.3a1.5 1.5 0 0 1 .9 0s.2 0 .3.2l.2.2.1.4h-.2Zm.7 1.8 1-2.6h.3l1 2.6h-.3l-.3-.8h-1.2l-.3.8H31Zm.6-1h1L32 252l-.5 1.4Zm2.5-1.2v2.2h-.3v-2.6h.3l1.5 2.3v-2.3h.2v2.6h-.2l-1.6-2.3Zm3.7 2.2v-2.6h.2v1.1h1.6v-1h.2v2.5h-.2v-1.3h-1.6v1.3h-.2Zm2.7-1.3v-.5l.3-.4c.1-.2.2-.3.4-.3l.5-.1h.5l.4.3.3.5a1.8 1.8 0 0 1 0 1c0 .2-.2.3-.3.5l-.3.3a1.4 1.4 0 0 1-1.1 0 1.1 1.1 0 0 1-.6-.8l-.1-.5Zm1.2 1.2.5-.1.3-.3.1-.4.1-.4v-.5a1 1 0 0 0-.3-.3l-.3-.3h-.4a.9.9 0 0 0-.7.3 1.3 1.3 0 0 0-.3.8l.1.4.2.4a.9.9 0 0 0 .7.4Zm1.7-2.5h1.9v.2h-.8v2.4H44V252h-.8v-.2Zm2.4 2.6v-2.6h1.8v.2H46v1h1.3v.2H46v1h1.5v.2h-1.8Zm2.4 0v-2.6h.3v2.4h1.4v.2H48Zm4.9-.7v-.2l.1-.3h.2v.4l-.2.3.5.5h-.3l-.3-.3-.4.3a1.1 1.1 0 0 1-.7 0l-.3-.1-.2-.3v-.6l.2-.2.2-.2.2-.1-.2-.3a.6.6 0 0 1 0-.5v-.1l.3-.1h.2a.5.5 0 0 1 .4 0 .5.5 0 0 1 .1.4v.2l-.1.2-.2.1-.2.2.7.7Zm-.9-.6H52l-.1.2-.1.2v.6l.3.1h.5l.3-.3-.8-.8Zm.5-.6v-.3l-.1-.1H52a.3.3 0 0 0 0 .3v.2l.1.1.1.1.2-.1.2-.2Zm2.7 1.9v-2.6h.3v2.4H57v.2h-1.7Zm2.1-1.3v-.5l.3-.4c.1-.2.3-.3.4-.3l.5-.1h.6l.3.3.3.5a1.8 1.8 0 0 1 0 1c0 .2-.2.3-.3.5a1 1 0 0 1-.3.3 1.4 1.4 0 0 1-1.1 0 1.1 1.1 0 0 1-.6-.8v-.5Zm1.2 1.2.5-.1.3-.3.1-.4.1-.4v-.5l-.3-.3-.3-.3h-.4a.9.9 0 0 0-.7.3l-.2.4v.8l.2.4a.9.9 0 0 0 .7.4Zm1.9.1v-2.6h1.3l.2.1.2.1.2.2.2.3a1.7 1.7 0 0 1 0 .6v.5l-.1.3-.2.2-.2.1-.2.1h-.2l-.3.1h-.9Zm.3-.2h.9l.3-.1.2-.2.1-.2a1.3 1.3 0 0 0 .1-.6v-.6l-.2-.2a.7.7 0 0 0-.5-.2h-.9v2Zm3.6-.9v-.2h1.2v1.3h-.3v-.4l-.1.2-.2.1-.3.1a1.4 1.4 0 0 1-.8 0 1 1 0 0 1-.4-.3l-.2-.4v-1.1l.2-.5.4-.2.5-.1h.4a1 1 0 0 1 .6.4l.1.4h-.2l-.1-.3a.9.9 0 0 0-.5-.3h-.2a1 1 0 0 0-.5 0l-.3.3-.2.4v.5a1.3 1.3 0 0 0 .2.7l.3.3h.9l.2-.2.1-.2v-.2l.1-.3h-.9Zm2 1.1v-2.6h.3v2.6h-.3Zm1.4-2.2v2.2h-.3v-2.6h.3l1.5 2.3v-2.3h.3v2.6h-.3l-1.5-2.3Zm3.6 1.1v-.2h1.2v1.3h-.2v-.4l-.2.2-.2.1-.3.1H71a1 1 0 0 1-.3-.3c-.2-.1-.2-.2-.3-.4v-1.1l.2-.5.4-.2.5-.1h.4a1 1 0 0 1 .6.4l.1.4h-.2a.8.8 0 0 0-.6-.6h-.2a1 1 0 0 0-.5 0l-.3.3-.2.4v.5a1.3 1.3 0 0 0 .2.7l.3.3h.9l.2-.2a.8.8 0 0 0 .2-.4v-.3h-.9Zm2.9 1.1 1-2.6h.3l1 2.6h-.2l-.3-.8h-1.2l-.4.8h-.2Zm.6-1h1l-.4-1.4-.6 1.4Zm2.3.2.1.3.2.2.2.1h.6l.2-.1.1-.2v-.4l-.2-.2h-.2l-.3-.1-.3-.1-.3-.1-.2-.2v-.6a.7.7 0 0 1 .5-.4h.7l.3.2.2.2v.3h-.2v-.2l-.2-.2-.2-.1h-.6a.5.5 0 0 0-.3.3v.2l.1.2.2.2h.3l.3.1h.2l.3.2.1.2a.7.7 0 0 1-.1.9l-.8.2h-.3l-.3-.2-.2-.3-.1-.4h.2Zm2.4 0 .1.3.2.2.2.1h.6l.2-.1.1-.2v-.4l-.2-.2h-.2l-.3-.1-.3-.1-.3-.1-.2-.2v-.6a.7.7 0 0 1 .5-.4h.7l.3.2.2.2v.3H81v-.2l-.2-.2-.2-.1h-.2a.7.7 0 0 0-.6.2v.1c-.1.1-.1.2 0 .2v.2l.2.2h.3l.3.1h.2l.3.2a.6.6 0 0 1 .2.5.7.7 0 0 1-.2.6l-.7.2H80l-.3-.2-.2-.3-.1-.4h.2Zm2.2-.5a1.5 1.5 0 0 1 .4-1l.3-.2.6-.1h.5l.4.3.2.5v1l-.2.5a1 1 0 0 1-.4.3 1.4 1.4 0 0 1-1 0 1 1 0 0 1-.4-.3 1.4 1.4 0 0 1-.4-1Zm1.3 1.2.4-.1.3-.3.2-.4v-.9a1 1 0 0 0-.2-.3l-.3-.3a1 1 0 0 0-.4 0 1 1 0 0 0-.5 0 1 1 0 0 0-.3.3l-.2.4a1.8 1.8 0 0 0 0 .8l.2.4.3.3h.5Zm3.6-1.7c0-.2-.2-.4-.3-.5a1 1 0 0 0-.6-.1l-.4.1-.3.2-.1.4v.9l.1.3.3.3h.8l.2-.1.2-.2v-.3h.3v.3a1 1 0 0 1-.6.5l-.5.1-.5-.1a1 1 0 0 1-.4-.3l-.2-.4a2.1 2.1 0 0 1 0-1.2l.3-.4.4-.2a1.4 1.4 0 0 1 .9 0l.3.1.2.3.1.3h-.2Zm1.1 1.8v-2.6h.3v2.6h-.3Zm.9 0 1-2.6h.3l1 2.6h-.2l-.3-.8h-1.2l-.3.8h-.3Zm.7-1h1l-.5-1.4-.5 1.4Zm1.9-1.6h2v.2h-1v2.4h-.1V252h-.9v-.2Zm2.5 2.6v-2.6h.3v2.6h-.3Zm1-1.3.1-.5c0-.2.2-.3.3-.4 0-.2.2-.3.3-.3l.6-.1h.5l.4.3.2.5a1.8 1.8 0 0 1 0 1l-.2.5-.4.3a1.4 1.4 0 0 1-1 0l-.4-.3-.3-.5v-.5Zm1.3 1.2.4-.1.3-.3.2-.4v-.9a1 1 0 0 0-.2-.3l-.3-.3a1 1 0 0 0-.4 0 1 1 0 0 0-.8.3l-.1.4a1.8 1.8 0 0 0 0 .8l.1.4a.9.9 0 0 0 .8.4Zm2.1-2.1v2.2h-.3v-2.6h.3l1.5 2.3v-2.3h.3v2.6h-.3l-1.5-2.3Z"/></g><g clip-path="url(#h)"><path fill="#fff" d="M156.4 246.7s-3 5.8-8.4 5.4c-5.2-.3-11.8-4-12.8-7.6 0 0-2 5 3 7.8 5.1 2.8 10 2.6 13 1 3-1.8 6.2-4.6 6.9-8.1v-2l-1.2 2.9-.5.6Zm8.9-37.3v1a17 17 0 0 1-28 13 17 17 0 0 0 13 6 17 17 0 0 0 16.7-20"/><path fill="#fff" d="M154.7 224.6c1.4 0 2.6-1.3 2.6-2.8 0-1.6-1.2-2.9-2.6-2.9-1.5 0-2.6 1.3-2.6 2.9 0 1.5 1.1 2.8 2.6 2.8Zm10.9-26.6 1 3.5h3.7l-3 2.1 1 3.5-2.9-2.2-3 2 1.3-3.4-3-2.2 3.7.1 1.2-3.4Z"/><path fill="#BABABA" d="M142.4 234.2s0 3.4 7 4.7c6.9 1.4 8 6.3 7 7.8 0 0 3-1.8 1.2-5.5-1.8-3.8-8.6-2.2-11.2-6.1 0 0-1-1.1-1-1.9 0-.7-3 1-3 1Z"/><path fill="#FDFDFD" d="M142.4 234.2s3.7-1.8 9-1.5c5.5.3 10-3.3 12.2-5.5 2.2-2.2 3.5-6.3 3.5-6.3s-4.7 8.7-11.9 9.5c-7.1.7-8.4-.2-12.8 3.8Z"/><path fill="#fff" fill-rule="evenodd" d="M128.2 229.8H142v1h-13V248h13v1h-14v-19Z" clip-rule="evenodd"/><path fill="#fff" fill-rule="evenodd" d="M128.6 238.4H141v1h-12.4v-1Zm32.4-8.5h11.1v.5-.5h.4a4.7 4.7 0 0 1 2 .8c1.1.7 2.2 2.1 2.2 4.7 0 1.3-.3 2.3-.8 3.1-.5.8-1.1 1.3-1.8 1.6a5.8 5.8 0 0 1-2.4.7v-.5.5H162v8.3h-1v-19.2Zm1 10h9.5a3.5 3.5 0 0 0 .7-.2c.4 0 .9-.2 1.4-.4.5-.3 1-.7 1.4-1.3.3-.6.6-1.4.6-2.6 0-2.3-1-3.4-1.8-4a3.9 3.9 0 0 0-1.6-.5H162v9Zm22-11.1 8.7 20.1-.9.4-7.9-18.2-8.4 17.8-.9-.4 9.3-19.7Z" clip-rule="evenodd"/><path fill="#fff" fill-rule="evenodd" d="M189 242.6h-10.6v-1H189v1Z" clip-rule="evenodd"/><path fill="#fff" d="M195 235.4v-3.2h2.3v.4h-1.9v1h1.8v.3h-1.8v1h2v.5H195Zm3.5 0-1-2.3h.5l.5 1.3.2.5.1-.4.5-1.4h.4l-.9 2.3h-.3Zm3.1-.8h.4c0 .3-.2.5-.4.6-.2.2-.4.2-.7.2a1 1 0 0 1-.8-.3c-.2-.2-.3-.5-.3-.9 0-.3.1-.7.3-.9.2-.2.5-.3.8-.3a1 1 0 0 1 .8.3 1.3 1.3 0 0 1 .3 1h-1.7c0 .3 0 .5.2.6a.6.6 0 0 0 .5.2l.3-.1.3-.4Zm-1.3-.6h1.3l-.2-.5a.6.6 0 0 0-.4-.2h-.3l-.2.2-.2.5Zm2.1 1.4V233h.3v.3c.2-.3.4-.4.8-.4h.3l.3.3.1.3v1.8h-.3v-1.7l-.3-.2h-.2l-.5.1-.1.6v1.3h-.4Zm3.2-.4v.4h-.6l-.1-.2v-1.8h-.3v-.3h.2v-.6l.4-.3v.9h.4v.3h-.4v1.5l.1.1h.3Zm-10.8 4h.4l.2.3c0 .2.2.2.3.3h.9c.1 0 .2 0 .3-.2v-.5l-.3-.2-.6-.2-.6-.2a.9.9 0 0 1-.3-.3l-.1-.4.1-.4c.1-.2.2-.3.4-.3l.6-.1h.6a1 1 0 0 1 .6 1h-.4c0-.3-.1-.4-.2-.5a.9.9 0 0 0-.6-.2 1 1 0 0 0-.5.2l-.2.1v.2a.4.4 0 0 0 .1.3l.6.2.8.2.4.4s.1.3 0 .4v.5a1 1 0 0 1-.5.3l-.6.2c-.2 0-.5 0-.7-.2a1 1 0 0 1-.5-.3 1 1 0 0 1-.2-.6Zm4.6.3h.4l-.3.6-.7.2a1 1 0 0 1-.8-.3c-.2-.3-.3-.6-.3-1 0-.3.1-.6.3-.8.2-.2.5-.4.8-.4a1 1 0 0 1 .7.4 1.3 1.3 0 0 1 .3 1h-1.7c0 .2 0 .4.2.5a.6.6 0 0 0 .5.2h.4l.2-.4Zm-1.3-.7h1.3l-.1-.4a.6.6 0 0 0-.5-.2.6.6 0 0 0-.5.1l-.2.5Zm2.1 1.4v-2.3h.4v.4l.2-.4h.7l-.2.4h-.5l-.1.2v1.7h-.5Z"/><path fill="#fff" d="m202.3 240-1-2.3h.5l.5 1.4.1.4.2-.4.5-1.4h.4l-.9 2.3h-.3Zm1.5-2.7v-.5h.4v.5h-.4Zm0 2.7v-2.3h.4v2.3h-.4Zm2.4-.8h.4c0 .3-.2.5-.4.6a1 1 0 0 1-.6.3 1 1 0 0 1-.8-.3c-.2-.3-.3-.6-.3-1 0-.2 0-.4.2-.6 0-.2.2-.3.4-.4l.5-.2.6.2.3.6h-.4l-.1-.3-.4-.1a.6.6 0 0 0-.5.2l-.1.7.1.6a.6.6 0 0 0 .5.2l.4-.1.2-.4Zm2.2.1h.4c0 .2-.2.4-.4.6a1 1 0 0 1-.6.2c-.3 0-.6-.1-.8-.3-.2-.3-.3-.6-.3-1 0-.3 0-.6.3-.8.2-.2.4-.4.8-.4a1 1 0 0 1 .7.4c.2.2.3.5.3.9h-1.7c0 .3 0 .5.2.6a.6.6 0 0 0 .5.2h.4l.2-.4Zm-1.3-.7h1.3l-.1-.4-.3-.2h-.2a.6.6 0 0 0-.5.1l-.2.5Zm-12.1 6.1v-3.2h1.7l.4.1.2.4.1.4c0 .2 0 .5-.2.7-.2.2-.5.3-1 .3h-.8v1.3h-.4Zm.4-1.7h.8c.3 0 .5 0 .6-.2l.2-.4-.1-.3-.3-.2h-1.2v1Zm2.4 1.7v-2.4h.4v.4c0-.2.2-.3.2-.3l.3-.1.4.1-.2.4-.2-.1h-.3l-.1.3v1.7h-.5Zm1.2-1.2c0-.4.2-.7.4-1l.8-.2c.3 0 .5 0 .8.3.2.2.3.5.3.9 0 .3 0 .5-.2.7l-.4.4-.5.1a1 1 0 0 1-.8-.3c-.2-.2-.3-.5-.3-.9Zm.5 0c0 .3 0 .5.2.7l.2.1h.3a.6.6 0 0 0 .5-.1l.1-.7-.1-.7a.6.6 0 0 0-.5-.2.6.6 0 0 0-.5.2l-.2.7Zm2.2 1.2v-2h-.3v-.4h.3v-.5l.3-.3h.7v.3h-.5v.5h.4v.3h-.5v2h-.4Zm2.7-.7h.4c0 .2-.2.4-.4.5a1 1 0 0 1-.7.2c-.2 0-.6-.1-.8-.3-.2-.2-.3-.5-.3-.9s.1-.7.3-.9c.2-.2.5-.3.8-.3a1 1 0 0 1 .8.3c.2.2.3.5.3.9v.1H203c0 .3 0 .5.2.6a.6.6 0 0 0 .5.2l.3-.1.3-.4Zm-1.3-.7h1.3l-.2-.5-.2-.1h-.3a.6.6 0 0 0-.4 0l-.2.6Zm1.9.7.4-.1c0 .1 0 .3.2.4h.8a.3.3 0 0 0 .1-.3.2.2 0 0 0 0-.2l-.5-.1-.6-.2a.6.6 0 0 1-.2-.2.6.6 0 0 1 .1-.8l.3-.2h.8l.3.3.1.3h-.3a.4.4 0 0 0-.2-.2h-.8v.3l.2.2h.3l.6.2.2.2.1.4v.3l-.4.3-.5.1c-.3 0-.5 0-.7-.2a.9.9 0 0 1-.3-.5Zm2.2 0 .3-.1a.5.5 0 0 0 .2.4h.8a.3.3 0 0 0 .2-.3.2.2 0 0 0-.1-.2l-.4-.1-.6-.2a.6.6 0 0 1-.3-.2v-.6l.2-.2.2-.2h.9l.3.3v.3h-.3l-.1-.2h-.8l-.1.2v.1l.2.2h.3l.6.2.3.2v.7c-.1.2-.2.3-.4.3l-.5.1c-.3 0-.5 0-.6-.2a.9.9 0 0 1-.3-.5Zm2.3-2v-.5h.4v.4h-.4Zm0 2.7v-2.4h.4v2.4h-.4Zm.7-1.2c0-.4.1-.7.4-1l.7-.2c.3 0 .6 0 .8.3.2.2.3.5.3.9 0 .3 0 .5-.2.7l-.3.4-.6.1a1 1 0 0 1-.8-.3c-.2-.2-.3-.5-.3-.9Zm.4 0c0 .3 0 .5.2.7a.6.6 0 0 0 .5.2.6.6 0 0 0 .5-.2l.2-.7c0-.3 0-.5-.2-.7a.7.7 0 0 0-.5-.2.6.6 0 0 0-.5.2l-.2.7Zm2.2 1.2v-2.4h.3v.4c.2-.3.4-.4.7-.4h.4l.3.3.1.3v1.8h-.4v-1.8s0-.2-.2-.2h-.7l-.2.7v1.3h-.3Zm3.9-.3-.5.2-.4.1c-.3 0-.4 0-.6-.2a.6.6 0 0 1-.2-.5.6.6 0 0 1 .3-.5l.3-.1h.3l.7-.2v-.5h-.9l-.2.4-.4-.1c0-.1 0-.3.2-.4l.3-.2.5-.1h.5l.3.2.1.3v1.6l.1.3h-.4v-.3Zm0-.9-.7.1-.4.1-.1.1a.4.4 0 0 0 0 .4c.1.2.2.2.4.2l.4-.1.3-.3v-.5Zm.8 1.2v-3.2h.4v3.2h-.4Zm.8-.7.4-.1a.5.5 0 0 0 .2.4h.8a.3.3 0 0 0 .1-.3v-.1h-.1l-.4-.2-.6-.2a.6.6 0 0 1-.3-.2v-.6a.7.7 0 0 1 .5-.4h.8l.3.3.1.3h-.4l-.1-.2h-.8a.3.3 0 0 0 0 .2v.1l.1.2h.4l.6.2.2.2.1.4-.1.3c0 .2-.2.3-.3.3l-.5.1a1 1 0 0 1-.7-.2.9.9 0 0 1-.3-.5Zm-23.7 5.3 1.3-3.2h.4l1.3 3.2h-.4l-.4-1h-1.4l-.3 1h-.5Zm1-1.3h1l-.3-.9-.2-.7-.2.7-.3.9Zm2.1.6h.4l.1.3.5.1h.4a.3.3 0 0 0 0-.3.2.2 0 0 0 0-.2l-.4-.2c-.2 0-.4 0-.6-.2a.6.6 0 0 1-.3-.2v-.3a.6.6 0 0 1 .2-.5l.3-.1h.8l.3.2.1.4h-.4a.4.4 0 0 0-.1-.2l-.4-.1h-.4a.3.3 0 0 0 0 .3l.1.2.4.1.5.2c.1 0 .2 0 .3.2l.1.3-.1.4-.3.3h-.5l-.7-.1a.8.8 0 0 1-.3-.6Zm2.1 0h.4s0 .2.2.3l.4.1h.4a.3.3 0 0 0 .1-.3v-.2l-.5-.2c-.2 0-.4 0-.6-.2a.6.6 0 0 1-.2-.2l-.1-.3v-.3l.2-.2.3-.1h.8l.3.2.2.4h-.4l-.2-.2-.3-.1h-.4a.3.3 0 0 0-.1.3l.2.2.3.1.6.2s.2 0 .2.2l.1.3v.4l-.4.3h-.5l-.7-.1a.9.9 0 0 1-.3-.6Zm2.2-.5c0-.4 0-.7.3-1l.8-.2c.3 0 .5.1.7.3.2.3.3.5.3 1v.6l-.5.4-.5.2a1 1 0 0 1-.8-.4c-.2-.2-.3-.5-.3-.9Zm.4 0c0 .3 0 .6.2.7a.6.6 0 0 0 .5.2.6.6 0 0 0 .4-.2c.2-.1.2-.4.2-.7 0-.3 0-.5-.2-.6a.6.6 0 0 0-.4-.2.6.6 0 0 0-.5.2c-.2.1-.2.3-.2.6Zm3.6.4h.4c0 .3-.1.5-.3.6a1 1 0 0 1-.7.3 1 1 0 0 1-.7-.4c-.2-.2-.3-.5-.3-.8l.1-.7c0-.2.2-.3.4-.4l.5-.2.7.2.3.6h-.4l-.2-.3-.3-.1a.6.6 0 0 0-.5.2l-.2.6c0 .3 0 .6.2.7a.6.6 0 0 0 .4.2l.4-.1.2-.4Zm.7-1.9v-.5h.4v.5h-.4Zm0 2.7V247h.4v2.3h-.4Zm2.3-.3-.3.3h-.5l-.6-.1a.6.6 0 0 1-.2-.5.6.6 0 0 1 .3-.5l.3-.2h.3l.7-.2v-.4l-.5-.1h-.4l-.2.4h-.4c0-.2 0-.3.2-.4 0-.2.2-.2.3-.3h1l.3.2.1.2v1.6l.2.3h-.5v-.3Zm0-.9-.6.2h-.3a.3.3 0 0 0-.3.4.3.3 0 0 0 .2.2l.3.1h.4l.3-.3v-.7Zm1.8.9v.3h-.5l-.1-.2v-1.8h-.4v-.3h.3v-.6l.4-.2v.8h.4v.3h-.4v1.6h.4Zm.3-2.4v-.5h.4v.5h-.4Zm0 2.7V247h.4v2.3h-.4Zm.8-1.2c0-.4 0-.7.3-1l.7-.2c.4 0 .6.1.8.3.2.3.3.5.3 1l-.1.6c0 .2-.2.3-.4.4l-.6.2a1 1 0 0 1-.7-.4c-.2-.2-.3-.5-.3-.9Zm.4 0c0 .3 0 .6.2.7a.6.6 0 0 0 .4.2.6.6 0 0 0 .5-.2c.2-.1.2-.4.2-.7 0-.3 0-.5-.2-.6a.6.6 0 0 0-.7-.2l-.2.2c-.2.1-.2.3-.2.6Zm2.1 1.2V247h.4v.3c.1-.2.4-.4.7-.4l.4.1.2.2.2.3v1.8h-.4v-1.8l-.2-.2h-.3l-.4.1-.2.6v1.3h-.4Z"/><path fill="#fff" fill-rule="evenodd" d="M219.9 253H127v-1h92.9v1Z" clip-rule="evenodd"/></g><g fill="#fff" clip-path="url(#i)"><path d="M269 244v-2.8c-1 1-2 1.6-3.1 2-1 .5-2.3.8-3.5.8-2.1 0-3.8-.6-5-1.8a5.7 5.7 0 0 1-2-4.4c0-1.1.3-2.2.9-3.1.6-1 1.4-1.6 2.4-2.1s2.5-1 4.4-1.3a31 31 0 0 0 5.4-1.3v-.6c0-1-.2-1.8-.8-2.2-.5-.5-1.5-.7-3-.7a4 4 0 0 0-2.3.6c-.5.3-1 .5-1.3 1.5h-4.7c0-2.3 1.2-3.9 2.6-4.9 1.3-1 3.4-1.4 6.1-1.4 2.5 0 4.4.3 5.6.9a5 5 0 0 1 2.5 2.2c.5.9.8 2.5.8 4.9V244h-5Zm-.5-10.5c-.7.3-1.8.6-3.4.9-1.5.3-2.5.6-3 1-.7.4-1 1-1 1.9 0 .8.2 1.4.8 2a3 3 0 0 0 2.2.8c1 0 2-.3 2.9-1 .6-.5 1-1 1.3-1.8l.2-2.7v-1Zm8.3 10v-20.8h6.3L287 237l3.8-14.2h6.4v20.8h-4v-16.4l-4.1 16.4H285l-4.2-16.4v16.4h-4Zm42.4-13.5-5.5-.1c-.2-1.1-.6-2-1.3-2.5a4 4 0 0 0-2.5-.8c-1.4 0-2.5.5-3.3 1.4-.9 1-1.3 2.5-1.3 4.8 0 2.4.5 4.2 1.3 5.2s2 1.5 3.4 1.5a4 4 0 0 0 2.6-.9 6 6 0 0 0 1.4-3h5.5c-.2 2.3-1.7 5.2-3.3 6.5a10.2 10.2 0 0 1-6.5 1.9c-3 0-5.5-1-7.3-2.9a11 11 0 0 1-2.8-8c0-3.4 1-6 2.8-8a9.7 9.7 0 0 1 7.4-2.8c2.6 0 4.6.5 6.1 1.6s3.4 3.2 3.3 6Z"/><path d="M247.2 211.9v42.6H328v-42.6h-80.7Zm75.7 38h-71v-33.4h71v33.3Z"/></g><defs><clipPath id="a"><path fill="#fff" d="M0 0h72v42H0z" transform="translate(19 32.5)"/></clipPath><clipPath id="b"><path fill="#fff" d="M0 0h105v36H0z" transform="translate(123 35.5)"/></clipPath><clipPath id="c"><path fill="#fff" d="M0 0h65v45H0z" transform="translate(260 31)"/></clipPath><clipPath id="d"><path fill="#fff" d="M0 0h94v40H0z" transform="translate(20 117)"/></clipPath><clipPath id="e"><path fill="#fff" d="M0 0h72v54H0z" transform="translate(156 110)"/></clipPath><clipPath id="f"><path fill="#fff" d="M0 0h54v64H0z" transform="translate(270 105)"/></clipPath><clipPath id="g"><path fill="#fff" d="M0 0h84v51H0z" transform="translate(16 203.5)"/></clipPath><clipPath id="h"><path fill="#fff" d="M0 0h93.2v56.5H0z" transform="translate(127 198)"/></clipPath><clipPath id="i"><path fill="#fff" d="M0 0h80.7v42.6H0z" transform="translate(247.2 211.9)"/></clipPath></defs></svg>