<svg xmlns="http://www.w3.org/2000/svg" version="1.0" viewBox="0 0 544 343"><path fill="#f7f8f7" d="M0 327.5V312h120.7c66.35 0 121.7.15 123 .3l2.3.35v3.8c0 2.1-.3 4.35-.65 5.05l-.6 1.2-54.65-.15-54.6-.15v1.05c0 .7-.3 1.05-1 1.05-.65 0-1 .35-1 1 0 .55-.3 1-.7 1-.35 0-.95.3-1.25.65-.45.55-7.15.75-34.65 1.05-18.8.2-35.7.55-37.65.8-7.05.85-11.75 1.7-11.75 2.05 0 .8 2.35 1.1 15.5 2.05 10.85.8 20 1.05 43.2 1.2 27.8.15 29.55.2 30.75 1.1a28 28 0 0 0 3.55 1.9c2.2.95 4.95.95 131.25 1.1 96.75.1 129.7 0 131.7-.45 2.45-.5 5.35-1.8 6.9-3.05.35-.3 12.25-.55 31.25-.6 18.9-.1 33.15-.4 37.15-.75 14.75-1.4 21.85-2.25 20.7-2.5-.2 0-4-.6-8.5-1.3-7.95-1.25-9.1-1.3-41.95-1.55-29.25-.25-34.05-.4-36.1-1.1-1.7-.55-2.4-1.05-2.4-1.7 0-.5-.35-.9-.8-.9-.45 0-.9-.45-1.05-1.05l-.3-1.05-54.3.1c-29.85.05-54.7.05-55.15.05-.8-.05-.9-.65-.9-5.3V312h246v31H0v-15.5zm537.8-21.75c-.4-1.1-.4-299.65 0-301.7.3-1.35.5-1.55 2-1.55 1.35 0 1.75.25 1.95 1.15.15.6.2 68.95.15 151.85l-.15 150.75-1.8.15c-1.3.1-1.9-.05-2.15-.65zm-192.8-115c0-4.05.05-4.25 1.15-4.25 1.5 0 5.9-2.15 7.05-3.45l.95-1.05-1.6.55c-.95.35-3.85.5-7.2.35-4.65-.15-6-.35-8.1-1.4a19.7 19.7 0 0 1-7.7-7.3l-1-1.95-.05 5.4V183h-8.4l-.2-10.1c-.15-9.2-.25-10.35-1.25-12.15-1.95-3.7-5.85-6.4-9.15-6.4-2.05 0-5.25 1.55-6.8 3.25-.6.6-1.55 2.1-2.15 3.25-.95 1.95-1.05 2.95-1.05 12.15v10h-9v-28.65l-1.85.3c-2.05.35-4.85 2.4-6.5 4.8-1.65 2.45-2.15 5.85-2.15 15.05v8.5h-8.5v-14.5h-13.25c-12.5 0-13.25.05-12.8.9.75 1.35 2.6 2.9 5 4.1 2.75 1.35 5.3 1.15 8.1-.7a7.54 7.54 0 0 1 3.6-1.3c1.4 0 1.95.35 3.25 2.2 2.2 3.05 2.15 4.8-.25 6.4-3.8 2.5-6.1 3.05-12.25 2.8-4.75-.15-6.05-.35-8.15-1.4-3.2-1.55-6.85-5.3-8.05-8.2-.55-1.25-1.05-2.3-1.2-2.3-.15.05-.75 1.15-1.4 2.5-1.55 3.3-4.75 6.35-8.5 8.15-3 1.4-3.3 1.45-9.25 1.25-5.65-.15-6.3-.25-8.75-1.65-3.3-1.8-6.75-5.5-7.85-8.5l-.85-2.2-1.45 2.95c-1.65 3.2-4.7 6.3-8.05 8.1-1.95 1.05-2.8 1.15-8.9 1.15-6.35 0-6.9-.1-9.25-1.35a20.43 20.43 0 0 1-7.65-7.65l-1.05-2-.05 5.65v5.6H154v-9.4c0-10.1-.25-11.75-2.35-14.7-4.75-6.9-13.95-5.45-17.4 2.75-.6 1.4-.75 3.95-.75 11.6V183h-8.4l-.2-10.1c-.15-8.6-.3-10.4-1.1-11.9-2-3.85-5.95-6.65-9.3-6.65-3.5 0-7.7 3.15-9.35 7-.45 1.2-.65 4.35-.65 11.65v10h-9v-37.5h4.5c4.25 0 4.5.05 4.5 1.05 0 .8.2.95.9.7a25.6 25.6 0 0 1 14.7-1.2c3.35.75 5.75 1.95 7.6 3.9l1.5 1.55 1.5-1.45c.85-.85 2.9-2.15 4.55-2.9 2.75-1.3 3.5-1.4 8.75-1.4 4.85 0 6.1.15 8.1 1.1 3.25 1.5 7.15 5.25 8.7 8.45l1.3 2.65 1.5-2.85c2-3.85 4.05-5.85 7.8-7.7 2.6-1.3 4-1.65 7.45-1.8 5.5-.3 8.85.5 12.55 2.9 3.1 2 5.5 4.9 6.65 8.15l.65 1.9.65-1.8c1.6-4.6 6.4-9.05 11.45-10.55 4-1.2 13.25-.65 14.9.85.3.25.8.45 1.15.45.5 0 .65-1.6.65-7v-7h8.5v22.75l1.05-1.75c1.75-2.9 4.55-5.5 7.7-7.15 2.9-1.55 3.25-1.6 9-1.6 5.05 0 6.35.15 8.3 1.05 2.9 1.35 6.2 4.3 8.05 7.15l1.4 2.25v-10.7h4.25c4.15 0 4.25 0 4.25 1.2v1.25l2.4-1.1c2-.9 3.45-1.1 9.75-1.25 7.3-.2 7.35-.2 7.35.9 0 .85.2 1.05.9.75 4.9-2.05 11.6-2.35 16.4-.75 3.8 1.3 7.6 4.55 9.5 8.2.8 1.55 1.55 2.8 1.7 2.8.2 0 .6-.8.95-1.75s1.7-2.95 3.05-4.4c3.3-3.6 7.35-5.45 12.7-5.75 8.2-.5 13.85 2.15 17.85 8.35l1.45 2.25v-10.7h8.5v9.15c0 6.35.2 9.9.7 11.45 1.75 5.8 7.35 9.45 12.1 7.9 2.45-.8 5.65-3.75 6.75-6.25.8-1.7.95-3.4.95-12.15v-10.15l4.4.15 4.35.15.15 4.95.15 5 1.75-2.6c1.95-2.95 5.9-5.8 9.45-6.9 3.6-1.05 9.95-.9 13.6.35 5.1 1.7 9.2 6.1 10.9 11.6l.7 2.1v-3.65c.05-4.35.8-6.35 3.2-8.45 2.4-2.1 4.55-2.65 10.7-2.65 7.8 0 11.55 1.7 13.4 6.1.95 2.3 1 5.7.1 6.05-.4.15-2.15.4-4 .6l-3.3.35-.75-1.75c-1-2.45-2.95-3.6-5.9-3.55-1.8 0-2.7.3-3.65 1.2-.7.65-1.25 1.35-1.25 1.6 0 .6 4.5 2.7 7.25 3.35 6.6 1.55 9.25 2.65 11.65 4.75l1.1.95V133.5h8.5V154H487v8.5h-5.5c-6.25 0-6.4.1-5.5 3.45 1.1 4.2 5.95 8.5 9.65 8.55H487v8.5h-2.9c-5.95 0-10.75-2.55-14.1-7.6l-1.9-2.9-.35 1.9c-1.2 7.35-11.2 10.95-22.4 8.05-3.95-1.05-7.85-6.35-7.85-10.75v-2.05l3.05-.35c5.05-.5 5.2-.5 5.85 1.4.35.95 1.45 2.4 2.4 3.25 1.4 1.25 2.2 1.55 4 1.55 5.05 0 8.05-3.75 4.35-5.45-.7-.35-3.8-1.25-6.85-2.1-6.65-1.8-9.45-3.35-10.8-5.85l-.95-1.85-.05 4.15v4.1h-13.75c-7.65 0-13.75.2-13.75.45 0 .75 4 4.1 5.8 4.85 2.45 1 3.7.9 7-.8 1.6-.8 3.55-1.5 4.3-1.5 1.9 0 4.4 3.1 4.4 5.55 0 2-.65 2.75-4 4.5-2.05 1.1-2.85 1.2-9 1.2-5.65 0-7.05-.15-8.5-.95-2.85-1.55-6.05-4.35-7.5-6.65l-1.35-2.15-.3 2c-.15 1.1-.15 3.35 0 5l.3 3h-4.6c-4.15 0-4.55-.1-4.55-.95 0-.95-.05-.95-2.6.05-2.25.85-3.55.95-8.4.8-5-.15-6.05-.35-8.25-1.5a20.9 20.9 0 0 1-7.65-7.55l-1-1.9-.2 5.4c-.15 4.45-.4 5.85-1.4 7.9-2.75 5.7-9.05 9.75-15.1 9.75H345v-4.25zm-161.25-17.2c4.15-1.9 7.25-6.95 6.55-10.7-.65-3.5-4.95-7.8-8.45-8.45-4.95-.95-11.35 4.7-11.35 9.9 0 3.7 2.95 7.75 7 9.55 1.85.85 4 .75 6.25-.3zm37.15-.35c4.45-2.2 6.95-6.85 5.95-10.8-1.2-4.7-7.45-9-11.5-7.85-5.4 1.5-9.3 7.35-7.9 12 1.15 3.75 6.2 7.95 9.6 7.95.7 0 2.45-.6 3.85-1.3zm130.25-.55c2.4-1.65 4.1-4 4.95-6.7 1.15-3.95-2.55-9.55-7.45-11.15-2.2-.75-2.7-.75-4.6-.05a11.1 11.1 0 0 0-6.1 4.8c-1.95 2.85-2.2 4.95-.95 7.9 2.75 6.35 9.2 8.7 14.15 5.2zM261.5 158.5c-2.55-3.55-7.9-5.1-11.4-3.3-1.65.85-4.6 3.6-4.6 4.35 0 .25 3.65.45 8.55.45h8.5l-1.05-1.5zm166.5 1.05c0-.55-3.55-3.75-5-4.55-3.3-1.75-9.6.45-11.55 4.15-.45.8.05.85 8.05.85 4.65 0 8.5-.2 8.5-.45z"/><g fill="#e5e6e5"><path d="M142.5 339.65c-1.95-.3-5.6-1.75-7-2.7-1.15-.85-3.5-.95-31.5-1.2-16.65-.15-31.6-.4-33.25-.5-24.35-1.7-24.85-1.8-26.9-3.85-.8-.8-.8-.9.2-1.45 1.1-.55 7.5-1.7 13.7-2.45 1.95-.25 18.85-.6 37.65-.8 27.5-.3 34.2-.5 34.65-1.05.3-.35.9-.65 1.25-.65.4 0 .7-.45.7-1 0-.65.35-1 1-1s1-.35 1-1 .35-1 1-1 1 .35 1 1c0 .55-.2 1-.5 1-.25 0-.5.6-.5 1.3 0 .75-.35 1.6-.8 1.95-1.05.75-.55 4.25.55 4.25.4 0 .75.4.75.9 0 1.2 1.9 2.85 5.5 4.7 1 .55 26.05.65 132 .65 122.9 0 130.85-.05 132.25-.85.85-.5 1.9-1 2.4-1.2.45-.15.85-.65.85-1.05s.45-.85.95-1c.55-.15 1.1-.85 1.3-1.65.3-1.4-.6-6-1.2-6-.7 0-3.05-2.45-3.05-3.2 0-.6.45-.8 1.75-.8 1.25 0 1.75.2 1.75.8 0 .45.45.9 1 1.05.55.15 1 .65 1 1.1 0 .55.8 1.1 2.4 1.65 2.05.7 6.85.85 36.1 1.1 32.9.25 34 .3 42 1.55 7.65 1.2 10.5 2.05 10.5 3.25 0 .3-.2.5-.5.5-.25 0-.5.3-.5.65 0 .45-.5.6-1.55.45-.85-.15-2.7 0-4.15.3-2.2.45-9.1 1.2-18.05 1.9-1.35.15-16.75.35-34.2.45-29.3.25-31.75.3-33 1.15a16.53 16.53 0 0 1-5.8 2.55c-1.9.5-259.65.7-262.75.2z"/><path d="M158.5 322.5V321h6.5v3h-6.5v-1.5zm212.5 1c0-.35-11-.5-32-.5-26.9 0-32-.1-32-.7 0-.35.5-.8 1.15-1 .6-.15 21.2-.3 45.75-.3h44.6v3h-7.7c-5.7 0-7.8-.15-8-.6-.25-.5-.35-.5-.6 0-.35.75-11.2.9-11.2.1zm28-1c0-1.5.05-1.5 2.75-1.5s2.75 0 2.75 1.5-.05 1.5-2.75 1.5-2.75 0-2.75-1.5zm-223.5-.5c0-1 .35-1 28.65-1 15.7 0 29.1.15 29.75.3.6.2 1.1.65 1.1 1 0 .6-4.75.7-29.75.7-29.4 0-29.75 0-29.75-1zm66 .35c0-.35.5-.85 1.1-1.1.65-.3 1.35-1.2 1.6-2.1.7-2.6 1.8-2.1 1.8.8 0 2.65-.4 3.05-3.05 3.05-.85 0-1.45-.25-1.45-.65zm57.5-.85c0-1-.25-1.5-.75-1.5-.6 0-.75-.8-.75-4v-4h1.75c1.2 0 1.75.25 1.75.75 0 .4-.35.75-.75.75-.6 0-.75.75-.75 3.7v3.7l1.5.35c2.15.45 1.95 1.75-.25 1.75-1.6 0-1.75-.1-1.75-1.5zm-54.5-6.7c0-1-3.35-1.3-14.55-1.3H220V311h12.7c13.9 0 13.3-.15 13.3 3.05 0 .95-.25 1.45-.75 1.45-.4 0-.75-.3-.75-.7zm289.15-1.2c-1.35-.15-1.65-.4-1.65-1.4 0-1.1.15-1.2 2.7-1.2 2.35 0 2.8.15 3.05 1.05.2.55.25 1.1.15 1.2-.35.35-2.65.55-4.25.35zM0 312.25c0-1.1.2-1.25 1.75-1.25s1.75.15 1.75 1.25-.2 1.25-1.75 1.25S0 313.35 0 312.25zm4 0c0-1.2.1-1.25 3.75-1.25s3.75.05 3.75 1.25-.1 1.25-3.75 1.25S4 313.45 4 312.25zm36 0c0-1.1.2-1.25 1.75-1.25s1.75.15 1.75 1.25-.2 1.25-1.75 1.25-1.75-.15-1.75-1.25zm4 0c0-1.1.2-1.25 1.75-1.25s1.75.15 1.75 1.25-.2 1.25-1.75 1.25-1.75-.15-1.75-1.25zm4 0c0-1.1.2-1.25 1.75-1.25s1.75.15 1.75 1.25-.2 1.25-1.75 1.25-1.75-.15-1.75-1.25zm4 0V311h21.5v2.5H52v-1.25zm22 0c0-1.1.2-1.25 1.75-1.25s1.75.15 1.75 1.25-.2 1.25-1.75 1.25-1.75-.15-1.75-1.25zm4 0c0-1.1.2-1.25 1.75-1.25s1.75.15 1.75 1.25-.2 1.25-1.75 1.25-1.75-.15-1.75-1.25zm4 0c0-1.1.2-1.25 1.75-1.25s1.75.15 1.75 1.25-.2 1.25-1.75 1.25-1.75-.15-1.75-1.25zm10 0V311h51.5v2.5H92v-1.25zm52 0c0-1.2.15-1.25 2.75-1.25s2.75.05 2.75 1.25-.15 1.25-2.75 1.25-2.75-.05-2.75-1.25zm6 0V311h15.5v2.5H150v-1.25zm16 0c0-1.25 0-1.25 4.75-1.25s4.75 0 4.75 1.25 0 1.25-4.75 1.25-4.75 0-4.75-1.25zm10 0c0-1.1.2-1.25 1.75-1.25s1.75.15 1.75 1.25-.2 1.25-1.75 1.25-1.75-.15-1.75-1.25zm4 0c0-1.2.15-1.25 2.75-1.25s2.75.05 2.75 1.25-.15 1.25-2.75 1.25-2.75-.05-2.75-1.25zm6 0c0-1.2.1-1.25 3.75-1.25s3.75.05 3.75 1.25-.1 1.25-3.75 1.25-3.75-.05-3.75-1.25zm14 0c0-1.1.2-1.25 1.75-1.25s1.75.15 1.75 1.25-.2 1.25-1.75 1.25-1.75-.15-1.75-1.25zm4 0c0-1.1.2-1.25 1.75-1.25s1.75.15 1.75 1.25-.2 1.25-1.75 1.25-1.75-.15-1.75-1.25zm4 0V311h11.5v2.5H208v-1.25zm93.5 0V311h26v2.5h-26v-1.25zm34.5 0c0-1.1.2-1.25 1.75-1.25s1.75.15 1.75 1.25-.2 1.25-1.75 1.25-1.75-.15-1.75-1.25zm4 0c0-1.1.2-1.25 1.75-1.25s1.75.15 1.75 1.25-.2 1.25-1.75 1.25-1.75-.15-1.75-1.25zm4 0c0-1.1.2-1.25 1.75-1.25s1.75.15 1.75 1.25-.2 1.25-1.75 1.25-1.75-.15-1.75-1.25zm4 0c0-1.25 0-1.25 4.75-1.25s4.75 0 4.75 1.25 0 1.25-4.75 1.25-4.75 0-4.75-1.25zm14 0c0-1.1.2-1.25 1.75-1.25s1.75.15 1.75 1.25-.2 1.25-1.75 1.25-1.75-.15-1.75-1.25zm4 0V311h10v2.5h-10v-1.25zm18 0V311h18v2.5h-18v-1.25zm20 0c0-1.2.1-1.25 3.75-1.25s3.75.05 3.75 1.25-.1 1.25-3.75 1.25-3.75-.05-3.75-1.25zm8 0V311h35.5v2.5H412v-1.25zm56 0c0-1.1.2-1.25 1.75-1.25s1.75.15 1.75 1.25-.2 1.25-1.75 1.25-1.75-.15-1.75-1.25zm20 0c0-1.2.15-1.25 2.75-1.25s2.75.05 2.75 1.25-.15 1.25-2.75 1.25-2.75-.05-2.75-1.25zm20 0c0-1.1.2-1.25 1.75-1.25s1.75.15 1.75 1.25-.2 1.25-1.75 1.25-1.75-.15-1.75-1.25zm32.5 0c0-1.1.2-1.25 1.75-1.25s1.75.15 1.75 1.25-.2 1.25-1.75 1.25-1.75-.15-1.75-1.25zm-2.35-6.1c-.9-.35-.85-3.65.05-3.65.4 0 .85.55 1 1.25.35 1.45 1.3 1.25 1.3-.25 0-.65.25-.85.75-.7.45.2.75.95.75 2 0 1.6-.1 1.7-1.6 1.65a7.3 7.3 0 0 1-2.25-.3zM355.75 191c.15-.25.95-.95 1.75-1.5l1.5-1.05v1.5c0 1.45-.15 1.55-1.8 1.55-1 0-1.65-.2-1.45-.5zM96 181.75c0-.95.25-1.75.5-1.75.3 0 .5.35.5.75 0 .45.45.75 1.25.75.9 0 1.25.25 1.25 1 0 .8-.35 1-1.75 1-1.65 0-1.75-.1-1.75-1.75zm4.5.75c0-.75.35-1 1.25-1 .8 0 1.25-.3 1.25-.75 0-.4.25-.75.5-.75.3 0 .5.8.5 1.75 0 1.65-.1 1.75-1.75 1.75-1.4 0-1.75-.2-1.75-1zm24.65.25c-.5-.5-.65-3.2-.65-9.65 0-10.25-.3-13.6-1.3-13.6-.45 0-.7-.6-.7-1.8 0-1.6.1-1.75.8-1.15.4.35 1.25 1.55 1.85 2.65.95 1.85 1.1 3 1.25 12.2l.2 10.1h2.7c2.05 0 2.7-.2 2.7-.75 0-.4.35-.75.75-.75.5 0 .75.55.75 1.75v1.75h-3.85c-2.75-.05-4.1-.25-4.5-.75zm29.35-1c0-.95.25-1.75.5-1.75.3 0 .5.35.5.75 0 .6.65.75 2.75.75s2.75-.15 2.75-.75c0-.4.35-.75.75-.75.5 0 .75.55.75 1.75v1.75h-8v-1.75zm98.5.75c0-.85.35-1 2-1s2 .15 2 1-.35 1-2 1-2-.15-2-1zm19-.75c0-.95.25-1.75.5-1.75.3 0 .5.35.5.75 0 .5.5.75 1.5.75 1.15 0 1.5.2 1.5 1 0 .85-.35 1-2 1-1.95 0-2-.05-2-1.75zm19 0c0-.95.25-1.75.5-1.75.3 0 .5.35.5.75 0 .6.65.75 3 .75s3-.15 3-.75c0-.4.25-.75.5-.75.3 0 .5.8.5 1.75v1.75h-8v-1.75zm29.15 1.4c-.5-.15-.65-2.6-.65-9.6 0-10.7-.3-14.05-1.3-14.05-.45 0-.7-.6-.7-1.8 0-1.6.1-1.75.8-1.15.4.35 1.25 1.55 1.85 2.65 1 1.85 1.1 2.95 1.25 12.2l.2 10.1h1.2c.85 0 1.2.3 1.2 1 0 .8-.3 1-1.6.95a7.3 7.3 0 0 1-2.25-.3zm4.35-.65c0-.75.35-1 1.25-1 .8 0 1.25-.3 1.25-.75 0-.4.35-.75.75-.75.5 0 .75.55.75 1.75 0 1.7-.05 1.75-2 1.75-1.65 0-2-.15-2-1zm20 0c0-.8.35-1 1.75-1s1.75.2 1.75 1-.35 1-1.75 1-1.75-.2-1.75-1zm38 .05c0-.9.3-1.05 1.95-1.05 1.05 0 2.85-.35 4-.75 2.05-.7 2.05-.7 2.05.45 0 1.35-.6 1.55-5.15 2.1-2.7.3-2.85.25-2.85-.75zm10.85-1.4c-.15-1.35-.05-2.7.25-3.05.8-.9 1.15-.3.95 1.7l-.15 1.7h6.05l-.3-2.45c-.35-3.15.15-6.05 1.1-6.05.6 0 .75.85.75 4.25 0 2.5-.2 4.25-.5 4.25-.25 0-.5.45-.5 1 0 .9-.35 1-3.7 1h-3.65l-.3-2.35zM450 182.5c0-1.05.5-1.2 2.4-.7 1.8.5 1.35 1.7-.65 1.7-1.4 0-1.75-.2-1.75-1zm31.65.65c-1.25-.15-1.65-.45-1.65-1.2 0-.85.25-.95 2.75-.65 2.35.3 2.75.2 2.75-.5 0-.45.35-.8.75-.8.5 0 .75.55.75 1.75 0 1.7-.05 1.75-1.85 1.65-1.05 0-2.65-.15-3.5-.25zM174.5 182c0-1.05.5-1.2 2.4-.7 1.8.5 1.35 1.7-.65 1.7-1.4 0-1.75-.2-1.75-1zm8.5.3c0-.65 1.4-1.3 2.9-1.3.3 0 .6.45.6 1 0 .8-.35 1-1.75 1-1.15 0-1.75-.25-1.75-.7zm28-.3c0-1.05.5-1.2 2.4-.7 1.8.5 1.35 1.7-.65 1.7-1.4 0-1.75-.2-1.75-1zm37 0c0-1.05.5-1.2 2.4-.7 1.8.5 1.35 1.7-.65 1.7-1.4 0-1.75-.2-1.75-1zm92.5 0c0-1.05.5-1.2 2.4-.7 1.8.5 1.35 1.7-.65 1.7-1.4 0-1.75-.2-1.75-1zm81.5.3c0-.65 1.4-1.3 2.9-1.3.3 0 .6.45.6 1 0 .8-.35 1-1.75 1-1.15 0-1.75-.25-1.75-.7zm24-.3c0-1.05.5-1.2 2.4-.7 1.8.5 1.35 1.7-.65 1.7-1.4 0-1.75-.2-1.75-1zm10 .3c0-.65 1.4-1.3 2.9-1.3.3 0 .6.45.6 1 0 .8-.35 1-1.75 1-1.15 0-1.75-.25-1.75-.7zm4.5-1.65c0-.25.8-.9 1.75-1.55L464 178v1.5c0 1.4-.15 1.5-1.75 1.5-.95 0-1.75-.15-1.75-.35zm-272-.5c0-.25.8-.9 1.75-1.55l1.75-1.1v1.5c0 1.4-.15 1.5-1.75 1.5-.95 0-1.75-.15-1.75-.35zm219-1.7v-1.5L409 178c2.2 1.55 2.25 2 .3 2-1.65 0-1.8-.1-1.8-1.55zM228.85 177a18.88 18.88 0 0 0 2.95-3.5c1.2-1.95 1.7-1.9 1.7.25 0 1.6-.1 1.75-1.5 1.75s-1.5.15-1.5 1.75c0 1.7-.05 1.75-1.85 1.75h-1.85l2.05-2zm256.65.5c0-1.25-.2-1.5-1.25-1.5-2.8 0-6.35-2.3-8.3-5.4-1.7-2.7-1.85-4.1-.45-4.1.8 0 1 .35 1 1.75s.2 1.75 1 1.75c.65 0 1 .35 1 1s.35 1 1 1c.55 0 1 .25 1 .5 0 .3.35.5.75.5s.75.25.75.5c0 .3.55.5 1.25.5s1.25.25 1.25.5c0 .3.7.5 1.5.5 1.4 0 1.5.1 1.5 2 0 1.65-.15 2-1 2-.8 0-1-.35-1-1.5zm-220.35.2c.2-.2-.15-1-.7-1.75l-1-1.45h1.5c1.45 0 1.55.15 1.55 1.75 0 1.3-.2 1.75-.85 1.75-.45 0-.65-.15-.5-.3zm185.75-.55c-.5-.1-.9-.55-.9-.95 0-.55.75-.7 3-.7 2.2 0 3 .2 3 .7 0 1.05-2.75 1.6-5.1.95zm20.1-.65c0-.55-.35-1-.75-1-.5 0-.75-.55-.75-1.75 0-.95.15-1.75.4-1.75.2.05 1.2 1.25 2.25 2.75l1.9 2.75h-1.55c-1.15 0-1.5-.2-1.5-1zm-232.5-1.3c0-1.95.45-1.9 2 .3l1.05 1.5h-1.5c-1.45 0-1.55-.15-1.55-1.8zm92.5 0c0-1.95.45-1.9 2 .3l1.05 1.5h-1.5c-1.45 0-1.55-.15-1.55-1.8zm-155 .15c-2.25-1.05-4.4-2.85-5.45-4.55-1.35-2.1-1.3-2.3.2-2.3.8 0 1.25.3 1.25.75 0 .4.25.75.5.75.3 0 .5.35.5.75s.35.75.75.75.75.35.75.75.45.75 1 .75 1 .25 1 .5c0 .3.55.5 1.25.5.9 0 1.25.25 1.25 1 0 1.15-1.05 1.25-3 .35zm18.6-1.1c1.45-2.2 1.9-2.2 1.9 0 0 1.6-.1 1.75-1.5 1.75h-1.5l1.1-1.75zm55.3 1.2c-1.45-.8-1.05-1.45.85-1.45 1.4 0 1.75.2 1.75 1 0 1.1-1.2 1.3-2.6.45zm5.1-.45c0-.8.35-1 1.75-1 2 0 2.45 1.2.65 1.7-1.9.5-2.4.35-2.4-.7zm23.5-4.85c0-6.5.3-8.15 1.3-8.15.55 0 .7 1.35.7 7 0 6.65-.05 7-1 7s-1-.35-1-5.85zm62.65 4.75c-2.6-1.25-2.75-1.9-.4-1.9.95 0 1.75.25 1.75.5 0 .3.55.5 1.25.5.9 0 1.25.25 1.25 1 0 1.3-1.1 1.25-3.85-.1zm6.35.1c0-.8.35-1 1.75-1 2 0 2.45 1.2.65 1.7-1.9.5-2.4.35-2.4-.7zm18.8-.3c-.45-1.1-.35-3.7.1-3.7.2 0 .95 1 1.7 2.25l1.4 2.25h-1.45c-.85 0-1.55-.3-1.75-.8zm10.1-.45c-2.6-1.75-2.75-2.25-.7-2.25 1.25 0 1.8.2 1.8.75 0 .45.45.75 1.25.75.9 0 1.25.25 1.25 1 0 1.35-1.3 1.25-3.6-.25zm89.8-.85c.15-.9.6-1.8.95-2.05.45-.35.45-.5 0-.7a.97.97 0 0 1-.65-.85c0-.3-.45-1.4-.95-2.45l-.95-1.85h3.75l.75 3c.7 2.85.7 3-.2 3-.7 0-.9.4-.9 1.75 0 1.45-.2 1.75-1.05 1.75-.95 0-1.05-.2-.75-1.6zm-303.4-.9c-.95-2.4-1.05-5-.15-5 .3 0 1.1 1.3 1.75 2.9.65 1.55 1.25 3.15 1.45 3.5.15.4-.2.6-1 .6-1 0-1.4-.4-2.05-2zm200.7-4c0-5.55.05-6 .95-6 .75 0 .95.45 1.15 2.65.1 1.45.1 4.15 0 6-.2 2.85-.35 3.35-1.15 3.35-.9 0-.95-.45-.95-6zm61.5 4.75c0-1.1.2-1.25 1.75-1.25 1.3 0 1.75.2 1.75.85 0 .45-.15.65-.3.5-.2-.15-.8 0-1.4.4-1.45 1.05-1.8.95-1.8-.5zm12.5-.5c0-1.1.25-1.75.65-1.75s.9.8 1.2 1.75c.55 1.65.5 1.75-.65 1.75-1.05 0-1.2-.25-1.2-1.75zm-238.2-.35c-.45-1.8-.35-3.9.2-3.9.45 0 2.5 4 2.5 4.8 0 .1-.55.2-1.2.2-.8 0-1.3-.35-1.5-1.1zm45.25-.7c-1.35-1.75-1.3-2.2.2-2.2 1.1 0 1.25.2 1.25 1.75 0 .95-.1 1.75-.2 1.75-.15 0-.7-.6-1.25-1.3zm165.85-.05c-1.15-1.35-2.4-4-2.05-4.35.65-.65 1.65-.25 1.65.7 0 .55.35 1 .75 1 .5 0 .75.55.75 1.75 0 2-.05 2.05-1.1.9zm48.6.1c0-.4-.2-.75-.5-.75-.25 0-.5-.55-.5-1.25 0-1.55.65-1.6 2-.15 1.3 1.4 1.3 2.9 0 2.9-.55 0-1-.35-1-.75zm-223.5-2c0-1.1.25-1.75.65-1.75s.9.8 1.2 1.75c.55 1.65.5 1.75-.65 1.75-1.05 0-1.2-.25-1.2-1.75zM441 170c0-.8.35-1 1.75-1 2 0 2.45 1.2.65 1.7-1.9.5-2.4.35-2.4-.7zm-113.5-1.75c0-2 1.2-2.45 1.7-.6s.35 2.35-.7 2.35c-.8 0-1-.35-1-1.75zm107-.25c0-.75.35-1 1.25-1 .8 0 1.25-.3 1.25-.75 0-.4.25-.75.5-.75.3 0 .5.8.5 1.75 0 1.65-.1 1.75-1.75 1.75-1.4 0-1.75-.2-1.75-1zm18.5 0c0-1.05.5-1.2 2.4-.7 1.8.5 1.35 1.7-.65 1.7-1.4 0-1.75-.2-1.75-1zm-118.2-.6c-.5-1.9-.35-2.4.7-2.4.8 0 1 .35 1 1.75 0 2-1.2 2.45-1.7.65zM168.75 166c-.45-2 .15-4.5 1.05-4.5.5 0 .7.75.7 3s-.2 3-.7 3c-.4 0-.85-.65-1.05-1.5zm29.1-1.9c-.45-5.55-3.2-11-6.65-13.25-2.15-1.4-2.15-1.85.05-1.85 1.6 0 1.75.1 1.75 1.5 0 1.35.15 1.5 1.5 1.5 1.4 0 1.5.15 1.5 1.75 0 1.4.2 1.75 1 1.75.7 0 1.1.55 1.55 2.15.3 1.15.75 2.65.95 3.35.25.7.45 2.45.45 3.9.05 2.2-.1 2.6-.9 2.6-.75 0-.95-.55-1.2-3.4zm29.15 1.8c0-.9-.15-2.85-.3-4.25-.3-2.2-.2-2.65.45-2.65 1 0 2.05 4.4 1.65 6.75-.45 2.3-1.8 2.4-1.8.15zm144.3.5c-.5-1.9-.35-2.4.7-2.4.8 0 1 .35 1 1.75 0 2-1.2 2.45-1.7.65zm29.2-.75c0-1.05.15-3.1.3-4.5.3-2.2.5-2.65 1.35-2.65.85 0 .95.25.65 1.55-.15.85-.3 2.9-.3 4.5 0 2.6-.1 2.95-1 2.95-.8 0-1-.35-1-1.85zM271.1 164c0-2.1.15-2.5.95-2.5.8 0 .95.4.95 2.5s-.15 2.5-.95 2.5c-.8 0-.95-.4-.95-2.5zm170.4-.5V162l1.75 1.1c2.2 1.45 2.2 1.9 0 1.9-1.6 0-1.75-.1-1.75-1.5zm20.25.35c-.95-.65-4.75-1.9-7.85-2.65-.8-.15-1.4-.65-1.4-1.05 0-.65.45-.75 2.6-.5 1.45.2 2.7.55 2.8.85.1.25.85.5 1.65.5.8 0 1.45.25 1.45.5 0 .3.55.5 1.25.5 1 0 1.25.25 1.25 1.25 0 1.4-.35 1.55-1.75.6zm-308.45-1.4c-.45-2.3-.35-3.95.2-3.95.65 0 1.35 1.4 1.75 3.65.3 1.65.25 1.85-.65 1.85-.7 0-1.05-.45-1.3-1.55zm202.7-.7c0-2 1.2-2.45 1.7-.6s.35 2.35-.7 2.35c-.8 0-1-.35-1-1.75zm-194.5-.5c0-1.4.2-1.75 1-1.75 1.05 0 1.2.5.7 2.4-.5 1.8-1.7 1.35-1.7-.65zm73.5 0c0-1.4.2-1.75 1-1.75 1.05 0 1.2.5.7 2.4-.5 1.8-1.7 1.35-1.7-.65zm91.8.65c-.45-1.8-.35-2.4.45-2.4.45 0 .75-.45.75-1.25 0-1 .25-1.25 1.2-1.25 1.15 0 1.2.1.65 1.75-.3.95-.7 1.75-.95 1.75-.2 0-.4.55-.4 1.25 0 1.55-1.25 1.65-1.7.15zm109.6-1.65c-.75-2.75-.75-2.75.35-2.75.85 0 1.2.35 1.45 1.55.9 4.55-.6 5.55-1.8 1.2zm-101.4.95c0-1.05.9-2.7 1.5-2.7.3 0 .5.8.5 1.75 0 1.4-.2 1.75-1 1.75-.55 0-1-.35-1-.8zm-145.5-1.5c0-2.2.9-2.1 1.85.2.65 1.55.6 1.6-.6 1.6-1.1 0-1.25-.2-1.25-1.8zm239-.45c0-2.65.65-2.3 2.4 1.4.1.2-.4.35-1.1.35-1.15 0-1.3-.2-1.3-1.75zm20.9.7c-1.45-.8-1.05-1.45.85-1.45 1.4 0 1.75.2 1.75 1 0 1.1-1.2 1.3-2.6.45zm-242.4-1.4c0-.3.55-1.15 1.25-1.9l1.2-1.4.05 1.9c0 1.65-.15 1.85-1.25 1.85-.7 0-1.25-.2-1.25-.45zm61.85-2.55-1.75-3h1.45c1.2 0 1.45.2 1.45 1.25 0 .8.3 1.25.75 1.25.5 0 .75.55.75 1.75 0 .95-.2 1.75-.4 1.75-.25 0-1.25-1.35-2.25-3zm177.5 2.35c-1.2-.95-1.35-4.35-.15-4.35.5 0 .85.8 1.1 2.25.35 2.6.2 3-.95 2.1zm-311.9-1.3c.95-1.35 3.9-3.55 4.75-3.55.15 0 .3.55.3 1.25 0 1.05-.25 1.25-1.5 1.25s-1.5.2-1.5 1.25-.25 1.25-1.55 1.25h-1.5l1-1.45zM261 156.7c0-1.95.45-1.9 2 .3l1.05 1.5h-1.5c-1.45 0-1.55-.15-1.55-1.8zm198.05 0c0-1.6.1-1.75.45-.9.35.95.65 1 2.7.7 2.9-.45 3.05-.6 2.4-2.45-.5-1.45-.5-1.55.75-1.55s1.3.05 1 2.55a25.9 25.9 0 0 1-.45 2.7c-.1.1-1.65.3-3.5.5l-3.4.35.05-1.9zm26.45.35c0-1-.3-1.55-.85-1.7-.5-.15-.05-.25 1-.3 1.8-.05 1.85 0 1.85 1.7 0 1.4-.2 1.75-1 1.75-.75 0-1-.35-1-1.45zM150 157c-.4-.55-1-1-1.3-1a.88.88 0 0 1-.8-.55c-.1-.3-1.8-.7-3.8-.85-3.85-.25-4.95-1.25-2.1-1.85 3.45-.75 8.95 1.3 10.7 4 .8 1.25.8 1.25-.6 1.25-.8 0-1.65-.4-2.1-1zm187.3-.2c.15-.4.85-1.1 1.5-1.55 1.2-.75 1.2-.75 1.2.75 0 1.35-.15 1.5-1.5 1.5-1.05 0-1.4-.2-1.2-.7zM164 155.25c0-1.55.15-1.75 1.25-1.75 1.5 0 1.5.15.4 2.05-1.15 1.9-1.65 1.85-1.65-.3zm188 .2v-1.5l1.5 1.05c2.2 1.55 2.25 2 .3 2-1.65 0-1.8-.1-1.8-1.55zm-245.45.25c.9-1.1 3.9-2.55 6.1-2.95 1.65-.3 1.85-.25 1.85.7 0 .85-.4 1.05-2.5 1.35-1.6.2-2.5.55-2.5 1 0 .45-.6.7-1.8.7-1.6 0-1.75-.1-1.15-.8zm51.55-.95L157 153h1.5c1.4 0 1.5.15 1.5 1.75 0 2.2-.45 2.2-1.9 0zm79.4 0c0-1.6.1-1.75 1.5-1.75h1.5l-1.1 1.75c-1.45 2.2-1.9 2.2-1.9 0zm92.5 0c0-1.6.1-1.75 1.5-1.75h1.5l-1.1 1.75c-1.45 2.2-1.9 2.2-1.9 0zm30.6 0-1.1-1.75h1.5c1.4 0 1.5.15 1.5 1.75 0 2.2-.45 2.2-1.9 0zm-139.1.05c0-.95.2-1.15.95-.95.55.15 1.35.7 1.85 1.2.85.9.8.95-.95.95-1.6 0-1.85-.15-1.85-1.2zm102.1-.55-1.1-1.75h1.5c1.4 0 1.5.15 1.5 1.75 0 2.2-.45 2.2-1.9 0zm110 0-1.1-1.75h1.5c1.4 0 1.5.15 1.5 1.75 0 2.2-.45 2.2-1.9 0zM183 154c0-1.15 1.3-1.3 2.65-.3 1.25 1 1.05 1.3-.9 1.3-1.4 0-1.75-.2-1.75-1zm65 .4c0-1.4 6.3-2.3 9.2-1.3 3.65 1.2 2.65 1.7-3.45 1.7-3.15 0-5.75-.15-5.75-.4zm56 .1c0-.65 1.4-1.35 3.65-1.75 1.65-.3 1.85-.25 1.85.65 0 .7-.45 1.05-1.55 1.3-2.3.45-3.95.35-3.95-.2zm110 0c0-.65 1.4-1.35 3.65-1.75 1.65-.3 1.85-.25 1.85.65 0 .7-.45 1.05-1.55 1.3-2.3.45-3.95.35-3.95-.2zm8-.5c0-1.1 1-1.3 2.55-.5 1.5.8 1.15 1.5-.8 1.5-1.4 0-1.75-.2-1.75-1zm-293.9-.5c-.55-.9-.5-1 .9-1 1.6 0 1.85.45.9 1.4-.8.8-1.05.75-1.8-.4zm48.9.3c0-.65 1.4-1.3 2.9-1.3.3 0 .6.45.6 1 0 .8-.35 1-1.75 1-1.15 0-1.75-.25-1.75-.7zm36.5 0c0-.65 1.4-1.3 2.9-1.3.3 0 .6.45.6 1 0 .8-.35 1-1.75 1-1.15 0-1.75-.25-1.75-.7zm129 0c0-.65 1.4-1.3 2.9-1.3.3 0 .6.45.6 1 0 .8-.35 1-1.75 1-1.15 0-1.75-.25-1.75-.7zm4-.3c0-1.05.5-1.2 2.4-.7 1.8.5 1.35 1.7-.65 1.7-1.4 0-1.75-.2-1.75-1zm101.5-.7c0-.65 1.4-1.3 2.9-1.3.3 0 .6.45.6 1 0 .8-.35 1-1.75 1-1.15 0-1.75-.25-1.75-.7zM168.5 150c0-1.4.15-1.5 1.75-1.5 2.2 0 2.2.45 0 1.9l-1.75 1.1V150zm150.85.05c-1-.8-2.85-1.7-4.1-2.05-2.5-.7-3.1-2-.85-2 2.35 0 3.6.55 3.6 1.55 0 .75.35.95 1.75.95 1.6 0 1.75.1 1.75 1.5 0 .85-.05 1.5-.1 1.5-.1 0-1-.65-2.05-1.45zM206 149.5c0-1.4.15-1.5 1.75-1.5 2.2 0 2.2.45 0 1.9L206 151v-1.5zm57.15.35c-2.1-1.4-2.05-1.85.1-1.85 1.6 0 1.75.1 1.75 1.5 0 .85-.05 1.5-.1 1.45-.1 0-.9-.5-1.75-1.1zm15.35-.85c0-1.45-.2-2-.75-2a.77.77 0 0 1-.75-.75c0-.5.55-.75 1.75-.75 1.6 0 1.75.1 1.75 1.5 0 1 .25 1.5.75 1.5 1.2 0 .9.7-.7 1.65-2 1.15-2.05 1.15-2.05-1.15zm130 .5c0-1.4.15-1.5 1.75-1.5 2.2 0 2.2.45 0 1.9l-1.75 1.1v-1.5zm-72.5-.7c0-1.2.8-1.8 2.5-1.8.5 0 1-.25 1.1-.5.1-.3 1.35-.65 2.8-.85 2.15-.25 2.6-.15 2.6.45 0 .5-.85 1-2.3 1.35-1.3.35-3.2 1.05-4.25 1.55-2.4 1.25-2.45 1.25-2.45-.2zm-111.05 0a23.4 23.4 0 0 0-3.9-1.3c-1.7-.4-2.55-.85-2.55-1.35 0-.65.45-.75 2.6-.5 1.45.2 2.7.55 2.8.85.1.25.75.5 1.4.5.95 0 1.2.25 1.2 1.25 0 1.45.1 1.45-1.55.55zm19.55-.55c0-1.1.2-1.25 1.75-1.25 2.15 0 2.25.7.25 1.75-1.9 1-2 .95-2-.5zm109.45.55a23.4 23.4 0 0 0-3.9-1.3c-1.7-.4-2.55-.85-2.55-1.35 0-.65.45-.75 2.6-.5 1.45.2 2.7.55 2.8.85.1.25.75.5 1.4.5.95 0 1.2.25 1.2 1.25 0 1.45.1 1.45-1.55.55zM443 148c0-1.35.15-1.5 1.5-1.5.85 0 1.5-.2 1.5-.5 0-.25.8-.5 1.75-.5 2.3 0 2.35 1.3.15 1.75-.9.2-2.4.75-3.25 1.3l-1.65.9V148zm-152.65 0c-.3-1.2-1.35-1.25-4.5-.3-2.3.7-2.35.7-2.35-.45 0-1.3 1.45-1.75 5.8-1.75h2.7v1.75c0 1.95-1.2 2.5-1.65.75zm110.15.2c0-.45-.45-.9-1-1.05-1.75-.45-1.2-1.65.75-1.65 1.65 0 1.75.1 1.75 1.75 0 1.2-.25 1.75-.75 1.75-.4 0-.75-.35-.75-.8zm24.9-.15c-3.25-1-3.3-2.3-.15-1.9 2.65.25 2.9.45 2.65 1.7-.15.9-.25.9-2.5.2zm-288.4-.8c0-.85.35-1.2 1.55-1.45 4.55-.9 5.55.6 1.2 1.8-2.75.75-2.75.75-2.75-.35zm36.5 0c0-.85.35-1.2 1.55-1.45 4.55-.9 5.55.6 1.2 1.8-2.75.75-2.75.75-2.75-.35zm283.9.3c-3.25-1-3.3-2.3-.15-1.9 2.65.25 2.9.45 2.65 1.7-.15.9-.25.9-2.5.2zm-347.9-1.05c0-.8.35-1 1.75-1 2 0 2.45 1.2.65 1.7-1.9.5-2.4.35-2.4-.7zm6.9.65c-1.65-.4-1-1.65.85-1.65 1.4 0 1.75.2 1.75 1 0 1-.7 1.15-2.6.65zm66.5 0c-1.65-.4-1-1.65.85-1.65 1.4 0 1.75.2 1.75 1 0 1-.7 1.15-2.6.65zm29.1-.65c0-.8.35-1 1.75-1 2 0 2.45 1.2.65 1.7-1.9.5-2.4.35-2.4-.7zm92.5 0c0-.8.35-1 1.75-1 2 0 2.45 1.2.65 1.7-1.9.5-2.4.35-2.4-.7zm110 0c0-.8.35-1 1.75-1 2 0 2.45 1.2.65 1.7-1.9.5-2.4.35-2.4-.7zm123-140.55c0-1.95 1-2.95 2.95-2.95 1.4 0 1.55.15 1.55 1.55 0 .85-.35 1.85-.75 2.25-.65.7-.75.65-.75-.4 0-2.15-.85-2.65-1.2-.7-.45 2.3-1.8 2.5-1.8.25z"/></g><g fill="#d2d4d4"><path d="M140.8 337.95a7.8 7.8 0 0 1-2.8-1.2c-.45-.4-1.05-.75-1.3-.75-.75 0-2.7-2.35-2.7-3.2 0-.45-.3-.8-.7-.8-.35 0-.8-.5-1-1.1-.65-2.5-.1-8.15.75-7.6.25.15.65-.3.95-1.05l.5-1.3 54.6.3c30.05.2 55.85.3 57.3.3l2.6-.05v3.35h-12.1c-8.8 0-12.15.15-12.3.55-.25.75-7.45.85-7.7.1-.1-.3-5.7-.7-13.65-1-12.7-.45-23.25-.55-54.55-.5h-13.1l-.3 1.7c-.4 2.2.4 5.85 1.4 6.4.45.25.8.75.8 1.1 0 .35 1.45 1.1 3.2 1.7l3.2 1.1h258.85l2.65-1.25c2.1-1 2.65-1.5 2.9-2.75.2-.8.6-1.5.95-1.5.75 0 1.25-1.65.9-3-.15-.55-.6-1-.95-1-.4 0-.7-.45-.7-.95 0-.7-.5-1.1-1.6-1.35-2.2-.5-36.8-.4-65.65.25-14.6.3-25.85.3-29.75.05-3.45-.25-6.65-.5-7.1-.5-.6 0-.9-.4-.9-1.25v-1.25h26.15c14.35-.05 37.45-.15 51.3-.3 24-.3 28.9-.15 28.35.75-.15.2.25.7.95 1.05 1.7.9 3.1 6.7 2.2 9.2-.35.95-1.05 1.85-1.55 1.95-.5.15-.9.6-.9 1s-.4.9-.85 1.05c-.5.2-1.55.7-2.4 1.2-1.4.8-9.45.85-132.75.95-79.4 0-132.05-.15-133.2-.4zm22.1-15.8c-.5-.1-1.4-.1-2 0-.65.1-.25.2.85.2 1.1.05 1.6-.05 1.15-.2zm216.25 0c-.9-.1-2.4-.1-3.25 0-.9.1-.2.2 1.6.2s2.5-.1 1.65-.2zm15 0c-1.7-.1-4.65-.1-6.5 0-1.85.1-.45.15 3.1.15 3.6 0 5.1-.05 3.4-.15z"/><path d="M297.8 321.45c-.55-2.75-.35-4.45.45-4.45.5 0 .85.7 1.05 2 .25 1.55.6 2.1 1.5 2.3 2 .5 1.45 1.7-.75 1.7-1.75 0-1.95-.15-2.25-1.55zM244.5 317v-3.5H0v-3.15l2.25.3c1.25.2 56.6.35 122.95.35l120.7.05.3 1.1c.15.6.3 2.75.3 4.75 0 3.25-.1 3.6-1 3.6s-1-.35-1-3.5zm-2.15-4.35c-1-.1-2.6-.1-3.5 0-.85.1 0 .2 1.9.2 1.95 0 2.65-.1 1.6-.2zm55.65-.35v-1.8h2.45c1.35 0 2.8.15 3.25.3 1.1.4 1 1.7-.05 1.75-.75 0-.75.1.1.45.75.3.3.45-1.6.45-1.4.05-2.9.2-3.35.35-.65.25-.8-.05-.8-1.5zm8.25.7c.85-.35.85-.45.15-.45-.5-.05-.9-.4-.9-.8 0-.65 5.4-.75 45.75-.75s45.75.1 45.75.75c0 .4-.4.75-.85.8-.75 0-.75.1.1.45.55.25-18.9.45-45 .45s-45.55-.2-45-.45zm92 0c.85-.35.85-.45.15-.45-.5-.05-.9-.4-.9-.8 0-.65 8.2-.75 70.95-.75 39 0 71.95-.15 73.25-.3l2.3-.35v3.15l-73.35-.05c-41.4 0-72.95-.2-72.4-.45zm139.25-8.25c0-1.95 1.2-2.5 1.65-.75.35 1.35 1.25 1.25 1.5-.1.15-.7.25-.45.3.75.05 1.8 0 1.85-1.7 1.85-1.65 0-1.75-.1-1.75-1.75zM352.5 193c0-.4 2.55-2 3.25-2 .15 0 .25.55.25 1.25 0 1.1-.2 1.25-1.75 1.25-.95 0-1.75-.2-1.75-.5zm-1-7.75c0-1.1.2-1.25 1.9-1.25l1.85.05-1.4 1.2c-1.8 1.6-2.35 1.55-2.35 0zm-256-3.5c0-1.8 1.25-2.55 1.6-.95.1.65.75.85 2.9.85s2.8-.2 2.9-.85c.35-1.6 1.6-.85 1.6.95v1.75h-9v-1.75zm29.35 1.4c-.2-.15-.35-1.05-.35-2 0-1.9 1-2.25 1.75-.5.45.95.9 1.1 3.1 1.1s2.65-.15 2.8-1c.1-.55.25-.15.3.9l.05 1.85h-3.65c-2.05 0-3.85-.15-4-.35zm30.65-.6c0-.8.35-.9 2.75-.85 2.35.05 2.75-.05 2.9-.95.1-.55.25-.15.3.9l.05 1.85h-3c-2.6 0-3-.15-3-.95zm22.5-.05c0-.9.35-1 2.75-1s2.75.1 2.75 1-.35 1-2.75 1-2.75-.1-2.75-1zm36.5 0c0-.9.35-1 2.75-1s2.75.1 2.75 1-.35 1-2.75 1-2.75-.1-2.75-1zm36.5-.05c0-.9.25-1 2.5-.85 2 .1 2.5.35 2.5 1.05 0 .7-.45.85-2.5.85-2.2 0-2.5-.15-2.5-1.05zm20.5-.7c0-1.9 1.2-2.5 1.65-.8.2.8.55.9 2.65.7 1.35-.15 2.5-.35 2.6-.4.05-.05.2-3.9.35-8.55l.2-9.05c.05-.35.4-.65.8-.65.65 0 .75 1.35.65 10.15l-.15 10.1-4.35.15-4.4.15v-1.8zm21 1.05c0-.85 2.55-1.5 4-1.05.8.25 1.15.1 1.35-.7.45-1.75 1.65-1.25 1.65.7v1.75H296c-2.7 0-3.5-.15-3.5-.7zm27.3-1.15a59.3 59.3 0 0 1-.3-6.25c0-3.4.15-4.4.7-4.4.95 0 1.1 1 1 6.15 0 2.4.1 4.35.25 4.35 4.4.4 5.5.25 5.7-.75.1-.55.25-.15.3.9l.05 1.85h-7.35l-.35-1.85zm24.2.9c0-.8.4-.95 2.75-1 2.4 0 2.75.1 2.75.95s-.35 1-2.75 1c-2.35 0-2.75-.15-2.75-.95zm34.9.6c-1.5-.15-1.9-.4-1.9-1.2 0-.9.25-1 1.9-.75 1 .2 2.9.35 4.25.4 1.9.05 2.35.25 2.35 1 0 .95-1.55 1.05-6.6.55zm16.6-.4c0-.4.4-.8.9-.85.45-.05 1.3-.1 1.85-.15.55-.05 1.3-.15 1.65-.2.3 0 .6-.4.6-.8s.25-.75.5-.75c.3 0 .5.8.5 1.75v1.75h-3c-2.35 0-3-.15-3-.75zm19.9.4c-1.5-.15-1.9-.4-1.9-1.25 0-.9.2-1 1.55-.7.85.15 2.9.3 4.5.3 2.6 0 2.95.1 2.95 1s-.3 1-2.6.9c-1.45-.05-3.5-.15-4.5-.25zm37.6-.35c0-.35.5-.8 1.15-1 2.05-.55 2.85-.35 2.85.7 0 .85-.35 1-2 1-1.35 0-2-.2-2-.7zm29.5-.35c0-.95.2-1.05 1.5-.75 1.5.25 1.5.25 1.6-2.1 0-1.3.05-2.65.05-2.95-.05-.35.4-.65.9-.65.85 0 .95.4.95 3.45 0 3.75-.25 4.05-3.6 4.05-1.1 0-1.4-.25-1.4-1.05zm-261-.55c0-.35 1.05-1.1 2.35-1.65 1.3-.55 2.55-1.05 2.75-1.15.2-.1.4.35.4 1.05 0 .8-.4 1.4-1.25 1.75-1.7.8-4.25.75-4.25 0zm36.5-.05c0-.35.85-.95 1.9-1.35 2.45-.9 5.65-3 5.3-3.55-.15-.25 0-.45.25-.45.3 0 .55.8.55 1.75 0 1.2-.25 1.75-.75 1.75-.4 0-.75.25-.75.5 0 .3-.35.5-.8.5-.4 0-1.1.35-1.5.75-.95.95-4.2 1-4.2.1zm166 .05c0-.35 1-1.05 2.25-1.55 2.9-1.2 4.9-2.8 4.55-3.65-.15-.45.1-.7.7-.7.8 0 1 .35 1 1.75 0 1.6-.1 1.75-1.5 1.75-1.1 0-1.5.25-1.5.9 0 .55-.55 1.2-1.25 1.5-1.7.8-4.25.75-4.25 0zm34-.05c0-.35.85-.95 1.9-1.35l2.25-.9c.2-.1.35.35.35 1.05 0 1.35-.8 1.85-3.05 1.85-.85 0-1.45-.25-1.45-.65zm-272-.35c0-.4 3.5-2.5 4.25-2.5.65 0 .15 2.4-.55 2.7-1.25.45-3.7.35-3.7-.2zm177-.1c0-1.5.65-2.9 1.3-2.9.45 0 .7.6.7 1.75 0 1.4-.2 1.75-1 1.75-.55 0-1-.3-1-.6zm-10.5-.4c0-.4 2.55-2 3.25-2 .15 0 .25.55.25 1.25 0 1.1-.2 1.25-1.75 1.25-.95 0-1.75-.2-1.75-.5zm20.5-.75c0-1.45.1-1.5 2-.5 2 1.05 1.9 1.75-.25 1.75-1.55 0-1.75-.15-1.75-1.25zm100-2.3v-1.5l1.5 1.05c2.2 1.55 2.25 2 .3 2-1.65 0-1.8-.1-1.8-1.55zm-109.4-3.05c.15-1.75.5-3.2.8-3.3.75-.25.8-2.1.1-2.1-.25 0-.5-.8-.5-1.75 0-2.8 1.15-2.05 2.3 1.5 1.05 3.15 1.05 3.25.15 3.25-.8 0-.95.4-.95 2.75 0 2.45-.1 2.75-1.05 2.75-1 0-1.05-.2-.85-3.1zm75.2 2.3c-.45-1.2-.35-3.7.15-3.7.25 0 1.05 1 1.7 2.25l1.3 2.25h-1.45c-.8 0-1.5-.35-1.7-.8zm11.55-.2c-2.25-.4-4.6-2.55-5.45-4.85-.6-1.6-.7-1.7-2.5-1.4-1.7.3-1.9.2-1.9-.7 0-.85.3-1.05 1.75-1.05.95 0 1.75.25 1.75.5 0 .3.55.5 1.25.5.9 0 1.25.25 1.25 1 0 .55.25 1 .5 1 .3 0 .5.65.5 1.45v1.5l4 .35c2.7.2 4 .55 4 .95 0 .35-.5.75-1.1.95-1.3.35-1.45.3-4.05-.2zm-119.85-1.25c0-.4-.2-.75-.4-.75-.65 0-1.6-2.4-1.6-4 0-2.1.8-1.85 2.05.65.6 1.15 1.5 2.7 2.05 3.5l.95 1.35h-1.5c-1.05 0-1.55-.25-1.55-.75zm55-1c0-.9.25-1.25 1-1.25.55 0 1-.2 1-.5 0-.25.85-.5 1.85-.5 1.85 0 1.85 0 .9 1-.55.5-1.85 1.3-2.85 1.75l-1.9.75v-1.25zm-129-.25c0-.8.35-1 1.75-1 1.95 0 2.3.7.8 1.5-1.55.8-2.55.6-2.55-.5zm93.5-.25c0-1.1.2-1.25 1.75-1.25 2.15 0 2.2.5.3 1.65-1.9 1.1-2.05 1.1-2.05-.4zm-165-.5c0-1.1.2-1.25 1.9-1.25l1.85.05-1.4 1.2c-1.8 1.6-2.35 1.55-2.35 0zm51.8.45c-.45-1.2-.35-3.7.15-3.7.25 0 1.05 1 1.7 2.25l1.3 2.25h-1.45c-.8 0-1.5-.35-1.7-.8zm-13.8-1.15c0-1.45.15-1.55 1.8-1.55 1.95 0 1.9.45-.3 2l-1.5 1.05v-1.5zm114.95-.5c-2.25-2.25-2.45-3.05-.7-3.05 1 0 1.25.25 1.25 1.25s.25 1.25 1.25 1.25 1.25.25 1.25 1.25c0 1.75-.8 1.55-3.05-.7zm64.55.2c0-.95.2-1.75.45-1.75s.9.8 1.5 1.75l1 1.75H404c-1.4 0-1.5-.15-1.5-1.75zm56.5 0c0-1.4.2-1.75 1-1.75 1.1 0 1.3 1 .5 2.55-.8 1.5-1.5 1.15-1.5-.8zm9.5-.5c0-2.15.7-2.25 1.75-.25 1 1.9.95 2-.5 2-1.1 0-1.25-.2-1.25-1.75zm-296.7 0-1.4-1.5 1.35-.15c1.7-.2 1.85-.05 1.65 1.75l-.15 1.4-1.45-1.5zm201.75-.85c-1.9-2.55-1.9-2.9-.3-2.9.9 0 1.25.25 1.25 1 0 .55.35 1 .75 1 .5 0 .75.5.75 1.5 0 2.05-.65 1.9-2.45-.6zm-165.65.25c-1-1.1-2.4-4.25-2.4-5.4 0-.4.45-.75.95-.75.7 0 1.05.5 1.3 1.65.2.85.6 1.75.85 1.9.25.15.4 1.05.3 1.95-.15 1.55-.2 1.6-1 .65zm268.15-.95c-1.35-1.75-1.3-2.2.2-2.2 1.1 0 1.25.2 1.25 1.75 0 .95-.1 1.75-.2 1.75-.15 0-.7-.6-1.25-1.3zm-156.55-2.95c0-2.1.15-2.75.75-2.75.75 0 .85.35.85 2.75s-.1 2.75-.85 2.75c-.6 0-.75-.65-.75-2.75zm81.3.9c-.15-1.05-.3-3.1-.3-4.5 0-2.35.1-2.65 1.05-2.65.9 0 1 .2.75 1.9-.2 1 0 3 .35 4.5.7 2.55.7 2.6-.4 2.6-.9 0-1.2-.35-1.45-1.85zM124.5 166c0-2.8.15-3.5.75-3.5.4 0 .75.3.8.65 0 .3.1 1.15.2 1.85.35 2.1-.25 4.5-1 4.5-.6 0-.75-.75-.75-3.5zm110.05 3.05c-.85-.55-.25-3.55.75-3.55.7 0 1.7 1.9 1.7 3.3 0 .75-1.35.95-2.45.25zm8.3-.4c-.2-.15-.35-.6-.35-1 0-.5 2.7-.65 14.2-.65h14.2l.3-1.75c.2-1.05.65-1.75 1.05-1.75.5 0 .75.55.75 1.75 0 .95-.2 1.75-.5 1.75-.25 0-.5.45-.5 1 0 1-.35 1-14.4 1-7.95 0-14.6-.15-14.75-.35zM408.5 168c0-.95.35-1 4.5-1s4.5.05 4.5 1-.35 1-4.5 1-4.5-.05-4.5-1zm16.5-.05c0-.95.25-1 5.85-.9 5.3.05 5.9 0 6.2-.85.25-.7.4-.4.4.95l.05 1.85h-6.25c-5.95 0-6.25-.05-6.25-1.05zm-69-1.2c0-1.4.2-1.75 1-1.75 1.05 0 1.2.5.7 2.4-.5 1.8-1.7 1.35-1.7-.65zm95 .75c0-1.05.5-1.2 2.4-.7 1.8.5 1.35 1.7-.65 1.7-1.4 0-1.75-.2-1.75-1zm-253-2.2c0-1.45.15-3.7.3-5 .3-2 .5-2.3 1.5-2.3 1.1 0 1.15.1.65 1.4-.3.75-.6 3-.6 5-.05 3.1-.2 3.6-.95 3.6s-.9-.45-.9-2.7zm276.3 1.6c-.5-1.9-.35-2.4.7-2.4.8 0 1 .35 1 1.75 0 2-1.2 2.45-1.7.65zm-305.5-1.1c-.55-2.3 1-7.65 1.95-6.7.6.55-.35 7.9-1 7.9-.35 0-.8-.55-.95-1.2zm202.5.1c-.5-1.9-.35-2.4.7-2.4.8 0 1 .35 1 1.75 0 2-1.2 2.45-1.7.65zm91.35-1.55c-2.1-1.4-2.05-1.85.1-1.85 1.6 0 1.75.1 1.75 1.5 0 .85-.05 1.5-.1 1.45-.1 0-.9-.5-1.75-1.1zm-309.15-1.6c0-2 1.2-2.45 1.7-.6s.35 2.35-.7 2.35c-.8 0-1-.35-1-1.75zm36.5-1.5c0-1.95.7-2.3 1.5-.8.8 1.55.6 2.55-.5 2.55-.8 0-1-.35-1-1.75zm108 .95c0-1.05.9-2.7 1.5-2.7.3 0 .5.8.5 1.75 0 1.4-.2 1.75-1 1.75-.55 0-1-.35-1-.8zm141.1-.45c-.8-1.7-.75-4.25.05-4.2.3 0 1.2 1.25 1.9 2.75l1.3 2.7H441c-.95 0-1.5-.35-1.9-1.25zm35.4.25c0-.95.35-1 5.45-1h5.45l.2-2.25c.2-2.7.05-3.25-.9-3.25-.4 0-.7-.2-.7-.5 0-.25.8-.5 1.75-.5h1.75v3.95c0 4.7.3 4.55-7.6 4.55-5.05 0-5.4-.05-5.4-1zm-111.2-1.1c-.5-1.9-.35-2.4.7-2.4.8 0 1 .35 1 1.75 0 2-1.2 2.45-1.7.65zm-239.8-1.2c0-2.2.9-2.1 1.85.2.65 1.55.6 1.6-.6 1.6-1.1 0-1.25-.2-1.25-1.8zm212.05-.05c.6-1.65 1.6-2.9 3.85-4.75 2.05-1.75 2.6-1.75 2.6-.15 0 1-.25 1.25-1.25 1.25-.9 0-1.25.25-1.25 1 0 .65-.35 1-1 1-.8 0-1 .35-1 1.5 0 1.25-.2 1.5-1.2 1.5-1.15 0-1.2-.1-.75-1.35zm-175.5-1-.85-2.5c-.2-.45.15-.65.95-.65 1.3 0 1.85 1 1.85 3.65 0 2-1.25 1.7-1.95-.5zm-8.05.1c0-.9-.25-1.25-1-1.25-.8 0-1-.35-1-1.5 0-1.3.1-1.45.9-.95a13.5 13.5 0 0 1 3.4 4.15c.25.6 0 .8-1 .8-1.05 0-1.3-.25-1.3-1.25zm202.5.5c0-.4-.2-.75-.5-.75-.25 0-.5-.65-.5-1.5 0-2 .7-1.9 2.25.35 1.55 2.35 1.55 2.65 0 2.65-.8 0-1.25-.3-1.25-.75zm-192-1.2c0-2.25.5-3.05 1.85-3.05.7 0 1.15.15 1.05.4-.1.2-.5 1.2-.9 2.25-.85 2.2-2 2.45-2 .4zm117.5 1c0-.7 2.4-3.4 4.05-4.6l1.45-1v1.5c0 1.4-.15 1.55-1.5 1.55s-1.5.15-1.5 1.5c0 1.25-.2 1.5-1.25 1.5-.7 0-1.25-.2-1.25-.45zm45.25-2.05c-1.55-3-1.55-3-.1-3 1.35 0 2.35 1.7 2.35 4 0 2.2-.8 1.85-2.25-1zm102.25.65.05-1.9 1.2 1.4c1.6 1.8 1.55 2.35 0 2.35-1.1 0-1.25-.2-1.25-1.85zm7.75-.65c-1.55-3-1.55-3-.1-3 1.35 0 2.35 1.7 2.35 4 0 2.2-.8 1.85-2.25-1zm-25.75 1.5c0-.95 3.25-4 5.15-4.75 1.85-.75 1.85-.75 1.85.5 0 .9-.25 1.25-1 1.25-.55 0-1 .25-1 .5 0 .3-.55.5-1.25.5-1 0-1.25.25-1.25 1.25s-.25 1.25-1.25 1.25c-.7 0-1.25-.25-1.25-.5zm36.8-.3c-1.15-1.1-1-1.7.45-1.7 1 0 1.25.25 1.25 1.25 0 1.45-.6 1.6-1.7.45zm13.2-.55c0-.65.45-.95 1.75-1 1.45-.15 1.75 0 1.75.85 0 .8-.35 1-1.75 1-1.35 0-1.75-.2-1.75-.85zm-97.75-1.15c-1-1.9-.95-2 .5-2 1.1 0 1.25.2 1.25 1.75 0 2.15-.7 2.25-1.75.25zm-116.9.25c.5-.85 3.65-3.25 4.25-3.25.2 0 .4.55.4 1.25 0 .9-.25 1.25-1 1.25-.55 0-1 .35-1 .75 0 .5-.5.75-1.5.75-1.2 0-1.45-.15-1.15-.75zM135 156.5c0-.5 3-2.55 4.65-3.15.65-.25.85-.05.85.9 0 1-.25 1.25-1.25 1.25-.8 0-1.25.3-1.25.75 0 .5-.5.75-1.5.75-.8 0-1.5-.2-1.5-.5zm60.35-.95c-1.1-1.9-1.1-2.05.4-2.05 1.1 0 1.25.2 1.25 1.75 0 2.15-.5 2.2-1.65.3zm64.15-.1v-1.5L261 155c.85.6 1.5 1.3 1.5 1.55s-.65.45-1.5.45c-1.35 0-1.5-.15-1.5-1.55zm-87.25.55c.15-.25.95-.95 1.75-1.5l1.5-1.05v1.5c0 1.45-.15 1.55-1.8 1.55-1 0-1.65-.2-1.45-.5zm13.25-.75c0-1.55.55-1.6 2.35 0l1.4 1.2-1.85.05c-1.7 0-1.9-.15-1.9-1.25zm23.55.45c.55-.7 4.05-2.7 4.7-2.7.15 0 .25.55.25 1.25 0 .9-.25 1.25-1 1.25-.55 0-1 .25-1 .5 0 .3-.8.5-1.8.5-1.6 0-1.75-.1-1.15-.8zm92.7-.2c.55-.5 1.85-1.3 2.9-1.75l1.85-.75v1.25c0 .9-.25 1.25-1 1.25-.55 0-1 .25-1 .5 0 .3-.85.5-1.85.5-1.85 0-1.85 0-.9-1zm143.75-.4c0-1.4 2-2.95 4.4-3.35 1.85-.3 2.1-.25 2.1.65 0 .8-.45 1.05-2.25 1.3-1.8.3-2.25.55-2.25 1.35 0 .6-.35.95-1 .95s-1-.35-1-.9zm11.5-.95.05-1.9 1.2 1.4c1.6 1.8 1.55 2.35 0 2.35-1.1 0-1.25-.2-1.25-1.85zm-348.9.75c.15-.35.95-.9 1.8-1.25 1.55-.65 1.6-.6 1.6.6 0 1.1-.2 1.25-1.8 1.25-1.15 0-1.7-.2-1.6-.6zm365.9-.4c0-.65.35-1 1-1s1 .35 1 1-.35 1-1 1-1-.35-1-1zm-272-1.2c0-1.65.1-1.8 1.55-1.8h1.5L204 153c-1.55 2.2-2 2.25-2 .3zm-87.5.2c0-1.05.5-1.2 2.4-.7 1.8.5 1.35 1.7-.65 1.7-1.4 0-1.75-.2-1.75-1zm66 0c0-1.05.5-1.2 2.4-.7 1.8.5 1.35 1.7-.65 1.7-1.4 0-1.75-.2-1.75-1zm107 .3c0-.4.65-.85 1.45-1.05.85-.15 1.6-.7 1.7-1.15.15-.45.25 0 .3 1.05.05 1.8 0 1.85-1.7 1.85-1.2 0-1.75-.25-1.75-.7zm22-.3c0-1.05.5-1.2 2.4-.7 1.8.5 1.35 1.7-.65 1.7-1.4 0-1.75-.2-1.75-1zm110 0c0-1.05.5-1.2 2.4-.7 1.8.5 1.35 1.7-.65 1.7-1.4 0-1.75-.2-1.75-1zm44.35-1.25-1.3-2.25H464c1.5 0 2 .75 2 3.05 0 2.05-.7 1.8-2.15-.8zm-56.85-1.7c0-1.4.15-1.55 1.5-1.55 1.15 0 1.5-.2 1.5-1s.35-1 1.75-1c2.2 0 2.25.7.15 1.8-.9.45-2.4 1.4-3.25 2.1l-1.65 1.2v-1.55zm33.5-.3c0-1.7.05-1.75 1.85-1.75h1.85l-1.7 1.75c-.95.95-1.75 1.75-1.85 1.75-.1 0-.15-.8-.15-1.75zm-337-.75c0-1 .25-1.5.75-1.5.4 0 .75-.2.75-.5 0-.25.8-.5 1.75-.5s1.75.2 1.75.45c0 .2-1.1 1.1-2.5 1.95l-2.5 1.55v-1.45zm139 0c0-1.3.25-1.55 1.5-1.8.85-.2 1.5-.5 1.5-.75s.7-.45 1.5-.45c.85 0 1.5-.2 1.5-.5 0-.25.8-.5 1.75-.5 2.7 0 2.15 1.15-1 2.15-1.5.45-3.65 1.4-4.75 2.1l-2 1.25v-1.5zm92.5 0c0-1.4.15-1.5 1.75-1.5 2.2 0 2.2.45 0 1.9L335 151v-1.5zm20.65.35c-2.1-1.4-2.05-1.85.1-1.85 1.6 0 1.75.1 1.75 1.5 0 .85-.05 1.5-.1 1.45-.1 0-.9-.5-1.75-1.1zm-166.25-.25c-1.85-1.1-1.75-1.6.35-1.6 1.55 0 1.75.15 1.75 1.25 0 1.45-.3 1.5-2.1.35zm89.25-.8c.25-1.5.15-1.75-.8-1.95-.65-.1-.3-.25.8-.3 1 0 1.85.2 1.85.45 0 .35.3.35.95 0 1.25-.65 4.05-.65 4.05 0 0 .5-5.55 3.5-6.55 3.5-.4 0-.5-.6-.3-1.7zm-145.15.05c0-1.35 1.7-2.35 4-2.35 2.2 0 1.85.8-1 2.25-3 1.55-3 1.55-3 .1zm36.5-.1c0-1.1.2-1.25 1.75-1.25 2.15 0 2.25.7.25 1.75-1.9 1-2 .95-2-.5zm37.5-.4c0-1.35.8-1.85 3.05-1.85 2.05 0 1.8 1.15-.4 2-1.05.4-2.05.8-2.25.9-.25.1-.4-.35-.4-1.05zm92.5-.1c0-1.1.2-1.25 1.75-1.25 2.15 0 2.25.7.25 1.75-1.9 1-2 .95-2-.5zm71 0c0-.8-.3-1.25-.75-1.25-.4 0-.75-.2-.75-.5 0-.25.8-.5 1.75-.5 1.65 0 1.75.1 1.75 1.75 0 1.4-.2 1.75-1 1.75-.75 0-1-.35-1-1.25zm-224.6-1.1c-1.65-.4-1-1.65.85-1.65 1.4 0 1.75.2 1.75 1 0 1-.7 1.15-2.6.65zm110 0c-1.65-.4-1-1.65.85-1.65 1.4 0 1.75.2 1.75 1 0 1-.7 1.15-2.6.65zM538.5 4.25c0-1.65.1-1.75 1.75-1.75s1.75.1 1.75 1.75c0 2-1.2 2.45-1.7.65l-.35-1.15-.45 1.15c-.65 1.6-1 1.35-1-.65z"/></g><g fill="#c4c6c7"><path d="M139.4 336.5c-1.3-.5-2.45-.75-2.6-.6-.15.1-.5-.35-.8-1.1-.25-.75-.7-1.25-.95-1.05-.3.15-.8-1.15-1.1-2.85-.55-2.6-.7-2.95-1-1.9-.25.95-.35.6-.4-1.3-.05-1.9.15-2.65.7-2.9.4-.15.75-.75.75-1.3 0-1 .25-1 13.5-1 13.15 0 13.5 0 13.5 1 0 .95-.35 1-10.25 1-8.8 0-10.25-.1-10.25-.75 0-.55-.55-.75-2-.75-2.4 0-3 .9-3 4.45 0 2 .2 2.6 1 3.05.55.3 1 .85 1 1.2 0 .4.45.8 1 .95.55.15 1 .6 1 1 0 .55.75.85 2.65 1.1 4.05.45 262.5.05 263.5-.45.45-.2.85-.7.85-1.1 0-.4.3-.7.7-.7 1.05 0 1.7-3.8 1.15-6.1-.35-1.35-.75-1.9-1.4-1.9-.6 0-.95-.35-.95-1 0-1.05.8-1.25 2.9-.7.65.2 1.1.7 1.1 1.25s.3.95.7.95c1.55 0 1.75 6.45.25 6.85-.45.15-1 .9-1.15 1.7-.2 1.2-.8 1.75-2.9 2.7l-2.65 1.25-131.25-.05c-124.8-.05-131.35-.1-133.6-.95z"/><path d="M161 333c0-.25-.35-.5-.75-.5-.5 0-.75-.55-.75-1.75V329h6.7c4.9 0 6.8.15 6.95.65.2.5.3.5.3 0 .05-.45 1-.65 3.05-.65h3v3.5h-3c-1.65 0-3 .2-3 .5s-2.4.5-6.25.5-6.25-.2-6.25-.5zm46.5-1.2c0-1.5.15-1.7 1.65-2 .85-.15 7.2-.45 14.05-.65 13.65-.3 13.3-.4 13.3 2.75v1.6h-29v-1.7zm109.5 0c0-1.1.3-1.8.8-2 1-.4 4.15-.4 6.15 0 1.35.3 1.55.5 1.55 2v1.7H317v-1.7zm-117-5c-13.75-.55-17.05-.8-18.35-1.45-1.3-.7-3.2-.85-10.4-.85-8.65 0-8.75 0-8.75-1.1v-1.05l24.4.35c29 .45 32.15.55 32.7 1.4.3.5.5.5.9-.1.3-.5.5-.55.5-.1 0 .3.25.6.55.6.25 0 .35-.3.15-.6-.25-.4 0-.35.55.1.5.4.8.5.6.2-.25-.45 1.35-.7 5.6-.95 3.3-.2 6.2-.2 6.5-.05.25.15 2.1.15 4.15-.05l3.65-.35-4.75-.6-4.75-.55 5-.1c2.75-.05 5.3-.25 5.6-.45.85-.5 1.35-4.55.95-6.8l-.35-1.8h-121.1c-66.6 0-121.6-.15-122.2-.3-.65-.2-1.15-.65-1.15-1 0-.6 18.4-.7 121.7-.7 66.9 0 122.35.15 123.2.3 1.5.3 1.55.45 1.9 3.65.2 1.85.15 4.1-.15 5.15l-.5 1.9h51.4l-.35-3.2c-.2-1.75-.15-4.25 0-5.5l.35-2.3H420.8c107.45 0 123.2.1 123.2.75 0 .4-.65.8-1.6 1-.9.15-55.9.2-122.25.15-66.3-.1-120.45-.05-120.3.1.1.15 2.3.4 4.8.55l4.6.25-5.1.1-5.15.1v2.45c0 1.35.15 3.15.3 4l.35 1.55 5.05.1c4.15.05 4.6.1 2.55.4l-2.5.35 2 .1c1.1.05 2.45.2 3 .35 1.75.35 14.05.35 53.15-.05l38.1-.4v2.15h-14.85c-8.6.05-15.85.25-17.15.55-5 1.2-18.55 1.45-81.25 1.65-36 .1-66.75.3-68.25.45-1.5.15-10.3-.05-19.5-.35zm46.9-3.65c-.5-.1-1.3-.1-1.75 0-.5.15-.1.25.85.25s1.35-.1.9-.25z"/><path d="M134.5 321.4c0-.2.8-.4 1.75-.4s1.75.1 1.75.2-.8.3-1.75.4c-.95.1-1.75 0-1.75-.2zM1.9 313.15c.6-.1 1.5-.1 2 0 .45.15-.05.25-1.15.2-1.1 0-1.5-.1-.85-.2zm16 0c1.45-.1 3.7-.1 5 0 1.3.1.1.15-2.65.15s-3.8-.05-2.35-.15zm16.5 0c.6-.1 1.5-.1 2 0 .45.15-.05.25-1.15.2-1.1 0-1.5-.1-.85-.2zm14 0c.6-.1 1.5-.1 2 0 .45.15-.05.25-1.15.2-1.1 0-1.5-.1-.85-.2zm6 0c.6-.1 1.5-.1 2 0 .45.15-.05.25-1.15.2-1.1 0-1.5-.1-.85-.2zm6 0c.6-.1 1.5-.1 2 0 .45.15-.05.25-1.15.2-1.1 0-1.5-.1-.85-.2zm26.5 0c.9-.1 2.25-.1 3 0s0 .2-1.65.2-2.25-.1-1.35-.2zm11.5 0c.6-.1 1.5-.1 2 0 .45.15-.05.25-1.15.2-1.1 0-1.5-.1-.85-.2zm43.2 0c17.75-.1 47-.1 65 0 17.95.05 3.4.1-32.35.1s-50.45-.05-32.65-.1zm171.3 0c.9-.1 2.25-.1 3 0s0 .2-1.65.2-2.25-.1-1.35-.2zm14.2 0c5.4-.1 14.4-.1 20 0 5.6.05 1.15.1-9.85.1s-15.55-.05-10.15-.1zm37.8 0c.9-.1 2.25-.1 3 0s0 .2-1.65.2-2.25-.1-1.35-.2zm12.5 0c1.15-.1 2.95-.1 4 0 1 .1.05.2-2.15.2-2.2 0-3.05-.1-1.85-.2zm24.7 0c10.35-.1 27.45-.1 38 0 10.55.05 2.05.1-18.85.1-20.9 0-29.5-.05-19.15-.1zm62.3 0c.6-.1 1.5-.1 2 0 .45.15-.05.25-1.15.2-1.1 0-1.5-.1-.85-.2zm8 0c.6-.1 1.5-.1 2 0 .45.15-.05.25-1.15.2-1.1 0-1.5-.1-.85-.2zm4 0c.6-.1 1.5-.1 2 0 .45.15-.05.25-1.15.2-1.1 0-1.5-.1-.85-.2zm6.5 0c.9-.1 2.25-.1 3 0s0 .2-1.65.2-2.25-.1-1.35-.2zm7.5 0c1.7-.1 4.4-.1 6 0 1.55.1.15.15-3.15.15s-4.6-.05-2.85-.15zm12 0c1.7-.1 4.4-.1 6 0 1.55.1.15.15-3.15.15s-4.6-.05-2.85-.15zm13.2 0c2.4-.1 6.45-.1 9 0 2.55.05.6.15-4.35.15-4.95 0-7.05-.1-4.65-.15zM2 284.25c0-1.65.1-1.75 1.75-1.75s1.75.1 1.75 1.75S5.4 286 3.75 286 2 285.9 2 284.25zm0-44c0-1.65.1-1.75 1.75-1.75s1.75.1 1.75 1.75S5.4 242 3.75 242 2 241.9 2 240.25zm342.9-45.05c-.25-.2-.4-2.2-.4-4.45v-4.1l1.65-.35c2.55-.5 5.7-1.95 6.3-2.85.45-.8.35-.8-1.1-.4-3.8 1.1-12.85.15-12.85-1.35 0-.4-.5-.7-1.3-.7-2.1 0-3.2-.85-3.2-2.55v-1.5l2.2 1.5c6.35 4.4 13.3 4.4 20.15.05 1.8-1.15 1.9-.25.35 2.85-1.65 3.3-5.05 5.95-8.25 6.45l-1.95.35v5.35h1.75c2.15 0 5.35-1.2 8.15-3.15l2.15-1.45-.15 1.65c-.1 1.35-.45 1.8-1.65 2.2-.8.25-1.6.65-1.75.85-.85 1.1-9.3 2.45-10.1 1.6zm15.8-9.3c1.65-2.5 2.45-4.8 3.05-9 .4-2.65 1.75-2.6 1.75.1 0 2.6-.95 7-1.55 7-.25 0-.45.55-.45 1.25s-.35 1.4-.75 1.55c-.4.2-.75.6-.75 1 0 .45-.55.7-1.5.7H359l1.7-2.6zM99 182.8c0-.8 1.6-1.3 3-.95 1.85.5 1.15 1.65-1 1.65-1.35 0-2-.2-2-.7zm55-1.05c0-1.95 1.2-2.5 1.65-.75.15.55.6 1 1.05 1 .45 0 .8.35.8.75 0 .5-.55.75-1.75.75-1.65 0-1.75-.1-1.75-1.75zm21.4 1.25c-2.7-.5-5.9-2.05-5.9-2.85 0-.35-.4-.65-.95-.65-.5 0-1.75-.9-2.75-2-1.35-1.5-1.8-2.45-1.8-3.75 0-.95.25-1.75.5-1.75.3 0 .5.2.5.45 0 .3 1.25 1.8 2.75 3.45 4.9 5.3 11.95 7.15 18.65 4.9 5.1-1.75 9.9-7.4 11.15-13.3.3-1.4.8-2.5 1.15-2.5.4 0 1 1.35 1.45 3.25 2.3 9.4 11 14.8 21 13.1 2.15-.35 2.35-.3 2.35.55 0 .75-.45 1.05-1.85 1.3-4.55.75-11.15.15-11.15-1 0-.45-.6-.7-1.75-.7-.95 0-1.75-.2-1.75-.5 0-.25-.35-.5-.75-.5a.77.77 0 0 1-.75-.75c0-.4-.4-.75-.9-.75-1.15 0-2.1-.95-2.1-2.1 0-.5-.35-.9-.75-.9a.77.77 0 0 1-.75-.75c0-.4-.2-.75-.5-.75-.25 0-.5-.45-.5-1s-.2-1-.5-1c-.25 0-.5-.4-.55-.85 0-.5-.35-.05-.8 1-.5 1.2-1.1 1.85-1.7 1.85-.7 0-.95.35-.95 1.5s-.2 1.5-1 1.5c-.65 0-1 .35-1 1s-.35 1-1 1c-.55 0-1 .35-1 .75 0 .5-.5.75-1.5.75-.95 0-1.5.25-1.5.7 0 1.45-8.2 2.25-13.1 1.3zm72.2-.3c-3.1-.8-4.6-1.55-4.6-2.2 0-.3-.35-.5-.75-.5-.5 0-.75-.5-.75-1.5v-1.55l2.25 1.55a18.23 18.23 0 0 0 14.15 2.85c1.9-.4 2.1-.35 2.1.55 0 .7-.45 1.05-1.55 1.3-2.6.5-8.05.3-10.85-.5zm42.9-.95c0-1.95 1.2-2.5 1.65-.75.15.55.6 1 1.05 1 .45 0 .8.35.8.75 0 .5-.55.75-1.75.75-1.65 0-1.75-.1-1.75-1.75zm86.25 1.05c-1.35-.4-2.55-.95-2.65-1.25-.1-.3-.6-.55-1.15-.55-.5 0-.95-.2-.95-.5 0-.25-.3-.5-.65-.5-.35 0-1.5-.85-2.5-1.9-1.35-1.4-1.85-2.3-1.85-3.5 0-.9.05-1.6.15-1.6.05 0 1.7 1.5 3.6 3.4 4.2 4.05 7.1 5.25 12.45 5.25 3.7 0 6.75-1 9.8-3.15l1.5-1.05v2.05c0 1.65.2 2.15 1 2.35 1.75.45 1.2 1.65-.75 1.65-1.4 0-1.75-.2-1.75-1 0-.85-.25-.95-1.6-.65-.9.15-1.8.55-2 .8-.5.85-9.85.95-12.65.15zm21.75-.05c0-.4.35-.75.8-.75.45 0 .9-.45 1.05-1 .45-1.75 1.65-1.2 1.65.75 0 1.65-.1 1.75-1.75 1.75-1.2 0-1.75-.25-1.75-.75zm16.5.4c-2.05-.3-5.5-1.7-5.5-2.2 0-.25-.35-.45-.75-.45s-.75-.2-.75-.5c0-.25-.3-.5-.65-.5-.8 0-2.85-2.1-2.85-2.9 0-.35-.2-.6-.5-.6-.25 0-.5-.55-.5-1.25 0-.75-.3-1.25-.7-1.25-.75 0-1.3-1.5-1.3-3.6 0-.8-.2-1.4-.5-1.4-.25 0-.5-.8-.5-1.75 0-2.3 1.3-2.35 1.75-.1.8 3.75 2.15 6.6 4.4 9.1 4.3 4.85 10.15 6.75 17 5.6 2.15-.35 2.35-.3 2.35.55 0 .75-.45 1.05-1.85 1.3-2 .3-7.05.3-9.15-.05zm32.15 0c-.9-.1-1.65-.4-1.65-.7 0-.25-.55-.45-1.25-.45s-1.25-.2-1.25-.5c0-.25-.3-.5-.65-.5-1.1 0-2.85-2.25-2.85-3.65 0-.85-.25-1.35-.75-1.35s-.75-.55-.75-1.75c0-2.35.85-2.2 1.95.4 1.65 3.7 5.9 6.85 9.4 6.85 2.15 0 3.65.55 3.65 1.3 0 .7-2 .8-5.85.35zm6.85-.35c0-.5 1-.95 2.9-1.3 4.8-1 8-3.6 9.15-7.5.35-1.1.9-2 1.3-2 .35 0 .65-.45.65-1s-.3-1-.7-1c-.4 0-.85-.65-1.05-1.45-.15-.85-1.2-2.3-2.25-3.25-1.9-1.7-2.95-2.1-13.4-5.1-1.4-.4-3.2-1.3-4-1.95l-1.35-1.2 1.9-.05c1 0 1.85.2 1.85.4s1.5.8 3.4 1.25c8.55 2.25 10.6 3 10.6 3.85 0 .65.5.95 1.75 1.1l1.75.2V158l-4.2.3-4.2.35-.3-1.45c-.3-1.4-2.95-3.7-4.2-3.7-.35 0-.6-.5-.6-1.05 0-.95.2-1.05 1.6-.75 2.3.45 3.65 1.45 4.6 3.5.8 1.75.9 1.8 2.95 1.5 2.7-.4 3.05-.75 2.6-2.65-.8-3.65-5.8-7.05-10.35-7.05-2.1 0-2.4-.15-2.4-1.05 0-1 .15-1.05 3.35-.7 3.45.35 7.15 1.55 7.15 2.25 0 .2.45.5 1 .65.75.2 1 .7 1 2.05 0 1.45.2 1.8 1 1.8.95 0 1-.35 1-9.25v-9.25h1.75c1.2 0 1.75.25 1.75.75 0 .4-.35.75-.75.75-.65 0-.75 2.05-.75 15.25 0 14.9 0 15.25-1 15.25-.55 0-1 .2-1 .45s.45.35.95.2c.75-.2 1 .1 1.3 1.45.55 2.8 1.35 4.55 3.3 7.2a17.47 17.47 0 0 0 10.1 6.5c2.25.6 3.35 1.1 3.35 1.6 0 .6-.5.7-2.65.45-3.4-.4-7.35-1.8-7.7-2.65-.15-.4-.55-.7-.95-.7-.45 0-.7-.55-.7-1.5 0-1.35-.15-1.5-1.5-1.5-1.15 0-1.5-.2-1.5-1 0-.55-.35-1-.75-1s-.75-.45-.75-1c0-1.8-.85-1.05-1.2 1-.2 1.25-.6 2-1 2-.45 0-.8.6-.9 1.4-.1.95-.45 1.4-1.25 1.5-.65.1-1.15.5-1.15.9 0 .45-.55.7-1.75.7-1.15 0-1.75.25-1.75.7 0 .4-.75.8-1.85 1-3 .45-4.15.35-4.15-.4zm-294.5-.3c0-.25.35-.5.75-.5.6 0 .75-.65.75-2.75 0-2.4.1-2.75 1-2.75s1 .35 1 3.25V183h-1.75c-.95 0-1.75-.2-1.75-.5zm65-1.85c0-.25 1.05-1.05 2.25-1.9 4.85-3.2 7.1-7.5 7.8-14.65.5-5.5 1.7-9.6 2.75-9.6.4 0 .7-.5.7-1.15 0-1.75 3.45-4.85 5.4-4.85.9 0 1.6.1 1.6.2 0 .15-1.35 1.5-2.95 3.05-3.65 3.45-5.1 6.6-5.45 11.6-.25 4.25.65 7.8 2.95 11.05l1.5 2.1h-1.5c-1.45 0-1.55-.15-1.55-1.75 0-1.4-.2-1.75-1-1.75s-1-.35-1.05-1.6c-.05-.9-.15-1.25-.3-.75-.1.45-.45.85-.7.85-.25 0-.45.55-.45 1.25 0 .9-.25 1.25-.95 1.25-.75 0-1.05.4-1.15 1.65-.1 1.2-.4 1.65-1.25 1.75-.75.1-1.15.5-1.15 1.2 0 .55-.4 1.1-1 1.25-.55.15-1 .45-1 .7 0 .25-.8.45-1.75.45s-1.75-.15-1.75-.35zm202.5-.05c0-.2.9-.9 2-1.6 1.1-.7 2-1.45 2-1.75 0-.3-.7-1.35-1.5-2.35l-1.5-1.85-2.8 1.5c-3.3 1.7-5.2 1.9-5.2.5 0-.75.5-1.05 2-1.3 1.1-.2 2-.55 2-.8s.35-.45.75-.45.75-.25.75-.55c0-.3.95-.45 2.4-.35 2 .15 2.35.3 2.5 1.3.1.6.5 1.1.85 1.1.9 0 1.75 1.55 1.75 3.25 0 1.35-1 2.75-1.95 2.75-.3 0-.55.25-.55.5 0 .3-.8.5-1.75.5s-1.75-.15-1.75-.4zm-165-.45c0-.25.8-.9 1.75-1.55 1.95-1.25 1.9-1.45-.45-4.3l-1.2-1.45-1.4 1c-1.5 1.05-4.35 2.15-5.5 2.15-.4 0-.7-.45-.7-1 0-.8.35-1 1.5-1 .85 0 1.5-.2 1.5-.5 0-.25.3-.5.7-.5.4 0 .8-.25.9-.6.15-.45 1-.45 3.2-.1 2.5.4 2.95.6 3.1 1.6.1.6.5 1.1.9 1.1.5 0 .7.65.7 2.25 0 1.65-.2 2.25-.75 2.25-.4 0-.75.25-.75.5 0 .3-.8.5-1.75.5s-1.75-.15-1.75-.35z"/><path d="M485.85 177c-.15-.65-.7-1-1.45-1-.65 0-2.4-.6-3.8-1.3-4-2-6.6-6.4-6.6-11.3 0-2.15.45-2.55 2.25-2.1 1.35.35 1.75 1.7.45 1.7-.65 0-.75.35-.55 1.65.95 5.7 1 5.85 1.9 5.85.5 0 1.2.45 1.55 1 .35.55.9 1 1.25 1s.65.2.65.45 1.35.7 3 1.1c2.9.65 3 .7 3 2.3 0 1.85-1.2 2.3-1.65.65zm-33.95.1c-1.65-.35-1-1.6.85-1.6.95 0 2.5-.35 3.45-.8 2.5-1.2 3.85-4.7 1.8-4.7-1.5 0-5.5-1.15-5.5-1.6 0-.2-.6-.4-1.3-.4-1.85 0-5.7-1.05-5.7-1.55 0-.25-.55-.45-1.2-.45-.7 0-1.55-.35-2-.75-.4-.4-.95-.75-1.25-.75-.3 0-.55-.85-.55-1.85v-1.85l1.4 1.35c1.8 1.7 4.75 2.95 10.85 4.6 5.55 1.5 7.05 2.25 7.8 3.95.75 1.6-.55 4.5-2.4 5.45-1.5.75-4.85 1.3-6.25.95z"/><path d="M448.7 176.5c-1.15-.45-3.3-3.1-3.85-4.6-.25-.7-.05-.9.9-.9 1.1 0 1.25.2 1.25 1.75 0 1.6.1 1.75 1.5 1.75 1.25 0 1.5.2 1.5 1.25 0 .7-.05 1.25-.1 1.2-.1 0-.65-.2-1.2-.45zm-272.95-1.45c-4.35-1.95-8.85-9.05-5.8-9.05 1 0 1.55 1.25 1.55 3.65 0 1.1.2 1.35 1.25 1.35.8 0 1.25.3 1.25.75 0 .4.45.75 1 .75s1 .2 1 .45.8.6 1.75.75c1.3.25 1.75.6 1.75 1.3 0 1.25-1.1 1.25-3.75.05zm5.75.05c0-1 2.45-2.1 4.65-2.1 1.95 0 1.65.75-.8 1.95-2.65 1.3-3.85 1.35-3.85.15zm30.6-.15c-2.2-1.1-5.3-4.3-5.75-6-.2-.75 0-.95.95-.95.75 0 1.2.3 1.2.75 0 .4.25.75.5.75.3 0 .5.55.5 1.25 0 1 .25 1.25 1.25 1.25.7 0 1.25.2 1.25.45s1 .75 2.25 1.1c1.6.45 2.25.95 2.25 1.55 0 1.25-1.7 1.15-4.4-.15zm5.4.15c0-.8 1.7-1.65 4.9-2.45.6-.15 1.1-.55 1.1-.95 0-.35.4-.95.9-1.3 1.2-.85 2.6-4.45 2.6-6.65 0-1.15.25-1.75.7-1.75 1.7 0 1.25 5.6-.7 8.8-2.2 3.5-9.5 6.85-9.5 4.3zm30.95-.45c-1.9-1-3.15-2.1-4.35-3.85-.9-1.35-1.55-2.7-1.45-3 .15-.5 1.5-.55 6.75-.35.3.05.6.4.6.8 0 .55-.6.75-2.25.75-1.25 0-2.25.15-2.25.3 0 .65 3.4 3.25 5.35 4.05 1.35.6 2.15 1.2 2.15 1.8 0 1.2-1.4 1.05-4.55-.5zm81.55-.4c0-2.2.45-2.2 1.9 0L333 176h-1.5c-1.4 0-1.5-.15-1.5-1.75zm10.95.35c-4.55-2.35-7.15-7.5-6.25-12.35.2-1.05.65-1.75 1.05-1.75.55 0 .75.65.75 2.75 0 1.55.4 3.5.9 4.6.9 2 3.25 4.65 4.1 4.65.25 0 .5.35.5.75 0 .5.55.75 1.75.75 1.4 0 1.75.2 1.75 1 0 1.4-1.35 1.3-4.55-.4zm6.05.5c0-.85.4-1.1 2.25-1.4 1.25-.15 2.25-.6 2.25-.9 0-.35.6-1.2 1.4-1.95 2.6-2.5 2.8-2.9 2.75-6.05-.05-4.75-.6-6.8-1.75-6.8-.55 0-1.1-.4-1.2-.9-.15-.55-1.35-1.2-3.25-1.85-2.65-.8-3.3-.85-5.35-.3-1.3.35-2.4.8-2.5 1.1-.1.25-.95.45-1.9.45-1.6 0-1.7.1-1.7 1.75 0 1.5-.15 1.75-1.2 1.75-1.8 0-1.15-1.6 1.8-4.25 5.5-4.95 13.4-3.95 17.45 2.3 4.35 6.75.45 16.3-7.2 17.7-1.65.3-1.85.25-1.85-.65zm30.7-.35a11.74 11.74 0 0 1-6.2-8.35c-.3-1.45-.5-6.35-.45-10.9l.05-8.25-2.8-.15c-2.25-.1-2.8 0-2.8.65 0 .4-.2.75-.5.75-.25 0-.5-.8-.5-1.75V145h3.45c5.45 0 5.05-.8 5.05 10.35 0 9.25.5 13.65 1.6 13.65.2 0 .4.45.4 1s.35 1 .75 1c.45 0 .9.35 1.05.75.2.4.6.75 1 .75s.7.2.7.45.8.6 1.75.75c1.3.25 1.75.6 1.75 1.3 0 1.35-1.25 1.25-4.3-.25zm5.8.25c0-.8.35-1 1.5-1 .85 0 1.5-.2 1.5-.5 0-.25.35-.5.75-.5s.75-.2.75-.5c0-.25.45-.5 1-.5.65 0 1-.35 1-.95 0-.55.45-1.3.95-1.65.55-.4 1.1-1.5 1.3-2.55.25-1.35.6-1.85 1.3-1.85 2.1 0 .3 5.2-2.75 7.9-3.25 2.85-7.3 4-7.3 2.1zm31.75.3c-3.05-1.35-7.15-5.85-6.65-7.4.15-.4 2.7-.65 8.2-.75 8.75-.25 11.2 0 11.2 1.1 0 .65-1.45.75-8.6.8-4.75 0-8.35.15-8 .3.3.1.6.8.6 1.45 0 .95.25 1.2 1.25 1.2.7 0 1.25.2 1.25.45s1 .75 2.25 1.1c1.6.45 2.25.95 2.25 1.55 0 1.1-1.55 1.15-3.75.2zM161 167.8c0-3.4-.15-6.9-.3-7.75-.25-1.2-.15-1.55.5-1.55.45 0 .8-.2.8-.5 0-.25.35-.5.75-.5.5 0 .75-.55.75-1.75 0-.95.25-1.75.5-1.75.3 0 .5-.35.5-.75s.35-.75.75-.75.75-.4.75-.9c0-1.4 1-2.1 2.95-2.1h1.75l-2 2.15a30.49 30.49 0 0 0-3.15 3.7c-2.4 3.55-3.2 9.35-1.85 13.8.6 2 .6 2.35 0 2.35-.4 0-.7.5-.7 1.25 0 .9-.25 1.25-1 1.25-.95 0-1-.35-1-6.2zm27.5 3c0-1 .2-1.8.45-1.8s.6-.9.8-2c.25-1.5.55-2 1.3-2 .65 0 .95.35.95 1.15-.05 1.45-1.6 4.9-2.65 5.8-.75.6-.85.5-.85-1.15z"/><path d="M327.8 170.7c-.2-.75-.55-3.5-.8-6.15-.2-2.65-.65-5.4-.95-6.15-.5-1.3-.45-1.4.7-1.4.7 0 1.25.35 1.4.9.15.5.25.35.3-.5.05-1.85 1.05-3.9 1.9-3.9.35 0 .65-.4.65-.85 0-1.4 2.55-3.65 4.1-3.65 1.05 0 1.4-.25 1.4-.9 0-1.05 3.95-2.6 6.55-2.6 2 0 1.9 1.35-.15 1.75a19.29 19.29 0 0 0-12.3 9.5c-1.65 3.25-2.1 9.5-.95 12.95.8 2.3.8 2.3-.4 2.3-.8 0-1.25-.35-1.45-1.3zm36.5-.3c-.15-.65-.3-1.75-.3-2.5 0-2.3 1.25-1.6 2.1 1.1l.8 2.5h-1.15c-.75 0-1.25-.35-1.45-1.1zm75.2-.4c0-.85.35-1 2-1 2.25 0 2.85 1.15.9 1.7-2.1.55-2.9.35-2.9-.7zm-187-1.7c0-.8 1.25-1.2 2.65-.9 1.6.4.95 1.6-.9 1.6-1.2 0-1.75-.25-1.75-.7zm4 0c0-.8 1.25-1.2 2.65-.9 1.6.4.95 1.6-.9 1.6-1.2 0-1.75-.25-1.75-.7zm12.5 0c0-.45.35-.8.75-.8 2.15 0 1.95-6.25-.35-10.8-2.65-5.3-9.4-9.7-14.9-9.7-2.2 0-2.5-.1-2.5-1.05 0-1.05.15-1.05 3.6-.75 4.2.45 8.9 2.05 8.9 3.1 0 .4.4.7.9.7.85 0 4.1 2.9 4.1 3.7 0 .2.35.7.75 1.1.4.45.75 1.2.75 1.75 0 .5.2.95.45.95.75 0 1.6 5.15 1.45 8.8l-.15 3.45-1.85.15c-1.45.1-1.9 0-1.9-.6zm159.5 0c0-.95 1.9-1.35 5.25-1 2.55.25 2.85.15 3.1-.75.45-1.75 1.65-1.25 1.65.7V169h-5c-3.95 0-5-.15-5-.7zm-64.7-3.9c-.15-.65-.3-1.7-.3-2.4 0-2.8-1.75-6.25-4.95-9.6l-3.15-3.4h1.65c1.85 0 4.45 2.1 4.45 3.6 0 .5.35.9.75.9s.75.45.75.95c0 .55.25 1.05.55 1.15.75.25 1.95 5.1 1.95 7.75 0 2.35-1.15 3.05-1.7 1.05zm-210.7-2c-.35-1.45-.85-2.7-1.1-2.8-.3-.1-.5-.85-.5-1.65 0-1.3-.2-1.45-1.5-1.45-.8 0-1.5-.2-1.5-.4 0-.9-4.05-1.65-7-1.3-4.4.5-3.95-1.2.55-2 3-.55 6.6.55 9.1 2.7 2.45 2.2 3.55 4.2 4.1 7.4.3 1.85.2 2.1-.6 2.1-.7 0-1.05-.65-1.55-2.6zm247.4.25c0-2.25 1.45-7.65 2.05-7.65.25 0 .45-.35.45-.75s.25-.75.5-.75c.3 0 .5-.35.5-.75 0-.5.5-.75 1.5-.75h1.55l-1.55 2.25a20.25 20.25 0 0 0-3.25 8.4c-.4 2.5-1.75 2.55-1.75 0z"/><path d="M132 163c0-2.25 2.35-6.35 4.5-7.85.95-.65 1-.6 1 .85 0 1.15-.25 1.65-1 1.85-.55.15-1 .7-1 1.2 0 .55-.2.95-.45.95s-.6.9-.8 2c-.25 1.5-.55 2-1.3 2-.6 0-.95-.35-.95-1zm65.45-2.25-.75-3.25h1.15c.8 0 1.2-.35 1.45-1.25.15-.7.5-1.25.75-1.25s.45-.35.45-.75.25-.75.5-.75c.3 0 .5-.35.5-.75 0-.5.5-.75 1.5-.75 1.35 0 1.5-.15 1.5-1.55 0-1.1.25-1.6 1-1.8.55-.15 1-.45 1-.7 0-.25.8-.45 1.75-.45 1.15 0 1.75-.25 1.75-.7 0-.75 1.5-1.3 3.65-1.3 2.4 0 1.55 1.3-1.4 2.15-6.35 1.8-11.35 7.6-12.5 14.5-.45 2.85-1.45 2.25-2.3-1.4zM190 162c0-.8-.2-1.5-.5-1.5-.25 0-.5-.2-.5-.45 0-1.05-3.75-4.1-6-4.9-2.1-.75-2.8-.8-4.75-.25-1.25.35-2.85.6-3.6.6-1.25 0-1.3-.05-.4-1 1.1-1.2 5.55-2.15 8.1-1.7 4.1.7 7.8 3.85 9.1 7.65.8 2.4.7 3.05-.45 3.05-.8 0-1-.35-1-1.5zm15.5.75c0-.45.35-1.6.75-2.6 2-4.8 5.9-7.4 10.95-7.4 3.75.05 6.45 1.35 9 4.3 2 2.4 2.35 3.95.8 3.95-.55 0-1-.35-1-.75s-.2-.75-.5-.75c-.25 0-.5-.65-.5-1.5 0-1.35-.15-1.5-1.5-1.5-.95 0-1.5-.25-1.5-.7 0-.45-.9-.8-2.7-1-2.9-.4-6.3.05-6.3.75 0 .25-.2.45-.5.45-.75 0-3.35 2.75-3.75 3.95-.15.55-.55 1.05-.8 1.05s-.45.55-.45 1.25c0 .9-.25 1.25-1 1.25-.55 0-1-.35-1-.75zm92.5.15c0-1.5.65-2.9 1.3-2.9.45 0 .7.6.7 1.75 0 1.4-.2 1.75-1 1.75-.55 0-1-.3-1-.6zm-194.8-1.45c.75-3.7 3.7-6.75 8.05-8.2 5.6-1.85 11.65 1 14 6.6 1 2.4.95 3.15-.25 3.15-.75 0-1-.35-1-1.25 0-.7-.2-1.25-.5-1.25a.5.5 0 0 1-.5-.5c0-.95-3.8-4.25-5.65-4.9-2-.7-6.85-.4-6.85.45 0 .25-.35.45-.75.45s-.75.25-.75.5c0 .3-.45.5-1 .5-.65 0-1 .35-1 1 0 .55-.2 1-.4 1-.25 0-.75.9-1.1 2-.45 1.45-.95 2-1.65 2-.85 0-.95-.25-.65-1.55zm65.8.7c.05-1.3 1.7-4.8 2.65-5.6.75-.6.85-.5.85 1.15 0 1-.2 1.8-.45 1.8s-.6.8-.75 1.75c-.25 1.3-.6 1.75-1.3 1.75-.6 0-1-.35-1-.85zm110 0c0-2.9 4.6-8.2 7.65-8.85l2.6-.55c.7-.15 1.25-.6 1.25-1s.25-.75.5-.75c.3 0 .5.8.5 1.75 0 1.55-.15 1.75-1.25 1.75-1.4 0-5.25 1.55-5.25 2.1 0 .25-.45.4-1 .4-.65 0-1 .35-1 1 0 .55-.2 1-.4 1-.25 0-.75.9-1.1 2-.45 1.35-.95 2-1.6 2-.5 0-.9-.35-.9-.85zm39.5-1.15c-.35-1.1-.85-2-1.1-2-.2 0-.4-.35-.4-.75s-.25-.75-.55-.75c-.35 0-.95-.4-1.4-.9-1.1-1.15-3.9-2.1-6.45-2.1-1.5 0-2.1-.2-2.1-.7 0-1.65 5.1-1.5 8.55.25 3.85 1.95 7.8 8.95 5.05 8.95-.65 0-1.15-.65-1.6-2zm164.5 1.3c0-.4.7-.85 1.5-1.05.85-.2 1.5-.65 1.5-1.05s.25-.7.5-.7c.3 0 .5.8.5 1.75 0 1.7-.05 1.75-2 1.75-1.4 0-2-.2-2-.7zm-46.6-2.55-.75-2.75h1.15c.9 0 1.2-.25 1.2-1.15 0-3.55 3.05-8.85 5.1-8.85.45 0 .9-.25 1-.55.1-.3 1.25-.65 2.55-.8 1.85-.25 2.35-.15 2.35.45 0 .5-.85 1-2.15 1.35a9.48 9.48 0 0 0-6.85 9.3c0 1.65-.2 2.25-.75 2.25-.5 0-.75.55-.75 1.75 0 2.75-1.2 2.15-2.1-1zm-193.6.65c1.65-5.3 8.05-8.75 13.65-7.4 3 .7 5.35 2.35 7.15 5.1 1.7 2.5 1.8 3.55.3 3.3-.8-.1-1.3-.65-1.65-1.75-.25-.9-.75-1.65-1.1-1.65-.3 0-.8-.3-1-.65-.55-.9-4.7-2.85-6.1-2.85-1.65 0-5.05 1.05-5.05 1.6 0 .2-.45.4-1 .4s-1 .35-1 .75-.2.75-.5.75c-.25 0-.5.35-.5.75s-.2.75-.45.75-.55.45-.7 1c-.15.6-.7 1-1.35 1-.9 0-1-.2-.7-1.1zm165.7.5c0-1.1 2.5-4.85 3.9-5.8 2.35-1.65 3.1-1.75 3.1-.35 0 .7-.2 1.25-.5 1.25-.65 0-3.5 2.85-3.5 3.5 0 .25-.2.5-.5.5-.25 0-.5.35-.5.75s-.45.75-1 .75-1-.25-1-.6zm20.5-.65c0-.9-.25-1.25-1-1.25s-1-.35-1-1.25c0-1-.25-1.25-1.25-1.25-.7 0-1.25-.2-1.25-.4 0-.65-3.55-1.6-5.95-1.6-1.45 0-2.05-.2-2.05-.75 0-1.95 6.95-1.2 9.9 1.1 1.55 1.2 4.6 5.3 4.6 6.25 0 .2-.45.4-1 .4-.75 0-1-.35-1-1.25zm-129.5-1.85c0-.8 3.7-4.2 4.95-4.55.85-.2 1.05-.05 1.05.95 0 .65-.3 1.2-.6 1.2-.35.05-1.2.7-1.9 1.5-1.2 1.5-3.5 2.1-3.5.9zm-140.4-2.35c-1.65-2.9-6.25-6.9-9.15-7.9-2.7-.95-3.3-2.15-1-2.15 1.75 0 4.55.95 4.55 1.55 0 .25.35.45.75.45s.75.25.75.5c0 .3.25.5.6.5.95 0 3.4 2.6 3.4 3.6 0 .5.3.9.7.9.85 0 1.3 1.1 1.3 3.05 0 2-.6 1.8-1.9-.5zm326.9.65c0-.45-.45-.9-1-1.05-1.75-.45-1.2-1.65.75-1.65 1.65 0 1.75.1 1.75 1.75 0 1.2-.25 1.75-.75 1.75-.4 0-.75-.35-.75-.8zm-161-.65c0-.25-1.15-1.7-2.55-3.25a16.64 16.64 0 0 0-11.2-5.7c-2.75-.2-3.25-.4-3.25-1.15 0-.7.35-.95 1.35-.95 2.3 0 7.65 1.1 7.65 1.55 0 .25.55.45 1.25.45s1.25.25 1.25.5c0 .3.35.5.75.5s.75.35.75.75.4.75.9.75c1.15 0 2.6 1.5 2.6 2.65 0 .45.35.85.75.85.5 0 .75.55.75 1.75 0 .95-.2 1.75-.5 1.75-.25 0-.5-.2-.5-.45zm110 0c0-.25-1.15-1.7-2.55-3.25a16.64 16.64 0 0 0-11.2-5.7c-2.75-.2-3.25-.4-3.25-1.15 0-.7.35-.95 1.35-.95 2.3 0 7.65 1.1 7.65 1.55 0 .25.55.45 1.25.45s1.25.25 1.25.5c0 .3.35.5.75.5s.75.45.75 1c0 .7.35 1 1.15 1 1.4 0 2.35.85 2.35 2.1 0 .5.35.9.75.9.5 0 .75.55.75 1.75 0 .95-.2 1.75-.5 1.75-.25 0-.5-.2-.5-.45zm-240.4-1.8-1.1-1.75h1.5c1.4 0 1.5.15 1.5 1.75 0 2.2-.45 2.2-1.9 0zm250.9.8c0-1.05 1.9-2.65 3.75-3.05 2.85-.65 3.25-.6 3.25.45 0 .75-.5 1-2.25 1.25-1.45.25-2.25.6-2.25 1.1 0 .4-.5.7-1.25.7-.7 0-1.25-.2-1.25-.45zm28.85.1c-.2-.15-.35-1.4-.35-2.75 0-2.05.15-2.4 1-2.4.9 0 1 .35 1 2.75 0 1.95-.2 2.75-.65 2.75-.4 0-.85-.15-1-.35z"/><path d="M126.95 152.2c-2.55-2.6-4.2-3.6-7.7-4.5-5-1.35-10.55-.5-14.1 2.1-.85.65-1.7 1.2-1.85 1.2-.15 0-.3-.9-.3-2v-2h-3c-2.35 0-3 .15-3 .75 0 .4-.35.75-.75.75-.5 0-.75-.55-.75-1.75V145h4.25c4.2 0 4.25 0 4.25 1.25 0 .9.25 1.25 1 1.25.55 0 1-.2 1-.45 0-.45 3.05-1.35 6.25-1.8 4.2-.6 13.25 1.5 13.25 3.05 0 .4.4.7.9.7.55 0 1.35.45 1.85 1l.9 1 1.1-1c.6-.55 1.35-1 1.65-1 .35 0 .6-.2.6-.5 0-.25.8-.5 1.75-.5s1.75.25 1.75.5c0 .3-.2.5-.45.5-.3 0-1.8 1.25-3.45 2.75l-2.95 2.7-2.2-2.25zm63.05-2.25c-1.25-.8-3.4-1.85-4.85-2.3-2.9-.9-3.55-2.15-1.15-2.15 1.8 0 7 1.9 7 2.55 0 .25.35.45.75.45.5 0 .75.5.75 1.5 0 .85-.05 1.5-.1 1.45-.1 0-1.15-.7-2.4-1.5zm217.5.05c0-1 .25-1.5.75-1.5.4 0 .75-.2.75-.5 0-.25.45-.5 1-.5s1-.2 1-.4c0-.55 3.45-1.6 5.2-1.6 2.3 0 1.4 1.3-1.55 2.2-1.6.5-3.85 1.6-5 2.4l-2.15 1.45V150zm-181-.3c-2.15-1.55-6-2.7-8.85-2.7-1.85 0-2.15-.15-2.15-1.05 0-1.05.15-1.05 3.55-.75 1.9.2 4.45.7 5.55 1.1 1.1.4 2.1.7 2.2.7.1 0 .2-3.05.2-6.75v-6.75h1.75c1.2 0 1.75.25 1.75.75 0 .4-.35.75-.75.75-.65 0-.75 1.2-.75 8 0 4.4-.15 8-.35 8-.25-.05-1.2-.6-2.15-1.3zm52.3.95c-.15-.2-.15-1.1 0-2l.3-1.65h-3.05c-2.4 0-3.05.15-3.05.75 0 .4-.35.75-.75.75-.5 0-.75-.55-.75-1.75V145h8.45l.15 1.4c.1.95.45 1.4 1.3 1.5.6.1 1.1.3 1.1.5 0 .55-3.35 2.55-3.7 2.25zM298 149v-2h-3c-2.35 0-3 .15-3 .75 0 .4-.35.75-.75.75-.5 0-.75-.55-.75-1.75V145h4.5c4.45 0 4.5 0 4.5 1.25 0 .8.3 1.25.75 1.25.4 0 .75-.2.75-.4 0-.55 3.45-1.6 5.2-1.6 2.3 0 1.4 1.3-1.55 2.2-1.6.5-3.6 1.45-4.5 2.1-.85.65-1.7 1.2-1.85 1.2-.15 0-.3-.9-.3-2z"/><path d="M171 148.3c0-1.4 1.4-2.1 5.75-2.8 4.5-.75 5.25-.65 5.25.5 0 .85-.35 1-2.15 1-2.25 0-4 .4-6.95 1.7-1.9.8-1.9.8-1.9-.4zm180.15-.5c-1.75-.55-3.15-1.3-3.15-1.65 0-.8 2.45-.85 5.05-.05 1.55.45 1.95.8 1.95 1.75 0 .6-.15 1.1-.35 1.05-.25 0-1.8-.5-3.5-1.1zm-214.65-.55c0-1.25.7-1.5 6.25-2.05 3.1-.3 3.25-.3 3.25.75 0 .95-.3 1.05-2.4 1.05-1.35 0-3.5.3-4.75.7-2.3.7-2.35.7-2.35-.45zm110 0c0-1.2 1.1-1.75 3.65-1.75 2.25 0 1.55 1.25-1.15 2.1l-2.5.8v-1.15zm36.5 0c0-.85.35-1.2 1.55-1.45 4.55-.9 5.55.6 1.2 1.8-2.75.75-2.75.75-2.75-.35zm110.5-.5V145h8v1.75c0 .95-.2 1.75-.5 1.75-.25 0-.5-.35-.5-.75 0-.6-.65-.75-3-.75s-3 .15-3 .75c0 .4-.2.75-.5.75-.25 0-.5-.8-.5-1.75zm80.5-6c0-1.4.2-1.75 1-1.75s1 .35 1 1.75-.2 1.75-1 1.75-1-.35-1-1.75zm0-4.25c0-1-.25-1.5-.75-1.5-.4 0-.75-.2-.75-.5 0-.25.8-.5 1.75-.5 1.7 0 1.75.05 1.75 2 0 1.65-.15 2-1 2-.8 0-1-.35-1-1.5zM1.5 102.75c0-1.65.1-1.75 1.75-1.75s1.75.1 1.75 1.75-.1 1.75-1.75 1.75-1.75-.1-1.75-1.75zm0-4c0-1.65.1-1.75 1.75-1.75S5 97.1 5 98.75s-.1 1.75-1.75 1.75-1.75-.1-1.75-1.75zm0-4c0-1.65.1-1.75 1.75-1.75S5 93.1 5 94.75s-.1 1.75-1.75 1.75-1.75-.1-1.75-1.75zm0-21V71H5v5.5H1.5v-2.75zm0-36.25v-33H5v66H1.5v-33z"/></g><g fill="#b0b2b5"><path d="M139.45 336.15c-.8-.1-1.45-.6-1.6-1.2-.15-.5-.6-.95-1.05-.95-.45 0-.8-.35-.8-.75s-.45-.95-1-1.25c-1.25-.7-1.45-4-.2-4 1.6 0 2.7 1 2.7 2.5 0 2.05.9 2.35 1.1.4l.15-1.65 9.5-.15c10.45-.2 18.75.25 18.75.95 0 .25-1.4.5-3.1.5-1.75.05-2.5.2-1.7.3 1.1.2 1.3.35.75.7-.45.3.05.45 1.7.45 1.3 0 2.35.2 2.35.45 0 .75-4.4 1.05-15.95 1.05-7.5 0-11.05.2-10.55.5s48 .5 131.75.5c125.15 0 134.9-.1 131.9-1.35-.35-.1-.65-1-.65-1.95 0-1.35.2-1.7 1-1.7s1-.35 1-1.9c0-1.05.3-2.2.65-2.55.5-.55-.5-.6-5.3-.45-4.4.1-6 .35-6.35.85-.3.55-2.65.8-10.6 1.15-5.6.2-11.85.6-13.9.95-2.05.3-6.2.7-9.25.9-3 .25-4.9.45-4.15.5 2.35.1 2.9.55 2.9 2.35v1.7h-8v-1.7c0-.95.3-1.85.65-1.95.3-.15-.65-.25-2.15-.25-2 .05-2.25.1-.85.25 1.7.2 1.85.3 1.85 1.85v1.65l-3.1.3c-1.75.2-17.05.35-34 .35H283v-1.7c0-1.7.1-1.75 2.35-2.1 1.25-.2 4.15-.2 6.35-.05 2.25.1 5.05.05 6.3-.15 1.4-.25-2-.4-8.75-.4-6.05 0-10.6.1-10.1.25.6.15.85.75.85 1.95 0 1.6-.1 1.7-1.75 1.7s-1.75-.1-1.75-1.7c0-1.55-.15-1.7-1.8-2.05-2.1-.35-2.85-.05-.95.45 1.05.25 1.25.6 1.25 2.05v1.75l-20.85-.1c-16.1-.1-20.85-.3-21.05-.75-.1-.4.25-.65.85-.65.7 0 .95-.25.7-.8-.25-.7-1.55-.75-11.35-.5-12.3.3-18.25 1.1-9.55 1.3l5 .15-4 .55c-5.95.8-44.35.75-44.6-.05-.15-.4.2-.65.8-.65.7 0 .95-.25.75-.75-.2-.4-.6-.75-1-.75s-.7-.35-.7-.75c0-.65 2.35-.75 17.9-.8 21.35-.1 18.3-.55-11.4-1.65-10.85-.45-20.25-.9-20.85-1.1-.85-.25-1.15-.7-1.15-1.7 0-1.3.1-1.35 3.4-1.6 3.6-.25 23.85.25 25.1.6.4.15.9.45 1.05.65.15.2 3.2.5 6.75.6 3.55.15 8.95.35 11.95.5 3.05.15 7.85.25 10.75.2l71.7-.2c36.55-.1 67.65-.3 69.1-.5 1.75-.2 2.7-.6 2.95-1.15.25-.7.4-.7.75-.1.65 1.05 6 1.3 7.8.35 1.2-.65 4.05-.75 15.7-.8 7.85-.05 16.2-.2 18.65-.35 5.15-.35 9.9.1 9.75.95-.05.35.1 1.55.3 2.7.5 2.7-.5 7.65-1.5 7.65-.4 0-.7.3-.7.7 0 .4-.4.9-.85 1.1-.85.45-265.05.75-267.7.35zm182.9-4.75c-1.35-.35-2.25-.35-3 0-.9.45-.55.55 1.9.5 2.95 0 3 0 1.1-.5z"/><path d="M363.5 331c0-1.95.05-2 1.7-2 .9 0 2.4.15 3.25.3 1.35.3 1.55.5 1.55 2v1.7h-6.5v-2zm-134.1 1.15c.6-.1 1.5-.1 2 0 .45.15-.05.25-1.15.2-1.1 0-1.5-.1-.85-.2zm-95.5-5.5c-.1-.5-.05-1.55.1-2.4.25-1.45.35-1.5 3.25-1.65 3.85-.2 6.25.25 6.25 1.15 0 .6-.8.75-3.75.75H136v1.5c0 1.15-.25 1.5-.95 1.5-.5 0-1.05-.4-1.15-.85zm10.1-2.9c0-.4.3-.8.65-.8 5.8-.55 8.85-.25 8.85.85 0 .55-1 .7-4.75.7-3.9 0-4.75-.15-4.75-.75zm97.15-1.2c-3.25-.55-3.15-1.05.15-1.05h3l.65-2.45c.45-1.75.5-3 .15-4.2-.3-1-.35-1.9-.2-2.05.15-.15-.2-.35-.8-.35-.6-.05-1.3-.15-1.6-.2-.25-.05-.85-.15-1.25-.2-.4 0-.75-.4-.75-.8 0-.55.65-.75 2.7-.75 2.5 0 2.7.1 3.3 1.5.6 1.4.5 9.65-.1 10.25-.5.5-3.25.65-5.25.3zm57.85-.4c0-.8.4-.9 3.35-.7 3.65.2 3.3.65-.95 1.25-2.1.3-2.4.25-2.4-.55zm-2.4-2.25c-.75-.75-.8-7.4-.1-7.4.3 0 .5-.45.5-1 0-.8.35-1 1.65-1 .9 0 1.85.2 2.15.45.25.25 1.35.55 2.45.7 1.45.15 1.15.2-1.15.25-3.55.1-3.9 1.05-.45 1.2l2.1.05-2.5.3-2.5.3.15 3.4c.1 2.95 0 3.35-.8 3.35-.5 0-1.15-.25-1.5-.6zM1.9 238.15c-.1-37.35-.15-105.45-.15-151.3V3.45l1.75.15 1.75.15.15 151.15.1 151.1H2l-.1-67.85zm1.45-216.5c-.05-8.75-.1-1.6-.1 15.85s.05 24.6.1 15.9c.1-8.75.1-23.05 0-31.75zM198 161.25c0-1.4.2-1.75 1-1.75 1.05 0 1.2.5.7 2.4-.5 1.8-1.7 1.35-1.7-.65zM537.5 5.65c0-2.9.5-3.65 2.3-3.65 1.6 0 1.7.1 1.65 1.65 0 .85-.2 2.05-.45 2.6-.35.85-.45.75-.45-.6-.05-2.05-.85-2.15-1.3-.15-.4 1.9-1.75 2-1.75.15z"/></g><g fill="#a650fe"><path d="M2.6 154.9 2.75 2.25h538l.1 2c.05 1.1 0 1.65-.15 1.25l-.55-1.5c-.2-.6-.35-.55-.65.25-.25.55-.45 68.45-.45 150.9-.05 132.9.05 149.85.7 149.85.45 0 .75.45.75 1.25v1.25H2.5l.1-152.6zM3.45 5.3c-.5-.5-.4 137.5.15 271.45.1 15.4.2-39.25.25-121.45.1-110.55 0-149.65-.4-150zm350.2 186.8c3.65-1.6 7.7-5.9 9.1-9.7.85-2.3 1-3.9 1-12.4 0-9.55-.05-9.8-1.35-12.6a20.92 20.92 0 0 0-8.65-8.9c-2.15-1.1-3.15-1.25-7.5-1.25-6.05 0-8.6 1.05-12.6 5.1-8.45 8.6-5.65 22.75 5.6 28 2.5 1.15 3.65 1.4 7.05 1.4 3.6 0 4.4-.2 7.6-1.8 3.65-1.8 4.05-1.7 3.15.7-1.25 3.2-5.35 6.4-9.2 7.1l-1.85.35v2.6c0 1.45.15 2.8.35 2.95.55.6 4.3-.2 7.3-1.55zM103.1 171.35l.15-10.7 1.5-2.45c3.8-6.05 12.95-7.15 17.8-2.05 3.05 3.2 3.2 3.7 3.45 15.1l.25 10.5 2.9.15 2.85.15v-9.3c0-5.2.25-10.3.55-11.5.75-2.9 3.8-6.4 6.55-7.5 6.8-2.7 14.35 1.2 15.85 8.25.3 1.4.55 6.5.55 11.3v8.75l2.8-.15 2.85-.15.05-10.25c.05-8.75-.1-10.65-.85-12.9-2.75-7.75-11.05-12.8-19.1-11.5-3.55.55-8.25 2.95-10.25 5.25-.8.9-1.6 1.65-1.8 1.65-.15 0-1.3-1.05-2.5-2.3-5-5.1-13.25-6.3-20.1-2.85l-3.2 1.55c-.2.1-.4-.65-.5-1.7l-.15-1.85-2.85-.1-2.9-.05V182h5.95l.15-10.65zm84.55 9c3.35-1.55 6.95-5.2 8.7-8.8 1.2-2.45 1.4-3.4 1.4-7.3 0-4.1-.15-4.8-1.6-7.55-.9-1.75-2.7-4.05-4.15-5.35-7.8-7-20.15-5.55-25.9 3.15-2.55 3.75-3.3 6.6-3 11.15.5 7.7 6.15 14.3 13.55 15.85 3.25.7 8.15.2 11-1.15zm37.15-.35a18.5 18.5 0 0 0 8.3-8.4c1.15-2.3 1.15-2.65 1.3-19.45l.15-17.15h-6.1l.05 7.65c.05 4.15.05 7.8.05 8-.05.2-.8-.15-1.7-.85-2.5-1.9-5.7-2.85-9.6-2.85-6.1 0-11.25 2.7-14.7 7.7-6.8 10-1.4 23.65 10.7 26.9 2.95.8 8.25.1 11.55-1.55zm37-.2c2.05-1.05 3.7-2.1 3.7-2.45 0-.35-.75-1.5-1.65-2.55l-1.65-1.95-2.35 1.35c-5.95 3.5-13.2 1.35-16.4-4.8l-.95-1.9 14.35-.1 14.4-.15-.05-3.65c-.1-3-.35-4.25-1.65-6.85a17.3 17.3 0 0 0-23.05-8.2c-12.6 5.8-13.75 22.55-2.15 30.6 4.85 3.35 11.5 3.6 17.45.65zm17.2-8.55c.25-10.3.3-10.55 1.6-12.8 1.6-2.7 4.65-4.9 7.55-5.35l2.1-.35.15-2.95.15-2.95-2.7.3c-2.7.25-7.4 2.25-8.2 3.45-.25.4-.5-.15-.65-1.55l-.25-2.2-2.85-.1-2.9-.05v35.35l2.9-.15 2.85-.15.25-10.5zm19.1.15c.15-11.55.3-12.15 3.2-15.1 4.45-4.4 11.8-4.6 16.15-.35 3.1 3 3.3 3.85 3.55 15.3l.25 10.5 2.9.15 2.9.15-.15-11.4c-.15-10.9-.2-11.5-1.35-13.65-1.8-3.35-3.1-4.95-5.55-6.75a17.79 17.79 0 0 0-20.1-.45L298 151v-4.4l-3-.05-3-.05V182h5.95l.15-10.6zm91.15 9.35c1.1-.5 2.6-1.3 3.35-1.8 1.8-1.3 1.9-1.25 1.9 1.05v2h6l-.1-17.6-.15-17.6h-2.75l-2.75-.05-.25 10.5c-.15 5.8-.5 10.95-.75 11.5-.85 1.95-3.3 4.6-5.2 5.65-5.75 3.25-13.1.9-16-5.05-.95-2-1.05-3.05-1.05-12.25 0-5.55-.15-10.1-.35-10.15l-2.9-.1-2.5-.1-.15 10.7-.1 10.7 1.55 3.4a17.9 17.9 0 0 0 11.8 9.95c2.6.65 8 .25 10.4-.75zm37.4-.4a22.9 22.9 0 0 0 3.75-2.15l1.15-.95-1.65-2.15c-.9-1.15-1.8-2.1-2.05-2.1-.25 0-1.05.45-1.8.95-5 3.55-12.7 1.95-16.1-3.35-.8-1.25-1.45-2.5-1.45-2.7 0-.2 6.45-.4 14.3-.4h14.35l-.25-4.1c-.35-5.95-2.45-9.8-7.4-13.5-4.1-3.05-10.9-3.85-16.05-1.9-6.55 2.4-11.45 9.4-11.45 16.3 0 3.2 1.75 8.15 3.85 10.9 2.2 2.85 6.5 5.6 9.65 6.3 3.4.7 8.25.2 11.15-1.15zm31.25 1c5.5-1.45 8.6-5.2 8.6-10.4 0-3-1-4.95-3.3-6.55-2-1.35-3.15-1.75-9.4-3.45-7.9-2.15-9.7-3.85-7.5-7.2.95-1.45 5.35-2.55 8.1-2 1.95.35 5.1 3.15 5.1 4.5 0 .75.35.8 2.65.5 3.35-.45 3.35-.5 2.85-2.25a9.4 9.4 0 0 0-5.25-6.25c-2.35-1.15-3.25-1.35-7.45-1.3-7.35.05-10.65 1.95-12.1 6.85-.8 2.85-.6 4.45.95 7.35 1.3 2.3 3.95 3.65 11.85 5.8 6.3 1.75 7.5 2.5 7.5 4.6 0 3.65-2.55 5.45-7.65 5.45-3.9 0-5.95-1.15-7.45-4.25-1.15-2.35-1.65-2.55-4.85-1.95-1.9.4-1.95 1.1-.35 4.5s4.75 5.7 8.8 6.35c2.7.45 6.4.3 8.9-.3zm28-2.45c.15-2.45 0-2.9-.7-2.9-1.95 0-4.9-1.3-6.95-3.1-2.45-2.15-3.7-4.95-3.9-8.65l-.1-2.5 5.75-.25 5.75-.25.15-2.85.15-2.9h-5.7c-4.2 0-5.8-.15-6-.65-.1-.35-.25-4.9-.25-10.1v-9.5l-3.1-.15-3.1-.15.2 16.4c.2 15.4.3 16.55 1.3 19.15 2.05 5.1 6.6 9.35 11.6 10.7 4.4 1.2 4.7 1.05 4.9-2.3z"/><path d="M342.9 175.5c-4.7-1.4-8.05-6.1-8.05-11.25 0-6.45 4.75-11.25 11.35-11.3 6.55-.1 11.45 4.7 11.5 11.3.1 7.8-7.4 13.5-14.8 11.25zm-166.35-.2c-2.45-.9-5.55-3.7-6.6-6a14.07 14.07 0 0 1-.4-8.85c2.7-8.05 12.85-10.2 19-4 3.25 3.2 4.1 6.55 2.9 11.25-1.5 6.05-8.85 9.8-14.9 7.6zm36.8 0c-3-1.1-5.2-3.1-6.65-6.05-1.15-2.35-1.3-3.2-1.05-5.7.55-6.15 5.3-10.65 11.3-10.65 6.7-.05 11.55 4.7 11.55 11.25 0 4.8-2.1 8.35-6.2 10.45-2.5 1.3-6.5 1.6-8.95.7zM243 160.6c0-1.4 2.65-4.8 4.65-6.05 3.95-2.45 9.3-2.2 13 .65 1.8 1.4 4.3 4.8 4.35 5.95 0 .2-4.95.35-11 .35-10.35 0-11-.05-11-.9zm165.8-.2c1.9-6.15 9.85-9.35 15.9-6.4 2.45 1.15 5.8 4.95 5.8 6.55 0 .9-.6.95-11.05.95h-11l.35-1.1z"/></g><g fill="#9b9da1"><path d="M138.65 335.1c-.5-.55-1.3-1.1-1.75-1.25-.6-.2-.9-.85-.9-1.8 0-1-.35-1.7-1-2.05-.8-.45-.95-1.05-.95-3.75l.05-3.25h10.95c9 0 10.95.1 10.95.7 0 1.05 2.1 1.4 9.75 1.55 3.85.1 8.8.3 11 .45 2.2.15 8.35.4 13.6.6 5.3.15 10.15.35 10.75.5 1.6.3 27.5 1.4 31.15 1.3 15.85-.4 85.65-.55 86.7-.2.85.3 3.05.3 5.6.05 2.3-.2 9.7-.45 16.45-.5 12.95-.1 21.35-.55 27.5-1.45 2.05-.3 8.05-.7 13.25-.9 9.9-.45 10.75-.55 11.35-1.35.2-.3 3.4-.5 7.75-.5 6.55 0 7.4.1 7.25.8-.05.5.3.95.9 1.1.95.25 1.05.6.95 3.4-.1 2.5-.3 3.15-1.05 3.35-.5.1-.9.65-.9 1.15 0 .55-.3.95-.65.95-.35 0-1 .45-1.5 1-.85 1-1.45 1-133.6 1-128.2 0-132.75-.05-133.6-.9zm263.95-1.7c-.35-.35-.6-1.35-.6-2.25 0-1.3.3-1.8 1.25-2.25.7-.3 1.25-.95 1.25-1.45 0-.7-.35-.8-2.1-.6-1.2.1-2.8.45-3.55.75s-3.8.7-6.75.9l-5.35.35 5.9.05 5.85.1v1.95c0 1.85-.1 1.95-1.85 2.25-1.05.15-13.3.3-27.25.3-21.3 0-25.4-.1-25.4-.7 0-.7 1.35-1.25 3.5-1.35 1.05-.05.95-.15-.5-.5-2.2-.6-39.35-.8-44.75-.25-2.2.2-4.2.55-4.4.75-.25.25.2.35.95.25.7-.05 2.25.05 3.4.3 1.1.2 1.65.4 1.2.45-.5.05-.9.3-.9.55 0 .65-5.45.65-10.3-.05-2.8-.4-3.95-.4-4.1 0-.3.9-15.1.7-17.15-.2l-1.7-.7 2.25-.05 2.25-.1-1.75-.8c-1.6-.7-8.05-.75-66.5-.7-61.3.1-69.05.25-64.6 1.4.6.2 1.1.6 1.1.95s.3.8.65.9c.3.15 59.1.3 130.6.3 101.05.05 129.8-.1 129.35-.55zm-108.85-1.9c-3.65-.6-7.25-.6-7.25 0 0 .3 1.9.45 4.9.45 4.25-.1 4.55-.15 2.35-.45zm64.15-.3c-.6-.55-3.4-.75-4.25-.25-.7.4-.3.5 1.8.55 1.5 0 2.6-.15 2.45-.3zm9.6-.2c-1.8-.55-2.5-.55-2.5 0 0 .3.85.5 1.9.45 1.65-.05 1.7-.1.6-.45zm-222.35-2.5c1.65 0 1.8-.1 1.2-.7-.45-.45-2.25-.8-4.9-1-2.3-.15-3.85-.15-3.4 0 .5.15.95.7 1.1 1.3.25.9.55 1 2.2.75 1.05-.2 2.75-.35 3.8-.35z"/><path d="M242.15 322.65c-2.35-.3-2.05-1.05.45-1.25 2.05-.15 2.15-.2 2.55-2.25.25-1.35.7-2.15 1.15-2.15.75 0 .85 1.15.4 4.15-.35 2-.4 2-4.55 1.5zm55.35-.55c0-.55-.35-1.1-.75-1.3-.6-.2-.75-1.2-.75-4.5 0-2.3.15-4.55.3-5 .4-1.05 3.35-1.05 4.2-.05.55.65.4.75-.75.75s-1.25.15-.8.7c.5.55.4.8-.4 1.05-.85.25-.95.5-.55 1.25.6 1.15.65 2.15.05 1.8-.6-.4-.4.95.3 1.75.3.4.6 1.15.75 1.7.1.8.65 1.05 2.65 1.25 2.85.3 2.2.75-1.75 1.3-2.3.3-2.5.25-2.5-.7zm-52.05-6.2c-.15-2.45-.75-3.9-1.7-3.9a.77.77 0 0 1-.75-.75c0-.55.55-.75 2-.75h2v3c0 2.35-.15 3-.75 3-.4 0-.75-.3-.8-.6zM174 307c0-.8.35-1 1.75-1s1.75.2 1.75 1-.35 1-1.75 1-1.75-.2-1.75-1zm-172.15-.85c-.2-.15-.35-2.4-.35-5 0-4.3.05-4.65 1-4.65.9 0 1 .35 1 3.65 0 4.35.35 5.75 1.45 6 .45.15 0 .25-1 .3-1 0-1.95-.1-2.1-.3zm-.35-28.9c0-6.4.05-6.75 1-6.75s1 .35 1 6.75-.05 6.75-1 6.75-1-.35-1-6.75zm0-60c0-42.9.1-50.75.7-50.75.35 0 .8.5 1 1.15.15.6.3 23.45.3 50.75 0 49.35 0 49.6-1 49.6s-1-.25-1-50.75zm0-66c0-1.85 1.2-2.5 1.6-.85.3 1.35-.1 2.6-.9 2.6-.45 0-.7-.55-.7-1.75zm.35-144.6c-.2-.15-.35-1.05-.35-2C1.5 3.5 1.25 3 .75 3S0 2.5 0 1.5C0 .15.15 0 1.5 0 2.65 0 3 .2 3 1c0 .75.35 1 1.25 1C5.6 2 6 3.2 4.75 3.7c-.4.15-.75.65-.75 1.05 0 .45-.2.65-.5.5-.25-.15-.5.15-.5.7 0 1.05-.55 1.35-1.15.7zm538.55-1.5c-.1-.8-.45-1.45-.75-1.45-.35-.05-1-.1-1.45-.15-.7-.05-.7-.15 0-.8.4-.4 1.2-.75 1.75-.75.7 0 1.05-.3 1.05-1 0-.8.35-1 1.5-1 1.35 0 1.5.15 1.5 1.5 0 1.15-.2 1.5-1 1.5-.7 0-1 .35-1 1.05 0 .55-.3 1.35-.7 1.75-.65.6-.75.5-.9-.65z"/></g><g fill="#828486"><path d="M140.7 334.75c-.5-.4-1.3-.75-1.75-.75-1.15 0-2.2-1.3-1.35-1.6.35-.15 57.55-.2 127.15-.1 124.8.2 132.25.1 132.25-1.3 0-.4-26.1-.95-47.95-1.1-8.95-.05-13.2-.2-10.8-.4 2.2-.15 9.2-.35 15.5-.4 6.35-.1 12.85-.35 14.5-.6 1.65-.3 5.7-.6 9-.75 9.25-.3 19.1-1.15 20.1-1.65.5-.3 2.65-.65 4.8-.85l3.85-.35v2.05c0 1.65.15 2.05.95 2.05.55 0 1.05-.45 1.2-1.05.15-.6.6-.95.95-.85.95.35 1.1 2 .25 2.65-.45.3-.95 1.3-1.2 2.25-.35 1.35-.8 1.8-2.05 2.1-.9.25-1.6.65-1.6.9 0 .35-46.7.5-131.4.5-114.75 0-131.55-.1-132.4-.75zM406 331c0-1.15-.2-1.2-1.55-.45-1.15.6-.8 1.45.6 1.45.6 0 .95-.35.95-1zm-268.35-1.45c-.15-.55-.55-1.05-.9-1.05-.4 0-.7-.8-.85-2.05l-.2-2 2.3.25c1.25.15 3.8.4 5.75.55 1.9.2 3.6.5 3.75.7.8 1.25 3.15 1.6 11.9 1.85 5.15.1 13.05.35 17.6.5 4.55.15 14.35.35 21.75.45 7.45.1 14.2.4 15 .65 1 .35-9.45.55-32.75.55-18.85.05-36.25.2-38.65.4-4.2.25-4.4.25-4.7-.8z"/><path d="M259.5 329.5c8.7-.5 33-.55 37.25-.05 2.15.25-5.7.4-20 .4-14.9 0-21.2-.15-17.25-.35zm-16.6-6.85c-2.5-.25-2.45-1.15.05-1.15 1.95 0 1.95 0 2.3-2.35.15-1.35.25-3.45.15-4.75-.1-1.95-.35-2.4-1.05-2.4-1.7 0-.55-1.25 1.25-1.4 2.15-.2 2.4.4 2.4 5.95 0 2.95-.15 3.9-.75 4.15-.4.15-.75.75-.75 1.3 0 .65-.3.95-.85.9l-2.75-.25zM300 322c0-.25.7-.5 1.5-.5.85 0 1.5.25 1.5.5 0 .3-.65.5-1.5.5-.8 0-1.5-.2-1.5-.5zm-4-2.5c0-1.45.2-2 .75-2 .4 0 .75.35.75.75 0 .45.35.9.75 1.05.4.2.75.75.75 1.25 0 .7-.35.95-1.5.95-1.4 0-1.5-.1-1.5-2zm.35-4.85c-.2-.15-.35-1.2-.35-2.25 0-1.85.05-1.9 1.7-1.9.9 0 1.95.35 2.3.75.55.65.4.75-.75.75-1.25 0-1.3.1-.7.85.6.75.6.8-.15.5-.65-.25-.9-.05-.9.65 0 1-.55 1.3-1.15.65zM0 311c0-.75.35-1 1.25-1s1.25.25 1.25 1-.35 1-1.25 1S0 311.75 0 311zm541.5-.5c0-1.25.2-1.5 1.25-1.5s1.25.25 1.25 1.5-.2 1.5-1.25 1.5-1.25-.25-1.25-1.5zM7.5 307c0-1 .4-1 265.65-1 176.6 0 265.65-.15 265.75-.5.1-.3.5-.5.9-.5s.7-.35.7-.75.35-.75.75-.75c.8 0 1.05 2.15.45 3.7-.3.75-24.3.8-267.25.8C7.9 308 7.5 308 7.5 307zm-6-2.25c0-1.2.25-1.75.75-1.75.4 0 .75.3.75.65 0 .35.45 1.15 1 1.75l1.05 1.1h-1.8c-1.65 0-1.75-.1-1.75-1.75zm0-14c0-8.8.1-10.75.7-10.75 1.05 0 1.25 1.5 1.25 10.7s-.2 10.8-1.25 10.8c-.6 0-.7-1.9-.7-10.75zm0-21.25c0-4.8.15-6 .7-6 1 0 1.25 1.6 1.1 6.45-.25 5.75-.2 5.55-1.05 5.55-.6 0-.75-1-.75-6zm0-13c0-1.8.2-2.5.7-2.5.85 0 1.4 2.1 1 3.75-.55 2.3-1.7 1.5-1.7-1.25zm0-251.75c0-.8-.3-1.25-.75-1.25-1 0-.95-1.25.1-2.5C1.7 0 2.2 0 89.1 0h87.4v3l-33.6.1c-18.5 0-40.5.1-48.9.2-8.4.1-32.2.15-52.85.2H3.5l-.3 1.25c-.4 1.65-1.7 1.65-1.7 0zm179-3.25V0h3.75c3.6 0 3.75.05 3.75 1.2 0 1.4-1.05 1.8-4.85 1.8-2.6 0-2.65 0-2.65-1.5zm14 0V0h3.75c3.6 0 3.75.05 3.75 1.2 0 1.4-1.05 1.8-4.85 1.8-2.6 0-2.65 0-2.65-1.5zm346.85 1.15c-.2-.15-.35-.85-.35-1.5 0-.95.25-1.15 1.5-1.15 1.35 0 1.5.15 1.5 1.5 0 1.25-.2 1.5-1.15 1.5-.65 0-1.35-.15-1.5-.35z"/></g><path fill="#717375" d="M138.1 333.15c.15-.8 7.55-.9 128.55-1 126.9-.1 128.35-.1 128.35.9 0 .95-1.45.95-128.55.95-121.3 0-128.5-.05-128.35-.85zM397 333c0-1.05.15-1.1 4.2-.95 4.1.2 5.35.55 4.6 1.35-.2.2-2.3.45-4.6.55-4.05.15-4.2.1-4.2-.95zm9.6-1.8c.2-1.05 1.1-1.15 1.3-.05.1.5-.15.85-.65.85s-.75-.3-.65-.8zm-21.85-1.2-10.5-.25 6.7-.4c3.7-.2 7.1-.6 7.55-.85.45-.25 3.65-.55 7.05-.75 3.4-.15 7.2-.4 8.4-.55 2.1-.3 2.15-.3 1.8.85-.6 2.1-1.65 2.45-6.2 2.35-2.35-.05-9-.25-14.8-.4zM138 328.5c0-1.5.05-1.55 1.9-1.2 1 .2 2.2.5 2.6.7.4.2 2.8.55 5.25.75 6.15.5 4.2 1.15-3.6 1.2L138 330v-1.5zm105.25-6-2-.3 1.8-.4c1.95-.4 2.35-1.2 2.5-5 .1-1.45.1-1.4.45.45.35 1.9.35 1.9.45-.85.05-2.35-.1-2.9-.75-2.9-.7 0-.7-.15-.2-.75.55-.65.4-.75-.7-.75-1.2 0-1.3-.1-.6-.75.4-.4 1.4-.75 2.2-.75h1.45v5.25c0 2.9-.2 5.25-.45 5.25-.2 0-.4.45-.4 1 0 1.05-.3 1.1-3.75.5zm53.4-.05c-.9-.9-.8-3.8.1-4.15.5-.2.75.05.75.75 0 .75.25.95.75.75.5-.2.75.05.75.7 0 .75.35 1 1.25 1 .7 0 1.25.25 1.25.5 0 .3-.3.5-.7.5-.35 0-1.3.15-2.1.3-.85.15-1.7 0-2.05-.35zm-296-10.8c-.35-.1-.65-.8-.65-1.45 0-1 .25-1.2 1.5-1.2 1.35 0 1.5.15 1.5 1.5 0 1.5-.7 1.85-2.35 1.15zm540.35-1.6c0-1.7-.15-2.05-.95-2.05-1.3 0-2.55-.5-2.55-1.05 0-.25.55-.45 1.2-.45.85 0 1.35-.35 1.6-1.1.35-1.2.5-9.45.65-32.75L541 259h3v25.75c0 16.85-.15 25.75-.5 25.75-.25 0-.45.3-.35.6.05.35-.4.7-1 .8-1.05.15-1.15-.05-1.15-1.85zM2 306c0-1.35.25-2.5.5-2.5.3 0 .5.25.5.55C3 305.1 4.5 306 6.35 306c4.9 0 5.75 1.7 1.1 2.2-5.65.55-5.45.65-5.45-2.2zM0 52.3V2.15l1.55-.35c.85-.15 38.8-.3 84.25-.3h82.7v2.1l-82-.35C22.3 3 4.3 3.05 3.75 3.5 3.1 4.05 3 10.65 3 53.3v49.2H0V52.3zM540.55 4.65c0-.65-.4-1.15-.9-1.2-.5-.05-83.1-.25-183.6-.4C210.55 2.8 173.3 2.6 173.1 2.1c-.1-.35.25-.6.85-.6.7 0 .95-.25.75-.75C174.45.1 195.05 0 358.45 0 521.7 0 542.5.1 542.5.75c0 .4.35.75.75.75s.75.45.75 1c0 .75-.35 1-1.45 1-1.15 0-1.55.25-1.7 1.15-.2 1.1-.2 1.1-.3 0z"/><g fill="#646567"><path d="M138.5 333.55c-1.3-.9-.25-1.1 6.2-1.15 6-.05 7.45.15 6.6 1-.6.55-11.95.7-12.8.15zm27.9.1c-.5-.15-.9-.45-.9-.7 0-.25 3.05-.45 7-.45 6.35 0 8.8.5 5.9 1.15-1.3.3-10.7.3-12 0zm17.5-.05c-.5-.1-.9-.4-.9-.65s3.35-.45 7.75-.45c7 0 9.5.45 6.7 1.15-1.15.3-12.15.25-13.55-.05zm52.5.05c-1.9-.45-.75-1.15 1.85-1.15 1.5 0 2.75.25 2.75.5 0 .3-.3.5-.6.55-.35 0-1.2.1-1.9.15-.7.1-1.65.05-2.1-.05zm29.5 0c-1.65-.4-.9-1.15 1.1-1.15 1.1 0 2 .25 2 .5 0 .3-.2.5-.45.5s-.75.1-1.15.2c-.35.1-1.05.1-1.5-.05zm14.5-.05c-1.95-.4-.75-1.1 1.85-1.1 1.5 0 2.75.25 2.75.5 0 .3-.3.55-.6.55-1.8.2-3.25.2-4 .05zm63.5.05c-.5-.15-.9-.4-.9-.6 0-.5 9.55-1.05 11-.7 1.35.35 1.25 1-.25 1.35-1.3.35-8.35.3-9.85-.05zm24 .05c-1.2-.35-1.15-1 .1-1.35 1.4-.35 7 .2 7 .7 0 .25-.05.45-.1.5-1.15.2-6.4.3-7 .15zm16.5-.05c-1.65-.4-.9-1 1.5-1.25 4.05-.3 18.5-.15 18.9.25.2.2.2.5 0 .75-.4.35-18.85.6-20.4.25zm-62.9-.65c0-.25.8-.5 1.75-.5s1.75.25 1.75.5c0 .3-.8.5-1.75.5s-1.75-.2-1.75-.5zM138 329.05c0-.85.15-.9 1.95-.35 2.9.85 3.05 1.3.4 1.3-1.95 0-2.35-.15-2.35-.95zm255 .45c9.55-.75 11.15-.8 11.35-.1.2.45-1.6.6-7.95.55-7.75-.1-7.9-.1-3.4-.45zm-148.9-6.85c-1.65-.2-1.75-1.15-.1-1.15.6 0 1-.4 1.1-1.1.1-.65.45-1.1.8-1 .85.15.85-5.7 0-6.05-.5-.2-.45-.4.1-.8.6-.45.5-.55-.6-.55-.8 0-1.4-.15-1.4-.3 0-.85 1.65-1.7 3.25-1.7h1.8l-.35 4.65c-.2 2.5-.55 4.7-.75 4.75-.6.25-.55 1.6.05 1.6.3 0 .5.45.5 1 0 1.05-.5 1.1-4.4.65zm6.4-.65c0-.95.35-1 5-1s5 .05 5 1-.35 1-5 1-5-.05-5-1zm14 0c0-.8.35-1 1.75-1s1.75.2 1.75 1-.35 1-1.75 1-1.75-.2-1.75-1zm31.1-.85c.05-1.05.05-3.2 0-4.75-.1-2.75-.15-2.9-1.35-2.9-1.1 0-1.25-.2-1.25-1.75V310h3.25c2.9 0 3.25.1 3.25 1 0 .65-.35 1-1 1-.9 0-1 .35-1 4.2s.55 5.75 1.15 4.2c.15-.4.3-.3.3.25.05.5.45.85 1.05.85 1.7 0 1.1.85-.85 1.2-3.5.55-3.7.5-3.55-1.55zm-15.6-10.4c0-1.65.1-1.75 1.75-1.75s1.75.1 1.75 1.75-.1 1.75-1.75 1.75-1.75-.1-1.75-1.75zm-278.5.5c0-.4-.35-.75-.75-.75-.65 0-.75-12.35-.75-108.25C0 126.4.15 94 .55 94c.25 0 .35.25.2.5-.15.3-.05.5.2.5.35 0 .55-2.15.5-6.05 0-5.9.15-7 .9-6.25.25.2.45 50.25.55 111.2.1 76.9.3 111 .65 111.4.3.35 1.85.8 3.5 1 2.5.3 2.95.5 2.95 1.3 0 .9-.3.95-3.5.8-2.75-.1-3.45 0-3.25.5.15.4.25.8.25.9 0 .1 33.1.2 73.5.2 73.15 0 73.5 0 73.5 1s-.35 1-74.5 1c-65.9 0-74.5-.1-74.5-.75zm150-.25c0-.9.35-1 2.75-1s2.75.1 2.75 1-.35 1-2.75 1-2.75-.1-2.75-1zm7.5 0c0-.95.35-1 9.75-1s9.75.05 9.75 1-.35 1-9.75 1-9.75-.05-9.75-1zm20 0c0-.95.35-1 5-1s5 .05 5 1-.35 1-5 1-5-.05-5-1zm14.5 0c0-1 .35-1 22.75-1s22.75 0 22.75 1-.35 1-22.75 1-22.75 0-22.75-1zm132 0c0-.95.35-1 8.75-1s8.75.05 8.75 1-.35 1-8.75 1-8.75-.05-8.75-1zm18 0c0-1 .35-1 34.5-1s34.5 0 34.5 1-.35 1-34.5 1-34.5 0-34.5-1zm71.5 0c0-.9.35-1 3.75-1s3.75.1 3.75 1-.35 1-3.75 1-3.75-.1-3.75-1zm12 0c0-1 .35-1 39-1s39 0 39 1-.35 1-39 1-39 0-39-1zm78.5 0c0-.9.35-1 3.75-1s3.75.1 3.75 1-.35 1-3.75 1-3.75-.1-3.75-1zm8 0c0-.95.35-1 4.75-1s4.75.05 4.75 1-.35 1-4.75 1-4.75-.05-4.75-1zm14 0c0-.9.35-1 2.75-1s2.75.1 2.75 1-.35 1-2.75 1-2.75-.1-2.75-1z"/><path d="M533.5 311c0-.9.35-1 3.45-1 2.6 0 3.5-.2 3.75-.75.25-.65-3.85-.75-34.95-.75-34.9 0-35.25 0-35.25-1s.35-1 35-1h35l-.05-1.1c-.1-5.7.6-303.6.75-303.75.1-.1.75-.05 1.5.15l1.3.3v134.5c0 118.2-.1 134.45-.75 133.9-.65-.5-.7 1.75-.7 18.5.05 15.85.15 19.1.75 19.35.95.35.9 1.65-.05 1.65-.4 0-.75.45-.75 1 0 .95-.35 1-4.5 1s-4.5-.05-4.5-1zM1.5 36.75c0-1.2.25-1.75.75-1.75s.75.55.75 1.75-.25 1.75-.75 1.75-.75-.55-.75-1.75zm0-18.5V2H45c28.5 0 43.5.15 43.5.5 0 .3-14.8.55-42.65.6l-42.6.15L3.1 18.9c-.1 13.4-.2 15.6-.85 15.6-.65 0-.75-2.2-.75-16.25zm126.9-15.1c-21.9-.1-38.9-.35-38.9-.6S90 2 90.65 1.8c.6-.15 34.35-.3 75-.3 73.6 0 73.85 0 73.85 1 0 1.1 13 1.05-111.1.65zM495 2.5c0-.8.35-1 1.75-1s1.75.2 1.75 1-.35 1-1.75 1-1.75-.2-1.75-1z"/></g><g fill="#505053"><path d="M138.25 333c-.2-.3 2.35-.5 7.2-.5 4.7 0 7.55.2 7.55.5s-2.75.5-7.2.5c-4.3 0-7.35-.2-7.55-.5zm16.75 0c0-.3 3.15-.5 8.5-.5s8.5.2 8.5.5-3.15.5-8.5.5-8.5-.2-8.5-.5zm41 0c0-.25.9-.5 2-.5s2 .25 2 .5c0 .3-.9.5-2 .5s-2-.2-2-.5zm11 0c0-.35 33.25-.5 98.5-.5 65.1 0 98.5.15 98.5.5s-33.4.5-98.5.5c-65.25 0-98.5-.15-98.5-.5zm38-10.5c-1.9-.3-2.05-.4-1.1-.75.6-.2 1.1-.8 1.1-1.3 0-.55.3-.95.7-.95.4 0 .85-.65 1.05-1.5.55-2.4 1.75-1.9 1.75.75V321h2.5c1.8 0 2.5.2 2.5.7 0 1.25-3.5 1.6-8.5.8zm13.4.15c-.5-.1-.9-.55-.9-.95 0-.6 2.9-.7 19.15-.7h19.1l-.15-2.5c-.15-1.95-.05-2.5.55-2.5.85 0 1.35 1.45 1.35 3.9 0 1.45.15 1.6 1.45 1.6 2.85 0 2 .85-1.1 1.2-3.45.35-38.05.3-39.45-.05zm37.1-8.15c0-1-.35-1-23.5-1-20.55 0-23.5.1-23.5.75 0 1.2-1.2.85-1.85-.5-.3-.7-.4-1.15-.15-1 .2.15.5-.05.65-.4.15-.45-24.8-.6-122.45-.6-122.25 0-122.65 0-122.9-1a8.68 8.68 0 0 1-.3-1.35c0-.25 70.25-.3 156.15-.15l159.1.2c1.65 0 47.95-.1 102.9-.25 99.05-.2 99.85-.25 99.85-1.2 0-.9.35-1 3.75-1s3.75.1 3.75 1c0 .85.35 1 2 1s2-.15 2-1c0-.95.35-1 4.7-1h4.7l.3-1.55c.15-.85.3-11.1.3-22.75 0-18.5.1-21.2.75-21.2s.75 3.05.75 24.3c0 13.45-.2 24.65-.45 25.1-.4.8-8.7.85-124.15.85-68 0-123.1.1-122.4.15 1.75.25 2.1.75 1.7 2.3-.35 1.5-1.7 1.75-1.7.3zm-294-8.25c0-1.65.2-2.25.75-2.25.4 0 .75.3.75.7 0 .4.4.85.85 1 .75.3.75.4.15.8-.55.35-.4.5.65.5.75 0 1.35.2 1.35.45 0 .6-1.3 1.05-3.05 1.05-1.4 0-1.45-.1-1.45-2.25z"/><path d="M7 307.8c0-1.1 1.7-1.3 13.4-1.3 10.75 0 11.1.05 11.1 1s-.35 1-12.25 1c-10.1 0-12.25-.1-12.25-.7zm29.5-.3c0-.95.35-1 4.75-1s4.75.05 4.75 1-.35 1-4.75 1-4.75-.05-4.75-1zm10 0c0-1 .35-1 26.75-1s26.75 0 26.75 1-.35 1-26.75 1-26.75 0-26.75-1zm386 0c0-1 .25-1 20.15-1 11.1.05 20.65.15 21.25.35.6.15 1.1.6 1.1.95 0 .6-3.5.7-21.25.7-21 0-21.25 0-21.25-1zM541 249.25c0-1.2.25-1.75.75-1.75s.75.55.75 1.75-.25 1.75-.75 1.75-.75-.55-.75-1.75zm0-20c0-1.2.25-1.75.75-1.75s.75.55.75 1.75-.25 1.75-.75 1.75-.75-.55-.75-1.75zm-.05-50.5c-.05-.4-.05-1.55-.05-2.5 0-2.9.05-3.25.85-3.25.6 0 .75.7.75 3.25s-.15 3.25-.75 3.25c-.4 0-.8-.35-.8-.75zm-.05-7.1c-.3-1.4.1-2.65.9-2.65.45 0 .7.55.7 1.75 0 1.85-1.2 2.5-1.6.9zm-539.4-9.9c0-2.1.15-2.75.75-2.75s.75.65.75 2.75-.15 2.75-.75 2.75-.75-.65-.75-2.75zm539.4.9c-.1-.5-.25-36.4-.35-79.75l-.1-78.9h2.05v79.75c0 67.55-.1 79.75-.7 79.75-.35 0-.8-.4-.9-.85zM1.6 83.9c.2-72.75.25-80.4.9-79.4.3.45.5 28.3.5 71.4 0 64.05-.05 70.6-.8 70.6-.7 0-.75-5.8-.6-62.6zM200.65 3.1c-19.15-.05-34.15-.3-34.15-.55 0-.25.5-.55 1.15-.75.6-.15 43.1-.3 94.5-.3h93.35v1c0 1 0 1-60.35.9-33.25-.1-75.75-.2-94.5-.3zM356 2.5c0-1 .3-1 93.25-1 92.8 0 93.25 0 93.25 1s-.45 1-93.25 1c-92.95 0-93.25 0-93.25-1zm-339.35.15c.45-.1 1.25-.1 1.75 0 .45.15.05.25-.9.25-.95 0-1.35-.1-.85-.25zm4 0c.75-.1 1.95-.1 2.75 0 .75.1.1.2-1.4.2s-2.15-.1-1.35-.2zm12.75 0c2.3-.1 5.9-.1 8 0 2.1.05.25.15-4.15.15s-6.15-.1-3.85-.15zm12.2.1c.15-.15 23.8-.4 52.55-.6 39.6-.25 52.35-.15 52.35.25 0 .45-13 .6-52.6.6-28.9 0-52.45-.1-52.3-.25z"/></g><g fill="#3e3f42"><path d="M140.5 333c-.95-.3-.6-.4 1.5-.4 1.95-.05 2.45.1 1.75.4-1.2.5-1.65.5-3.25 0zm10.25 0c-.6-.25 2.1-.45 7.2-.45 4.5-.05 8.1.05 8 .15-.45.4-14.3.7-15.2.3zm19.5 0c.2-.3 7.65-.5 20.9-.45 12 .05 19.75.25 18.6.5-3 .6-39.9.55-39.5-.05zm46.9-.35c.45-.1 1.25-.1 1.75 0 .45.15.05.25-.9.25-.95 0-1.35-.1-.85-.25zm26.05-10.6c.15-.2 1.1-.35 2.15-.25 1.65.1 1.8.05 1.05-.5-.9-.65-1.3-2.1-.45-1.6.25.2.6-.35.8-1.2.4-1.85 1.75-2.05 1.75-.25v1.25h22.4c12.3 0 22.85.15 23.5.3.95.25 1.1.1 1.1-1 0-.75.3-1.3.7-1.3.7 0 1.3 1.45 1.3 3.45 0 .7.25 1.05.65.9.3-.1 1.05-.05 1.6.2.55.2-12 .4-27.9.4-16.1.05-28.8-.15-28.65-.4z"/><path d="M249 316.75c0-1.65.1-1.75 1.75-1.75s1.75.1 1.75 1.75-.1 1.75-1.75 1.75-1.75-.1-1.75-1.75zm-2-3.75c0-1 .35-1 25-1s25 0 25 1-.35 1-25 1-25 0-25-1zm48.9-1.85c.6-.1 1.5-.1 2 0 .45.15-.05.25-1.15.2-1.1 0-1.5-.1-.85-.2zm12.4-.05c-.2-.2-.8-.4-1.35-.4-.5-.05-1.3-.1-1.7-.15-.4 0-.75-.4-.75-.8 0-.6 1.55-.75 9.65-.9 5.25-.05-9.25-.15-32.25-.25-41.55-.1-41.9-.1-41.9-1.1s.35-1 42-1 42 0 42 1c0 .9.35 1 3.25 1s3.25-.1 3.25-1 .35-1 2.75-1 2.75.1 2.75 1c0 .85-.35 1-2.25 1s-2.25.15-2.25 1c0 .6-.35 1-.85 1.05-.5 0-1.9.1-3.15.2-6.6.55-17 .65-17.3.2-.2-.35-.5-.3-.9 0-.35.3-.8.35-1 .15zm-272.25-.5-34.7-.1.3-128.15c.2-70.45.4-130.25.45-132.85.4-15.95.65 32.8.8 137 .1 83.9.3 119.3.7 119.55.35.2.3.4-.15.6-.4.15-.1.3.7.3 1.65.05 1.8.9.2 1.2-.6.1 1.1.25 3.8.3 3.85.05 4.85-.1 4.85-.65 0-1.5 3.75-1.4 4.15.15.2.7.25.7.3-.05.05-.95.2-1 3.3-1 3.4 0 3.75.05 3.75.85 0 .55.55.75 2 .75 1.4 0 2-.2 2-.75 0-1.1 2.25-1.25 17.25-1.05 16.75.25 15.25.15 15.25 1.05 0 .65 1 .75 6 .75 4.8 0 6-.15 6-.7 0-.75 1.25-1.2 2.65-.9.45.1.85.5.85.9 0 .6 1.45.7 8.5.7 8.1 0 8.5.05 8.5 1 0 .9-.45.95-11.35 1.1-6.3.1-27 .1-46.1 0zm60.3 0c-.65-.15-.85-.5-.7-1.15.15-.5.05-.95-.2-.95-.95 0-.4-1.4.65-1.65.55-.15 12.5-.3 26.5-.35 25.2 0 25.4 0 25.4 1s.3 1 14.4 1.05c7.9 0 20.2 0 27.35-.05 14.1-.1 19.25.25 19.25 1.25 0 .35-.45.75-1.05.9-.75.2-64.3.1-81.9-.15-.4 0-.55-.35-.4-1 .25-.9 0-1-1.95-1-1.85 0-2.2.15-2.2 1 0 .95-.35 1-10.85 1.05-6 0-11.45.05-12.15.1-.7.1-1.65.05-2.15-.05zm120 0c-.45-.1-.85-.5-.85-.9 0-.55.85-.7 3.75-.7 3 0 3.75.15 3.75.75 0 .4-.3.75-.6.8-2.45.15-5.35.15-6.05.05zm10.05 0c-1.7-.35-1-1.6.85-1.6 1.15 0 1.75.25 1.75.7 0 .75-1.25 1.2-2.6.9z"/><path d="M334.4 310.6c-1.7-.35-1-1.6.85-1.6 1.15 0 1.75.25 1.75.7 0 .75-1.25 1.2-2.6.9zm9.25 0c-1.25-.1-1.65-.4-1.65-1.15 0-.8.35-.95 2.4-.95 1.3 0 2.85.15 3.5.3 1.15.35 1.55 1.65.5 1.75-.35 0-1.2.05-1.9.1s-2 .05-2.85-.05zm6.7 0c-.45-.1-.85-.5-.85-.9 0-.6 1.9-.7 11.75-.7 10.1 0 11.75.1 11.75.75 0 .4-.4.75-.85.8-2.4.15-21.1.2-21.8.05zm28.05 0c-1.7-.35-1-1.6.85-1.6 1.15 0 1.75.25 1.75.7 0 .75-1.25 1.2-2.6.9zm-84.9-.6c0-.3 1.4-.5 3.25-.5s3.25.2 3.25.5-1.4.5-3.25.5-3.25-.2-3.25-.5zm94-.5c0-.9.35-1 2.75-1s2.75.1 2.75 1-.35 1-2.75 1-2.75-.1-2.75-1zm6.5 0c0-.75.35-1 1.25-1 .95 0 1.25-.25 1.25-1.05 0-1 .05-1.05 21.15-.9 11.6.05 21.5.2 22 .35.45.1.85.55.85.9 0 .6 2.5.7 14.5.7 12.95 0 14.5-.1 14.5-.8 0-.75 3.25-.8 35.65-.65l35.6.2.15-142.9c.1-130.85.15-142.85.9-142.85s.8 12 .65 144.4l-.2 144.35-68.65.15c-68.35.1-68.6.1-68.6-.9 0-.8-.35-1-1.75-1s-1.75.2-1.75 1c0 .9-.35 1-3.75 1s-3.75-.1-3.75-1zm-13.5-2c0-.8.35-1 1.75-1s1.75.2 1.75 1-.35 1-1.75 1-1.75-.2-1.75-1zM541 14.25c0-3.9.15-4.75.75-4.75s.75.85.75 4.75-.15 4.75-.75 4.75-.75-.85-.75-4.75zm-.25-8.95c-.3-1.45-.6-1.75-2.05-2.05-2.65-.45-2-1.25 1.05-1.25h2.75v2.5c0 3-1.25 3.55-1.75.8zM322.9 3.15c-3.25-.1-5.9-.35-5.9-.6s.4-.5.9-.65c1.55-.35 54.05-.1 54.4.25.2.2.2.5.05.7-.35.3-39.3.55-49.45.3zM123.55 2.8c.1-.15 12.1-.4 26.6-.6 19.75-.25 26.35-.2 26.35.2 0 .45-6.85.6-26.6.6-14.6 0-26.45-.1-26.35-.2z"/></g><path fill="#2c2e30" d="M245.65 322.15c.45-.1 1.25-.1 1.75 0 .45.15.05.25-.9.25-.95 0-1.35-.1-.85-.25zm16.5 0c6.3-.1 16.4-.1 22.5 0 6.1.05 1 .1-11.4.1-12.35 0-17.35-.05-11.1-.1zm-15.1-1.15c-.5-.35.1-8.8.6-8.6.2.05 11.35.1 24.8.1h24.45l.2 4.05c.1 2.25.05 4.2-.1 4.4-.3.35-49.4.4-49.95.05zm43.95-.95c0-.3 1.05-.6 2.4-.7 1.3-.1-8.35-.15-21.4-.15-13.05 0-22.55.05-21.1.15 1.4.1 2.6.4 2.6.7 0 .25 7.25.45 18.75.45 11.45 0 18.75-.2 18.75-.45zM1.85 310.1c-.15-.25-.05-11.85.1-15.45.05-.35.3-.65.55-.65.3 0 .5 2.5.5 6.5v6.5h49.25c43.45 0 49.25.1 49.25.75 0 .6.7.75 3.25.75 2.45 0 3.25.15 3.25.7 0 .4-.6.8-1.35.95-2.7.45-17.8.1-18-.4-.1-.35-1.75-.4-4.8-.15-4.45.35-13.05.55-17.1.35-2.25-.1-7.7-.15-10-.05H53.4c-1.05 0-2.5.05-3.2.1-.75.1-1.45-.1-1.65-.4-.25-.4-1.35-.4-3.7-.1-1.85.3-4.7.5-6.25.5H20.75c-8.25-.05-15.85.05-16.85.2-1.05.15-1.95.1-2.05-.1zm107.5 0c-.45-.1-.85-.5-.85-.9 0-.55.85-.7 3.75-.7 3 0 3.75.15 3.75.75 0 .4-.3.75-.6.8-2.45.15-5.35.15-6.05.05zm10.05.05c-.5-.1-.9-.55-.9-.95 0-.55.9-.7 4.25-.7 3.3 0 4.25-.15 4.25-.7 0-.35.5-.8 1.1-.95 1.55-.4 3.4.1 3.4.95 0 .4.35.7.75.7s.75-.3.75-.7c0-.85 1.55-1.25 4.5-1.05 3.5.2 3.5.2 3.5 1 0 .45.45.75 1.25.75.75 0 1.25-.3 1.25-.7 0-.35.5-.8 1.1-1 1.5-.35 95.85-.4 97.3 0 .6.2 1.1.65 1.1 1 0 .6 6.15.7 39 .7 33 0 39-.1 39-.7 0-.4.5-.8 1.15-1 1.5-.35 76.3-.35 77.75 0 .6.2 1.1.65 1.1 1 0 .5.8.7 3 .7s3-.2 3-.7c0-.8 1.6-1.3 3-.95.55.15 1 .6 1 .95 0 .55.85.7 3.5.7s3.5.15 3.5.7c0 .4-.5.8-1.1.95-1.7.4-211.6.45-213.1.05-.7-.15-1.3-.6-1.3-1 0-.55-1.2-.7-6-.7-4.9 0-6 .15-6 .75 0 1-2.15 1.25-11 1.05-9.4-.2-9-.15-9-1.05 0-.4-.35-.75-.75-.75s-.75.35-.75.75c0 .9.55.8-8 .95-7.7.1-8.35 0-8.65-1.15-.2-.7-.25-.7-.3.1 0 .45-.35.85-.65.9-.35 0-1.3.1-2.15.2-2.15.2-3.75-.25-3.75-1.05 0-.4-.35-.7-.75-.7s-.75.35-.75.75c0 .75-.35.85-2.75.85-2.35 0-2.7-.1-2.9-.95-.2-.85-.25-.85-.3 0-.05.9-.25.95-3.8.95s-3.75-.05-3.75-.85c0-.4-.35-.75-.75-.75s-.75.3-.75.7c0 .35-.5.8-1.1 1-1.3.3-7.2.3-8.5-.05zm299.95-.05c-.45-.1-.85-.5-.85-.9 0-.55.95-.7 4.5-.7 3.7 0 4.5-.15 4.5-.75 0-.7 2.6-.75 22.4-.65 23.8.1 44.95.6 51.1 1.15 6.1.55 8.45.6 25.15.7 10.5.05 15.8.2 15.6.55-.15.3-1.25.45-2.4.45-1.15-.05-26.05-.05-55.35 0-35.6.05-53.3-.1-53.4-.45-.25-.7-2.45-.65-2.7.05-.15.5-6.6.9-8.55.55zM1.9 292.65c-.3-1.2.05-2.65.65-2.65.25 0 .45.8.45 1.75 0 1.8-.75 2.4-1.1.9zm.05-6V280c0-3.15.1-28.8.15-57 .05-28.2.25-46.85.4-41.5.55 20.75.6 106 .05 106-.3 0-.55-.4-.6-.85zm.2-117.15c0-1.25.1-1.75.2-1.1.1.6.1 1.6 0 2.25-.1.6-.2.1-.2-1.15zm539.35-5.1c-.05-.9-.15-3.1-.25-4.8-.1-1.75 0-3.7.25-4.25.3-.75.45.9.45 4.8.05 3.2-.05 5.85-.2 5.85-.15 0-.25-.75-.25-1.6zM2.15 157.25c0-1.35.1-1.9.2-1.1.1.75.1 1.85 0 2.5-.1.6-.2 0-.2-1.4zm539.2-4.3c-.15-.55-.3-34.35-.35-75.1 0-57.65-.15-74.15-.65-74.45-.35-.2-39.6-.4-87.2-.4-57.45 0-86.65-.15-86.65-.5s29.65-.5 87.9-.5h87.9l-.2 75.85c-.1 41.75-.25 75.95-.35 76.05-.05.05-.25-.35-.4-.95zM174 2.5c1.9-.6 150-.6 150 0 0 .35-25.5.5-75.6.45-41.6-.05-75.1-.25-74.4-.45z"/><path fill="#1f2022" d="M247 319.25v-1.75h50v3.5h-50v-1.75zm-120.85-9.15L2 310v-1.3c0-1.15.15-1.25 1.3-1 .95.25 1.2.2.9-.3-.3-.5-.25-.55.35-.05.4.35 1.45.5 2.35.35.9-.15 1.6-.1 1.6.15 0 .5 21.4.45 25-.1 3.25-.5 6-.35 6.85.35.35.25.9.3 1.25.1.9-.6 14.35-.7 14.7-.15.15.25.65.25 1.1.05.45-.25 2.2-.35 3.85-.25 5.95.35 22.15.2 28.75-.25 7.6-.55 335.35-.8 339.75-.3 1.5.2 2.65.5 2.5.7-.2.35 16.7.95 29.45 1.05 3.45.05 5.2.25 4.7.5-.9.5-155.35.75-340.25.55zM2.25 304c-.5-.75-.15-26 .35-26 .2 0 .4 5.95.4 13.25s-.1 13.25-.2 13.25c-.15 0-.4-.25-.55-.5zm-.05-30.5c.2-4.15.8-4.4.8-.35 0 1.85-.2 3.35-.5 3.35-.25 0-.4-1.35-.3-3zm.45-6.5c0-1.25.1-1.75.2-1.1.1.6.1 1.6 0 2.25-.1.6-.2.1-.2-1.15zm539-260.25c0-1.35.1-1.9.2-1.1.1.75.1 1.85 0 2.5-.1.6-.2 0-.2-1.4zM286 2.5c-25.45-.2-11.05-.3 51.7-.4 47.85-.05 86.85 0 86.75.1-.4.35-103 .6-138.45.3zm167.9-.35c.6-.1 1.5-.1 2 0 .45.15-.05.25-1.15.2-1.1 0-1.5-.1-.85-.2zm13.2 0c2.4-.1 6.45-.1 9 0 2.55.05.6.15-4.35.15-4.95 0-7.05-.1-4.65-.15z"/></svg>