<?xml version="1.0" encoding="utf-8"?>
<!DOCTYPE svg PUBLIC "-//W3C//DTD SVG 20010904//EN" "http://www.w3.org/TR/2001/REC-SVG-20010904/DTD/svg10.dtd">
<svg version="1.0" xmlns="http://www.w3.org/2000/svg" width="544px" height="343px" viewBox="0 0 544 343" preserveAspectRatio="xMidYMid meet">

 <g fill="#d2d4d4">
  <path d="M140.80 337.95 c-1.10 -0.25 -2.35 -0.80 -2.80 -1.20 -0.45 -0.40 -1.05 -0.75 -1.30 -0.75 -0.75 0 -2.70 -2.35 -2.70 -3.20 0 -0.45 -0.30 -0.80 -0.70 -0.80 -0.35 0 -0.80 -0.50 -1 -1.10 -0.65 -2.50 -0.10 -8.15 0.75 -7.60 0.25 0.15 0.65 -0.30 0.95 -1.05 l0.50 -1.30 54.60 0.30 c30.05 0.20 55.85 0.30 57.30 0.30 l2.60 -0.05 0 1.70 0 1.65 -12.10 0 c-8.80 0 -12.15 0.15 -12.30 0.55 -0.25 0.75 -7.45 0.85 -7.70 0.10 -0.10 -0.30 -5.70 -0.70 -13.65 -1 -12.70 -0.45 -23.25 -0.55 -54.55 -0.50 l-13.10 0 -0.30 1.70 c-0.40 2.20 0.40 5.85 1.40 6.40 0.45 0.25 0.80 0.75 0.80 1.10 0 0.35 1.45 1.10 3.20 1.70 l3.20 1.10 129.40 0 129.45 0 2.65 -1.25 c2.10 -1 2.65 -1.50 2.90 -2.75 0.20 -0.80 0.60 -1.50 0.95 -1.50 0.75 0 1.25 -1.65 0.90 -3 -0.15 -0.55 -0.60 -1 -0.95 -1 -0.40 0 -0.70 -0.45 -0.70 -0.95 0 -0.70 -0.50 -1.10 -1.60 -1.35 -2.20 -0.50 -36.80 -0.40 -65.65 0.25 -14.60 0.30 -25.85 0.30 -29.75 0.05 -3.45 -0.25 -6.65 -0.50 -7.10 -0.50 -0.60 0 -0.90 -0.40 -0.90 -1.25 l0 -1.25 26.15 0 c14.35 -0.05 37.45 -0.15 51.30 -0.30 24 -0.30 28.90 -0.15 28.35 0.75 -0.15 0.20 0.25 0.70 0.95 1.05 1.70 0.90 3.10 6.70 2.20 9.20 -0.35 0.95 -1.05 1.85 -1.55 1.95 -0.50 0.15 -0.90 0.60 -0.90 1 0 0.40 -0.40 0.90 -0.85 1.05 -0.50 0.20 -1.55 0.70 -2.40 1.20 -1.40 0.80 -9.45 0.85 -132.75 0.95 -79.40 0 -132.05 -0.15 -133.20 -0.40z m22.10 -15.80 c-0.50 -0.10 -1.40 -0.10 -2 0 -0.65 0.10 -0.25 0.20 0.85 0.20 1.10 0.05 1.60 -0.05 1.15 -0.20z m216.25 0 c-0.90 -0.10 -2.40 -0.10 -3.25 0 -0.90 0.10 -0.20 0.20 1.60 0.20 1.80 0 2.50 -0.10 1.65 -0.20z m15 0 c-1.70 -0.10 -4.65 -0.10 -6.50 0 -1.85 0.10 -0.45 0.15 3.10 0.15 3.60 0 5.10 -0.05 3.40 -0.15z"/>
  <path d="M297.80 321.45 c-0.55 -2.75 -0.35 -4.45 0.45 -4.45 0.50 0 0.85 0.70 1.05 2 0.25 1.55 0.60 2.10 1.50 2.30 2 0.50 1.45 1.70 -0.75 1.70 -1.75 0 -1.95 -0.15 -2.25 -1.55z"/>
  <path d="M244.50 317 l0 -3.50 -122.25 0 -122.25 0 0 -1.55 0 -1.60 2.25 0.30 c1.25 0.20 56.60 0.35 122.95 0.35 l120.70 0.05 0.30 1.10 c0.15 0.60 0.30 2.75 0.30 4.75 0 3.25 -0.10 3.60 -1 3.60 -0.90 0 -1 -0.35 -1 -3.50z m-2.15 -4.35 c-1 -0.10 -2.60 -0.10 -3.50 0 -0.85 0.10 0 0.20 1.90 0.20 1.95 0 2.65 -0.10 1.60 -0.20z"/>
  <path d="M298 312.30 l0 -1.80 2.45 0 c1.35 0 2.80 0.15 3.25 0.30 1.10 0.40 1 1.70 -0.05 1.75 -0.75 0 -0.75 0.10 0.10 0.45 0.75 0.30 0.30 0.45 -1.60 0.45 -1.40 0.05 -2.90 0.20 -3.35 0.35 -0.65 0.25 -0.80 -0.05 -0.80 -1.50z"/>
  <path d="M306.25 313 c0.85 -0.35 0.85 -0.45 0.15 -0.45 -0.50 -0.05 -0.90 -0.40 -0.90 -0.80 0 -0.65 5.40 -0.75 45.75 -0.75 40.35 0 45.75 0.10 45.75 0.75 0 0.40 -0.40 0.75 -0.85 0.80 -0.75 0 -0.75 0.10 0.10 0.45 0.55 0.25 -18.90 0.45 -45 0.45 -26.10 0 -45.55 -0.20 -45 -0.45z"/>
  <path d="M398.25 313 c0.85 -0.35 0.85 -0.45 0.15 -0.45 -0.50 -0.05 -0.90 -0.40 -0.90 -0.80 0 -0.65 8.20 -0.75 70.95 -0.75 39 0 71.95 -0.15 73.25 -0.30 l2.30 -0.35 0 1.60 0 1.55 -73.35 -0.05 c-41.40 0 -72.95 -0.20 -72.40 -0.45z"/>
  <path d="M537.50 304.75 c0 -1.95 1.20 -2.50 1.65 -0.75 0.35 1.35 1.25 1.25 1.50 -0.10 0.15 -0.70 0.25 -0.45 0.30 0.75 0.05 1.80 0 1.85 -1.70 1.85 -1.65 0 -1.75 -0.10 -1.75 -1.75z"/>
  <path d="M352.50 193 c0 -0.40 2.55 -2 3.25 -2 0.15 0 0.25 0.55 0.25 1.25 0 1.10 -0.20 1.25 -1.75 1.25 -0.95 0 -1.75 -0.20 -1.75 -0.50z"/>
  <path d="M351.50 185.25 c0 -1.10 0.20 -1.25 1.90 -1.25 l1.85 0.05 -1.40 1.20 c-1.80 1.60 -2.35 1.55 -2.35 0z"/>
  <path d="M95.50 181.75 c0 -1.80 1.25 -2.55 1.60 -0.95 0.10 0.65 0.75 0.85 2.90 0.85 2.15 0 2.80 -0.20 2.90 -0.85 0.35 -1.60 1.60 -0.85 1.60 0.95 l0 1.75 -4.50 0 -4.50 0 0 -1.75z"/>
  <path d="M124.85 183.15 c-0.20 -0.15 -0.35 -1.05 -0.35 -2 0 -1.90 1 -2.25 1.75 -0.50 0.45 0.95 0.90 1.10 3.10 1.10 2.20 0 2.65 -0.15 2.80 -1 0.10 -0.55 0.25 -0.15 0.30 0.90 l0.05 1.85 -3.65 0 c-2.05 0 -3.85 -0.15 -4 -0.35z"/>
  <path d="M155.50 182.55 c0 -0.80 0.35 -0.90 2.75 -0.85 2.35 0.05 2.75 -0.05 2.90 -0.95 0.10 -0.55 0.25 -0.15 0.30 0.90 l0.05 1.85 -3 0 c-2.60 0 -3 -0.15 -3 -0.95z"/>
  <path d="M178 182.50 c0 -0.90 0.35 -1 2.75 -1 2.40 0 2.75 0.10 2.75 1 0 0.90 -0.35 1 -2.75 1 -2.40 0 -2.75 -0.10 -2.75 -1z"/>
  <path d="M214.50 182.50 c0 -0.90 0.35 -1 2.75 -1 2.40 0 2.75 0.10 2.75 1 0 0.90 -0.35 1 -2.75 1 -2.40 0 -2.75 -0.10 -2.75 -1z"/>
  <path d="M251 182.45 c0 -0.90 0.25 -1 2.50 -0.85 2 0.10 2.50 0.35 2.50 1.05 0 0.70 -0.45 0.85 -2.50 0.85 -2.20 0 -2.50 -0.15 -2.50 -1.05z"/>
  <path d="M271.50 181.75 c0 -1.90 1.20 -2.50 1.65 -0.80 0.20 0.80 0.55 0.90 2.65 0.70 1.35 -0.15 2.50 -0.35 2.60 -0.40 0.05 -0.05 0.20 -3.90 0.35 -8.55 0.10 -4.65 0.20 -8.75 0.20 -9.05 0.05 -0.35 0.40 -0.65 0.80 -0.65 0.65 0 0.75 1.35 0.65 10.15 l-0.15 10.10 -4.35 0.15 -4.40 0.15 0 -1.80z"/>
  <path d="M292.50 182.80 c0 -0.85 2.55 -1.50 4 -1.05 0.80 0.25 1.15 0.10 1.35 -0.70 0.45 -1.75 1.65 -1.25 1.65 0.70 l0 1.75 -3.50 0 c-2.70 0 -3.50 -0.15 -3.50 -0.70z"/>
  <path d="M319.80 181.65 c-0.15 -1.05 -0.30 -3.85 -0.30 -6.25 0 -3.40 0.15 -4.40 0.70 -4.40 0.95 0 1.10 1 1 6.15 0 2.40 0.10 4.35 0.25 4.35 4.40 0.40 5.50 0.25 5.70 -0.75 0.10 -0.55 0.25 -0.15 0.30 0.90 l0.05 1.85 -3.70 0 -3.65 0 -0.35 -1.85z"/>
  <path d="M344 182.55 c0 -0.80 0.40 -0.95 2.75 -1 2.40 0 2.75 0.10 2.75 0.95 0 0.85 -0.35 1 -2.75 1 -2.35 0 -2.75 -0.15 -2.75 -0.95z"/>
  <path d="M378.90 183.15 c-1.50 -0.15 -1.90 -0.40 -1.90 -1.20 0 -0.90 0.25 -1 1.90 -0.75 1 0.20 2.90 0.35 4.25 0.40 1.90 0.05 2.35 0.25 2.35 1 0 0.95 -1.55 1.05 -6.60 0.55z"/>
  <path d="M395.50 182.75 c0 -0.40 0.40 -0.80 0.90 -0.85 0.45 -0.05 1.30 -0.10 1.85 -0.15 0.55 -0.05 1.30 -0.15 1.65 -0.20 0.30 0 0.60 -0.40 0.60 -0.80 0 -0.40 0.25 -0.75 0.50 -0.75 0.30 0 0.50 0.80 0.50 1.75 l0 1.75 -3 0 c-2.35 0 -3 -0.15 -3 -0.75z"/>
  <path d="M415.40 183.15 c-1.50 -0.15 -1.90 -0.40 -1.90 -1.25 0 -0.90 0.20 -1 1.55 -0.70 0.85 0.15 2.90 0.30 4.50 0.30 2.60 0 2.95 0.10 2.95 1 0 0.90 -0.30 1 -2.60 0.90 -1.45 -0.05 -3.50 -0.15 -4.50 -0.25z"/>
  <path d="M453 182.80 c0 -0.35 0.50 -0.80 1.15 -1 2.05 -0.55 2.85 -0.35 2.85 0.70 0 0.85 -0.35 1 -2 1 -1.35 0 -2 -0.20 -2 -0.70z"/>
  <path d="M482.50 182.45 c0 -0.95 0.20 -1.05 1.50 -0.75 1.50 0.25 1.50 0.25 1.60 -2.10 0 -1.30 0.05 -2.65 0.05 -2.95 -0.05 -0.35 0.40 -0.65 0.90 -0.65 0.85 0 0.95 0.40 0.95 3.45 0 3.75 -0.25 4.05 -3.60 4.05 -1.10 0 -1.40 -0.25 -1.40 -1.05z"/>
  <path d="M221.50 181.90 c0 -0.35 1.05 -1.10 2.35 -1.65 1.30 -0.55 2.55 -1.05 2.75 -1.15 0.20 -0.10 0.40 0.35 0.40 1.05 0 0.80 -0.40 1.40 -1.25 1.75 -1.70 0.80 -4.25 0.75 -4.25 0z"/>
  <path d="M258 181.85 c0 -0.35 0.85 -0.95 1.90 -1.35 2.45 -0.90 5.65 -3 5.30 -3.55 -0.15 -0.25 0 -0.45 0.25 -0.45 0.30 0 0.55 0.80 0.55 1.75 0 1.20 -0.25 1.75 -0.75 1.75 -0.40 0 -0.75 0.25 -0.75 0.50 0 0.30 -0.35 0.50 -0.80 0.50 -0.40 0 -1.10 0.35 -1.50 0.75 -0.95 0.95 -4.20 1 -4.20 0.10z"/>
  <path d="M424 181.90 c0 -0.35 1 -1.05 2.25 -1.55 2.90 -1.20 4.90 -2.80 4.55 -3.65 -0.15 -0.45 0.10 -0.70 0.70 -0.70 0.80 0 1 0.35 1 1.75 0 1.60 -0.10 1.75 -1.50 1.75 -1.10 0 -1.50 0.25 -1.50 0.90 0 0.55 -0.55 1.20 -1.25 1.50 -1.70 0.80 -4.25 0.75 -4.25 0z"/>
  <path d="M458 181.85 c0 -0.35 0.85 -0.95 1.90 -1.35 1 -0.40 2 -0.80 2.25 -0.90 0.20 -0.10 0.35 0.35 0.35 1.05 0 1.35 -0.80 1.85 -3.05 1.85 -0.85 0 -1.45 -0.25 -1.45 -0.65z"/>
  <path d="M186 181.50 c0 -0.40 3.50 -2.50 4.25 -2.50 0.65 0 0.15 2.40 -0.55 2.70 -1.25 0.45 -3.70 0.35 -3.70 -0.20z"/>
  <path d="M363 181.40 c0 -1.50 0.65 -2.90 1.30 -2.90 0.45 0 0.70 0.60 0.70 1.75 0 1.40 -0.20 1.75 -1 1.75 -0.55 0 -1 -0.30 -1 -0.60z"/>
  <path d="M352.50 181 c0 -0.40 2.55 -2 3.25 -2 0.15 0 0.25 0.55 0.25 1.25 0 1.10 -0.20 1.25 -1.75 1.25 -0.95 0 -1.75 -0.20 -1.75 -0.50z"/>
  <path d="M373 180.25 c0 -1.45 0.10 -1.50 2 -0.50 2 1.05 1.90 1.75 -0.25 1.75 -1.55 0 -1.75 -0.15 -1.75 -1.25z"/>
  <path d="M473 177.95 l0 -1.50 1.50 1.05 c2.20 1.55 2.25 2 0.30 2 -1.65 0 -1.80 -0.10 -1.80 -1.55z"/>
  <path d="M363.60 174.90 c0.15 -1.75 0.50 -3.20 0.80 -3.30 0.75 -0.25 0.80 -2.10 0.10 -2.10 -0.25 0 -0.50 -0.80 -0.50 -1.75 0 -2.80 1.15 -2.05 2.30 1.50 1.05 3.15 1.05 3.25 0.15 3.25 -0.80 0 -0.95 0.40 -0.95 2.75 0 2.45 -0.10 2.75 -1.05 2.75 -1 0 -1.05 -0.20 -0.85 -3.10z"/>
  <path d="M438.80 177.20 c-0.45 -1.20 -0.35 -3.70 0.15 -3.70 0.25 0 1.05 1 1.70 2.25 l1.30 2.25 -1.45 0 c-0.80 0 -1.50 -0.35 -1.70 -0.80z"/>
  <path d="M450.35 177 c-2.25 -0.40 -4.60 -2.55 -5.45 -4.85 -0.60 -1.60 -0.70 -1.70 -2.50 -1.40 -1.70 0.30 -1.90 0.20 -1.90 -0.70 0 -0.85 0.30 -1.05 1.75 -1.05 0.95 0 1.75 0.25 1.75 0.50 0 0.30 0.55 0.50 1.25 0.50 0.90 0 1.25 0.25 1.25 1 0 0.55 0.25 1 0.50 1 0.30 0 0.50 0.65 0.50 1.45 l0 1.50 4 0.35 c2.70 0.20 4 0.55 4 0.95 0 0.35 -0.50 0.75 -1.10 0.95 -1.30 0.35 -1.45 0.30 -4.05 -0.20z"/>
  <path d="M330.50 175.75 c0 -0.40 -0.20 -0.75 -0.40 -0.75 -0.65 0 -1.60 -2.40 -1.60 -4 0 -2.10 0.80 -1.85 2.05 0.65 0.60 1.15 1.50 2.70 2.05 3.50 l0.95 1.35 -1.50 0 c-1.05 0 -1.55 -0.25 -1.55 -0.75z"/>
  <path d="M385.50 174.75 c0 -0.90 0.25 -1.25 1 -1.25 0.55 0 1 -0.20 1 -0.50 0 -0.25 0.85 -0.50 1.85 -0.50 1.85 0 1.85 0 0.90 1 -0.55 0.50 -1.85 1.30 -2.85 1.75 l-1.90 0.75 0 -1.25z"/>
  <path d="M256.50 174.50 c0 -0.80 0.35 -1 1.75 -1 1.95 0 2.30 0.70 0.80 1.50 -1.55 0.80 -2.55 0.60 -2.55 -0.50z"/>
  <path d="M350 174.25 c0 -1.10 0.20 -1.25 1.75 -1.25 2.15 0 2.20 0.50 0.30 1.65 -1.90 1.10 -2.05 1.10 -2.05 -0.40z"/>
  <path d="M185 173.75 c0 -1.10 0.20 -1.25 1.90 -1.25 l1.85 0.05 -1.40 1.20 c-1.80 1.60 -2.35 1.55 -2.35 0z"/>
  <path d="M236.80 174.20 c-0.45 -1.20 -0.35 -3.70 0.15 -3.70 0.25 0 1.05 1 1.70 2.25 l1.30 2.25 -1.45 0 c-0.80 0 -1.50 -0.35 -1.70 -0.80z"/>
  <path d="M223 173.05 c0 -1.45 0.15 -1.55 1.80 -1.55 1.95 0 1.90 0.45 -0.30 2 l-1.50 1.05 0 -1.50z"/>
  <path d="M337.95 172.55 c-2.25 -2.25 -2.45 -3.05 -0.70 -3.05 1 0 1.25 0.25 1.25 1.25 0 1 0.25 1.25 1.25 1.25 1 0 1.25 0.25 1.25 1.25 0 1.75 -0.80 1.55 -3.05 -0.70z"/>
  <path d="M402.50 172.75 c0 -0.95 0.20 -1.75 0.45 -1.75 0.25 0 0.90 0.80 1.50 1.75 l1 1.75 -1.45 0 c-1.40 0 -1.50 -0.15 -1.50 -1.75z"/>
  <path d="M459 172.75 c0 -1.40 0.20 -1.75 1 -1.75 1.10 0 1.30 1 0.50 2.55 -0.80 1.50 -1.50 1.15 -1.50 -0.80z"/>
  <path d="M468.50 172.25 c0 -2.15 0.70 -2.25 1.75 -0.25 1 1.90 0.95 2 -0.50 2 -1.10 0 -1.25 -0.20 -1.25 -1.75z"/>
  <path d="M171.80 172.25 l-1.40 -1.50 1.35 -0.15 c1.70 -0.20 1.85 -0.05 1.65 1.75 l-0.15 1.40 -1.45 -1.50z"/>
  <path d="M373.55 171.40 c-1.90 -2.55 -1.90 -2.90 -0.30 -2.90 0.90 0 1.25 0.25 1.25 1 0 0.55 0.35 1 0.75 1 0.50 0 0.75 0.50 0.75 1.50 0 2.05 -0.65 1.90 -2.45 -0.60z"/>
  <path d="M207.90 171.65 c-1 -1.10 -2.40 -4.25 -2.40 -5.40 0 -0.40 0.45 -0.75 0.95 -0.75 0.70 0 1.05 0.50 1.30 1.65 0.20 0.85 0.60 1.75 0.85 1.90 0.25 0.15 0.40 1.05 0.30 1.95 -0.15 1.55 -0.20 1.60 -1 0.65z"/>
  <path d="M476.05 170.70 c-1.35 -1.75 -1.30 -2.20 0.20 -2.20 1.10 0 1.25 0.20 1.25 1.75 0 0.95 -0.10 1.75 -0.20 1.75 -0.15 0 -0.70 -0.60 -1.25 -1.30z"/>
  <path d="M319.50 167.75 c0 -2.10 0.15 -2.75 0.75 -2.75 0.75 0 0.85 0.35 0.85 2.75 0 2.40 -0.10 2.75 -0.85 2.75 -0.60 0 -0.75 -0.65 -0.75 -2.75z"/>
  <path d="M400.80 168.65 c-0.15 -1.05 -0.30 -3.10 -0.30 -4.50 0 -2.35 0.10 -2.65 1.05 -2.65 0.90 0 1 0.20 0.75 1.90 -0.20 1 0 3 0.35 4.50 0.70 2.55 0.70 2.60 -0.40 2.60 -0.90 0 -1.20 -0.35 -1.45 -1.85z"/>
  <path d="M124.50 166 c0 -2.80 0.15 -3.50 0.75 -3.50 0.40 0 0.75 0.30 0.80 0.65 0 0.30 0.10 1.15 0.20 1.85 0.35 2.10 -0.25 4.50 -1 4.50 -0.60 0 -0.75 -0.75 -0.75 -3.50z"/>
  <path d="M234.55 169.05 c-0.85 -0.55 -0.25 -3.55 0.75 -3.55 0.70 0 1.70 1.90 1.70 3.30 0 0.75 -1.35 0.95 -2.45 0.25z"/>
  <path d="M242.85 168.65 c-0.20 -0.15 -0.35 -0.60 -0.35 -1 0 -0.50 2.70 -0.65 14.20 -0.65 l14.20 0 0.30 -1.75 c0.20 -1.05 0.65 -1.75 1.05 -1.75 0.50 0 0.75 0.55 0.75 1.75 0 0.95 -0.20 1.75 -0.50 1.75 -0.25 0 -0.50 0.45 -0.50 1 0 1 -0.35 1 -14.40 1 -7.95 0 -14.60 -0.15 -14.75 -0.35z"/>
  <path d="M408.50 168 c0 -0.95 0.35 -1 4.50 -1 4.15 0 4.50 0.05 4.50 1 0 0.95 -0.35 1 -4.50 1 -4.15 0 -4.50 -0.05 -4.50 -1z"/>
  <path d="M425 167.95 c0 -0.95 0.25 -1 5.85 -0.90 5.30 0.05 5.90 0 6.20 -0.85 0.25 -0.70 0.40 -0.40 0.40 0.95 l0.05 1.85 -6.25 0 c-5.95 0 -6.25 -0.05 -6.25 -1.05z"/>
  <path d="M356 166.75 c0 -1.40 0.20 -1.75 1 -1.75 1.05 0 1.20 0.50 0.70 2.40 -0.50 1.80 -1.70 1.35 -1.70 -0.65z"/>
  <path d="M451 167.50 c0 -1.05 0.50 -1.20 2.40 -0.70 1.80 0.50 1.35 1.70 -0.65 1.70 -1.40 0 -1.75 -0.20 -1.75 -1z"/>
  <path d="M198 165.30 c0 -1.45 0.15 -3.70 0.30 -5 0.30 -2 0.50 -2.30 1.50 -2.30 1.10 0 1.15 0.10 0.65 1.40 -0.30 0.75 -0.60 3 -0.60 5 -0.05 3.10 -0.20 3.60 -0.95 3.60 -0.75 0 -0.90 -0.45 -0.90 -2.70z"/>
  <path d="M474.30 166.90 c-0.50 -1.90 -0.35 -2.40 0.70 -2.40 0.80 0 1 0.35 1 1.75 0 2 -1.20 2.45 -1.70 0.65z"/>
  <path d="M168.80 165.80 c-0.55 -2.30 1 -7.65 1.95 -6.70 0.60 0.55 -0.35 7.90 -1 7.90 -0.35 0 -0.80 -0.55 -0.95 -1.20z"/>
  <path d="M371.30 165.90 c-0.50 -1.90 -0.35 -2.40 0.70 -2.40 0.80 0 1 0.35 1 1.75 0 2 -1.20 2.45 -1.70 0.65z"/>
  <path d="M462.65 164.35 c-2.10 -1.40 -2.05 -1.85 0.10 -1.85 1.60 0 1.75 0.10 1.75 1.50 0 0.85 -0.05 1.50 -0.10 1.45 -0.10 0 -0.90 -0.50 -1.75 -1.10z"/>
  <path d="M153.50 162.75 c0 -2 1.20 -2.45 1.70 -0.60 0.50 1.85 0.35 2.35 -0.70 2.35 -0.80 0 -1 -0.35 -1 -1.75z"/>
  <path d="M190 161.25 c0 -1.95 0.70 -2.30 1.50 -0.80 0.80 1.55 0.60 2.55 -0.50 2.55 -0.80 0 -1 -0.35 -1 -1.75z"/>
  <path d="M298 162.20 c0 -1.05 0.90 -2.70 1.50 -2.70 0.30 0 0.50 0.80 0.50 1.75 0 1.40 -0.20 1.75 -1 1.75 -0.55 0 -1 -0.35 -1 -0.80z"/>
  <path d="M439.10 161.75 c-0.80 -1.70 -0.75 -4.25 0.05 -4.20 0.30 0 1.20 1.25 1.90 2.75 l1.30 2.70 -1.35 0 c-0.95 0 -1.50 -0.35 -1.90 -1.25z"/>
  <path d="M474.50 162 c0 -0.95 0.35 -1 5.45 -1 l5.45 0 0.20 -2.25 c0.20 -2.70 0.05 -3.25 -0.90 -3.25 -0.40 0 -0.70 -0.20 -0.70 -0.50 0 -0.25 0.80 -0.50 1.75 -0.50 l1.75 0 0 3.95 c0 4.70 0.30 4.55 -7.60 4.55 -5.05 0 -5.40 -0.05 -5.40 -1z"/>
  <path d="M363.30 160.90 c-0.50 -1.90 -0.35 -2.40 0.70 -2.40 0.80 0 1 0.35 1 1.75 0 2 -1.20 2.45 -1.70 0.65z"/>
  <path d="M123.50 159.70 c0 -2.20 0.90 -2.10 1.85 0.20 0.65 1.55 0.60 1.60 -0.60 1.60 -1.10 0 -1.25 -0.20 -1.25 -1.80z"/>
  <path d="M335.55 159.65 c0.60 -1.65 1.60 -2.90 3.85 -4.75 2.05 -1.75 2.60 -1.75 2.60 -0.15 0 1 -0.25 1.25 -1.25 1.25 -0.90 0 -1.25 0.25 -1.25 1 0 0.65 -0.35 1 -1 1 -0.80 0 -1 0.35 -1 1.50 0 1.25 -0.20 1.50 -1.20 1.50 -1.15 0 -1.20 -0.10 -0.75 -1.35z"/>
  <path d="M160.05 158.65 c-0.35 -1.05 -0.75 -2.20 -0.85 -2.50 -0.20 -0.45 0.15 -0.65 0.95 -0.65 1.30 0 1.85 1 1.85 3.65 0 2 -1.25 1.70 -1.95 -0.50z"/>
  <path d="M152 158.75 c0 -0.90 -0.25 -1.25 -1 -1.25 -0.80 0 -1 -0.35 -1 -1.50 0 -1.30 0.10 -1.45 0.90 -0.95 1.05 0.70 2.95 3.05 3.40 4.15 0.25 0.60 0 0.80 -1 0.80 -1.05 0 -1.30 -0.25 -1.30 -1.25z"/>
  <path d="M354.50 159.25 c0 -0.40 -0.20 -0.75 -0.50 -0.75 -0.25 0 -0.50 -0.65 -0.50 -1.50 0 -2 0.70 -1.90 2.25 0.35 1.55 2.35 1.55 2.65 0 2.65 -0.80 0 -1.25 -0.30 -1.25 -0.75z"/>
  <path d="M162.50 158.05 c0 -2.25 0.50 -3.05 1.85 -3.05 0.70 0 1.15 0.15 1.05 0.40 -0.10 0.20 -0.50 1.20 -0.90 2.25 -0.85 2.20 -2 2.45 -2 0.40z"/>
  <path d="M280 159.05 c0 -0.70 2.40 -3.40 4.05 -4.60 l1.45 -1 0 1.50 c0 1.40 -0.15 1.55 -1.50 1.55 -1.35 0 -1.50 0.15 -1.50 1.50 0 1.25 -0.20 1.50 -1.25 1.50 -0.70 0 -1.25 -0.20 -1.25 -0.45z"/>
  <path d="M325.25 157 c-1.55 -3 -1.55 -3 -0.10 -3 1.35 0 2.35 1.70 2.35 4 0 2.20 -0.80 1.85 -2.25 -1z"/>
  <path d="M427.50 157.65 l0.05 -1.90 1.20 1.40 c1.60 1.80 1.55 2.35 0 2.35 -1.10 0 -1.25 -0.20 -1.25 -1.85z"/>
  <path d="M435.25 157 c-1.55 -3 -1.55 -3 -0.10 -3 1.35 0 2.35 1.70 2.35 4 0 2.20 -0.80 1.85 -2.25 -1z"/>
  <path d="M409.50 158.50 c0 -0.95 3.25 -4 5.15 -4.75 1.85 -0.75 1.85 -0.75 1.85 0.50 0 0.90 -0.25 1.25 -1 1.25 -0.55 0 -1 0.25 -1 0.50 0 0.30 -0.55 0.50 -1.25 0.50 -1 0 -1.25 0.25 -1.25 1.25 0 1 -0.25 1.25 -1.25 1.25 -0.70 0 -1.25 -0.25 -1.25 -0.50z"/>
  <path d="M446.30 158.20 c-1.15 -1.10 -1 -1.70 0.45 -1.70 1 0 1.25 0.25 1.25 1.25 0 1.45 -0.60 1.60 -1.70 0.45z"/>
  <path d="M459.50 157.65 c0 -0.65 0.45 -0.95 1.75 -1 1.45 -0.15 1.75 0 1.75 0.85 0 0.80 -0.35 1 -1.75 1 -1.35 0 -1.75 -0.20 -1.75 -0.85z"/>
  <path d="M361.75 156.50 c-1 -1.90 -0.95 -2 0.50 -2 1.10 0 1.25 0.20 1.25 1.75 0 2.15 -0.70 2.25 -1.75 0.25z"/>
  <path d="M244.85 156.75 c0.50 -0.85 3.65 -3.25 4.25 -3.25 0.20 0 0.40 0.55 0.40 1.25 0 0.90 -0.25 1.25 -1 1.25 -0.55 0 -1 0.35 -1 0.75 0 0.50 -0.50 0.75 -1.50 0.75 -1.20 0 -1.45 -0.15 -1.15 -0.75z"/>
  <path d="M135 156.50 c0 -0.50 3 -2.55 4.65 -3.15 0.65 -0.25 0.85 -0.05 0.85 0.90 0 1 -0.25 1.25 -1.25 1.25 -0.80 0 -1.25 0.30 -1.25 0.75 0 0.50 -0.50 0.75 -1.50 0.75 -0.80 0 -1.50 -0.20 -1.50 -0.50z"/>
  <path d="M195.35 155.55 c-1.10 -1.90 -1.10 -2.05 0.40 -2.05 1.10 0 1.25 0.20 1.25 1.75 0 2.15 -0.50 2.20 -1.65 0.30z"/>
  <path d="M259.50 155.45 l0 -1.50 1.50 1.05 c0.85 0.60 1.50 1.30 1.50 1.55 0 0.25 -0.65 0.45 -1.50 0.45 -1.35 0 -1.50 -0.15 -1.50 -1.55z"/>
  <path d="M172.25 156 c0.15 -0.25 0.95 -0.95 1.75 -1.50 l1.50 -1.05 0 1.50 c0 1.45 -0.15 1.55 -1.80 1.55 -1 0 -1.65 -0.20 -1.45 -0.50z"/>
  <path d="M185.50 155.25 c0 -1.55 0.55 -1.60 2.35 0 l1.40 1.20 -1.85 0.05 c-1.70 0 -1.90 -0.15 -1.90 -1.25z"/>
  <path d="M209.05 155.70 c0.55 -0.70 4.05 -2.70 4.70 -2.70 0.15 0 0.25 0.55 0.25 1.25 0 0.90 -0.25 1.25 -1 1.25 -0.55 0 -1 0.25 -1 0.50 0 0.30 -0.80 0.50 -1.80 0.50 -1.60 0 -1.75 -0.10 -1.15 -0.80z"/>
  <path d="M301.75 155.50 c0.55 -0.50 1.85 -1.30 2.90 -1.75 l1.85 -0.75 0 1.25 c0 0.90 -0.25 1.25 -1 1.25 -0.55 0 -1 0.25 -1 0.50 0 0.30 -0.85 0.50 -1.85 0.50 -1.85 0 -1.85 0 -0.90 -1z"/>
  <path d="M445.50 155.10 c0 -1.40 2 -2.95 4.40 -3.35 1.85 -0.30 2.10 -0.25 2.10 0.65 0 0.80 -0.45 1.05 -2.25 1.30 -1.80 0.30 -2.25 0.55 -2.25 1.35 0 0.60 -0.35 0.95 -1 0.95 -0.65 0 -1 -0.35 -1 -0.90z"/>
  <path d="M457 154.15 l0.05 -1.90 1.20 1.40 c1.60 1.80 1.55 2.35 0 2.35 -1.10 0 -1.25 -0.20 -1.25 -1.85z"/>
  <path d="M108.10 154.90 c0.15 -0.35 0.95 -0.90 1.80 -1.25 1.55 -0.65 1.60 -0.60 1.60 0.60 0 1.10 -0.20 1.25 -1.80 1.25 -1.15 0 -1.70 -0.20 -1.60 -0.60z"/>
  <path d="M474 154.50 c0 -0.65 0.35 -1 1 -1 0.65 0 1 0.35 1 1 0 0.65 -0.35 1 -1 1 -0.65 0 -1 -0.35 -1 -1z"/>
  <path d="M202 153.30 c0 -1.65 0.10 -1.80 1.55 -1.80 l1.50 0 -1.05 1.50 c-1.55 2.20 -2 2.25 -2 0.30z"/>
  <path d="M114.50 153.50 c0 -1.05 0.50 -1.20 2.40 -0.70 1.80 0.50 1.35 1.70 -0.65 1.70 -1.40 0 -1.75 -0.20 -1.75 -1z"/>
  <path d="M180.50 153.50 c0 -1.05 0.50 -1.20 2.40 -0.70 1.80 0.50 1.35 1.70 -0.65 1.70 -1.40 0 -1.75 -0.20 -1.75 -1z"/>
  <path d="M287.50 153.80 c0 -0.40 0.65 -0.85 1.45 -1.05 0.85 -0.15 1.60 -0.70 1.70 -1.15 0.15 -0.45 0.25 0 0.30 1.05 0.05 1.80 0 1.85 -1.70 1.85 -1.20 0 -1.75 -0.25 -1.75 -0.70z"/>
  <path d="M309.50 153.50 c0 -1.05 0.50 -1.20 2.40 -0.70 1.80 0.50 1.35 1.70 -0.65 1.70 -1.40 0 -1.75 -0.20 -1.75 -1z"/>
  <path d="M419.50 153.50 c0 -1.05 0.50 -1.20 2.40 -0.70 1.80 0.50 1.35 1.70 -0.65 1.70 -1.40 0 -1.75 -0.20 -1.75 -1z"/>
  <path d="M463.85 152.25 l-1.30 -2.25 1.45 0 c1.50 0 2 0.75 2 3.05 0 2.05 -0.70 1.80 -2.15 -0.80z"/>
  <path d="M407 150.55 c0 -1.40 0.15 -1.55 1.50 -1.55 1.15 0 1.50 -0.20 1.50 -1 0 -0.80 0.35 -1 1.75 -1 2.20 0 2.25 0.70 0.15 1.80 -0.90 0.45 -2.40 1.40 -3.25 2.10 l-1.65 1.20 0 -1.55z"/>
  <path d="M440.50 150.25 c0 -1.70 0.05 -1.75 1.85 -1.75 l1.85 0 -1.70 1.75 c-0.95 0.95 -1.75 1.75 -1.85 1.75 -0.10 0 -0.15 -0.80 -0.15 -1.75z"/>
  <path d="M103.50 149.50 c0 -1 0.25 -1.50 0.75 -1.50 0.40 0 0.75 -0.20 0.75 -0.50 0 -0.25 0.80 -0.50 1.75 -0.50 0.95 0 1.75 0.20 1.75 0.45 0 0.20 -1.10 1.10 -2.50 1.95 l-2.50 1.55 0 -1.45z"/>
  <path d="M242.50 149.50 c0 -1.30 0.25 -1.55 1.50 -1.80 0.85 -0.20 1.50 -0.50 1.50 -0.75 0 -0.25 0.70 -0.45 1.50 -0.45 0.85 0 1.50 -0.20 1.50 -0.50 0 -0.25 0.80 -0.50 1.75 -0.50 2.70 0 2.15 1.15 -1 2.15 -1.50 0.45 -3.65 1.40 -4.75 2.10 l-2 1.25 0 -1.50z"/>
  <path d="M335 149.50 c0 -1.40 0.15 -1.50 1.75 -1.50 2.20 0 2.20 0.45 0 1.90 l-1.75 1.10 0 -1.50z"/>
  <path d="M355.65 149.85 c-2.10 -1.40 -2.05 -1.85 0.10 -1.85 1.60 0 1.75 0.10 1.75 1.50 0 0.85 -0.05 1.50 -0.10 1.45 -0.10 0 -0.90 -0.50 -1.75 -1.10z"/>
  <path d="M189.40 149.60 c-1.85 -1.10 -1.75 -1.60 0.35 -1.60 1.55 0 1.75 0.15 1.75 1.25 0 1.45 -0.30 1.50 -2.10 0.35z"/>
  <path d="M278.65 148.80 c0.25 -1.50 0.15 -1.75 -0.80 -1.95 -0.65 -0.10 -0.30 -0.25 0.80 -0.30 1 0 1.85 0.20 1.85 0.45 0 0.35 0.30 0.35 0.95 0 1.25 -0.65 4.05 -0.65 4.05 0 0 0.50 -5.55 3.50 -6.55 3.50 -0.40 0 -0.50 -0.60 -0.30 -1.70z"/>
  <path d="M133.50 148.85 c0 -1.35 1.70 -2.35 4 -2.35 2.20 0 1.85 0.80 -1 2.25 -3 1.55 -3 1.55 -3 0.10z"/>
  <path d="M170 148.75 c0 -1.10 0.20 -1.25 1.75 -1.25 2.15 0 2.25 0.70 0.25 1.75 -1.90 1 -2 0.95 -2 -0.50z"/>
  <path d="M207.50 148.35 c0 -1.35 0.80 -1.85 3.05 -1.85 2.05 0 1.80 1.15 -0.40 2 -1.05 0.40 -2.05 0.80 -2.25 0.90 -0.25 0.10 -0.40 -0.35 -0.40 -1.05z"/>
  <path d="M300 148.25 c0 -1.10 0.20 -1.25 1.75 -1.25 2.15 0 2.25 0.70 0.25 1.75 -1.90 1 -2 0.95 -2 -0.50z"/>
  <path d="M371 148.25 c0 -0.80 -0.30 -1.25 -0.75 -1.25 -0.40 0 -0.75 -0.20 -0.75 -0.50 0 -0.25 0.80 -0.50 1.75 -0.50 1.65 0 1.75 0.10 1.75 1.75 0 1.40 -0.20 1.75 -1 1.75 -0.75 0 -1 -0.35 -1 -1.25z"/>
  <path d="M146.40 147.15 c-1.65 -0.40 -1 -1.65 0.85 -1.65 1.40 0 1.75 0.20 1.75 1 0 1 -0.70 1.15 -2.60 0.65z"/>
  <path d="M256.40 147.15 c-1.65 -0.40 -1 -1.65 0.85 -1.65 1.40 0 1.75 0.20 1.75 1 0 1 -0.70 1.15 -2.60 0.65z"/>
  <path d="M538.50 4.25 c0 -1.65 0.10 -1.75 1.75 -1.75 1.65 0 1.75 0.10 1.75 1.75 0 2 -1.20 2.45 -1.70 0.65 l-0.35 -1.15 -0.45 1.15 c-0.65 1.60 -1 1.35 -1 -0.65z"/>
 </g>
 <g fill="#c4c6c7">
  <path d="M139.40 336.50 c-1.30 -0.50 -2.45 -0.75 -2.60 -0.60 -0.15 0.10 -0.50 -0.35 -0.80 -1.10 -0.25 -0.75 -0.70 -1.25 -0.95 -1.05 -0.30 0.15 -0.80 -1.15 -1.10 -2.85 -0.55 -2.60 -0.70 -2.95 -1 -1.90 -0.25 0.95 -0.35 0.60 -0.40 -1.30 -0.05 -1.90 0.15 -2.65 0.70 -2.90 0.40 -0.15 0.75 -0.75 0.75 -1.30 0 -1 0.25 -1 13.50 -1 13.15 0 13.50 0 13.50 1 0 0.95 -0.35 1 -10.25 1 -8.80 0 -10.25 -0.10 -10.25 -0.75 0 -0.55 -0.55 -0.75 -2 -0.75 -2.40 0 -3 0.90 -3 4.45 0 2 0.20 2.60 1 3.05 0.55 0.30 1 0.85 1 1.20 0 0.40 0.45 0.80 1 0.95 0.55 0.15 1 0.60 1 1 0 0.55 0.75 0.85 2.65 1.10 4.05 0.45 262.50 0.05 263.50 -0.45 0.45 -0.20 0.85 -0.70 0.85 -1.10 0 -0.40 0.30 -0.70 0.70 -0.70 1.05 0 1.70 -3.80 1.15 -6.10 -0.35 -1.35 -0.75 -1.90 -1.40 -1.90 -0.60 0 -0.95 -0.35 -0.95 -1 0 -1.05 0.80 -1.25 2.90 -0.70 0.65 0.20 1.10 0.70 1.10 1.25 0 0.55 0.30 0.95 0.70 0.95 1.55 0 1.75 6.45 0.25 6.85 -0.45 0.15 -1 0.90 -1.15 1.70 -0.20 1.20 -0.80 1.75 -2.90 2.70 l-2.65 1.25 -131.25 -0.05 c-124.80 -0.05 -131.35 -0.10 -133.60 -0.95z"/>
  <path d="M161 333 c0 -0.25 -0.35 -0.50 -0.75 -0.50 -0.50 0 -0.75 -0.55 -0.75 -1.75 l0 -1.75 6.70 0 c4.90 0 6.80 0.15 6.95 0.65 0.20 0.50 0.30 0.50 0.30 0 0.05 -0.45 1 -0.65 3.05 -0.65 l3 0 0 1.75 0 1.75 -3 0 c-1.65 0 -3 0.20 -3 0.50 0 0.30 -2.40 0.50 -6.25 0.50 -3.85 0 -6.25 -0.20 -6.25 -0.50z"/>
  <path d="M207.50 331.80 c0 -1.50 0.15 -1.70 1.65 -2 0.85 -0.15 7.20 -0.45 14.05 -0.65 13.65 -0.30 13.30 -0.40 13.30 2.75 l0 1.60 -14.50 0 -14.50 0 0 -1.70z"/>
  <path d="M317 331.80 c0 -1.10 0.30 -1.80 0.80 -2 1 -0.40 4.15 -0.40 6.15 0 1.35 0.30 1.55 0.50 1.55 2 l0 1.70 -4.25 0 -4.25 0 0 -1.70z"/>
  <path d="M200 326.80 c-13.75 -0.55 -17.05 -0.80 -18.35 -1.45 -1.30 -0.70 -3.20 -0.85 -10.40 -0.85 -8.65 0 -8.75 0 -8.75 -1.10 l0 -1.05 24.40 0.35 c29 0.45 32.15 0.55 32.70 1.40 0.30 0.50 0.50 0.50 0.90 -0.10 0.30 -0.50 0.50 -0.55 0.50 -0.10 0 0.30 0.25 0.60 0.55 0.60 0.25 0 0.35 -0.30 0.15 -0.60 -0.25 -0.40 0 -0.35 0.55 0.10 0.50 0.40 0.80 0.50 0.60 0.20 -0.25 -0.45 1.35 -0.70 5.60 -0.95 3.30 -0.20 6.20 -0.20 6.50 -0.05 0.25 0.15 2.10 0.15 4.15 -0.05 l3.65 -0.35 -4.75 -0.60 -4.75 -0.55 5 -0.10 c2.75 -0.05 5.30 -0.25 5.60 -0.45 0.85 -0.50 1.35 -4.55 0.95 -6.80 l-0.35 -1.80 -121.10 0 c-66.60 0 -121.60 -0.15 -122.20 -0.30 -0.65 -0.20 -1.15 -0.65 -1.15 -1 0 -0.60 18.40 -0.70 121.70 -0.70 66.90 0 122.35 0.15 123.20 0.30 1.50 0.30 1.55 0.45 1.90 3.65 0.20 1.85 0.15 4.10 -0.15 5.15 l-0.50 1.90 25.70 0 25.70 0 -0.35 -3.20 c-0.20 -1.75 -0.15 -4.25 0 -5.50 l0.35 -2.30 123.25 0 c107.45 0 123.20 0.10 123.20 0.75 0 0.40 -0.65 0.80 -1.60 1 -0.90 0.15 -55.90 0.20 -122.25 0.15 -66.30 -0.10 -120.45 -0.05 -120.30 0.10 0.10 0.15 2.30 0.40 4.80 0.55 l4.60 0.25 -5.10 0.10 -5.15 0.10 0 2.45 c0 1.35 0.15 3.15 0.30 4 l0.35 1.55 5.05 0.10 c4.15 0.05 4.60 0.10 2.55 0.40 l-2.50 0.35 2 0.10 c1.10 0.05 2.45 0.20 3 0.35 1.75 0.35 14.05 0.35 53.15 -0.05 l38.10 -0.40 0 1.05 0 1.10 -14.85 0 c-8.60 0.05 -15.85 0.25 -17.15 0.55 -5 1.20 -18.55 1.45 -81.25 1.65 -36 0.10 -66.75 0.30 -68.25 0.45 -1.50 0.15 -10.30 -0.05 -19.50 -0.35z m46.90 -3.65 c-0.50 -0.10 -1.30 -0.10 -1.75 0 -0.50 0.15 -0.10 0.25 0.85 0.25 0.95 0 1.35 -0.10 0.90 -0.25z"/>
  <path d="M134.50 321.40 c0 -0.20 0.80 -0.40 1.75 -0.40 0.95 0 1.75 0.10 1.75 0.20 0 0.10 -0.80 0.30 -1.75 0.40 -0.95 0.10 -1.75 0 -1.75 -0.20z"/>
  <path d="M1.90 313.15 c0.60 -0.10 1.50 -0.10 2 0 0.45 0.15 -0.05 0.25 -1.15 0.20 -1.10 0 -1.50 -0.10 -0.85 -0.20z"/>
  <path d="M17.90 313.15 c1.45 -0.10 3.70 -0.10 5 0 1.30 0.10 0.10 0.15 -2.65 0.15 -2.75 0 -3.80 -0.05 -2.35 -0.15z"/>
  <path d="M34.40 313.15 c0.60 -0.10 1.50 -0.10 2 0 0.45 0.15 -0.05 0.25 -1.15 0.20 -1.10 0 -1.50 -0.10 -0.85 -0.20z"/>
  <path d="M48.40 313.15 c0.60 -0.10 1.50 -0.10 2 0 0.45 0.15 -0.05 0.25 -1.15 0.20 -1.10 0 -1.50 -0.10 -0.85 -0.20z"/>
  <path d="M54.40 313.15 c0.60 -0.10 1.50 -0.10 2 0 0.45 0.15 -0.05 0.25 -1.15 0.20 -1.10 0 -1.50 -0.10 -0.85 -0.20z"/>
  <path d="M60.40 313.15 c0.60 -0.10 1.50 -0.10 2 0 0.45 0.15 -0.05 0.25 -1.15 0.20 -1.10 0 -1.50 -0.10 -0.85 -0.20z"/>
  <path d="M86.90 313.15 c0.90 -0.10 2.25 -0.10 3 0 0.75 0.10 0 0.20 -1.65 0.20 -1.65 0 -2.25 -0.10 -1.35 -0.20z"/>
  <path d="M98.40 313.15 c0.60 -0.10 1.50 -0.10 2 0 0.45 0.15 -0.05 0.25 -1.15 0.20 -1.10 0 -1.50 -0.10 -0.85 -0.20z"/>
  <path d="M141.60 313.15 c17.75 -0.10 47 -0.10 65 0 17.95 0.05 3.40 0.10 -32.35 0.10 -35.75 0 -50.45 -0.05 -32.65 -0.10z"/>
  <path d="M312.90 313.15 c0.90 -0.10 2.25 -0.10 3 0 0.75 0.10 0 0.20 -1.65 0.20 -1.65 0 -2.25 -0.10 -1.35 -0.20z"/>
  <path d="M327.10 313.15 c5.40 -0.10 14.40 -0.10 20 0 5.60 0.05 1.15 0.10 -9.85 0.10 -11 0 -15.55 -0.05 -10.15 -0.10z"/>
  <path d="M364.90 313.15 c0.90 -0.10 2.25 -0.10 3 0 0.75 0.10 0 0.20 -1.65 0.20 -1.65 0 -2.25 -0.10 -1.35 -0.20z"/>
  <path d="M377.40 313.15 c1.15 -0.10 2.95 -0.10 4 0 1 0.10 0.05 0.20 -2.15 0.20 -2.20 0 -3.05 -0.10 -1.85 -0.20z"/>
  <path d="M402.10 313.15 c10.35 -0.10 27.45 -0.10 38 0 10.55 0.05 2.05 0.10 -18.85 0.10 -20.90 0 -29.50 -0.05 -19.15 -0.10z"/>
  <path d="M464.40 313.15 c0.60 -0.10 1.50 -0.10 2 0 0.45 0.15 -0.05 0.25 -1.15 0.20 -1.10 0 -1.50 -0.10 -0.85 -0.20z"/>
  <path d="M472.40 313.15 c0.60 -0.10 1.50 -0.10 2 0 0.45 0.15 -0.05 0.25 -1.15 0.20 -1.10 0 -1.50 -0.10 -0.85 -0.20z"/>
  <path d="M476.40 313.15 c0.60 -0.10 1.50 -0.10 2 0 0.45 0.15 -0.05 0.25 -1.15 0.20 -1.10 0 -1.50 -0.10 -0.85 -0.20z"/>
  <path d="M482.90 313.15 c0.90 -0.10 2.25 -0.10 3 0 0.75 0.10 0 0.20 -1.65 0.20 -1.65 0 -2.25 -0.10 -1.35 -0.20z"/>
  <path d="M490.40 313.15 c1.70 -0.10 4.40 -0.10 6 0 1.55 0.10 0.15 0.15 -3.15 0.15 -3.30 0 -4.60 -0.05 -2.85 -0.15z"/>
  <path d="M502.40 313.15 c1.70 -0.10 4.40 -0.10 6 0 1.55 0.10 0.15 0.15 -3.15 0.15 -3.30 0 -4.60 -0.05 -2.85 -0.15z"/>
  <path d="M515.60 313.15 c2.40 -0.10 6.45 -0.10 9 0 2.55 0.05 0.60 0.15 -4.35 0.15 -4.95 0 -7.05 -0.10 -4.65 -0.15z"/>
  <path d="M2 284.25 c0 -1.65 0.10 -1.75 1.75 -1.75 1.65 0 1.75 0.10 1.75 1.75 0 1.65 -0.10 1.75 -1.75 1.75 -1.65 0 -1.75 -0.10 -1.75 -1.75z"/>
  <path d="M2 240.25 c0 -1.65 0.10 -1.75 1.75 -1.75 1.65 0 1.75 0.10 1.75 1.75 0 1.65 -0.10 1.75 -1.75 1.75 -1.65 0 -1.75 -0.10 -1.75 -1.75z"/>
  <path d="M344.90 195.20 c-0.25 -0.20 -0.40 -2.20 -0.40 -4.45 l0 -4.10 1.65 -0.35 c2.55 -0.50 5.70 -1.95 6.30 -2.85 0.45 -0.80 0.35 -0.80 -1.10 -0.40 -3.80 1.10 -12.85 0.15 -12.85 -1.35 0 -0.40 -0.50 -0.70 -1.30 -0.70 -2.10 0 -3.20 -0.85 -3.20 -2.55 l0 -1.50 2.20 1.50 c6.35 4.40 13.30 4.40 20.15 0.05 1.80 -1.15 1.90 -0.25 0.35 2.85 -1.65 3.30 -5.05 5.95 -8.25 6.45 l-1.95 0.35 0 2.65 0 2.70 1.75 0 c2.15 0 5.35 -1.20 8.15 -3.15 l2.15 -1.45 -0.15 1.65 c-0.10 1.35 -0.45 1.80 -1.65 2.20 -0.80 0.25 -1.60 0.65 -1.75 0.85 -0.85 1.10 -9.30 2.45 -10.10 1.60z"/>
  <path d="M360.70 185.90 c1.65 -2.50 2.45 -4.80 3.05 -9 0.40 -2.65 1.75 -2.60 1.75 0.10 0 2.60 -0.95 7 -1.55 7 -0.25 0 -0.45 0.55 -0.45 1.25 0 0.70 -0.35 1.40 -0.75 1.55 -0.40 0.20 -0.75 0.60 -0.75 1 0 0.45 -0.55 0.70 -1.50 0.70 l-1.50 0 1.70 -2.60z"/>
  <path d="M99 182.80 c0 -0.80 1.60 -1.30 3 -0.95 1.85 0.50 1.15 1.65 -1 1.65 -1.35 0 -2 -0.20 -2 -0.70z"/>
  <path d="M154 181.75 c0 -1.95 1.20 -2.50 1.65 -0.75 0.15 0.55 0.60 1 1.05 1 0.45 0 0.80 0.35 0.80 0.75 0 0.50 -0.55 0.75 -1.75 0.75 -1.65 0 -1.75 -0.10 -1.75 -1.75z"/>
  <path d="M175.40 183 c-2.70 -0.50 -5.90 -2.05 -5.90 -2.85 0 -0.35 -0.40 -0.65 -0.95 -0.65 -0.50 0 -1.75 -0.90 -2.75 -2 -1.35 -1.50 -1.80 -2.45 -1.80 -3.75 0 -0.95 0.25 -1.75 0.50 -1.75 0.30 0 0.50 0.20 0.50 0.45 0 0.30 1.25 1.80 2.75 3.45 4.90 5.30 11.95 7.15 18.65 4.90 5.10 -1.75 9.90 -7.40 11.15 -13.30 0.30 -1.40 0.80 -2.50 1.15 -2.50 0.40 0 1 1.35 1.45 3.25 2.30 9.40 11 14.80 21 13.10 2.15 -0.35 2.35 -0.30 2.35 0.55 0 0.75 -0.45 1.05 -1.85 1.30 -4.55 0.75 -11.15 0.15 -11.15 -1 0 -0.45 -0.60 -0.70 -1.75 -0.70 -0.95 0 -1.75 -0.20 -1.75 -0.50 0 -0.25 -0.35 -0.50 -0.75 -0.50 -0.40 0 -0.75 -0.35 -0.75 -0.75 0 -0.40 -0.40 -0.75 -0.90 -0.75 -1.15 0 -2.10 -0.95 -2.10 -2.10 0 -0.50 -0.35 -0.90 -0.75 -0.90 -0.40 0 -0.75 -0.35 -0.75 -0.75 0 -0.40 -0.20 -0.75 -0.50 -0.75 -0.25 0 -0.50 -0.45 -0.50 -1 0 -0.55 -0.20 -1 -0.50 -1 -0.25 0 -0.50 -0.40 -0.55 -0.85 0 -0.50 -0.35 -0.05 -0.80 1 -0.50 1.20 -1.10 1.85 -1.70 1.85 -0.70 0 -0.95 0.35 -0.95 1.50 0 1.15 -0.20 1.50 -1 1.50 -0.65 0 -1 0.35 -1 1 0 0.65 -0.35 1 -1 1 -0.55 0 -1 0.35 -1 0.75 0 0.50 -0.50 0.75 -1.50 0.75 -0.95 0 -1.50 0.25 -1.50 0.70 0 1.45 -8.20 2.25 -13.10 1.30z"/>
  <path d="M247.60 182.70 c-3.10 -0.80 -4.60 -1.55 -4.60 -2.20 0 -0.30 -0.35 -0.50 -0.75 -0.50 -0.50 0 -0.75 -0.50 -0.75 -1.50 l0 -1.55 2.25 1.55 c4.10 2.85 9.05 3.85 14.15 2.85 1.90 -0.40 2.10 -0.35 2.10 0.55 0 0.70 -0.45 1.05 -1.55 1.30 -2.60 0.50 -8.05 0.30 -10.85 -0.50z"/>
  <path d="M290.50 181.75 c0 -1.95 1.20 -2.50 1.65 -0.75 0.15 0.55 0.60 1 1.05 1 0.45 0 0.80 0.35 0.80 0.75 0 0.50 -0.55 0.75 -1.75 0.75 -1.65 0 -1.75 -0.10 -1.75 -1.75z"/>
  <path d="M376.75 182.80 c-1.35 -0.40 -2.55 -0.95 -2.65 -1.25 -0.10 -0.30 -0.60 -0.55 -1.15 -0.55 -0.50 0 -0.95 -0.20 -0.95 -0.50 0 -0.25 -0.30 -0.50 -0.65 -0.50 -0.35 0 -1.50 -0.85 -2.50 -1.90 -1.35 -1.40 -1.85 -2.30 -1.85 -3.50 0 -0.90 0.05 -1.60 0.15 -1.60 0.05 0 1.70 1.50 3.60 3.40 4.20 4.05 7.10 5.25 12.45 5.25 3.70 0 6.75 -1 9.80 -3.15 l1.50 -1.05 0 2.05 c0 1.65 0.20 2.15 1 2.35 1.75 0.45 1.20 1.65 -0.75 1.65 -1.40 0 -1.75 -0.20 -1.75 -1 0 -0.85 -0.25 -0.95 -1.60 -0.65 -0.90 0.15 -1.80 0.55 -2 0.80 -0.50 0.85 -9.85 0.95 -12.65 0.15z"/>
  <path d="M398.50 182.75 c0 -0.40 0.35 -0.75 0.80 -0.75 0.45 0 0.90 -0.45 1.05 -1 0.45 -1.75 1.65 -1.20 1.65 0.75 0 1.65 -0.10 1.75 -1.75 1.75 -1.20 0 -1.75 -0.25 -1.75 -0.75z"/>
  <path d="M415 183.15 c-2.05 -0.30 -5.50 -1.70 -5.50 -2.20 0 -0.25 -0.35 -0.45 -0.75 -0.45 -0.40 0 -0.75 -0.20 -0.75 -0.50 0 -0.25 -0.30 -0.50 -0.65 -0.50 -0.80 0 -2.85 -2.10 -2.85 -2.90 0 -0.35 -0.20 -0.60 -0.50 -0.60 -0.25 0 -0.50 -0.55 -0.50 -1.25 0 -0.75 -0.30 -1.25 -0.70 -1.25 -0.75 0 -1.30 -1.50 -1.30 -3.60 0 -0.80 -0.20 -1.40 -0.50 -1.40 -0.25 0 -0.50 -0.80 -0.50 -1.75 0 -2.30 1.30 -2.35 1.75 -0.10 0.80 3.75 2.15 6.60 4.40 9.10 4.30 4.85 10.15 6.75 17 5.60 2.15 -0.35 2.35 -0.30 2.35 0.55 0 0.75 -0.45 1.05 -1.85 1.30 -2 0.30 -7.05 0.30 -9.15 -0.05z"/>
  <path d="M447.15 183.15 c-0.90 -0.10 -1.65 -0.40 -1.65 -0.70 0 -0.25 -0.55 -0.45 -1.25 -0.45 -0.70 0 -1.25 -0.20 -1.25 -0.50 0 -0.25 -0.30 -0.50 -0.65 -0.50 -1.10 0 -2.85 -2.25 -2.85 -3.65 0 -0.85 -0.25 -1.35 -0.75 -1.35 -0.50 0 -0.75 -0.55 -0.75 -1.75 0 -2.35 0.85 -2.20 1.95 0.40 1.65 3.70 5.90 6.85 9.40 6.85 2.15 0 3.65 0.55 3.65 1.30 0 0.70 -2 0.80 -5.85 0.35z"/>
  <path d="M454 182.80 c0 -0.50 1 -0.95 2.90 -1.30 4.80 -1 8 -3.60 9.15 -7.50 0.35 -1.10 0.90 -2 1.30 -2 0.35 0 0.65 -0.45 0.65 -1 0 -0.55 -0.30 -1 -0.70 -1 -0.40 0 -0.85 -0.65 -1.05 -1.45 -0.15 -0.85 -1.20 -2.30 -2.25 -3.25 -1.90 -1.70 -2.95 -2.10 -13.40 -5.10 -1.40 -0.40 -3.20 -1.30 -4 -1.95 l-1.35 -1.20 1.90 -0.05 c1 0 1.85 0.20 1.85 0.40 0 0.20 1.50 0.80 3.40 1.25 8.55 2.25 10.60 3 10.60 3.85 0 0.65 0.50 0.95 1.75 1.10 l1.75 0.20 0 -2.90 0 -2.90 -4.20 0.30 -4.20 0.35 -0.30 -1.45 c-0.30 -1.40 -2.95 -3.70 -4.20 -3.70 -0.35 0 -0.60 -0.50 -0.60 -1.05 0 -0.95 0.20 -1.05 1.60 -0.75 2.30 0.45 3.65 1.45 4.60 3.50 0.80 1.75 0.90 1.80 2.95 1.50 2.70 -0.40 3.05 -0.75 2.60 -2.65 -0.80 -3.65 -5.80 -7.05 -10.35 -7.05 -2.10 0 -2.40 -0.15 -2.40 -1.05 0 -1 0.15 -1.05 3.35 -0.70 3.45 0.35 7.15 1.55 7.15 2.25 0 0.20 0.45 0.50 1 0.65 0.75 0.20 1 0.70 1 2.05 0 1.45 0.20 1.80 1 1.80 0.95 0 1 -0.35 1 -9.25 l0 -9.25 1.75 0 c1.20 0 1.75 0.25 1.75 0.75 0 0.40 -0.35 0.75 -0.75 0.75 -0.65 0 -0.75 2.05 -0.75 15.25 0 14.90 0 15.25 -1 15.25 -0.55 0 -1 0.20 -1 0.45 0 0.25 0.45 0.35 0.95 0.20 0.75 -0.20 1 0.10 1.30 1.45 0.55 2.80 1.35 4.55 3.30 7.20 2.35 3.20 5.85 5.45 10.10 6.50 2.25 0.60 3.35 1.10 3.35 1.60 0 0.60 -0.50 0.70 -2.65 0.45 -3.40 -0.40 -7.35 -1.80 -7.70 -2.65 -0.15 -0.40 -0.55 -0.70 -0.95 -0.70 -0.45 0 -0.70 -0.55 -0.70 -1.50 0 -1.35 -0.15 -1.50 -1.50 -1.50 -1.15 0 -1.50 -0.20 -1.50 -1 0 -0.55 -0.35 -1 -0.75 -1 -0.40 0 -0.75 -0.45 -0.75 -1 0 -1.80 -0.85 -1.05 -1.20 1 -0.20 1.25 -0.60 2 -1 2 -0.45 0 -0.80 0.60 -0.90 1.40 -0.10 0.95 -0.45 1.40 -1.25 1.50 -0.65 0.10 -1.15 0.50 -1.15 0.90 0 0.45 -0.55 0.70 -1.75 0.70 -1.15 0 -1.75 0.25 -1.75 0.70 0 0.40 -0.75 0.80 -1.85 1 -3 0.45 -4.15 0.35 -4.15 -0.40z"/>
  <path d="M159.50 182.50 c0 -0.25 0.35 -0.50 0.75 -0.50 0.60 0 0.75 -0.65 0.75 -2.75 0 -2.40 0.10 -2.75 1 -2.75 0.90 0 1 0.35 1 3.25 l0 3.25 -1.75 0 c-0.95 0 -1.75 -0.20 -1.75 -0.50z"/>
  <path d="M224.50 180.65 c0 -0.25 1.05 -1.05 2.25 -1.90 4.85 -3.20 7.10 -7.50 7.80 -14.65 0.50 -5.50 1.70 -9.60 2.75 -9.60 0.40 0 0.70 -0.50 0.70 -1.15 0 -1.75 3.45 -4.85 5.40 -4.85 0.90 0 1.60 0.10 1.60 0.20 0 0.15 -1.35 1.50 -2.95 3.05 -3.65 3.45 -5.10 6.60 -5.45 11.60 -0.25 4.25 0.65 7.80 2.95 11.05 l1.50 2.10 -1.50 0 c-1.45 0 -1.55 -0.15 -1.55 -1.75 0 -1.40 -0.20 -1.75 -1 -1.75 -0.80 0 -1 -0.35 -1.05 -1.60 -0.05 -0.90 -0.15 -1.25 -0.30 -0.75 -0.10 0.45 -0.45 0.85 -0.70 0.85 -0.25 0 -0.45 0.55 -0.45 1.25 0 0.90 -0.25 1.25 -0.95 1.25 -0.75 0 -1.05 0.40 -1.15 1.65 -0.10 1.20 -0.40 1.65 -1.25 1.75 -0.75 0.10 -1.15 0.50 -1.15 1.20 0 0.55 -0.40 1.10 -1 1.25 -0.55 0.15 -1 0.45 -1 0.70 0 0.25 -0.80 0.45 -1.75 0.45 -0.95 0 -1.75 -0.15 -1.75 -0.35z"/>
  <path d="M427 180.60 c0 -0.20 0.90 -0.90 2 -1.60 1.10 -0.70 2 -1.45 2 -1.75 0 -0.30 -0.70 -1.35 -1.50 -2.35 l-1.50 -1.85 -2.80 1.50 c-3.30 1.70 -5.20 1.90 -5.20 0.50 0 -0.75 0.50 -1.05 2 -1.30 1.10 -0.20 2 -0.55 2 -0.80 0 -0.25 0.35 -0.45 0.75 -0.45 0.40 0 0.75 -0.25 0.75 -0.55 0 -0.30 0.95 -0.45 2.40 -0.35 2 0.15 2.35 0.30 2.50 1.30 0.10 0.60 0.50 1.10 0.85 1.10 0.90 0 1.75 1.55 1.75 3.25 0 1.35 -1 2.75 -1.95 2.75 -0.30 0 -0.55 0.25 -0.55 0.50 0 0.30 -0.80 0.50 -1.75 0.50 -0.95 0 -1.75 -0.15 -1.75 -0.40z"/>
  <path d="M262 180.15 c0 -0.25 0.80 -0.90 1.75 -1.55 1.95 -1.25 1.90 -1.45 -0.45 -4.30 l-1.20 -1.45 -1.40 1 c-1.50 1.05 -4.35 2.15 -5.50 2.15 -0.40 0 -0.70 -0.45 -0.70 -1 0 -0.80 0.35 -1 1.50 -1 0.85 0 1.50 -0.20 1.50 -0.50 0 -0.25 0.30 -0.50 0.70 -0.50 0.40 0 0.80 -0.25 0.90 -0.60 0.15 -0.45 1 -0.45 3.20 -0.10 2.50 0.40 2.95 0.60 3.10 1.60 0.10 0.60 0.50 1.10 0.90 1.10 0.50 0 0.70 0.65 0.70 2.25 0 1.65 -0.20 2.25 -0.75 2.25 -0.40 0 -0.75 0.25 -0.75 0.50 0 0.30 -0.80 0.50 -1.75 0.50 -0.95 0 -1.75 -0.15 -1.75 -0.35z"/>
  <path d="M485.85 177 c-0.15 -0.65 -0.70 -1 -1.45 -1 -0.65 0 -2.40 -0.60 -3.80 -1.30 -4 -2 -6.60 -6.40 -6.60 -11.30 0 -2.15 0.45 -2.55 2.25 -2.10 1.35 0.35 1.75 1.70 0.45 1.70 -0.65 0 -0.75 0.35 -0.55 1.65 0.95 5.70 1 5.85 1.90 5.85 0.50 0 1.20 0.45 1.55 1 0.35 0.55 0.90 1 1.25 1 0.35 0 0.65 0.20 0.65 0.45 0 0.25 1.35 0.70 3 1.10 2.90 0.65 3 0.70 3 2.30 0 1.85 -1.20 2.30 -1.65 0.65z"/>
  <path d="M451.90 177.10 c-1.65 -0.35 -1 -1.60 0.85 -1.60 0.95 0 2.50 -0.35 3.45 -0.80 2.50 -1.20 3.85 -4.70 1.80 -4.70 -1.50 0 -5.50 -1.15 -5.50 -1.60 0 -0.20 -0.60 -0.40 -1.30 -0.40 -1.85 0 -5.70 -1.05 -5.70 -1.55 0 -0.25 -0.55 -0.45 -1.20 -0.45 -0.70 0 -1.55 -0.35 -2 -0.75 -0.40 -0.40 -0.95 -0.75 -1.25 -0.75 -0.30 0 -0.55 -0.85 -0.55 -1.85 l0 -1.85 1.40 1.35 c1.80 1.70 4.75 2.95 10.85 4.60 5.55 1.50 7.05 2.25 7.80 3.95 0.75 1.60 -0.55 4.50 -2.40 5.45 -1.50 0.75 -4.85 1.30 -6.25 0.95z"/>
  <path d="M448.70 176.50 c-1.15 -0.45 -3.30 -3.10 -3.85 -4.60 -0.25 -0.70 -0.05 -0.90 0.90 -0.90 1.10 0 1.25 0.20 1.25 1.75 0 1.60 0.10 1.75 1.50 1.75 1.25 0 1.50 0.20 1.50 1.25 0 0.70 -0.05 1.25 -0.10 1.20 -0.10 0 -0.65 -0.20 -1.20 -0.45z"/>
  <path d="M175.75 175.05 c-4.35 -1.95 -8.85 -9.05 -5.80 -9.05 1 0 1.55 1.25 1.55 3.65 0 1.10 0.20 1.35 1.25 1.35 0.80 0 1.25 0.30 1.25 0.75 0 0.40 0.45 0.75 1 0.75 0.55 0 1 0.20 1 0.45 0 0.25 0.80 0.60 1.75 0.75 1.30 0.25 1.75 0.60 1.75 1.30 0 1.25 -1.10 1.25 -3.75 0.05z"/>
  <path d="M181.50 175.10 c0 -1 2.45 -2.10 4.65 -2.10 1.95 0 1.65 0.75 -0.80 1.95 -2.65 1.30 -3.85 1.35 -3.85 0.15z"/>
  <path d="M212.10 174.95 c-2.20 -1.10 -5.30 -4.30 -5.75 -6 -0.20 -0.75 0 -0.95 0.95 -0.95 0.75 0 1.20 0.30 1.20 0.75 0 0.40 0.25 0.75 0.50 0.75 0.30 0 0.50 0.55 0.50 1.25 0 1 0.25 1.25 1.25 1.25 0.70 0 1.25 0.20 1.25 0.45 0 0.25 1 0.75 2.25 1.10 1.60 0.45 2.25 0.95 2.25 1.55 0 1.25 -1.70 1.15 -4.40 -0.15z"/>
  <path d="M217.50 175.10 c0 -0.80 1.70 -1.65 4.90 -2.45 0.60 -0.15 1.10 -0.55 1.10 -0.95 0 -0.35 0.40 -0.95 0.90 -1.30 1.20 -0.85 2.60 -4.45 2.60 -6.65 0 -1.15 0.25 -1.75 0.70 -1.75 1.70 0 1.25 5.60 -0.70 8.80 -2.20 3.50 -9.50 6.85 -9.50 4.30z"/>
  <path d="M248.45 174.65 c-1.90 -1 -3.15 -2.10 -4.35 -3.85 -0.90 -1.35 -1.55 -2.70 -1.45 -3 0.15 -0.50 1.50 -0.55 6.75 -0.35 0.30 0.05 0.60 0.40 0.60 0.80 0 0.55 -0.60 0.75 -2.25 0.75 -1.25 0 -2.25 0.15 -2.25 0.30 0 0.65 3.40 3.25 5.35 4.05 1.35 0.60 2.15 1.20 2.15 1.80 0 1.20 -1.40 1.05 -4.55 -0.50z"/>
  <path d="M330 174.25 c0 -2.20 0.45 -2.20 1.90 0 l1.10 1.75 -1.50 0 c-1.40 0 -1.50 -0.15 -1.50 -1.75z"/>
  <path d="M340.95 174.60 c-4.55 -2.35 -7.15 -7.50 -6.25 -12.35 0.20 -1.05 0.65 -1.75 1.05 -1.75 0.55 0 0.75 0.65 0.75 2.75 0 1.55 0.40 3.50 0.90 4.60 0.90 2 3.25 4.65 4.10 4.65 0.25 0 0.50 0.35 0.50 0.75 0 0.50 0.55 0.75 1.75 0.75 1.40 0 1.75 0.20 1.75 1 0 1.40 -1.35 1.30 -4.55 -0.40z"/>
  <path d="M347 175.10 c0 -0.85 0.40 -1.10 2.25 -1.40 1.25 -0.15 2.25 -0.60 2.25 -0.90 0 -0.35 0.60 -1.20 1.40 -1.95 2.60 -2.50 2.80 -2.90 2.75 -6.05 -0.05 -4.75 -0.60 -6.80 -1.75 -6.80 -0.55 0 -1.10 -0.40 -1.20 -0.90 -0.15 -0.55 -1.35 -1.20 -3.25 -1.85 -2.65 -0.80 -3.30 -0.85 -5.35 -0.30 -1.30 0.35 -2.40 0.80 -2.50 1.10 -0.10 0.25 -0.95 0.45 -1.90 0.45 -1.60 0 -1.70 0.10 -1.70 1.75 0 1.50 -0.15 1.75 -1.20 1.75 -1.80 0 -1.15 -1.60 1.80 -4.25 5.50 -4.95 13.40 -3.95 17.45 2.30 4.35 6.75 0.45 16.30 -7.20 17.70 -1.65 0.30 -1.85 0.25 -1.85 -0.65z"/>
  <path d="M377.70 174.75 c-3.20 -1.60 -5.55 -4.75 -6.20 -8.35 -0.30 -1.45 -0.50 -6.35 -0.45 -10.90 l0.05 -8.25 -2.80 -0.15 c-2.25 -0.10 -2.80 0 -2.80 0.65 0 0.40 -0.20 0.75 -0.50 0.75 -0.25 0 -0.50 -0.80 -0.50 -1.75 l0 -1.75 3.45 0 c5.45 0 5.05 -0.80 5.05 10.35 0 9.25 0.50 13.65 1.60 13.65 0.20 0 0.40 0.45 0.40 1 0 0.55 0.35 1 0.75 1 0.45 0 0.90 0.35 1.05 0.75 0.20 0.40 0.60 0.75 1 0.75 0.40 0 0.70 0.20 0.70 0.45 0 0.25 0.80 0.60 1.75 0.75 1.30 0.25 1.75 0.60 1.75 1.30 0 1.35 -1.25 1.25 -4.30 -0.25z"/>
  <path d="M383.50 175 c0 -0.80 0.35 -1 1.50 -1 0.85 0 1.50 -0.20 1.50 -0.50 0 -0.25 0.35 -0.50 0.75 -0.50 0.40 0 0.75 -0.20 0.75 -0.50 0 -0.25 0.45 -0.50 1 -0.50 0.65 0 1 -0.35 1 -0.95 0 -0.55 0.45 -1.30 0.95 -1.65 0.55 -0.40 1.10 -1.50 1.30 -2.55 0.25 -1.35 0.60 -1.85 1.30 -1.85 2.10 0 0.30 5.20 -2.75 7.90 -3.25 2.85 -7.30 4 -7.30 2.10z"/>
  <path d="M415.25 175.30 c-3.05 -1.35 -7.15 -5.85 -6.65 -7.40 0.15 -0.40 2.70 -0.65 8.20 -0.75 8.75 -0.25 11.20 0 11.20 1.10 0 0.65 -1.45 0.75 -8.60 0.80 -4.75 0 -8.35 0.15 -8 0.30 0.30 0.10 0.60 0.80 0.60 1.45 0 0.95 0.25 1.20 1.25 1.20 0.70 0 1.25 0.20 1.25 0.45 0 0.25 1 0.75 2.25 1.10 1.60 0.45 2.25 0.95 2.25 1.55 0 1.10 -1.55 1.15 -3.75 0.20z"/>
  <path d="M161 167.80 c0 -3.40 -0.15 -6.90 -0.30 -7.75 -0.25 -1.20 -0.15 -1.55 0.50 -1.55 0.45 0 0.80 -0.20 0.80 -0.50 0 -0.25 0.35 -0.50 0.75 -0.50 0.50 0 0.75 -0.55 0.75 -1.75 0 -0.95 0.25 -1.75 0.50 -1.75 0.30 0 0.50 -0.35 0.50 -0.75 0 -0.40 0.35 -0.75 0.75 -0.75 0.40 0 0.75 -0.40 0.75 -0.90 0 -1.40 1 -2.10 2.95 -2.10 l1.75 0 -2 2.15 c-1.15 1.15 -2.55 2.80 -3.15 3.70 -2.40 3.55 -3.20 9.35 -1.85 13.80 0.60 2 0.60 2.35 0 2.35 -0.40 0 -0.70 0.50 -0.70 1.25 0 0.90 -0.25 1.25 -1 1.25 -0.95 0 -1 -0.35 -1 -6.20z"/>
  <path d="M188.50 170.80 c0 -1 0.20 -1.80 0.45 -1.80 0.25 0 0.60 -0.90 0.80 -2 0.25 -1.50 0.55 -2 1.30 -2 0.65 0 0.95 0.35 0.95 1.15 -0.05 1.45 -1.60 4.90 -2.65 5.80 -0.75 0.60 -0.85 0.50 -0.85 -1.15z"/>
  <path d="M327.80 170.70 c-0.20 -0.75 -0.55 -3.50 -0.80 -6.15 -0.20 -2.65 -0.65 -5.40 -0.95 -6.15 -0.50 -1.30 -0.45 -1.40 0.70 -1.40 0.70 0 1.25 0.35 1.40 0.90 0.15 0.50 0.25 0.35 0.30 -0.50 0.05 -1.85 1.05 -3.90 1.90 -3.90 0.35 0 0.65 -0.40 0.65 -0.85 0 -1.40 2.55 -3.65 4.10 -3.65 1.05 0 1.40 -0.25 1.40 -0.90 0 -1.05 3.95 -2.60 6.55 -2.60 2 0 1.90 1.35 -0.15 1.75 -5.05 1.15 -9.85 4.85 -12.30 9.50 -1.65 3.25 -2.10 9.50 -0.95 12.95 0.80 2.30 0.80 2.30 -0.40 2.30 -0.80 0 -1.25 -0.35 -1.45 -1.30z"/>
  <path d="M364.30 170.40 c-0.15 -0.65 -0.30 -1.75 -0.30 -2.50 0 -2.30 1.25 -1.60 2.10 1.10 l0.80 2.50 -1.15 0 c-0.75 0 -1.25 -0.35 -1.45 -1.10z"/>
  <path d="M439.50 170 c0 -0.85 0.35 -1 2 -1 2.25 0 2.85 1.15 0.90 1.70 -2.10 0.55 -2.90 0.35 -2.90 -0.70z"/>
  <path d="M252.50 168.30 c0 -0.80 1.25 -1.20 2.65 -0.90 1.60 0.40 0.95 1.60 -0.90 1.60 -1.20 0 -1.75 -0.25 -1.75 -0.70z"/>
  <path d="M256.50 168.30 c0 -0.80 1.25 -1.20 2.65 -0.90 1.60 0.40 0.95 1.60 -0.90 1.60 -1.20 0 -1.75 -0.25 -1.75 -0.70z"/>
  <path d="M269 168.30 c0 -0.45 0.35 -0.80 0.75 -0.80 2.15 0 1.95 -6.25 -0.35 -10.80 -2.65 -5.30 -9.40 -9.70 -14.90 -9.70 -2.20 0 -2.50 -0.10 -2.50 -1.05 0 -1.05 0.15 -1.05 3.60 -0.75 4.20 0.45 8.90 2.05 8.90 3.10 0 0.40 0.40 0.70 0.90 0.70 0.85 0 4.10 2.90 4.10 3.70 0 0.20 0.35 0.70 0.75 1.10 0.40 0.45 0.75 1.20 0.75 1.75 0 0.50 0.20 0.95 0.45 0.95 0.75 0 1.60 5.15 1.45 8.80 l-0.15 3.45 -1.85 0.15 c-1.45 0.10 -1.90 0 -1.90 -0.60z"/>
  <path d="M428.50 168.30 c0 -0.95 1.90 -1.35 5.25 -1 2.55 0.25 2.85 0.15 3.10 -0.75 0.45 -1.75 1.65 -1.25 1.65 0.70 l0 1.75 -5 0 c-3.95 0 -5 -0.15 -5 -0.70z"/>
  <path d="M363.80 164.40 c-0.15 -0.65 -0.30 -1.70 -0.30 -2.40 0 -2.80 -1.75 -6.25 -4.95 -9.60 l-3.15 -3.40 1.65 0 c1.85 0 4.45 2.10 4.45 3.60 0 0.50 0.35 0.90 0.75 0.90 0.40 0 0.75 0.45 0.75 0.95 0 0.55 0.25 1.05 0.55 1.15 0.75 0.25 1.95 5.10 1.95 7.75 0 2.35 -1.15 3.05 -1.70 1.05z"/>
  <path d="M153.10 162.40 c-0.35 -1.45 -0.85 -2.70 -1.10 -2.80 -0.30 -0.10 -0.50 -0.85 -0.50 -1.65 0 -1.30 -0.20 -1.45 -1.50 -1.45 -0.80 0 -1.50 -0.20 -1.50 -0.40 0 -0.90 -4.05 -1.65 -7 -1.30 -4.40 0.50 -3.95 -1.20 0.55 -2 3 -0.55 6.60 0.55 9.10 2.70 2.45 2.20 3.55 4.20 4.10 7.40 0.30 1.85 0.20 2.10 -0.60 2.10 -0.70 0 -1.05 -0.65 -1.55 -2.60z"/>
  <path d="M400.50 162.65 c0 -2.25 1.45 -7.65 2.05 -7.65 0.25 0 0.45 -0.35 0.45 -0.75 0 -0.40 0.25 -0.75 0.50 -0.75 0.30 0 0.50 -0.35 0.50 -0.75 0 -0.50 0.50 -0.75 1.50 -0.75 l1.55 0 -1.55 2.25 c-1.65 2.35 -2.70 5.15 -3.25 8.40 -0.40 2.50 -1.75 2.55 -1.75 0z"/>
  <path d="M132 163 c0 -2.25 2.35 -6.35 4.50 -7.85 0.95 -0.65 1 -0.60 1 0.85 0 1.15 -0.25 1.65 -1 1.85 -0.55 0.15 -1 0.70 -1 1.20 0 0.55 -0.20 0.95 -0.45 0.95 -0.25 0 -0.60 0.90 -0.80 2 -0.25 1.50 -0.55 2 -1.30 2 -0.60 0 -0.95 -0.35 -0.95 -1z"/>
  <path d="M197.45 160.75 l-0.75 -3.25 1.15 0 c0.80 0 1.20 -0.35 1.45 -1.25 0.15 -0.70 0.50 -1.25 0.75 -1.25 0.25 0 0.45 -0.35 0.45 -0.75 0 -0.40 0.25 -0.75 0.50 -0.75 0.30 0 0.50 -0.35 0.50 -0.75 0 -0.50 0.50 -0.75 1.50 -0.75 1.35 0 1.50 -0.15 1.50 -1.55 0 -1.10 0.25 -1.60 1 -1.80 0.55 -0.15 1 -0.45 1 -0.70 0 -0.25 0.80 -0.45 1.75 -0.45 1.15 0 1.75 -0.25 1.75 -0.70 0 -0.75 1.50 -1.30 3.65 -1.30 2.40 0 1.55 1.30 -1.40 2.15 -6.35 1.80 -11.35 7.60 -12.50 14.50 -0.45 2.85 -1.45 2.25 -2.30 -1.40z"/>
  <path d="M190 162 c0 -0.80 -0.20 -1.50 -0.50 -1.50 -0.25 0 -0.50 -0.20 -0.50 -0.45 0 -1.05 -3.75 -4.10 -6 -4.90 -2.10 -0.75 -2.80 -0.80 -4.75 -0.25 -1.25 0.35 -2.85 0.60 -3.60 0.60 -1.25 0 -1.30 -0.05 -0.40 -1 1.10 -1.20 5.55 -2.15 8.10 -1.70 4.10 0.70 7.80 3.85 9.10 7.65 0.80 2.40 0.70 3.05 -0.45 3.05 -0.80 0 -1 -0.35 -1 -1.50z"/>
  <path d="M205.50 162.75 c0 -0.45 0.35 -1.60 0.75 -2.60 2 -4.80 5.90 -7.40 10.95 -7.40 3.75 0.05 6.45 1.35 9 4.30 2 2.40 2.35 3.95 0.80 3.95 -0.55 0 -1 -0.35 -1 -0.75 0 -0.40 -0.20 -0.75 -0.50 -0.75 -0.25 0 -0.50 -0.65 -0.50 -1.50 0 -1.35 -0.15 -1.50 -1.50 -1.50 -0.95 0 -1.50 -0.25 -1.50 -0.70 0 -0.45 -0.90 -0.80 -2.70 -1 -2.90 -0.40 -6.30 0.05 -6.30 0.75 0 0.25 -0.20 0.45 -0.50 0.45 -0.75 0 -3.35 2.75 -3.75 3.95 -0.15 0.55 -0.55 1.05 -0.80 1.05 -0.25 0 -0.45 0.55 -0.45 1.25 0 0.90 -0.25 1.25 -1 1.25 -0.55 0 -1 -0.35 -1 -0.75z"/>
  <path d="M298 162.90 c0 -1.50 0.65 -2.90 1.30 -2.90 0.45 0 0.70 0.60 0.70 1.75 0 1.40 -0.20 1.75 -1 1.75 -0.55 0 -1 -0.30 -1 -0.60z"/>
  <path d="M103.20 161.45 c0.75 -3.70 3.70 -6.75 8.05 -8.20 5.60 -1.85 11.65 1 14 6.60 1 2.40 0.95 3.15 -0.25 3.15 -0.75 0 -1 -0.35 -1 -1.25 0 -0.70 -0.20 -1.25 -0.50 -1.25 -0.25 0 -0.50 -0.20 -0.50 -0.50 0 -0.95 -3.80 -4.25 -5.65 -4.90 -2 -0.70 -6.85 -0.40 -6.85 0.45 0 0.25 -0.35 0.45 -0.75 0.45 -0.40 0 -0.75 0.25 -0.75 0.50 0 0.30 -0.45 0.50 -1 0.50 -0.65 0 -1 0.35 -1 1 0 0.55 -0.20 1 -0.40 1 -0.25 0 -0.75 0.90 -1.10 2 -0.45 1.45 -0.95 2 -1.65 2 -0.85 0 -0.95 -0.25 -0.65 -1.55z"/>
  <path d="M169 162.15 c0.05 -1.30 1.70 -4.80 2.65 -5.60 0.75 -0.60 0.85 -0.50 0.85 1.15 0 1 -0.20 1.80 -0.45 1.80 -0.25 0 -0.60 0.80 -0.75 1.75 -0.25 1.30 -0.60 1.75 -1.30 1.75 -0.60 0 -1 -0.35 -1 -0.85z"/>
  <path d="M279 162.15 c0 -2.90 4.60 -8.20 7.65 -8.85 0.75 -0.15 1.90 -0.40 2.60 -0.55 0.70 -0.15 1.25 -0.60 1.25 -1 0 -0.40 0.25 -0.75 0.50 -0.75 0.30 0 0.50 0.80 0.50 1.75 0 1.55 -0.15 1.75 -1.25 1.75 -1.40 0 -5.25 1.55 -5.25 2.10 0 0.25 -0.45 0.40 -1 0.40 -0.65 0 -1 0.35 -1 1 0 0.55 -0.20 1 -0.40 1 -0.25 0 -0.75 0.90 -1.10 2 -0.45 1.35 -0.95 2 -1.60 2 -0.50 0 -0.90 -0.35 -0.90 -0.85z"/>
  <path d="M318.50 161 c-0.35 -1.10 -0.85 -2 -1.10 -2 -0.20 0 -0.40 -0.35 -0.40 -0.75 0 -0.40 -0.25 -0.75 -0.55 -0.75 -0.35 0 -0.95 -0.40 -1.40 -0.90 -1.10 -1.15 -3.90 -2.10 -6.45 -2.10 -1.50 0 -2.10 -0.20 -2.10 -0.70 0 -1.65 5.10 -1.50 8.55 0.25 3.85 1.95 7.80 8.95 5.05 8.95 -0.65 0 -1.15 -0.65 -1.60 -2z"/>
  <path d="M483 162.30 c0 -0.40 0.70 -0.85 1.50 -1.05 0.85 -0.20 1.50 -0.65 1.50 -1.05 0 -0.40 0.25 -0.70 0.50 -0.70 0.30 0 0.50 0.80 0.50 1.75 0 1.70 -0.05 1.75 -2 1.75 -1.40 0 -2 -0.20 -2 -0.70z"/>
  <path d="M436.40 159.75 l-0.75 -2.75 1.15 0 c0.90 0 1.20 -0.25 1.20 -1.15 0 -3.55 3.05 -8.85 5.10 -8.85 0.45 0 0.90 -0.25 1 -0.55 0.10 -0.30 1.25 -0.65 2.55 -0.80 1.85 -0.25 2.35 -0.15 2.35 0.45 0 0.50 -0.85 1 -2.15 1.35 -4.10 1.15 -6.85 4.90 -6.85 9.30 0 1.65 -0.20 2.25 -0.75 2.25 -0.50 0 -0.75 0.55 -0.75 1.75 0 2.75 -1.20 2.15 -2.10 -1z"/>
  <path d="M242.80 160.40 c1.65 -5.30 8.05 -8.75 13.65 -7.40 3 0.70 5.35 2.35 7.15 5.10 1.70 2.50 1.80 3.55 0.30 3.30 -0.80 -0.10 -1.30 -0.65 -1.65 -1.75 -0.25 -0.90 -0.75 -1.65 -1.10 -1.65 -0.30 0 -0.80 -0.30 -1 -0.65 -0.55 -0.90 -4.70 -2.85 -6.10 -2.85 -1.65 0 -5.05 1.05 -5.05 1.60 0 0.20 -0.45 0.40 -1 0.40 -0.55 0 -1 0.35 -1 0.75 0 0.40 -0.20 0.75 -0.50 0.75 -0.25 0 -0.50 0.35 -0.50 0.75 0 0.40 -0.20 0.75 -0.45 0.75 -0.25 0 -0.55 0.45 -0.70 1 -0.15 0.60 -0.70 1 -1.35 1 -0.90 0 -1 -0.20 -0.70 -1.10z"/>
  <path d="M408.50 160.90 c0 -1.10 2.50 -4.85 3.90 -5.80 2.35 -1.65 3.10 -1.75 3.10 -0.35 0 0.70 -0.20 1.25 -0.50 1.25 -0.65 0 -3.50 2.85 -3.50 3.50 0 0.25 -0.20 0.50 -0.50 0.50 -0.25 0 -0.50 0.35 -0.50 0.75 0 0.40 -0.45 0.75 -1 0.75 -0.55 0 -1 -0.25 -1 -0.60z"/>
  <path d="M429 160.25 c0 -0.90 -0.25 -1.25 -1 -1.25 -0.75 0 -1 -0.35 -1 -1.25 0 -1 -0.25 -1.25 -1.25 -1.25 -0.70 0 -1.25 -0.20 -1.25 -0.40 0 -0.65 -3.55 -1.60 -5.95 -1.60 -1.45 0 -2.05 -0.20 -2.05 -0.75 0 -1.95 6.95 -1.20 9.90 1.10 1.55 1.20 4.60 5.30 4.60 6.25 0 0.20 -0.45 0.40 -1 0.40 -0.75 0 -1 -0.35 -1 -1.25z"/>
  <path d="M299.50 158.40 c0 -0.80 3.70 -4.20 4.95 -4.55 0.85 -0.20 1.05 -0.05 1.05 0.95 0 0.65 -0.30 1.20 -0.60 1.20 -0.35 0.05 -1.20 0.70 -1.90 1.50 -1.20 1.50 -3.50 2.10 -3.50 0.90z"/>
  <path d="M159.10 156.05 c-1.65 -2.90 -6.25 -6.90 -9.15 -7.90 -2.70 -0.95 -3.30 -2.15 -1 -2.15 1.75 0 4.55 0.95 4.55 1.55 0 0.25 0.35 0.45 0.75 0.45 0.40 0 0.75 0.25 0.75 0.50 0 0.30 0.25 0.50 0.60 0.50 0.95 0 3.40 2.60 3.40 3.60 0 0.50 0.30 0.90 0.70 0.90 0.85 0 1.30 1.10 1.30 3.05 0 2 -0.60 1.80 -1.90 -0.50z"/>
  <path d="M486 156.70 c0 -0.45 -0.45 -0.90 -1 -1.05 -1.75 -0.45 -1.20 -1.65 0.75 -1.65 1.65 0 1.75 0.10 1.75 1.75 0 1.20 -0.25 1.75 -0.75 1.75 -0.40 0 -0.75 -0.35 -0.75 -0.80z"/>
  <path d="M325 156.05 c0 -0.25 -1.15 -1.70 -2.55 -3.25 -3.15 -3.45 -6.80 -5.30 -11.20 -5.70 -2.75 -0.20 -3.25 -0.40 -3.25 -1.15 0 -0.70 0.35 -0.95 1.35 -0.95 2.30 0 7.65 1.10 7.65 1.55 0 0.25 0.55 0.45 1.25 0.45 0.70 0 1.25 0.25 1.25 0.50 0 0.30 0.35 0.50 0.75 0.50 0.40 0 0.75 0.35 0.75 0.75 0 0.40 0.40 0.75 0.90 0.75 1.15 0 2.60 1.50 2.60 2.65 0 0.45 0.35 0.85 0.75 0.85 0.50 0 0.75 0.55 0.75 1.75 0 0.95 -0.20 1.75 -0.50 1.75 -0.25 0 -0.50 -0.20 -0.50 -0.45z"/>
  <path d="M435 156.05 c0 -0.25 -1.15 -1.70 -2.55 -3.25 -3.15 -3.45 -6.80 -5.30 -11.20 -5.70 -2.75 -0.20 -3.25 -0.40 -3.25 -1.15 0 -0.70 0.35 -0.95 1.35 -0.95 2.30 0 7.65 1.10 7.65 1.55 0 0.25 0.55 0.45 1.25 0.45 0.70 0 1.25 0.25 1.25 0.50 0 0.30 0.35 0.50 0.75 0.50 0.40 0 0.75 0.45 0.75 1 0 0.70 0.35 1 1.15 1 1.40 0 2.35 0.85 2.35 2.10 0 0.50 0.35 0.90 0.75 0.90 0.50 0 0.75 0.55 0.75 1.75 0 0.95 -0.20 1.75 -0.50 1.75 -0.25 0 -0.50 -0.20 -0.50 -0.45z"/>
  <path d="M194.60 154.25 l-1.10 -1.75 1.50 0 c1.40 0 1.50 0.15 1.50 1.75 0 2.20 -0.45 2.20 -1.90 0z"/>
  <path d="M445.50 155.05 c0 -1.05 1.90 -2.65 3.75 -3.05 2.85 -0.65 3.25 -0.60 3.25 0.45 0 0.75 -0.50 1 -2.25 1.25 -1.45 0.25 -2.25 0.60 -2.25 1.10 0 0.40 -0.50 0.70 -1.25 0.70 -0.70 0 -1.25 -0.20 -1.25 -0.45z"/>
  <path d="M474.35 155.15 c-0.20 -0.15 -0.35 -1.40 -0.35 -2.75 0 -2.05 0.15 -2.40 1 -2.40 0.90 0 1 0.35 1 2.75 0 1.95 -0.20 2.75 -0.65 2.75 -0.40 0 -0.85 -0.15 -1 -0.35z"/>
  <path d="M126.95 152.20 c-2.55 -2.60 -4.20 -3.60 -7.70 -4.50 -5 -1.35 -10.55 -0.50 -14.10 2.10 -0.85 0.65 -1.70 1.20 -1.85 1.20 -0.15 0 -0.30 -0.90 -0.30 -2 l0 -2 -3 0 c-2.35 0 -3 0.15 -3 0.75 0 0.40 -0.35 0.75 -0.75 0.75 -0.50 0 -0.75 -0.55 -0.75 -1.75 l0 -1.75 4.25 0 c4.20 0 4.25 0 4.25 1.25 0 0.90 0.25 1.25 1 1.25 0.55 0 1 -0.20 1 -0.45 0 -0.45 3.05 -1.35 6.25 -1.80 4.20 -0.60 13.25 1.50 13.25 3.05 0 0.40 0.40 0.70 0.90 0.70 0.55 0 1.35 0.45 1.85 1 l0.90 1 1.10 -1 c0.60 -0.55 1.35 -1 1.65 -1 0.35 0 0.60 -0.20 0.60 -0.50 0 -0.25 0.80 -0.50 1.75 -0.50 0.95 0 1.75 0.25 1.75 0.50 0 0.30 -0.20 0.50 -0.45 0.50 -0.30 0 -1.80 1.25 -3.45 2.75 l-2.95 2.70 -2.20 -2.25z"/>
  <path d="M190 149.95 c-1.25 -0.80 -3.40 -1.85 -4.85 -2.30 -2.90 -0.90 -3.55 -2.15 -1.15 -2.15 1.80 0 7 1.90 7 2.55 0 0.25 0.35 0.45 0.75 0.45 0.50 0 0.75 0.50 0.75 1.50 0 0.85 -0.05 1.50 -0.10 1.45 -0.10 0 -1.15 -0.70 -2.40 -1.50z"/>
  <path d="M407.50 150 c0 -1 0.25 -1.50 0.75 -1.50 0.40 0 0.75 -0.20 0.75 -0.50 0 -0.25 0.45 -0.50 1 -0.50 0.55 0 1 -0.20 1 -0.40 0 -0.55 3.45 -1.60 5.20 -1.60 2.30 0 1.40 1.30 -1.55 2.20 -1.60 0.50 -3.85 1.60 -5 2.40 l-2.15 1.45 0 -1.55z"/>
  <path d="M226.50 149.70 c-2.15 -1.55 -6 -2.70 -8.85 -2.70 -1.85 0 -2.15 -0.15 -2.15 -1.05 0 -1.05 0.15 -1.05 3.55 -0.75 1.90 0.20 4.45 0.70 5.55 1.10 1.10 0.40 2.10 0.70 2.20 0.70 0.10 0 0.20 -3.05 0.20 -6.75 l0 -6.75 1.75 0 c1.20 0 1.75 0.25 1.75 0.75 0 0.40 -0.35 0.75 -0.75 0.75 -0.65 0 -0.75 1.20 -0.75 8 0 4.40 -0.15 8 -0.35 8 -0.25 -0.05 -1.20 -0.60 -2.15 -1.30z"/>
  <path d="M278.80 150.65 c-0.15 -0.20 -0.15 -1.10 0 -2 l0.30 -1.65 -3.05 0 c-2.40 0 -3.05 0.15 -3.05 0.75 0 0.40 -0.35 0.75 -0.75 0.75 -0.50 0 -0.75 -0.55 -0.75 -1.75 l0 -1.75 4.20 0 4.25 0 0.15 1.40 c0.10 0.95 0.45 1.40 1.30 1.50 0.60 0.10 1.10 0.30 1.10 0.50 0 0.55 -3.35 2.55 -3.70 2.25z"/>
  <path d="M298 149 l0 -2 -3 0 c-2.35 0 -3 0.15 -3 0.75 0 0.40 -0.35 0.75 -0.75 0.75 -0.50 0 -0.75 -0.55 -0.75 -1.75 l0 -1.75 4.50 0 c4.45 0 4.50 0 4.50 1.25 0 0.80 0.30 1.25 0.75 1.25 0.40 0 0.75 -0.20 0.75 -0.40 0 -0.55 3.45 -1.60 5.20 -1.60 2.30 0 1.40 1.30 -1.55 2.20 -1.60 0.50 -3.60 1.45 -4.50 2.10 -0.85 0.65 -1.70 1.20 -1.85 1.20 -0.15 0 -0.30 -0.90 -0.30 -2z"/>
  <path d="M171 148.30 c0 -1.40 1.40 -2.10 5.75 -2.80 4.50 -0.75 5.25 -0.65 5.25 0.50 0 0.85 -0.35 1 -2.15 1 -2.25 0 -4 0.40 -6.95 1.70 -1.90 0.80 -1.90 0.80 -1.90 -0.40z"/>
  <path d="M351.15 147.80 c-1.75 -0.55 -3.15 -1.30 -3.15 -1.65 0 -0.80 2.45 -0.85 5.05 -0.05 1.55 0.45 1.95 0.80 1.95 1.75 0 0.60 -0.15 1.10 -0.35 1.05 -0.25 0 -1.80 -0.50 -3.50 -1.10z"/>
  <path d="M136.50 147.25 c0 -1.25 0.70 -1.50 6.25 -2.05 3.10 -0.30 3.25 -0.30 3.25 0.75 0 0.95 -0.30 1.05 -2.40 1.05 -1.35 0 -3.50 0.30 -4.75 0.70 -2.30 0.70 -2.35 0.70 -2.35 -0.45z"/>
  <path d="M246.50 147.25 c0 -1.20 1.10 -1.75 3.65 -1.75 2.25 0 1.55 1.25 -1.15 2.10 l-2.50 0.80 0 -1.15z"/>
  <path d="M283 147.25 c0 -0.85 0.35 -1.20 1.55 -1.45 4.55 -0.90 5.55 0.60 1.20 1.80 -2.75 0.75 -2.75 0.75 -2.75 -0.35z"/>
  <path d="M393.50 146.75 l0 -1.75 4 0 4 0 0 1.75 c0 0.95 -0.20 1.75 -0.50 1.75 -0.25 0 -0.50 -0.35 -0.50 -0.75 0 -0.60 -0.65 -0.75 -3 -0.75 -2.35 0 -3 0.15 -3 0.75 0 0.40 -0.20 0.75 -0.50 0.75 -0.25 0 -0.50 -0.80 -0.50 -1.75z"/>
  <path d="M474 140.75 c0 -1.40 0.20 -1.75 1 -1.75 0.80 0 1 0.35 1 1.75 0 1.40 -0.20 1.75 -1 1.75 -0.80 0 -1 -0.35 -1 -1.75z"/>
  <path d="M474 136.50 c0 -1 -0.25 -1.50 -0.75 -1.50 -0.40 0 -0.75 -0.20 -0.75 -0.50 0 -0.25 0.80 -0.50 1.75 -0.50 1.70 0 1.75 0.05 1.75 2 0 1.65 -0.15 2 -1 2 -0.80 0 -1 -0.35 -1 -1.50z"/>
  <path d="M1.50 102.75 c0 -1.65 0.10 -1.75 1.75 -1.75 1.65 0 1.75 0.10 1.75 1.75 0 1.65 -0.10 1.75 -1.75 1.75 -1.65 0 -1.75 -0.10 -1.75 -1.75z"/>
  <path d="M1.50 98.75 c0 -1.65 0.10 -1.75 1.75 -1.75 1.65 0 1.75 0.10 1.75 1.75 0 1.65 -0.10 1.75 -1.75 1.75 -1.65 0 -1.75 -0.10 -1.75 -1.75z"/>
  <path d="M1.50 94.75 c0 -1.65 0.10 -1.75 1.75 -1.75 1.65 0 1.75 0.10 1.75 1.75 0 1.65 -0.10 1.75 -1.75 1.75 -1.65 0 -1.75 -0.10 -1.75 -1.75z"/>
  <path d="M1.50 73.75 l0 -2.75 1.75 0 1.75 0 0 2.75 0 2.75 -1.75 0 -1.75 0 0 -2.75z"/>
  <path d="M1.50 37.50 l0 -33 1.75 0 1.75 0 0 33 0 33 -1.75 0 -1.75 0 0 -33z"/>
 </g>
 <g fill="#b0b2b5">
  <path d="M139.45 336.15 c-0.80 -0.10 -1.45 -0.60 -1.60 -1.20 -0.15 -0.50 -0.60 -0.95 -1.05 -0.95 -0.45 0 -0.80 -0.35 -0.80 -0.75 0 -0.40 -0.45 -0.95 -1 -1.25 -1.25 -0.70 -1.45 -4 -0.20 -4 1.60 0 2.70 1 2.70 2.50 0 2.05 0.90 2.35 1.10 0.40 l0.15 -1.65 9.50 -0.15 c10.45 -0.20 18.75 0.25 18.75 0.95 0 0.25 -1.40 0.50 -3.10 0.50 -1.75 0.05 -2.50 0.20 -1.70 0.30 1.10 0.20 1.30 0.35 0.75 0.70 -0.45 0.30 0.05 0.45 1.70 0.45 1.30 0 2.35 0.20 2.35 0.45 0 0.75 -4.40 1.05 -15.95 1.05 -7.50 0 -11.05 0.20 -10.55 0.50 0.50 0.30 48 0.50 131.75 0.50 125.15 0 134.90 -0.10 131.90 -1.35 -0.35 -0.10 -0.65 -1 -0.65 -1.95 0 -1.35 0.20 -1.70 1 -1.70 0.80 0 1 -0.35 1 -1.90 0 -1.05 0.30 -2.20 0.65 -2.55 0.50 -0.55 -0.50 -0.60 -5.30 -0.45 -4.40 0.10 -6 0.35 -6.35 0.85 -0.30 0.55 -2.65 0.80 -10.60 1.15 -5.60 0.20 -11.85 0.60 -13.90 0.95 -2.05 0.30 -6.20 0.70 -9.25 0.90 -3 0.25 -4.90 0.45 -4.15 0.50 2.35 0.10 2.90 0.55 2.90 2.35 l0 1.70 -4 0 -4 0 0 -1.70 c0 -0.95 0.30 -1.85 0.65 -1.95 0.30 -0.15 -0.65 -0.25 -2.15 -0.25 -2 0.05 -2.25 0.10 -0.85 0.25 1.70 0.20 1.85 0.30 1.85 1.85 l0 1.65 -3.10 0.30 c-1.75 0.20 -17.05 0.35 -34 0.35 l-30.90 0 0 -1.70 c0 -1.70 0.10 -1.75 2.35 -2.10 1.25 -0.20 4.15 -0.20 6.35 -0.05 2.25 0.10 5.05 0.05 6.30 -0.15 1.40 -0.25 -2 -0.40 -8.75 -0.40 -6.05 0 -10.60 0.10 -10.10 0.25 0.60 0.15 0.85 0.75 0.85 1.95 0 1.60 -0.10 1.70 -1.75 1.70 -1.65 0 -1.75 -0.10 -1.75 -1.70 0 -1.55 -0.15 -1.70 -1.80 -2.05 -2.10 -0.35 -2.85 -0.05 -0.95 0.45 1.05 0.25 1.25 0.60 1.25 2.05 l0 1.75 -20.85 -0.10 c-16.10 -0.10 -20.85 -0.30 -21.05 -0.75 -0.10 -0.40 0.25 -0.65 0.85 -0.65 0.70 0 0.95 -0.25 0.70 -0.80 -0.25 -0.70 -1.55 -0.75 -11.35 -0.50 -12.30 0.30 -18.25 1.10 -9.55 1.30 l5 0.15 -4 0.55 c-5.95 0.80 -44.35 0.75 -44.60 -0.05 -0.15 -0.40 0.20 -0.65 0.80 -0.65 0.70 0 0.95 -0.25 0.75 -0.75 -0.20 -0.40 -0.60 -0.75 -1 -0.75 -0.40 0 -0.70 -0.35 -0.70 -0.75 0 -0.65 2.35 -0.75 17.90 -0.80 21.35 -0.10 18.30 -0.55 -11.40 -1.65 -10.85 -0.45 -20.25 -0.90 -20.85 -1.10 -0.85 -0.25 -1.15 -0.70 -1.15 -1.70 0 -1.30 0.10 -1.35 3.40 -1.60 3.60 -0.25 23.85 0.25 25.10 0.60 0.40 0.15 0.90 0.45 1.05 0.65 0.15 0.20 3.20 0.50 6.75 0.60 3.55 0.15 8.95 0.35 11.95 0.50 3.05 0.15 7.85 0.25 10.75 0.20 2.90 0 35.15 -0.10 71.70 -0.20 36.55 -0.10 67.65 -0.30 69.10 -0.50 1.75 -0.20 2.70 -0.60 2.95 -1.15 0.25 -0.70 0.40 -0.70 0.75 -0.10 0.65 1.05 6 1.30 7.80 0.35 1.20 -0.65 4.05 -0.75 15.70 -0.80 7.85 -0.05 16.20 -0.20 18.65 -0.35 5.15 -0.35 9.90 0.10 9.75 0.95 -0.05 0.35 0.10 1.55 0.30 2.70 0.50 2.70 -0.50 7.65 -1.50 7.65 -0.40 0 -0.70 0.30 -0.70 0.70 0 0.40 -0.40 0.90 -0.85 1.10 -0.85 0.45 -265.05 0.75 -267.70 0.35z m182.90 -4.75 c-1.35 -0.35 -2.25 -0.35 -3 0 -0.90 0.45 -0.55 0.55 1.90 0.50 2.95 0 3 0 1.10 -0.50z"/>
  <path d="M363.50 331 c0 -1.95 0.05 -2 1.70 -2 0.90 0 2.40 0.15 3.25 0.30 1.35 0.30 1.55 0.50 1.55 2 l0 1.70 -3.25 0 -3.25 0 0 -2z"/>
  <path d="M229.40 332.15 c0.60 -0.10 1.50 -0.10 2 0 0.45 0.15 -0.05 0.25 -1.15 0.20 -1.10 0 -1.50 -0.10 -0.85 -0.20z"/>
  <path d="M133.90 326.65 c-0.10 -0.50 -0.05 -1.55 0.10 -2.40 0.25 -1.45 0.35 -1.50 3.25 -1.65 3.85 -0.20 6.25 0.25 6.25 1.15 0 0.60 -0.80 0.75 -3.75 0.75 l-3.75 0 0 1.50 c0 1.15 -0.25 1.50 -0.95 1.50 -0.50 0 -1.05 -0.40 -1.15 -0.85z"/>
  <path d="M144 323.75 c0 -0.40 0.30 -0.80 0.65 -0.80 5.80 -0.55 8.85 -0.25 8.85 0.85 0 0.55 -1 0.70 -4.75 0.70 -3.90 0 -4.75 -0.15 -4.75 -0.75z"/>
  <path d="M241.15 322.55 c-3.25 -0.55 -3.15 -1.05 0.15 -1.05 l3 0 0.65 -2.45 c0.45 -1.75 0.50 -3 0.15 -4.20 -0.30 -1 -0.35 -1.90 -0.20 -2.05 0.15 -0.15 -0.20 -0.35 -0.80 -0.35 -0.60 -0.05 -1.30 -0.15 -1.60 -0.20 -0.25 -0.05 -0.85 -0.15 -1.25 -0.20 -0.40 0 -0.75 -0.40 -0.75 -0.80 0 -0.55 0.65 -0.75 2.70 -0.75 2.50 0 2.70 0.10 3.30 1.50 0.60 1.40 0.50 9.65 -0.10 10.25 -0.50 0.50 -3.25 0.65 -5.25 0.30z"/>
  <path d="M299 322.15 c0 -0.80 0.40 -0.90 3.35 -0.70 3.65 0.20 3.30 0.65 -0.95 1.25 -2.10 0.30 -2.40 0.25 -2.40 -0.55z"/>
  <path d="M296.60 319.90 c-0.75 -0.75 -0.80 -7.40 -0.10 -7.40 0.30 0 0.50 -0.45 0.50 -1 0 -0.80 0.35 -1 1.65 -1 0.90 0 1.85 0.20 2.15 0.45 0.25 0.25 1.35 0.55 2.45 0.70 1.45 0.15 1.15 0.20 -1.15 0.25 -3.55 0.10 -3.90 1.05 -0.45 1.20 l2.10 0.05 -2.50 0.30 -2.50 0.30 0.15 3.40 c0.10 2.95 0 3.35 -0.80 3.35 -0.50 0 -1.15 -0.25 -1.50 -0.60z"/>
  <path d="M1.90 238.15 c-0.10 -37.35 -0.15 -105.45 -0.15 -151.30 l0 -83.40 1.75 0.15 1.75 0.15 0.15 151.15 0.10 151.10 -1.75 0 -1.75 0 -0.10 -67.85z m1.45 -216.50 c-0.05 -8.75 -0.10 -1.60 -0.10 15.85 0 17.45 0.05 24.60 0.10 15.90 0.10 -8.75 0.10 -23.05 0 -31.75z"/>
  <path d="M198 161.25 c0 -1.40 0.20 -1.75 1 -1.75 1.05 0 1.20 0.50 0.70 2.40 -0.50 1.80 -1.70 1.35 -1.70 -0.65z"/>
  <path d="M537.50 5.65 c0 -2.90 0.50 -3.65 2.30 -3.65 1.60 0 1.70 0.10 1.65 1.65 0 0.85 -0.20 2.05 -0.45 2.60 -0.35 0.85 -0.45 0.75 -0.45 -0.60 -0.05 -2.05 -0.85 -2.15 -1.30 -0.15 -0.40 1.90 -1.75 2 -1.75 0.15z"/>
 </g>
 <g fill="#a650fe">
  <path d="M2.60 154.90 l0.15 -152.65 269 0 269 0 0.10 2 c0.05 1.10 0 1.65 -0.15 1.25 -0.15 -0.40 -0.40 -1.10 -0.55 -1.50 -0.20 -0.60 -0.35 -0.55 -0.65 0.25 -0.25 0.55 -0.45 68.45 -0.45 150.90 -0.05 132.90 0.05 149.85 0.70 149.85 0.45 0 0.75 0.45 0.75 1.25 l0 1.25 -269 0 -269 0 0.10 -152.60z m0.85 -149.60 c-0.50 -0.50 -0.40 137.50 0.15 271.45 0.10 15.40 0.20 -39.25 0.25 -121.45 0.10 -110.55 0 -149.65 -0.40 -150z m350.20 186.80 c3.65 -1.60 7.70 -5.90 9.10 -9.70 0.85 -2.30 1 -3.90 1 -12.40 0 -9.55 -0.05 -9.80 -1.35 -12.60 -1.60 -3.45 -5.25 -7.20 -8.65 -8.90 -2.15 -1.10 -3.15 -1.25 -7.50 -1.25 -6.05 0 -8.60 1.05 -12.60 5.10 -8.45 8.60 -5.65 22.75 5.60 28 2.50 1.15 3.65 1.40 7.05 1.40 3.60 0 4.40 -0.20 7.60 -1.80 3.65 -1.80 4.05 -1.70 3.15 0.70 -1.25 3.20 -5.35 6.40 -9.20 7.10 l-1.85 0.35 0 2.60 c0 1.45 0.15 2.80 0.35 2.95 0.55 0.60 4.30 -0.20 7.30 -1.55z m-250.55 -20.75 l0.15 -10.70 1.50 -2.45 c3.80 -6.05 12.95 -7.15 17.80 -2.05 3.05 3.20 3.20 3.70 3.45 15.10 l0.25 10.50 2.90 0.15 2.85 0.15 0 -9.30 c0 -5.20 0.25 -10.30 0.55 -11.50 0.75 -2.90 3.80 -6.40 6.55 -7.50 6.80 -2.70 14.35 1.20 15.85 8.25 0.30 1.40 0.55 6.50 0.55 11.30 l0 8.75 2.80 -0.15 2.85 -0.15 0.05 -10.25 c0.05 -8.75 -0.10 -10.65 -0.85 -12.90 -2.75 -7.75 -11.05 -12.80 -19.10 -11.50 -3.55 0.55 -8.25 2.95 -10.25 5.25 -0.80 0.90 -1.60 1.65 -1.80 1.65 -0.15 0 -1.30 -1.05 -2.50 -2.30 -5 -5.10 -13.25 -6.30 -20.10 -2.85 -1.55 0.75 -3 1.45 -3.20 1.55 -0.20 0.10 -0.40 -0.65 -0.50 -1.70 l-0.15 -1.85 -2.85 -0.10 -2.90 -0.05 0 17.65 0 17.65 2.95 0 3 0 0.15 -10.65z m84.55 9 c3.35 -1.55 6.95 -5.20 8.70 -8.80 1.20 -2.45 1.40 -3.40 1.40 -7.30 0 -4.10 -0.15 -4.80 -1.60 -7.55 -0.90 -1.75 -2.70 -4.05 -4.15 -5.35 -7.80 -7 -20.15 -5.55 -25.90 3.15 -2.55 3.75 -3.30 6.60 -3 11.15 0.50 7.70 6.15 14.30 13.55 15.85 3.25 0.70 8.15 0.20 11 -1.15z m37.15 -0.35 c3.50 -1.70 6.45 -4.70 8.30 -8.40 1.15 -2.30 1.15 -2.65 1.30 -19.45 l0.15 -17.15 -3.05 0 -3.05 0 0.05 7.65 c0.05 4.15 0.05 7.80 0.05 8 -0.05 0.20 -0.80 -0.15 -1.70 -0.85 -2.50 -1.90 -5.70 -2.85 -9.60 -2.85 -6.10 0 -11.25 2.70 -14.70 7.70 -6.80 10 -1.40 23.65 10.70 26.90 2.95 0.80 8.25 0.10 11.55 -1.55z m37 -0.20 c2.05 -1.05 3.70 -2.10 3.70 -2.45 0 -0.35 -0.75 -1.50 -1.65 -2.55 l-1.65 -1.95 -2.35 1.35 c-5.95 3.50 -13.20 1.35 -16.40 -4.80 l-0.95 -1.90 14.35 -0.10 14.40 -0.15 -0.05 -3.65 c-0.10 -3 -0.35 -4.25 -1.65 -6.85 -4.30 -8.70 -14.30 -12.25 -23.05 -8.20 -12.60 5.80 -13.75 22.55 -2.15 30.60 4.85 3.35 11.50 3.60 17.45 0.65z m17.20 -8.55 c0.25 -10.30 0.30 -10.55 1.60 -12.80 1.60 -2.70 4.65 -4.90 7.55 -5.35 l2.10 -0.35 0.15 -2.95 0.15 -2.95 -2.70 0.30 c-2.70 0.25 -7.40 2.25 -8.20 3.45 -0.25 0.40 -0.50 -0.15 -0.65 -1.55 l-0.25 -2.20 -2.85 -0.10 -2.90 -0.05 0 17.65 0 17.70 2.90 -0.15 2.85 -0.15 0.25 -10.50z m19.10 0.15 c0.15 -11.55 0.30 -12.15 3.20 -15.10 4.45 -4.40 11.80 -4.60 16.15 -0.35 3.10 3 3.30 3.85 3.55 15.30 l0.25 10.50 2.90 0.15 2.90 0.15 -0.15 -11.40 c-0.15 -10.90 -0.20 -11.50 -1.35 -13.65 -1.80 -3.35 -3.10 -4.95 -5.55 -6.75 -5.85 -4.30 -14.05 -4.45 -20.10 -0.45 l-1.90 1.20 0 -2.20 0 -2.20 -3 -0.05 -3 -0.05 0 17.75 0 17.75 2.95 0 3 0 0.15 -10.60z m91.15 9.35 c1.10 -0.50 2.60 -1.30 3.35 -1.80 1.80 -1.30 1.90 -1.25 1.90 1.05 l0 2 3 0 3 0 -0.10 -17.60 -0.15 -17.60 -2.75 0 -2.75 -0.05 -0.25 10.50 c-0.15 5.80 -0.50 10.95 -0.75 11.50 -0.85 1.95 -3.30 4.60 -5.20 5.65 -5.75 3.25 -13.10 0.90 -16 -5.05 -0.95 -2 -1.05 -3.05 -1.05 -12.25 0 -5.55 -0.15 -10.10 -0.35 -10.15 -0.25 0 -1.50 -0.05 -2.90 -0.10 l-2.50 -0.10 -0.15 10.70 -0.10 10.70 1.55 3.40 c2.35 5.05 6.60 8.60 11.80 9.95 2.60 0.65 8 0.25 10.40 -0.75z m37.40 -0.40 c1.45 -0.65 3.10 -1.65 3.75 -2.15 l1.15 -0.95 -1.65 -2.15 c-0.90 -1.15 -1.80 -2.10 -2.05 -2.10 -0.25 0 -1.05 0.45 -1.80 0.95 -5 3.55 -12.70 1.95 -16.10 -3.35 -0.80 -1.25 -1.45 -2.50 -1.45 -2.70 0 -0.20 6.45 -0.40 14.30 -0.40 l14.35 0 -0.25 -4.10 c-0.35 -5.95 -2.45 -9.80 -7.40 -13.50 -4.10 -3.05 -10.90 -3.85 -16.05 -1.90 -6.55 2.40 -11.45 9.40 -11.45 16.30 0 3.20 1.75 8.15 3.85 10.90 2.20 2.85 6.50 5.60 9.65 6.30 3.40 0.70 8.25 0.20 11.15 -1.15z m31.25 1 c5.50 -1.45 8.60 -5.20 8.60 -10.40 0 -3 -1 -4.95 -3.30 -6.55 -2 -1.35 -3.15 -1.75 -9.40 -3.45 -7.90 -2.15 -9.70 -3.85 -7.50 -7.20 0.95 -1.45 5.35 -2.55 8.10 -2 1.95 0.35 5.10 3.15 5.10 4.50 0 0.75 0.35 0.80 2.65 0.50 3.35 -0.45 3.35 -0.50 2.85 -2.25 -0.85 -2.95 -2.50 -4.90 -5.25 -6.25 -2.35 -1.15 -3.25 -1.35 -7.45 -1.30 -7.35 0.05 -10.65 1.95 -12.10 6.85 -0.80 2.85 -0.60 4.45 0.95 7.35 1.30 2.30 3.95 3.65 11.85 5.80 6.30 1.75 7.50 2.50 7.50 4.60 0 3.65 -2.55 5.45 -7.65 5.45 -3.90 0 -5.95 -1.15 -7.45 -4.25 -1.15 -2.35 -1.65 -2.55 -4.85 -1.95 -1.90 0.40 -1.95 1.10 -0.35 4.50 1.60 3.40 4.75 5.70 8.80 6.35 2.70 0.45 6.40 0.30 8.90 -0.30z m28 -2.45 c0.15 -2.45 0 -2.90 -0.70 -2.90 -1.95 0 -4.90 -1.30 -6.95 -3.10 -2.45 -2.15 -3.70 -4.95 -3.90 -8.65 l-0.10 -2.50 5.75 -0.25 5.75 -0.25 0.15 -2.85 0.15 -2.90 -5.70 0 c-4.20 0 -5.80 -0.15 -6 -0.65 -0.10 -0.35 -0.25 -4.90 -0.25 -10.10 l0 -9.50 -3.10 -0.15 -3.10 -0.15 0.20 16.40 c0.20 15.40 0.30 16.55 1.30 19.15 2.05 5.10 6.60 9.35 11.60 10.70 4.40 1.20 4.70 1.05 4.90 -2.30z"/>
  <path d="M342.90 175.50 c-4.70 -1.40 -8.05 -6.10 -8.05 -11.25 0 -6.45 4.75 -11.25 11.35 -11.30 6.55 -0.10 11.45 4.70 11.50 11.30 0.10 7.80 -7.40 13.50 -14.80 11.25z"/>
  <path d="M176.55 175.30 c-2.45 -0.90 -5.55 -3.70 -6.60 -6 -1.05 -2.30 -1.25 -6.35 -0.40 -8.85 2.70 -8.05 12.85 -10.20 19 -4 3.25 3.20 4.10 6.55 2.90 11.25 -1.50 6.05 -8.85 9.80 -14.90 7.60z"/>
  <path d="M213.35 175.30 c-3 -1.10 -5.20 -3.10 -6.65 -6.05 -1.15 -2.35 -1.30 -3.20 -1.05 -5.70 0.55 -6.15 5.30 -10.65 11.30 -10.65 6.70 -0.05 11.55 4.70 11.55 11.25 0 4.80 -2.10 8.35 -6.20 10.45 -2.50 1.30 -6.50 1.60 -8.95 0.70z"/>
  <path d="M243 160.60 c0 -1.40 2.65 -4.80 4.65 -6.05 3.95 -2.45 9.30 -2.20 13 0.65 1.80 1.40 4.30 4.80 4.35 5.95 0 0.20 -4.95 0.35 -11 0.35 -10.35 0 -11 -0.05 -11 -0.90z"/>
  <path d="M408.80 160.40 c1.90 -6.15 9.85 -9.35 15.90 -6.40 2.45 1.15 5.80 4.95 5.80 6.55 0 0.90 -0.60 0.95 -11.05 0.95 l-11 0 0.35 -1.10z"/>
 </g>
 <g fill="#9b9da1">
  <path d="M138.65 335.10 c-0.50 -0.55 -1.30 -1.10 -1.75 -1.25 -0.60 -0.20 -0.90 -0.85 -0.90 -1.80 0 -1 -0.35 -1.70 -1 -2.05 -0.80 -0.45 -0.95 -1.05 -0.95 -3.75 l0.05 -3.25 10.95 0 c9 0 10.95 0.10 10.95 0.70 0 1.05 2.10 1.40 9.75 1.55 3.85 0.10 8.80 0.30 11 0.45 2.20 0.15 8.35 0.40 13.60 0.60 5.30 0.15 10.15 0.35 10.75 0.50 1.60 0.30 27.50 1.40 31.15 1.30 15.85 -0.40 85.65 -0.55 86.70 -0.20 0.85 0.30 3.05 0.30 5.60 0.05 2.30 -0.20 9.70 -0.45 16.45 -0.50 12.95 -0.10 21.35 -0.55 27.50 -1.45 2.05 -0.30 8.05 -0.70 13.25 -0.90 9.90 -0.45 10.75 -0.55 11.35 -1.35 0.20 -0.30 3.40 -0.50 7.75 -0.50 6.55 0 7.40 0.10 7.25 0.80 -0.05 0.50 0.30 0.95 0.90 1.10 0.95 0.25 1.05 0.60 0.95 3.40 -0.10 2.50 -0.30 3.15 -1.05 3.35 -0.50 0.10 -0.90 0.65 -0.90 1.15 0 0.55 -0.30 0.95 -0.65 0.95 -0.35 0 -1 0.45 -1.50 1 -0.85 1 -1.45 1 -133.60 1 -128.20 0 -132.75 -0.05 -133.60 -0.90z m263.95 -1.70 c-0.35 -0.35 -0.60 -1.35 -0.60 -2.25 0 -1.30 0.30 -1.80 1.25 -2.25 0.70 -0.30 1.25 -0.95 1.25 -1.45 0 -0.70 -0.35 -0.80 -2.10 -0.60 -1.20 0.10 -2.80 0.45 -3.55 0.75 -0.75 0.30 -3.80 0.70 -6.75 0.90 l-5.35 0.35 5.90 0.05 5.85 0.10 0 1.95 c0 1.85 -0.10 1.95 -1.85 2.25 -1.05 0.15 -13.30 0.30 -27.25 0.30 -21.30 0 -25.40 -0.10 -25.40 -0.70 0 -0.70 1.35 -1.25 3.50 -1.35 1.05 -0.05 0.95 -0.15 -0.50 -0.50 -2.20 -0.60 -39.35 -0.80 -44.75 -0.25 -2.20 0.20 -4.20 0.55 -4.40 0.75 -0.25 0.25 0.20 0.35 0.95 0.25 0.70 -0.05 2.25 0.05 3.40 0.30 1.10 0.20 1.65 0.40 1.20 0.45 -0.50 0.05 -0.90 0.30 -0.90 0.55 0 0.65 -5.45 0.65 -10.30 -0.05 -2.80 -0.40 -3.95 -0.40 -4.10 0 -0.30 0.90 -15.10 0.70 -17.15 -0.20 l-1.70 -0.70 2.25 -0.05 2.25 -0.10 -1.75 -0.80 c-1.60 -0.70 -8.05 -0.75 -66.50 -0.70 -61.30 0.10 -69.05 0.25 -64.60 1.40 0.60 0.20 1.10 0.60 1.10 0.95 0 0.35 0.30 0.80 0.65 0.90 0.30 0.15 59.10 0.30 130.60 0.30 101.05 0.05 129.80 -0.10 129.35 -0.55z m-108.85 -1.90 c-3.65 -0.60 -7.25 -0.60 -7.25 0 0 0.30 1.90 0.45 4.90 0.45 4.25 -0.10 4.55 -0.15 2.35 -0.45z m64.15 -0.30 c-0.60 -0.55 -3.40 -0.75 -4.25 -0.25 -0.70 0.40 -0.30 0.50 1.80 0.55 1.50 0 2.60 -0.15 2.45 -0.30z m9.60 -0.20 c-1.80 -0.55 -2.50 -0.55 -2.50 0 0 0.30 0.85 0.50 1.90 0.45 1.65 -0.05 1.70 -0.10 0.60 -0.45z m-222.35 -2.50 c1.65 0 1.80 -0.10 1.20 -0.70 -0.45 -0.45 -2.25 -0.80 -4.90 -1 -2.30 -0.15 -3.85 -0.15 -3.40 0 0.50 0.15 0.95 0.70 1.10 1.30 0.25 0.90 0.55 1 2.20 0.75 1.05 -0.20 2.75 -0.35 3.80 -0.35z"/>
  <path d="M242.15 322.65 c-2.35 -0.30 -2.05 -1.05 0.45 -1.25 2.05 -0.15 2.15 -0.20 2.55 -2.25 0.25 -1.35 0.70 -2.15 1.15 -2.15 0.75 0 0.85 1.15 0.40 4.15 -0.35 2 -0.40 2 -4.55 1.50z"/>
  <path d="M297.50 322.10 c0 -0.55 -0.35 -1.10 -0.75 -1.30 -0.60 -0.20 -0.75 -1.20 -0.75 -4.50 0 -2.30 0.15 -4.55 0.30 -5 0.40 -1.05 3.35 -1.05 4.20 -0.05 0.55 0.65 0.40 0.75 -0.75 0.75 -1.15 0 -1.25 0.15 -0.80 0.70 0.50 0.55 0.40 0.80 -0.40 1.05 -0.85 0.25 -0.95 0.50 -0.55 1.25 0.60 1.15 0.65 2.15 0.05 1.80 -0.60 -0.40 -0.40 0.95 0.30 1.75 0.30 0.40 0.60 1.15 0.75 1.70 0.10 0.80 0.65 1.05 2.65 1.25 2.85 0.30 2.20 0.75 -1.75 1.30 -2.30 0.30 -2.50 0.25 -2.50 -0.70z"/>
  <path d="M245.45 315.90 c-0.15 -2.45 -0.75 -3.90 -1.70 -3.90 -0.40 0 -0.75 -0.35 -0.75 -0.75 0 -0.55 0.55 -0.75 2 -0.75 l2 0 0 3 c0 2.35 -0.15 3 -0.75 3 -0.40 0 -0.75 -0.30 -0.80 -0.60z"/>
  <path d="M174 307 c0 -0.80 0.35 -1 1.75 -1 1.40 0 1.75 0.20 1.75 1 0 0.80 -0.35 1 -1.75 1 -1.40 0 -1.75 -0.20 -1.75 -1z"/>
  <path d="M1.85 306.15 c-0.20 -0.15 -0.35 -2.40 -0.35 -5 0 -4.30 0.05 -4.65 1 -4.65 0.90 0 1 0.35 1 3.65 0 4.35 0.35 5.75 1.45 6 0.45 0.15 0 0.25 -1 0.30 -1 0 -1.95 -0.10 -2.10 -0.30z"/>
  <path d="M1.50 277.25 c0 -6.40 0.05 -6.75 1 -6.75 0.95 0 1 0.35 1 6.75 0 6.40 -0.05 6.75 -1 6.75 -0.95 0 -1 -0.35 -1 -6.75z"/>
  <path d="M1.50 217.25 c0 -42.90 0.10 -50.75 0.70 -50.75 0.35 0 0.80 0.50 1 1.15 0.15 0.60 0.30 23.45 0.30 50.75 0 49.35 0 49.60 -1 49.60 -1 0 -1 -0.25 -1 -50.75z"/>
  <path d="M1.50 151.25 c0 -1.85 1.20 -2.50 1.60 -0.85 0.30 1.35 -0.10 2.60 -0.90 2.60 -0.45 0 -0.70 -0.55 -0.70 -1.75z"/>
  <path d="M1.85 6.65 c-0.20 -0.15 -0.35 -1.05 -0.35 -2 0 -1.15 -0.25 -1.65 -0.75 -1.65 -0.50 0 -0.75 -0.50 -0.75 -1.50 0 -1.35 0.15 -1.50 1.50 -1.50 1.15 0 1.50 0.20 1.50 1 0 0.75 0.35 1 1.25 1 1.35 0 1.75 1.20 0.50 1.70 -0.40 0.15 -0.75 0.65 -0.75 1.05 0 0.45 -0.20 0.65 -0.50 0.50 -0.25 -0.15 -0.50 0.15 -0.50 0.70 0 1.05 -0.55 1.35 -1.15 0.70z"/>
  <path d="M540.40 5.15 c-0.10 -0.80 -0.45 -1.45 -0.75 -1.45 -0.35 -0.05 -1 -0.10 -1.45 -0.15 -0.70 -0.05 -0.70 -0.15 0 -0.80 0.40 -0.40 1.20 -0.75 1.75 -0.75 0.70 0 1.05 -0.30 1.05 -1 0 -0.80 0.35 -1 1.50 -1 1.35 0 1.50 0.15 1.50 1.50 0 1.15 -0.20 1.50 -1 1.50 -0.70 0 -1 0.35 -1 1.05 0 0.55 -0.30 1.35 -0.70 1.75 -0.65 0.60 -0.75 0.50 -0.90 -0.65z"/>
 </g>
 <g fill="#828486">
  <path d="M140.70 334.75 c-0.50 -0.40 -1.30 -0.75 -1.75 -0.75 -1.15 0 -2.20 -1.30 -1.35 -1.60 0.35 -0.15 57.55 -0.20 127.15 -0.10 124.80 0.20 132.25 0.10 132.25 -1.30 0 -0.40 -26.10 -0.95 -47.95 -1.10 -8.95 -0.05 -13.20 -0.20 -10.80 -0.40 2.20 -0.15 9.20 -0.35 15.50 -0.40 6.35 -0.10 12.85 -0.35 14.50 -0.60 1.65 -0.30 5.70 -0.60 9 -0.75 9.25 -0.30 19.10 -1.15 20.10 -1.65 0.50 -0.30 2.65 -0.65 4.80 -0.85 l3.85 -0.35 0 2.05 c0 1.65 0.15 2.05 0.95 2.05 0.55 0 1.05 -0.45 1.20 -1.05 0.15 -0.60 0.60 -0.95 0.95 -0.85 0.95 0.35 1.10 2 0.25 2.65 -0.45 0.30 -0.95 1.30 -1.20 2.25 -0.35 1.35 -0.80 1.80 -2.05 2.10 -0.90 0.25 -1.60 0.65 -1.60 0.90 0 0.35 -46.70 0.50 -131.40 0.50 -114.75 0 -131.55 -0.10 -132.40 -0.75z m265.30 -3.75 c0 -1.15 -0.20 -1.20 -1.55 -0.45 -1.15 0.60 -0.80 1.45 0.60 1.45 0.60 0 0.95 -0.35 0.95 -1z"/>
  <path d="M137.65 329.55 c-0.15 -0.55 -0.55 -1.05 -0.90 -1.05 -0.40 0 -0.70 -0.80 -0.85 -2.05 l-0.20 -2 2.30 0.25 c1.25 0.15 3.80 0.40 5.75 0.55 1.90 0.20 3.60 0.50 3.75 0.70 0.80 1.25 3.15 1.60 11.90 1.85 5.15 0.10 13.05 0.35 17.60 0.50 4.55 0.15 14.35 0.35 21.75 0.45 7.45 0.10 14.20 0.40 15 0.65 1 0.35 -9.45 0.55 -32.75 0.55 -18.85 0.05 -36.25 0.20 -38.65 0.40 -4.20 0.25 -4.40 0.25 -4.70 -0.80z"/>
  <path d="M259.50 329.50 c8.70 -0.50 33 -0.55 37.25 -0.05 2.15 0.25 -5.70 0.40 -20 0.40 -14.90 0 -21.20 -0.15 -17.25 -0.35z"/>
  <path d="M242.90 322.65 c-2.50 -0.25 -2.45 -1.15 0.05 -1.15 1.95 0 1.95 0 2.30 -2.35 0.15 -1.35 0.25 -3.45 0.15 -4.75 -0.10 -1.95 -0.35 -2.40 -1.05 -2.40 -1.70 0 -0.55 -1.25 1.25 -1.40 2.15 -0.20 2.40 0.40 2.40 5.95 0 2.95 -0.15 3.90 -0.75 4.15 -0.40 0.15 -0.75 0.75 -0.75 1.30 0 0.65 -0.30 0.95 -0.85 0.90 -0.50 -0.05 -1.75 -0.15 -2.75 -0.25z"/>
  <path d="M300 322 c0 -0.25 0.70 -0.50 1.50 -0.50 0.85 0 1.50 0.25 1.50 0.50 0 0.30 -0.65 0.50 -1.50 0.50 -0.80 0 -1.50 -0.20 -1.50 -0.50z"/>
  <path d="M296 319.50 c0 -1.45 0.20 -2 0.75 -2 0.40 0 0.75 0.35 0.75 0.75 0 0.45 0.35 0.90 0.75 1.05 0.40 0.20 0.75 0.75 0.75 1.25 0 0.70 -0.35 0.95 -1.50 0.95 -1.40 0 -1.50 -0.10 -1.50 -2z"/>
  <path d="M296.35 314.65 c-0.20 -0.15 -0.35 -1.20 -0.35 -2.25 0 -1.85 0.05 -1.90 1.70 -1.90 0.90 0 1.95 0.35 2.30 0.75 0.55 0.65 0.40 0.75 -0.75 0.75 -1.25 0 -1.30 0.10 -0.70 0.85 0.60 0.75 0.60 0.80 -0.15 0.50 -0.65 -0.25 -0.90 -0.05 -0.90 0.65 0 1 -0.55 1.30 -1.15 0.65z"/>
  <path d="M0 311 c0 -0.75 0.35 -1 1.25 -1 0.90 0 1.25 0.25 1.25 1 0 0.75 -0.35 1 -1.25 1 -0.90 0 -1.25 -0.25 -1.25 -1z"/>
  <path d="M541.50 310.50 c0 -1.25 0.20 -1.50 1.25 -1.50 1.05 0 1.25 0.25 1.25 1.50 0 1.25 -0.20 1.50 -1.25 1.50 -1.05 0 -1.25 -0.25 -1.25 -1.50z"/>
  <path d="M7.50 307 c0 -1 0.40 -1 265.65 -1 176.60 0 265.65 -0.15 265.75 -0.50 0.10 -0.30 0.50 -0.50 0.90 -0.50 0.40 0 0.70 -0.35 0.70 -0.75 0 -0.40 0.35 -0.75 0.75 -0.75 0.80 0 1.05 2.15 0.45 3.70 -0.30 0.75 -24.30 0.80 -267.25 0.80 -266.55 0 -266.95 0 -266.95 -1z"/>
  <path d="M1.50 304.75 c0 -1.20 0.25 -1.75 0.75 -1.75 0.40 0 0.75 0.30 0.75 0.65 0 0.35 0.45 1.15 1 1.75 l1.05 1.10 -1.80 0 c-1.65 0 -1.75 -0.10 -1.75 -1.75z"/>
  <path d="M1.50 290.75 c0 -8.80 0.10 -10.75 0.70 -10.75 1.05 0 1.25 1.50 1.25 10.70 0 9.20 -0.20 10.80 -1.25 10.80 -0.60 0 -0.70 -1.90 -0.70 -10.75z"/>
  <path d="M1.50 269.50 c0 -4.80 0.15 -6 0.70 -6 1 0 1.25 1.60 1.10 6.45 -0.25 5.75 -0.20 5.55 -1.05 5.55 -0.60 0 -0.75 -1 -0.75 -6z"/>
  <path d="M1.50 256.50 c0 -1.80 0.20 -2.50 0.70 -2.50 0.85 0 1.40 2.10 1 3.75 -0.55 2.30 -1.70 1.50 -1.70 -1.25z"/>
  <path d="M1.50 4.75 c0 -0.80 -0.30 -1.25 -0.75 -1.25 -1 0 -0.95 -1.25 0.10 -2.50 0.85 -1 1.35 -1 88.25 -1 l87.40 0 0 1.50 0 1.50 -33.60 0.10 c-18.50 0 -40.50 0.10 -48.90 0.20 -8.40 0.10 -32.20 0.15 -52.85 0.20 l-37.65 0 -0.30 1.25 c-0.40 1.65 -1.70 1.65 -1.70 0z"/>
  <path d="M180.50 1.50 l0 -1.50 3.75 0 c3.60 0 3.75 0.05 3.75 1.20 0 1.40 -1.05 1.80 -4.85 1.80 -2.60 0 -2.65 0 -2.65 -1.50z"/>
  <path d="M194.50 1.50 l0 -1.50 3.75 0 c3.60 0 3.75 0.05 3.75 1.20 0 1.40 -1.05 1.80 -4.85 1.80 -2.60 0 -2.65 0 -2.65 -1.50z"/>
  <path d="M541.35 2.65 c-0.20 -0.15 -0.35 -0.85 -0.35 -1.50 0 -0.95 0.25 -1.15 1.50 -1.15 1.35 0 1.50 0.15 1.50 1.50 0 1.25 -0.20 1.50 -1.15 1.50 -0.65 0 -1.35 -0.15 -1.50 -0.35z"/>
 </g>
 <g fill="#717375">
  <path d="M138.10 333.15 c0.15 -0.80 7.55 -0.90 128.55 -1 126.90 -0.10 128.35 -0.10 128.35 0.90 0 0.95 -1.45 0.95 -128.55 0.95 -121.30 0 -128.50 -0.05 -128.35 -0.85z"/>
  <path d="M397 333 c0 -1.05 0.15 -1.10 4.20 -0.95 4.10 0.20 5.35 0.55 4.60 1.35 -0.20 0.20 -2.30 0.45 -4.60 0.55 -4.05 0.15 -4.20 0.10 -4.20 -0.95z"/>
  <path d="M406.60 331.20 c0.20 -1.05 1.10 -1.15 1.30 -0.05 0.10 0.50 -0.15 0.85 -0.65 0.85 -0.50 0 -0.75 -0.30 -0.65 -0.80z"/>
  <path d="M384.75 330 l-10.50 -0.25 6.70 -0.40 c3.70 -0.20 7.10 -0.60 7.55 -0.85 0.45 -0.25 3.65 -0.55 7.05 -0.75 3.40 -0.15 7.20 -0.40 8.40 -0.55 2.10 -0.30 2.15 -0.30 1.80 0.85 -0.60 2.10 -1.65 2.45 -6.20 2.35 -2.35 -0.05 -9 -0.25 -14.80 -0.40z"/>
  <path d="M138 328.50 c0 -1.50 0.05 -1.55 1.90 -1.20 1 0.20 2.20 0.50 2.60 0.70 0.40 0.20 2.80 0.55 5.25 0.75 6.15 0.50 4.20 1.15 -3.60 1.20 l-6.15 0.05 0 -1.50z"/>
  <path d="M243.25 322.50 l-2 -0.30 1.80 -0.40 c1.95 -0.40 2.35 -1.20 2.50 -5 0.10 -1.45 0.10 -1.40 0.45 0.45 0.35 1.90 0.35 1.90 0.45 -0.85 0.05 -2.35 -0.10 -2.90 -0.75 -2.90 -0.70 0 -0.70 -0.15 -0.20 -0.75 0.55 -0.65 0.40 -0.75 -0.70 -0.75 -1.20 0 -1.30 -0.10 -0.60 -0.75 0.40 -0.40 1.40 -0.75 2.20 -0.75 l1.45 0 0 5.25 c0 2.90 -0.20 5.25 -0.45 5.25 -0.20 0 -0.40 0.45 -0.40 1 0 1.05 -0.30 1.10 -3.75 0.50z"/>
  <path d="M296.65 322.45 c-0.90 -0.90 -0.80 -3.80 0.10 -4.15 0.50 -0.20 0.75 0.05 0.75 0.75 0 0.75 0.25 0.95 0.75 0.75 0.50 -0.20 0.75 0.05 0.75 0.70 0 0.75 0.35 1 1.25 1 0.70 0 1.25 0.25 1.25 0.50 0 0.30 -0.30 0.50 -0.70 0.50 -0.35 0 -1.30 0.15 -2.10 0.30 -0.85 0.15 -1.70 0 -2.05 -0.35z"/>
  <path d="M0.65 311.65 c-0.35 -0.10 -0.65 -0.80 -0.65 -1.45 0 -1 0.25 -1.20 1.50 -1.20 1.35 0 1.50 0.15 1.50 1.50 0 1.50 -0.70 1.85 -2.35 1.15z"/>
  <path d="M541 310.05 c0 -1.70 -0.15 -2.05 -0.95 -2.05 -1.30 0 -2.55 -0.50 -2.55 -1.05 0 -0.25 0.55 -0.45 1.20 -0.45 0.85 0 1.35 -0.35 1.60 -1.10 0.35 -1.20 0.50 -9.45 0.65 -32.75 l0.05 -13.65 1.50 0 1.50 0 0 25.75 c0 16.85 -0.15 25.75 -0.50 25.75 -0.25 0 -0.45 0.30 -0.35 0.60 0.05 0.35 -0.40 0.70 -1 0.80 -1.05 0.15 -1.15 -0.05 -1.15 -1.85z"/>
  <path d="M2 306 c0 -1.35 0.25 -2.50 0.50 -2.50 0.30 0 0.50 0.25 0.50 0.55 0 1.05 1.50 1.95 3.35 1.95 4.90 0 5.75 1.70 1.10 2.20 -5.65 0.55 -5.45 0.65 -5.45 -2.20z"/>
  <path d="M0 52.30 l0 -50.15 1.55 -0.35 c0.85 -0.15 38.80 -0.30 84.25 -0.30 l82.70 0 0 1.05 0 1.05 -82 -0.35 c-64.20 -0.25 -82.20 -0.20 -82.75 0.25 -0.65 0.55 -0.75 7.15 -0.75 49.80 l0 49.20 -1.50 0 -1.50 0 0 -50.20z"/>
  <path d="M540.55 4.65 c0 -0.65 -0.40 -1.15 -0.90 -1.20 -0.50 -0.05 -83.10 -0.25 -183.60 -0.40 -145.50 -0.25 -182.75 -0.45 -182.95 -0.95 -0.10 -0.35 0.25 -0.60 0.85 -0.60 0.70 0 0.95 -0.25 0.75 -0.75 -0.25 -0.65 20.35 -0.75 183.75 -0.75 163.25 0 184.05 0.10 184.05 0.75 0 0.40 0.35 0.75 0.75 0.75 0.40 0 0.75 0.45 0.75 1 0 0.75 -0.35 1 -1.45 1 -1.15 0 -1.55 0.25 -1.70 1.15 -0.20 1.10 -0.20 1.10 -0.30 0z"/>
 </g>
 <g fill="#646567">
  <path d="M138.50 333.55 c-1.30 -0.90 -0.25 -1.10 6.20 -1.15 6 -0.05 7.45 0.15 6.60 1 -0.60 0.55 -11.95 0.70 -12.80 0.15z"/>
  <path d="M166.40 333.65 c-0.50 -0.15 -0.90 -0.45 -0.90 -0.70 0 -0.25 3.05 -0.45 7 -0.45 6.35 0 8.80 0.50 5.90 1.15 -1.30 0.30 -10.70 0.30 -12 0z"/>
  <path d="M183.90 333.60 c-0.50 -0.10 -0.90 -0.40 -0.90 -0.65 0 -0.25 3.35 -0.45 7.75 -0.45 7 0 9.50 0.45 6.70 1.15 -1.15 0.30 -12.15 0.25 -13.55 -0.05z"/>
  <path d="M236.40 333.65 c-1.90 -0.45 -0.75 -1.15 1.85 -1.15 1.50 0 2.75 0.25 2.75 0.50 0 0.30 -0.30 0.50 -0.60 0.55 -0.35 0 -1.20 0.10 -1.90 0.15 -0.70 0.10 -1.65 0.05 -2.10 -0.05z"/>
  <path d="M265.90 333.65 c-1.65 -0.40 -0.90 -1.15 1.10 -1.15 1.10 0 2 0.25 2 0.50 0 0.30 -0.20 0.50 -0.45 0.50 -0.25 0 -0.75 0.10 -1.15 0.20 -0.35 0.10 -1.05 0.10 -1.50 -0.05z"/>
  <path d="M280.40 333.60 c-1.95 -0.40 -0.75 -1.10 1.85 -1.10 1.50 0 2.75 0.25 2.75 0.50 0 0.30 -0.30 0.55 -0.60 0.55 -1.80 0.20 -3.25 0.20 -4 0.05z"/>
  <path d="M343.90 333.65 c-0.50 -0.15 -0.90 -0.40 -0.90 -0.60 0 -0.50 9.55 -1.05 11 -0.70 1.35 0.35 1.25 1 -0.25 1.35 -1.30 0.35 -8.35 0.30 -9.85 -0.05z"/>
  <path d="M367.90 333.70 c-1.20 -0.35 -1.15 -1 0.10 -1.35 1.40 -0.35 7 0.20 7 0.70 0 0.25 -0.05 0.45 -0.10 0.50 -1.15 0.20 -6.40 0.30 -7 0.15z"/>
  <path d="M384.40 333.65 c-1.65 -0.40 -0.90 -1 1.50 -1.25 4.05 -0.30 18.50 -0.15 18.90 0.25 0.20 0.20 0.20 0.50 0 0.75 -0.40 0.35 -18.85 0.60 -20.40 0.25z"/>
  <path d="M321.50 333 c0 -0.25 0.80 -0.50 1.75 -0.50 0.95 0 1.75 0.25 1.75 0.50 0 0.30 -0.80 0.50 -1.75 0.50 -0.95 0 -1.75 -0.20 -1.75 -0.50z"/>
  <path d="M138 329.05 c0 -0.85 0.15 -0.90 1.95 -0.35 2.90 0.85 3.05 1.30 0.40 1.30 -1.95 0 -2.35 -0.15 -2.35 -0.95z"/>
  <path d="M393 329.50 c9.55 -0.75 11.15 -0.80 11.35 -0.10 0.20 0.45 -1.60 0.60 -7.95 0.55 -7.75 -0.10 -7.90 -0.10 -3.40 -0.45z"/>
  <path d="M244.10 322.65 c-1.65 -0.20 -1.75 -1.15 -0.10 -1.15 0.60 0 1 -0.40 1.10 -1.10 0.10 -0.65 0.45 -1.10 0.80 -1 0.85 0.15 0.85 -5.70 0 -6.05 -0.50 -0.20 -0.45 -0.40 0.10 -0.80 0.60 -0.45 0.50 -0.55 -0.60 -0.55 -0.80 0 -1.40 -0.15 -1.40 -0.30 0 -0.85 1.65 -1.70 3.25 -1.70 l1.80 0 -0.35 4.65 c-0.20 2.50 -0.55 4.70 -0.75 4.75 -0.60 0.25 -0.55 1.60 0.05 1.60 0.30 0 0.50 0.45 0.50 1 0 1.05 -0.50 1.10 -4.40 0.65z"/>
  <path d="M250.50 322 c0 -0.95 0.35 -1 5 -1 4.65 0 5 0.05 5 1 0 0.95 -0.35 1 -5 1 -4.65 0 -5 -0.05 -5 -1z"/>
  <path d="M264.50 322 c0 -0.80 0.35 -1 1.75 -1 1.40 0 1.75 0.20 1.75 1 0 0.80 -0.35 1 -1.75 1 -1.40 0 -1.75 -0.20 -1.75 -1z"/>
  <path d="M295.60 321.15 c0.05 -1.05 0.05 -3.20 0 -4.75 -0.10 -2.75 -0.15 -2.90 -1.35 -2.90 -1.10 0 -1.25 -0.20 -1.25 -1.75 l0 -1.75 3.25 0 c2.90 0 3.25 0.10 3.25 1 0 0.65 -0.35 1 -1 1 -0.90 0 -1 0.35 -1 4.20 0 3.85 0.55 5.75 1.15 4.20 0.15 -0.40 0.30 -0.30 0.30 0.25 0.05 0.50 0.45 0.85 1.05 0.85 1.70 0 1.10 0.85 -0.85 1.20 -3.50 0.55 -3.70 0.50 -3.55 -1.55z"/>
  <path d="M280 310.75 c0 -1.65 0.10 -1.75 1.75 -1.75 1.65 0 1.75 0.10 1.75 1.75 0 1.65 -0.10 1.75 -1.75 1.75 -1.65 0 -1.75 -0.10 -1.75 -1.75z"/>
  <path d="M1.50 311.25 c0 -0.40 -0.35 -0.75 -0.75 -0.75 -0.65 0 -0.75 -12.35 -0.75 -108.25 0 -75.85 0.15 -108.25 0.55 -108.25 0.25 0 0.35 0.25 0.20 0.50 -0.15 0.30 -0.05 0.50 0.20 0.50 0.35 0 0.55 -2.15 0.50 -6.05 0 -5.90 0.15 -7 0.90 -6.25 0.25 0.20 0.45 50.25 0.55 111.20 0.10 76.90 0.30 111 0.65 111.40 0.30 0.35 1.85 0.80 3.50 1 2.50 0.30 2.95 0.50 2.95 1.30 0 0.90 -0.30 0.95 -3.50 0.80 -2.75 -0.10 -3.45 0 -3.25 0.50 0.15 0.40 0.25 0.80 0.25 0.90 0 0.10 33.10 0.20 73.50 0.20 73.15 0 73.50 0 73.50 1 0 1 -0.35 1 -74.50 1 -65.90 0 -74.50 -0.10 -74.50 -0.75z"/>
  <path d="M151.50 311 c0 -0.90 0.35 -1 2.75 -1 2.40 0 2.75 0.10 2.75 1 0 0.90 -0.35 1 -2.75 1 -2.40 0 -2.75 -0.10 -2.75 -1z"/>
  <path d="M159 311 c0 -0.95 0.35 -1 9.75 -1 9.40 0 9.75 0.05 9.75 1 0 0.95 -0.35 1 -9.75 1 -9.40 0 -9.75 -0.05 -9.75 -1z"/>
  <path d="M179 311 c0 -0.95 0.35 -1 5 -1 4.65 0 5 0.05 5 1 0 0.95 -0.35 1 -5 1 -4.65 0 -5 -0.05 -5 -1z"/>
  <path d="M193.50 311 c0 -1 0.35 -1 22.75 -1 22.40 0 22.75 0 22.75 1 0 1 -0.35 1 -22.75 1 -22.40 0 -22.75 0 -22.75 -1z"/>
  <path d="M325.50 311 c0 -0.95 0.35 -1 8.75 -1 8.40 0 8.75 0.05 8.75 1 0 0.95 -0.35 1 -8.75 1 -8.40 0 -8.75 -0.05 -8.75 -1z"/>
  <path d="M343.50 311 c0 -1 0.35 -1 34.50 -1 34.15 0 34.50 0 34.50 1 0 1 -0.35 1 -34.50 1 -34.15 0 -34.50 0 -34.50 -1z"/>
  <path d="M415 311 c0 -0.90 0.35 -1 3.75 -1 3.40 0 3.75 0.10 3.75 1 0 0.90 -0.35 1 -3.75 1 -3.40 0 -3.75 -0.10 -3.75 -1z"/>
  <path d="M427 311 c0 -1 0.35 -1 39 -1 38.65 0 39 0 39 1 0 1 -0.35 1 -39 1 -38.65 0 -39 0 -39 -1z"/>
  <path d="M505.50 311 c0 -0.90 0.35 -1 3.75 -1 3.40 0 3.75 0.10 3.75 1 0 0.90 -0.35 1 -3.75 1 -3.40 0 -3.75 -0.10 -3.75 -1z"/>
  <path d="M513.50 311 c0 -0.95 0.35 -1 4.75 -1 4.40 0 4.75 0.05 4.75 1 0 0.95 -0.35 1 -4.75 1 -4.40 0 -4.75 -0.05 -4.75 -1z"/>
  <path d="M527.50 311 c0 -0.90 0.35 -1 2.75 -1 2.40 0 2.75 0.10 2.75 1 0 0.90 -0.35 1 -2.75 1 -2.40 0 -2.75 -0.10 -2.75 -1z"/>
  <path d="M533.50 311 c0 -0.90 0.35 -1 3.45 -1 2.60 0 3.50 -0.20 3.75 -0.75 0.25 -0.65 -3.85 -0.75 -34.95 -0.75 -34.90 0 -35.25 0 -35.25 -1 0 -1 0.35 -1 35 -1 l35 0 -0.05 -1.10 c-0.10 -5.70 0.60 -303.60 0.75 -303.75 0.10 -0.10 0.75 -0.05 1.50 0.15 l1.30 0.30 0 134.50 c0 118.20 -0.10 134.45 -0.75 133.90 -0.65 -0.50 -0.70 1.75 -0.70 18.50 0.05 15.85 0.15 19.10 0.75 19.35 0.95 0.35 0.90 1.65 -0.05 1.65 -0.40 0 -0.75 0.45 -0.75 1 0 0.95 -0.35 1 -4.50 1 -4.15 0 -4.50 -0.05 -4.50 -1z"/>
  <path d="M1.50 36.75 c0 -1.20 0.25 -1.75 0.75 -1.75 0.50 0 0.75 0.55 0.75 1.75 0 1.20 -0.25 1.75 -0.75 1.75 -0.50 0 -0.75 -0.55 -0.75 -1.75z"/>
  <path d="M1.50 18.25 l0 -16.25 43.50 0 c28.50 0 43.50 0.15 43.50 0.50 0 0.30 -14.80 0.55 -42.65 0.60 l-42.60 0.15 -0.15 15.65 c-0.10 13.40 -0.20 15.60 -0.85 15.60 -0.65 0 -0.75 -2.20 -0.75 -16.25z"/>
  <path d="M128.40 3.15 c-21.90 -0.10 -38.90 -0.35 -38.90 -0.60 0 -0.25 0.50 -0.55 1.15 -0.75 0.60 -0.15 34.35 -0.30 75 -0.30 73.60 0 73.85 0 73.85 1 0 1.10 13 1.05 -111.10 0.65z"/>
  <path d="M495 2.50 c0 -0.80 0.35 -1 1.75 -1 1.40 0 1.75 0.20 1.75 1 0 0.80 -0.35 1 -1.75 1 -1.40 0 -1.75 -0.20 -1.75 -1z"/>
 </g>
 <g fill="#505053">
  <path d="M138.25 333 c-0.20 -0.30 2.35 -0.50 7.20 -0.50 4.70 0 7.55 0.20 7.55 0.50 0 0.30 -2.75 0.50 -7.20 0.50 -4.30 0 -7.35 -0.20 -7.55 -0.50z"/>
  <path d="M155 333 c0 -0.30 3.15 -0.50 8.50 -0.50 5.35 0 8.50 0.20 8.50 0.50 0 0.30 -3.15 0.50 -8.50 0.50 -5.35 0 -8.50 -0.20 -8.50 -0.50z"/>
  <path d="M196 333 c0 -0.25 0.90 -0.50 2 -0.50 1.10 0 2 0.25 2 0.50 0 0.30 -0.90 0.50 -2 0.50 -1.10 0 -2 -0.20 -2 -0.50z"/>
  <path d="M207 333 c0 -0.35 33.25 -0.50 98.50 -0.50 65.10 0 98.50 0.15 98.50 0.50 0 0.35 -33.40 0.50 -98.50 0.50 -65.25 0 -98.50 -0.15 -98.50 -0.50z"/>
  <path d="M245 322.50 c-1.90 -0.30 -2.05 -0.40 -1.10 -0.75 0.60 -0.20 1.10 -0.80 1.10 -1.30 0 -0.55 0.30 -0.95 0.70 -0.95 0.40 0 0.85 -0.65 1.05 -1.50 0.55 -2.40 1.75 -1.90 1.75 0.75 l0 2.25 2.50 0 c1.80 0 2.50 0.20 2.50 0.70 0 1.25 -3.50 1.60 -8.50 0.80z"/>
  <path d="M258.40 322.65 c-0.50 -0.10 -0.90 -0.55 -0.90 -0.95 0 -0.60 2.90 -0.70 19.15 -0.70 l19.10 0 -0.15 -2.50 c-0.15 -1.95 -0.05 -2.50 0.55 -2.50 0.85 0 1.35 1.45 1.35 3.90 0 1.45 0.15 1.60 1.45 1.60 2.85 0 2 0.85 -1.10 1.20 -3.45 0.35 -38.05 0.30 -39.45 -0.05z"/>
  <path d="M295.50 314.50 c0 -1 -0.35 -1 -23.50 -1 -20.55 0 -23.50 0.10 -23.50 0.75 0 1.20 -1.20 0.85 -1.85 -0.50 -0.30 -0.70 -0.40 -1.15 -0.15 -1 0.20 0.15 0.50 -0.05 0.65 -0.40 0.15 -0.45 -24.80 -0.60 -122.45 -0.60 -122.25 0 -122.65 0 -122.90 -1 -0.15 -0.55 -0.30 -1.15 -0.30 -1.35 0 -0.25 70.25 -0.30 156.15 -0.15 85.85 0.10 157.45 0.20 159.10 0.20 1.65 0 47.95 -0.10 102.90 -0.25 99.05 -0.20 99.85 -0.25 99.85 -1.20 0 -0.90 0.35 -1 3.75 -1 3.40 0 3.75 0.10 3.75 1 0 0.85 0.35 1 2 1 1.65 0 2 -0.15 2 -1 0 -0.95 0.35 -1 4.70 -1 l4.70 0 0.30 -1.55 c0.15 -0.85 0.30 -11.10 0.30 -22.75 0 -18.50 0.10 -21.20 0.75 -21.20 0.65 0 0.75 3.05 0.75 24.30 0 13.45 -0.20 24.65 -0.45 25.10 -0.40 0.80 -8.70 0.85 -124.15 0.85 -68 0 -123.10 0.10 -122.40 0.15 1.75 0.25 2.10 0.75 1.70 2.30 -0.35 1.50 -1.70 1.75 -1.70 0.30z"/>
  <path d="M1.50 306.25 c0 -1.65 0.20 -2.25 0.75 -2.25 0.40 0 0.75 0.30 0.75 0.70 0 0.40 0.40 0.85 0.85 1 0.75 0.30 0.75 0.40 0.15 0.80 -0.55 0.35 -0.40 0.50 0.65 0.50 0.75 0 1.35 0.20 1.35 0.45 0 0.60 -1.30 1.05 -3.05 1.05 -1.40 0 -1.45 -0.10 -1.45 -2.25z"/>
  <path d="M7 307.80 c0 -1.10 1.70 -1.30 13.40 -1.30 10.75 0 11.10 0.05 11.10 1 0 0.95 -0.35 1 -12.25 1 -10.10 0 -12.25 -0.10 -12.25 -0.70z"/>
  <path d="M36.50 307.50 c0 -0.95 0.35 -1 4.75 -1 4.40 0 4.75 0.05 4.75 1 0 0.95 -0.35 1 -4.75 1 -4.40 0 -4.75 -0.05 -4.75 -1z"/>
  <path d="M46.50 307.50 c0 -1 0.35 -1 26.75 -1 26.40 0 26.75 0 26.75 1 0 1 -0.35 1 -26.75 1 -26.40 0 -26.75 0 -26.75 -1z"/>
  <path d="M432.50 307.50 c0 -1 0.25 -1 20.15 -1 11.10 0.05 20.65 0.15 21.25 0.35 0.60 0.15 1.10 0.60 1.10 0.95 0 0.60 -3.50 0.70 -21.25 0.70 -21 0 -21.25 0 -21.25 -1z"/>
  <path d="M541 249.25 c0 -1.20 0.25 -1.75 0.75 -1.75 0.50 0 0.75 0.55 0.75 1.75 0 1.20 -0.25 1.75 -0.75 1.75 -0.50 0 -0.75 -0.55 -0.75 -1.75z"/>
  <path d="M541 229.25 c0 -1.20 0.25 -1.75 0.75 -1.75 0.50 0 0.75 0.55 0.75 1.75 0 1.20 -0.25 1.75 -0.75 1.75 -0.50 0 -0.75 -0.55 -0.75 -1.75z"/>
  <path d="M540.95 178.75 c-0.05 -0.40 -0.05 -1.55 -0.05 -2.50 0 -2.90 0.05 -3.25 0.85 -3.25 0.60 0 0.75 0.70 0.75 3.25 0 2.55 -0.15 3.25 -0.75 3.25 -0.40 0 -0.80 -0.35 -0.80 -0.75z"/>
  <path d="M540.90 171.65 c-0.30 -1.40 0.10 -2.65 0.90 -2.65 0.45 0 0.70 0.55 0.70 1.75 0 1.85 -1.20 2.50 -1.60 0.90z"/>
  <path d="M1.50 161.75 c0 -2.10 0.15 -2.75 0.75 -2.75 0.60 0 0.75 0.65 0.75 2.75 0 2.10 -0.15 2.75 -0.75 2.75 -0.60 0 -0.75 -0.65 -0.75 -2.75z"/>
  <path d="M540.90 162.65 c-0.10 -0.50 -0.25 -36.40 -0.35 -79.75 l-0.10 -78.90 1 0 1.05 0 0 79.75 c0 67.55 -0.10 79.75 -0.70 79.75 -0.35 0 -0.80 -0.40 -0.90 -0.85z"/>
  <path d="M1.60 83.90 c0.20 -72.75 0.25 -80.40 0.90 -79.40 0.30 0.45 0.50 28.30 0.50 71.40 0 64.05 -0.05 70.60 -0.80 70.60 -0.70 0 -0.75 -5.80 -0.60 -62.60z"/>
  <path d="M200.65 3.10 c-19.15 -0.05 -34.15 -0.30 -34.15 -0.55 0 -0.25 0.50 -0.55 1.15 -0.75 0.60 -0.15 43.10 -0.30 94.50 -0.30 l93.35 0 0 1 c0 1 0 1 -60.35 0.90 -33.25 -0.10 -75.75 -0.20 -94.50 -0.30z"/>
  <path d="M356 2.50 c0 -1 0.30 -1 93.25 -1 92.80 0 93.25 0 93.25 1 0 1 -0.45 1 -93.25 1 -92.95 0 -93.25 0 -93.25 -1z"/>
  <path d="M16.65 2.65 c0.45 -0.10 1.25 -0.10 1.75 0 0.45 0.15 0.05 0.25 -0.90 0.25 -0.95 0 -1.35 -0.10 -0.85 -0.25z"/>
  <path d="M20.65 2.65 c0.75 -0.10 1.95 -0.10 2.75 0 0.75 0.10 0.10 0.20 -1.40 0.20 -1.50 0 -2.15 -0.10 -1.35 -0.20z"/>
  <path d="M33.40 2.65 c2.30 -0.10 5.90 -0.10 8 0 2.10 0.05 0.25 0.15 -4.15 0.15 -4.40 0 -6.15 -0.10 -3.85 -0.15z"/>
  <path d="M45.60 2.75 c0.15 -0.15 23.80 -0.40 52.55 -0.60 39.60 -0.25 52.35 -0.15 52.35 0.25 0 0.45 -13 0.60 -52.60 0.60 -28.90 0 -52.45 -0.10 -52.30 -0.25z"/>
 </g>
 <g fill="#3e3f42">
  <path d="M140.50 333 c-0.95 -0.30 -0.60 -0.40 1.50 -0.40 1.95 -0.05 2.45 0.10 1.75 0.40 -1.20 0.50 -1.65 0.50 -3.25 0z"/>
  <path d="M150.75 333 c-0.60 -0.25 2.10 -0.45 7.20 -0.45 4.50 -0.05 8.10 0.05 8 0.15 -0.45 0.40 -14.30 0.70 -15.20 0.30z"/>
  <path d="M170.25 333 c0.20 -0.30 7.65 -0.50 20.90 -0.45 12 0.05 19.75 0.25 18.60 0.50 -3 0.60 -39.90 0.55 -39.50 -0.05z"/>
  <path d="M217.15 332.65 c0.45 -0.10 1.25 -0.10 1.75 0 0.45 0.15 0.05 0.25 -0.90 0.25 -0.95 0 -1.35 -0.10 -0.85 -0.25z"/>
  <path d="M243.20 322.05 c0.15 -0.20 1.10 -0.35 2.15 -0.25 1.65 0.10 1.80 0.05 1.05 -0.50 -0.90 -0.65 -1.30 -2.10 -0.45 -1.60 0.25 0.20 0.60 -0.35 0.80 -1.20 0.40 -1.85 1.75 -2.05 1.75 -0.25 l0 1.25 22.40 0 c12.30 0 22.85 0.15 23.50 0.30 0.95 0.25 1.10 0.10 1.10 -1 0 -0.75 0.30 -1.30 0.70 -1.30 0.70 0 1.30 1.45 1.30 3.45 0 0.70 0.25 1.05 0.65 0.90 0.30 -0.10 1.05 -0.05 1.60 0.20 0.55 0.20 -12 0.40 -27.90 0.40 -16.10 0.05 -28.80 -0.15 -28.65 -0.40z"/>
  <path d="M249 316.75 c0 -1.65 0.10 -1.75 1.75 -1.75 1.65 0 1.75 0.10 1.75 1.75 0 1.65 -0.10 1.75 -1.75 1.75 -1.65 0 -1.75 -0.10 -1.75 -1.75z"/>
  <path d="M247 313 c0 -1 0.35 -1 25 -1 24.65 0 25 0 25 1 0 1 -0.35 1 -25 1 -24.65 0 -25 0 -25 -1z"/>
  <path d="M295.90 311.15 c0.60 -0.10 1.50 -0.10 2 0 0.45 0.15 -0.05 0.25 -1.15 0.20 -1.10 0 -1.50 -0.10 -0.85 -0.20z"/>
  <path d="M308.30 311.10 c-0.20 -0.20 -0.80 -0.40 -1.35 -0.40 -0.50 -0.05 -1.30 -0.10 -1.70 -0.15 -0.40 0 -0.75 -0.40 -0.75 -0.80 0 -0.60 1.55 -0.75 9.65 -0.90 5.25 -0.05 -9.25 -0.15 -32.25 -0.25 -41.55 -0.10 -41.90 -0.10 -41.90 -1.10 0 -1 0.35 -1 42 -1 41.65 0 42 0 42 1 0 0.90 0.35 1 3.25 1 2.90 0 3.25 -0.10 3.25 -1 0 -0.90 0.35 -1 2.75 -1 2.40 0 2.75 0.10 2.75 1 0 0.85 -0.35 1 -2.25 1 -1.90 0 -2.25 0.15 -2.25 1 0 0.60 -0.35 1 -0.85 1.05 -0.50 0 -1.90 0.10 -3.15 0.20 -6.60 0.55 -17 0.65 -17.30 0.20 -0.20 -0.35 -0.50 -0.30 -0.90 0 -0.35 0.30 -0.80 0.35 -1 0.15z"/>
  <path d="M36.05 310.60 l-34.70 -0.10 0.30 -128.15 c0.20 -70.45 0.40 -130.25 0.45 -132.85 0.40 -15.95 0.65 32.80 0.80 137 0.10 83.90 0.30 119.30 0.70 119.55 0.35 0.20 0.30 0.40 -0.15 0.60 -0.40 0.15 -0.10 0.30 0.70 0.30 1.65 0.05 1.80 0.90 0.20 1.20 -0.60 0.10 1.10 0.25 3.80 0.30 3.85 0.05 4.85 -0.10 4.85 -0.65 0 -1.50 3.75 -1.40 4.15 0.15 0.20 0.70 0.25 0.70 0.30 -0.05 0.05 -0.95 0.20 -1 3.30 -1 3.40 0 3.75 0.05 3.75 0.85 0 0.55 0.55 0.75 2 0.75 1.40 0 2 -0.20 2 -0.75 0 -1.10 2.25 -1.25 17.25 -1.05 16.75 0.25 15.25 0.15 15.25 1.05 0 0.65 1 0.75 6 0.75 4.80 0 6 -0.15 6 -0.70 0 -0.75 1.25 -1.20 2.65 -0.90 0.45 0.10 0.85 0.50 0.85 0.90 0 0.60 1.45 0.70 8.50 0.70 8.10 0 8.50 0.05 8.50 1 0 0.90 -0.45 0.95 -11.35 1.10 -6.30 0.10 -27 0.10 -46.10 0z"/>
  <path d="M96.35 310.60 c-0.65 -0.15 -0.85 -0.50 -0.70 -1.15 0.15 -0.50 0.05 -0.95 -0.20 -0.95 -0.95 0 -0.40 -1.40 0.65 -1.65 0.55 -0.15 12.50 -0.30 26.50 -0.35 25.20 0 25.40 0 25.40 1 0 1 0.30 1 14.40 1.05 7.90 0 20.20 0 27.35 -0.05 14.10 -0.10 19.25 0.25 19.25 1.25 0 0.35 -0.45 0.75 -1.05 0.90 -0.75 0.20 -64.30 0.10 -81.90 -0.15 -0.40 0 -0.55 -0.35 -0.40 -1 0.25 -0.90 0 -1 -1.95 -1 -1.85 0 -2.20 0.15 -2.20 1 0 0.95 -0.35 1 -10.85 1.05 -6 0 -11.45 0.05 -12.15 0.10 -0.70 0.10 -1.65 0.05 -2.15 -0.05z"/>
  <path d="M216.35 310.60 c-0.45 -0.10 -0.85 -0.50 -0.85 -0.90 0 -0.55 0.85 -0.70 3.75 -0.70 3 0 3.75 0.15 3.75 0.75 0 0.40 -0.30 0.75 -0.60 0.80 -2.45 0.15 -5.35 0.15 -6.05 0.05z"/>
  <path d="M226.40 310.60 c-1.70 -0.35 -1 -1.60 0.85 -1.60 1.15 0 1.75 0.25 1.75 0.70 0 0.75 -1.25 1.20 -2.60 0.90z"/>
  <path d="M334.40 310.60 c-1.70 -0.35 -1 -1.60 0.85 -1.60 1.15 0 1.75 0.25 1.75 0.70 0 0.75 -1.25 1.20 -2.60 0.90z"/>
  <path d="M343.65 310.60 c-1.25 -0.10 -1.65 -0.40 -1.65 -1.15 0 -0.80 0.35 -0.95 2.40 -0.95 1.30 0 2.85 0.15 3.50 0.30 1.15 0.35 1.55 1.65 0.50 1.75 -0.35 0 -1.20 0.05 -1.90 0.10 -0.70 0.05 -2 0.05 -2.85 -0.05z"/>
  <path d="M350.35 310.60 c-0.45 -0.10 -0.85 -0.50 -0.85 -0.90 0 -0.60 1.90 -0.70 11.75 -0.70 10.10 0 11.75 0.10 11.75 0.75 0 0.40 -0.40 0.75 -0.85 0.80 -2.40 0.15 -21.10 0.20 -21.80 0.05z"/>
  <path d="M378.40 310.60 c-1.70 -0.35 -1 -1.60 0.85 -1.60 1.15 0 1.75 0.25 1.75 0.70 0 0.75 -1.25 1.20 -2.60 0.90z"/>
  <path d="M293.50 310 c0 -0.30 1.40 -0.50 3.25 -0.50 1.85 0 3.25 0.20 3.25 0.50 0 0.30 -1.40 0.50 -3.25 0.50 -1.85 0 -3.25 -0.20 -3.25 -0.50z"/>
  <path d="M387.50 309.50 c0 -0.90 0.35 -1 2.75 -1 2.40 0 2.75 0.10 2.75 1 0 0.90 -0.35 1 -2.75 1 -2.40 0 -2.75 -0.10 -2.75 -1z"/>
  <path d="M394 309.50 c0 -0.75 0.35 -1 1.25 -1 0.95 0 1.25 -0.25 1.25 -1.05 0 -1 0.05 -1.05 21.15 -0.90 11.60 0.05 21.50 0.20 22 0.35 0.45 0.10 0.85 0.55 0.85 0.90 0 0.60 2.50 0.70 14.50 0.70 12.95 0 14.50 -0.10 14.50 -0.80 0 -0.75 3.25 -0.80 35.65 -0.65 l35.60 0.20 0.15 -142.90 c0.10 -130.85 0.15 -142.85 0.90 -142.85 0.75 0 0.80 12 0.65 144.40 l-0.20 144.35 -68.65 0.15 c-68.35 0.10 -68.60 0.10 -68.60 -0.90 0 -0.80 -0.35 -1 -1.75 -1 -1.40 0 -1.75 0.20 -1.75 1 0 0.90 -0.35 1 -3.75 1 -3.40 0 -3.75 -0.10 -3.75 -1z"/>
  <path d="M380.50 307.50 c0 -0.80 0.35 -1 1.75 -1 1.40 0 1.75 0.20 1.75 1 0 0.80 -0.35 1 -1.75 1 -1.40 0 -1.75 -0.20 -1.75 -1z"/>
  <path d="M541 14.25 c0 -3.90 0.15 -4.75 0.75 -4.75 0.60 0 0.75 0.85 0.75 4.75 0 3.90 -0.15 4.75 -0.75 4.75 -0.60 0 -0.75 -0.85 -0.75 -4.75z"/>
  <path d="M540.75 5.30 c-0.30 -1.45 -0.60 -1.75 -2.05 -2.05 -2.65 -0.45 -2 -1.25 1.05 -1.25 l2.75 0 0 2.50 c0 3 -1.25 3.55 -1.75 0.80z"/>
  <path d="M322.90 3.15 c-3.25 -0.10 -5.90 -0.35 -5.90 -0.60 0 -0.25 0.40 -0.50 0.90 -0.65 1.55 -0.35 54.05 -0.10 54.40 0.25 0.20 0.20 0.20 0.50 0.05 0.70 -0.35 0.30 -39.30 0.55 -49.45 0.30z"/>
  <path d="M123.55 2.80 c0.10 -0.15 12.10 -0.40 26.60 -0.60 19.75 -0.25 26.35 -0.20 26.35 0.20 0 0.45 -6.85 0.60 -26.60 0.60 -14.60 0 -26.45 -0.10 -26.35 -0.20z"/>
 </g>
 <g fill="#2c2e30">
  <path d="M245.65 322.15 c0.45 -0.10 1.25 -0.10 1.75 0 0.45 0.15 0.05 0.25 -0.90 0.25 -0.95 0 -1.35 -0.10 -0.85 -0.25z"/>
  <path d="M262.15 322.15 c6.30 -0.10 16.40 -0.10 22.50 0 6.10 0.05 1 0.10 -11.40 0.10 -12.35 0 -17.35 -0.05 -11.10 -0.10z"/>
  <path d="M247.05 321 c-0.50 -0.35 0.10 -8.80 0.60 -8.60 0.20 0.05 11.35 0.10 24.80 0.10 l24.45 0 0.20 4.05 c0.10 2.25 0.05 4.20 -0.10 4.40 -0.30 0.35 -49.40 0.40 -49.95 0.05z m43.95 -0.95 c0 -0.30 1.05 -0.60 2.40 -0.70 1.30 -0.10 -8.35 -0.15 -21.40 -0.15 -13.05 0 -22.55 0.05 -21.10 0.15 1.40 0.10 2.60 0.40 2.60 0.70 0 0.25 7.25 0.45 18.75 0.45 11.45 0 18.75 -0.20 18.75 -0.45z"/>
  <path d="M1.85 310.10 c-0.15 -0.25 -0.05 -11.85 0.10 -15.45 0.05 -0.35 0.30 -0.65 0.55 -0.65 0.30 0 0.50 2.50 0.50 6.50 l0 6.50 49.25 0 c43.45 0 49.25 0.10 49.25 0.75 0 0.60 0.70 0.75 3.25 0.75 2.45 0 3.25 0.15 3.25 0.70 0 0.40 -0.60 0.80 -1.35 0.95 -2.70 0.45 -17.80 0.10 -18 -0.40 -0.10 -0.35 -1.75 -0.40 -4.80 -0.15 -4.45 0.35 -13.05 0.55 -17.10 0.35 -2.25 -0.10 -7.70 -0.15 -10 -0.05 -0.80 0 -2.35 0 -3.35 0 -1.05 0 -2.50 0.05 -3.20 0.10 -0.75 0.10 -1.45 -0.10 -1.65 -0.40 -0.25 -0.40 -1.35 -0.40 -3.70 -0.10 -1.85 0.30 -4.70 0.50 -6.25 0.50 -1.55 0 -9.60 0 -17.85 0 -8.25 -0.05 -15.85 0.05 -16.85 0.20 -1.05 0.15 -1.95 0.10 -2.05 -0.10z"/>
  <path d="M109.35 310.10 c-0.45 -0.10 -0.85 -0.50 -0.85 -0.90 0 -0.55 0.85 -0.70 3.75 -0.70 3 0 3.75 0.15 3.75 0.75 0 0.40 -0.30 0.75 -0.60 0.80 -2.45 0.15 -5.35 0.15 -6.05 0.05z"/>
  <path d="M119.40 310.15 c-0.50 -0.10 -0.90 -0.55 -0.90 -0.95 0 -0.55 0.90 -0.70 4.25 -0.70 3.30 0 4.25 -0.15 4.25 -0.70 0 -0.35 0.50 -0.80 1.10 -0.95 1.55 -0.40 3.40 0.10 3.40 0.95 0 0.40 0.35 0.70 0.75 0.70 0.40 0 0.75 -0.30 0.75 -0.70 0 -0.85 1.55 -1.25 4.50 -1.05 3.50 0.20 3.50 0.20 3.50 1 0 0.45 0.45 0.75 1.25 0.75 0.75 0 1.25 -0.30 1.25 -0.70 0 -0.35 0.50 -0.80 1.10 -1 1.50 -0.35 95.85 -0.40 97.30 0 0.60 0.20 1.10 0.65 1.10 1 0 0.60 6.15 0.70 39 0.70 33 0 39 -0.10 39 -0.70 0 -0.40 0.50 -0.80 1.15 -1 1.50 -0.35 76.30 -0.35 77.75 0 0.60 0.20 1.10 0.65 1.10 1 0 0.50 0.80 0.70 3 0.70 2.20 0 3 -0.20 3 -0.70 0 -0.80 1.60 -1.30 3 -0.95 0.55 0.15 1 0.60 1 0.95 0 0.55 0.85 0.70 3.50 0.70 2.65 0 3.50 0.15 3.50 0.70 0 0.40 -0.50 0.80 -1.10 0.95 -1.70 0.40 -211.60 0.45 -213.10 0.05 -0.70 -0.15 -1.30 -0.60 -1.30 -1 0 -0.55 -1.20 -0.70 -6 -0.70 -4.90 0 -6 0.15 -6 0.75 0 1 -2.15 1.25 -11 1.05 -9.40 -0.20 -9 -0.15 -9 -1.05 0 -0.40 -0.35 -0.75 -0.75 -0.75 -0.40 0 -0.75 0.35 -0.75 0.75 0 0.90 0.55 0.80 -8 0.95 -7.70 0.10 -8.35 0 -8.65 -1.15 -0.20 -0.70 -0.25 -0.70 -0.30 0.10 0 0.45 -0.35 0.85 -0.65 0.90 -0.35 0 -1.30 0.10 -2.15 0.20 -2.15 0.20 -3.75 -0.25 -3.75 -1.05 0 -0.40 -0.35 -0.70 -0.75 -0.70 -0.40 0 -0.75 0.35 -0.75 0.75 0 0.75 -0.35 0.85 -2.75 0.85 -2.35 0 -2.70 -0.10 -2.90 -0.95 -0.20 -0.85 -0.25 -0.85 -0.30 0 -0.05 0.90 -0.25 0.95 -3.80 0.95 -3.55 0 -3.75 -0.05 -3.75 -0.85 0 -0.40 -0.35 -0.75 -0.75 -0.75 -0.40 0 -0.75 0.30 -0.75 0.70 0 0.35 -0.50 0.80 -1.10 1 -1.30 0.30 -7.20 0.30 -8.50 -0.05z"/>
  <path d="M419.35 310.10 c-0.45 -0.10 -0.85 -0.50 -0.85 -0.90 0 -0.55 0.95 -0.70 4.50 -0.70 3.70 0 4.50 -0.15 4.50 -0.75 0 -0.70 2.60 -0.75 22.40 -0.65 23.80 0.10 44.95 0.60 51.10 1.15 6.10 0.55 8.45 0.60 25.15 0.70 10.50 0.05 15.80 0.20 15.60 0.55 -0.15 0.30 -1.25 0.45 -2.40 0.45 -1.15 -0.05 -26.05 -0.05 -55.35 0 -35.60 0.05 -53.30 -0.10 -53.40 -0.45 -0.25 -0.70 -2.45 -0.65 -2.70 0.05 -0.15 0.50 -6.60 0.90 -8.55 0.55z"/>
  <path d="M1.90 292.65 c-0.30 -1.20 0.05 -2.65 0.65 -2.65 0.25 0 0.45 0.80 0.45 1.75 0 1.80 -0.75 2.40 -1.10 0.90z"/>
  <path d="M1.95 286.65 c0 -0.50 0 -3.50 0 -6.65 0 -3.15 0.10 -28.80 0.15 -57 0.05 -28.20 0.25 -46.85 0.40 -41.50 0.55 20.75 0.60 106 0.05 106 -0.30 0 -0.55 -0.40 -0.60 -0.85z"/>
  <path d="M2.15 169.50 c0 -1.25 0.10 -1.75 0.20 -1.10 0.10 0.60 0.10 1.60 0 2.25 -0.10 0.60 -0.20 0.10 -0.20 -1.15z"/>
  <path d="M541.50 164.40 c-0.05 -0.90 -0.15 -3.10 -0.25 -4.80 -0.10 -1.75 0 -3.70 0.25 -4.25 0.30 -0.75 0.45 0.90 0.45 4.80 0.05 3.20 -0.05 5.85 -0.20 5.85 -0.15 0 -0.25 -0.75 -0.25 -1.60z"/>
  <path d="M2.15 157.25 c0 -1.35 0.10 -1.90 0.20 -1.10 0.10 0.75 0.10 1.85 0 2.50 -0.10 0.60 -0.20 0 -0.20 -1.40z"/>
  <path d="M541.35 152.95 c-0.15 -0.55 -0.30 -34.35 -0.35 -75.10 0 -57.65 -0.15 -74.15 -0.65 -74.45 -0.35 -0.20 -39.60 -0.40 -87.20 -0.40 -57.45 0 -86.65 -0.15 -86.65 -0.50 0 -0.35 29.65 -0.50 87.90 -0.50 l87.90 0 -0.20 75.85 c-0.10 41.75 -0.25 75.95 -0.35 76.05 -0.05 0.05 -0.25 -0.35 -0.40 -0.95z"/>
  <path d="M174 2.50 c1.90 -0.60 150 -0.60 150 0 0 0.35 -25.50 0.50 -75.60 0.45 -41.60 -0.05 -75.10 -0.25 -74.40 -0.45z"/>
 </g>
 <g fill="#1f2022">
  <path d="M247 319.25 l0 -1.75 25 0 25 0 0 1.75 0 1.75 -25 0 -25 0 0 -1.75z"/>
  <path d="M126.15 310.10 l-124.15 -0.10 0 -1.30 c0 -1.15 0.15 -1.25 1.30 -1 0.95 0.25 1.20 0.20 0.90 -0.30 -0.30 -0.50 -0.25 -0.55 0.35 -0.05 0.40 0.35 1.45 0.50 2.35 0.35 0.90 -0.15 1.60 -0.10 1.60 0.15 0 0.50 21.40 0.45 25 -0.10 3.25 -0.50 6 -0.35 6.85 0.35 0.35 0.25 0.90 0.30 1.25 0.10 0.90 -0.60 14.35 -0.70 14.70 -0.15 0.15 0.25 0.65 0.25 1.10 0.05 0.45 -0.25 2.20 -0.35 3.85 -0.25 5.95 0.35 22.15 0.20 28.75 -0.25 7.60 -0.55 335.35 -0.80 339.75 -0.30 1.50 0.20 2.65 0.50 2.50 0.70 -0.20 0.35 16.70 0.95 29.45 1.05 3.45 0.05 5.20 0.25 4.70 0.50 -0.90 0.50 -155.35 0.75 -340.25 0.55z"/>
  <path d="M2.25 304 c-0.50 -0.75 -0.15 -26 0.35 -26 0.20 0 0.40 5.95 0.40 13.25 0 7.30 -0.10 13.25 -0.20 13.25 -0.15 0 -0.40 -0.25 -0.55 -0.50z"/>
  <path d="M2.20 273.50 c0.20 -4.15 0.80 -4.40 0.80 -0.35 0 1.85 -0.20 3.35 -0.50 3.35 -0.25 0 -0.40 -1.35 -0.30 -3z"/>
  <path d="M2.65 267 c0 -1.25 0.10 -1.75 0.20 -1.10 0.10 0.60 0.10 1.60 0 2.25 -0.10 0.60 -0.20 0.10 -0.20 -1.15z"/>
  <path d="M541.65 6.75 c0 -1.35 0.10 -1.90 0.20 -1.10 0.10 0.75 0.10 1.85 0 2.50 -0.10 0.60 -0.20 0 -0.20 -1.40z"/>
  <path d="M286 2.50 c-25.45 -0.20 -11.05 -0.30 51.70 -0.40 47.85 -0.05 86.85 0 86.75 0.10 -0.40 0.35 -103 0.60 -138.45 0.30z"/>
  <path d="M453.90 2.15 c0.60 -0.10 1.50 -0.10 2 0 0.45 0.15 -0.05 0.25 -1.15 0.20 -1.10 0 -1.50 -0.10 -0.85 -0.20z"/>
  <path d="M467.10 2.15 c2.40 -0.10 6.45 -0.10 9 0 2.55 0.05 0.60 0.15 -4.35 0.15 -4.95 0 -7.05 -0.10 -4.65 -0.15z"/>
 </g>
</svg>