<svg width="561" height="130" viewBox="0 0 561 130" fill="none" xmlns="http://www.w3.org/2000/svg">
<path d="M52 11.0001C48.287 11.0001 44.726 12.4751 42.1005 15.1006C39.475 17.7261 38 21.2871 38 25.0001V45.0001C38 48.7132 39.475 52.2741 42.1005 54.8996C44.726 57.5251 48.287 59.0001 52 59.0001H72C75.713 59.0001 79.274 57.5251 81.8995 54.8996C84.525 52.2741 86 48.7132 86 45.0001V35.0001C86 34.4697 86.2107 33.961 86.5858 33.5859C86.9609 33.2108 87.4696 33.0001 88 33.0001C88.5304 33.0001 89.0391 33.2108 89.4142 33.5859C89.7893 33.961 90 34.4697 90 35.0001V45.0001C90 49.774 88.1036 54.3524 84.7279 57.728C81.3523 61.1037 76.7739 63.0001 72 63.0001H52C47.2261 63.0001 42.6477 61.1037 39.2721 57.728C35.8964 54.3524 34 49.774 34 45.0001V25.0001C34 20.2262 35.8964 15.6479 39.2721 12.2722C42.6477 8.89654 47.2261 7.00012 52 7.00012H62C62.5304 7.00012 63.0391 7.21084 63.4142 7.58591C63.7893 7.96098 64 8.46969 64 9.00012C64 9.53055 63.7893 10.0393 63.4142 10.4143C63.0391 10.7894 62.5304 11.0001 62 11.0001H52Z" fill="#A650FF"/>
<path d="M94 15C94 18.1826 92.7357 21.2348 90.4853 23.4853C88.2348 25.7357 85.1826 27 82 27C78.8174 27 75.7652 25.7357 73.5147 23.4853C71.2643 21.2348 70 18.1826 70 15C70 11.8174 71.2643 8.76516 73.5147 6.51472C75.7652 4.26428 78.8174 3 82 3C85.1826 3 88.2348 4.26428 90.4853 6.51472C92.7357 8.76516 94 11.8174 94 15V15Z" fill="#A650FF"/>
<path d="M33.374 91.7676C32.167 91.7676 31.2178 92.1953 30.5264 93.0508C29.835 93.9062 29.4893 95.0869 29.4893 96.5928C29.4893 98.1689 29.8203 99.3613 30.4824 100.17C31.1504 100.979 32.1143 101.383 33.374 101.383C33.9189 101.383 34.4463 101.33 34.9561 101.225C35.4658 101.113 35.9961 100.973 36.5469 100.803V102.604C35.5391 102.985 34.3965 103.176 33.1191 103.176C31.2383 103.176 29.7939 102.607 28.7861 101.471C27.7783 100.328 27.2744 98.6963 27.2744 96.5752C27.2744 95.2393 27.5176 94.0703 28.0039 93.0684C28.4961 92.0664 29.2051 91.2988 30.1309 90.7656C31.0566 90.2324 32.1436 89.9658 33.3916 89.9658C34.7041 89.9658 35.917 90.2412 37.0303 90.792L36.2744 92.541C35.8408 92.3359 35.3809 92.1572 34.8945 92.0049C34.4141 91.8467 33.9072 91.7676 33.374 91.7676ZM45.9512 103L45.6611 101.726H45.5557C45.2686 102.177 44.8584 102.531 44.3252 102.789C43.7979 103.047 43.1943 103.176 42.5146 103.176C41.3369 103.176 40.458 102.883 39.8779 102.297C39.2979 101.711 39.0078 100.823 39.0078 99.6338V93.2793H41.0908V99.2734C41.0908 100.018 41.2432 100.577 41.5479 100.952C41.8525 101.321 42.3301 101.506 42.9805 101.506C43.8477 101.506 44.4834 101.248 44.8877 100.732C45.2979 100.211 45.5029 99.3408 45.5029 98.1221V93.2793H47.5771V103H45.9512ZM57.0518 100.231C57.0518 101.181 56.7061 101.91 56.0146 102.42C55.3232 102.924 54.333 103.176 53.0439 103.176C51.749 103.176 50.709 102.979 49.9238 102.587V100.803C51.0664 101.33 52.1299 101.594 53.1143 101.594C54.3857 101.594 55.0215 101.21 55.0215 100.442C55.0215 100.196 54.9512 99.9912 54.8105 99.8271C54.6699 99.6631 54.4385 99.4932 54.1162 99.3174C53.7939 99.1416 53.3457 98.9424 52.7715 98.7197C51.6523 98.2861 50.8936 97.8525 50.4951 97.4189C50.1025 96.9854 49.9062 96.4229 49.9062 95.7314C49.9062 94.8994 50.2402 94.2549 50.9082 93.7979C51.582 93.335 52.4961 93.1035 53.6504 93.1035C54.793 93.1035 55.874 93.335 56.8936 93.7979L56.2256 95.3535C55.1768 94.9199 54.2949 94.7031 53.5801 94.7031C52.4902 94.7031 51.9453 95.0137 51.9453 95.6348C51.9453 95.9395 52.0859 96.1973 52.3672 96.4082C52.6543 96.6191 53.2754 96.9092 54.2305 97.2783C55.0332 97.5889 55.6162 97.873 55.9795 98.1309C56.3428 98.3887 56.6123 98.6875 56.7881 99.0273C56.9639 99.3613 57.0518 99.7627 57.0518 100.231ZM62.9141 101.506C63.418 101.506 63.9219 101.427 64.4258 101.269V102.824C64.1973 102.924 63.9014 103.006 63.5381 103.07C63.1807 103.141 62.8086 103.176 62.4219 103.176C60.4648 103.176 59.4863 102.145 59.4863 100.082V94.8438H58.1592V93.9297L59.583 93.1738L60.2861 91.1172H61.5605V93.2793H64.3291V94.8438H61.5605V100.047C61.5605 100.545 61.6836 100.914 61.9297 101.154C62.1816 101.389 62.5098 101.506 62.9141 101.506ZM74.999 98.1221C74.999 99.71 74.5918 100.949 73.7773 101.84C72.9629 102.73 71.8291 103.176 70.376 103.176C69.4678 103.176 68.665 102.971 67.9678 102.561C67.2705 102.15 66.7344 101.562 66.3594 100.794C65.9844 100.026 65.7969 99.1357 65.7969 98.1221C65.7969 96.5459 66.2012 95.3154 67.0098 94.4307C67.8184 93.5459 68.958 93.1035 70.4287 93.1035C71.835 93.1035 72.9482 93.5576 73.7686 94.4658C74.5889 95.3682 74.999 96.5869 74.999 98.1221ZM67.9238 98.1221C67.9238 100.366 68.7529 101.488 70.4111 101.488C72.0518 101.488 72.8721 100.366 72.8721 98.1221C72.8721 95.9014 72.0459 94.791 70.3936 94.791C69.5264 94.791 68.8965 95.0781 68.5039 95.6523C68.1172 96.2266 67.9238 97.0498 67.9238 98.1221ZM85.5723 103H83.498V97.0059C83.498 96.2617 83.3574 95.708 83.0762 95.3447C82.7949 94.9756 82.3555 94.791 81.7578 94.791C80.9609 94.791 80.375 95.0518 80 95.5732C79.6309 96.0889 79.4463 96.9502 79.4463 98.1572V103H77.3809V93.2793H78.998L79.2881 94.5537H79.3936C79.6631 94.0908 80.0527 93.7334 80.5625 93.4814C81.0781 93.2295 81.6436 93.1035 82.2588 93.1035C83.7529 93.1035 84.7432 93.6133 85.2295 94.6328H85.3701C85.6572 94.1523 86.0615 93.7773 86.583 93.5078C87.1045 93.2383 87.7021 93.1035 88.376 93.1035C89.5361 93.1035 90.3799 93.3965 90.9072 93.9824C91.4404 94.5684 91.707 95.4619 91.707 96.6631V103H89.6416V97.0059C89.6416 96.2617 89.498 95.708 89.2109 95.3447C88.9297 94.9756 88.4902 94.791 87.8926 94.791C87.0898 94.791 86.501 95.043 86.126 95.5469C85.7568 96.0449 85.5723 96.8125 85.5723 97.8496V103ZM9.98633 125L8.70312 121.432H3.79004L2.5332 125H0.318359L5.12598 112.098H7.41113L12.2188 125H9.98633ZM8.14941 119.621L6.94531 116.123C6.85742 115.889 6.73438 115.52 6.57617 115.016C6.42383 114.512 6.31836 114.143 6.25977 113.908C6.10156 114.629 5.87012 115.417 5.56543 116.272L4.40527 119.621H8.14941ZM18.626 125.176C17.3955 125.176 16.4404 124.733 15.7607 123.849H15.6377C15.7197 124.669 15.7607 125.167 15.7607 125.343V129.324H13.6953V115.279H15.3652C15.4121 115.461 15.5088 115.895 15.6553 116.58H15.7607C16.4053 115.596 17.3721 115.104 18.6611 115.104C19.874 115.104 20.8174 115.543 21.4912 116.422C22.1709 117.301 22.5107 118.534 22.5107 120.122C22.5107 121.71 22.165 122.949 21.4736 123.84C20.7881 124.73 19.8389 125.176 18.626 125.176ZM18.125 116.791C17.3047 116.791 16.7041 117.031 16.3232 117.512C15.9482 117.992 15.7607 118.76 15.7607 119.814V120.122C15.7607 121.306 15.9482 122.164 16.3232 122.697C16.6982 123.225 17.3105 123.488 18.1602 123.488C18.875 123.488 19.4258 123.195 19.8125 122.609C20.1992 122.023 20.3926 121.188 20.3926 120.104C20.3926 119.015 20.1992 118.191 19.8125 117.635C19.4316 117.072 18.8691 116.791 18.125 116.791ZM29.8408 125.176C28.6104 125.176 27.6553 124.733 26.9756 123.849H26.8525C26.9346 124.669 26.9756 125.167 26.9756 125.343V129.324H24.9102V115.279H26.5801C26.627 115.461 26.7236 115.895 26.8701 116.58H26.9756C27.6201 115.596 28.5869 115.104 29.876 115.104C31.0889 115.104 32.0322 115.543 32.7061 116.422C33.3857 117.301 33.7256 118.534 33.7256 120.122C33.7256 121.71 33.3799 122.949 32.6885 123.84C32.0029 124.73 31.0537 125.176 29.8408 125.176ZM29.3398 116.791C28.5195 116.791 27.9189 117.031 27.5381 117.512C27.1631 117.992 26.9756 118.76 26.9756 119.814V120.122C26.9756 121.306 27.1631 122.164 27.5381 122.697C27.9131 123.225 28.5254 123.488 29.375 123.488C30.0898 123.488 30.6406 123.195 31.0273 122.609C31.4141 122.023 31.6074 121.188 31.6074 120.104C31.6074 119.015 31.4141 118.191 31.0273 117.635C30.6465 117.072 30.084 116.791 29.3398 116.791ZM42.6553 122.231C42.6553 123.181 42.3096 123.91 41.6182 124.42C40.9268 124.924 39.9365 125.176 38.6475 125.176C37.3525 125.176 36.3125 124.979 35.5273 124.587V122.803C36.6699 123.33 37.7334 123.594 38.7178 123.594C39.9893 123.594 40.625 123.21 40.625 122.442C40.625 122.196 40.5547 121.991 40.4141 121.827C40.2734 121.663 40.042 121.493 39.7197 121.317C39.3975 121.142 38.9492 120.942 38.375 120.72C37.2559 120.286 36.4971 119.853 36.0986 119.419C35.7061 118.985 35.5098 118.423 35.5098 117.731C35.5098 116.899 35.8438 116.255 36.5117 115.798C37.1855 115.335 38.0996 115.104 39.2539 115.104C40.3965 115.104 41.4775 115.335 42.4971 115.798L41.8291 117.354C40.7803 116.92 39.8984 116.703 39.1836 116.703C38.0938 116.703 37.5488 117.014 37.5488 117.635C37.5488 117.939 37.6895 118.197 37.9707 118.408C38.2578 118.619 38.8789 118.909 39.834 119.278C40.6367 119.589 41.2197 119.873 41.583 120.131C41.9463 120.389 42.2158 120.688 42.3916 121.027C42.5674 121.361 42.6553 121.763 42.6553 122.231ZM52.0596 114.919C52.0596 115.288 52.1562 115.637 52.3496 115.965C52.5488 116.293 52.8242 116.642 53.1758 117.011C53.8379 116.636 54.3008 116.287 54.5645 115.965C54.834 115.637 54.9688 115.271 54.9688 114.866C54.9688 114.485 54.8398 114.181 54.582 113.952C54.3301 113.724 53.9932 113.609 53.5713 113.609C53.1084 113.609 52.7393 113.729 52.4639 113.97C52.1943 114.204 52.0596 114.521 52.0596 114.919ZM53.3691 123.4C54.4414 123.4 55.3584 123.087 56.1201 122.46L52.7539 119.146C52.1328 119.545 51.7051 119.92 51.4707 120.271C51.2363 120.617 51.1191 121.013 51.1191 121.458C51.1191 122.032 51.3213 122.501 51.7256 122.864C52.1357 123.222 52.6836 123.4 53.3691 123.4ZM48.9395 121.599C48.9395 120.831 49.127 120.163 49.502 119.595C49.877 119.021 50.5537 118.452 51.5322 117.89C50.9756 117.239 50.5947 116.691 50.3896 116.246C50.1904 115.795 50.0908 115.329 50.0908 114.849C50.0908 113.958 50.4072 113.255 51.04 112.739C51.6787 112.224 52.5342 111.966 53.6064 111.966C54.6436 111.966 55.458 112.218 56.0498 112.722C56.6416 113.22 56.9375 113.894 56.9375 114.743C56.9375 115.411 56.7383 116.018 56.3398 116.562C55.9473 117.107 55.2881 117.652 54.3623 118.197L57.4033 121.133C57.8779 120.506 58.2734 119.586 58.5898 118.373H60.7168C60.3066 120.037 59.6504 121.394 58.748 122.442L61.3936 125H58.7305L57.4209 123.726C56.8232 124.206 56.1846 124.569 55.5049 124.815C54.8311 125.056 54.084 125.176 53.2637 125.176C51.916 125.176 50.8584 124.856 50.0908 124.218C49.3232 123.579 48.9395 122.706 48.9395 121.599ZM75.1133 112.15H77.293L72.793 125H70.5781L66.0957 112.15H68.2578L70.9385 120.14C71.0791 120.521 71.2285 121.013 71.3867 121.616C71.5449 122.214 71.6475 122.659 71.6943 122.952C71.7705 122.507 71.8877 121.991 72.0459 121.405C72.2041 120.819 72.333 120.386 72.4326 120.104L75.1133 112.15ZM80.835 125H78.7695V115.279H80.835V125ZM78.6465 112.704C78.6465 112.335 78.7461 112.051 78.9453 111.852C79.1504 111.652 79.4404 111.553 79.8154 111.553C80.1787 111.553 80.46 111.652 80.6592 111.852C80.8643 112.051 80.9668 112.335 80.9668 112.704C80.9668 113.056 80.8643 113.334 80.6592 113.539C80.46 113.738 80.1787 113.838 79.8154 113.838C79.4404 113.838 79.1504 113.738 78.9453 113.539C78.7461 113.334 78.6465 113.056 78.6465 112.704ZM87.0752 125.176C85.8623 125.176 84.916 124.736 84.2363 123.857C83.5566 122.979 83.2168 121.745 83.2168 120.157C83.2168 118.563 83.5596 117.324 84.2451 116.439C84.9365 115.549 85.8916 115.104 87.1104 115.104C88.3877 115.104 89.3604 115.575 90.0283 116.519H90.1338C90.0342 115.821 89.9844 115.271 89.9844 114.866V111.324H92.0586V125H90.4414L90.0811 123.726H89.9844C89.3223 124.692 88.3525 125.176 87.0752 125.176ZM87.6289 123.506C88.4785 123.506 89.0967 123.269 89.4834 122.794C89.8701 122.313 90.0693 121.537 90.0811 120.465V120.175C90.0811 118.95 89.8818 118.08 89.4834 117.564C89.085 117.049 88.4609 116.791 87.6113 116.791C86.8848 116.791 86.3252 117.087 85.9326 117.679C85.54 118.265 85.3438 119.103 85.3438 120.192C85.3438 121.271 85.5342 122.094 85.915 122.662C86.2959 123.225 86.8672 123.506 87.6289 123.506ZM99.2568 125.176C97.7451 125.176 96.5615 124.736 95.7061 123.857C94.8564 122.973 94.4316 121.757 94.4316 120.21C94.4316 118.622 94.8271 117.374 95.6182 116.466C96.4092 115.558 97.4961 115.104 98.8789 115.104C100.162 115.104 101.176 115.493 101.92 116.272C102.664 117.052 103.036 118.124 103.036 119.489V120.605H96.5586C96.5879 121.549 96.8428 122.275 97.3232 122.785C97.8037 123.289 98.4805 123.541 99.3535 123.541C99.9277 123.541 100.461 123.488 100.953 123.383C101.451 123.271 101.984 123.09 102.553 122.838V124.517C102.049 124.757 101.539 124.927 101.023 125.026C100.508 125.126 99.9189 125.176 99.2568 125.176ZM98.8789 116.668C98.2227 116.668 97.6953 116.876 97.2969 117.292C96.9043 117.708 96.6699 118.314 96.5938 119.111H101.006C100.994 118.309 100.801 117.702 100.426 117.292C100.051 116.876 99.5352 116.668 98.8789 116.668ZM114.005 120.122C114.005 121.71 113.598 122.949 112.783 123.84C111.969 124.73 110.835 125.176 109.382 125.176C108.474 125.176 107.671 124.971 106.974 124.561C106.276 124.15 105.74 123.562 105.365 122.794C104.99 122.026 104.803 121.136 104.803 120.122C104.803 118.546 105.207 117.315 106.016 116.431C106.824 115.546 107.964 115.104 109.435 115.104C110.841 115.104 111.954 115.558 112.774 116.466C113.595 117.368 114.005 118.587 114.005 120.122ZM106.93 120.122C106.93 122.366 107.759 123.488 109.417 123.488C111.058 123.488 111.878 122.366 111.878 120.122C111.878 117.901 111.052 116.791 109.399 116.791C108.532 116.791 107.902 117.078 107.51 117.652C107.123 118.227 106.93 119.05 106.93 120.122ZM122.917 122.231C122.917 123.181 122.571 123.91 121.88 124.42C121.188 124.924 120.198 125.176 118.909 125.176C117.614 125.176 116.574 124.979 115.789 124.587V122.803C116.932 123.33 117.995 123.594 118.979 123.594C120.251 123.594 120.887 123.21 120.887 122.442C120.887 122.196 120.816 121.991 120.676 121.827C120.535 121.663 120.304 121.493 119.981 121.317C119.659 121.142 119.211 120.942 118.637 120.72C117.518 120.286 116.759 119.853 116.36 119.419C115.968 118.985 115.771 118.423 115.771 117.731C115.771 116.899 116.105 116.255 116.773 115.798C117.447 115.335 118.361 115.104 119.516 115.104C120.658 115.104 121.739 115.335 122.759 115.798L122.091 117.354C121.042 116.92 120.16 116.703 119.445 116.703C118.355 116.703 117.811 117.014 117.811 117.635C117.811 117.939 117.951 118.197 118.232 118.408C118.52 118.619 119.141 118.909 120.096 119.278C120.898 119.589 121.481 119.873 121.845 120.131C122.208 120.389 122.478 120.688 122.653 121.027C122.829 121.361 122.917 121.763 122.917 122.231Z" fill="#A650FF"/>
<path d="M265.07 15.8572H287.786C288.317 18.4587 289.796 20.7703 291.934 22.344C294.073 23.9177 296.72 24.6412 299.362 24.3743C302.004 24.1075 304.453 22.8692 306.233 20.8996C308.014 18.93 309 16.3695 309 13.7143C309 11.0591 308.014 8.49856 306.233 6.52898C304.453 4.5594 302.004 3.32115 299.362 3.05428C296.72 2.78741 294.073 3.51094 291.934 5.0846C289.796 6.65826 288.317 8.96993 287.786 11.5714H265.07C261.944 11.5714 258.946 12.8132 256.736 15.0234C254.526 17.2336 253.284 20.2314 253.284 23.3572C253.284 26.4829 254.526 29.4807 256.736 31.6909C258.946 33.9012 261.944 35.1429 265.07 35.1429H288.644C290.633 35.1429 292.541 35.933 293.947 37.3396C295.354 38.7461 296.144 40.6537 296.144 42.6429C296.144 44.632 295.354 46.5396 293.947 47.9462C292.541 49.3527 290.633 50.1428 288.644 50.1428H270.214C269.683 47.5413 268.204 45.2297 266.066 43.656C263.927 42.0823 261.28 41.3588 258.638 41.6257C255.996 41.8926 253.547 43.1308 251.767 45.1004C249.986 47.07 249 49.6305 249 52.2857C249 54.9409 249.986 57.5015 251.767 59.471C253.547 61.4406 255.996 62.6789 258.638 62.9457C261.28 63.2126 263.927 62.4891 266.066 60.9154C268.204 59.3417 269.683 57.0301 270.214 54.4286H288.644C291.77 54.4286 294.768 53.1869 296.978 50.9766C299.188 48.7664 300.43 45.7686 300.43 42.6429C300.43 39.5171 299.188 36.5193 296.978 34.3091C294.768 32.0989 291.77 30.8571 288.644 30.8571H265.07C263.081 30.8571 261.173 30.067 259.767 28.6604C258.36 27.2539 257.57 25.3463 257.57 23.3572C257.57 21.368 258.36 19.4604 259.767 18.0539C261.173 16.6473 263.081 15.8572 265.07 15.8572V15.8572ZM298.287 7.28574C299.559 7.28574 300.802 7.66276 301.859 8.36914C302.916 9.07552 303.74 10.0795 304.227 11.2542C304.713 12.4289 304.841 13.7214 304.593 14.9685C304.345 16.2155 303.732 17.3609 302.833 18.26C301.934 19.159 300.788 19.7713 299.541 20.0193C298.294 20.2674 297.002 20.1401 295.827 19.6535C294.652 19.167 293.648 18.343 292.942 17.2858C292.235 16.2287 291.858 14.9858 291.858 13.7143C291.858 12.0093 292.535 10.3742 293.741 9.16862C294.947 7.96303 296.582 7.28574 298.287 7.28574V7.28574ZM259.713 58.7143C258.441 58.7143 257.198 58.3372 256.141 57.6309C255.084 56.9245 254.26 55.9205 253.773 54.7458C253.287 53.5711 253.159 52.2786 253.407 51.0316C253.655 49.7845 254.268 48.6391 255.167 47.74C256.066 46.841 257.212 46.2287 258.459 45.9807C259.706 45.7326 260.998 45.8599 262.173 46.3465C263.348 46.833 264.352 47.657 265.058 48.7142C265.765 49.7714 266.142 51.0143 266.142 52.2857C266.142 53.9907 265.465 55.6258 264.259 56.8314C263.053 58.037 261.418 58.7143 259.713 58.7143V58.7143Z" fill="#A650FF"/>
<path d="M208.318 100V87.1504H210.419V100H208.318ZM222.152 100H220.078V94.0234C220.078 93.2734 219.926 92.7139 219.621 92.3447C219.322 91.9756 218.845 91.791 218.188 91.791C217.315 91.791 216.677 92.0488 216.272 92.5645C215.868 93.0801 215.666 93.9443 215.666 95.1572V100H213.601V90.2793H215.218L215.508 91.5537H215.613C215.906 91.0908 216.322 90.7334 216.861 90.4814C217.4 90.2295 217.998 90.1035 218.654 90.1035C220.986 90.1035 222.152 91.29 222.152 93.6631V100ZM228.647 98.5059C229.151 98.5059 229.655 98.4268 230.159 98.2686V99.8242C229.931 99.9238 229.635 100.006 229.271 100.07C228.914 100.141 228.542 100.176 228.155 100.176C226.198 100.176 225.22 99.1445 225.22 97.082V91.8438H223.893V90.9297L225.316 90.1738L226.02 88.1172H227.294V90.2793H230.062V91.8438H227.294V97.0469C227.294 97.5449 227.417 97.9141 227.663 98.1543C227.915 98.3887 228.243 98.5059 228.647 98.5059ZM236.355 100.176C234.844 100.176 233.66 99.7363 232.805 98.8574C231.955 97.9727 231.53 96.7568 231.53 95.21C231.53 93.6221 231.926 92.374 232.717 91.4658C233.508 90.5576 234.595 90.1035 235.978 90.1035C237.261 90.1035 238.274 90.4932 239.019 91.2725C239.763 92.0518 240.135 93.124 240.135 94.4893V95.6055H233.657C233.687 96.5488 233.941 97.2754 234.422 97.7852C234.902 98.2891 235.579 98.541 236.452 98.541C237.026 98.541 237.56 98.4883 238.052 98.3828C238.55 98.2715 239.083 98.0898 239.651 97.8379V99.5166C239.147 99.7568 238.638 99.9268 238.122 100.026C237.606 100.126 237.018 100.176 236.355 100.176ZM235.978 91.668C235.321 91.668 234.794 91.876 234.396 92.292C234.003 92.708 233.769 93.3145 233.692 94.1113H238.104C238.093 93.3086 237.899 92.7021 237.524 92.292C237.149 91.876 236.634 91.668 235.978 91.668ZM250.69 90.2793V91.4131L249.029 91.7207C249.182 91.9258 249.308 92.1777 249.407 92.4766C249.507 92.7754 249.557 93.0918 249.557 93.4258C249.557 94.4277 249.211 95.2158 248.52 95.79C247.828 96.3643 246.876 96.6514 245.663 96.6514C245.353 96.6514 245.071 96.6279 244.819 96.5811C244.374 96.8564 244.151 97.1787 244.151 97.5479C244.151 97.7705 244.254 97.9375 244.459 98.0488C244.67 98.1602 245.054 98.2158 245.61 98.2158H247.307C248.379 98.2158 249.193 98.4443 249.75 98.9014C250.307 99.3584 250.585 100.018 250.585 100.879C250.585 101.98 250.131 102.83 249.223 103.428C248.314 104.025 247.002 104.324 245.285 104.324C243.961 104.324 242.95 104.09 242.253 103.621C241.556 103.152 241.207 102.484 241.207 101.617C241.207 101.02 241.395 100.516 241.77 100.105C242.15 99.7012 242.681 99.4199 243.36 99.2617C243.085 99.1445 242.856 98.957 242.675 98.6992C242.499 98.4355 242.411 98.1602 242.411 97.873C242.411 97.5098 242.514 97.2021 242.719 96.9502C242.924 96.6982 243.229 96.4492 243.633 96.2031C243.129 95.9863 242.719 95.6348 242.402 95.1484C242.092 94.6562 241.937 94.082 241.937 93.4258C241.937 92.3711 242.268 91.5537 242.93 90.9736C243.598 90.3936 244.547 90.1035 245.777 90.1035C246.053 90.1035 246.34 90.124 246.639 90.165C246.943 90.2002 247.172 90.2383 247.324 90.2793H250.69ZM243.053 101.512C243.053 101.957 243.252 102.3 243.65 102.54C244.055 102.78 244.62 102.9 245.347 102.9C246.472 102.9 247.31 102.739 247.86 102.417C248.411 102.095 248.687 101.667 248.687 101.134C248.687 100.712 248.534 100.41 248.229 100.229C247.931 100.053 247.371 99.9648 246.551 99.9648H244.986C244.395 99.9648 243.923 100.103 243.571 100.378C243.226 100.659 243.053 101.037 243.053 101.512ZM243.94 93.4258C243.94 94.0352 244.096 94.5039 244.406 94.832C244.723 95.1602 245.174 95.3242 245.76 95.3242C246.955 95.3242 247.553 94.6855 247.553 93.4082C247.553 92.7754 247.403 92.2891 247.104 91.9492C246.812 91.6035 246.363 91.4307 245.76 91.4307C245.162 91.4307 244.708 91.6006 244.397 91.9404C244.093 92.2803 243.94 92.7754 243.94 93.4258ZM257.432 90.1035C257.848 90.1035 258.19 90.1328 258.46 90.1914L258.258 92.1162C257.965 92.0459 257.66 92.0107 257.344 92.0107C256.518 92.0107 255.847 92.2803 255.331 92.8193C254.821 93.3584 254.566 94.0586 254.566 94.9199V100H252.501V90.2793H254.118L254.391 91.9932H254.496C254.818 91.4131 255.237 90.9531 255.753 90.6133C256.274 90.2734 256.834 90.1035 257.432 90.1035ZM266.353 100L265.939 98.6465H265.869C265.4 99.2383 264.929 99.6426 264.454 99.8594C263.979 100.07 263.37 100.176 262.626 100.176C261.671 100.176 260.924 99.918 260.385 99.4023C259.852 98.8867 259.585 98.1572 259.585 97.2139C259.585 96.2119 259.957 95.4561 260.701 94.9463C261.445 94.4365 262.579 94.1582 264.103 94.1113L265.781 94.0586V93.54C265.781 92.9189 265.635 92.4561 265.342 92.1514C265.055 91.8408 264.606 91.6855 263.997 91.6855C263.499 91.6855 263.021 91.7588 262.564 91.9053C262.107 92.0518 261.668 92.2246 261.246 92.4238L260.578 90.9473C261.105 90.6719 261.683 90.4639 262.31 90.3232C262.937 90.1768 263.528 90.1035 264.085 90.1035C265.321 90.1035 266.253 90.373 266.88 90.9121C267.513 91.4512 267.829 92.2979 267.829 93.4521V100H266.353ZM263.276 98.5938C264.026 98.5938 264.627 98.3857 265.078 97.9697C265.535 97.5479 265.764 96.959 265.764 96.2031V95.3594L264.516 95.4121C263.543 95.4473 262.834 95.6113 262.389 95.9043C261.949 96.1914 261.729 96.6338 261.729 97.2314C261.729 97.665 261.858 98.002 262.116 98.2422C262.374 98.4766 262.761 98.5938 263.276 98.5938ZM274.333 98.5059C274.837 98.5059 275.341 98.4268 275.845 98.2686V99.8242C275.616 99.9238 275.32 100.006 274.957 100.07C274.6 100.141 274.228 100.176 273.841 100.176C271.884 100.176 270.905 99.1445 270.905 97.082V91.8438H269.578V90.9297L271.002 90.1738L271.705 88.1172H272.979V90.2793H275.748V91.8438H272.979V97.0469C272.979 97.5449 273.103 97.9141 273.349 98.1543C273.601 98.3887 273.929 98.5059 274.333 98.5059ZM279.861 100H277.796V90.2793H279.861V100ZM277.673 87.7041C277.673 87.335 277.772 87.0508 277.972 86.8516C278.177 86.6523 278.467 86.5527 278.842 86.5527C279.205 86.5527 279.486 86.6523 279.686 86.8516C279.891 87.0508 279.993 87.335 279.993 87.7041C279.993 88.0557 279.891 88.334 279.686 88.5391C279.486 88.7383 279.205 88.8379 278.842 88.8379C278.467 88.8379 278.177 88.7383 277.972 88.5391C277.772 88.334 277.673 88.0557 277.673 87.7041ZM291.445 95.1221C291.445 96.71 291.038 97.9492 290.224 98.8398C289.409 99.7305 288.275 100.176 286.822 100.176C285.914 100.176 285.111 99.9707 284.414 99.5605C283.717 99.1504 283.181 98.5615 282.806 97.7939C282.431 97.0264 282.243 96.1357 282.243 95.1221C282.243 93.5459 282.647 92.3154 283.456 91.4307C284.265 90.5459 285.404 90.1035 286.875 90.1035C288.281 90.1035 289.395 90.5576 290.215 91.4658C291.035 92.3682 291.445 93.5869 291.445 95.1221ZM284.37 95.1221C284.37 97.3662 285.199 98.4883 286.857 98.4883C288.498 98.4883 289.318 97.3662 289.318 95.1221C289.318 92.9014 288.492 91.791 286.84 91.791C285.973 91.791 285.343 92.0781 284.95 92.6523C284.563 93.2266 284.37 94.0498 284.37 95.1221ZM302.379 100H300.305V94.0234C300.305 93.2734 300.152 92.7139 299.848 92.3447C299.549 91.9756 299.071 91.791 298.415 91.791C297.542 91.791 296.903 92.0488 296.499 92.5645C296.095 93.0801 295.893 93.9443 295.893 95.1572V100H293.827V90.2793H295.444L295.734 91.5537H295.84C296.133 91.0908 296.549 90.7334 297.088 90.4814C297.627 90.2295 298.225 90.1035 298.881 90.1035C301.213 90.1035 302.379 91.29 302.379 93.6631V100ZM317.9 100L316.644 95.4648C316.491 94.9844 316.216 93.8682 315.817 92.1162H315.738C315.398 93.6982 315.129 94.8203 314.93 95.4824L313.638 100H311.353L308.628 90.2793H310.737L311.977 95.0693C312.258 96.2529 312.457 97.2666 312.574 98.1104H312.627C312.686 97.6826 312.773 97.1934 312.891 96.6426C313.014 96.0859 313.119 95.6699 313.207 95.3945L314.684 90.2793H316.951L318.384 95.3945C318.472 95.6816 318.58 96.1211 318.709 96.7129C318.844 97.3047 318.923 97.7646 318.946 98.0928H319.017C319.104 97.3721 319.31 96.3643 319.632 95.0693L320.889 90.2793H322.963L320.221 100H317.9ZM326.707 100H324.642V90.2793H326.707V100ZM324.519 87.7041C324.519 87.335 324.618 87.0508 324.817 86.8516C325.022 86.6523 325.312 86.5527 325.688 86.5527C326.051 86.5527 326.332 86.6523 326.531 86.8516C326.736 87.0508 326.839 87.335 326.839 87.7041C326.839 88.0557 326.736 88.334 326.531 88.5391C326.332 88.7383 326.051 88.8379 325.688 88.8379C325.312 88.8379 325.022 88.7383 324.817 88.5391C324.618 88.334 324.519 88.0557 324.519 87.7041ZM333.29 98.5059C333.794 98.5059 334.298 98.4268 334.802 98.2686V99.8242C334.573 99.9238 334.277 100.006 333.914 100.07C333.557 100.141 333.185 100.176 332.798 100.176C330.841 100.176 329.862 99.1445 329.862 97.082V91.8438H328.535V90.9297L329.959 90.1738L330.662 88.1172H331.937V90.2793H334.705V91.8438H331.937V97.0469C331.937 97.5449 332.06 97.9141 332.306 98.1543C332.558 98.3887 332.886 98.5059 333.29 98.5059ZM345.305 100H343.23V94.0234C343.23 93.2734 343.078 92.7139 342.773 92.3447C342.475 91.9756 341.997 91.791 341.341 91.791C340.474 91.791 339.835 92.0518 339.425 92.5732C339.021 93.0889 338.818 93.9561 338.818 95.1748V100H336.753V86.3242H338.818V89.7959C338.818 90.3525 338.783 90.9473 338.713 91.5801H338.845C339.126 91.1113 339.516 90.748 340.014 90.4902C340.518 90.2324 341.104 90.1035 341.771 90.1035C344.127 90.1035 345.305 91.29 345.305 93.6631V100ZM192.876 115.127H194.335C195.313 115.127 196.022 114.945 196.462 114.582C196.901 114.219 197.121 113.68 197.121 112.965C197.121 112.238 196.884 111.717 196.409 111.4C195.935 111.084 195.22 110.926 194.265 110.926H192.876V115.127ZM192.876 116.867V122H190.775V109.15H194.405C196.063 109.15 197.291 109.461 198.088 110.082C198.885 110.703 199.283 111.641 199.283 112.895C199.283 114.494 198.451 115.634 196.787 116.313L200.417 122H198.026L194.95 116.867H192.876ZM206.314 122.176C204.803 122.176 203.619 121.736 202.764 120.857C201.914 119.973 201.489 118.757 201.489 117.21C201.489 115.622 201.885 114.374 202.676 113.466C203.467 112.558 204.554 112.104 205.937 112.104C207.22 112.104 208.233 112.493 208.978 113.272C209.722 114.052 210.094 115.124 210.094 116.489V117.605H203.616C203.646 118.549 203.9 119.275 204.381 119.785C204.861 120.289 205.538 120.541 206.411 120.541C206.985 120.541 207.519 120.488 208.011 120.383C208.509 120.271 209.042 120.09 209.61 119.838V121.517C209.106 121.757 208.597 121.927 208.081 122.026C207.565 122.126 206.977 122.176 206.314 122.176ZM205.937 113.668C205.28 113.668 204.753 113.876 204.354 114.292C203.962 114.708 203.728 115.314 203.651 116.111H208.063C208.052 115.309 207.858 114.702 207.483 114.292C207.108 113.876 206.593 113.668 205.937 113.668ZM218.971 119.231C218.971 120.181 218.625 120.91 217.934 121.42C217.242 121.924 216.252 122.176 214.963 122.176C213.668 122.176 212.628 121.979 211.843 121.587V119.803C212.985 120.33 214.049 120.594 215.033 120.594C216.305 120.594 216.94 120.21 216.94 119.442C216.94 119.196 216.87 118.991 216.729 118.827C216.589 118.663 216.357 118.493 216.035 118.317C215.713 118.142 215.265 117.942 214.69 117.72C213.571 117.286 212.812 116.853 212.414 116.419C212.021 115.985 211.825 115.423 211.825 114.731C211.825 113.899 212.159 113.255 212.827 112.798C213.501 112.335 214.415 112.104 215.569 112.104C216.712 112.104 217.793 112.335 218.812 112.798L218.145 114.354C217.096 113.92 216.214 113.703 215.499 113.703C214.409 113.703 213.864 114.014 213.864 114.635C213.864 114.939 214.005 115.197 214.286 115.408C214.573 115.619 215.194 115.909 216.149 116.278C216.952 116.589 217.535 116.873 217.898 117.131C218.262 117.389 218.531 117.688 218.707 118.027C218.883 118.361 218.971 118.763 218.971 119.231ZM225.457 122.176C223.945 122.176 222.762 121.736 221.906 120.857C221.057 119.973 220.632 118.757 220.632 117.21C220.632 115.622 221.027 114.374 221.818 113.466C222.609 112.558 223.696 112.104 225.079 112.104C226.362 112.104 227.376 112.493 228.12 113.272C228.864 114.052 229.236 115.124 229.236 116.489V117.605H222.759C222.788 118.549 223.043 119.275 223.523 119.785C224.004 120.289 224.681 120.541 225.554 120.541C226.128 120.541 226.661 120.488 227.153 120.383C227.651 120.271 228.185 120.09 228.753 119.838V121.517C228.249 121.757 227.739 121.927 227.224 122.026C226.708 122.126 226.119 122.176 225.457 122.176ZM225.079 113.668C224.423 113.668 223.896 113.876 223.497 114.292C223.104 114.708 222.87 115.314 222.794 116.111H227.206C227.194 115.309 227.001 114.702 226.626 114.292C226.251 113.876 225.735 113.668 225.079 113.668ZM236.514 112.104C236.93 112.104 237.272 112.133 237.542 112.191L237.34 114.116C237.047 114.046 236.742 114.011 236.426 114.011C235.6 114.011 234.929 114.28 234.413 114.819C233.903 115.358 233.648 116.059 233.648 116.92V122H231.583V112.279H233.2L233.473 113.993H233.578C233.9 113.413 234.319 112.953 234.835 112.613C235.356 112.273 235.916 112.104 236.514 112.104ZM241.567 122L237.876 112.279H240.056L242.033 117.931C242.373 118.88 242.578 119.647 242.648 120.233H242.719C242.771 119.812 242.977 119.044 243.334 117.931L245.312 112.279H247.509L243.8 122H241.567ZM255.067 122L254.654 120.646H254.584C254.115 121.238 253.644 121.643 253.169 121.859C252.694 122.07 252.085 122.176 251.341 122.176C250.386 122.176 249.639 121.918 249.1 121.402C248.566 120.887 248.3 120.157 248.3 119.214C248.3 118.212 248.672 117.456 249.416 116.946C250.16 116.437 251.294 116.158 252.817 116.111L254.496 116.059V115.54C254.496 114.919 254.35 114.456 254.057 114.151C253.77 113.841 253.321 113.686 252.712 113.686C252.214 113.686 251.736 113.759 251.279 113.905C250.822 114.052 250.383 114.225 249.961 114.424L249.293 112.947C249.82 112.672 250.397 112.464 251.024 112.323C251.651 112.177 252.243 112.104 252.8 112.104C254.036 112.104 254.968 112.373 255.595 112.912C256.228 113.451 256.544 114.298 256.544 115.452V122H255.067ZM251.991 120.594C252.741 120.594 253.342 120.386 253.793 119.97C254.25 119.548 254.479 118.959 254.479 118.203V117.359L253.23 117.412C252.258 117.447 251.549 117.611 251.104 117.904C250.664 118.191 250.444 118.634 250.444 119.231C250.444 119.665 250.573 120.002 250.831 120.242C251.089 120.477 251.476 120.594 251.991 120.594ZM263.048 120.506C263.552 120.506 264.056 120.427 264.56 120.269V121.824C264.331 121.924 264.035 122.006 263.672 122.07C263.314 122.141 262.942 122.176 262.556 122.176C260.599 122.176 259.62 121.145 259.62 119.082V113.844H258.293V112.93L259.717 112.174L260.42 110.117H261.694V112.279H264.463V113.844H261.694V119.047C261.694 119.545 261.817 119.914 262.063 120.154C262.315 120.389 262.644 120.506 263.048 120.506ZM268.576 122H266.511V112.279H268.576V122ZM266.388 109.704C266.388 109.335 266.487 109.051 266.687 108.852C266.892 108.652 267.182 108.553 267.557 108.553C267.92 108.553 268.201 108.652 268.4 108.852C268.605 109.051 268.708 109.335 268.708 109.704C268.708 110.056 268.605 110.334 268.4 110.539C268.201 110.738 267.92 110.838 267.557 110.838C267.182 110.838 266.892 110.738 266.687 110.539C266.487 110.334 266.388 110.056 266.388 109.704ZM280.16 117.122C280.16 118.71 279.753 119.949 278.938 120.84C278.124 121.73 276.99 122.176 275.537 122.176C274.629 122.176 273.826 121.971 273.129 121.561C272.432 121.15 271.896 120.562 271.521 119.794C271.146 119.026 270.958 118.136 270.958 117.122C270.958 115.546 271.362 114.315 272.171 113.431C272.979 112.546 274.119 112.104 275.59 112.104C276.996 112.104 278.109 112.558 278.93 113.466C279.75 114.368 280.16 115.587 280.16 117.122ZM273.085 117.122C273.085 119.366 273.914 120.488 275.572 120.488C277.213 120.488 278.033 119.366 278.033 117.122C278.033 114.901 277.207 113.791 275.555 113.791C274.688 113.791 274.058 114.078 273.665 114.652C273.278 115.227 273.085 116.05 273.085 117.122ZM291.094 122H289.02V116.023C289.02 115.273 288.867 114.714 288.562 114.345C288.264 113.976 287.786 113.791 287.13 113.791C286.257 113.791 285.618 114.049 285.214 114.564C284.81 115.08 284.607 115.944 284.607 117.157V122H282.542V112.279H284.159L284.449 113.554H284.555C284.848 113.091 285.264 112.733 285.803 112.481C286.342 112.229 286.939 112.104 287.596 112.104C289.928 112.104 291.094 113.29 291.094 115.663V122ZM306.272 118.511C306.272 119.653 305.859 120.55 305.033 121.2C304.207 121.851 303.067 122.176 301.614 122.176C300.161 122.176 298.972 121.95 298.046 121.499V119.513C298.632 119.788 299.253 120.005 299.909 120.163C300.571 120.321 301.187 120.4 301.755 120.4C302.587 120.4 303.199 120.242 303.592 119.926C303.99 119.609 304.189 119.185 304.189 118.651C304.189 118.171 304.008 117.764 303.645 117.43C303.281 117.096 302.531 116.7 301.395 116.243C300.223 115.769 299.396 115.227 298.916 114.617C298.436 114.008 298.195 113.275 298.195 112.42C298.195 111.348 298.576 110.504 299.338 109.889C300.1 109.273 301.122 108.966 302.405 108.966C303.636 108.966 304.86 109.235 306.079 109.774L305.411 111.488C304.269 111.008 303.249 110.768 302.353 110.768C301.673 110.768 301.157 110.917 300.806 111.216C300.454 111.509 300.278 111.898 300.278 112.385C300.278 112.719 300.349 113.006 300.489 113.246C300.63 113.48 300.861 113.703 301.184 113.914C301.506 114.125 302.086 114.403 302.924 114.749C303.867 115.142 304.559 115.508 304.998 115.848C305.438 116.188 305.76 116.571 305.965 116.999C306.17 117.427 306.272 117.931 306.272 118.511ZM307.063 112.279H309.313L311.291 117.79C311.59 118.575 311.789 119.313 311.889 120.005H311.959C312.012 119.683 312.108 119.293 312.249 118.836C312.39 118.373 313.134 116.188 314.481 112.279H316.714L312.557 123.292C311.801 125.313 310.541 126.324 308.777 126.324C308.32 126.324 307.875 126.274 307.441 126.175V124.54C307.752 124.61 308.106 124.646 308.505 124.646C309.501 124.646 310.201 124.068 310.605 122.914L310.966 122L307.063 112.279ZM324.721 119.231C324.721 120.181 324.375 120.91 323.684 121.42C322.992 121.924 322.002 122.176 320.713 122.176C319.418 122.176 318.378 121.979 317.593 121.587V119.803C318.735 120.33 319.799 120.594 320.783 120.594C322.055 120.594 322.69 120.21 322.69 119.442C322.69 119.196 322.62 118.991 322.479 118.827C322.339 118.663 322.107 118.493 321.785 118.317C321.463 118.142 321.015 117.942 320.44 117.72C319.321 117.286 318.562 116.853 318.164 116.419C317.771 115.985 317.575 115.423 317.575 114.731C317.575 113.899 317.909 113.255 318.577 112.798C319.251 112.335 320.165 112.104 321.319 112.104C322.462 112.104 323.543 112.335 324.562 112.798L323.895 114.354C322.846 113.92 321.964 113.703 321.249 113.703C320.159 113.703 319.614 114.014 319.614 114.635C319.614 114.939 319.755 115.197 320.036 115.408C320.323 115.619 320.944 115.909 321.899 116.278C322.702 116.589 323.285 116.873 323.648 117.131C324.012 117.389 324.281 117.688 324.457 118.027C324.633 118.361 324.721 118.763 324.721 119.231ZM330.583 120.506C331.087 120.506 331.591 120.427 332.095 120.269V121.824C331.866 121.924 331.57 122.006 331.207 122.07C330.85 122.141 330.478 122.176 330.091 122.176C328.134 122.176 327.155 121.145 327.155 119.082V113.844H325.828V112.93L327.252 112.174L327.955 110.117H329.229V112.279H331.998V113.844H329.229V119.047C329.229 119.545 329.353 119.914 329.599 120.154C329.851 120.389 330.179 120.506 330.583 120.506ZM338.291 122.176C336.779 122.176 335.596 121.736 334.74 120.857C333.891 119.973 333.466 118.757 333.466 117.21C333.466 115.622 333.861 114.374 334.652 113.466C335.443 112.558 336.53 112.104 337.913 112.104C339.196 112.104 340.21 112.493 340.954 113.272C341.698 114.052 342.07 115.124 342.07 116.489V117.605H335.593C335.622 118.549 335.877 119.275 336.357 119.785C336.838 120.289 337.515 120.541 338.388 120.541C338.962 120.541 339.495 120.488 339.987 120.383C340.485 120.271 341.019 120.09 341.587 119.838V121.517C341.083 121.757 340.573 121.927 340.058 122.026C339.542 122.126 338.953 122.176 338.291 122.176ZM337.913 113.668C337.257 113.668 336.729 113.876 336.331 114.292C335.938 114.708 335.704 115.314 335.628 116.111H340.04C340.028 115.309 339.835 114.702 339.46 114.292C339.085 113.876 338.569 113.668 337.913 113.668ZM352.608 122H350.534V116.006C350.534 115.262 350.394 114.708 350.112 114.345C349.831 113.976 349.392 113.791 348.794 113.791C347.997 113.791 347.411 114.052 347.036 114.573C346.667 115.089 346.482 115.95 346.482 117.157V122H344.417V112.279H346.034L346.324 113.554H346.43C346.699 113.091 347.089 112.733 347.599 112.481C348.114 112.229 348.68 112.104 349.295 112.104C350.789 112.104 351.779 112.613 352.266 113.633H352.406C352.693 113.152 353.098 112.777 353.619 112.508C354.141 112.238 354.738 112.104 355.412 112.104C356.572 112.104 357.416 112.396 357.943 112.982C358.477 113.568 358.743 114.462 358.743 115.663V122H356.678V116.006C356.678 115.262 356.534 114.708 356.247 114.345C355.966 113.976 355.526 113.791 354.929 113.791C354.126 113.791 353.537 114.043 353.162 114.547C352.793 115.045 352.608 115.812 352.608 116.85V122ZM368.156 119.231C368.156 120.181 367.811 120.91 367.119 121.42C366.428 121.924 365.438 122.176 364.148 122.176C362.854 122.176 361.813 121.979 361.028 121.587V119.803C362.171 120.33 363.234 120.594 364.219 120.594C365.49 120.594 366.126 120.21 366.126 119.442C366.126 119.196 366.056 118.991 365.915 118.827C365.774 118.663 365.543 118.493 365.221 118.317C364.898 118.142 364.45 117.942 363.876 117.72C362.757 117.286 361.998 116.853 361.6 116.419C361.207 115.985 361.011 115.423 361.011 114.731C361.011 113.899 361.345 113.255 362.013 112.798C362.687 112.335 363.601 112.104 364.755 112.104C365.897 112.104 366.979 112.335 367.998 112.798L367.33 114.354C366.281 113.92 365.399 113.703 364.685 113.703C363.595 113.703 363.05 114.014 363.05 114.635C363.05 114.939 363.19 115.197 363.472 115.408C363.759 115.619 364.38 115.909 365.335 116.278C366.138 116.589 366.721 116.873 367.084 117.131C367.447 117.389 367.717 117.688 367.893 118.027C368.068 118.361 368.156 118.763 368.156 119.231Z" fill="#A650FF"/>
<path d="M476 45H473C471.409 45 469.883 44.3679 468.757 43.2426C467.632 42.1174 467 40.5913 467 39V9C467 7.4087 467.632 5.88258 468.757 4.75736C469.883 3.63214 471.409 3 473 3H521C522.591 3 524.117 3.63214 525.243 4.75736C526.368 5.88258 527 7.4087 527 9V39C527 40.5913 526.368 42.1174 525.243 43.2426C524.117 44.3679 522.591 45 521 45H518" stroke="#A650FF" stroke-width="5" stroke-linecap="round" stroke-linejoin="round"/>
<path d="M497 42L515 57H479L497 42Z" stroke="#A650FF" stroke-width="5" stroke-linecap="round" stroke-linejoin="round"/>
<path d="M476.749 90.0303H481.478V96.4814C480.704 96.7334 479.96 96.9121 479.245 97.0176C478.536 97.123 477.769 97.1758 476.942 97.1758C474.997 97.1758 473.497 96.6016 472.442 95.4531C471.388 94.2988 470.86 92.6729 470.86 90.5752C470.86 88.5068 471.455 86.8896 472.645 85.7236C473.834 84.5518 475.472 83.9658 477.558 83.9658C478.899 83.9658 480.171 84.2236 481.372 84.7393L480.634 86.4883C479.591 86.0078 478.548 85.7676 477.505 85.7676C476.134 85.7676 475.05 86.1982 474.253 87.0596C473.456 87.9209 473.058 89.0986 473.058 90.5928C473.058 92.1631 473.415 93.3584 474.13 94.1787C474.851 94.9932 475.885 95.4004 477.232 95.4004C477.912 95.4004 478.639 95.3154 479.412 95.1455V91.832H476.749V90.0303ZM491.207 97L490.917 95.7256H490.812C490.524 96.1768 490.114 96.5312 489.581 96.7891C489.054 97.0469 488.45 97.1758 487.771 97.1758C486.593 97.1758 485.714 96.8828 485.134 96.2969C484.554 95.7109 484.264 94.8232 484.264 93.6338V87.2793H486.347V93.2734C486.347 94.0176 486.499 94.5771 486.804 94.9521C487.108 95.3213 487.586 95.5059 488.236 95.5059C489.104 95.5059 489.739 95.248 490.144 94.7324C490.554 94.2109 490.759 93.3408 490.759 92.1221V87.2793H492.833V97H491.207ZM500.022 97.1758C498.511 97.1758 497.327 96.7363 496.472 95.8574C495.622 94.9727 495.197 93.7568 495.197 92.21C495.197 90.6221 495.593 89.374 496.384 88.4658C497.175 87.5576 498.262 87.1035 499.645 87.1035C500.928 87.1035 501.941 87.4932 502.686 88.2725C503.43 89.0518 503.802 90.124 503.802 91.4893V92.6055H497.324C497.354 93.5488 497.608 94.2754 498.089 94.7852C498.569 95.2891 499.246 95.541 500.119 95.541C500.693 95.541 501.227 95.4883 501.719 95.3828C502.217 95.2715 502.75 95.0898 503.318 94.8379V96.5166C502.814 96.7568 502.305 96.9268 501.789 97.0264C501.273 97.126 500.685 97.1758 500.022 97.1758ZM499.645 88.668C498.988 88.668 498.461 88.876 498.062 89.292C497.67 89.708 497.436 90.3145 497.359 91.1113H501.771C501.76 90.3086 501.566 89.7021 501.191 89.292C500.816 88.876 500.301 88.668 499.645 88.668ZM512.679 94.2314C512.679 95.1807 512.333 95.9102 511.642 96.4199C510.95 96.9238 509.96 97.1758 508.671 97.1758C507.376 97.1758 506.336 96.9795 505.551 96.5869V94.8027C506.693 95.3301 507.757 95.5938 508.741 95.5938C510.013 95.5938 510.648 95.21 510.648 94.4424C510.648 94.1963 510.578 93.9912 510.438 93.8271C510.297 93.6631 510.065 93.4932 509.743 93.3174C509.421 93.1416 508.973 92.9424 508.398 92.7197C507.279 92.2861 506.521 91.8525 506.122 91.4189C505.729 90.9854 505.533 90.4229 505.533 89.7314C505.533 88.8994 505.867 88.2549 506.535 87.7979C507.209 87.335 508.123 87.1035 509.277 87.1035C510.42 87.1035 511.501 87.335 512.521 87.7979L511.853 89.3535C510.804 88.9199 509.922 88.7031 509.207 88.7031C508.117 88.7031 507.572 89.0137 507.572 89.6348C507.572 89.9395 507.713 90.1973 507.994 90.4082C508.281 90.6191 508.902 90.9092 509.857 91.2783C510.66 91.5889 511.243 91.873 511.606 92.1309C511.97 92.3887 512.239 92.6875 512.415 93.0273C512.591 93.3613 512.679 93.7627 512.679 94.2314ZM518.541 95.5059C519.045 95.5059 519.549 95.4268 520.053 95.2686V96.8242C519.824 96.9238 519.528 97.0059 519.165 97.0703C518.808 97.1406 518.436 97.1758 518.049 97.1758C516.092 97.1758 515.113 96.1445 515.113 94.082V88.8438H513.786V87.9297L515.21 87.1738L515.913 85.1172H517.188V87.2793H519.956V88.8438H517.188V94.0469C517.188 94.5449 517.311 94.9141 517.557 95.1543C517.809 95.3887 518.137 95.5059 518.541 95.5059ZM447.798 119H445.513L443.333 111.336C443.239 111.002 443.122 110.521 442.981 109.895C442.841 109.262 442.756 108.822 442.727 108.576C442.668 108.951 442.571 109.438 442.437 110.035C442.308 110.633 442.199 111.078 442.111 111.371L439.984 119H437.699L436.038 112.566L434.351 106.15H436.495L438.332 113.639C438.619 114.84 438.824 115.9 438.947 116.82C439.012 116.322 439.108 115.766 439.237 115.15C439.366 114.535 439.483 114.037 439.589 113.656L441.681 106.15H443.764L445.908 113.691C446.113 114.389 446.33 115.432 446.559 116.82C446.646 115.982 446.857 114.916 447.191 113.621L449.02 106.15H451.146L447.798 119ZM457 119.176C455.488 119.176 454.305 118.736 453.449 117.857C452.6 116.973 452.175 115.757 452.175 114.21C452.175 112.622 452.57 111.374 453.361 110.466C454.152 109.558 455.239 109.104 456.622 109.104C457.905 109.104 458.919 109.493 459.663 110.272C460.407 111.052 460.779 112.124 460.779 113.489V114.605H454.302C454.331 115.549 454.586 116.275 455.066 116.785C455.547 117.289 456.224 117.541 457.097 117.541C457.671 117.541 458.204 117.488 458.696 117.383C459.194 117.271 459.728 117.09 460.296 116.838V118.517C459.792 118.757 459.282 118.927 458.767 119.026C458.251 119.126 457.662 119.176 457 119.176ZM456.622 110.668C455.966 110.668 455.438 110.876 455.04 111.292C454.647 111.708 454.413 112.314 454.337 113.111H458.749C458.737 112.309 458.544 111.702 458.169 111.292C457.794 110.876 457.278 110.668 456.622 110.668ZM465.191 119H463.126V105.324H465.191V119ZM472.073 119.176C470.603 119.176 469.483 118.748 468.716 117.893C467.954 117.031 467.573 115.798 467.573 114.192C467.573 112.558 467.972 111.301 468.769 110.422C469.571 109.543 470.729 109.104 472.24 109.104C473.266 109.104 474.188 109.294 475.009 109.675L474.385 111.336C473.512 110.996 472.791 110.826 472.223 110.826C470.541 110.826 469.7 111.942 469.7 114.175C469.7 115.265 469.908 116.085 470.324 116.636C470.746 117.181 471.361 117.453 472.17 117.453C473.09 117.453 473.96 117.225 474.78 116.768V118.569C474.411 118.786 474.016 118.941 473.594 119.035C473.178 119.129 472.671 119.176 472.073 119.176ZM485.688 114.122C485.688 115.71 485.28 116.949 484.466 117.84C483.651 118.73 482.518 119.176 481.064 119.176C480.156 119.176 479.354 118.971 478.656 118.561C477.959 118.15 477.423 117.562 477.048 116.794C476.673 116.026 476.485 115.136 476.485 114.122C476.485 112.546 476.89 111.315 477.698 110.431C478.507 109.546 479.646 109.104 481.117 109.104C482.523 109.104 483.637 109.558 484.457 110.466C485.277 111.368 485.688 112.587 485.688 114.122ZM478.612 114.122C478.612 116.366 479.441 117.488 481.1 117.488C482.74 117.488 483.561 116.366 483.561 114.122C483.561 111.901 482.734 110.791 481.082 110.791C480.215 110.791 479.585 111.078 479.192 111.652C478.806 112.227 478.612 113.05 478.612 114.122ZM496.261 119H494.187V113.006C494.187 112.262 494.046 111.708 493.765 111.345C493.483 110.976 493.044 110.791 492.446 110.791C491.649 110.791 491.063 111.052 490.688 111.573C490.319 112.089 490.135 112.95 490.135 114.157V119H488.069V109.279H489.687L489.977 110.554H490.082C490.352 110.091 490.741 109.733 491.251 109.481C491.767 109.229 492.332 109.104 492.947 109.104C494.441 109.104 495.432 109.613 495.918 110.633H496.059C496.346 110.152 496.75 109.777 497.271 109.508C497.793 109.238 498.391 109.104 499.064 109.104C500.225 109.104 501.068 109.396 501.596 109.982C502.129 110.568 502.396 111.462 502.396 112.663V119H500.33V113.006C500.33 112.262 500.187 111.708 499.899 111.345C499.618 110.976 499.179 110.791 498.581 110.791C497.778 110.791 497.189 111.043 496.814 111.547C496.445 112.045 496.261 112.812 496.261 113.85V119ZM509.523 119.176C508.012 119.176 506.828 118.736 505.973 117.857C505.123 116.973 504.698 115.757 504.698 114.21C504.698 112.622 505.094 111.374 505.885 110.466C506.676 109.558 507.763 109.104 509.146 109.104C510.429 109.104 511.442 109.493 512.187 110.272C512.931 111.052 513.303 112.124 513.303 113.489V114.605H506.825C506.854 115.549 507.109 116.275 507.59 116.785C508.07 117.289 508.747 117.541 509.62 117.541C510.194 117.541 510.728 117.488 511.22 117.383C511.718 117.271 512.251 117.09 512.819 116.838V118.517C512.315 118.757 511.806 118.927 511.29 119.026C510.774 119.126 510.186 119.176 509.523 119.176ZM509.146 110.668C508.489 110.668 507.962 110.876 507.563 111.292C507.171 111.708 506.937 112.314 506.86 113.111H511.272C511.261 112.309 511.067 111.702 510.692 111.292C510.317 110.876 509.802 110.668 509.146 110.668ZM529.053 110.035C529.053 111.377 528.613 112.405 527.734 113.12C526.855 113.835 525.604 114.192 523.981 114.192H522.646V119H520.545V106.15H524.245C525.851 106.15 527.052 106.479 527.849 107.135C528.651 107.791 529.053 108.758 529.053 110.035ZM522.646 112.426H523.762C524.84 112.426 525.631 112.238 526.135 111.863C526.639 111.488 526.891 110.902 526.891 110.105C526.891 109.367 526.665 108.816 526.214 108.453C525.763 108.09 525.06 107.908 524.104 107.908H522.646V112.426ZM537.481 119L537.068 117.646H536.998C536.529 118.238 536.058 118.643 535.583 118.859C535.108 119.07 534.499 119.176 533.755 119.176C532.8 119.176 532.053 118.918 531.514 118.402C530.98 117.887 530.714 117.157 530.714 116.214C530.714 115.212 531.086 114.456 531.83 113.946C532.574 113.437 533.708 113.158 535.231 113.111L536.91 113.059V112.54C536.91 111.919 536.764 111.456 536.471 111.151C536.184 110.841 535.735 110.686 535.126 110.686C534.628 110.686 534.15 110.759 533.693 110.905C533.236 111.052 532.797 111.225 532.375 111.424L531.707 109.947C532.234 109.672 532.812 109.464 533.438 109.323C534.065 109.177 534.657 109.104 535.214 109.104C536.45 109.104 537.382 109.373 538.009 109.912C538.642 110.451 538.958 111.298 538.958 112.452V119H537.481ZM534.405 117.594C535.155 117.594 535.756 117.386 536.207 116.97C536.664 116.548 536.893 115.959 536.893 115.203V114.359L535.645 114.412C534.672 114.447 533.963 114.611 533.518 114.904C533.078 115.191 532.858 115.634 532.858 116.231C532.858 116.665 532.987 117.002 533.245 117.242C533.503 117.477 533.89 117.594 534.405 117.594ZM550.05 109.279V110.413L548.389 110.721C548.541 110.926 548.667 111.178 548.767 111.477C548.866 111.775 548.916 112.092 548.916 112.426C548.916 113.428 548.57 114.216 547.879 114.79C547.188 115.364 546.235 115.651 545.022 115.651C544.712 115.651 544.431 115.628 544.179 115.581C543.733 115.856 543.511 116.179 543.511 116.548C543.511 116.771 543.613 116.938 543.818 117.049C544.029 117.16 544.413 117.216 544.97 117.216H546.666C547.738 117.216 548.553 117.444 549.109 117.901C549.666 118.358 549.944 119.018 549.944 119.879C549.944 120.98 549.49 121.83 548.582 122.428C547.674 123.025 546.361 123.324 544.645 123.324C543.32 123.324 542.31 123.09 541.612 122.621C540.915 122.152 540.566 121.484 540.566 120.617C540.566 120.02 540.754 119.516 541.129 119.105C541.51 118.701 542.04 118.42 542.72 118.262C542.444 118.145 542.216 117.957 542.034 117.699C541.858 117.436 541.771 117.16 541.771 116.873C541.771 116.51 541.873 116.202 542.078 115.95C542.283 115.698 542.588 115.449 542.992 115.203C542.488 114.986 542.078 114.635 541.762 114.148C541.451 113.656 541.296 113.082 541.296 112.426C541.296 111.371 541.627 110.554 542.289 109.974C542.957 109.394 543.906 109.104 545.137 109.104C545.412 109.104 545.699 109.124 545.998 109.165C546.303 109.2 546.531 109.238 546.684 109.279H550.05ZM542.412 120.512C542.412 120.957 542.611 121.3 543.01 121.54C543.414 121.78 543.979 121.9 544.706 121.9C545.831 121.9 546.669 121.739 547.22 121.417C547.771 121.095 548.046 120.667 548.046 120.134C548.046 119.712 547.894 119.41 547.589 119.229C547.29 119.053 546.73 118.965 545.91 118.965H544.346C543.754 118.965 543.282 119.103 542.931 119.378C542.585 119.659 542.412 120.037 542.412 120.512ZM543.3 112.426C543.3 113.035 543.455 113.504 543.766 113.832C544.082 114.16 544.533 114.324 545.119 114.324C546.314 114.324 546.912 113.686 546.912 112.408C546.912 111.775 546.763 111.289 546.464 110.949C546.171 110.604 545.723 110.431 545.119 110.431C544.521 110.431 544.067 110.601 543.757 110.94C543.452 111.28 543.3 111.775 543.3 112.426ZM556.105 119.176C554.594 119.176 553.41 118.736 552.555 117.857C551.705 116.973 551.28 115.757 551.28 114.21C551.28 112.622 551.676 111.374 552.467 110.466C553.258 109.558 554.345 109.104 555.728 109.104C557.011 109.104 558.024 109.493 558.769 110.272C559.513 111.052 559.885 112.124 559.885 113.489V114.605H553.407C553.437 115.549 553.691 116.275 554.172 116.785C554.652 117.289 555.329 117.541 556.202 117.541C556.776 117.541 557.31 117.488 557.802 117.383C558.3 117.271 558.833 117.09 559.401 116.838V118.517C558.897 118.757 558.388 118.927 557.872 119.026C557.356 119.126 556.768 119.176 556.105 119.176ZM555.728 110.668C555.071 110.668 554.544 110.876 554.146 111.292C553.753 111.708 553.519 112.314 553.442 113.111H557.854C557.843 112.309 557.649 111.702 557.274 111.292C556.899 110.876 556.384 110.668 555.728 110.668Z" fill="#A650FF"/>
</svg>
