<svg width="345" height="80" viewBox="0 0 345 80" fill="none" xmlns="http://www.w3.org/2000/svg">
<path d="M38.0712 10.7803C35.8526 10.7803 33.7249 11.6617 32.1561 13.2305C30.5873 14.7992 29.706 16.927 29.706 19.1456V31.0959C29.706 33.3145 30.5873 35.4423 32.1561 37.0111C33.7249 38.5798 35.8526 39.4612 38.0712 39.4612H50.0216C52.2402 39.4612 54.3679 38.5798 55.9367 37.0111C57.5055 35.4423 58.3868 33.3145 58.3868 31.0959V25.1208C58.3868 24.8038 58.5127 24.4998 58.7369 24.2757C58.961 24.0516 59.2649 23.9257 59.5819 23.9257C59.8988 23.9257 60.2028 24.0516 60.4269 24.2757C60.651 24.4998 60.7769 24.8038 60.7769 25.1208V31.0959C60.7769 33.9484 59.6438 36.6841 57.6267 38.7011C55.6097 40.7181 52.8741 41.8512 50.0216 41.8512H38.0712C35.2187 41.8512 32.4831 40.7181 30.4661 38.7011C28.4491 36.6841 27.3159 33.9484 27.3159 31.0959V19.1456C27.3159 16.2931 28.4491 13.5574 30.4661 11.5404C32.4831 9.5234 35.2187 8.39026 38.0712 8.39026H44.0464C44.3634 8.39026 44.6673 8.51616 44.8914 8.74028C45.1155 8.96439 45.2414 9.26835 45.2414 9.58529C45.2414 9.90224 45.1155 10.2062 44.8914 10.4303C44.6673 10.6544 44.3634 10.7803 44.0464 10.7803H38.0712Z" fill="#A650FF"/>
<path d="M63.1671 13.1702C63.1671 15.0719 62.4117 16.8956 61.067 18.2403C59.7223 19.585 57.8985 20.3404 55.9969 20.3404C54.0952 20.3404 52.2714 19.585 50.9268 18.2403C49.5821 16.8956 48.8267 15.0719 48.8267 13.1702C48.8267 11.2686 49.5821 9.44478 50.9268 8.10011C52.2714 6.75543 54.0952 6 55.9969 6C57.8985 6 59.7223 6.75543 61.067 8.10011C62.4117 9.44478 63.1671 11.2686 63.1671 13.1702Z" fill="#A650FF"/>
<path d="M26.5063 57.1357C25.7687 57.1357 25.1886 57.3971 24.7661 57.9199C24.3436 58.4427 24.1323 59.1642 24.1323 60.0845C24.1323 61.0477 24.3346 61.7764 24.7393 62.2705C25.1475 62.7646 25.7365 63.0117 26.5063 63.0117C26.8394 63.0117 27.1616 62.9795 27.4731 62.915C27.7847 62.847 28.1087 62.7611 28.4453 62.6572V63.7583C27.8294 63.991 27.1312 64.1074 26.3506 64.1074C25.2012 64.1074 24.3185 63.7601 23.7026 63.0654C23.0868 62.3672 22.7788 61.37 22.7788 60.0737C22.7788 59.2573 22.9274 58.543 23.2246 57.9307C23.5254 57.3184 23.9587 56.8493 24.5244 56.5234C25.0902 56.1976 25.7544 56.0347 26.5171 56.0347C27.3192 56.0347 28.0604 56.203 28.7407 56.5396L28.2788 57.6084C28.0138 57.4831 27.7327 57.3739 27.4355 57.2808C27.1419 57.1841 26.8322 57.1357 26.5063 57.1357ZM34.1924 64L34.0151 63.2212H33.9507C33.7752 63.4969 33.5246 63.7135 33.1987 63.8711C32.8765 64.0286 32.5076 64.1074 32.0923 64.1074C31.3726 64.1074 30.8354 63.9284 30.481 63.5703C30.1265 63.2122 29.9492 62.6698 29.9492 61.9429V58.0596H31.2222V61.7227C31.2222 62.1774 31.3153 62.5194 31.5015 62.7485C31.6877 62.9741 31.9795 63.0869 32.377 63.0869C32.9069 63.0869 33.2954 62.9294 33.5425 62.6143C33.7931 62.2956 33.9185 61.7638 33.9185 61.019V58.0596H35.186V64H34.1924ZM40.9761 62.3081C40.9761 62.8882 40.7648 63.334 40.3423 63.6455C39.9198 63.9535 39.3146 64.1074 38.5269 64.1074C37.7355 64.1074 37.0999 63.9875 36.6201 63.7476V62.6572C37.3184 62.9795 37.9683 63.1406 38.5698 63.1406C39.3468 63.1406 39.7354 62.9061 39.7354 62.437C39.7354 62.2866 39.6924 62.1613 39.6064 62.061C39.5205 61.9608 39.3791 61.8569 39.1821 61.7495C38.9852 61.6421 38.7113 61.5203 38.3604 61.3843C37.6764 61.1193 37.2127 60.8543 36.9692 60.5894C36.7293 60.3244 36.6094 59.9806 36.6094 59.5581C36.6094 59.0496 36.8135 58.6558 37.2217 58.3765C37.6335 58.0936 38.1921 57.9521 38.8975 57.9521C39.5957 57.9521 40.2563 58.0936 40.8794 58.3765L40.4712 59.3271C39.8302 59.0622 39.2913 58.9297 38.8545 58.9297C38.1885 58.9297 37.8555 59.1195 37.8555 59.499C37.8555 59.6852 37.9414 59.8428 38.1133 59.9717C38.2887 60.1006 38.6683 60.2778 39.252 60.5034C39.7425 60.6932 40.0988 60.8669 40.3208 61.0244C40.5428 61.182 40.7075 61.3646 40.8149 61.5723C40.9224 61.7764 40.9761 62.0216 40.9761 62.3081ZM44.5586 63.0869C44.8665 63.0869 45.1745 63.0386 45.4824 62.9419V63.8926C45.3428 63.9535 45.1619 64.0036 44.9399 64.043C44.7215 64.0859 44.4941 64.1074 44.2578 64.1074C43.0618 64.1074 42.4639 63.4772 42.4639 62.2168V59.0156H41.6528V58.457L42.5229 57.9951L42.9526 56.7383H43.7314V58.0596H45.4233V59.0156H43.7314V62.1953C43.7314 62.4997 43.8066 62.7253 43.957 62.8721C44.111 63.0153 44.3115 63.0869 44.5586 63.0869ZM51.9438 61.019C51.9438 61.9894 51.695 62.7467 51.1973 63.291C50.6995 63.8353 50.0067 64.1074 49.1187 64.1074C48.5636 64.1074 48.0731 63.9821 47.647 63.7314C47.2209 63.4808 46.8932 63.1209 46.6641 62.6519C46.4349 62.1828 46.3203 61.6385 46.3203 61.019C46.3203 60.0558 46.5674 59.3039 47.0615 58.7632C47.5557 58.2225 48.2521 57.9521 49.1509 57.9521C50.0103 57.9521 50.6906 58.2297 51.1919 58.7847C51.6932 59.3361 51.9438 60.0809 51.9438 61.019ZM47.6201 61.019C47.6201 62.3905 48.1268 63.0762 49.1401 63.0762C50.1427 63.0762 50.644 62.3905 50.644 61.019C50.644 59.6619 50.1392 58.9834 49.1294 58.9834C48.5994 58.9834 48.2145 59.1589 47.9746 59.5098C47.7383 59.8607 47.6201 60.3638 47.6201 61.019ZM58.4053 64H57.1377V60.3369C57.1377 59.8822 57.0518 59.5438 56.8799 59.3218C56.708 59.0962 56.4395 58.9834 56.0742 58.9834C55.5872 58.9834 55.2292 59.1427 55 59.4614C54.7744 59.7765 54.6616 60.3029 54.6616 61.0405V64H53.3994V58.0596H54.3877L54.5649 58.8384H54.6294C54.7941 58.5555 55.0322 58.3371 55.3438 58.1831C55.6589 58.0291 56.0044 57.9521 56.3804 57.9521C57.2935 57.9521 57.8986 58.2637 58.1958 58.8867H58.2817C58.4572 58.5931 58.7043 58.3639 59.0229 58.1992C59.3416 58.0345 59.7069 57.9521 60.1187 57.9521C60.8276 57.9521 61.3433 58.1312 61.6655 58.4893C61.9914 58.8473 62.1543 59.3934 62.1543 60.1274V64H60.8921V60.3369C60.8921 59.8822 60.8044 59.5438 60.6289 59.3218C60.457 59.0962 60.1885 58.9834 59.8232 58.9834C59.3327 58.9834 58.9728 59.1374 58.7437 59.4453C58.5181 59.7497 58.4053 60.2188 58.4053 60.8525V64ZM12.2139 77L11.4297 74.8193H8.42725L7.65918 77H6.30566L9.24365 69.1152H10.6401L13.5781 77H12.2139ZM11.0913 73.7129L10.3555 71.5752C10.3018 71.432 10.2266 71.2064 10.1299 70.8984C10.0368 70.5905 9.97233 70.3649 9.93652 70.2217C9.83984 70.6621 9.6984 71.1437 9.51221 71.6665L8.80322 73.7129H11.0913ZM17.4937 77.1074C16.7417 77.1074 16.158 76.8371 15.7427 76.2964H15.6675C15.7176 76.7977 15.7427 77.1021 15.7427 77.2095V79.6426H14.4805V71.0596H15.501C15.5296 71.1706 15.5887 71.4355 15.6782 71.8545H15.7427C16.1366 71.2529 16.7274 70.9521 17.5151 70.9521C18.2563 70.9521 18.8328 71.2207 19.2446 71.7578C19.66 72.2949 19.8677 73.0487 19.8677 74.019C19.8677 74.9894 19.6564 75.7467 19.2339 76.291C18.8149 76.8353 18.2349 77.1074 17.4937 77.1074ZM17.1875 71.9834C16.6862 71.9834 16.3192 72.1302 16.0864 72.4238C15.8573 72.7174 15.7427 73.1865 15.7427 73.8311V74.019C15.7427 74.7424 15.8573 75.2669 16.0864 75.5928C16.3156 75.915 16.6898 76.0762 17.209 76.0762C17.6458 76.0762 17.9824 75.8971 18.2188 75.5391C18.4551 75.181 18.5732 74.6707 18.5732 74.0083C18.5732 73.3423 18.4551 72.8392 18.2188 72.499C17.986 72.1553 17.6423 71.9834 17.1875 71.9834ZM24.3472 77.1074C23.5952 77.1074 23.0116 76.8371 22.5962 76.2964H22.521C22.5711 76.7977 22.5962 77.1021 22.5962 77.2095V79.6426H21.334V71.0596H22.3545C22.3831 71.1706 22.4422 71.4355 22.5317 71.8545H22.5962C22.9901 71.2529 23.5809 70.9521 24.3687 70.9521C25.1099 70.9521 25.6864 71.2207 26.0981 71.7578C26.5135 72.2949 26.7212 73.0487 26.7212 74.019C26.7212 74.9894 26.5099 75.7467 26.0874 76.291C25.6685 76.8353 25.0884 77.1074 24.3472 77.1074ZM24.041 71.9834C23.5397 71.9834 23.1727 72.1302 22.9399 72.4238C22.7108 72.7174 22.5962 73.1865 22.5962 73.8311V74.019C22.5962 74.7424 22.7108 75.2669 22.9399 75.5928C23.1691 75.915 23.5433 76.0762 24.0625 76.0762C24.4993 76.0762 24.8359 75.8971 25.0723 75.5391C25.3086 75.181 25.4268 74.6707 25.4268 74.0083C25.4268 73.3423 25.3086 72.8392 25.0723 72.499C24.8395 72.1553 24.4958 71.9834 24.041 71.9834ZM32.1782 75.3081C32.1782 75.8882 31.967 76.334 31.5444 76.6455C31.1219 76.9535 30.5168 77.1074 29.729 77.1074C28.9377 77.1074 28.3021 76.9875 27.8223 76.7476V75.6572C28.5205 75.9795 29.1704 76.1406 29.772 76.1406C30.549 76.1406 30.9375 75.9061 30.9375 75.437C30.9375 75.2866 30.8945 75.1613 30.8086 75.061C30.7227 74.9608 30.5812 74.8569 30.3843 74.7495C30.1873 74.6421 29.9134 74.5203 29.5625 74.3843C28.8786 74.1193 28.4149 73.8543 28.1714 73.5894C27.9315 73.3244 27.8115 72.9806 27.8115 72.5581C27.8115 72.0496 28.0156 71.6558 28.4238 71.3765C28.8356 71.0936 29.3942 70.9521 30.0996 70.9521C30.7979 70.9521 31.4585 71.0936 32.0815 71.3765L31.6733 72.3271C31.0324 72.0622 30.4935 71.9297 30.0566 71.9297C29.3906 71.9297 29.0576 72.1195 29.0576 72.499C29.0576 72.6852 29.1436 72.8428 29.3154 72.9717C29.4909 73.1006 29.8704 73.2778 30.4541 73.5034C30.9447 73.6932 31.3009 73.8669 31.5229 74.0244C31.745 74.182 31.9097 74.3646 32.0171 74.5723C32.1245 74.7764 32.1782 75.0216 32.1782 75.3081ZM37.9253 70.8394C37.9253 71.0649 37.9844 71.278 38.1025 71.4785C38.2243 71.679 38.3926 71.8921 38.6074 72.1177C39.012 71.8885 39.2949 71.6755 39.4561 71.4785C39.6208 71.278 39.7031 71.0542 39.7031 70.8071C39.7031 70.5744 39.6243 70.3882 39.4668 70.2485C39.3128 70.1089 39.1069 70.0391 38.8491 70.0391C38.5662 70.0391 38.3407 70.1125 38.1724 70.2593C38.0076 70.4025 37.9253 70.5959 37.9253 70.8394ZM38.7256 76.0225C39.3809 76.0225 39.9412 75.8309 40.4067 75.4478L38.3496 73.4229C37.9701 73.6663 37.7087 73.8955 37.5654 74.1104C37.4222 74.3216 37.3506 74.5633 37.3506 74.8354C37.3506 75.1864 37.4741 75.4728 37.7212 75.6948C37.9718 75.9132 38.3066 76.0225 38.7256 76.0225ZM36.0186 74.9214C36.0186 74.4523 36.1331 74.0441 36.3623 73.6968C36.5915 73.3459 37.005 72.9985 37.603 72.6548C37.2629 72.2573 37.0301 71.9225 36.9048 71.6504C36.783 71.3747 36.7222 71.09 36.7222 70.7964C36.7222 70.2521 36.9155 69.8224 37.3022 69.5073C37.6925 69.1922 38.2153 69.0347 38.8706 69.0347C39.5044 69.0347 40.0021 69.1886 40.3638 69.4966C40.7254 69.8009 40.9062 70.2127 40.9062 70.7319C40.9062 71.1401 40.7845 71.5107 40.541 71.8438C40.3011 72.1768 39.8983 72.5098 39.3325 72.8428L41.1909 74.6367C41.481 74.2536 41.7227 73.6914 41.916 72.9502H43.2158C42.9652 73.9671 42.5641 74.7961 42.0127 75.437L43.6294 77H42.002L41.2017 76.2212C40.8364 76.5148 40.4461 76.7368 40.0308 76.8872C39.619 77.034 39.1624 77.1074 38.6611 77.1074C37.8376 77.1074 37.1912 76.9123 36.7222 76.522C36.2531 76.1317 36.0186 75.5981 36.0186 74.9214ZM52.0137 69.1475H53.3457L50.5957 77H49.2422L46.5029 69.1475H47.8242L49.4624 74.0298C49.5483 74.2625 49.6396 74.5633 49.7363 74.9321C49.833 75.2974 49.8957 75.5695 49.9243 75.7485C49.9709 75.4764 50.0425 75.1613 50.1392 74.8032C50.2358 74.4451 50.3146 74.1802 50.3755 74.0083L52.0137 69.1475ZM55.5103 77H54.248V71.0596H55.5103V77ZM54.1729 69.4858C54.1729 69.2603 54.2337 69.0866 54.3555 68.9648C54.4808 68.8431 54.658 68.7822 54.8872 68.7822C55.1092 68.7822 55.2811 68.8431 55.4028 68.9648C55.5282 69.0866 55.5908 69.2603 55.5908 69.4858C55.5908 69.7007 55.5282 69.8708 55.4028 69.9961C55.2811 70.1178 55.1092 70.1787 54.8872 70.1787C54.658 70.1787 54.4808 70.1178 54.3555 69.9961C54.2337 69.8708 54.1729 69.7007 54.1729 69.4858ZM59.3237 77.1074C58.5825 77.1074 58.0042 76.8389 57.5889 76.3018C57.1735 75.7646 56.9658 75.0109 56.9658 74.0405C56.9658 73.0666 57.1753 72.3092 57.5942 71.7686C58.0168 71.2243 58.6004 70.9521 59.3452 70.9521C60.1258 70.9521 60.7202 71.2404 61.1284 71.8169H61.1929C61.132 71.3908 61.1016 71.0542 61.1016 70.8071V68.6426H62.3691V77H61.3809L61.1606 76.2212H61.1016C60.6969 76.812 60.1043 77.1074 59.3237 77.1074ZM59.6621 76.0869C60.1813 76.0869 60.5591 75.9419 60.7954 75.6519C61.0317 75.3582 61.1535 74.8838 61.1606 74.2285V74.0513C61.1606 73.3029 61.0389 72.7712 60.7954 72.4561C60.5519 72.141 60.1706 71.9834 59.6514 71.9834C59.2074 71.9834 58.8654 72.1642 58.6255 72.5259C58.3856 72.884 58.2656 73.396 58.2656 74.062C58.2656 74.7209 58.382 75.224 58.6147 75.5713C58.8475 75.915 59.1966 76.0869 59.6621 76.0869ZM66.7681 77.1074C65.8442 77.1074 65.1209 76.8389 64.5981 76.3018C64.0789 75.7611 63.8193 75.0181 63.8193 74.0728C63.8193 73.1024 64.061 72.3397 64.5444 71.7847C65.0278 71.2297 65.6921 70.9521 66.5371 70.9521C67.3213 70.9521 67.9408 71.1903 68.3955 71.6665C68.8503 72.1427 69.0776 72.798 69.0776 73.6323V74.3145H65.1191C65.137 74.891 65.2928 75.335 65.5864 75.6465C65.88 75.9544 66.2936 76.1084 66.8271 76.1084C67.1781 76.1084 67.5039 76.0762 67.8047 76.0117C68.109 75.9437 68.4349 75.8327 68.7822 75.6787V76.7046C68.4743 76.8514 68.1628 76.9552 67.8477 77.0161C67.5326 77.077 67.1727 77.1074 66.7681 77.1074ZM66.5371 71.9082C66.1361 71.9082 65.8138 72.0353 65.5703 72.2896C65.3304 72.5438 65.1872 72.9144 65.1406 73.4014H67.8369C67.8298 72.9108 67.7116 72.5402 67.4824 72.2896C67.2533 72.0353 66.9382 71.9082 66.5371 71.9082ZM75.7808 74.019C75.7808 74.9894 75.5319 75.7467 75.0342 76.291C74.5365 76.8353 73.8436 77.1074 72.9556 77.1074C72.4006 77.1074 71.91 76.9821 71.4839 76.7314C71.0578 76.4808 70.7301 76.1209 70.501 75.6519C70.2718 75.1828 70.1572 74.6385 70.1572 74.019C70.1572 73.0558 70.4043 72.3039 70.8984 71.7632C71.3926 71.2225 72.089 70.9521 72.9878 70.9521C73.8472 70.9521 74.5275 71.2297 75.0288 71.7847C75.5301 72.3361 75.7808 73.0809 75.7808 74.019ZM71.457 74.019C71.457 75.3905 71.9637 76.0762 72.9771 76.0762C73.9797 76.0762 74.481 75.3905 74.481 74.019C74.481 72.6619 73.9761 71.9834 72.9663 71.9834C72.4364 71.9834 72.0514 72.1589 71.8115 72.5098C71.5752 72.8607 71.457 73.3638 71.457 74.019ZM81.2271 75.3081C81.2271 75.8882 81.0158 76.334 80.5933 76.6455C80.1707 76.9535 79.5656 77.1074 78.7778 77.1074C77.9865 77.1074 77.3509 76.9875 76.8711 76.7476V75.6572C77.5693 75.9795 78.2192 76.1406 78.8208 76.1406C79.5978 76.1406 79.9863 75.9061 79.9863 75.437C79.9863 75.2866 79.9434 75.1613 79.8574 75.061C79.7715 74.9608 79.63 74.8569 79.4331 74.7495C79.2362 74.6421 78.9622 74.5203 78.6113 74.3843C77.9274 74.1193 77.4637 73.8543 77.2202 73.5894C76.9803 73.3244 76.8604 72.9806 76.8604 72.5581C76.8604 72.0496 77.0645 71.6558 77.4727 71.3765C77.8844 71.0936 78.443 70.9521 79.1484 70.9521C79.8467 70.9521 80.5073 71.0936 81.1304 71.3765L80.7222 72.3271C80.0812 72.0622 79.5423 71.9297 79.1055 71.9297C78.4395 71.9297 78.1064 72.1195 78.1064 72.499C78.1064 72.6852 78.1924 72.8428 78.3643 72.9717C78.5397 73.1006 78.9193 73.2778 79.5029 73.5034C79.9935 73.6932 80.3498 73.8669 80.5718 74.0244C80.7938 74.182 80.9585 74.3646 81.0659 74.5723C81.1733 74.7764 81.2271 75.0216 81.2271 75.3081Z" fill="#A650FF"/>
<path d="M166.127 13.6824H179.7C180.018 15.2368 180.901 16.6181 182.179 17.5584C183.457 18.4987 185.038 18.931 186.617 18.7715C188.196 18.6121 189.659 17.8722 190.723 16.6953C191.787 15.5185 192.376 13.9885 192.376 12.402C192.376 10.8155 191.787 9.28548 190.723 8.10863C189.659 6.93177 188.196 6.19189 186.617 6.03243C185.038 5.87297 183.457 6.3053 182.179 7.24559C180.901 8.18587 180.018 9.56714 179.7 11.1216H166.127C164.259 11.1216 162.468 11.8635 161.147 13.1842C159.827 14.5049 159.085 16.2961 159.085 18.1638C159.085 20.0315 159.827 21.8227 161.147 23.1433C162.468 24.464 164.259 25.2059 166.127 25.2059H180.213C181.401 25.2059 182.541 25.6781 183.382 26.5185C184.222 27.3589 184.694 28.4988 184.694 29.6873C184.694 30.8758 184.222 32.0157 183.382 32.8561C182.541 33.6965 181.401 34.1687 180.213 34.1687H169.2C168.883 32.6142 168 31.233 166.722 30.2927C165.444 29.3524 163.862 28.9201 162.284 29.0795C160.705 29.239 159.242 29.9789 158.178 31.1557C157.114 32.3326 156.525 33.8626 156.525 35.4491C156.525 37.0356 157.114 38.5656 158.178 39.7424C159.242 40.9193 160.705 41.6592 162.284 41.8186C163.862 41.9781 165.444 41.5458 166.722 40.6055C168 39.6652 168.883 38.2839 169.2 36.7295H180.213C182.08 36.7295 183.872 35.9875 185.193 34.6669C186.513 33.3462 187.255 31.555 187.255 29.6873C187.255 27.8196 186.513 26.0284 185.193 24.7077C183.872 23.3871 182.08 22.6451 180.213 22.6451H166.127C164.939 22.6451 163.799 22.173 162.958 21.3326C162.118 20.4922 161.646 19.3523 161.646 18.1638C161.646 16.9752 162.118 15.8354 162.958 14.9949C163.799 14.1545 164.939 13.6824 166.127 13.6824ZM185.975 8.5608C186.735 8.5608 187.477 8.78608 188.109 9.20816C188.741 9.63023 189.233 10.2301 189.524 10.932C189.815 11.6339 189.891 12.4062 189.742 13.1514C189.594 13.8965 189.228 14.5809 188.691 15.1181C188.154 15.6553 187.469 16.0211 186.724 16.1694C185.979 16.3176 185.207 16.2415 184.505 15.9508C183.803 15.66 183.203 15.1677 182.781 14.536C182.359 13.9044 182.133 13.1617 182.133 12.402C182.133 11.3832 182.538 10.4062 183.259 9.68586C183.979 8.9655 184.956 8.5608 185.975 8.5608ZM162.926 39.2903C162.166 39.2903 161.424 39.065 160.792 38.6429C160.16 38.2208 159.668 37.6209 159.377 36.919C159.086 36.2172 159.01 35.4448 159.158 34.6997C159.307 33.9546 159.672 33.2702 160.21 32.733C160.747 32.1958 161.431 31.8299 162.177 31.6817C162.922 31.5335 163.694 31.6096 164.396 31.9003C165.098 32.191 165.698 32.6834 166.12 33.315C166.542 33.9467 166.768 34.6894 166.768 35.4491C166.768 36.4678 166.363 37.4448 165.642 38.1652C164.922 38.8856 163.945 39.2903 162.926 39.2903Z" fill="#A650FF"/>
<path d="M130.806 64V56.1475H132.089V64H130.806ZM139.26 64H137.992V60.3477C137.992 59.8893 137.899 59.5474 137.713 59.3218C137.53 59.0962 137.238 58.9834 136.837 58.9834C136.304 58.9834 135.914 59.141 135.667 59.4561C135.419 59.7712 135.296 60.2993 135.296 61.0405V64H134.034V58.0596H135.022L135.199 58.8384H135.264C135.443 58.5555 135.697 58.3371 136.026 58.1831C136.356 58.0291 136.721 57.9521 137.122 57.9521C138.547 57.9521 139.26 58.6772 139.26 60.1274V64ZM143.229 63.0869C143.537 63.0869 143.845 63.0386 144.153 62.9419V63.8926C144.013 63.9535 143.832 64.0036 143.61 64.043C143.392 64.0859 143.165 64.1074 142.928 64.1074C141.732 64.1074 141.134 63.4772 141.134 62.2168V59.0156H140.323V58.457L141.193 57.9951L141.623 56.7383H142.402V58.0596H144.094V59.0156H142.402V62.1953C142.402 62.4997 142.477 62.7253 142.627 62.8721C142.781 63.0153 142.982 63.0869 143.229 63.0869ZM147.939 64.1074C147.016 64.1074 146.292 63.8389 145.77 63.3018C145.25 62.7611 144.991 62.0181 144.991 61.0728C144.991 60.1024 145.232 59.3397 145.716 58.7847C146.199 58.2297 146.863 57.9521 147.708 57.9521C148.493 57.9521 149.112 58.1903 149.567 58.6665C150.022 59.1427 150.249 59.798 150.249 60.6323V61.3145H146.291C146.308 61.891 146.464 62.335 146.758 62.6465C147.051 62.9544 147.465 63.1084 147.999 63.1084C148.349 63.1084 148.675 63.0762 148.976 63.0117C149.28 62.9437 149.606 62.8327 149.954 62.6787V63.7046C149.646 63.8514 149.334 63.9552 149.019 64.0161C148.704 64.077 148.344 64.1074 147.939 64.1074ZM147.708 58.9082C147.307 58.9082 146.985 59.0353 146.742 59.2896C146.502 59.5438 146.359 59.9144 146.312 60.4014H149.008C149.001 59.9108 148.883 59.5402 148.654 59.2896C148.425 59.0353 148.11 58.9082 147.708 58.9082ZM156.7 58.0596V58.7524L155.685 58.9404C155.778 59.0658 155.855 59.2197 155.916 59.4023C155.976 59.585 156.007 59.7783 156.007 59.9824C156.007 60.5947 155.796 61.0763 155.373 61.4272C154.951 61.7782 154.369 61.9536 153.627 61.9536C153.438 61.9536 153.266 61.9393 153.112 61.9106C152.84 62.0789 152.704 62.2759 152.704 62.5015C152.704 62.6375 152.766 62.7396 152.892 62.8076C153.021 62.8757 153.255 62.9097 153.595 62.9097H154.632C155.287 62.9097 155.785 63.0493 156.125 63.3286C156.465 63.6079 156.635 64.0107 156.635 64.5371C156.635 65.2103 156.358 65.7295 155.803 66.0947C155.248 66.46 154.446 66.6426 153.396 66.6426C152.587 66.6426 151.97 66.4993 151.543 66.2129C151.117 65.9264 150.904 65.5182 150.904 64.9883C150.904 64.623 151.019 64.3151 151.248 64.0645C151.481 63.8174 151.805 63.6455 152.22 63.5488C152.052 63.4772 151.912 63.3626 151.801 63.2051C151.694 63.0439 151.64 62.8757 151.64 62.7002C151.64 62.4782 151.703 62.2902 151.828 62.1362C151.953 61.9823 152.14 61.8301 152.387 61.6797C152.079 61.5472 151.828 61.3324 151.635 61.0352C151.445 60.7344 151.35 60.3835 151.35 59.9824C151.35 59.3379 151.552 58.8384 151.957 58.4839C152.365 58.1294 152.945 57.9521 153.697 57.9521C153.866 57.9521 154.041 57.9647 154.224 57.9897C154.41 58.0112 154.549 58.0345 154.643 58.0596H156.7ZM152.032 64.9238C152.032 65.196 152.154 65.4054 152.397 65.5522C152.645 65.6991 152.99 65.7725 153.434 65.7725C154.122 65.7725 154.634 65.674 154.97 65.4771C155.307 65.2801 155.475 65.0187 155.475 64.6929C155.475 64.4351 155.382 64.2507 155.196 64.1396C155.013 64.0322 154.671 63.9785 154.17 63.9785H153.214C152.852 63.9785 152.564 64.0627 152.349 64.231C152.138 64.4028 152.032 64.6338 152.032 64.9238ZM152.575 59.9824C152.575 60.3548 152.67 60.6413 152.859 60.8418C153.053 61.0423 153.328 61.1426 153.687 61.1426C154.417 61.1426 154.782 60.7523 154.782 59.9717C154.782 59.585 154.691 59.2878 154.508 59.0801C154.329 58.8688 154.055 58.7632 153.687 58.7632C153.321 58.7632 153.044 58.867 152.854 59.0747C152.668 59.2824 152.575 59.585 152.575 59.9824ZM160.819 57.9521C161.074 57.9521 161.283 57.9701 161.448 58.0059L161.324 59.1821C161.145 59.1392 160.959 59.1177 160.766 59.1177C160.261 59.1177 159.851 59.2824 159.536 59.6118C159.224 59.9412 159.068 60.3691 159.068 60.8955V64H157.806V58.0596H158.794L158.961 59.1069H159.025C159.222 58.7524 159.478 58.4714 159.793 58.2637C160.112 58.056 160.454 57.9521 160.819 57.9521ZM166.271 64L166.019 63.1729H165.976C165.689 63.5345 165.401 63.7816 165.111 63.9141C164.821 64.043 164.448 64.1074 163.994 64.1074C163.41 64.1074 162.953 63.9499 162.624 63.6348C162.298 63.3197 162.135 62.8739 162.135 62.2974C162.135 61.6851 162.363 61.2231 162.817 60.9116C163.272 60.6001 163.965 60.43 164.896 60.4014L165.922 60.3691V60.0522C165.922 59.6727 165.832 59.3898 165.653 59.2036C165.478 59.0138 165.204 58.9189 164.832 58.9189C164.527 58.9189 164.235 58.9637 163.956 59.0532C163.677 59.1427 163.408 59.2484 163.15 59.3701L162.742 58.4678C163.064 58.2995 163.417 58.1724 163.8 58.0864C164.183 57.9969 164.545 57.9521 164.885 57.9521C165.641 57.9521 166.21 58.1169 166.593 58.4463C166.98 58.7757 167.173 59.2931 167.173 59.9985V64H166.271ZM164.391 63.1406C164.849 63.1406 165.216 63.0135 165.492 62.7593C165.771 62.5015 165.911 62.1416 165.911 61.6797V61.1641L165.148 61.1963C164.554 61.2178 164.121 61.318 163.849 61.4971C163.58 61.6725 163.446 61.9429 163.446 62.3081C163.446 62.5731 163.525 62.779 163.682 62.9258C163.84 63.069 164.076 63.1406 164.391 63.1406ZM171.148 63.0869C171.456 63.0869 171.764 63.0386 172.072 62.9419V63.8926C171.932 63.9535 171.751 64.0036 171.529 64.043C171.311 64.0859 171.083 64.1074 170.847 64.1074C169.651 64.1074 169.053 63.4772 169.053 62.2168V59.0156H168.242V58.457L169.112 57.9951L169.542 56.7383H170.321V58.0596H172.013V59.0156H170.321V62.1953C170.321 62.4997 170.396 62.7253 170.546 62.8721C170.7 63.0153 170.901 63.0869 171.148 63.0869ZM174.526 64H173.264V58.0596H174.526V64ZM173.189 56.4858C173.189 56.2603 173.25 56.0866 173.372 55.9648C173.497 55.8431 173.674 55.7822 173.903 55.7822C174.125 55.7822 174.297 55.8431 174.419 55.9648C174.544 56.0866 174.607 56.2603 174.607 56.4858C174.607 56.7007 174.544 56.8708 174.419 56.9961C174.297 57.1178 174.125 57.1787 173.903 57.1787C173.674 57.1787 173.497 57.1178 173.372 56.9961C173.25 56.8708 173.189 56.7007 173.189 56.4858ZM181.605 61.019C181.605 61.9894 181.357 62.7467 180.859 63.291C180.361 63.8353 179.668 64.1074 178.78 64.1074C178.225 64.1074 177.735 63.9821 177.309 63.7314C176.882 63.4808 176.555 63.1209 176.326 62.6519C176.097 62.1828 175.982 61.6385 175.982 61.019C175.982 60.0558 176.229 59.3039 176.723 58.7632C177.217 58.2225 177.914 57.9521 178.812 57.9521C179.672 57.9521 180.352 58.2297 180.854 58.7847C181.355 59.3361 181.605 60.0809 181.605 61.019ZM177.282 61.019C177.282 62.3905 177.788 63.0762 178.802 63.0762C179.804 63.0762 180.306 62.3905 180.306 61.019C180.306 59.6619 179.801 58.9834 178.791 58.9834C178.261 58.9834 177.876 59.1589 177.636 59.5098C177.4 59.8607 177.282 60.3638 177.282 61.019ZM188.287 64H187.02V60.3477C187.02 59.8893 186.926 59.5474 186.74 59.3218C186.558 59.0962 186.266 58.9834 185.865 58.9834C185.331 58.9834 184.941 59.141 184.694 59.4561C184.447 59.7712 184.323 60.2993 184.323 61.0405V64H183.061V58.0596H184.049L184.227 58.8384H184.291C184.47 58.5555 184.724 58.3371 185.054 58.1831C185.383 58.0291 185.748 57.9521 186.149 57.9521C187.575 57.9521 188.287 58.6772 188.287 60.1274V64ZM197.772 64L197.004 61.2285C196.911 60.9349 196.743 60.2528 196.5 59.1821H196.451C196.243 60.1489 196.079 60.8346 195.957 61.2393L195.167 64H193.771L192.106 58.0596H193.395L194.152 60.9868C194.324 61.7101 194.446 62.3296 194.518 62.8452H194.55C194.586 62.5838 194.639 62.2848 194.711 61.9482C194.786 61.6081 194.851 61.3538 194.904 61.1855L195.807 58.0596H197.192L198.068 61.1855C198.122 61.361 198.188 61.6296 198.267 61.9912C198.349 62.3529 198.397 62.634 198.412 62.8345H198.455C198.508 62.394 198.634 61.7782 198.831 60.9868L199.599 58.0596H200.866L199.19 64H197.772ZM203.154 64H201.892V58.0596H203.154V64ZM201.817 56.4858C201.817 56.2603 201.878 56.0866 202 55.9648C202.125 55.8431 202.302 55.7822 202.531 55.7822C202.753 55.7822 202.925 55.8431 203.047 55.9648C203.172 56.0866 203.235 56.2603 203.235 56.4858C203.235 56.7007 203.172 56.8708 203.047 56.9961C202.925 57.1178 202.753 57.1787 202.531 57.1787C202.302 57.1787 202.125 57.1178 202 56.9961C201.878 56.8708 201.817 56.7007 201.817 56.4858ZM207.177 63.0869C207.485 63.0869 207.793 63.0386 208.101 62.9419V63.8926C207.961 63.9535 207.781 64.0036 207.559 64.043C207.34 64.0859 207.113 64.1074 206.876 64.1074C205.681 64.1074 205.083 63.4772 205.083 62.2168V59.0156H204.271V58.457L205.142 57.9951L205.571 56.7383H206.35V58.0596H208.042V59.0156H206.35V62.1953C206.35 62.4997 206.425 62.7253 206.576 62.8721C206.73 63.0153 206.93 63.0869 207.177 63.0869ZM214.52 64H213.252V60.3477C213.252 59.8893 213.159 59.5474 212.973 59.3218C212.79 59.0962 212.498 58.9834 212.097 58.9834C211.567 58.9834 211.177 59.1427 210.926 59.4614C210.679 59.7765 210.556 60.3065 210.556 61.0513V64H209.293V55.6426H210.556V57.7642C210.556 58.1043 210.534 58.4678 210.491 58.8545H210.572C210.744 58.568 210.982 58.346 211.286 58.1885C211.594 58.0309 211.952 57.9521 212.36 57.9521C213.8 57.9521 214.52 58.6772 214.52 60.1274V64ZM121.369 72.7998H122.26C122.858 72.7998 123.292 72.6888 123.56 72.4668C123.829 72.2448 123.963 71.9154 123.963 71.4785C123.963 71.0345 123.818 70.7158 123.528 70.5225C123.238 70.3291 122.801 70.2324 122.217 70.2324H121.369V72.7998ZM121.369 73.8633V77H120.085V69.1475H122.303C123.317 69.1475 124.067 69.3372 124.554 69.7168C125.041 70.0964 125.284 70.6693 125.284 71.4355C125.284 72.4131 124.776 73.1095 123.759 73.5249L125.977 77H124.516L122.636 73.8633H121.369ZM129.581 77.1074C128.657 77.1074 127.934 76.8389 127.411 76.3018C126.892 75.7611 126.632 75.0181 126.632 74.0728C126.632 73.1024 126.874 72.3397 127.357 71.7847C127.841 71.2297 128.505 70.9521 129.35 70.9521C130.134 70.9521 130.754 71.1903 131.208 71.6665C131.663 72.1427 131.891 72.798 131.891 73.6323V74.3145H127.932C127.95 74.891 128.106 75.335 128.399 75.6465C128.693 75.9544 129.107 76.1084 129.64 76.1084C129.991 76.1084 130.317 76.0762 130.618 76.0117C130.922 75.9437 131.248 75.8327 131.595 75.6787V76.7046C131.287 76.8514 130.976 76.9552 130.661 77.0161C130.346 77.077 129.986 77.1074 129.581 77.1074ZM129.35 71.9082C128.949 71.9082 128.627 72.0353 128.383 72.2896C128.143 72.5438 128 72.9144 127.954 73.4014H130.65C130.643 72.9108 130.525 72.5402 130.295 72.2896C130.066 72.0353 129.751 71.9082 129.35 71.9082ZM137.315 75.3081C137.315 75.8882 137.104 76.334 136.682 76.6455C136.259 76.9535 135.654 77.1074 134.866 77.1074C134.075 77.1074 133.439 76.9875 132.959 76.7476V75.6572C133.658 75.9795 134.308 76.1406 134.909 76.1406C135.686 76.1406 136.075 75.9061 136.075 75.437C136.075 75.2866 136.032 75.1613 135.946 75.061C135.86 74.9608 135.718 74.8569 135.521 74.7495C135.325 74.6421 135.051 74.5203 134.7 74.3843C134.016 74.1193 133.552 73.8543 133.309 73.5894C133.069 73.3244 132.949 72.9806 132.949 72.5581C132.949 72.0496 133.153 71.6558 133.561 71.3765C133.973 71.0936 134.531 70.9521 135.237 70.9521C135.935 70.9521 136.596 71.0936 137.219 71.3765L136.811 72.3271C136.17 72.0622 135.631 71.9297 135.194 71.9297C134.528 71.9297 134.195 72.1195 134.195 72.499C134.195 72.6852 134.281 72.8428 134.453 72.9717C134.628 73.1006 135.008 73.2778 135.591 73.5034C136.082 73.6932 136.438 73.8669 136.66 74.0244C136.882 74.182 137.047 74.3646 137.154 74.5723C137.262 74.7764 137.315 75.0216 137.315 75.3081ZM141.279 77.1074C140.355 77.1074 139.632 76.8389 139.109 76.3018C138.59 75.7611 138.331 75.0181 138.331 74.0728C138.331 73.1024 138.572 72.3397 139.056 71.7847C139.539 71.2297 140.203 70.9521 141.048 70.9521C141.833 70.9521 142.452 71.1903 142.907 71.6665C143.361 72.1427 143.589 72.798 143.589 73.6323V74.3145H139.63C139.648 74.891 139.804 75.335 140.098 75.6465C140.391 75.9544 140.805 76.1084 141.338 76.1084C141.689 76.1084 142.015 76.0762 142.316 76.0117C142.62 75.9437 142.946 75.8327 143.293 75.6787V76.7046C142.986 76.8514 142.674 76.9552 142.359 77.0161C142.044 77.077 141.684 77.1074 141.279 77.1074ZM141.048 71.9082C140.647 71.9082 140.325 72.0353 140.082 72.2896C139.842 72.5438 139.698 72.9144 139.652 73.4014H142.348C142.341 72.9108 142.223 72.5402 141.994 72.2896C141.764 72.0353 141.449 71.9082 141.048 71.9082ZM148.036 70.9521C148.29 70.9521 148.5 70.9701 148.665 71.0059L148.541 72.1821C148.362 72.1392 148.176 72.1177 147.982 72.1177C147.478 72.1177 147.068 72.2824 146.752 72.6118C146.441 72.9412 146.285 73.3691 146.285 73.8955V77H145.023V71.0596H146.011L146.178 72.1069H146.242C146.439 71.7524 146.695 71.4714 147.01 71.2637C147.329 71.056 147.671 70.9521 148.036 70.9521ZM151.125 77L148.869 71.0596H150.201L151.409 74.5132C151.617 75.0933 151.742 75.5623 151.785 75.9204H151.828C151.86 75.6626 151.986 75.1935 152.204 74.5132L153.413 71.0596H154.755L152.489 77H151.125ZM159.375 77L159.122 76.1729H159.079C158.793 76.5345 158.504 76.7816 158.214 76.9141C157.924 77.043 157.552 77.1074 157.097 77.1074C156.514 77.1074 156.057 76.9499 155.728 76.6348C155.402 76.3197 155.239 75.8739 155.239 75.2974C155.239 74.6851 155.466 74.2231 155.921 73.9116C156.376 73.6001 157.069 73.43 158 73.4014L159.025 73.3691V73.0522C159.025 72.6727 158.936 72.3898 158.757 72.2036C158.581 72.0138 158.307 71.9189 157.935 71.9189C157.631 71.9189 157.339 71.9637 157.06 72.0532C156.78 72.1427 156.512 72.2484 156.254 72.3701L155.846 71.4678C156.168 71.2995 156.521 71.1724 156.904 71.0864C157.287 70.9969 157.649 70.9521 157.989 70.9521C158.744 70.9521 159.314 71.1169 159.697 71.4463C160.083 71.7757 160.277 72.2931 160.277 72.9985V77H159.375ZM157.495 76.1406C157.953 76.1406 158.32 76.0135 158.596 75.7593C158.875 75.5015 159.015 75.1416 159.015 74.6797V74.1641L158.252 74.1963C157.658 74.2178 157.224 74.318 156.952 74.4971C156.684 74.6725 156.549 74.9429 156.549 75.3081C156.549 75.5731 156.628 75.779 156.786 75.9258C156.943 76.069 157.18 76.1406 157.495 76.1406ZM164.251 76.0869C164.559 76.0869 164.867 76.0386 165.175 75.9419V76.8926C165.036 76.9535 164.855 77.0036 164.633 77.043C164.414 77.0859 164.187 77.1074 163.951 77.1074C162.755 77.1074 162.157 76.4772 162.157 75.2168V72.0156H161.346V71.457L162.216 70.9951L162.646 69.7383H163.424V71.0596H165.116V72.0156H163.424V75.1953C163.424 75.4997 163.5 75.7253 163.65 75.8721C163.804 76.0153 164.004 76.0869 164.251 76.0869ZM167.63 77H166.368V71.0596H167.63V77ZM166.292 69.4858C166.292 69.2603 166.353 69.0866 166.475 68.9648C166.6 68.8431 166.778 68.7822 167.007 68.7822C167.229 68.7822 167.401 68.8431 167.522 68.9648C167.648 69.0866 167.71 69.2603 167.71 69.4858C167.71 69.7007 167.648 69.8708 167.522 69.9961C167.401 70.1178 167.229 70.1787 167.007 70.1787C166.778 70.1787 166.6 70.1178 166.475 69.9961C166.353 69.8708 166.292 69.7007 166.292 69.4858ZM174.709 74.019C174.709 74.9894 174.46 75.7467 173.962 76.291C173.465 76.8353 172.772 77.1074 171.884 77.1074C171.329 77.1074 170.838 76.9821 170.412 76.7314C169.986 76.4808 169.658 76.1209 169.429 75.6519C169.2 75.1828 169.085 74.6385 169.085 74.019C169.085 73.0558 169.333 72.3039 169.827 71.7632C170.321 71.2225 171.017 70.9521 171.916 70.9521C172.775 70.9521 173.456 71.2297 173.957 71.7847C174.458 72.3361 174.709 73.0809 174.709 74.019ZM170.385 74.019C170.385 75.3905 170.892 76.0762 171.905 76.0762C172.908 76.0762 173.409 75.3905 173.409 74.019C173.409 72.6619 172.904 71.9834 171.895 71.9834C171.365 71.9834 170.98 72.1589 170.74 72.5098C170.503 72.8607 170.385 73.3638 170.385 74.019ZM181.391 77H180.123V73.3477C180.123 72.8893 180.03 72.5474 179.844 72.3218C179.661 72.0962 179.369 71.9834 178.968 71.9834C178.435 71.9834 178.044 72.141 177.797 72.4561C177.55 72.7712 177.427 73.2993 177.427 74.0405V77H176.165V71.0596H177.153L177.33 71.8384H177.395C177.574 71.5555 177.828 71.3371 178.157 71.1831C178.487 71.0291 178.852 70.9521 179.253 70.9521C180.678 70.9521 181.391 71.6772 181.391 73.1274V77ZM190.667 74.8677C190.667 75.5659 190.414 76.1138 189.909 76.5112C189.404 76.9087 188.708 77.1074 187.82 77.1074C186.932 77.1074 186.205 76.9696 185.639 76.6938V75.48C185.997 75.6483 186.377 75.7808 186.778 75.8774C187.182 75.9741 187.558 76.0225 187.906 76.0225C188.414 76.0225 188.788 75.9258 189.028 75.7324C189.272 75.5391 189.394 75.2795 189.394 74.9536C189.394 74.66 189.283 74.4111 189.061 74.207C188.839 74.0029 188.38 73.7612 187.686 73.4819C186.969 73.1919 186.465 72.8607 186.171 72.4883C185.877 72.1159 185.73 71.6683 185.73 71.1455C185.73 70.4902 185.963 69.9746 186.429 69.5986C186.894 69.2227 187.519 69.0347 188.303 69.0347C189.055 69.0347 189.804 69.1994 190.548 69.5288L190.14 70.5762C189.442 70.2826 188.819 70.1357 188.271 70.1357C187.856 70.1357 187.541 70.2271 187.326 70.4097C187.111 70.5887 187.003 70.8268 187.003 71.124C187.003 71.3281 187.046 71.5036 187.132 71.6504C187.218 71.7936 187.36 71.9297 187.557 72.0586C187.754 72.1875 188.108 72.3576 188.62 72.5688C189.197 72.8088 189.619 73.0326 189.888 73.2402C190.156 73.4479 190.353 73.6825 190.479 73.9438C190.604 74.2052 190.667 74.5132 190.667 74.8677ZM191.15 71.0596H192.525L193.733 74.4272C193.916 74.9071 194.038 75.3582 194.099 75.7808H194.142C194.174 75.5838 194.233 75.3457 194.319 75.0664C194.405 74.7835 194.86 73.4479 195.683 71.0596H197.047L194.507 77.7896C194.045 79.0249 193.275 79.6426 192.197 79.6426C191.918 79.6426 191.646 79.6121 191.381 79.5513V78.5522C191.571 78.5952 191.787 78.6167 192.031 78.6167C192.639 78.6167 193.067 78.264 193.314 77.5586L193.535 77L191.15 71.0596ZM201.94 75.3081C201.94 75.8882 201.729 76.334 201.307 76.6455C200.884 76.9535 200.279 77.1074 199.491 77.1074C198.7 77.1074 198.064 76.9875 197.584 76.7476V75.6572C198.283 75.9795 198.933 76.1406 199.534 76.1406C200.311 76.1406 200.7 75.9061 200.7 75.437C200.7 75.2866 200.657 75.1613 200.571 75.061C200.485 74.9608 200.343 74.8569 200.146 74.7495C199.95 74.6421 199.676 74.5203 199.325 74.3843C198.641 74.1193 198.177 73.8543 197.934 73.5894C197.694 73.3244 197.574 72.9806 197.574 72.5581C197.574 72.0496 197.778 71.6558 198.186 71.3765C198.598 71.0936 199.156 70.9521 199.862 70.9521C200.56 70.9521 201.221 71.0936 201.844 71.3765L201.436 72.3271C200.795 72.0622 200.256 71.9297 199.819 71.9297C199.153 71.9297 198.82 72.1195 198.82 72.499C198.82 72.6852 198.906 72.8428 199.078 72.9717C199.253 73.1006 199.633 73.2778 200.216 73.5034C200.707 73.6932 201.063 73.8669 201.285 74.0244C201.507 74.182 201.672 74.3646 201.779 74.5723C201.887 74.7764 201.94 75.0216 201.94 75.3081ZM205.523 76.0869C205.831 76.0869 206.139 76.0386 206.447 75.9419V76.8926C206.307 76.9535 206.126 77.0036 205.904 77.043C205.686 77.0859 205.458 77.1074 205.222 77.1074C204.026 77.1074 203.428 76.4772 203.428 75.2168V72.0156H202.617V71.457L203.487 70.9951L203.917 69.7383H204.696V71.0596H206.388V72.0156H204.696V75.1953C204.696 75.4997 204.771 75.7253 204.921 75.8721C205.075 76.0153 205.276 76.0869 205.523 76.0869ZM210.233 77.1074C209.31 77.1074 208.586 76.8389 208.063 76.3018C207.544 75.7611 207.285 75.0181 207.285 74.0728C207.285 73.1024 207.526 72.3397 208.01 71.7847C208.493 71.2297 209.157 70.9521 210.002 70.9521C210.787 70.9521 211.406 71.1903 211.861 71.6665C212.316 72.1427 212.543 72.798 212.543 73.6323V74.3145H208.584C208.602 74.891 208.758 75.335 209.052 75.6465C209.345 75.9544 209.759 76.1084 210.292 76.1084C210.643 76.1084 210.969 76.0762 211.27 76.0117C211.574 75.9437 211.9 75.8327 212.248 75.6787V76.7046C211.94 76.8514 211.628 76.9552 211.313 77.0161C210.998 77.077 210.638 77.1074 210.233 77.1074ZM210.002 71.9082C209.601 71.9082 209.279 72.0353 209.036 72.2896C208.796 72.5438 208.653 72.9144 208.606 73.4014H211.302C211.295 72.9108 211.177 72.5402 210.948 72.2896C210.719 72.0353 210.403 71.9082 210.002 71.9082ZM218.983 77H217.715V73.3369C217.715 72.8822 217.629 72.5438 217.458 72.3218C217.286 72.0962 217.017 71.9834 216.652 71.9834C216.165 71.9834 215.807 72.1427 215.578 72.4614C215.352 72.7765 215.239 73.3029 215.239 74.0405V77H213.977V71.0596H214.965L215.143 71.8384H215.207C215.372 71.5555 215.61 71.3371 215.921 71.1831C216.236 71.0291 216.582 70.9521 216.958 70.9521C217.871 70.9521 218.476 71.2637 218.773 71.8867H218.859C219.035 71.5931 219.282 71.3639 219.601 71.1992C219.919 71.0345 220.285 70.9521 220.696 70.9521C221.405 70.9521 221.921 71.1312 222.243 71.4893C222.569 71.8473 222.732 72.3934 222.732 73.1274V77H221.47V73.3369C221.47 72.8822 221.382 72.5438 221.207 72.3218C221.035 72.0962 220.766 71.9834 220.401 71.9834C219.91 71.9834 219.55 72.1374 219.321 72.4453C219.096 72.7497 218.983 73.2188 218.983 73.8525V77ZM228.484 75.3081C228.484 75.8882 228.273 76.334 227.851 76.6455C227.428 76.9535 226.823 77.1074 226.035 77.1074C225.244 77.1074 224.608 76.9875 224.128 76.7476V75.6572C224.827 75.9795 225.477 76.1406 226.078 76.1406C226.855 76.1406 227.244 75.9061 227.244 75.437C227.244 75.2866 227.201 75.1613 227.115 75.061C227.029 74.9608 226.887 74.8569 226.69 74.7495C226.493 74.6421 226.22 74.5203 225.869 74.3843C225.185 74.1193 224.721 73.8543 224.478 73.5894C224.238 73.3244 224.118 72.9806 224.118 72.5581C224.118 72.0496 224.322 71.6558 224.73 71.3765C225.142 71.0936 225.7 70.9521 226.406 70.9521C227.104 70.9521 227.765 71.0936 228.388 71.3765L227.979 72.3271C227.339 72.0622 226.8 71.9297 226.363 71.9297C225.697 71.9297 225.364 72.1195 225.364 72.499C225.364 72.6852 225.45 72.8428 225.622 72.9717C225.797 73.1006 226.177 73.2778 226.76 73.5034C227.251 73.6932 227.607 73.8669 227.829 74.0244C228.051 74.182 228.216 74.3646 228.323 74.5723C228.431 74.7764 228.484 75.0216 228.484 75.3081Z" fill="#A650FF"/>
<path d="M317.5 13.125H287.5C285.429 13.125 283.75 14.8039 283.75 16.875V37.5C283.75 39.5711 285.429 41.25 287.5 41.25H317.5C319.571 41.25 321.25 39.5711 321.25 37.5V16.875C321.25 14.8039 319.571 13.125 317.5 13.125Z" stroke="#A650FF" stroke-width="2" stroke-linecap="round" stroke-linejoin="round"/>
<path d="M311.875 3.75L302.5 13.125L293.125 3.75" stroke="#A650FF" stroke-width="2" stroke-linecap="round" stroke-linejoin="round"/>
<path d="M291.248 59.7407H294.137V63.6831C293.665 63.8371 293.21 63.9463 292.773 64.0107C292.34 64.0752 291.871 64.1074 291.366 64.1074C290.177 64.1074 289.26 63.7565 288.616 63.0547C287.971 62.3493 287.649 61.3556 287.649 60.0737C287.649 58.8097 288.012 57.8215 288.739 57.1089C289.466 56.3927 290.467 56.0347 291.742 56.0347C292.562 56.0347 293.339 56.1922 294.073 56.5073L293.622 57.5762C292.984 57.2826 292.347 57.1357 291.709 57.1357C290.872 57.1357 290.209 57.3989 289.722 57.9253C289.235 58.4517 288.992 59.1714 288.992 60.0845C288.992 61.0441 289.21 61.7746 289.647 62.2759C290.087 62.7736 290.719 63.0225 291.543 63.0225C291.958 63.0225 292.402 62.9705 292.875 62.8667V60.8418H291.248V59.7407ZM300.083 64L299.906 63.2212H299.841C299.666 63.4969 299.415 63.7135 299.089 63.8711C298.767 64.0286 298.398 64.1074 297.983 64.1074C297.263 64.1074 296.726 63.9284 296.372 63.5703C296.017 63.2122 295.84 62.6698 295.84 61.9429V58.0596H297.113V61.7227C297.113 62.1774 297.206 62.5194 297.392 62.7485C297.578 62.9741 297.87 63.0869 298.268 63.0869C298.798 63.0869 299.186 62.9294 299.433 62.6143C299.684 62.2956 299.809 61.7638 299.809 61.019V58.0596H301.077V64H300.083ZM305.47 64.1074C304.546 64.1074 303.823 63.8389 303.3 63.3018C302.781 62.7611 302.521 62.0181 302.521 61.0728C302.521 60.1024 302.763 59.3397 303.247 58.7847C303.73 58.2297 304.394 57.9521 305.239 57.9521C306.023 57.9521 306.643 58.1903 307.098 58.6665C307.552 59.1427 307.78 59.798 307.78 60.6323V61.3145H303.821C303.839 61.891 303.995 62.335 304.289 62.6465C304.582 62.9544 304.996 63.1084 305.529 63.1084C305.88 63.1084 306.206 63.0762 306.507 63.0117C306.811 62.9437 307.137 62.8327 307.484 62.6787V63.7046C307.176 63.8514 306.865 63.9552 306.55 64.0161C306.235 64.077 305.875 64.1074 305.47 64.1074ZM305.239 58.9082C304.838 58.9082 304.516 59.0353 304.272 59.2896C304.033 59.5438 303.889 59.9144 303.843 60.4014H306.539C306.532 59.9108 306.414 59.5402 306.185 59.2896C305.955 59.0353 305.64 58.9082 305.239 58.9082ZM313.205 62.3081C313.205 62.8882 312.993 63.334 312.571 63.6455C312.148 63.9535 311.543 64.1074 310.755 64.1074C309.964 64.1074 309.328 63.9875 308.849 63.7476V62.6572C309.547 62.9795 310.197 63.1406 310.798 63.1406C311.575 63.1406 311.964 62.9061 311.964 62.437C311.964 62.2866 311.921 62.1613 311.835 62.061C311.749 61.9608 311.608 61.8569 311.411 61.7495C311.214 61.6421 310.94 61.5203 310.589 61.3843C309.905 61.1193 309.441 60.8543 309.198 60.5894C308.958 60.3244 308.838 59.9806 308.838 59.5581C308.838 59.0496 309.042 58.6558 309.45 58.3765C309.862 58.0936 310.421 57.9521 311.126 57.9521C311.824 57.9521 312.485 58.0936 313.108 58.3765L312.7 59.3271C312.059 59.0622 311.52 58.9297 311.083 58.9297C310.417 58.9297 310.084 59.1195 310.084 59.499C310.084 59.6852 310.17 59.8428 310.342 59.9717C310.517 60.1006 310.897 60.2778 311.48 60.5034C311.971 60.6932 312.327 60.8669 312.549 61.0244C312.771 61.182 312.936 61.3646 313.043 61.5723C313.151 61.7764 313.205 62.0216 313.205 62.3081ZM316.787 63.0869C317.095 63.0869 317.403 63.0386 317.711 62.9419V63.8926C317.571 63.9535 317.39 64.0036 317.168 64.043C316.95 64.0859 316.723 64.1074 316.486 64.1074C315.29 64.1074 314.692 63.4772 314.692 62.2168V59.0156H313.881V58.457L314.751 57.9951L315.181 56.7383H315.96V58.0596H317.652V59.0156H315.96V62.1953C315.96 62.4997 316.035 62.7253 316.186 62.8721C316.34 63.0153 316.54 63.0869 316.787 63.0869ZM272.126 77H270.73L269.398 72.3164C269.341 72.1123 269.269 71.8187 269.183 71.4355C269.097 71.0488 269.045 70.7803 269.027 70.6299C268.992 70.859 268.932 71.1562 268.85 71.5215C268.771 71.8867 268.705 72.1589 268.651 72.3379L267.352 77H265.955L264.94 73.0684L263.909 69.1475H265.219L266.342 73.7236C266.517 74.4577 266.643 75.1058 266.718 75.668C266.757 75.3636 266.816 75.0234 266.895 74.6475C266.974 74.2715 267.045 73.9671 267.11 73.7344L268.388 69.1475H269.661L270.972 73.7559C271.097 74.182 271.229 74.8193 271.369 75.668C271.423 75.1559 271.552 74.5042 271.756 73.7129L272.873 69.1475H274.173L272.126 77ZM277.75 77.1074C276.826 77.1074 276.103 76.8389 275.58 76.3018C275.061 75.7611 274.801 75.0181 274.801 74.0728C274.801 73.1024 275.043 72.3397 275.526 71.7847C276.01 71.2297 276.674 70.9521 277.519 70.9521C278.303 70.9521 278.923 71.1903 279.377 71.6665C279.832 72.1427 280.06 72.798 280.06 73.6323V74.3145H276.101C276.119 74.891 276.275 75.335 276.568 75.6465C276.862 75.9544 277.276 76.1084 277.809 76.1084C278.16 76.1084 278.486 76.0762 278.787 76.0117C279.091 75.9437 279.417 75.8327 279.764 75.6787V76.7046C279.456 76.8514 279.145 76.9552 278.83 77.0161C278.514 77.077 278.155 77.1074 277.75 77.1074ZM277.519 71.9082C277.118 71.9082 276.796 72.0353 276.552 72.2896C276.312 72.5438 276.169 72.9144 276.123 73.4014H278.819C278.812 72.9108 278.694 72.5402 278.464 72.2896C278.235 72.0353 277.92 71.9082 277.519 71.9082ZM282.756 77H281.494V68.6426H282.756V77ZM286.961 77.1074C286.063 77.1074 285.379 76.846 284.91 76.3232C284.444 75.7969 284.211 75.0431 284.211 74.062C284.211 73.063 284.455 72.2949 284.942 71.7578C285.432 71.2207 286.14 70.9521 287.063 70.9521C287.69 70.9521 288.254 71.0685 288.755 71.3013L288.374 72.3164C287.84 72.1087 287.4 72.0049 287.053 72.0049C286.025 72.0049 285.511 72.687 285.511 74.0513C285.511 74.7173 285.638 75.2186 285.893 75.5552C286.15 75.8882 286.526 76.0547 287.021 76.0547C287.583 76.0547 288.114 75.915 288.616 75.6357V76.7368C288.39 76.8693 288.148 76.9642 287.891 77.0215C287.636 77.0788 287.327 77.1074 286.961 77.1074ZM295.281 74.019C295.281 74.9894 295.032 75.7467 294.535 76.291C294.037 76.8353 293.344 77.1074 292.456 77.1074C291.901 77.1074 291.41 76.9821 290.984 76.7314C290.558 76.4808 290.231 76.1209 290.001 75.6519C289.772 75.1828 289.658 74.6385 289.658 74.019C289.658 73.0558 289.905 72.3039 290.399 71.7632C290.893 71.2225 291.59 70.9521 292.488 70.9521C293.348 70.9521 294.028 71.2297 294.529 71.7847C295.031 72.3361 295.281 73.0809 295.281 74.019ZM290.958 74.019C290.958 75.3905 291.464 76.0762 292.478 76.0762C293.48 76.0762 293.981 75.3905 293.981 74.019C293.981 72.6619 293.477 71.9834 292.467 71.9834C291.937 71.9834 291.552 72.1589 291.312 72.5098C291.076 72.8607 290.958 73.3638 290.958 74.019ZM301.743 77H300.475V73.3369C300.475 72.8822 300.389 72.5438 300.217 72.3218C300.045 72.0962 299.777 71.9834 299.412 71.9834C298.925 71.9834 298.567 72.1427 298.337 72.4614C298.112 72.7765 297.999 73.3029 297.999 74.0405V77H296.737V71.0596H297.725L297.902 71.8384H297.967C298.132 71.5555 298.37 71.3371 298.681 71.1831C298.996 71.0291 299.342 70.9521 299.718 70.9521C300.631 70.9521 301.236 71.2637 301.533 71.8867H301.619C301.795 71.5931 302.042 71.3639 302.36 71.1992C302.679 71.0345 303.044 70.9521 303.456 70.9521C304.165 70.9521 304.681 71.1312 305.003 71.4893C305.329 71.8473 305.492 72.3934 305.492 73.1274V77H304.229V73.3369C304.229 72.8822 304.142 72.5438 303.966 72.3218C303.794 72.0962 303.526 71.9834 303.161 71.9834C302.67 71.9834 302.31 72.1374 302.081 72.4453C301.855 72.7497 301.743 73.2188 301.743 73.8525V77ZM309.848 77.1074C308.924 77.1074 308.201 76.8389 307.678 76.3018C307.159 75.7611 306.899 75.0181 306.899 74.0728C306.899 73.1024 307.141 72.3397 307.624 71.7847C308.107 71.2297 308.772 70.9521 309.617 70.9521C310.401 70.9521 311.02 71.1903 311.475 71.6665C311.93 72.1427 312.157 72.798 312.157 73.6323V74.3145H308.199C308.217 74.891 308.372 75.335 308.666 75.6465C308.96 75.9544 309.373 76.1084 309.907 76.1084C310.258 76.1084 310.583 76.0762 310.884 76.0117C311.189 75.9437 311.514 75.8327 311.862 75.6787V76.7046C311.554 76.8514 311.242 76.9552 310.927 77.0161C310.612 77.077 310.252 77.1074 309.848 77.1074ZM309.617 71.9082C309.216 71.9082 308.893 72.0353 308.65 72.2896C308.41 72.5438 308.267 72.9144 308.22 73.4014H310.917C310.909 72.9108 310.791 72.5402 310.562 72.2896C310.333 72.0353 310.018 71.9082 309.617 71.9082ZM321.782 71.5215C321.782 72.3415 321.514 72.9699 320.977 73.4067C320.439 73.8436 319.675 74.062 318.683 74.062H317.867V77H316.583V69.1475H318.844C319.825 69.1475 320.559 69.348 321.046 69.749C321.537 70.1501 321.782 70.7409 321.782 71.5215ZM317.867 72.9824H318.549C319.208 72.9824 319.691 72.8678 319.999 72.6387C320.307 72.4095 320.461 72.0514 320.461 71.5645C320.461 71.1133 320.323 70.7767 320.047 70.5547C319.772 70.3327 319.342 70.2217 318.758 70.2217H317.867V72.9824ZM326.933 77L326.681 76.1729H326.638C326.351 76.5345 326.063 76.7816 325.773 76.9141C325.483 77.043 325.111 77.1074 324.656 77.1074C324.072 77.1074 323.616 76.9499 323.286 76.6348C322.96 76.3197 322.797 75.8739 322.797 75.2974C322.797 74.6851 323.025 74.2231 323.479 73.9116C323.934 73.6001 324.627 73.43 325.558 73.4014L326.584 73.3691V73.0522C326.584 72.6727 326.494 72.3898 326.315 72.2036C326.14 72.0138 325.866 71.9189 325.494 71.9189C325.189 71.9189 324.897 71.9637 324.618 72.0532C324.339 72.1427 324.07 72.2484 323.812 72.3701L323.404 71.4678C323.727 71.2995 324.079 71.1724 324.462 71.0864C324.846 70.9969 325.207 70.9521 325.547 70.9521C326.303 70.9521 326.872 71.1169 327.255 71.4463C327.642 71.7757 327.835 72.2931 327.835 72.9985V77H326.933ZM325.053 76.1406C325.512 76.1406 325.879 76.0135 326.154 75.7593C326.434 75.5015 326.573 75.1416 326.573 74.6797V74.1641L325.811 74.1963C325.216 74.2178 324.783 74.318 324.511 74.4971C324.242 74.6725 324.108 74.9429 324.108 75.3081C324.108 75.5731 324.187 75.779 324.344 75.9258C324.502 76.069 324.738 76.1406 325.053 76.1406ZM334.614 71.0596V71.7524L333.599 71.9404C333.692 72.0658 333.769 72.2197 333.83 72.4023C333.89 72.585 333.921 72.7783 333.921 72.9824C333.921 73.5947 333.71 74.0763 333.287 74.4272C332.865 74.7782 332.283 74.9536 331.542 74.9536C331.352 74.9536 331.18 74.9393 331.026 74.9106C330.754 75.0789 330.618 75.2759 330.618 75.5015C330.618 75.6375 330.68 75.7396 330.806 75.8076C330.935 75.8757 331.169 75.9097 331.509 75.9097H332.546C333.201 75.9097 333.699 76.0493 334.039 76.3286C334.379 76.6079 334.549 77.0107 334.549 77.5371C334.549 78.2103 334.272 78.7295 333.717 79.0947C333.162 79.46 332.36 79.6426 331.311 79.6426C330.501 79.6426 329.884 79.4993 329.458 79.2129C329.031 78.9264 328.818 78.5182 328.818 77.9883C328.818 77.623 328.933 77.3151 329.162 77.0645C329.395 76.8174 329.719 76.6455 330.134 76.5488C329.966 76.4772 329.826 76.3626 329.715 76.2051C329.608 76.0439 329.554 75.8757 329.554 75.7002C329.554 75.4782 329.617 75.2902 329.742 75.1362C329.868 74.9823 330.054 74.8301 330.301 74.6797C329.993 74.5472 329.742 74.3324 329.549 74.0352C329.359 73.7344 329.264 73.3835 329.264 72.9824C329.264 72.3379 329.466 71.8384 329.871 71.4839C330.279 71.1294 330.859 70.9521 331.611 70.9521C331.78 70.9521 331.955 70.9647 332.138 70.9897C332.324 71.0112 332.464 71.0345 332.557 71.0596H334.614ZM329.946 77.9238C329.946 78.196 330.068 78.4054 330.312 78.5522C330.559 78.6991 330.904 78.7725 331.348 78.7725C332.036 78.7725 332.548 78.674 332.884 78.4771C333.221 78.2801 333.389 78.0187 333.389 77.6929C333.389 77.4351 333.296 77.2507 333.11 77.1396C332.927 77.0322 332.585 76.9785 332.084 76.9785H331.128C330.766 76.9785 330.478 77.0627 330.263 77.231C330.052 77.4028 329.946 77.6338 329.946 77.9238ZM330.489 72.9824C330.489 73.3548 330.584 73.6413 330.773 73.8418C330.967 74.0423 331.243 74.1426 331.601 74.1426C332.331 74.1426 332.696 73.7523 332.696 72.9717C332.696 72.585 332.605 72.2878 332.422 72.0801C332.243 71.8688 331.969 71.7632 331.601 71.7632C331.235 71.7632 330.958 71.867 330.768 72.0747C330.582 72.2824 330.489 72.585 330.489 72.9824ZM338.314 77.1074C337.391 77.1074 336.667 76.8389 336.145 76.3018C335.625 75.7611 335.366 75.0181 335.366 74.0728C335.366 73.1024 335.607 72.3397 336.091 71.7847C336.574 71.2297 337.238 70.9521 338.083 70.9521C338.868 70.9521 339.487 71.1903 339.942 71.6665C340.397 72.1427 340.624 72.798 340.624 73.6323V74.3145H336.666C336.683 74.891 336.839 75.335 337.133 75.6465C337.426 75.9544 337.84 76.1084 338.374 76.1084C338.724 76.1084 339.05 76.0762 339.351 76.0117C339.655 75.9437 339.981 75.8327 340.329 75.6787V76.7046C340.021 76.8514 339.709 76.9552 339.394 77.0161C339.079 77.077 338.719 77.1074 338.314 77.1074ZM338.083 71.9082C337.682 71.9082 337.36 72.0353 337.117 72.2896C336.877 72.5438 336.734 72.9144 336.687 73.4014H339.383C339.376 72.9108 339.258 72.5402 339.029 72.2896C338.8 72.0353 338.485 71.9082 338.083 71.9082Z" fill="#A650FF"/>
</svg>
