<svg width="358" height="189" viewBox="0 0 358 189" fill="none" xmlns="http://www.w3.org/2000/svg">
<path d="M5.89669 58.311L3.79907 68.3796C1.84128 69.0788 0.722551 69.9878 0.932313 71.3862C1.9112 70.8968 2.68033 70.6171 3.37954 70.4073L2.47057 74.6725C2.26081 75.7912 2.33073 76.6303 2.75025 77.1197C3.16978 77.6092 3.86899 77.749 4.9178 77.749L6.66582 69.4984C8.69352 68.8691 10.8611 68.3796 13.0985 68.03L11.7001 74.7424C11.4904 75.7912 11.5603 76.6303 11.9798 77.1897C12.3993 77.6791 13.0985 77.8189 14.1473 77.8189L18.2028 58.311H15.1262L13.6579 65.5129C11.3505 65.9324 9.18297 66.4218 7.15526 67.0511L8.97321 58.311H5.89669ZM33.026 61.2477L30.2291 74.6725C30.0194 75.7213 30.0893 76.5604 30.5088 77.1197C30.9283 77.6092 31.6275 77.749 32.6764 77.749L36.1025 61.2477H33.026ZM38.5497 65.5828L36.6618 74.7424C36.4521 75.7912 36.522 76.6303 36.9415 77.1897C37.3611 77.6791 38.0603 77.8189 39.1091 77.8189L41.6961 65.6527H38.5497V65.5828ZM63.861 65.373C63.022 65.373 62.3228 65.443 61.5537 65.6527V67.8203C61.9033 67.6105 62.2529 67.4707 62.6724 67.4007C63.4415 67.2609 64.2806 67.3308 64.4204 67.6105L63.3716 72.6448C63.1618 73.6936 62.8122 74.3928 62.3927 74.9522C62.113 75.2319 61.8333 75.5116 61.4837 75.6514V77.4693C61.9732 77.2596 62.4626 76.91 62.8821 76.4205C62.9521 76.7701 63.0919 77.0498 63.3017 77.2596C63.7212 77.749 64.2806 77.8889 65.3294 77.8889L67.7067 66.5617C66.518 65.8625 65.2595 65.443 63.861 65.373ZM61.6236 65.6527C60.2951 66.0023 59.1064 66.7015 58.0576 67.7503C56.9389 68.939 56.1698 70.3374 55.8201 71.8058C55.6104 72.8546 55.5405 73.9733 55.7502 75.092C56.0998 76.4904 57.0088 77.6092 59.1064 77.8189C59.8756 77.8889 60.7845 77.749 61.6236 77.3994V75.5815C61.2041 75.7912 60.7845 75.7912 60.365 75.7213C59.6658 75.5815 59.0365 75.092 58.8267 74.253C58.5471 73.2042 58.7568 72.0155 59.1763 70.8968C59.6658 69.7081 60.4349 68.4496 61.5537 67.8203V65.6527H61.6236ZM73.1605 82.8532C75.0484 82.5736 76.7964 81.8044 77.985 80.1263C78.6143 79.2174 79.1038 77.8889 79.3835 76.4904L81.7608 65.5828H78.6842L77.2159 72.435C76.8663 73.6936 76.3769 74.5327 75.8175 75.0221C75.1183 75.5815 73.9296 75.8612 73.1605 75.2319V77.6791C73.7898 77.6092 74.3492 77.5393 75.1882 77.1897C75.6077 76.9799 75.9573 76.84 76.3769 76.4205C76.0972 77.6791 75.7476 78.9377 75.0484 79.8466C74.5589 80.406 73.9996 80.8955 73.1605 81.1052V82.8532ZM73.1605 70.6171V65.5828H74.2093L73.1605 70.6171ZM70.1539 76.84C69.4547 77.1197 68.7555 77.3295 68.2661 77.8189C67.7067 78.3084 67.3571 78.9377 67.3571 79.6369V79.9865C67.427 80.8255 67.8465 81.6646 68.6157 82.154C69.6645 82.9232 71.2726 83.1329 72.9507 82.9232H73.1605V81.1751C73.0906 81.1751 72.9507 81.2451 72.8808 81.2451C72.3215 81.315 71.5523 81.315 70.8531 80.8955C69.9442 80.406 69.8043 79.6369 70.084 79.0076C70.2938 78.3783 71.0629 78.1685 71.6223 78.0287C71.9719 77.9588 72.2515 77.8889 72.5312 77.8889H72.6711C72.8109 77.8889 73.0207 77.8189 73.1605 77.8189V75.3717L73.0207 75.2319C72.5312 74.6725 72.5312 73.7635 72.6711 73.1342L73.1605 70.7569V65.7226H71.1328L69.4547 73.4139C69.175 74.8123 69.4547 76.001 70.1539 76.84ZM50.7859 65.373C50.0167 65.373 49.2476 65.443 48.4785 65.6527V67.8203C48.8281 67.6105 49.2476 67.4707 49.5972 67.4007C50.3663 67.2609 51.2054 67.3308 51.3452 67.6105L50.2964 72.6448C50.0866 73.6936 49.737 74.3928 49.3175 74.9522C49.0378 75.2319 48.7581 75.5116 48.4085 75.6514V77.4693C48.898 77.2596 49.3874 76.91 49.807 76.4205C49.8769 76.7701 50.0167 77.0498 50.2265 77.2596C50.646 77.749 51.2054 77.8889 52.2542 77.8889L56.3795 59.0102H53.303L51.9745 65.5129C51.555 65.443 51.2054 65.373 50.7859 65.373ZM48.5484 65.5828C47.15 65.9324 45.8914 66.6316 44.8426 67.6804C43.7238 68.8691 42.9547 70.1976 42.6051 71.7358C42.3254 72.9245 42.3254 74.253 42.675 75.3018C43.1645 76.7002 44.2133 77.6092 46.0312 77.749C46.8004 77.8189 47.7093 77.6791 48.5484 77.3295V75.5116C48.1289 75.6514 47.7093 75.7213 47.2898 75.6514C46.5906 75.5116 45.9613 75.0221 45.7516 74.1831C45.4719 73.1342 45.5418 71.8757 46.0312 70.7569C46.5207 69.5683 47.3597 68.3796 48.5484 67.6804V65.5828ZM23.2371 77.749C24.9851 77.3994 26.3835 76.4904 27.3624 75.2319C28.2713 74.1131 28.8307 72.6448 29.1104 71.1765C29.1803 70.687 29.2502 70.1976 29.2502 69.6382C29.2502 68.5195 28.9706 67.4707 28.3413 66.7015C27.1526 65.373 25.055 65.0934 23.2371 65.443V67.5406C23.4468 67.4707 23.7265 67.4007 23.9363 67.4007C24.6355 67.4007 25.4745 67.6804 25.894 68.6593C26.1737 69.3585 26.1038 70.2675 25.964 71.1765C25.7542 72.435 25.2648 73.6936 24.6355 74.4627C24.2159 75.0221 23.7265 75.4416 23.2371 75.6514V77.749ZM21.7687 65.9324C19.9508 66.7015 18.6223 68.2398 17.9231 70.0577C17.1539 72.0155 16.7344 74.9522 18.3426 76.6303C19.4613 77.749 21.4191 78.0287 23.0273 77.749C23.0972 77.749 23.1671 77.749 23.2371 77.6791V75.6514C23.0273 75.7213 22.8175 75.7912 22.6078 75.7912C21.9086 75.8612 21.2093 75.5815 20.7898 74.8123C19.8809 73.2741 20.8597 70.2675 21.6988 68.8691C22.1183 68.2398 22.6777 67.7503 23.307 67.4707V65.373C22.7476 65.5828 22.1882 65.7226 21.7687 65.9324ZM42.1856 62.9957C42.5352 62.5063 42.675 62.0168 42.675 61.5973C42.6051 60.6184 41.6262 60.2688 40.7173 60.5485C39.8782 60.8282 39.2489 61.4575 39.1091 62.3664C39.0392 62.8559 39.1091 63.2754 39.3888 63.5551C39.7384 63.9746 40.4376 64.1145 41.0669 63.8348C41.4864 63.625 41.9059 63.2754 42.1856 62.9957ZM88.9626 58.381L85.5365 74.7424C85.3267 75.7912 85.3967 76.6303 85.8162 77.1897C86.2357 77.6791 86.9349 77.8189 87.9837 77.8189L92.0391 58.4509L88.9626 58.381ZM100.22 70.3374L99.3109 74.7424C99.1011 75.7912 99.1711 76.6303 99.5906 77.1897C100.01 77.6791 100.709 77.8189 101.758 77.8189L103.436 69.9878C103.646 68.939 103.716 67.6105 103.157 66.7015C102.108 65.0234 99.3808 65.0934 97.7726 65.8625C97.2133 66.1422 96.6539 66.5617 96.0945 67.1211L95.675 65.5828H93.2977C93.2977 66.9113 93.0879 68.3097 92.7383 69.778L91.1301 77.5393H94.2067L95.5352 71.1765C95.7449 70.1277 96.0945 69.0788 96.7937 68.3097C97.2133 67.8902 97.7726 67.6105 98.4019 67.5406C99.0312 67.4707 99.7304 67.6804 100.01 68.3097C100.29 68.7292 100.36 69.4284 100.22 70.3374ZM113.645 70.3374L112.736 74.7424C112.526 75.7912 112.596 76.6303 113.015 77.1897C113.435 77.6791 114.134 77.8189 115.183 77.8189L116.861 69.9878C117.071 68.939 117.141 67.6105 116.581 66.7015C115.533 65.0234 112.806 65.0934 111.197 65.8625C110.638 66.1422 110.079 66.5617 109.519 67.1211L109.1 65.5828H106.722C106.722 66.9113 106.513 68.3097 106.163 69.778L104.555 77.6092H107.631L108.96 71.2464C109.17 70.1976 109.519 69.1488 110.219 68.3796C110.638 67.9601 111.197 67.6804 111.827 67.6105C112.456 67.5406 113.155 67.7503 113.435 68.3796C113.784 68.7292 113.854 69.4284 113.645 70.3374Z" fill="white"/>
<path d="M57.2188 4.12244C55.1911 8.59737 53.3731 13.4918 51.9048 18.8058C52.604 18.5261 53.3032 18.1765 54.0024 17.8968C56.3797 16.9179 58.6871 16.0789 60.9246 15.3797C62.0433 11.3942 63.3718 7.33879 64.98 3.98259C66.5882 0.696316 68.1964 0.416633 71.7623 1.11584C70.1541 4.96148 68.546 9.08681 67.1475 13.5617C72.8811 12.0934 78.6845 11.1844 85.1871 10.8348V15.1699C77.6357 15.5195 71.3428 16.5683 65.7491 18.0367C63.3019 26.6369 61.484 36.286 60.3652 47.3335C55.1212 48.3823 54.9813 45.4456 55.4009 42.1594C56.2399 35.377 57.4985 28.7346 59.1766 22.0921C59.3863 21.3929 59.5262 20.6237 59.7359 19.8546C56.5895 20.9734 53.5829 22.162 50.7162 23.4905C49.4576 29.0142 48.4787 35.0974 47.9193 41.8098C42.885 43.0683 43.0948 38.8032 43.5143 35.5169C43.9338 32.3005 44.4233 29.224 44.9826 26.3573C42.2557 27.7557 39.7386 29.1541 37.2214 30.6224C35.9629 28.2451 38.0605 26.4272 39.8784 25.3084C41.4866 24.3295 43.5842 23.071 45.9615 21.8124C47.2201 16.4984 48.8283 11.6739 50.5763 7.33879C52.0447 3.91267 54.2821 3.70291 57.2188 4.12244Z" fill="white"/>
<path d="M82.0403 11.0447L85.1868 10.835V15.1701C77.6353 15.5197 71.3424 16.5685 65.7488 18.0368C63.3016 26.6371 61.4836 36.2861 60.3649 47.3336C55.1208 48.3824 54.981 45.4458 55.4005 42.1595C56.2396 35.3772 57.4981 28.7347 59.1762 22.0922C59.386 21.393 59.5258 20.6239 59.7356 19.8547C56.5892 20.9735 53.5826 22.1621 50.7158 23.4906C49.4572 29.0144 48.4783 35.0975 47.919 41.8099C42.8847 43.0685 43.0944 38.8033 43.514 35.517C43.9335 32.3007 44.4229 29.2241 44.9823 26.3574C42.3253 27.7558 39.7382 29.1542 37.291 30.5526C42.3253 24.6094 62.3227 14.7505 81.6907 11.1846L82.0403 11.0447Z" fill="white"/>
<path d="M211.601 34.6323V34.6129H214.169V37.192H215.178V31.4189H214.169V33.7237H211.601V31.4189H210.592V37.192H211.601V34.6323Z" fill="white"/>
<path d="M231.735 34.3517C231.755 33.9628 231.697 33.574 231.563 33.2085C231.429 32.843 231.223 32.5085 230.957 32.2251C230.691 31.9418 230.371 31.7155 230.015 31.5599C229.659 31.4043 229.276 31.3226 228.888 31.3197C228.496 31.3077 228.105 31.3756 227.74 31.5194C227.375 31.6633 227.043 31.88 226.763 32.1565C226.484 32.4329 226.264 32.7634 226.116 33.1279C225.967 33.4924 225.894 33.8833 225.901 34.2769C225.884 34.6675 225.947 35.0574 226.084 35.4233C226.221 35.7892 226.431 36.1234 226.7 36.4058C226.969 36.6883 227.293 36.9132 227.651 37.0669C228.009 37.2207 228.395 37.3001 228.784 37.3005C229.176 37.3198 229.567 37.2568 229.933 37.1156C230.299 36.9744 230.631 36.7581 230.909 36.4805C231.187 36.2029 231.404 35.8702 231.546 35.5036C231.688 35.137 231.753 34.7447 231.735 34.3517ZM230.66 34.4417C230.681 34.6842 230.651 34.9284 230.572 35.1588C230.494 35.3891 230.369 35.6005 230.204 35.7795C230.04 35.9585 229.84 36.1012 229.618 36.1986C229.395 36.2959 229.155 36.3457 228.913 36.3448C228.641 36.3365 228.373 36.2724 228.127 36.1564C227.881 36.0404 227.661 35.8749 227.48 35.6702C227.3 35.4656 227.164 35.226 227.079 34.9663C226.995 34.7067 226.965 34.4324 226.99 34.1605C226.97 33.9158 227.002 33.6696 227.082 33.4377C227.162 33.2057 227.29 32.9931 227.457 32.8134C227.623 32.6337 227.826 32.4908 228.05 32.3939C228.275 32.297 228.518 32.2482 228.762 32.2505C229.031 32.2677 229.293 32.3382 229.535 32.458C229.776 32.5777 229.991 32.7444 230.167 32.9482C230.344 33.152 230.478 33.389 230.563 33.6454C230.648 33.9018 230.681 34.1724 230.66 34.4417Z" fill="white"/>
<path d="M243.26 32.3321V37.1924H244.269V32.3321H246.145V31.4429H241.393V32.3321H243.26Z" fill="white"/>
<path d="M257.587 36.2865V34.6133H259.586V33.7241H257.587V32.3321H259.776V31.4429H256.578V37.1757H260.038L260.212 36.2865H257.59H257.587Z" fill="white"/>
<path d="M274.082 36.2861H271.641V31.4189H270.632V37.1754H273.918L274.082 36.2861Z" fill="white"/>
<path d="M158.902 47.6714H157.979L143.985 64.1303V47.6714H142.424V78.4549H143.985V65.6567L146.991 62.158L161.522 78.3967L161.573 78.4549H163.642L148.081 61.0194L158.902 47.6714Z" fill="white"/>
<path d="M173.094 48.3695H177.636V77.7568H173.094V78.4549H183.739V77.7568H179.197V48.3695H183.739V47.6714H173.094V48.3695Z" fill="white"/>
<path d="M215.524 76.5905L197.348 47.7531L197.297 47.6714H195.813V78.4549H196.509V49.2712L215.552 79.243L215.604 79.3233H216.22V47.6714H215.524V76.5905Z" fill="white"/>
<path d="M279.207 77.7568H264.519V47.6714H262.958V78.4549H279.902V71.0294H279.207V77.7568Z" fill="white"/>
<path d="M309.474 77.7568H293.629V62.5223H303.535V61.8256H293.629V48.3695H307.917V55.0982H308.613V47.6714H292.068V78.4549H310.169V70.0308H309.474V77.7568Z" fill="white"/>
<path d="M341.111 47.6714L331.223 64.8173L321.556 47.76L321.505 47.6714H319.676L330.138 66.0404L330.095 78.2803V78.4549H331.699V65.4337L341.947 47.6714H341.111Z" fill="white"/>
<path d="M248.704 64.7911C246.51 62.8814 243.891 61.5282 241.068 60.845L240.378 60.6178C238.365 60.0416 236.455 59.1502 234.719 57.9765C234.049 57.5033 233.499 56.8772 233.117 56.1496C232.774 55.4292 232.604 54.6386 232.619 53.8406C232.618 53.0092 232.838 52.1926 233.256 51.4749C233.707 50.705 234.311 50.0361 235.03 49.5095C236.129 48.6415 237.425 48.0607 238.803 47.8189C240.18 47.5772 241.596 47.6822 242.923 48.1244C243.8 48.4006 244.64 48.7805 245.427 49.256C245.999 49.5983 246.522 50.0177 246.981 50.5026C247.358 50.9264 247.606 51.2159 247.74 51.3849L247.835 51.5068L249.133 50.7131L249.005 50.558C248.71 50.2251 248.392 49.9136 248.054 49.6258C247.477 49.1382 246.839 48.7285 246.156 48.4069C245.237 47.9662 244.277 47.6196 243.289 47.3723C241.552 46.9079 239.725 46.8931 237.981 47.3291C236.236 47.7651 234.63 48.6377 233.313 49.8654C232.603 50.4954 232.062 51.2929 231.737 52.1858C231.412 53.0787 231.314 54.0388 231.452 54.9792C231.76 56.2982 232.368 57.5282 233.227 58.5732C234.086 59.6183 235.174 60.4502 236.406 61.0043C237.75 61.6233 239.133 62.1522 240.547 62.5874C243.025 63.2209 245.348 64.358 247.372 65.9282C248.078 66.5381 248.636 67.303 249 68.1638C249.328 68.9946 249.494 69.881 249.488 70.7747C249.492 71.8478 249.272 72.91 248.842 73.8925C248.408 74.868 247.767 75.7365 246.963 76.4369C246.075 77.1958 245.048 77.7744 243.94 78.1405C243.008 78.4627 242.035 78.6516 241.05 78.7015C240.581 78.7256 240.11 78.7187 239.641 78.6807C237.735 78.4954 235.886 77.9239 234.206 77.0006C233.398 76.5745 232.625 76.0864 231.893 75.5407C231.557 75.2991 231.241 75.0309 230.948 74.7388L230.907 74.6944C230.314 74.0656 230.294 74.0448 230.155 74.1501L229.941 74.3108C229.687 74.4991 229.433 74.6875 229.176 74.8731L229.001 74.9992L229.162 75.1377C229.819 75.7269 230.518 76.2649 231.256 76.7471C233.907 78.477 236.998 79.4054 240.16 79.4217C241.573 79.4309 242.978 79.2101 244.32 78.768C245.591 78.3584 246.78 77.7243 247.829 76.8953C248.779 76.1348 249.562 75.1838 250.127 74.103C250.674 73.0461 250.958 71.8717 250.955 70.6805C250.957 69.6102 250.783 68.5469 250.44 67.5336C250.077 66.4986 249.483 65.5606 248.704 64.7911Z" fill="white"/>
<path d="M168.474 145.277L161.997 144.89L161.688 143.961C163.153 143.265 164.85 142.8 166.161 142.104C169.168 140.401 169.399 140.169 169.785 138.234C170.787 133.282 171.712 128.406 174.642 123.918C178.729 117.417 184.512 115.947 191.914 116.953C191.914 118.036 191.991 119.197 192.068 121.054L185.514 119.971C182.738 119.507 180.04 119.197 179.037 122.757C177.495 128.406 176.03 134.21 174.565 139.859C176.373 139.813 178.166 140.183 179.808 140.943C180.811 141.252 182.044 141.485 182.584 142.258C181.394 142.515 180.176 142.619 178.96 142.568C173.948 142.336 173.948 143.729 173.1 148.372C171.558 156.42 170.71 165.01 167.703 172.672C166.546 175.457 166.932 174.684 163.847 182.268C163.462 183.196 160.84 187.685 159.915 188.304C162.845 173.755 165.621 159.671 168.474 145.277Z" fill="white"/>
<path d="M17.6547 149.378V150.848C18.9009 149.663 20.5649 149.023 22.2811 149.068C23.0546 149.047 23.822 149.211 24.5195 149.548C25.2169 149.884 25.8241 150.383 26.2906 151.003C27.3418 152.548 27.8567 154.397 27.7556 156.265C27.7681 158.229 27.1156 160.139 25.905 161.682C25.4124 162.419 24.747 163.023 23.9672 163.442C23.1874 163.86 22.3171 164.08 21.4329 164.081C19.8047 164.048 18.2328 163.477 16.9608 162.456C16.42 163.201 15.7389 163.832 14.956 164.313C14.7656 164.284 14.5865 164.204 14.4373 164.081C14.2882 163.959 14.1744 163.798 14.1079 163.617C14.739 162.564 15.0846 161.363 15.1102 160.135V143.109L12.72 142.645C12.6021 142.27 12.55 141.877 12.5657 141.484C14.1429 140.863 15.8087 140.497 17.5005 140.401L17.8089 140.633C17.7318 143.342 17.6547 146.282 17.6547 149.378ZM21.4329 151.158C20.0771 151.24 18.77 151.695 17.6547 152.473V160.212C18.1873 160.788 18.8309 161.25 19.5466 161.569C20.2624 161.889 21.0353 162.059 21.8184 162.069L22.8979 161.914L23.669 161.528C24.6855 160.286 25.2317 158.723 25.2111 157.116C25.2645 155.658 24.9178 154.212 24.2087 152.938C23.9537 152.413 23.5597 151.97 23.07 151.656C22.5803 151.342 22.0139 151.17 21.4329 151.158Z" fill="white"/>
<path d="M31.8425 159.129V151.39C31.0932 151.109 30.3185 150.902 29.5293 150.771C29.5339 150.303 29.5856 149.836 29.6835 149.378H34.2328L34.4641 149.61V157.968C34.4641 160.599 35.2351 161.837 36.7772 161.837C37.5187 161.785 38.235 161.546 38.8591 161.141C39.572 160.657 40.2427 160.113 40.8639 159.516V151.39L38.5507 150.771C38.5172 150.301 38.5694 149.829 38.7049 149.378H43.2541L43.4855 149.61C43.4855 151.622 43.4083 154.563 43.4083 158.355V159.438C43.4054 160.24 43.4569 161.042 43.5626 161.837L45.4902 161.373C45.7808 161.659 45.947 162.048 45.9528 162.456C45.4654 162.947 44.8898 163.341 44.2565 163.617C43.7017 163.878 43.0956 164.01 42.4831 164.004C42.0975 164.004 41.7891 163.772 41.5578 163.153C41.2495 162.518 41.0414 161.839 40.941 161.141C40.2255 161.949 39.424 162.675 38.5507 163.308C37.7827 163.771 36.9021 164.012 36.0062 164.004C33.2304 164.081 31.8425 162.456 31.8425 159.129Z" fill="white"/>
<path d="M49.5769 159.748V151.235L47.3408 150.848C47.1997 150.451 47.173 150.022 47.2637 149.61C48.0209 149.421 48.7967 149.317 49.5769 149.3L50.5792 145.122C51.0983 145.084 51.6199 145.137 52.1213 145.276V149.3H56.9019C56.8954 149.922 56.8438 150.543 56.7477 151.158H52.1213V158.509C52.1213 160.754 52.584 161.914 53.5864 161.914C54.6211 161.857 55.6384 161.622 56.5935 161.218C56.9045 161.614 57.0681 162.107 57.0561 162.611C55.6433 163.495 54.0174 163.976 52.3527 164.004C51.9539 164.059 51.5476 164.002 51.1798 163.838C50.8119 163.674 50.497 163.41 50.2708 163.075C49.7459 162.049 49.5062 160.899 49.5769 159.748Z" fill="white"/>
<path d="M60.1401 159.748V151.235L57.9041 150.848C57.7994 150.444 57.7732 150.024 57.827 149.61C58.5841 149.421 59.36 149.317 60.1401 149.3L61.1425 145.122C61.6616 145.084 62.1832 145.137 62.6846 145.276V149.3H67.4652C67.4587 149.922 67.4071 150.543 67.311 151.158H62.6846V158.509C62.6846 160.754 63.2244 161.914 64.1496 161.914C65.1865 161.872 66.2064 161.636 67.1568 161.218C67.49 161.607 67.6805 162.098 67.6965 162.611C66.279 163.485 64.656 163.965 62.9931 164.004C62.5834 164.057 62.1671 163.998 61.7874 163.835C61.4077 163.672 61.0786 163.409 60.8341 163.075C60.3092 162.049 60.0695 160.899 60.1401 159.748Z" fill="white"/>
<path d="M69.0075 156.73C68.9892 154.775 69.6735 152.879 70.9351 151.39C71.452 150.641 72.1441 150.031 72.9507 149.612C73.7572 149.194 74.6537 148.981 75.5615 148.991C77.4891 148.991 78.877 149.455 79.7252 150.539C80.5874 151.637 81.0255 153.011 80.9589 154.408C80.9672 155.031 80.9155 155.653 80.8047 156.265L80.5733 156.575H71.552C71.6174 157.415 71.7725 158.245 72.0146 159.051C72.3014 159.832 72.7479 160.544 73.3254 161.141C74.0006 161.693 74.845 161.993 75.7157 161.992C77.3595 161.91 78.9769 161.544 80.4962 160.909C80.8085 161.187 81.0019 161.575 81.036 161.992C80.1464 162.615 79.1893 163.134 78.1831 163.54C77.2315 163.944 76.2093 164.155 75.1759 164.159C73.0941 164.159 71.552 163.54 70.5496 162.147C69.4434 160.567 68.9001 158.658 69.0075 156.73ZM73.0941 151.545C72.2764 152.476 71.7648 153.638 71.6291 154.872H78.3373C78.3281 154.379 78.2765 153.887 78.1831 153.402C78.0968 152.991 77.9402 152.599 77.7204 152.241C77.4952 151.858 77.1768 151.539 76.7952 151.313C76.2761 151.121 75.729 151.016 75.1759 151.003C74.4387 150.912 73.6945 151.106 73.0941 151.545Z" fill="white"/>
<path d="M87.667 149.068L87.8983 149.301C88.1067 150.167 88.2612 151.046 88.361 151.932C89.5947 149.997 91.0597 149.068 92.6018 149.068C93.4395 149.065 94.2725 149.195 95.0692 149.455C95.0924 151.225 94.9112 152.99 94.5294 154.718C94.0004 154.87 93.4392 154.87 92.9102 154.718C92.8826 153.577 92.7796 152.44 92.6018 151.313H91.8307C91.2084 151.301 90.5948 151.462 90.0573 151.777C89.3816 152.315 88.8072 152.971 88.361 153.712V159.593C88.361 160.367 88.4381 161.141 88.5152 161.915C89.7176 161.92 90.9126 162.102 92.0621 162.456C92.0746 162.9 92.0227 163.343 91.9078 163.772H83.5033C83.3147 163.361 83.235 162.908 83.272 162.456C84.1067 162.337 84.9314 162.156 85.7394 161.915C85.8017 161.349 85.8275 160.781 85.8165 160.212V151.854L83.4262 151.313C83.3257 150.934 83.2996 150.54 83.3491 150.152C84.7258 149.574 86.1815 149.209 87.667 149.068Z" fill="white"/>
<path d="M107.483 160.135V155.027C107.552 153.992 107.366 152.956 106.943 152.009C106.635 151.39 105.941 151.081 104.862 151.081C103.63 151.13 102.444 151.563 101.469 152.319V159.516C101.469 160.29 101.469 161.064 101.546 161.837C102.344 161.872 103.129 162.055 103.859 162.379C103.896 162.83 103.816 163.283 103.628 163.695H96.6112C96.4226 163.283 96.343 162.83 96.3799 162.379L98.7702 161.837C98.8563 161.274 98.9078 160.705 98.9244 160.135V151.855L96.5341 151.313C96.4114 150.939 96.3591 150.545 96.3799 150.152C97.7594 149.583 99.2139 149.218 100.698 149.069L100.929 149.301C101.09 149.887 101.219 150.481 101.315 151.081C101.903 150.434 102.617 149.916 103.413 149.556C104.208 149.197 105.069 149.005 105.941 148.991C107.894 148.991 109.128 149.765 109.642 151.313C110.254 150.597 111.01 150.02 111.861 149.62C112.712 149.219 113.637 149.005 114.577 148.991C117.276 148.991 118.663 150.616 118.663 153.867V159.516C118.663 160.29 118.663 161.064 118.741 161.837C119.515 161.862 120.276 162.046 120.977 162.379C121.014 162.83 120.934 163.283 120.745 163.695H113.729C113.54 163.283 113.46 162.83 113.497 162.379C114.332 162.26 115.157 162.079 115.965 161.837C116.027 161.272 116.053 160.704 116.042 160.135V155.027C116.091 154 115.934 152.974 115.579 152.009C115.271 151.39 114.5 151.081 113.42 151.081C112.163 151.183 110.961 151.639 109.951 152.396C109.951 152.861 110.028 153.325 110.028 153.867V159.516C110.028 160.058 110.028 160.831 110.105 161.837C110.772 161.914 111.423 162.097 112.032 162.379C112.079 162.824 112.026 163.273 111.878 163.695H105.401C105.23 163.278 105.151 162.829 105.17 162.379L107.329 161.837C107.415 161.274 107.467 160.705 107.483 160.135Z" fill="white"/>
<path d="M127.454 157.968V159.515C127.454 160.289 127.531 161.063 127.608 161.837C128.381 161.87 129.141 162.054 129.844 162.379C129.857 162.822 129.805 163.266 129.69 163.694H122.596C122.407 163.283 122.328 162.83 122.365 162.379C123.203 162.281 124.03 162.099 124.832 161.837C124.898 161.272 124.924 160.703 124.909 160.135V151.699L122.519 151.235C122.384 150.863 122.358 150.461 122.442 150.074C124.027 149.481 125.689 149.116 127.377 148.991L127.608 149.223C127.531 151.932 127.454 154.872 127.454 157.968ZM125.835 146.592C125.384 146.575 124.951 146.412 124.601 146.128C124.425 145.991 124.284 145.815 124.19 145.613C124.096 145.411 124.052 145.189 124.061 144.967C124.057 144.367 124.277 143.787 124.678 143.342C124.818 143.118 125.007 142.931 125.231 142.794C125.455 142.656 125.708 142.573 125.97 142.551C126.231 142.528 126.495 142.567 126.739 142.664C126.983 142.761 127.201 142.913 127.377 143.109C127.553 143.245 127.693 143.422 127.787 143.624C127.881 143.826 127.926 144.048 127.916 144.27C127.921 144.87 127.7 145.45 127.3 145.895C127.12 146.111 126.897 146.285 126.644 146.406C126.391 146.526 126.114 146.589 125.835 146.592Z" fill="white"/>
<path d="M136.321 149.378V159.515C136.321 160.289 136.398 161.063 136.398 161.837C137.196 161.871 137.981 162.055 138.711 162.379C138.748 162.83 138.668 163.283 138.48 163.694H131.463C131.275 163.283 131.195 162.83 131.232 162.379L133.699 161.837C133.762 161.272 133.787 160.703 133.776 160.135V143.109L131.386 142.645C131.251 142.273 131.225 141.871 131.309 141.484C132.881 140.846 134.55 140.48 136.244 140.401L136.475 140.633C136.398 143.342 136.321 146.282 136.321 149.378Z" fill="white"/>
<path d="M145.034 149.378V155.646C145.885 155.354 146.71 154.992 147.501 154.563L150.277 151.158L148.426 150.694C148.422 150.244 148.5 149.798 148.658 149.378H154.903C155.018 149.807 155.07 150.25 155.058 150.694C154.422 150.994 153.747 151.203 153.053 151.313L149.198 155.414C150.037 157.371 151.154 159.195 152.513 160.831C152.855 161.236 153.243 161.6 153.67 161.915C154.113 162.08 154.584 162.159 155.058 162.147H155.983C156.142 162.29 156.261 162.473 156.328 162.676C156.396 162.88 156.41 163.097 156.368 163.308C155.847 163.605 155.269 163.789 154.672 163.849L152.59 164.082C151.588 164.082 150.585 163.385 149.66 161.915C148.653 160.292 147.85 158.551 147.27 156.73L145.034 157.349V159.593C145.034 160.367 145.111 161.141 145.188 161.915C145.961 161.947 146.721 162.131 147.424 162.456C147.437 162.9 147.385 163.343 147.27 163.772H140.176C139.988 163.361 139.908 162.908 139.945 162.456C140.78 162.337 141.604 162.156 142.412 161.915C142.475 161.349 142.5 160.781 142.489 160.212V143.187L140.099 142.723C139.964 142.351 139.938 141.948 140.022 141.562C141.597 140.932 143.264 140.566 144.957 140.479L145.188 140.711C145.111 143.342 145.034 146.283 145.034 149.378Z" fill="white"/>
<path d="M177.649 160.522C177.66 159.972 177.79 159.431 178.029 158.937C178.269 158.442 178.613 158.006 179.037 157.659C179.88 156.81 180.91 156.173 182.045 155.801C183.325 155.356 184.64 155.02 185.977 154.795C186.006 153.788 185.822 152.785 185.437 151.855C185.221 151.525 184.921 151.258 184.569 151.081C184.217 150.905 183.825 150.824 183.432 150.848C182.624 150.821 181.817 150.926 181.042 151.158C180.865 151.945 180.787 152.751 180.811 153.557C180.269 153.854 179.637 153.937 179.037 153.789C178.572 152.77 178.335 151.66 178.343 150.539C179.967 149.537 181.834 149.001 183.741 148.991L185.206 149.146C185.747 149.313 186.265 149.547 186.748 149.842C187.333 150.176 187.793 150.692 188.059 151.313C188.383 152.097 188.54 152.94 188.521 153.789V159.516C188.479 160.319 188.531 161.124 188.676 161.915L190.603 161.451C190.894 161.736 191.06 162.126 191.066 162.534C190.138 163.461 188.903 164.012 187.596 164.082C187.409 164.077 187.228 164.015 187.076 163.904C186.925 163.794 186.81 163.64 186.748 163.463C186.427 162.916 186.217 162.311 186.131 161.683C184.281 163.308 182.584 164.082 181.119 164.082C180.667 164.1 180.216 164.027 179.792 163.868C179.368 163.708 178.981 163.465 178.652 163.153C177.986 162.442 177.626 161.497 177.649 160.522ZM182.661 161.837C183.229 161.81 183.784 161.651 184.281 161.373C184.903 161.077 185.475 160.685 185.977 160.212V156.653C184.885 156.745 183.802 156.926 182.738 157.194L180.965 157.891C180.536 158.411 180.316 159.073 180.348 159.748C180.346 160.022 180.399 160.294 180.505 160.547C180.611 160.8 180.768 161.028 180.965 161.218C181.189 161.434 181.456 161.601 181.748 161.707C182.04 161.814 182.351 161.858 182.661 161.837Z" fill="white"/>
<path d="M197.003 149.378V159.515C197.003 160.289 197.08 161.063 197.157 161.837C197.931 161.87 198.69 162.054 199.393 162.379C199.406 162.822 199.354 163.266 199.239 163.694H192.145C191.957 163.283 191.877 162.83 191.914 162.379C192.749 162.26 193.573 162.079 194.381 161.837C194.444 161.272 194.47 160.703 194.459 160.135V143.109L192.068 142.645C191.934 142.273 191.907 141.871 191.991 141.484C193.566 140.855 195.233 140.489 196.926 140.401L197.157 140.633C197.08 143.342 197.003 146.282 197.003 149.378Z" fill="white"/>
<path d="M205.793 149.378V159.515C205.793 160.289 205.793 161.063 205.87 161.837C206.645 161.861 207.406 162.046 208.106 162.379C208.119 162.822 208.067 163.266 207.952 163.694H200.858C200.705 163.274 200.652 162.823 200.704 162.379L203.095 161.837C203.181 161.273 203.232 160.705 203.249 160.135V143.109L200.781 142.645C200.683 142.267 200.657 141.873 200.704 141.484C202.281 140.863 203.947 140.497 205.639 140.401L205.87 140.633C205.793 143.342 205.793 146.282 205.793 149.378Z" fill="white"/>
<path d="M214.892 164.004C213.287 164.086 211.683 163.822 210.188 163.23C210.182 161.717 210.363 160.209 210.728 158.742C211.178 158.588 211.666 158.588 212.116 158.742C212.161 159.778 212.264 160.812 212.424 161.837C213.317 162.139 214.259 162.27 215.2 162.224C215.925 162.292 216.654 162.13 217.282 161.76C217.493 161.519 217.651 161.236 217.744 160.928C217.837 160.621 217.864 160.298 217.822 159.98C217.822 159.128 217.359 158.432 216.28 157.813L214.814 157.194L213.272 156.575C212.806 156.404 212.364 156.17 211.962 155.878C211.507 155.592 211.135 155.192 210.882 154.717C210.627 154.214 210.495 153.657 210.497 153.092C210.462 152.478 210.595 151.865 210.88 151.32C211.165 150.775 211.592 150.318 212.116 149.997C213.239 149.346 214.521 149.025 215.817 149.068C217.275 149.033 218.73 149.216 220.135 149.61C220.151 150.894 219.969 152.173 219.595 153.402C219.09 153.575 218.538 153.548 218.053 153.324C217.976 152.628 217.822 151.854 217.667 151.003C217.046 150.794 216.395 150.689 215.74 150.693C214.998 150.618 214.251 150.752 213.581 151.08C213.386 151.252 213.236 151.468 213.142 151.711C213.048 151.953 213.013 152.215 213.041 152.473C213.059 152.748 213.137 153.016 213.27 153.257C213.404 153.498 213.589 153.706 213.812 153.866C214.376 154.292 214.999 154.631 215.663 154.872L217.822 155.723C218.546 156.059 219.181 156.563 219.672 157.194C220.195 157.821 220.47 158.62 220.443 159.438C220.467 160.087 220.341 160.732 220.073 161.323C219.805 161.914 219.404 162.435 218.901 162.843C217.724 163.653 216.318 164.06 214.892 164.004Z" fill="white"/>
<path d="M244.575 161.102H242.208V143.084H244.575V161.102Z" fill="white"/>
<path d="M250.715 147.712L250.789 149.395C251.809 148.108 253.14 147.465 254.784 147.465C257.604 147.465 259.026 149.061 259.051 152.254V161.102H256.769V152.242C256.761 151.276 256.539 150.563 256.104 150.101C255.676 149.639 255.006 149.408 254.094 149.408C253.354 149.408 252.705 149.606 252.146 150.002C251.587 150.398 251.151 150.917 250.839 151.561V161.102H248.558V147.712H250.715Z" fill="white"/>
<path d="M264.648 147.712L264.722 149.395C265.742 148.108 267.073 147.465 268.717 147.465C271.537 147.465 272.959 149.061 272.984 152.254V161.102H270.703V152.242C270.694 151.276 270.472 150.563 270.037 150.101C269.609 149.639 268.939 149.408 268.027 149.408C267.287 149.408 266.638 149.606 266.079 150.002C265.52 150.398 265.084 150.917 264.772 151.561V161.102H262.491V147.712H264.648Z" fill="white"/>
<path d="M289.222 151.437H294.228V153.603H289.222V159.295H286.929V153.603H281.923V151.437H286.929V146.178H289.222V151.437Z" fill="white"/>
<path d="M308.926 153.071C306.896 152.485 305.416 151.767 304.487 150.917C303.566 150.059 303.106 149.003 303.106 147.749C303.106 146.33 303.669 145.159 304.795 144.235C305.93 143.303 307.401 142.836 309.21 142.836C310.443 142.836 311.54 143.076 312.502 143.554C313.472 144.033 314.22 144.693 314.746 145.534C315.28 146.376 315.547 147.296 315.547 148.294H313.168C313.168 147.205 312.822 146.351 312.132 145.732C311.441 145.105 310.467 144.792 309.21 144.792C308.042 144.792 307.13 145.052 306.472 145.571C305.823 146.083 305.498 146.796 305.498 147.712C305.498 148.446 305.806 149.069 306.423 149.581C307.048 150.084 308.104 150.546 309.592 150.967C311.088 151.388 312.255 151.854 313.094 152.365C313.94 152.869 314.565 153.458 314.968 154.135C315.379 154.811 315.584 155.608 315.584 156.523C315.584 157.984 315.017 159.155 313.883 160.038C312.748 160.912 311.232 161.35 309.333 161.35C308.1 161.35 306.949 161.114 305.88 160.644C304.812 160.166 303.986 159.514 303.402 158.689C302.827 157.864 302.539 156.928 302.539 155.88H304.919C304.919 156.969 305.317 157.831 306.115 158.466C306.92 159.093 307.993 159.407 309.333 159.407C310.582 159.407 311.54 159.151 312.206 158.639C312.872 158.128 313.205 157.431 313.205 156.548C313.205 155.665 312.896 154.985 312.28 154.506C311.663 154.019 310.545 153.541 308.926 153.071Z" fill="white"/>
<path d="M329.542 154.556C329.542 156.593 329.078 158.235 328.149 159.481C327.22 160.727 325.962 161.35 324.376 161.35C322.756 161.35 321.482 160.834 320.553 159.803V166.25H318.272V147.712H320.356L320.467 149.197C321.396 148.042 322.686 147.465 324.339 147.465C325.942 147.465 327.207 148.071 328.136 149.284C329.073 150.497 329.542 152.184 329.542 154.345V154.556ZM327.261 154.296C327.261 152.786 326.94 151.594 326.299 150.719C325.658 149.845 324.778 149.408 323.661 149.408C322.28 149.408 321.244 150.022 320.553 151.252V157.649C321.236 158.87 322.28 159.481 323.685 159.481C324.778 159.481 325.646 159.048 326.287 158.182C326.936 157.307 327.261 156.012 327.261 154.296Z" fill="white"/>
<path d="M340.688 161.102C340.557 160.838 340.45 160.368 340.368 159.691C339.307 160.797 338.042 161.35 336.57 161.35C335.255 161.35 334.174 160.978 333.327 160.236C332.489 159.485 332.07 158.536 332.07 157.39C332.07 155.995 332.596 154.915 333.648 154.147C334.708 153.372 336.196 152.984 338.111 152.984H340.331V151.932C340.331 151.132 340.093 150.497 339.616 150.026C339.139 149.548 338.436 149.309 337.507 149.309C336.693 149.309 336.011 149.515 335.46 149.927C334.91 150.34 334.634 150.839 334.634 151.425H332.341C332.341 150.756 332.575 150.113 333.044 149.494C333.521 148.867 334.162 148.372 334.967 148.009C335.781 147.646 336.673 147.465 337.643 147.465C339.18 147.465 340.384 147.852 341.256 148.628C342.127 149.395 342.579 150.455 342.612 151.808V157.971C342.612 159.2 342.768 160.178 343.081 160.904V161.102H340.688ZM336.903 159.357C337.618 159.357 338.296 159.172 338.938 158.8C339.579 158.429 340.043 157.946 340.331 157.352V154.605H338.543C335.748 154.605 334.351 155.426 334.351 157.068C334.351 157.786 334.589 158.347 335.066 158.751C335.543 159.155 336.155 159.357 336.903 159.357Z" fill="white"/>
</svg>
