<svg width="1440" height="300" viewBox="0 0 1440 300" fill="none" xmlns="http://www.w3.org/2000/svg">
<path d="M751.5 0L0 46.875V300H1445V46.875L751.5 0Z" fill="#131313"/>
<path d="M337 72.4699V106.55H341.331V82.5685L351.635 106.55H356.354L366.657 82.5457V106.55H370.989V72.4699H366.293L353.983 101.124L341.696 72.4699H337ZM384.84 81.1095C382.515 81.1095 380.372 81.7022 378.457 82.842C376.52 83.9818 374.992 85.5319 373.852 87.4468C372.69 89.3845 372.12 91.5045 372.12 93.8297C372.12 96.1776 372.69 98.2977 373.852 100.213C374.992 102.15 376.52 103.677 378.457 104.84C380.372 105.98 382.515 106.55 384.84 106.55C387.165 106.55 389.308 105.98 391.223 104.84C393.161 103.677 394.688 102.15 395.828 100.213C396.99 98.2977 397.56 96.1776 397.56 93.8297C397.56 91.5045 396.99 89.3845 395.828 87.4468C394.688 85.5319 393.161 83.9818 391.223 82.842C389.308 81.7022 387.165 81.1095 384.84 81.1095ZM384.84 85.4408C386.39 85.4408 387.804 85.8055 389.08 86.5578C390.334 87.31 391.36 88.3358 392.112 89.5896C392.864 90.8662 393.229 92.2795 393.229 93.8297C393.229 95.3798 392.864 96.7931 392.112 98.0697C391.36 99.3463 390.334 100.349 389.08 101.102C387.804 101.854 386.39 102.241 384.84 102.241C383.29 102.241 381.877 101.854 380.6 101.102C379.323 100.349 378.32 99.3463 377.568 98.0697C376.816 96.7931 376.451 95.3798 376.451 93.8297C376.451 92.2795 376.816 90.8662 377.568 89.5896C378.32 88.3358 379.323 87.31 380.6 86.5578C381.877 85.8055 383.29 85.4408 384.84 85.4408ZM398.687 81.1095V106.55H403.018V93.8297C403.018 92.2795 403.383 90.8662 404.135 89.5896C404.887 88.3358 405.891 87.31 407.167 86.5578C408.444 85.8055 409.857 85.4408 411.407 85.4408V81.1095C409.789 81.1095 408.284 81.4059 406.848 81.953C405.412 82.5229 404.135 83.2979 403.018 84.301V81.1095H398.687ZM422.533 81.1095C420.436 81.1095 418.521 81.5882 416.743 82.5229C414.965 83.4347 413.484 84.6885 412.298 86.2842C411.136 87.8571 410.36 89.658 409.996 91.664C409.882 92.4391 409.813 93.1686 409.813 93.8297C409.836 94.6275 409.905 95.3342 409.996 95.9953C410.36 98.0241 411.136 99.825 412.321 101.398C413.506 102.971 414.965 104.225 416.743 105.159C418.521 106.094 420.436 106.55 422.533 106.55C424.198 106.55 425.771 106.253 427.252 105.638C428.711 105.045 430.033 104.202 431.173 103.153L428.506 99.7566C427.754 100.532 426.842 101.124 425.839 101.58C424.813 102.013 423.696 102.241 422.533 102.241C420.573 102.241 418.863 101.649 417.382 100.486C415.9 99.3235 414.92 97.8417 414.418 95.9953H435.071C435.185 95.2886 435.254 94.5819 435.254 93.8297C435.231 93.0546 435.162 92.3251 435.071 91.664C434.707 89.658 433.931 87.8571 432.746 86.2842C431.561 84.6885 430.102 83.4347 428.324 82.5229C426.546 81.5882 424.608 81.1095 422.533 81.1095ZM422.533 85.4408C424.494 85.4408 426.204 86.0107 427.685 87.1732C429.144 88.3358 430.147 89.8404 430.649 91.664H414.418C414.92 89.8404 415.9 88.3358 417.382 87.1732C418.863 86.0107 420.573 85.4408 422.533 85.4408ZM450.761 72.4699V93.898C450.807 96.246 451.377 98.366 452.517 100.281C453.657 102.173 455.184 103.7 457.099 104.84C459.036 105.98 461.156 106.55 463.482 106.55V102.241C461.931 102.241 460.518 101.854 459.242 101.102C457.988 100.349 456.985 99.3463 456.232 98.0925C455.48 96.8387 455.115 95.4254 455.093 93.8525V91.664H463.482V87.3556H455.093V72.4699H450.761ZM464.613 72.4699V106.55H468.921V93.7841C468.944 92.2111 469.331 90.7978 470.084 89.544C470.836 88.2902 471.839 87.31 473.093 86.5578C474.346 85.8055 475.76 85.4408 477.31 85.4408C478.86 85.4408 480.273 85.8055 481.55 86.5578C482.804 87.31 483.807 88.313 484.559 89.5668C485.311 90.8206 485.699 92.2339 485.722 93.8069V106.618H490.03V93.6701C490.03 91.9832 489.734 90.3875 489.164 88.8829C488.594 87.3556 487.75 86.0107 486.633 84.8481C485.516 83.6855 484.172 82.7736 482.599 82.1126C481.026 81.4515 479.27 81.1095 477.333 81.1095C475.714 81.1095 474.21 81.3831 472.774 81.953C471.337 82.5229 470.061 83.2979 468.921 84.301V72.4699H464.613ZM503.9 81.1095C501.575 81.1095 499.432 81.7022 497.517 82.842C495.579 83.9818 494.052 85.5319 492.912 87.4468C491.75 89.3845 491.18 91.5045 491.18 93.8297C491.18 96.1776 491.75 98.2977 492.912 100.213C494.052 102.15 495.579 103.677 497.517 104.84C499.432 105.98 501.575 106.55 503.9 106.55C505.495 106.55 507.023 106.276 508.459 105.706C509.872 105.159 511.172 104.361 512.289 103.358V106.55H516.62V93.8297C516.597 91.4589 516.004 89.3389 514.865 87.424C513.725 85.5091 512.197 83.9818 510.283 82.842C508.368 81.7022 506.225 81.1095 503.9 81.1095ZM503.9 85.4408C505.45 85.4408 506.863 85.8055 508.14 86.5578C509.394 87.31 510.419 88.3358 511.172 89.5896C511.924 90.8662 512.289 92.2795 512.289 93.8297C512.289 95.3798 511.924 96.7931 511.172 98.0697C510.419 99.3463 509.394 100.349 508.14 101.102C506.863 101.854 505.45 102.241 503.9 102.241C502.35 102.241 500.936 101.854 499.66 101.102C498.383 100.349 497.38 99.3463 496.628 98.0697C495.876 96.7931 495.511 95.3798 495.511 93.8297C495.511 92.2795 495.876 90.8662 496.628 89.5896C497.38 88.3358 498.383 87.31 499.66 86.5578C500.936 85.8055 502.35 85.4408 503.9 85.4408ZM517.747 81.1095V106.55H522.078V93.8297C522.078 92.2795 522.443 90.8662 523.195 89.5896C523.947 88.3358 524.95 87.31 526.227 86.5578C527.503 85.8055 528.917 85.4408 530.467 85.4408C532.017 85.4408 533.43 85.8055 534.684 86.5578C535.961 87.31 536.964 88.313 537.716 89.5668C538.445 90.8206 538.833 92.2339 538.856 93.7841V106.55H543.187V93.8297C543.187 91.5045 542.617 89.3617 541.454 87.4468C540.315 85.5319 538.765 83.9818 536.85 82.842C534.935 81.7022 532.792 81.1095 530.467 81.1095C528.848 81.1095 527.344 81.4059 525.908 81.953C524.471 82.5229 523.195 83.2979 522.078 84.301V81.1095H517.747ZM567.084 81.1095V102.492C567.084 104.042 566.719 105.456 565.967 106.709C565.214 107.986 564.211 108.989 562.935 109.741C561.658 110.493 560.245 110.881 558.695 110.881V115.189C561.02 115.189 563.14 114.62 565.078 113.48C566.992 112.34 568.52 110.813 569.66 108.898C570.799 107.006 571.369 104.863 571.415 102.515V81.1095H567.084ZM567.084 72.4699V76.8011H571.415V72.4699H567.084ZM597.986 106.55V81.1095H593.655V93.8297C593.632 95.4026 593.267 96.8159 592.515 98.0925C591.763 99.3463 590.76 100.349 589.506 101.102C588.23 101.854 586.816 102.241 585.266 102.241C583.716 102.241 582.303 101.854 581.049 101.102C579.772 100.372 578.769 99.3691 578.017 98.1153C577.287 96.8615 576.9 95.4482 576.877 93.8752V81.1095H572.546V93.8297C572.569 96.2004 573.161 98.3432 574.278 100.235C575.418 102.15 576.946 103.677 578.883 104.84C580.798 105.98 582.941 106.55 585.266 106.55C586.862 106.55 588.389 106.276 589.825 105.706C591.239 105.136 592.538 104.361 593.655 103.358V106.55H597.986ZM608.801 81.1323C608.596 81.1323 608.391 81.1095 608.186 81.1095C607.251 81.1095 606.362 81.2007 605.496 81.3831C604.447 81.5882 603.49 82.0214 602.601 82.6369C601.712 83.2979 601.028 84.1186 600.549 85.0988C600.07 86.079 599.82 87.1049 599.797 88.1763C599.842 89.4528 600.184 90.5926 600.823 91.5729C601.438 92.5531 602.304 93.3053 603.376 93.8069C604.333 94.2172 605.313 94.5591 606.316 94.8555C607.32 95.1518 608.277 95.4254 609.212 95.6533C609.371 95.6989 609.508 95.7445 609.667 95.7673C611.901 96.3372 613.292 96.7931 613.839 97.1579C614.637 97.6822 615.025 98.3888 615.025 99.3007C615.025 100.304 614.569 101.193 613.68 101.945C612.791 102.697 611.4 103.085 609.531 103.085C608.596 103.085 607.753 102.994 607.023 102.788C606.271 102.583 605.655 102.264 605.177 101.808C604.607 101.238 604.196 100.646 603.9 99.9846C603.604 99.3235 603.399 98.708 603.307 98.0925L599.113 98.7536C599.592 101.33 600.64 103.267 602.282 104.612C603.353 105.456 604.561 105.98 605.906 106.231C607.251 106.481 608.391 106.595 609.371 106.595H609.554C610.488 106.595 611.423 106.504 612.335 106.299C613.224 106.117 614.022 105.889 614.683 105.592C615.48 105.25 616.187 104.84 616.803 104.316C617.395 103.791 617.851 103.29 618.148 102.766C618.49 102.173 618.786 101.489 619.014 100.714C619.242 99.9618 619.356 99.3463 619.379 98.8676C619.379 97.4542 619.037 96.2688 618.376 95.3114C617.509 94.2172 616.324 93.3737 614.819 92.8038C613.315 92.2339 611.742 91.778 610.078 91.3905C608.55 91.0486 607.183 90.6382 605.929 90.1595C604.812 89.5896 604.219 89.0653 604.128 88.5638C604.037 88.0395 603.991 87.7203 603.991 87.5836C603.991 86.8541 604.356 86.1702 605.086 85.5547C605.883 84.9392 607.206 84.6429 609.075 84.6429C609.873 84.6429 610.602 84.7113 611.218 84.8709C611.833 85.0304 612.357 85.2812 612.745 85.6687C613.588 86.535 614.113 87.4924 614.318 88.541L618.467 87.9711C618.307 87.2872 618.125 86.6261 617.92 85.9651C617.692 85.304 617.395 84.7341 617.031 84.2098C616.369 83.2296 615.275 82.4317 613.771 81.8162C612.95 81.4971 612.175 81.2919 611.446 81.2235C610.716 81.1551 610.055 81.1095 609.417 81.1095L608.801 81.1323ZM620.533 72.4699V93.898C620.579 96.246 621.149 98.366 622.288 100.281C623.428 102.173 624.956 103.7 626.87 104.84C628.808 105.98 630.928 106.55 633.253 106.55V102.241C631.703 102.241 630.29 101.854 629.013 101.102C627.759 100.349 626.756 99.3463 626.004 98.0925C625.252 96.8387 624.887 95.4254 624.864 93.8525V91.664H633.253V87.3556H624.864V72.4699H620.533ZM661.485 81.1095C659.16 81.1095 657.017 81.7022 655.103 82.842C653.165 83.9818 651.638 85.5319 650.498 87.4468C649.335 89.3845 648.765 91.5045 648.765 93.8297C648.765 96.1776 649.335 98.2977 650.498 100.213C651.638 102.15 653.165 103.677 655.103 104.84C657.017 105.98 659.16 106.55 661.485 106.55C663.081 106.55 664.609 106.276 666.045 105.706C667.458 105.159 668.757 104.361 669.874 103.358V106.55H674.206V93.8297C674.183 91.4589 673.59 89.3389 672.45 87.424C671.311 85.5091 669.783 83.9818 667.868 82.842C665.953 81.7022 663.811 81.1095 661.485 81.1095ZM661.485 85.4408C663.036 85.4408 664.449 85.8055 665.726 86.5578C666.979 87.31 668.005 88.3358 668.757 89.5896C669.51 90.8662 669.874 92.2795 669.874 93.8297C669.874 95.3798 669.51 96.7931 668.757 98.0697C668.005 99.3463 666.979 100.349 665.726 101.102C664.449 101.854 663.036 102.241 661.485 102.241C659.935 102.241 658.522 101.854 657.245 101.102C655.969 100.349 654.966 99.3463 654.214 98.0697C653.461 96.7931 653.097 95.3798 653.097 93.8297C653.097 92.2795 653.461 90.8662 654.214 89.5896C654.966 88.3358 655.969 87.31 657.245 86.5578C658.522 85.8055 659.935 85.4408 661.485 85.4408ZM702.434 81.1095C700.108 81.1095 697.966 81.7022 696.051 82.842C694.113 83.9818 692.586 85.5319 691.446 87.4468C690.283 89.3845 689.713 91.5045 689.713 93.8297C689.713 96.1776 690.283 98.2977 691.446 100.213C692.586 102.15 694.113 103.677 696.051 104.84C697.966 105.98 700.108 106.55 702.434 106.55C704.029 106.55 705.557 106.276 706.993 105.706C708.406 105.159 709.683 104.361 710.822 103.381L707.859 100.258C707.129 100.874 706.309 101.352 705.374 101.717C704.462 102.059 703.482 102.241 702.434 102.241C700.883 102.241 699.47 101.854 698.193 101.102C696.917 100.349 695.914 99.3463 695.162 98.0697C694.409 96.7931 694.045 95.3798 694.045 93.8297C694.045 92.2795 694.409 90.8662 695.162 89.5896C695.914 88.3358 696.917 87.31 698.193 86.5578C699.47 85.8055 700.883 85.4408 702.434 85.4408C703.482 85.4408 704.485 85.6231 705.397 85.9651C706.332 86.3298 707.175 86.8313 707.905 87.4696L711.05 84.5061C709.911 83.4347 708.588 82.6141 707.129 82.0214C705.648 81.4287 704.098 81.1095 702.434 81.1095ZM724.913 81.1095C722.588 81.1095 720.445 81.7022 718.53 82.842C716.593 83.9818 715.065 85.5319 713.926 87.4468C712.763 89.3845 712.193 91.5045 712.193 93.8297C712.193 96.1776 712.763 98.2977 713.926 100.213C715.065 102.15 716.593 103.677 718.53 104.84C720.445 105.98 722.588 106.55 724.913 106.55C726.509 106.55 728.036 106.276 729.473 105.706C730.886 105.159 732.185 104.361 733.302 103.358V106.55H737.633V93.8297C737.611 91.4589 737.018 89.3389 735.878 87.424C734.738 85.5091 733.211 83.9818 731.296 82.842C729.381 81.7022 727.239 81.1095 724.913 81.1095ZM724.913 85.4408C726.463 85.4408 727.877 85.8055 729.153 86.5578C730.407 87.31 731.433 88.3358 732.185 89.5896C732.937 90.8662 733.302 92.2795 733.302 93.8297C733.302 95.3798 732.937 96.7931 732.185 98.0697C731.433 99.3463 730.407 100.349 729.153 101.102C727.877 101.854 726.463 102.241 724.913 102.241C723.363 102.241 721.95 101.854 720.673 101.102C719.397 100.349 718.394 99.3463 717.641 98.0697C716.889 96.7931 716.524 95.3798 716.524 93.8297C716.524 92.2795 716.889 90.8662 717.641 89.5896C718.394 88.3358 719.397 87.31 720.673 86.5578C721.95 85.8055 723.363 85.4408 724.913 85.4408ZM751.48 106.55C753.806 106.55 755.948 105.98 757.863 104.84C759.801 103.677 761.328 102.15 762.468 100.213C763.631 98.2977 764.2 96.1776 764.2 93.8297C764.2 91.5045 763.631 89.3845 762.468 87.4468C761.328 85.5319 759.801 83.9818 757.863 82.842C755.948 81.7022 753.806 81.1095 751.48 81.1095C749.862 81.1095 748.357 81.4059 746.921 81.953C745.485 82.5229 744.208 83.2979 743.091 84.301V72.4699H738.76V93.8525C738.783 96.2004 739.376 98.3432 740.516 100.258C741.633 102.15 743.16 103.677 745.098 104.84C747.012 105.98 749.155 106.55 751.48 106.55ZM751.48 102.241C749.93 102.241 748.517 101.854 747.24 101.102C745.964 100.349 744.961 99.3463 744.208 98.0697C743.456 96.7931 743.091 95.3798 743.091 93.8297C743.091 92.2795 743.456 90.8662 744.208 89.5896C744.961 88.3358 745.964 87.31 747.24 86.5578C748.517 85.8055 749.93 85.4408 751.48 85.4408C753.03 85.4408 754.444 85.8055 755.72 86.5578C756.974 87.31 758 88.3358 758.752 89.5896C759.505 90.8662 759.869 92.2795 759.869 93.8297C759.869 95.3798 759.505 96.7931 758.752 98.0697C758 99.3463 756.974 100.349 755.72 101.102C754.444 101.854 753.03 102.241 751.48 102.241ZM765.327 72.4699V106.55H769.658V72.4699H765.327ZM783.535 81.1095C781.438 81.1095 779.523 81.5882 777.745 82.5229C775.967 83.4347 774.485 84.6885 773.3 86.2842C772.137 87.8571 771.362 89.658 770.997 91.664C770.883 92.4391 770.815 93.1686 770.815 93.8297C770.838 94.6275 770.906 95.3342 770.997 95.9953C771.362 98.0241 772.137 99.825 773.322 101.398C774.508 102.971 775.967 104.225 777.745 105.159C779.523 106.094 781.438 106.55 783.535 106.55C785.199 106.55 786.772 106.253 788.254 105.638C789.713 105.045 791.035 104.202 792.175 103.153L789.507 99.7566C788.755 100.532 787.843 101.124 786.84 101.58C785.814 102.013 784.697 102.241 783.535 102.241C781.574 102.241 779.865 101.649 778.383 100.486C776.901 99.3235 775.921 97.8417 775.42 95.9953H796.073C796.187 95.2886 796.255 94.5819 796.255 93.8297C796.232 93.0546 796.164 92.3251 796.073 91.664C795.708 89.658 794.933 87.8571 793.747 86.2842C792.562 84.6885 791.103 83.4347 789.325 82.5229C787.547 81.5882 785.609 81.1095 783.535 81.1095ZM783.535 85.4408C785.495 85.4408 787.205 86.0107 788.687 87.1732C790.146 88.3358 791.149 89.8404 791.65 91.664H775.42C775.921 89.8404 776.901 88.3358 778.383 87.1732C779.865 86.0107 781.574 85.4408 783.535 85.4408ZM813.313 97.7437V94.721H848.966V97.7437H813.313ZM877.617 81.1095C875.292 81.1095 873.149 81.7022 871.234 82.842C869.297 83.9818 867.769 85.5319 866.629 87.4468C865.467 89.3845 864.897 91.5045 864.897 93.8297C864.897 96.1776 865.467 98.2977 866.629 100.213C867.769 102.15 869.297 103.677 871.234 104.84C873.149 105.98 875.292 106.55 877.617 106.55C879.213 106.55 880.74 106.276 882.176 105.706C883.59 105.159 884.889 104.361 886.006 103.358V106.55H890.337V93.8297C890.314 91.4589 889.722 89.3389 888.582 87.424C887.442 85.5091 885.915 83.9818 884 82.842C882.085 81.7022 879.942 81.1095 877.617 81.1095ZM877.617 85.4408C879.167 85.4408 880.581 85.8055 881.857 86.5578C883.111 87.31 884.137 88.3358 884.889 89.5896C885.641 90.8662 886.006 92.2795 886.006 93.8297C886.006 95.3798 885.641 96.7931 884.889 98.0697C884.137 99.3463 883.111 100.349 881.857 101.102C880.581 101.854 879.167 102.241 877.617 102.241C876.067 102.241 874.654 101.854 873.377 101.102C872.1 100.349 871.097 99.3463 870.345 98.0697C869.593 96.7931 869.228 95.3798 869.228 93.8297C869.228 92.2795 869.593 90.8662 870.345 89.5896C871.097 88.3358 872.1 87.31 873.377 86.5578C874.654 85.8055 876.067 85.4408 877.617 85.4408ZM918.565 106.55C920.89 106.55 923.033 105.98 924.948 104.84C926.886 103.677 928.413 102.15 929.553 100.213C930.715 98.2977 931.285 96.1776 931.285 93.8297C931.285 91.5045 930.715 89.3845 929.553 87.4468C928.413 85.5319 926.886 83.9818 924.948 82.842C923.033 81.7022 920.89 81.1095 918.565 81.1095C916.947 81.1095 915.442 81.4059 914.006 81.953C912.57 82.5229 911.293 83.2979 910.176 84.301V72.4699H905.845V93.8525C905.868 96.2004 906.46 98.3432 907.6 100.258C908.717 102.15 910.245 103.677 912.182 104.84C914.097 105.98 916.24 106.55 918.565 106.55ZM918.565 102.241C917.015 102.241 915.602 101.854 914.325 101.102C913.048 100.349 912.045 99.3463 911.293 98.0697C910.541 96.7931 910.176 95.3798 910.176 93.8297C910.176 92.2795 910.541 90.8662 911.293 89.5896C912.045 88.3358 913.048 87.31 914.325 86.5578C915.602 85.8055 917.015 85.4408 918.565 85.4408C920.115 85.4408 921.529 85.8055 922.805 86.5578C924.059 87.31 925.085 88.3358 925.837 89.5896C926.589 90.8662 926.954 92.2795 926.954 93.8297C926.954 95.3798 926.589 96.7931 925.837 98.0697C925.085 99.3463 924.059 100.349 922.805 101.102C921.529 101.854 920.115 102.241 918.565 102.241ZM945.132 81.1095C943.035 81.1095 941.12 81.5882 939.342 82.5229C937.564 83.4347 936.082 84.6885 934.897 86.2842C933.734 87.8571 932.959 89.658 932.594 91.664C932.48 92.4391 932.412 93.1686 932.412 93.8297C932.435 94.6275 932.503 95.3342 932.594 95.9953C932.959 98.0241 933.734 99.825 934.92 101.398C936.105 102.971 937.564 104.225 939.342 105.159C941.12 106.094 943.035 106.55 945.132 106.55C946.796 106.55 948.369 106.253 949.851 105.638C951.31 105.045 952.632 104.202 953.772 103.153L951.105 99.7566C950.352 100.532 949.441 101.124 948.438 101.58C947.412 102.013 946.295 102.241 945.132 102.241C943.172 102.241 941.462 101.649 939.98 100.486C938.498 99.3235 937.518 97.8417 937.017 95.9953H957.67C957.784 95.2886 957.852 94.5819 957.852 93.8297C957.829 93.0546 957.761 92.3251 957.67 91.664C957.305 89.658 956.53 87.8571 955.345 86.2842C954.159 84.6885 952.7 83.4347 950.922 82.5229C949.144 81.5882 947.207 81.1095 945.132 81.1095ZM945.132 85.4408C947.093 85.4408 948.802 86.0107 950.284 87.1732C951.743 88.3358 952.746 89.8404 953.247 91.664H937.017C937.518 89.8404 938.498 88.3358 939.98 87.1732C941.462 86.0107 943.172 85.4408 945.132 85.4408ZM958.979 72.4699V93.898C959.025 96.246 959.595 98.366 960.734 100.281C961.874 102.173 963.401 103.7 965.316 104.84C967.254 105.98 969.374 106.55 971.699 106.55V102.241C970.149 102.241 968.736 101.854 967.459 101.102C966.205 100.349 965.202 99.3463 964.45 98.0925C963.698 96.8387 963.333 95.4254 963.31 93.8525V91.664H971.699V87.3556H963.31V72.4699H958.979ZM972.83 72.4699V93.898C972.876 96.246 973.446 98.366 974.586 100.281C975.725 102.173 977.253 103.7 979.168 104.84C981.105 105.98 983.225 106.55 985.55 106.55V102.241C984 102.241 982.587 101.854 981.31 101.102C980.057 100.349 979.054 99.3463 978.301 98.0925C977.549 96.8387 977.184 95.4254 977.161 93.8525V91.664H985.55V87.3556H977.161V72.4699H972.83ZM999.402 81.1095C997.304 81.1095 995.389 81.5882 993.611 82.5229C991.833 83.4347 990.352 84.6885 989.166 86.2842C988.004 87.8571 987.228 89.658 986.864 91.664C986.75 92.4391 986.681 93.1686 986.681 93.8297C986.704 94.6275 986.773 95.3342 986.864 95.9953C987.228 98.0241 988.004 99.825 989.189 101.398C990.374 102.971 991.833 104.225 993.611 105.159C995.389 106.094 997.304 106.55 999.402 106.55C1001.07 106.55 1002.64 106.253 1004.12 105.638C1005.58 105.045 1006.9 104.202 1008.04 103.153L1005.37 99.7566C1004.62 100.532 1003.71 101.124 1002.71 101.58C1001.68 102.013 1000.56 102.241 999.402 102.241C997.441 102.241 995.731 101.649 994.25 100.486C992.768 99.3235 991.788 97.8417 991.286 95.9953H1011.94C1012.05 95.2886 1012.12 94.5819 1012.12 93.8297C1012.1 93.0546 1012.03 92.3251 1011.94 91.664C1011.57 89.658 1010.8 87.8571 1009.61 86.2842C1008.43 84.6885 1006.97 83.4347 1005.19 82.5229C1003.41 81.5882 1001.48 81.1095 999.402 81.1095ZM999.402 85.4408C1001.36 85.4408 1003.07 86.0107 1004.55 87.1732C1006.01 88.3358 1007.02 89.8404 1007.52 91.664H991.286C991.788 89.8404 992.768 88.3358 994.25 87.1732C995.731 86.0107 997.441 85.4408 999.402 85.4408ZM1013.25 81.1095V106.55H1017.58V93.8297C1017.58 92.2795 1017.94 90.8662 1018.7 89.5896C1019.45 88.3358 1020.45 87.31 1021.73 86.5578C1023.01 85.8055 1024.42 85.4408 1025.97 85.4408V81.1095C1024.35 81.1095 1022.85 81.4059 1021.41 81.953C1019.97 82.5229 1018.7 83.2979 1017.58 84.301V81.1095H1013.25ZM1041.48 72.4699V76.8011H1052.49V106.55H1056.8V76.8011H1067.81V72.4699H1041.48ZM1068.5 72.4015L1080.15 106.527H1084.8L1096.45 72.4015H1091.82L1082.48 100.577L1073.15 72.4015H1068.5ZM1097.6 101.785V106.094H1101.94V101.785H1097.6Z" fill="white"/>
<path d="M555.036 151.581C555.036 152.712 554.626 153.594 553.806 154.227C552.985 154.859 551.872 155.176 550.466 155.176C548.942 155.176 547.771 154.979 546.95 154.587V153.146C547.478 153.368 548.052 153.544 548.673 153.673C549.294 153.802 549.909 153.866 550.519 153.866C551.515 153.866 552.265 153.679 552.769 153.304C553.272 152.923 553.524 152.396 553.524 151.722C553.524 151.276 553.434 150.913 553.252 150.632C553.076 150.345 552.777 150.081 552.355 149.841C551.939 149.601 551.304 149.328 550.448 149.023C549.253 148.596 548.397 148.089 547.882 147.503C547.372 146.917 547.117 146.152 547.117 145.209C547.117 144.219 547.489 143.431 548.233 142.845C548.978 142.259 549.962 141.966 551.187 141.966C552.464 141.966 553.639 142.2 554.711 142.669L554.245 143.97C553.185 143.524 552.153 143.302 551.151 143.302C550.36 143.302 549.742 143.472 549.297 143.812C548.852 144.151 548.629 144.623 548.629 145.227C548.629 145.672 548.711 146.038 548.875 146.325C549.039 146.606 549.314 146.867 549.701 147.107C550.094 147.342 550.691 147.603 551.494 147.89C552.842 148.37 553.768 148.886 554.271 149.437C554.781 149.987 555.036 150.702 555.036 151.581ZM558.815 145.367V151.616C558.815 152.401 558.994 152.987 559.352 153.374C559.709 153.761 560.269 153.954 561.03 153.954C562.038 153.954 562.773 153.679 563.236 153.128C563.705 152.577 563.939 151.678 563.939 150.43V145.367H565.398V155H564.194L563.983 153.708H563.904C563.605 154.183 563.189 154.546 562.656 154.798C562.129 155.05 561.525 155.176 560.846 155.176C559.674 155.176 558.795 154.897 558.209 154.341C557.629 153.784 557.339 152.894 557.339 151.669V145.367H558.815ZM572.983 155.176C572.356 155.176 571.782 155.062 571.261 154.833C570.745 154.599 570.312 154.241 569.96 153.761H569.854C569.925 154.323 569.96 154.856 569.96 155.36V159.324H568.501V145.367H569.688L569.89 146.686H569.96C570.335 146.158 570.771 145.777 571.27 145.543C571.768 145.309 572.339 145.191 572.983 145.191C574.261 145.191 575.245 145.628 575.937 146.501C576.634 147.374 576.982 148.599 576.982 150.175C576.982 151.757 576.628 152.987 575.919 153.866C575.216 154.739 574.237 155.176 572.983 155.176ZM572.772 146.431C571.788 146.431 571.076 146.703 570.637 147.248C570.197 147.793 569.972 148.66 569.96 149.85V150.175C569.96 151.528 570.186 152.498 570.637 153.084C571.088 153.664 571.812 153.954 572.808 153.954C573.64 153.954 574.29 153.617 574.759 152.943C575.233 152.27 575.471 151.341 575.471 150.157C575.471 148.956 575.233 148.036 574.759 147.397C574.29 146.753 573.628 146.431 572.772 146.431ZM584.022 155.176C583.396 155.176 582.821 155.062 582.3 154.833C581.784 154.599 581.351 154.241 580.999 153.761H580.894C580.964 154.323 580.999 154.856 580.999 155.36V159.324H579.54V145.367H580.727L580.929 146.686H580.999C581.374 146.158 581.811 145.777 582.309 145.543C582.807 145.309 583.378 145.191 584.022 145.191C585.3 145.191 586.284 145.628 586.976 146.501C587.673 147.374 588.021 148.599 588.021 150.175C588.021 151.757 587.667 152.987 586.958 153.866C586.255 154.739 585.276 155.176 584.022 155.176ZM583.812 146.431C582.827 146.431 582.115 146.703 581.676 147.248C581.236 147.793 581.011 148.66 580.999 149.85V150.175C580.999 151.528 581.225 152.498 581.676 153.084C582.127 153.664 582.851 153.954 583.847 153.954C584.679 153.954 585.329 153.617 585.798 152.943C586.272 152.27 586.51 151.341 586.51 150.157C586.51 148.956 586.272 148.036 585.798 147.397C585.329 146.753 584.667 146.431 583.812 146.431ZM598.894 150.175C598.894 151.745 598.498 152.973 597.707 153.857C596.916 154.736 595.823 155.176 594.429 155.176C593.567 155.176 592.803 154.974 592.135 154.569C591.467 154.165 590.951 153.585 590.588 152.829C590.225 152.073 590.043 151.188 590.043 150.175C590.043 148.604 590.436 147.383 591.221 146.51C592.006 145.631 593.096 145.191 594.49 145.191C595.838 145.191 596.907 145.64 597.698 146.536C598.495 147.433 598.894 148.646 598.894 150.175ZM591.555 150.175C591.555 151.405 591.801 152.343 592.293 152.987C592.785 153.632 593.509 153.954 594.464 153.954C595.419 153.954 596.143 153.635 596.635 152.996C597.133 152.352 597.382 151.411 597.382 150.175C597.382 148.95 597.133 148.021 596.635 147.389C596.143 146.75 595.413 146.431 594.446 146.431C593.491 146.431 592.771 146.744 592.284 147.371C591.798 147.998 591.555 148.933 591.555 150.175ZM605.854 145.191C606.282 145.191 606.666 145.227 607.006 145.297L606.804 146.65C606.405 146.562 606.054 146.519 605.749 146.519C604.97 146.519 604.302 146.835 603.745 147.468C603.194 148.101 602.919 148.889 602.919 149.832V155H601.46V145.367H602.664L602.831 147.151H602.901C603.259 146.524 603.689 146.041 604.193 145.701C604.697 145.361 605.251 145.191 605.854 145.191ZM611.919 153.972C612.177 153.972 612.426 153.954 612.666 153.919C612.906 153.878 613.097 153.837 613.237 153.796V154.912C613.079 154.988 612.845 155.05 612.534 155.097C612.229 155.149 611.954 155.176 611.708 155.176C609.845 155.176 608.913 154.194 608.913 152.231V146.501H607.533V145.798L608.913 145.191L609.528 143.135H610.372V145.367H613.167V146.501H610.372V152.17C610.372 152.75 610.51 153.195 610.785 153.506C611.061 153.816 611.438 153.972 611.919 153.972ZM621.385 152.372C621.385 153.269 621.051 153.96 620.383 154.446C619.715 154.933 618.777 155.176 617.57 155.176C616.293 155.176 615.297 154.974 614.582 154.569V153.216C615.045 153.45 615.54 153.635 616.067 153.77C616.601 153.904 617.113 153.972 617.605 153.972C618.367 153.972 618.953 153.852 619.363 153.611C619.773 153.365 619.979 152.993 619.979 152.495C619.979 152.12 619.814 151.801 619.486 151.537C619.164 151.268 618.531 150.951 617.588 150.588C616.691 150.254 616.053 149.964 615.672 149.718C615.297 149.466 615.016 149.182 614.828 148.865C614.646 148.549 614.556 148.171 614.556 147.731C614.556 146.946 614.875 146.328 615.514 145.877C616.152 145.42 617.028 145.191 618.142 145.191C619.179 145.191 620.192 145.402 621.183 145.824L620.664 147.011C619.697 146.612 618.821 146.413 618.036 146.413C617.345 146.413 616.823 146.521 616.472 146.738C616.12 146.955 615.944 147.254 615.944 147.635C615.944 147.893 616.009 148.112 616.138 148.294C616.272 148.476 616.486 148.648 616.779 148.812C617.072 148.977 617.635 149.214 618.467 149.524C619.609 149.94 620.38 150.359 620.778 150.781C621.183 151.203 621.385 151.733 621.385 152.372ZM632.292 155.176C630.897 155.176 629.816 154.748 629.049 153.893C628.287 153.031 627.906 151.815 627.906 150.245C627.906 148.634 628.293 147.389 629.066 146.51C629.846 145.631 630.953 145.191 632.389 145.191C632.852 145.191 633.314 145.241 633.777 145.341C634.24 145.44 634.604 145.558 634.867 145.692L634.419 146.932C634.097 146.803 633.745 146.697 633.364 146.615C632.983 146.527 632.646 146.483 632.354 146.483C630.396 146.483 629.418 147.731 629.418 150.228C629.418 151.411 629.655 152.319 630.13 152.952C630.61 153.585 631.319 153.901 632.257 153.901C633.06 153.901 633.883 153.729 634.727 153.383V154.675C634.082 155.009 633.271 155.176 632.292 155.176ZM642.944 155L642.654 153.629H642.584C642.104 154.232 641.623 154.643 641.143 154.859C640.668 155.07 640.073 155.176 639.358 155.176C638.403 155.176 637.653 154.93 637.108 154.438C636.569 153.945 636.3 153.245 636.3 152.337C636.3 150.392 637.855 149.372 640.967 149.278L642.602 149.226V148.628C642.602 147.872 642.438 147.315 642.109 146.958C641.787 146.595 641.269 146.413 640.554 146.413C639.751 146.413 638.843 146.659 637.829 147.151L637.381 146.035C637.855 145.777 638.374 145.575 638.937 145.429C639.505 145.282 640.073 145.209 640.642 145.209C641.79 145.209 642.64 145.464 643.19 145.974C643.747 146.483 644.025 147.301 644.025 148.426V155H642.944ZM639.648 153.972C640.557 153.972 641.269 153.723 641.784 153.225C642.306 152.727 642.566 152.029 642.566 151.133V150.263L641.107 150.324C639.947 150.365 639.109 150.547 638.594 150.869C638.084 151.186 637.829 151.681 637.829 152.354C637.829 152.882 637.987 153.283 638.304 153.559C638.626 153.834 639.074 153.972 639.648 153.972ZM653.254 152.372C653.254 153.269 652.92 153.96 652.252 154.446C651.584 154.933 650.646 155.176 649.439 155.176C648.162 155.176 647.166 154.974 646.451 154.569V153.216C646.914 153.45 647.409 153.635 647.937 153.77C648.47 153.904 648.982 153.972 649.475 153.972C650.236 153.972 650.822 153.852 651.232 153.611C651.643 153.365 651.848 152.993 651.848 152.495C651.848 152.12 651.684 151.801 651.355 151.537C651.033 151.268 650.4 150.951 649.457 150.588C648.561 150.254 647.922 149.964 647.541 149.718C647.166 149.466 646.885 149.182 646.697 148.865C646.516 148.549 646.425 148.171 646.425 147.731C646.425 146.946 646.744 146.328 647.383 145.877C648.021 145.42 648.897 145.191 650.011 145.191C651.048 145.191 652.062 145.402 653.052 145.824L652.533 147.011C651.566 146.612 650.69 146.413 649.905 146.413C649.214 146.413 648.692 146.521 648.341 146.738C647.989 146.955 647.813 147.254 647.813 147.635C647.813 147.893 647.878 148.112 648.007 148.294C648.142 148.476 648.355 148.648 648.648 148.812C648.941 148.977 649.504 149.214 650.336 149.524C651.479 149.94 652.249 150.359 652.647 150.781C653.052 151.203 653.254 151.733 653.254 152.372ZM658.747 153.972C659.005 153.972 659.254 153.954 659.494 153.919C659.734 153.878 659.925 153.837 660.065 153.796V154.912C659.907 154.988 659.673 155.05 659.362 155.097C659.058 155.149 658.782 155.176 658.536 155.176C656.673 155.176 655.741 154.194 655.741 152.231V146.501H654.361V145.798L655.741 145.191L656.356 143.135H657.2V145.367H659.995V146.501H657.2V152.17C657.2 152.75 657.338 153.195 657.613 153.506C657.889 153.816 658.267 153.972 658.747 153.972ZM663.458 155H661.999V145.367H663.458V155ZM661.876 142.757C661.876 142.423 661.958 142.18 662.122 142.027C662.286 141.869 662.491 141.79 662.737 141.79C662.972 141.79 663.174 141.869 663.344 142.027C663.514 142.186 663.599 142.429 663.599 142.757C663.599 143.085 663.514 143.331 663.344 143.495C663.174 143.653 662.972 143.732 662.737 143.732C662.491 143.732 662.286 143.653 662.122 143.495C661.958 143.331 661.876 143.085 661.876 142.757ZM673.144 155V148.769C673.144 147.983 672.965 147.397 672.607 147.011C672.25 146.624 671.69 146.431 670.929 146.431C669.921 146.431 669.183 146.703 668.714 147.248C668.245 147.793 668.011 148.692 668.011 149.946V155H666.552V145.367H667.738L667.976 146.686H668.046C668.345 146.211 668.764 145.845 669.303 145.587C669.842 145.323 670.442 145.191 671.104 145.191C672.265 145.191 673.138 145.473 673.724 146.035C674.31 146.592 674.603 147.485 674.603 148.716V155H673.144ZM685.492 145.367V146.29L683.708 146.501C683.872 146.706 684.019 146.976 684.147 147.31C684.276 147.638 684.341 148.01 684.341 148.426C684.341 149.369 684.019 150.122 683.374 150.685C682.729 151.247 681.845 151.528 680.72 151.528C680.433 151.528 680.163 151.505 679.911 151.458C679.29 151.786 678.979 152.199 678.979 152.697C678.979 152.961 679.088 153.157 679.305 153.286C679.521 153.409 679.894 153.471 680.421 153.471H682.126C683.169 153.471 683.969 153.69 684.525 154.13C685.088 154.569 685.369 155.208 685.369 156.046C685.369 157.112 684.941 157.924 684.086 158.48C683.23 159.043 681.982 159.324 680.342 159.324C679.082 159.324 678.109 159.09 677.424 158.621C676.744 158.152 676.404 157.49 676.404 156.635C676.404 156.049 676.592 155.542 676.967 155.114C677.342 154.687 677.869 154.396 678.549 154.244C678.303 154.133 678.095 153.96 677.925 153.726C677.761 153.491 677.679 153.219 677.679 152.908C677.679 152.557 677.772 152.249 677.96 151.985C678.147 151.722 678.443 151.467 678.848 151.221C678.35 151.016 677.942 150.667 677.626 150.175C677.315 149.683 677.16 149.12 677.16 148.487C677.16 147.433 677.477 146.621 678.109 146.053C678.742 145.479 679.639 145.191 680.799 145.191C681.303 145.191 681.757 145.25 682.161 145.367H685.492ZM677.811 156.617C677.811 157.139 678.03 157.534 678.47 157.804C678.909 158.073 679.539 158.208 680.359 158.208C681.584 158.208 682.489 158.023 683.075 157.654C683.667 157.291 683.963 156.796 683.963 156.169C683.963 155.647 683.802 155.284 683.479 155.079C683.157 154.88 682.551 154.78 681.66 154.78H679.911C679.249 154.78 678.733 154.938 678.364 155.255C677.995 155.571 677.811 156.025 677.811 156.617ZM678.602 148.452C678.602 149.126 678.792 149.636 679.173 149.981C679.554 150.327 680.084 150.5 680.764 150.5C682.188 150.5 682.899 149.809 682.899 148.426C682.899 146.979 682.179 146.255 680.737 146.255C680.052 146.255 679.524 146.439 679.155 146.809C678.786 147.178 678.602 147.726 678.602 148.452ZM696.487 146.501H694.035V155H692.576V146.501H690.854V145.842L692.576 145.314V144.778C692.576 142.411 693.61 141.228 695.679 141.228C696.188 141.228 696.786 141.33 697.472 141.535L697.094 142.704C696.531 142.522 696.051 142.432 695.652 142.432C695.102 142.432 694.694 142.616 694.431 142.985C694.167 143.349 694.035 143.935 694.035 144.743V145.367H696.487V146.501ZM702.64 145.191C703.067 145.191 703.451 145.227 703.791 145.297L703.589 146.65C703.19 146.562 702.839 146.519 702.534 146.519C701.755 146.519 701.087 146.835 700.53 147.468C699.979 148.101 699.704 148.889 699.704 149.832V155H698.245V145.367H699.449L699.616 147.151H699.687C700.044 146.524 700.475 146.041 700.979 145.701C701.482 145.361 702.036 145.191 702.64 145.191ZM713.907 150.175C713.907 151.745 713.512 152.973 712.721 153.857C711.93 154.736 710.837 155.176 709.442 155.176C708.581 155.176 707.816 154.974 707.148 154.569C706.48 154.165 705.965 153.585 705.602 152.829C705.238 152.073 705.057 151.188 705.057 150.175C705.057 148.604 705.449 147.383 706.234 146.51C707.02 145.631 708.109 145.191 709.504 145.191C710.852 145.191 711.921 145.64 712.712 146.536C713.509 147.433 713.907 148.646 713.907 150.175ZM706.568 150.175C706.568 151.405 706.814 152.343 707.307 152.987C707.799 153.632 708.522 153.954 709.478 153.954C710.433 153.954 711.156 153.635 711.648 152.996C712.146 152.352 712.396 151.411 712.396 150.175C712.396 148.95 712.146 148.021 711.648 147.389C711.156 146.75 710.427 146.431 709.46 146.431C708.505 146.431 707.784 146.744 707.298 147.371C706.812 147.998 706.568 148.933 706.568 150.175ZM728.752 155V148.733C728.752 147.966 728.588 147.392 728.26 147.011C727.932 146.624 727.422 146.431 726.73 146.431C725.822 146.431 725.151 146.691 724.718 147.213C724.284 147.734 724.067 148.537 724.067 149.621V155H722.608V148.733C722.608 147.966 722.444 147.392 722.116 147.011C721.788 146.624 721.275 146.431 720.578 146.431C719.664 146.431 718.993 146.706 718.565 147.257C718.144 147.802 717.933 148.698 717.933 149.946V155H716.474V145.367H717.66L717.897 146.686H717.968C718.243 146.217 718.63 145.851 719.128 145.587C719.632 145.323 720.194 145.191 720.815 145.191C722.321 145.191 723.306 145.736 723.769 146.826H723.839C724.126 146.322 724.542 145.924 725.087 145.631C725.632 145.338 726.253 145.191 726.95 145.191C728.04 145.191 728.854 145.473 729.394 146.035C729.938 146.592 730.211 147.485 730.211 148.716V155H728.752ZM743.825 155L743.535 153.629H743.465C742.984 154.232 742.504 154.643 742.023 154.859C741.549 155.07 740.954 155.176 740.239 155.176C739.284 155.176 738.534 154.93 737.989 154.438C737.45 153.945 737.181 153.245 737.181 152.337C737.181 150.392 738.736 149.372 741.848 149.278L743.482 149.226V148.628C743.482 147.872 743.318 147.315 742.99 146.958C742.668 146.595 742.149 146.413 741.435 146.413C740.632 146.413 739.724 146.659 738.71 147.151L738.262 146.035C738.736 145.777 739.255 145.575 739.817 145.429C740.386 145.282 740.954 145.209 741.522 145.209C742.671 145.209 743.521 145.464 744.071 145.974C744.628 146.483 744.906 147.301 744.906 148.426V155H743.825ZM740.529 153.972C741.438 153.972 742.149 153.723 742.665 153.225C743.187 152.727 743.447 152.029 743.447 151.133V150.263L741.988 150.324C740.828 150.365 739.99 150.547 739.475 150.869C738.965 151.186 738.71 151.681 738.71 152.354C738.71 152.882 738.868 153.283 739.185 153.559C739.507 153.834 739.955 153.972 740.529 153.972ZM749.38 155H747.921V141.324H749.38V155ZM753.933 155H752.474V141.324H753.933V155ZM768.259 153.708H768.18C767.506 154.687 766.498 155.176 765.156 155.176C763.896 155.176 762.915 154.745 762.212 153.884C761.515 153.022 761.166 151.798 761.166 150.21C761.166 148.622 761.518 147.389 762.221 146.51C762.924 145.631 763.902 145.191 765.156 145.191C766.463 145.191 767.465 145.666 768.162 146.615H768.276L768.215 145.921L768.18 145.244V141.324H769.639V155H768.452L768.259 153.708ZM765.341 153.954C766.337 153.954 767.058 153.685 767.503 153.146C767.954 152.601 768.18 151.725 768.18 150.518V150.21C768.18 148.845 767.951 147.872 767.494 147.292C767.043 146.706 766.319 146.413 765.323 146.413C764.468 146.413 763.812 146.747 763.354 147.415C762.903 148.077 762.678 149.015 762.678 150.228C762.678 151.458 762.903 152.387 763.354 153.014C763.806 153.641 764.468 153.954 765.341 153.954ZM776.811 155.176C775.387 155.176 774.262 154.742 773.436 153.875C772.615 153.008 772.205 151.804 772.205 150.263C772.205 148.71 772.586 147.477 773.348 146.562C774.115 145.648 775.144 145.191 776.433 145.191C777.64 145.191 778.595 145.59 779.298 146.387C780.001 147.178 780.353 148.224 780.353 149.524V150.447H773.717C773.746 151.578 774.03 152.437 774.569 153.022C775.114 153.608 775.879 153.901 776.863 153.901C777.9 153.901 778.926 153.685 779.939 153.251V154.552C779.424 154.774 778.935 154.933 778.472 155.026C778.015 155.126 777.461 155.176 776.811 155.176ZM776.415 146.413C775.642 146.413 775.023 146.665 774.561 147.169C774.104 147.673 773.834 148.37 773.752 149.261H778.788C778.788 148.341 778.583 147.638 778.173 147.151C777.763 146.659 777.177 146.413 776.415 146.413ZM784.958 155L781.302 145.367H782.866L784.94 151.08C785.409 152.416 785.685 153.283 785.767 153.682H785.837C785.901 153.371 786.104 152.729 786.443 151.757C786.789 150.778 787.56 148.648 788.755 145.367H790.319L786.663 155H784.958ZM793.325 155H791.866V145.367H793.325V155ZM791.743 142.757C791.743 142.423 791.825 142.18 791.989 142.027C792.153 141.869 792.358 141.79 792.604 141.79C792.839 141.79 793.041 141.869 793.211 142.027C793.381 142.186 793.466 142.429 793.466 142.757C793.466 143.085 793.381 143.331 793.211 143.495C793.041 143.653 792.839 143.732 792.604 143.732C792.358 143.732 792.153 143.653 791.989 143.495C791.825 143.331 791.743 143.085 791.743 142.757ZM800.269 155.176C798.874 155.176 797.793 154.748 797.025 153.893C796.264 153.031 795.883 151.815 795.883 150.245C795.883 148.634 796.27 147.389 797.043 146.51C797.822 145.631 798.93 145.191 800.365 145.191C800.828 145.191 801.291 145.241 801.754 145.341C802.217 145.44 802.58 145.558 802.844 145.692L802.396 146.932C802.073 146.803 801.722 146.697 801.341 146.615C800.96 146.527 800.623 146.483 800.33 146.483C798.373 146.483 797.395 147.731 797.395 150.228C797.395 151.411 797.632 152.319 798.106 152.952C798.587 153.585 799.296 153.901 800.233 153.901C801.036 153.901 801.859 153.729 802.703 153.383V154.675C802.059 155.009 801.247 155.176 800.269 155.176ZM809.066 155.176C807.643 155.176 806.518 154.742 805.691 153.875C804.871 153.008 804.461 151.804 804.461 150.263C804.461 148.71 804.842 147.477 805.604 146.562C806.371 145.648 807.399 145.191 808.688 145.191C809.896 145.191 810.851 145.59 811.554 146.387C812.257 147.178 812.608 148.224 812.608 149.524V150.447H805.973C806.002 151.578 806.286 152.437 806.825 153.022C807.37 153.608 808.135 153.901 809.119 153.901C810.156 153.901 811.182 153.685 812.195 153.251V154.552C811.68 154.774 811.19 154.933 810.728 155.026C810.271 155.126 809.717 155.176 809.066 155.176ZM808.671 146.413C807.897 146.413 807.279 146.665 806.816 147.169C806.359 147.673 806.09 148.37 806.008 149.261H811.044C811.044 148.341 810.839 147.638 810.429 147.151C810.019 146.659 809.433 146.413 808.671 146.413ZM821.318 152.372C821.318 153.269 820.984 153.96 820.316 154.446C819.648 154.933 818.711 155.176 817.504 155.176C816.227 155.176 815.23 154.974 814.516 154.569V153.216C814.979 153.45 815.474 153.635 816.001 153.77C816.534 153.904 817.047 153.972 817.539 153.972C818.301 153.972 818.887 153.852 819.297 153.611C819.707 153.365 819.912 152.993 819.912 152.495C819.912 152.12 819.748 151.801 819.42 151.537C819.098 151.268 818.465 150.951 817.521 150.588C816.625 150.254 815.986 149.964 815.605 149.718C815.23 149.466 814.949 149.182 814.762 148.865C814.58 148.549 814.489 148.171 814.489 147.731C814.489 146.946 814.809 146.328 815.447 145.877C816.086 145.42 816.962 145.191 818.075 145.191C819.112 145.191 820.126 145.402 821.116 145.824L820.598 147.011C819.631 146.612 818.755 146.413 817.97 146.413C817.278 146.413 816.757 146.521 816.405 146.738C816.054 146.955 815.878 147.254 815.878 147.635C815.878 147.893 815.942 148.112 816.071 148.294C816.206 148.476 816.42 148.648 816.713 148.812C817.006 148.977 817.568 149.214 818.4 149.524C819.543 149.94 820.313 150.359 820.712 150.781C821.116 151.203 821.318 151.733 821.318 152.372ZM825.229 152.908L825.361 153.11C825.209 153.696 824.989 154.376 824.702 155.149C824.415 155.929 824.116 156.652 823.806 157.32H822.707C822.865 156.711 823.038 155.958 823.226 155.062C823.419 154.165 823.554 153.447 823.63 152.908H825.229ZM839.38 155V148.769C839.38 147.983 839.201 147.397 838.844 147.011C838.486 146.624 837.927 146.431 837.165 146.431C836.157 146.431 835.419 146.703 834.95 147.248C834.481 147.793 834.247 148.692 834.247 149.946V155H832.788V145.367H833.975L834.212 146.686H834.282C834.581 146.211 835 145.845 835.539 145.587C836.078 145.323 836.679 145.191 837.341 145.191C838.501 145.191 839.374 145.473 839.96 146.035C840.546 146.592 840.839 147.485 840.839 148.716V155H839.38ZM849.769 155L849.479 153.629H849.408C848.928 154.232 848.447 154.643 847.967 154.859C847.492 155.07 846.897 155.176 846.183 155.176C845.228 155.176 844.478 154.93 843.933 154.438C843.394 153.945 843.124 153.245 843.124 152.337C843.124 150.392 844.68 149.372 847.791 149.278L849.426 149.226V148.628C849.426 147.872 849.262 147.315 848.934 146.958C848.611 146.595 848.093 146.413 847.378 146.413C846.575 146.413 845.667 146.659 844.653 147.151L844.205 146.035C844.68 145.777 845.198 145.575 845.761 145.429C846.329 145.282 846.897 145.209 847.466 145.209C848.614 145.209 849.464 145.464 850.015 145.974C850.571 146.483 850.85 147.301 850.85 148.426V155H849.769ZM846.473 153.972C847.381 153.972 848.093 153.723 848.608 153.225C849.13 152.727 849.391 152.029 849.391 151.133V150.263L847.932 150.324C846.771 150.365 845.934 150.547 845.418 150.869C844.908 151.186 844.653 151.681 844.653 152.354C844.653 152.882 844.812 153.283 845.128 153.559C845.45 153.834 845.898 153.972 846.473 153.972ZM856.976 153.972C857.233 153.972 857.482 153.954 857.723 153.919C857.963 153.878 858.153 153.837 858.294 153.796V154.912C858.136 154.988 857.901 155.05 857.591 155.097C857.286 155.149 857.011 155.176 856.765 155.176C854.901 155.176 853.97 154.194 853.97 152.231V146.501H852.59V145.798L853.97 145.191L854.585 143.135H855.429V145.367H858.224V146.501H855.429V152.17C855.429 152.75 855.566 153.195 855.842 153.506C856.117 153.816 856.495 153.972 856.976 153.972ZM861.687 155H860.228V145.367H861.687V155ZM860.104 142.757C860.104 142.423 860.187 142.18 860.351 142.027C860.515 141.869 860.72 141.79 860.966 141.79C861.2 141.79 861.402 141.869 861.572 142.027C861.742 142.186 861.827 142.429 861.827 142.757C861.827 143.085 861.742 143.331 861.572 143.495C861.402 143.653 861.2 143.732 860.966 143.732C860.72 143.732 860.515 143.653 860.351 143.495C860.187 143.331 860.104 143.085 860.104 142.757ZM866.89 155L863.233 145.367H864.798L866.872 151.08C867.341 152.416 867.616 153.283 867.698 153.682H867.769C867.833 153.371 868.035 152.729 868.375 151.757C868.721 150.778 869.491 148.648 870.687 145.367H872.251L868.595 155H866.89ZM877.867 155.176C876.443 155.176 875.318 154.742 874.492 153.875C873.672 153.008 873.262 151.804 873.262 150.263C873.262 148.71 873.643 147.477 874.404 146.562C875.172 145.648 876.2 145.191 877.489 145.191C878.696 145.191 879.651 145.59 880.354 146.387C881.058 147.178 881.409 148.224 881.409 149.524V150.447H874.773C874.803 151.578 875.087 152.437 875.626 153.022C876.171 153.608 876.936 153.901 877.92 153.901C878.957 153.901 879.982 153.685 880.996 153.251V154.552C880.48 154.774 879.991 154.933 879.528 155.026C879.071 155.126 878.518 155.176 877.867 155.176ZM877.472 146.413C876.698 146.413 876.08 146.665 875.617 147.169C875.16 147.673 874.891 148.37 874.809 149.261H879.845C879.845 148.341 879.64 147.638 879.229 147.151C878.819 146.659 878.233 146.413 877.472 146.413ZM885.364 155H883.905V141.324H885.364V155ZM886.929 145.367H888.493L890.603 150.86C891.065 152.114 891.353 153.02 891.464 153.576H891.534C891.61 153.277 891.769 152.768 892.009 152.047C892.255 151.32 893.052 149.094 894.399 145.367H895.964L891.824 156.336C891.414 157.42 890.934 158.188 890.383 158.639C889.838 159.096 889.167 159.324 888.37 159.324C887.925 159.324 887.485 159.274 887.052 159.175V158.006C887.374 158.076 887.734 158.111 888.133 158.111C889.135 158.111 889.85 157.549 890.277 156.424L890.813 155.053L886.929 145.367Z" fill="white"/>
<g clip-path="url(#clip0_510_29)">
<path d="M615.53 189.685C615.53 188.123 614.269 186.852 612.701 186.852C611.133 186.852 609.864 188.117 609.864 189.689V201.553C609.864 203.106 611.135 204.39 612.707 204.39C614.267 204.39 615.536 203.106 615.536 201.553V189.67H615.517L615.53 189.685ZM583.42 187.395L583.428 205.795C583.428 207.491 584.777 208.842 586.443 208.842H588.48V215.129C588.48 216.7 589.745 217.969 591.298 217.969C592.85 217.969 594.109 216.704 594.134 215.156V208.869H597.954V215.156C597.954 216.733 599.219 217.998 600.772 217.998C602.349 217.998 603.612 216.733 603.612 215.142V208.856H605.678C607.346 208.856 608.693 207.495 608.693 205.831V187.374L583.338 187.391L583.414 187.395H583.42ZM601.912 181.779C601.318 181.779 600.839 181.3 600.839 180.705C600.839 180.121 601.318 179.636 601.912 179.632C602.506 179.632 602.985 180.121 602.985 180.705C602.985 181.3 602.506 181.779 601.912 181.779ZM590.297 181.779C589.703 181.779 589.224 181.3 589.224 180.705C589.224 180.117 589.703 179.636 590.297 179.636C590.891 179.636 591.37 180.125 591.37 180.728C591.37 181.332 590.943 181.779 590.334 181.779H590.297ZM604.306 172.632C604.421 172.431 604.333 172.199 604.16 172.086C603.961 172 603.731 172.057 603.616 172.259L601.604 175.9C599.94 175.124 598.046 174.693 596.064 174.693C594.083 174.693 592.197 175.105 590.521 175.849L588.54 172.201C588.438 172.013 588.195 171.942 588.007 172.048C587.815 172.134 587.746 172.393 587.853 172.565L589.828 176.159C585.937 178.166 583.311 181.986 583.311 186.375H608.856C608.856 181.986 606.221 178.264 602.334 176.257L604.306 172.632ZM579.466 186.839C577.9 186.839 576.629 188.113 576.629 189.681V201.549C576.629 203.121 577.902 204.386 579.474 204.386C581.034 204.386 582.305 203.121 582.305 201.549V189.685C582.305 188.123 581.04 186.852 579.487 186.852L579.466 186.839Z" fill="white"/>
</g>
<g clip-path="url(#clip1_510_29)">
<path d="M738.101 207.848C737.406 209.455 736.582 210.934 735.628 212.294C734.328 214.149 733.263 215.432 732.442 216.145C731.17 217.315 729.807 217.914 728.348 217.948C727.3 217.948 726.037 217.65 724.566 217.045C723.09 216.443 721.734 216.145 720.494 216.145C719.194 216.145 717.799 216.443 716.307 217.045C714.813 217.65 713.609 217.965 712.689 217.996C711.29 218.056 709.895 217.44 708.502 216.145C707.613 215.37 706.502 214.041 705.17 212.158C703.741 210.148 702.567 207.817 701.646 205.159C700.661 202.288 700.167 199.509 700.167 196.817C700.167 193.735 700.833 191.076 702.167 188.848C703.216 187.058 704.611 185.646 706.357 184.61C708.103 183.573 709.989 183.045 712.021 183.012C713.132 183.012 714.59 183.355 716.402 184.031C718.208 184.709 719.368 185.053 719.877 185.053C720.257 185.053 721.545 184.651 723.73 183.849C725.795 183.106 727.539 182.798 728.967 182.92C732.837 183.232 735.745 184.758 737.678 187.506C734.217 189.603 732.505 192.541 732.539 196.309C732.57 199.244 733.635 201.686 735.728 203.626C736.676 204.526 737.735 205.222 738.913 205.716C738.658 206.457 738.388 207.167 738.101 207.848ZM729.225 172.92C729.225 175.221 728.385 177.369 726.71 179.357C724.688 181.72 722.243 183.086 719.591 182.871C719.557 182.595 719.538 182.304 719.538 181.999C719.538 179.791 720.499 177.427 722.206 175.494C723.059 174.516 724.143 173.702 725.457 173.053C726.769 172.414 728.01 172.061 729.177 172C729.211 172.308 729.225 172.615 729.225 172.92V172.92Z" fill="white"/>
</g>
<g clip-path="url(#clip2_510_29)">
<path d="M840.642 176.071L821.913 178.534V194.106H840.642V176.071ZM821.913 211.557L840.642 214.223V195.894H821.913V211.557V211.557ZM842.708 196.129L842.782 214.351L867.628 217.857V196.129H842.708ZM867.628 172.143L842.856 175.697V194.023H867.628V172.143Z" fill="white"/>
</g>
<defs>
<clipPath id="clip0_510_29">
<rect width="42.1667" height="46" fill="white" transform="translate(575 172)"/>
</clipPath>
<clipPath id="clip1_510_29">
<rect width="38.7467" height="46" fill="white" transform="translate(700.167 172)"/>
</clipPath>
<clipPath id="clip2_510_29">
<rect width="45.7143" height="45.7143" fill="white" transform="translate(821.913 172.143)"/>
</clipPath>
</defs>
</svg>
