<svg width="1440" height="300" viewBox="0 0 1440 300" fill="none" xmlns="http://www.w3.org/2000/svg">
<path d="M751.5 0L0 46.875V300H1445V46.875L751.5 0Z" fill="#131313"/>
<path d="M360 72.4699V106.55H364.331V82.5685L374.635 106.55H379.354L389.657 82.5457V106.55H393.989V72.4699H389.293L376.983 101.124L364.696 72.4699H360ZM407.84 81.1095C405.515 81.1095 403.372 81.7022 401.457 82.842C399.52 83.9818 397.992 85.5319 396.852 87.4468C395.69 89.3845 395.12 91.5045 395.12 93.8297C395.12 96.1776 395.69 98.2977 396.852 100.213C397.992 102.15 399.52 103.677 401.457 104.84C403.372 105.98 405.515 106.55 407.84 106.55C410.165 106.55 412.308 105.98 414.223 104.84C416.161 103.677 417.688 102.15 418.828 100.213C419.99 98.2977 420.56 96.1776 420.56 93.8297C420.56 91.5045 419.99 89.3845 418.828 87.4468C417.688 85.5319 416.161 83.9818 414.223 82.842C412.308 81.7022 410.165 81.1095 407.84 81.1095ZM407.84 85.4408C409.39 85.4408 410.804 85.8055 412.08 86.5578C413.334 87.31 414.36 88.3358 415.112 89.5896C415.864 90.8662 416.229 92.2795 416.229 93.8297C416.229 95.3798 415.864 96.7931 415.112 98.0697C414.36 99.3463 413.334 100.349 412.08 101.102C410.804 101.854 409.39 102.241 407.84 102.241C406.29 102.241 404.877 101.854 403.6 101.102C402.323 100.349 401.32 99.3463 400.568 98.0697C399.816 96.7931 399.451 95.3798 399.451 93.8297C399.451 92.2795 399.816 90.8662 400.568 89.5896C401.32 88.3358 402.323 87.31 403.6 86.5578C404.877 85.8055 406.29 85.4408 407.84 85.4408ZM421.687 81.1095V106.55H426.018V93.8297C426.018 92.2795 426.383 90.8662 427.135 89.5896C427.887 88.3358 428.891 87.31 430.167 86.5578C431.444 85.8055 432.857 85.4408 434.407 85.4408V81.1095C432.789 81.1095 431.284 81.4059 429.848 81.953C428.412 82.5229 427.135 83.2979 426.018 84.301V81.1095H421.687ZM445.533 81.1095C443.436 81.1095 441.521 81.5882 439.743 82.5229C437.965 83.4347 436.484 84.6885 435.298 86.2842C434.136 87.8571 433.36 89.658 432.996 91.664C432.882 92.4391 432.813 93.1686 432.813 93.8297C432.836 94.6275 432.905 95.3342 432.996 95.9953C433.36 98.0241 434.136 99.825 435.321 101.398C436.506 102.971 437.965 104.225 439.743 105.159C441.521 106.094 443.436 106.55 445.533 106.55C447.198 106.55 448.771 106.253 450.252 105.638C451.711 105.045 453.033 104.202 454.173 103.153L451.506 99.7566C450.754 100.532 449.842 101.124 448.839 101.58C447.813 102.013 446.696 102.241 445.533 102.241C443.573 102.241 441.863 101.649 440.382 100.486C438.9 99.3235 437.92 97.8417 437.418 95.9953H458.071C458.185 95.2886 458.254 94.5819 458.254 93.8297C458.231 93.0546 458.162 92.3251 458.071 91.664C457.707 89.658 456.931 87.8571 455.746 86.2842C454.561 84.6885 453.102 83.4347 451.324 82.5229C449.546 81.5882 447.608 81.1095 445.533 81.1095ZM445.533 85.4408C447.494 85.4408 449.204 86.0107 450.685 87.1732C452.144 88.3358 453.147 89.8404 453.649 91.664H437.418C437.92 89.8404 438.9 88.3358 440.382 87.1732C441.863 86.0107 443.573 85.4408 445.533 85.4408ZM473.761 72.4699V93.898C473.807 96.246 474.377 98.366 475.517 100.281C476.657 102.173 478.184 103.7 480.099 104.84C482.036 105.98 484.156 106.55 486.482 106.55V102.241C484.931 102.241 483.518 101.854 482.242 101.102C480.988 100.349 479.985 99.3463 479.232 98.0925C478.48 96.8387 478.115 95.4254 478.093 93.8525V91.664H486.482V87.3556H478.093V72.4699H473.761ZM487.613 72.4699V106.55H491.921V93.7841C491.944 92.2111 492.331 90.7978 493.084 89.544C493.836 88.2902 494.839 87.31 496.093 86.5578C497.346 85.8055 498.76 85.4408 500.31 85.4408C501.86 85.4408 503.273 85.8055 504.55 86.5578C505.804 87.31 506.807 88.313 507.559 89.5668C508.311 90.8206 508.699 92.2339 508.722 93.8069V106.618H513.03V93.6701C513.03 91.9832 512.734 90.3875 512.164 88.8829C511.594 87.3556 510.75 86.0107 509.633 84.8481C508.516 83.6855 507.172 82.7736 505.599 82.1126C504.026 81.4515 502.27 81.1095 500.333 81.1095C498.714 81.1095 497.21 81.3831 495.774 81.953C494.337 82.5229 493.061 83.2979 491.921 84.301V72.4699H487.613ZM526.9 81.1095C524.575 81.1095 522.432 81.7022 520.517 82.842C518.579 83.9818 517.052 85.5319 515.912 87.4468C514.75 89.3845 514.18 91.5045 514.18 93.8297C514.18 96.1776 514.75 98.2977 515.912 100.213C517.052 102.15 518.579 103.677 520.517 104.84C522.432 105.98 524.575 106.55 526.9 106.55C528.495 106.55 530.023 106.276 531.459 105.706C532.872 105.159 534.172 104.361 535.289 103.358V106.55H539.62V93.8297C539.597 91.4589 539.004 89.3389 537.865 87.424C536.725 85.5091 535.197 83.9818 533.283 82.842C531.368 81.7022 529.225 81.1095 526.9 81.1095ZM526.9 85.4408C528.45 85.4408 529.863 85.8055 531.14 86.5578C532.394 87.31 533.419 88.3358 534.172 89.5896C534.924 90.8662 535.289 92.2795 535.289 93.8297C535.289 95.3798 534.924 96.7931 534.172 98.0697C533.419 99.3463 532.394 100.349 531.14 101.102C529.863 101.854 528.45 102.241 526.9 102.241C525.35 102.241 523.936 101.854 522.66 101.102C521.383 100.349 520.38 99.3463 519.628 98.0697C518.876 96.7931 518.511 95.3798 518.511 93.8297C518.511 92.2795 518.876 90.8662 519.628 89.5896C520.38 88.3358 521.383 87.31 522.66 86.5578C523.936 85.8055 525.35 85.4408 526.9 85.4408ZM540.747 81.1095V106.55H545.078V93.8297C545.078 92.2795 545.443 90.8662 546.195 89.5896C546.947 88.3358 547.95 87.31 549.227 86.5578C550.503 85.8055 551.917 85.4408 553.467 85.4408C555.017 85.4408 556.43 85.8055 557.684 86.5578C558.961 87.31 559.964 88.313 560.716 89.5668C561.445 90.8206 561.833 92.2339 561.856 93.7841V106.55H566.187V93.8297C566.187 91.5045 565.617 89.3617 564.454 87.4468C563.315 85.5319 561.765 83.9818 559.85 82.842C557.935 81.7022 555.792 81.1095 553.467 81.1095C551.848 81.1095 550.344 81.4059 548.908 81.953C547.471 82.5229 546.195 83.2979 545.078 84.301V81.1095H540.747ZM590.084 81.1095V102.492C590.084 104.042 589.719 105.456 588.967 106.709C588.214 107.986 587.211 108.989 585.935 109.741C584.658 110.493 583.245 110.881 581.695 110.881V115.189C584.02 115.189 586.14 114.62 588.078 113.48C589.992 112.34 591.52 110.813 592.66 108.898C593.799 107.006 594.369 104.863 594.415 102.515V81.1095H590.084ZM590.084 72.4699V76.8011H594.415V72.4699H590.084ZM620.986 106.55V81.1095H616.655V93.8297C616.632 95.4026 616.267 96.8159 615.515 98.0925C614.763 99.3463 613.76 100.349 612.506 101.102C611.23 101.854 609.816 102.241 608.266 102.241C606.716 102.241 605.303 101.854 604.049 101.102C602.772 100.372 601.769 99.3691 601.017 98.1153C600.287 96.8615 599.9 95.4482 599.877 93.8752V81.1095H595.546V93.8297C595.569 96.2004 596.161 98.3432 597.278 100.235C598.418 102.15 599.946 103.677 601.883 104.84C603.798 105.98 605.941 106.55 608.266 106.55C609.862 106.55 611.389 106.276 612.825 105.706C614.239 105.136 615.538 104.361 616.655 103.358V106.55H620.986ZM631.801 81.1323C631.596 81.1323 631.391 81.1095 631.186 81.1095C630.251 81.1095 629.362 81.2007 628.496 81.3831C627.447 81.5882 626.49 82.0214 625.601 82.6369C624.712 83.2979 624.028 84.1186 623.549 85.0988C623.07 86.079 622.82 87.1049 622.797 88.1763C622.842 89.4528 623.184 90.5926 623.823 91.5729C624.438 92.5531 625.304 93.3053 626.376 93.8069C627.333 94.2172 628.313 94.5591 629.316 94.8555C630.32 95.1518 631.277 95.4254 632.212 95.6533C632.371 95.6989 632.508 95.7445 632.667 95.7673C634.901 96.3372 636.292 96.7931 636.839 97.1579C637.637 97.6822 638.025 98.3888 638.025 99.3007C638.025 100.304 637.569 101.193 636.68 101.945C635.791 102.697 634.4 103.085 632.531 103.085C631.596 103.085 630.753 102.994 630.023 102.788C629.271 102.583 628.655 102.264 628.177 101.808C627.607 101.238 627.196 100.646 626.9 99.9846C626.604 99.3235 626.399 98.708 626.307 98.0925L622.113 98.7536C622.592 101.33 623.64 103.267 625.282 104.612C626.353 105.456 627.561 105.98 628.906 106.231C630.251 106.481 631.391 106.595 632.371 106.595H632.554C633.488 106.595 634.423 106.504 635.335 106.299C636.224 106.117 637.022 105.889 637.683 105.592C638.48 105.25 639.187 104.84 639.803 104.316C640.395 103.791 640.851 103.29 641.148 102.766C641.49 102.173 641.786 101.489 642.014 100.714C642.242 99.9618 642.356 99.3463 642.379 98.8676C642.379 97.4542 642.037 96.2688 641.376 95.3114C640.509 94.2172 639.324 93.3737 637.819 92.8038C636.315 92.2339 634.742 91.778 633.078 91.3905C631.55 91.0486 630.183 90.6382 628.929 90.1595C627.812 89.5896 627.219 89.0653 627.128 88.5638C627.037 88.0395 626.991 87.7203 626.991 87.5836C626.991 86.8541 627.356 86.1702 628.086 85.5547C628.883 84.9392 630.206 84.6429 632.075 84.6429C632.873 84.6429 633.602 84.7113 634.218 84.8709C634.833 85.0304 635.357 85.2812 635.745 85.6687C636.588 86.535 637.113 87.4924 637.318 88.541L641.467 87.9711C641.307 87.2872 641.125 86.6261 640.92 85.9651C640.692 85.304 640.395 84.7341 640.031 84.2098C639.369 83.2296 638.275 82.4317 636.771 81.8162C635.95 81.4971 635.175 81.2919 634.446 81.2235C633.716 81.1551 633.055 81.1095 632.417 81.1095L631.801 81.1323ZM643.533 72.4699V93.898C643.579 96.246 644.149 98.366 645.288 100.281C646.428 102.173 647.956 103.7 649.87 104.84C651.808 105.98 653.928 106.55 656.253 106.55V102.241C654.703 102.241 653.29 101.854 652.013 101.102C650.759 100.349 649.756 99.3463 649.004 98.0925C648.252 96.8387 647.887 95.4254 647.864 93.8525V91.664H656.253V87.3556H647.864V72.4699H643.533ZM684.485 81.1095C682.16 81.1095 680.017 81.7022 678.103 82.842C676.165 83.9818 674.638 85.5319 673.498 87.4468C672.335 89.3845 671.765 91.5045 671.765 93.8297C671.765 96.1776 672.335 98.2977 673.498 100.213C674.638 102.15 676.165 103.677 678.103 104.84C680.017 105.98 682.16 106.55 684.485 106.55C686.081 106.55 687.609 106.276 689.045 105.706C690.458 105.159 691.735 104.361 692.874 103.381L689.911 100.258C689.181 100.874 688.361 101.352 687.426 101.717C686.514 102.059 685.534 102.241 684.485 102.241C682.935 102.241 681.522 101.854 680.245 101.102C678.969 100.349 677.966 99.3463 677.214 98.0697C676.461 96.7931 676.097 95.3798 676.097 93.8297C676.097 92.2795 676.461 90.8662 677.214 89.5896C677.966 88.3358 678.969 87.31 680.245 86.5578C681.522 85.8055 682.935 85.4408 684.485 85.4408C685.534 85.4408 686.537 85.6231 687.449 85.9651C688.384 86.3298 689.227 86.8313 689.956 87.4696L693.102 84.5061C691.963 83.4347 690.64 82.6141 689.181 82.0214C687.7 81.4287 686.15 81.1095 684.485 81.1095ZM706.965 81.1095C704.64 81.1095 702.497 81.7022 700.582 82.842C698.645 83.9818 697.117 85.5319 695.978 87.4468C694.815 89.3845 694.245 91.5045 694.245 93.8297C694.245 96.1776 694.815 98.2977 695.978 100.213C697.117 102.15 698.645 103.677 700.582 104.84C702.497 105.98 704.64 106.55 706.965 106.55C708.561 106.55 710.088 106.276 711.524 105.706C712.938 105.159 714.237 104.361 715.354 103.358V106.55H719.685V93.8297C719.663 91.4589 719.07 89.3389 717.93 87.424C716.79 85.5091 715.263 83.9818 713.348 82.842C711.433 81.7022 709.29 81.1095 706.965 81.1095ZM706.965 85.4408C708.515 85.4408 709.929 85.8055 711.205 86.5578C712.459 87.31 713.485 88.3358 714.237 89.5896C714.989 90.8662 715.354 92.2795 715.354 93.8297C715.354 95.3798 714.989 96.7931 714.237 98.0697C713.485 99.3463 712.459 100.349 711.205 101.102C709.929 101.854 708.515 102.241 706.965 102.241C705.415 102.241 704.002 101.854 702.725 101.102C701.449 100.349 700.446 99.3463 699.693 98.0697C698.941 96.7931 698.576 95.3798 698.576 93.8297C698.576 92.2795 698.941 90.8662 699.693 89.5896C700.446 88.3358 701.449 87.31 702.725 86.5578C704.002 85.8055 705.415 85.4408 706.965 85.4408ZM733.532 106.55C735.857 106.55 738 105.98 739.915 104.84C741.853 103.677 743.38 102.15 744.52 100.213C745.683 98.2977 746.252 96.1776 746.252 93.8297C746.252 91.5045 745.683 89.3845 744.52 87.4468C743.38 85.5319 741.853 83.9818 739.915 82.842C738 81.7022 735.857 81.1095 733.532 81.1095C731.914 81.1095 730.409 81.4059 728.973 81.953C727.537 82.5229 726.26 83.2979 725.143 84.301V72.4699H720.812V93.8525C720.835 96.2004 721.428 98.3432 722.567 100.258C723.684 102.15 725.212 103.677 727.149 104.84C729.064 105.98 731.207 106.55 733.532 106.55ZM733.532 102.241C731.982 102.241 730.569 101.854 729.292 101.102C728.016 100.349 727.013 99.3463 726.26 98.0697C725.508 96.7931 725.143 95.3798 725.143 93.8297C725.143 92.2795 725.508 90.8662 726.26 89.5896C727.013 88.3358 728.016 87.31 729.292 86.5578C730.569 85.8055 731.982 85.4408 733.532 85.4408C735.082 85.4408 736.496 85.8055 737.772 86.5578C739.026 87.31 740.052 88.3358 740.804 89.5896C741.556 90.8662 741.921 92.2795 741.921 93.8297C741.921 95.3798 741.556 96.7931 740.804 98.0697C740.052 99.3463 739.026 100.349 737.772 101.102C736.496 101.854 735.082 102.241 733.532 102.241ZM747.379 72.4699V106.55H751.71V72.4699H747.379ZM765.587 81.1095C763.49 81.1095 761.575 81.5882 759.797 82.5229C758.019 83.4347 756.537 84.6885 755.351 86.2842C754.189 87.8571 753.414 89.658 753.049 91.664C752.935 92.4391 752.867 93.1686 752.867 93.8297C752.89 94.6275 752.958 95.3342 753.049 95.9953C753.414 98.0241 754.189 99.825 755.374 101.398C756.56 102.971 758.019 104.225 759.797 105.159C761.575 106.094 763.49 106.55 765.587 106.55C767.251 106.55 768.824 106.253 770.306 105.638C771.765 105.045 773.087 104.202 774.227 103.153L771.559 99.7566C770.807 100.532 769.895 101.124 768.892 101.58C767.866 102.013 766.749 102.241 765.587 102.241C763.626 102.241 761.917 101.649 760.435 100.486C758.953 99.3235 757.973 97.8417 757.472 95.9953H778.125C778.239 95.2886 778.307 94.5819 778.307 93.8297C778.284 93.0546 778.216 92.3251 778.125 91.664C777.76 89.658 776.985 87.8571 775.799 86.2842C774.614 84.6885 773.155 83.4347 771.377 82.5229C769.599 81.5882 767.661 81.1095 765.587 81.1095ZM765.587 85.4408C767.547 85.4408 769.257 86.0107 770.739 87.1732C772.198 88.3358 773.201 89.8404 773.702 91.664H757.472C757.973 89.8404 758.953 88.3358 760.435 87.1732C761.917 86.0107 763.626 85.4408 765.587 85.4408ZM795.366 96.4947V93.3157H831.016V96.4947H795.366ZM859.669 81.1095C857.344 81.1095 855.201 81.7022 853.286 82.842C851.348 83.9818 849.821 85.5319 848.681 87.4468C847.519 89.3845 846.949 91.5045 846.949 93.8297C846.949 96.1776 847.519 98.2977 848.681 100.213C849.821 102.15 851.348 103.677 853.286 104.84C855.201 105.98 857.344 106.55 859.669 106.55C861.265 106.55 862.792 106.276 864.228 105.706C865.642 105.159 866.941 104.361 868.058 103.358V106.55H872.389V93.8297C872.366 91.4589 871.774 89.3389 870.634 87.424C869.494 85.5091 867.967 83.9818 866.052 82.842C864.137 81.7022 861.994 81.1095 859.669 81.1095ZM859.669 85.4408C861.219 85.4408 862.632 85.8055 863.909 86.5578C865.163 87.31 866.189 88.3358 866.941 89.5896C867.693 90.8662 868.058 92.2795 868.058 93.8297C868.058 95.3798 867.693 96.7931 866.941 98.0697C866.189 99.3463 865.163 100.349 863.909 101.102C862.632 101.854 861.219 102.241 859.669 102.241C858.119 102.241 856.706 101.854 855.429 101.102C854.152 100.349 853.149 99.3463 852.397 98.0697C851.645 96.7931 851.28 95.3798 851.28 93.8297C851.28 92.2795 851.645 90.8662 852.397 89.5896C853.149 88.3358 854.152 87.31 855.429 86.5578C856.706 85.8055 858.119 85.4408 859.669 85.4408ZM900.617 106.55C902.942 106.55 905.085 105.98 907 104.84C908.938 103.677 910.465 102.15 911.605 100.213C912.767 98.2977 913.337 96.1776 913.337 93.8297C913.337 91.5045 912.767 89.3845 911.605 87.4468C910.465 85.5319 908.938 83.9818 907 82.842C905.085 81.7022 902.942 81.1095 900.617 81.1095C898.999 81.1095 897.494 81.4059 896.058 81.953C894.622 82.5229 893.345 83.2979 892.228 84.301V72.4699H887.897V93.8525C887.92 96.2004 888.512 98.3432 889.652 100.258C890.769 102.15 892.297 103.677 894.234 104.84C896.149 105.98 898.292 106.55 900.617 106.55ZM900.617 102.241C899.067 102.241 897.654 101.854 896.377 101.102C895.1 100.349 894.097 99.3463 893.345 98.0697C892.593 96.7931 892.228 95.3798 892.228 93.8297C892.228 92.2795 892.593 90.8662 893.345 89.5896C894.097 88.3358 895.1 87.31 896.377 86.5578C897.654 85.8055 899.067 85.4408 900.617 85.4408C902.167 85.4408 903.581 85.8055 904.857 86.5578C906.111 87.31 907.137 88.3358 907.889 89.5896C908.641 90.8662 909.006 92.2795 909.006 93.8297C909.006 95.3798 908.641 96.7931 907.889 98.0697C907.137 99.3463 906.111 100.349 904.857 101.102C903.581 101.854 902.167 102.241 900.617 102.241ZM927.184 81.1095C925.087 81.1095 923.172 81.5882 921.394 82.5229C919.616 83.4347 918.134 84.6885 916.949 86.2842C915.786 87.8571 915.011 89.658 914.646 91.664C914.532 92.4391 914.464 93.1686 914.464 93.8297C914.487 94.6275 914.555 95.3342 914.646 95.9953C915.011 98.0241 915.786 99.825 916.971 101.398C918.157 102.971 919.616 104.225 921.394 105.159C923.172 106.094 925.087 106.55 927.184 106.55C928.848 106.55 930.421 106.253 931.903 105.638C933.362 105.045 934.684 104.202 935.824 103.153L933.157 99.7566C932.404 100.532 931.492 101.124 930.489 101.58C929.464 102.013 928.347 102.241 927.184 102.241C925.224 102.241 923.514 101.649 922.032 100.486C920.55 99.3235 919.57 97.8417 919.069 95.9953H939.722C939.836 95.2886 939.904 94.5819 939.904 93.8297C939.881 93.0546 939.813 92.3251 939.722 91.664C939.357 89.658 938.582 87.8571 937.397 86.2842C936.211 84.6885 934.752 83.4347 932.974 82.5229C931.196 81.5882 929.258 81.1095 927.184 81.1095ZM927.184 85.4408C929.144 85.4408 930.854 86.0107 932.336 87.1732C933.795 88.3358 934.798 89.8404 935.299 91.664H919.069C919.57 89.8404 920.55 88.3358 922.032 87.1732C923.514 86.0107 925.224 85.4408 927.184 85.4408ZM941.031 72.4699V93.898C941.077 96.246 941.646 98.366 942.786 100.281C943.926 102.173 945.453 103.7 947.368 104.84C949.306 105.98 951.426 106.55 953.751 106.55V102.241C952.201 102.241 950.788 101.854 949.511 101.102C948.257 100.349 947.254 99.3463 946.502 98.0925C945.75 96.8387 945.385 95.4254 945.362 93.8525V91.664H953.751V87.3556H945.362V72.4699H941.031ZM954.882 72.4699V93.898C954.928 96.246 955.498 98.366 956.637 100.281C957.777 102.173 959.305 103.7 961.219 104.84C963.157 105.98 965.277 106.55 967.602 106.55V102.241C966.052 102.241 964.639 101.854 963.362 101.102C962.109 100.349 961.105 99.3463 960.353 98.0925C959.601 96.8387 959.236 95.4254 959.213 93.8525V91.664H967.602V87.3556H959.213V72.4699H954.882ZM981.454 81.1095C979.356 81.1095 977.441 81.5882 975.663 82.5229C973.885 83.4347 972.404 84.6885 971.218 86.2842C970.056 87.8571 969.281 89.658 968.916 91.664C968.802 92.4391 968.733 93.1686 968.733 93.8297C968.756 94.6275 968.825 95.3342 968.916 95.9953C969.281 98.0241 970.056 99.825 971.241 101.398C972.426 102.971 973.885 104.225 975.663 105.159C977.441 106.094 979.356 106.55 981.454 106.55C983.118 106.55 984.691 106.253 986.172 105.638C987.631 105.045 988.953 104.202 990.093 103.153L987.426 99.7566C986.674 100.532 985.762 101.124 984.759 101.58C983.733 102.013 982.616 102.241 981.454 102.241C979.493 102.241 977.783 101.649 976.302 100.486C974.82 99.3235 973.84 97.8417 973.338 95.9953H993.991C994.105 95.2886 994.174 94.5819 994.174 93.8297C994.151 93.0546 994.082 92.3251 993.991 91.664C993.627 89.658 992.851 87.8571 991.666 86.2842C990.481 84.6885 989.022 83.4347 987.244 82.5229C985.466 81.5882 983.528 81.1095 981.454 81.1095ZM981.454 85.4408C983.414 85.4408 985.124 86.0107 986.605 87.1732C988.064 88.3358 989.067 89.8404 989.569 91.664H973.338C973.84 89.8404 974.82 88.3358 976.302 87.1732C977.783 86.0107 979.493 85.4408 981.454 85.4408ZM995.3 81.1095V106.55H999.632V93.8297C999.632 92.2795 999.996 90.8662 1000.75 89.5896C1001.5 88.3358 1002.5 87.31 1003.78 86.5578C1005.06 85.8055 1006.47 85.4408 1008.02 85.4408V81.1095C1006.4 81.1095 1004.9 81.4059 1003.46 81.953C1002.03 82.5229 1000.75 83.2979 999.632 84.301V81.1095H995.3ZM1023.53 72.4699V76.8011H1034.54V106.55H1038.85V76.8011H1049.86V72.4699H1023.53ZM1050.55 72.4015L1062.2 106.527H1066.85L1078.5 72.4015H1073.87L1064.53 100.577L1055.2 72.4015H1050.55ZM1079.66 101.785V106.094H1083.99V101.785H1079.66Z" fill="white"/>
<path d="M557.036 151.581C557.036 152.712 556.626 153.594 555.806 154.227C554.985 154.859 553.872 155.176 552.466 155.176C550.942 155.176 549.771 154.979 548.95 154.587V153.146C549.478 153.368 550.052 153.544 550.673 153.673C551.294 153.802 551.909 153.866 552.519 153.866C553.515 153.866 554.265 153.679 554.769 153.304C555.272 152.923 555.524 152.396 555.524 151.722C555.524 151.276 555.434 150.913 555.252 150.632C555.076 150.345 554.777 150.081 554.355 149.841C553.939 149.601 553.304 149.328 552.448 149.023C551.253 148.596 550.397 148.089 549.882 147.503C549.372 146.917 549.117 146.152 549.117 145.209C549.117 144.219 549.489 143.431 550.233 142.845C550.978 142.259 551.962 141.966 553.187 141.966C554.464 141.966 555.639 142.2 556.711 142.669L556.245 143.97C555.185 143.524 554.153 143.302 553.151 143.302C552.36 143.302 551.742 143.472 551.297 143.812C550.852 144.151 550.629 144.623 550.629 145.227C550.629 145.672 550.711 146.038 550.875 146.325C551.039 146.606 551.314 146.867 551.701 147.107C552.094 147.342 552.691 147.603 553.494 147.89C554.842 148.37 555.768 148.886 556.271 149.437C556.781 149.987 557.036 150.702 557.036 151.581ZM560.815 145.367V151.616C560.815 152.401 560.994 152.987 561.352 153.374C561.709 153.761 562.269 153.954 563.03 153.954C564.038 153.954 564.773 153.679 565.236 153.128C565.705 152.577 565.939 151.678 565.939 150.43V145.367H567.398V155H566.194L565.983 153.708H565.904C565.605 154.183 565.189 154.546 564.656 154.798C564.129 155.05 563.525 155.176 562.846 155.176C561.674 155.176 560.795 154.897 560.209 154.341C559.629 153.784 559.339 152.894 559.339 151.669V145.367H560.815ZM574.983 155.176C574.356 155.176 573.782 155.062 573.261 154.833C572.745 154.599 572.312 154.241 571.96 153.761H571.854C571.925 154.323 571.96 154.856 571.96 155.36V159.324H570.501V145.367H571.688L571.89 146.686H571.96C572.335 146.158 572.771 145.777 573.27 145.543C573.768 145.309 574.339 145.191 574.983 145.191C576.261 145.191 577.245 145.628 577.937 146.501C578.634 147.374 578.982 148.599 578.982 150.175C578.982 151.757 578.628 152.987 577.919 153.866C577.216 154.739 576.237 155.176 574.983 155.176ZM574.772 146.431C573.788 146.431 573.076 146.703 572.637 147.248C572.197 147.793 571.972 148.66 571.96 149.85V150.175C571.96 151.528 572.186 152.498 572.637 153.084C573.088 153.664 573.812 153.954 574.808 153.954C575.64 153.954 576.29 153.617 576.759 152.943C577.233 152.27 577.471 151.341 577.471 150.157C577.471 148.956 577.233 148.036 576.759 147.397C576.29 146.753 575.628 146.431 574.772 146.431ZM586.022 155.176C585.396 155.176 584.821 155.062 584.3 154.833C583.784 154.599 583.351 154.241 582.999 153.761H582.894C582.964 154.323 582.999 154.856 582.999 155.36V159.324H581.54V145.367H582.727L582.929 146.686H582.999C583.374 146.158 583.811 145.777 584.309 145.543C584.807 145.309 585.378 145.191 586.022 145.191C587.3 145.191 588.284 145.628 588.976 146.501C589.673 147.374 590.021 148.599 590.021 150.175C590.021 151.757 589.667 152.987 588.958 153.866C588.255 154.739 587.276 155.176 586.022 155.176ZM585.812 146.431C584.827 146.431 584.115 146.703 583.676 147.248C583.236 147.793 583.011 148.66 582.999 149.85V150.175C582.999 151.528 583.225 152.498 583.676 153.084C584.127 153.664 584.851 153.954 585.847 153.954C586.679 153.954 587.329 153.617 587.798 152.943C588.272 152.27 588.51 151.341 588.51 150.157C588.51 148.956 588.272 148.036 587.798 147.397C587.329 146.753 586.667 146.431 585.812 146.431ZM600.894 150.175C600.894 151.745 600.498 152.973 599.707 153.857C598.916 154.736 597.823 155.176 596.429 155.176C595.567 155.176 594.803 154.974 594.135 154.569C593.467 154.165 592.951 153.585 592.588 152.829C592.225 152.073 592.043 151.188 592.043 150.175C592.043 148.604 592.436 147.383 593.221 146.51C594.006 145.631 595.096 145.191 596.49 145.191C597.838 145.191 598.907 145.64 599.698 146.536C600.495 147.433 600.894 148.646 600.894 150.175ZM593.555 150.175C593.555 151.405 593.801 152.343 594.293 152.987C594.785 153.632 595.509 153.954 596.464 153.954C597.419 153.954 598.143 153.635 598.635 152.996C599.133 152.352 599.382 151.411 599.382 150.175C599.382 148.95 599.133 148.021 598.635 147.389C598.143 146.75 597.413 146.431 596.446 146.431C595.491 146.431 594.771 146.744 594.284 147.371C593.798 147.998 593.555 148.933 593.555 150.175ZM607.854 145.191C608.282 145.191 608.666 145.227 609.006 145.297L608.804 146.65C608.405 146.562 608.054 146.519 607.749 146.519C606.97 146.519 606.302 146.835 605.745 147.468C605.194 148.101 604.919 148.889 604.919 149.832V155H603.46V145.367H604.664L604.831 147.151H604.901C605.259 146.524 605.689 146.041 606.193 145.701C606.697 145.361 607.251 145.191 607.854 145.191ZM613.919 153.972C614.177 153.972 614.426 153.954 614.666 153.919C614.906 153.878 615.097 153.837 615.237 153.796V154.912C615.079 154.988 614.845 155.05 614.534 155.097C614.229 155.149 613.954 155.176 613.708 155.176C611.845 155.176 610.913 154.194 610.913 152.231V146.501H609.533V145.798L610.913 145.191L611.528 143.135H612.372V145.367H615.167V146.501H612.372V152.17C612.372 152.75 612.51 153.195 612.785 153.506C613.061 153.816 613.438 153.972 613.919 153.972ZM623.385 152.372C623.385 153.269 623.051 153.96 622.383 154.446C621.715 154.933 620.777 155.176 619.57 155.176C618.293 155.176 617.297 154.974 616.582 154.569V153.216C617.045 153.45 617.54 153.635 618.067 153.77C618.601 153.904 619.113 153.972 619.605 153.972C620.367 153.972 620.953 153.852 621.363 153.611C621.773 153.365 621.979 152.993 621.979 152.495C621.979 152.12 621.814 151.801 621.486 151.537C621.164 151.268 620.531 150.951 619.588 150.588C618.691 150.254 618.053 149.964 617.672 149.718C617.297 149.466 617.016 149.182 616.828 148.865C616.646 148.549 616.556 148.171 616.556 147.731C616.556 146.946 616.875 146.328 617.514 145.877C618.152 145.42 619.028 145.191 620.142 145.191C621.179 145.191 622.192 145.402 623.183 145.824L622.664 147.011C621.697 146.612 620.821 146.413 620.036 146.413C619.345 146.413 618.823 146.521 618.472 146.738C618.12 146.955 617.944 147.254 617.944 147.635C617.944 147.893 618.009 148.112 618.138 148.294C618.272 148.476 618.486 148.648 618.779 148.812C619.072 148.977 619.635 149.214 620.467 149.524C621.609 149.94 622.38 150.359 622.778 150.781C623.183 151.203 623.385 151.733 623.385 152.372ZM634.292 155.176C632.897 155.176 631.816 154.748 631.049 153.893C630.287 153.031 629.906 151.815 629.906 150.245C629.906 148.634 630.293 147.389 631.066 146.51C631.846 145.631 632.953 145.191 634.389 145.191C634.852 145.191 635.314 145.241 635.777 145.341C636.24 145.44 636.604 145.558 636.867 145.692L636.419 146.932C636.097 146.803 635.745 146.697 635.364 146.615C634.983 146.527 634.646 146.483 634.354 146.483C632.396 146.483 631.418 147.731 631.418 150.228C631.418 151.411 631.655 152.319 632.13 152.952C632.61 153.585 633.319 153.901 634.257 153.901C635.06 153.901 635.883 153.729 636.727 153.383V154.675C636.082 155.009 635.271 155.176 634.292 155.176ZM644.944 155L644.654 153.629H644.584C644.104 154.232 643.623 154.643 643.143 154.859C642.668 155.07 642.073 155.176 641.358 155.176C640.403 155.176 639.653 154.93 639.108 154.438C638.569 153.945 638.3 153.245 638.3 152.337C638.3 150.392 639.855 149.372 642.967 149.278L644.602 149.226V148.628C644.602 147.872 644.438 147.315 644.109 146.958C643.787 146.595 643.269 146.413 642.554 146.413C641.751 146.413 640.843 146.659 639.829 147.151L639.381 146.035C639.855 145.777 640.374 145.575 640.937 145.429C641.505 145.282 642.073 145.209 642.642 145.209C643.79 145.209 644.64 145.464 645.19 145.974C645.747 146.483 646.025 147.301 646.025 148.426V155H644.944ZM641.648 153.972C642.557 153.972 643.269 153.723 643.784 153.225C644.306 152.727 644.566 152.029 644.566 151.133V150.263L643.107 150.324C641.947 150.365 641.109 150.547 640.594 150.869C640.084 151.186 639.829 151.681 639.829 152.354C639.829 152.882 639.987 153.283 640.304 153.559C640.626 153.834 641.074 153.972 641.648 153.972ZM655.254 152.372C655.254 153.269 654.92 153.96 654.252 154.446C653.584 154.933 652.646 155.176 651.439 155.176C650.162 155.176 649.166 154.974 648.451 154.569V153.216C648.914 153.45 649.409 153.635 649.937 153.77C650.47 153.904 650.982 153.972 651.475 153.972C652.236 153.972 652.822 153.852 653.232 153.611C653.643 153.365 653.848 152.993 653.848 152.495C653.848 152.12 653.684 151.801 653.355 151.537C653.033 151.268 652.4 150.951 651.457 150.588C650.561 150.254 649.922 149.964 649.541 149.718C649.166 149.466 648.885 149.182 648.697 148.865C648.516 148.549 648.425 148.171 648.425 147.731C648.425 146.946 648.744 146.328 649.383 145.877C650.021 145.42 650.897 145.191 652.011 145.191C653.048 145.191 654.062 145.402 655.052 145.824L654.533 147.011C653.566 146.612 652.69 146.413 651.905 146.413C651.214 146.413 650.692 146.521 650.341 146.738C649.989 146.955 649.813 147.254 649.813 147.635C649.813 147.893 649.878 148.112 650.007 148.294C650.142 148.476 650.355 148.648 650.648 148.812C650.941 148.977 651.504 149.214 652.336 149.524C653.479 149.94 654.249 150.359 654.647 150.781C655.052 151.203 655.254 151.733 655.254 152.372ZM660.747 153.972C661.005 153.972 661.254 153.954 661.494 153.919C661.734 153.878 661.925 153.837 662.065 153.796V154.912C661.907 154.988 661.673 155.05 661.362 155.097C661.058 155.149 660.782 155.176 660.536 155.176C658.673 155.176 657.741 154.194 657.741 152.231V146.501H656.361V145.798L657.741 145.191L658.356 143.135H659.2V145.367H661.995V146.501H659.2V152.17C659.2 152.75 659.338 153.195 659.613 153.506C659.889 153.816 660.267 153.972 660.747 153.972ZM665.458 155H663.999V145.367H665.458V155ZM663.876 142.757C663.876 142.423 663.958 142.18 664.122 142.027C664.286 141.869 664.491 141.79 664.737 141.79C664.972 141.79 665.174 141.869 665.344 142.027C665.514 142.186 665.599 142.429 665.599 142.757C665.599 143.085 665.514 143.331 665.344 143.495C665.174 143.653 664.972 143.732 664.737 143.732C664.491 143.732 664.286 143.653 664.122 143.495C663.958 143.331 663.876 143.085 663.876 142.757ZM675.144 155V148.769C675.144 147.983 674.965 147.397 674.607 147.011C674.25 146.624 673.69 146.431 672.929 146.431C671.921 146.431 671.183 146.703 670.714 147.248C670.245 147.793 670.011 148.692 670.011 149.946V155H668.552V145.367H669.738L669.976 146.686H670.046C670.345 146.211 670.764 145.845 671.303 145.587C671.842 145.323 672.442 145.191 673.104 145.191C674.265 145.191 675.138 145.473 675.724 146.035C676.31 146.592 676.603 147.485 676.603 148.716V155H675.144ZM687.492 145.367V146.29L685.708 146.501C685.872 146.706 686.019 146.976 686.147 147.31C686.276 147.638 686.341 148.01 686.341 148.426C686.341 149.369 686.019 150.122 685.374 150.685C684.729 151.247 683.845 151.528 682.72 151.528C682.433 151.528 682.163 151.505 681.911 151.458C681.29 151.786 680.979 152.199 680.979 152.697C680.979 152.961 681.088 153.157 681.305 153.286C681.521 153.409 681.894 153.471 682.421 153.471H684.126C685.169 153.471 685.969 153.69 686.525 154.13C687.088 154.569 687.369 155.208 687.369 156.046C687.369 157.112 686.941 157.924 686.086 158.48C685.23 159.043 683.982 159.324 682.342 159.324C681.082 159.324 680.109 159.09 679.424 158.621C678.744 158.152 678.404 157.49 678.404 156.635C678.404 156.049 678.592 155.542 678.967 155.114C679.342 154.687 679.869 154.396 680.549 154.244C680.303 154.133 680.095 153.96 679.925 153.726C679.761 153.491 679.679 153.219 679.679 152.908C679.679 152.557 679.772 152.249 679.96 151.985C680.147 151.722 680.443 151.467 680.848 151.221C680.35 151.016 679.942 150.667 679.626 150.175C679.315 149.683 679.16 149.12 679.16 148.487C679.16 147.433 679.477 146.621 680.109 146.053C680.742 145.479 681.639 145.191 682.799 145.191C683.303 145.191 683.757 145.25 684.161 145.367H687.492ZM679.811 156.617C679.811 157.139 680.03 157.534 680.47 157.804C680.909 158.073 681.539 158.208 682.359 158.208C683.584 158.208 684.489 158.023 685.075 157.654C685.667 157.291 685.963 156.796 685.963 156.169C685.963 155.647 685.802 155.284 685.479 155.079C685.157 154.88 684.551 154.78 683.66 154.78H681.911C681.249 154.78 680.733 154.938 680.364 155.255C679.995 155.571 679.811 156.025 679.811 156.617ZM680.602 148.452C680.602 149.126 680.792 149.636 681.173 149.981C681.554 150.327 682.084 150.5 682.764 150.5C684.188 150.5 684.899 149.809 684.899 148.426C684.899 146.979 684.179 146.255 682.737 146.255C682.052 146.255 681.524 146.439 681.155 146.809C680.786 147.178 680.602 147.726 680.602 148.452ZM698.487 146.501H696.035V155H694.576V146.501H692.854V145.842L694.576 145.314V144.778C694.576 142.411 695.61 141.228 697.679 141.228C698.188 141.228 698.786 141.33 699.472 141.535L699.094 142.704C698.531 142.522 698.051 142.432 697.652 142.432C697.102 142.432 696.694 142.616 696.431 142.985C696.167 143.349 696.035 143.935 696.035 144.743V145.367H698.487V146.501ZM704.64 145.191C705.067 145.191 705.451 145.227 705.791 145.297L705.589 146.65C705.19 146.562 704.839 146.519 704.534 146.519C703.755 146.519 703.087 146.835 702.53 147.468C701.979 148.101 701.704 148.889 701.704 149.832V155H700.245V145.367H701.449L701.616 147.151H701.687C702.044 146.524 702.475 146.041 702.979 145.701C703.482 145.361 704.036 145.191 704.64 145.191ZM715.907 150.175C715.907 151.745 715.512 152.973 714.721 153.857C713.93 154.736 712.837 155.176 711.442 155.176C710.581 155.176 709.816 154.974 709.148 154.569C708.48 154.165 707.965 153.585 707.602 152.829C707.238 152.073 707.057 151.188 707.057 150.175C707.057 148.604 707.449 147.383 708.234 146.51C709.02 145.631 710.109 145.191 711.504 145.191C712.852 145.191 713.921 145.64 714.712 146.536C715.509 147.433 715.907 148.646 715.907 150.175ZM708.568 150.175C708.568 151.405 708.814 152.343 709.307 152.987C709.799 153.632 710.522 153.954 711.478 153.954C712.433 153.954 713.156 153.635 713.648 152.996C714.146 152.352 714.396 151.411 714.396 150.175C714.396 148.95 714.146 148.021 713.648 147.389C713.156 146.75 712.427 146.431 711.46 146.431C710.505 146.431 709.784 146.744 709.298 147.371C708.812 147.998 708.568 148.933 708.568 150.175ZM730.752 155V148.733C730.752 147.966 730.588 147.392 730.26 147.011C729.932 146.624 729.422 146.431 728.73 146.431C727.822 146.431 727.151 146.691 726.718 147.213C726.284 147.734 726.067 148.537 726.067 149.621V155H724.608V148.733C724.608 147.966 724.444 147.392 724.116 147.011C723.788 146.624 723.275 146.431 722.578 146.431C721.664 146.431 720.993 146.706 720.565 147.257C720.144 147.802 719.933 148.698 719.933 149.946V155H718.474V145.367H719.66L719.897 146.686H719.968C720.243 146.217 720.63 145.851 721.128 145.587C721.632 145.323 722.194 145.191 722.815 145.191C724.321 145.191 725.306 145.736 725.769 146.826H725.839C726.126 146.322 726.542 145.924 727.087 145.631C727.632 145.338 728.253 145.191 728.95 145.191C730.04 145.191 730.854 145.473 731.394 146.035C731.938 146.592 732.211 147.485 732.211 148.716V155H730.752ZM745.825 155L745.535 153.629H745.465C744.984 154.232 744.504 154.643 744.023 154.859C743.549 155.07 742.954 155.176 742.239 155.176C741.284 155.176 740.534 154.93 739.989 154.438C739.45 153.945 739.181 153.245 739.181 152.337C739.181 150.392 740.736 149.372 743.848 149.278L745.482 149.226V148.628C745.482 147.872 745.318 147.315 744.99 146.958C744.668 146.595 744.149 146.413 743.435 146.413C742.632 146.413 741.724 146.659 740.71 147.151L740.262 146.035C740.736 145.777 741.255 145.575 741.817 145.429C742.386 145.282 742.954 145.209 743.522 145.209C744.671 145.209 745.521 145.464 746.071 145.974C746.628 146.483 746.906 147.301 746.906 148.426V155H745.825ZM742.529 153.972C743.438 153.972 744.149 153.723 744.665 153.225C745.187 152.727 745.447 152.029 745.447 151.133V150.263L743.988 150.324C742.828 150.365 741.99 150.547 741.475 150.869C740.965 151.186 740.71 151.681 740.71 152.354C740.71 152.882 740.868 153.283 741.185 153.559C741.507 153.834 741.955 153.972 742.529 153.972ZM751.38 155H749.921V141.324H751.38V155ZM755.933 155H754.474V141.324H755.933V155ZM770.259 153.708H770.18C769.506 154.687 768.498 155.176 767.156 155.176C765.896 155.176 764.915 154.745 764.212 153.884C763.515 153.022 763.166 151.798 763.166 150.21C763.166 148.622 763.518 147.389 764.221 146.51C764.924 145.631 765.902 145.191 767.156 145.191C768.463 145.191 769.465 145.666 770.162 146.615H770.276L770.215 145.921L770.18 145.244V141.324H771.639V155H770.452L770.259 153.708ZM767.341 153.954C768.337 153.954 769.058 153.685 769.503 153.146C769.954 152.601 770.18 151.725 770.18 150.518V150.21C770.18 148.845 769.951 147.872 769.494 147.292C769.043 146.706 768.319 146.413 767.323 146.413C766.468 146.413 765.812 146.747 765.354 147.415C764.903 148.077 764.678 149.015 764.678 150.228C764.678 151.458 764.903 152.387 765.354 153.014C765.806 153.641 766.468 153.954 767.341 153.954ZM778.811 155.176C777.387 155.176 776.262 154.742 775.436 153.875C774.615 153.008 774.205 151.804 774.205 150.263C774.205 148.71 774.586 147.477 775.348 146.562C776.115 145.648 777.144 145.191 778.433 145.191C779.64 145.191 780.595 145.59 781.298 146.387C782.001 147.178 782.353 148.224 782.353 149.524V150.447H775.717C775.746 151.578 776.03 152.437 776.569 153.022C777.114 153.608 777.879 153.901 778.863 153.901C779.9 153.901 780.926 153.685 781.939 153.251V154.552C781.424 154.774 780.935 154.933 780.472 155.026C780.015 155.126 779.461 155.176 778.811 155.176ZM778.415 146.413C777.642 146.413 777.023 146.665 776.561 147.169C776.104 147.673 775.834 148.37 775.752 149.261H780.788C780.788 148.341 780.583 147.638 780.173 147.151C779.763 146.659 779.177 146.413 778.415 146.413ZM786.958 155L783.302 145.367H784.866L786.94 151.08C787.409 152.416 787.685 153.283 787.767 153.682H787.837C787.901 153.371 788.104 152.729 788.443 151.757C788.789 150.778 789.56 148.648 790.755 145.367H792.319L788.663 155H786.958ZM795.325 155H793.866V145.367H795.325V155ZM793.743 142.757C793.743 142.423 793.825 142.18 793.989 142.027C794.153 141.869 794.358 141.79 794.604 141.79C794.839 141.79 795.041 141.869 795.211 142.027C795.381 142.186 795.466 142.429 795.466 142.757C795.466 143.085 795.381 143.331 795.211 143.495C795.041 143.653 794.839 143.732 794.604 143.732C794.358 143.732 794.153 143.653 793.989 143.495C793.825 143.331 793.743 143.085 793.743 142.757ZM802.269 155.176C800.874 155.176 799.793 154.748 799.025 153.893C798.264 153.031 797.883 151.815 797.883 150.245C797.883 148.634 798.27 147.389 799.043 146.51C799.822 145.631 800.93 145.191 802.365 145.191C802.828 145.191 803.291 145.241 803.754 145.341C804.217 145.44 804.58 145.558 804.844 145.692L804.396 146.932C804.073 146.803 803.722 146.697 803.341 146.615C802.96 146.527 802.623 146.483 802.33 146.483C800.373 146.483 799.395 147.731 799.395 150.228C799.395 151.411 799.632 152.319 800.106 152.952C800.587 153.585 801.296 153.901 802.233 153.901C803.036 153.901 803.859 153.729 804.703 153.383V154.675C804.059 155.009 803.247 155.176 802.269 155.176ZM811.066 155.176C809.643 155.176 808.518 154.742 807.691 153.875C806.871 153.008 806.461 151.804 806.461 150.263C806.461 148.71 806.842 147.477 807.604 146.562C808.371 145.648 809.399 145.191 810.688 145.191C811.896 145.191 812.851 145.59 813.554 146.387C814.257 147.178 814.608 148.224 814.608 149.524V150.447H807.973C808.002 151.578 808.286 152.437 808.825 153.022C809.37 153.608 810.135 153.901 811.119 153.901C812.156 153.901 813.182 153.685 814.195 153.251V154.552C813.68 154.774 813.19 154.933 812.728 155.026C812.271 155.126 811.717 155.176 811.066 155.176ZM810.671 146.413C809.897 146.413 809.279 146.665 808.816 147.169C808.359 147.673 808.09 148.37 808.008 149.261H813.044C813.044 148.341 812.839 147.638 812.429 147.151C812.019 146.659 811.433 146.413 810.671 146.413ZM823.318 152.372C823.318 153.269 822.984 153.96 822.316 154.446C821.648 154.933 820.711 155.176 819.504 155.176C818.227 155.176 817.23 154.974 816.516 154.569V153.216C816.979 153.45 817.474 153.635 818.001 153.77C818.534 153.904 819.047 153.972 819.539 153.972C820.301 153.972 820.887 153.852 821.297 153.611C821.707 153.365 821.912 152.993 821.912 152.495C821.912 152.12 821.748 151.801 821.42 151.537C821.098 151.268 820.465 150.951 819.521 150.588C818.625 150.254 817.986 149.964 817.605 149.718C817.23 149.466 816.949 149.182 816.762 148.865C816.58 148.549 816.489 148.171 816.489 147.731C816.489 146.946 816.809 146.328 817.447 145.877C818.086 145.42 818.962 145.191 820.075 145.191C821.112 145.191 822.126 145.402 823.116 145.824L822.598 147.011C821.631 146.612 820.755 146.413 819.97 146.413C819.278 146.413 818.757 146.521 818.405 146.738C818.054 146.955 817.878 147.254 817.878 147.635C817.878 147.893 817.942 148.112 818.071 148.294C818.206 148.476 818.42 148.648 818.713 148.812C819.006 148.977 819.568 149.214 820.4 149.524C821.543 149.94 822.313 150.359 822.712 150.781C823.116 151.203 823.318 151.733 823.318 152.372ZM827.229 152.908L827.361 153.11C827.209 153.696 826.989 154.376 826.702 155.149C826.415 155.929 826.116 156.652 825.806 157.32H824.707C824.865 156.711 825.038 155.958 825.226 155.062C825.419 154.165 825.554 153.447 825.63 152.908H827.229ZM841.38 155V148.769C841.38 147.983 841.201 147.397 840.844 147.011C840.486 146.624 839.927 146.431 839.165 146.431C838.157 146.431 837.419 146.703 836.95 147.248C836.481 147.793 836.247 148.692 836.247 149.946V155H834.788V145.367H835.975L836.212 146.686H836.282C836.581 146.211 837 145.845 837.539 145.587C838.078 145.323 838.679 145.191 839.341 145.191C840.501 145.191 841.374 145.473 841.96 146.035C842.546 146.592 842.839 147.485 842.839 148.716V155H841.38ZM851.769 155L851.479 153.629H851.408C850.928 154.232 850.447 154.643 849.967 154.859C849.492 155.07 848.897 155.176 848.183 155.176C847.228 155.176 846.478 154.93 845.933 154.438C845.394 153.945 845.124 153.245 845.124 152.337C845.124 150.392 846.68 149.372 849.791 149.278L851.426 149.226V148.628C851.426 147.872 851.262 147.315 850.934 146.958C850.611 146.595 850.093 146.413 849.378 146.413C848.575 146.413 847.667 146.659 846.653 147.151L846.205 146.035C846.68 145.777 847.198 145.575 847.761 145.429C848.329 145.282 848.897 145.209 849.466 145.209C850.614 145.209 851.464 145.464 852.015 145.974C852.571 146.483 852.85 147.301 852.85 148.426V155H851.769ZM848.473 153.972C849.381 153.972 850.093 153.723 850.608 153.225C851.13 152.727 851.391 152.029 851.391 151.133V150.263L849.932 150.324C848.771 150.365 847.934 150.547 847.418 150.869C846.908 151.186 846.653 151.681 846.653 152.354C846.653 152.882 846.812 153.283 847.128 153.559C847.45 153.834 847.898 153.972 848.473 153.972ZM858.976 153.972C859.233 153.972 859.482 153.954 859.723 153.919C859.963 153.878 860.153 153.837 860.294 153.796V154.912C860.136 154.988 859.901 155.05 859.591 155.097C859.286 155.149 859.011 155.176 858.765 155.176C856.901 155.176 855.97 154.194 855.97 152.231V146.501H854.59V145.798L855.97 145.191L856.585 143.135H857.429V145.367H860.224V146.501H857.429V152.17C857.429 152.75 857.566 153.195 857.842 153.506C858.117 153.816 858.495 153.972 858.976 153.972ZM863.687 155H862.228V145.367H863.687V155ZM862.104 142.757C862.104 142.423 862.187 142.18 862.351 142.027C862.515 141.869 862.72 141.79 862.966 141.79C863.2 141.79 863.402 141.869 863.572 142.027C863.742 142.186 863.827 142.429 863.827 142.757C863.827 143.085 863.742 143.331 863.572 143.495C863.402 143.653 863.2 143.732 862.966 143.732C862.72 143.732 862.515 143.653 862.351 143.495C862.187 143.331 862.104 143.085 862.104 142.757ZM868.89 155L865.233 145.367H866.798L868.872 151.08C869.341 152.416 869.616 153.283 869.698 153.682H869.769C869.833 153.371 870.035 152.729 870.375 151.757C870.721 150.778 871.491 148.648 872.687 145.367H874.251L870.595 155H868.89ZM879.867 155.176C878.443 155.176 877.318 154.742 876.492 153.875C875.672 153.008 875.262 151.804 875.262 150.263C875.262 148.71 875.643 147.477 876.404 146.562C877.172 145.648 878.2 145.191 879.489 145.191C880.696 145.191 881.651 145.59 882.354 146.387C883.058 147.178 883.409 148.224 883.409 149.524V150.447H876.773C876.803 151.578 877.087 152.437 877.626 153.022C878.171 153.608 878.936 153.901 879.92 153.901C880.957 153.901 881.982 153.685 882.996 153.251V154.552C882.48 154.774 881.991 154.933 881.528 155.026C881.071 155.126 880.518 155.176 879.867 155.176ZM879.472 146.413C878.698 146.413 878.08 146.665 877.617 147.169C877.16 147.673 876.891 148.37 876.809 149.261H881.845C881.845 148.341 881.64 147.638 881.229 147.151C880.819 146.659 880.233 146.413 879.472 146.413ZM887.364 155H885.905V141.324H887.364V155ZM888.929 145.367H890.493L892.603 150.86C893.065 152.114 893.353 153.02 893.464 153.576H893.534C893.61 153.277 893.769 152.768 894.009 152.047C894.255 151.32 895.052 149.094 896.399 145.367H897.964L893.824 156.336C893.414 157.42 892.934 158.188 892.383 158.639C891.838 159.096 891.167 159.324 890.37 159.324C889.925 159.324 889.485 159.274 889.052 159.175V158.006C889.374 158.076 889.734 158.111 890.133 158.111C891.135 158.111 891.85 157.549 892.277 156.424L892.813 155.053L888.929 145.367Z" fill="white"/>
<g clip-path="url(#clip0_510_29)">
<path d="M616.53 189.685C616.53 188.123 615.269 186.852 613.701 186.852C612.133 186.852 610.864 188.117 610.864 189.689V201.553C610.864 203.106 612.135 204.39 613.707 204.39C615.267 204.39 616.536 203.106 616.536 201.553V189.67H616.517L616.53 189.685ZM584.42 187.395L584.428 205.795C584.428 207.491 585.777 208.842 587.443 208.842H589.48V215.129C589.48 216.7 590.745 217.969 592.298 217.969C593.85 217.969 595.109 216.704 595.134 215.156V208.869H598.954V215.156C598.954 216.733 600.219 217.998 601.772 217.998C603.349 217.998 604.612 216.733 604.612 215.142V208.856H606.678C608.346 208.856 609.693 207.495 609.693 205.831V187.374L584.338 187.391L584.414 187.395H584.42ZM602.912 181.779C602.318 181.779 601.839 181.3 601.839 180.705C601.839 180.121 602.318 179.636 602.912 179.632C603.506 179.632 603.985 180.121 603.985 180.705C603.985 181.3 603.506 181.779 602.912 181.779ZM591.297 181.779C590.703 181.779 590.224 181.3 590.224 180.705C590.224 180.117 590.703 179.636 591.297 179.636C591.891 179.636 592.37 180.125 592.37 180.728C592.37 181.332 591.943 181.779 591.334 181.779H591.297ZM605.306 172.632C605.421 172.431 605.333 172.199 605.16 172.086C604.961 172 604.731 172.057 604.616 172.259L602.604 175.9C600.94 175.124 599.046 174.693 597.064 174.693C595.083 174.693 593.197 175.105 591.521 175.849L589.54 172.201C589.438 172.013 589.195 171.942 589.007 172.048C588.815 172.134 588.746 172.393 588.853 172.565L590.828 176.159C586.937 178.166 584.311 181.986 584.311 186.375H609.856C609.856 181.986 607.221 178.264 603.334 176.257L605.306 172.632ZM580.466 186.839C578.9 186.839 577.629 188.113 577.629 189.681V201.549C577.629 203.121 578.902 204.386 580.474 204.386C582.034 204.386 583.305 203.121 583.305 201.549V189.685C583.305 188.123 582.04 186.852 580.487 186.852L580.466 186.839Z" fill="white"/>
</g>
<g clip-path="url(#clip1_510_29)">
<path d="M739.101 207.848C738.406 209.455 737.582 210.934 736.628 212.294C735.328 214.149 734.263 215.432 733.442 216.145C732.17 217.315 730.807 217.914 729.348 217.948C728.3 217.948 727.037 217.65 725.566 217.045C724.09 216.443 722.734 216.145 721.494 216.145C720.194 216.145 718.799 216.443 717.307 217.045C715.813 217.65 714.609 217.965 713.689 217.996C712.29 218.056 710.895 217.44 709.502 216.145C708.613 215.37 707.502 214.041 706.17 212.158C704.741 210.148 703.567 207.817 702.646 205.159C701.661 202.288 701.167 199.509 701.167 196.817C701.167 193.735 701.833 191.076 703.167 188.848C704.216 187.058 705.611 185.646 707.357 184.61C709.103 183.573 710.989 183.045 713.021 183.012C714.132 183.012 715.59 183.355 717.402 184.031C719.208 184.709 720.368 185.053 720.877 185.053C721.257 185.053 722.545 184.651 724.73 183.849C726.795 183.106 728.539 182.798 729.967 182.92C733.837 183.232 736.745 184.758 738.678 187.506C735.217 189.603 733.505 192.541 733.539 196.309C733.57 199.244 734.635 201.686 736.728 203.626C737.676 204.526 738.735 205.222 739.913 205.716C739.658 206.457 739.388 207.167 739.101 207.848ZM730.225 172.92C730.225 175.221 729.385 177.369 727.71 179.357C725.688 181.72 723.243 183.086 720.591 182.871C720.557 182.595 720.538 182.304 720.538 181.999C720.538 179.791 721.499 177.427 723.206 175.494C724.059 174.516 725.143 173.702 726.457 173.053C727.769 172.414 729.01 172.061 730.177 172C730.211 172.308 730.225 172.615 730.225 172.92V172.92Z" fill="white"/>
</g>
<g clip-path="url(#clip2_510_29)">
<path d="M841.642 176.071L822.913 178.534V194.106H841.642V176.071ZM822.913 211.557L841.642 214.223V195.894H822.913V211.557ZM843.708 196.129L843.782 214.351L868.628 217.857V196.129H843.708ZM868.628 172.143L843.856 175.697V194.023H868.628V172.143Z" fill="white"/>
</g>
<defs>
<clipPath id="clip0_510_29">
<rect width="42.1667" height="46" fill="white" transform="translate(576 172)"/>
</clipPath>
<clipPath id="clip1_510_29">
<rect width="38.7467" height="46" fill="white" transform="translate(701.167 172)"/>
</clipPath>
<clipPath id="clip2_510_29">
<rect width="45.7143" height="45.7143" fill="white" transform="translate(822.913 172.143)"/>
</clipPath>
</defs>
</svg>
